<svg xmlns="http://www.w3.org/2000/svg" xmlns:xlink="http://www.w3.org/1999/xlink" width="610" height="343" viewBox="0 0 610 343">
  <defs>
    <clipPath id="clip-path">
      <rect id="Rectángulo_347124" data-name="Rectángulo 347124" width="610" height="343" transform="translate(210 -37.143)" fill="none"/>
    </clipPath>
  </defs>
  <g id="Grupo_1004461" data-name="Grupo 1004461" transform="translate(-3422.781 821.38)">
    <g id="Grupo_1004460" data-name="Grupo 1004460" transform="translate(3212.781 -784.237)" clip-path="url(#clip-path)">
      <g id="Grupo_1004458" data-name="Grupo 1004458" transform="translate(331.195 -27.706)">
        <g id="Grupo_1004445" data-name="Grupo 1004445" transform="translate(291.667 36.023)">
          <path id="Trazado_717125" data-name="Trazado 717125" d="M5797.185-330.164a42.743,42.743,0,0,1-3.651-10.95c-.613-3.162-.894-6.505.17-9.545.727-2.075,2.522-4.14,4.7-3.868s3.407,2.689,3.779,4.86a21.262,21.262,0,0,1-.953,9.961,63.39,63.39,0,0,1-4.056,9.241" transform="translate(-5748.404 355.657)" fill="#f9d86e"/>
          <path id="Trazado_717126" data-name="Trazado 717126" d="M5821.023-215.834c6.195-1.851,13.338-1.738,18.642,1.96a5.522,5.522,0,0,1,1.961,2.08,2.437,2.437,0,0,1-.315,2.7,3.024,3.024,0,0,1-1.619.728c-2.7.5-5.445-.42-8.039-1.331-3.951-1.387-8.074-2.887-10.882-5.991" transform="translate(-5771.524 241.194)" fill="#f9d86e"/>
          <path id="Trazado_717127" data-name="Trazado 717127" d="M5696.339-266.244a71.31,71.31,0,0,1-8.889-17.337c-1.354-3.871-2.264-8.515.2-11.794a3.767,3.767,0,0,1,1.925-1.456,3.34,3.34,0,0,1,3.063.916,7.448,7.448,0,0,1,1.718,2.831A37.57,37.57,0,0,1,5696.3-282.1q.534,7.759.618,15.541" transform="translate(-5659.457 307.698)" fill="#f9d86e"/>
          <path id="Trazado_717128" data-name="Trazado 717128" d="M5749.547-118.853c7.11-.58,14.565-.457,20.962,2.7,1.062.524,2.207,1.313,2.292,2.494a2.9,2.9,0,0,1-1.506,2.433,8.335,8.335,0,0,1-5.489,1.116,24.214,24.214,0,0,1-5.505-1.486c-3.95-1.414-8.089-3.006-10.712-6.281" transform="translate(-5712.251 159.735)" fill="#f9d86e"/>
          <path id="Trazado_717129" data-name="Trazado 717129" d="M5620.226-156.983a71.381,71.381,0,0,1-10.965-10.32c-2.806-3.267-5.416-7.054-5.656-11.356a3.3,3.3,0,0,1,.932-2.88c1.041-.794,2.554-.316,3.663.378,3.486,2.181,5.548,6.013,7.23,9.764a105.5,105.5,0,0,1,5.247,14.42" transform="translate(-5590.79 212.019)" fill="#f9d86e"/>
          <path id="Trazado_717130" data-name="Trazado 717130" d="M5705.805-39.021a31.234,31.234,0,0,1,19.236,2.577c2.255,1.094,4.551,2.692,5.176,5.12a1.7,1.7,0,0,1,.04.885,1.752,1.752,0,0,1-.7.861,8,8,0,0,1-5.3,1.378,18.36,18.36,0,0,1-5.4-1.386,53.29,53.29,0,0,1-10.463-5.472,6.224,6.224,0,0,1-2.7-2.92" transform="translate(-5675.758 93.508)" fill="#f9d86e"/>
          <path id="Trazado_717131" data-name="Trazado 717131" d="M5550.041-32.329a62.535,62.535,0,0,1-14.516-8.175c-3.325-2.51-6.519-5.536-7.829-9.49-.546-1.649-.67-3.654.495-4.943,1.617-1.787,4.57-1.119,6.689.028,8.012,4.337,12.706,13.148,14.765,22.024" transform="translate(-5527.294 107.235)" fill="#f9d86e"/>
          <path id="Trazado_717132" data-name="Trazado 717132" d="M5663.612,82.55a57.723,57.723,0,0,1,23.074,6.838,5.747,5.747,0,0,1,2.045,1.583,2.1,2.1,0,0,1,.113,2.432,2.588,2.588,0,0,1-1.059.722c-3.109,1.324-6.689.475-9.871-.663a38.54,38.54,0,0,1-12.148-6.7,9.141,9.141,0,0,1-2.891-3.707" transform="translate(-5640.124 -8.097)" fill="#f9d86e"/>
          <g id="Grupo_1004444" data-name="Grupo 1004444" transform="translate(19.07 12.828)">
            <path id="Trazado_717133" data-name="Trazado 717133" d="M5642.061-198.47a107.767,107.767,0,0,1,2.031-19.019,112.15,112.15,0,0,1,5.292-18.389,115.056,115.056,0,0,1,8.286-17.217,112.605,112.605,0,0,1,11.113-15.659,107.909,107.909,0,0,1,13.549-13.419q.908-.752,1.835-1.484c.567-.449-.093-1.364-.665-.912a109.252,109.252,0,0,0-14.051,13.319,113.9,113.9,0,0,0-11.526,15.559,114.992,114.992,0,0,0-8.749,17.264,114.154,114.154,0,0,0-5.729,18.5A108.67,108.67,0,0,0,5641-200.743q-.043,1.193-.063,2.387a.567.567,0,0,0,.617.5.577.577,0,0,0,.5-.618Z" transform="translate(-5640.939 284.691)" fill="#f9d86e"/>
          </g>
          <path id="Trazado_717134" data-name="Trazado 717134" d="M5884.142-346.081a22.886,22.886,0,0,1,13.907-14.5c1.951-.7,4.482-.973,5.775.645a3.622,3.622,0,0,1,.72,1.977,6.579,6.579,0,0,1-2.22,5.1,17,17,0,0,1-4.886,2.975c-4.277,1.926-8.6,3.831-13.3,3.809" transform="translate(-5824.261 361.138)" fill="#f9d86e"/>
        </g>
        <g id="Grupo_1004447" data-name="Grupo 1004447" transform="translate(66.978 0)">
          <ellipse id="Elipse_8444" data-name="Elipse 8444" cx="127.773" cy="127.773" rx="127.773" ry="127.773" fill="#ceefe3"/>
          <g id="Grupo_1004446" data-name="Grupo 1004446" transform="translate(1.152 0.338)">
            <path id="Trazado_717135" data-name="Trazado 717135" d="M5190.556-416.893c-12.317,7.2-23.16,20.489-30.289,29.775a22.474,22.474,0,0,0-4.1,7.123c-1.914,6.511,1.767,13.807-.577,20.176a7.542,7.542,0,0,1-2.872,3.839c-.977.62-2.123.924-3.129,1.5-4.818,2.74-6.217,16.652-1.271,19.688a8.372,8.372,0,0,0,3.616.918c5.667.558,9.324.391,12.217-4.327,1.849-3.015,3.28-7.976,8.625-5,5.771,3.21.594,9.315,4.275,12.61a4.179,4.179,0,0,0,2.546.922c4.165.264,7.84-2.947,12.006-3.2,2.291-.14,4.6.63,6.862.229,3.6-.639,9.171,3.356,11.893,6.015,3.384,3.306,2.424,5.854,2.5,9.8a27.62,27.62,0,0,0,3.3,11.98c5.177,9.491,17.815,8.165,18.679-2.927.212-2.725,1.129-6.2,3.852-6.435a2.935,2.935,0,0,1,1.494.268q.014-.921.014-1.844A127.557,127.557,0,0,0,5190.556-416.893Z" transform="translate(-4985.803 443.222)" fill="#88b769"/>
            <path id="Trazado_717136" data-name="Trazado 717136" d="M4627.649-552.224c2.9,3.734,1.258,6.578,1.129,11.121a6.28,6.28,0,0,0,.562,3.325,6.807,6.807,0,0,0,2.986,2.363c5.088,2.644,15.642,10.828,21.508,7.426a12.164,12.164,0,0,0,3.31-3.3c4.81-6.244,9.627-12.763,11.69-20.37,1.978-7.29.333-13.2-2.921-19.691a17.507,17.507,0,0,0-1.463-2.443,127,127,0,0,0-46.307,12.384,15.568,15.568,0,0,0,1.558,2.209C4621.972-556.494,4625.5-554.994,4627.649-552.224Z" transform="translate(-4547.166 573.793)" fill="#88b769"/>
            <path id="Trazado_717137" data-name="Trazado 717137" d="M4270.423-234.359a95.4,95.4,0,0,1,8.3-10.7c4.02-4.532,9.526-6.151,14.471-9.339a24.527,24.527,0,0,0,10.825-16.815c.315-2.153.291-4.515-.958-6.3-2.182-3.112-6.7-2.952-10.469-3.468-14.358-1.968-24.924-15.573-39.476-17.388-3.367-.42-7.722-.655-8.742-3.892-.382-1.211-.134-2.6-.73-3.718-1.125-2.115-4.161-1.85-6.452-2.552-4.334-1.328-6.062-7.595-3.139-11.06s9.213-2.96,11.683.842c.9,1.385,1.344,3.064,2.457,4.285s3.361,1.683,4.288.317c-1.862-12.8,9.364-14.81,16.1-21.9,7.446-7.838,12.1-19.521,8.6-30.211-1.454-4.446-3.842-8.575-4.931-13.124-.659-2.755-.835-5.641-1.881-8.274-1.443-3.634-4.391-6.425-7.25-9.092a3.112,3.112,0,0,0-1.414-.9c-1.218-.248-2.191.938-2.983,1.9a8.342,8.342,0,0,1-5.723,3.141,4.117,4.117,0,0,1-2.619-.795c-2.793-2.068-1.714-6.665.7-9.168s5.773-4.018,7.875-6.785a10.4,10.4,0,0,0,.962-10.767c-5.315.876-10.082-1.169-14.841-3.169a127.677,127.677,0,0,0-49.9,84.969,61.582,61.582,0,0,0,2.754,12.25c2.932,8.476,8.668,16.388,16.915,19.914,4.045,1.729,8.542,2.356,12.388,4.489a18.224,18.224,0,0,1,8.354,20.539c-.982,3.27-2.909,6.249-3.457,9.619-.87,5.349,1.912,10.667,5.485,14.742s7.99,7.359,11.448,11.531a10.971,10.971,0,0,1,2.2,3.676A14.429,14.429,0,0,1,4251.4-236a72.307,72.307,0,0,0,1.442,22.47q3.76,2.415,7.7,4.57C4266.615-214.658,4266.235-227.91,4270.423-234.359Z" transform="translate(-4195.177 448.552)" fill="#88b769"/>
            <path id="Trazado_717138" data-name="Trazado 717138" d="M5200.451,138.872c-.073-1.871-.335-4.017-1.891-5.056-1.343-.9-3.107-.6-4.722-.6-4.369,0-8.469-2.485-11.26-5.847s-4.433-7.524-5.683-11.71c-.741-2.479-1.436-5.125-3.291-6.929-3.762-3.662-9.913-2.05-15.129-2.648-10.429-1.2-18.027-10.926-28.572-8.278a30.769,30.769,0,0,0-20.37,16.845c-4.98,11.132-2.453,25.129,5.916,34a20.627,20.627,0,0,0,5.115,4.084c5.98,3.231,13.652,2.26,19.4,5.885,5.119,3.226,7.583,9.475,8.19,15.494s-.309,12.081-.312,18.132c0,6.1.417,19.6,6.325,24.4a128.159,128.159,0,0,0,45.876-59A147.615,147.615,0,0,0,5200.451,138.872Z" transform="translate(-4953.983 15.273)" fill="#88b769"/>
          </g>
        </g>
        <path id="Trazado_717139" data-name="Trazado 717139" d="M4105.873-134.058c-.513-8.477-6.1-15.154-12.922-15.154-.176,0-.351.006-.525.015-2.271-13.392-11.664-23.431-22.909-23.431-9.087,0-16.967,6.557-20.854,16.141a14.813,14.813,0,0,0-7.7-2.2c-7.01,0-13.08,5.1-16.03,12.53a11.171,11.171,0,0,0-7.53-3.056c-6.819,0-12.409,6.677-12.921,15.154Z" transform="translate(-3968.348 240.284)" fill="#fff"/>
        <g id="Grupo_1004449" data-name="Grupo 1004449" transform="translate(261.548 84.827)">
          <g id="Grupo_1004448" data-name="Grupo 1004448" transform="translate(0 0)">
            <ellipse id="Elipse_8445" data-name="Elipse 8445" cx="75.994" cy="27.981" rx="75.994" ry="27.981" transform="translate(0 133.191) rotate(-61.202)" fill="#539668"/>
          </g>
          <path id="Trazado_717140" data-name="Trazado 717140" d="M5585.8,139.248a.336.336,0,0,0-.379-.285l-18.984,2.7,10.942-19.905a.335.335,0,1,0-.588-.323l-10.942,19.905-7.9-17.472a.336.336,0,0,0-.612.277l8.1,17.931-9.317,16.95-7.9-17.472a.335.335,0,1,0-.611.277l8.1,17.931-9.317,16.95-7.9-17.472a.335.335,0,0,0-.611.276l8.1,17.931-9.317,16.95-7.9-17.472a.336.336,0,0,0-.612.276l8.1,17.931-9.318,16.95-7.9-17.472a.335.335,0,1,0-.611.276l8.1,17.931-3.425,6.231a.336.336,0,0,0,.588.324l3.425-6.231,19.482-2.767a.336.336,0,0,0-.094-.665l-18.983,2.7,9.317-16.949,19.482-2.767a.336.336,0,0,0-.094-.665l-18.984,2.7,9.318-16.95L5566.075,175a.336.336,0,0,0-.095-.665l-18.983,2.7,9.316-16.95,19.483-2.767a.336.336,0,0,0-.094-.665l-18.984,2.7,9.318-16.95,19.481-2.767A.336.336,0,0,0,5585.8,139.248Z" transform="translate(-5489.796 -89.111)" fill="#fff"/>
        </g>
        <g id="Grupo_1004451" data-name="Grupo 1004451" transform="translate(0 99.1)">
          <g id="Grupo_1004450" data-name="Grupo 1004450" transform="translate(0 0)">
            <ellipse id="Elipse_8446" data-name="Elipse 8446" cx="21.794" cy="59.191" rx="21.794" ry="59.191" transform="translate(0 18.877) rotate(-25.663)" fill="#3c7c4e"/>
          </g>
          <path id="Trazado_717141" data-name="Trazado 717141" d="M3954.491,219.127a.335.335,0,0,0-.452.143l-6.817,13.12-6.444-13.412,7.05-13.567a.336.336,0,1,0-.6-.309l-6.818,13.12-6.444-13.412,7.049-13.567a.336.336,0,1,0-.6-.309l-6.817,13.12-6.444-13.412,7.049-13.567a.336.336,0,1,0-.6-.31l-6.817,13.12-6.444-13.412,7.05-13.567a.336.336,0,1,0-.6-.309l-6.817,13.12-7.6-15.813a.336.336,0,1,0-.605.291l7.6,15.813-14.5-2.876a.336.336,0,1,0-.131.658l15,2.974,6.444,13.412-14.5-2.876a.336.336,0,0,0-.131.658l15,2.974L3933,204.344l-14.5-2.876a.336.336,0,0,0-.13.658l15,2.974,6.444,13.412-14.5-2.876a.336.336,0,0,0-.131.658l15,2.974,6.444,13.412-14.5-2.876a.336.336,0,1,0-.131.658l15,2.974,2.382,4.958a.336.336,0,1,0,.6-.291l-2.383-4.958,7.05-13.567A.336.336,0,0,0,3954.491,219.127Z" transform="translate(-3885.133 -135.389)" fill="#fff"/>
        </g>
        <g id="Grupo_1004453" data-name="Grupo 1004453" transform="translate(29.537 64.233)">
          <path id="Trazado_717142" data-name="Trazado 717142" d="M4004.308-41.215a42.705,42.705,0,0,1-10.981-3.555c-2.908-1.382-5.767-3.139-7.584-5.8-1.24-1.815-1.837-4.486-.324-6.081s4.186-1.147,6.154-.16a21.256,21.256,0,0,1,7.454,6.675,63.543,63.543,0,0,1,5.034,8.746" transform="translate(-3981.277 80.411)" fill="#f9d86e"/>
          <path id="Trazado_717143" data-name="Trazado 717143" d="M4104.178-34.092c2.185-6.085,6.514-11.769,12.637-13.846a5.515,5.515,0,0,1,2.837-.345,2.439,2.439,0,0,1,1.986,1.854,3.032,3.032,0,0,1-.374,1.735c-1.2,2.475-3.568,4.135-5.84,5.683-3.46,2.357-7.113,4.787-11.278,5.208" transform="translate(-4080.829 72.63)" fill="#f9d86e"/>
          <path id="Trazado_717144" data-name="Trazado 717144" d="M3994.019,81.151a71.32,71.32,0,0,1-19.231-3.127c-3.92-1.206-8.2-3.228-9.376-7.157a3.764,3.764,0,0,1-.031-2.414,3.339,3.339,0,0,1,2.554-1.922,7.448,7.448,0,0,1,3.3.3,37.531,37.531,0,0,1,10,4.95q6.564,4.173,12.879,8.72" transform="translate(-3965.195 -22.909)" fill="#f9d86e"/>
          <path id="Trazado_717145" data-name="Trazado 717145" d="M4135.679,70.967c3.75-6.069,8.272-12,14.609-15.274,1.052-.544,2.367-1,3.368-.366a2.9,2.9,0,0,1,1.065,2.656,8.332,8.332,0,0,1-2.358,5.082,24.182,24.182,0,0,1-4.461,3.551c-3.481,2.341-7.218,4.73-11.41,4.9" transform="translate(-4107.071 -13.397)" fill="#f9d86e"/>
          <path id="Trazado_717146" data-name="Trazado 717146" d="M4031.613,210.118a71.343,71.343,0,0,1-14.812,2.707c-4.3.322-8.892.177-12.5-2.181a3.3,3.3,0,0,1-1.766-2.459c-.022-1.309,1.26-2.244,2.477-2.725,3.824-1.513,8.131-.9,12.15-.03a105.6,105.6,0,0,1,14.721,4.329" transform="translate(-3996.27 -137.825)" fill="#f9d86e"/>
          <path id="Trazado_717147" data-name="Trazado 717147" d="M4175.333,156.158a31.236,31.236,0,0,1,13.484-13.958c2.22-1.167,4.866-2.068,7.192-1.13a1.7,1.7,0,0,1,.736.492,1.749,1.749,0,0,1,.277,1.075,8,8,0,0,1-2.035,5.086,18.352,18.352,0,0,1-4.317,3.523,53.265,53.265,0,0,1-10.61,5.178,6.229,6.229,0,0,1-3.954.442" transform="translate(-4140.07 -84.682)" fill="#f9d86e"/>
          <path id="Trazado_717148" data-name="Trazado 717148" d="M4092.636,322.815a62.554,62.554,0,0,1-15.191,6.837c-3.993,1.188-8.323,1.965-12.284.674-1.652-.538-3.339-1.628-3.686-3.33-.48-2.362,1.81-4.342,3.99-5.368,8.244-3.879,18.122-2.43,26.489,1.176" transform="translate(-4045.265 -233.349)" fill="#f9d86e"/>
          <path id="Trazado_717149" data-name="Trazado 717149" d="M4247.787,259.437a57.722,57.722,0,0,1,19.191-14.52,5.747,5.747,0,0,1,2.487-.708,2.1,2.1,0,0,1,2.025,1.352,2.592,2.592,0,0,1-.047,1.281c-.778,3.288-3.585,5.668-6.389,7.554a38.539,38.539,0,0,1-12.6,5.806,9.141,9.141,0,0,1-4.7.128" transform="translate(-4200.34 -170.838)" fill="#f9d86e"/>
          <g id="Grupo_1004452" data-name="Grupo 1004452" transform="translate(20.557 20.866)">
            <path id="Trazado_717150" data-name="Trazado 717150" d="M4132.437,16.3A107.654,107.654,0,0,1,4118.33,3.382a112.087,112.087,0,0,1-11.666-15.168,115.021,115.021,0,0,1-8.946-16.883A112.584,112.584,0,0,1,4091.7-46.9a107.858,107.858,0,0,1-2.768-18.868q-.067-1.178-.106-2.358c-.025-.723-1.153-.734-1.128-.006a109.244,109.244,0,0,0,2.389,19.212,113.752,113.752,0,0,0,5.69,18.508,114.926,114.926,0,0,0,8.709,17.285,114.281,114.281,0,0,0,11.5,15.587,108.764,108.764,0,0,0,14,13.346q.934.743,1.883,1.467a.568.568,0,0,0,.773-.2.577.577,0,0,0-.2-.773Z" transform="translate(-4087.7 68.677)" fill="#f9d86e"/>
          </g>
          <path id="Trazado_717151" data-name="Trazado 717151" d="M4070.063-168.956a22.885,22.885,0,0,1-3.429-19.8c.595-1.985,1.875-4.185,3.945-4.266a3.618,3.618,0,0,1,2.019.593,6.576,6.576,0,0,1,2.787,4.812,16.982,16.982,0,0,1-.5,5.7c-.986,4.587-2.019,9.2-4.82,12.964" transform="translate(-4048.85 193.025)" fill="#f9d86e"/>
        </g>
        <g id="Grupo_1004455" data-name="Grupo 1004455" transform="translate(59.13 111.119)">
          <g id="Grupo_1004454" data-name="Grupo 1004454" transform="translate(0 0)">
            <ellipse id="Elipse_8447" data-name="Elipse 8447" cx="59.191" cy="21.794" rx="59.191" ry="21.794" transform="translate(0 118.137) rotate(-86.316)" fill="#61a36f"/>
          </g>
          <path id="Trazado_717152" data-name="Trazado 717152" d="M4236.328,203.026a.336.336,0,0,0-.464-.1l-12.373,8.1,1.127-17.507a.336.336,0,0,0-.313-.357.34.34,0,0,0-.357.313l-1.126,17.507-11.232-9.615a.336.336,0,0,0-.437.51l11.615,9.943-.956,14.849-11.233-9.615a.335.335,0,1,0-.436.51l11.615,9.943-.957,14.849-11.232-9.615a.336.336,0,0,0-.437.51l11.616,9.943-.957,14.849-11.232-9.615a.336.336,0,1,0-.437.51l11.615,9.943-.956,14.848-11.232-9.615a.336.336,0,0,0-.437.51l11.614,9.943-.353,5.49a.335.335,0,0,0,.313.357h.022a.336.336,0,0,0,.334-.314l.353-5.49,12.795-8.371a.336.336,0,0,0-.368-.562l-12.373,8.1.956-14.849,12.794-8.371a.336.336,0,1,0-.368-.562l-12.372,8.1.956-14.849,12.794-8.371a.335.335,0,0,0-.367-.562l-12.373,8.1.956-14.848,12.794-8.371a.336.336,0,1,0-.367-.562l-12.373,8.1.956-14.849,12.794-8.371A.335.335,0,0,0,4236.328,203.026Z" transform="translate(-4196.012 -175.242)" fill="#fff"/>
        </g>
        <path id="Trazado_717153" data-name="Trazado 717153" d="M5145.779-415.222c.408-6.736,4.849-12.041,10.268-12.041.139,0,.279,0,.417.012,1.8-10.641,9.268-18.618,18.2-18.618,7.221,0,13.481,5.21,16.571,12.826a11.764,11.764,0,0,1,6.12-1.748c5.57,0,10.394,4.052,12.737,9.957a8.876,8.876,0,0,1,5.983-2.428c5.419,0,9.86,5.305,10.268,12.041Z" transform="translate(-4918.133 467.674)" fill="#fff"/>
        <path id="Trazado_717154" data-name="Trazado 717154" d="M5482.794,253.843c-.143-11.425-8.114-20.635-17.929-20.635a15.937,15.937,0,0,0-9.015,2.836c-3.51-9.013-11.286-15.279-20.315-15.279-10.495,0-19.294,8.465-21.673,19.867a13.465,13.465,0,0,0-6.095-1.467c-7.534,0-13.8,6.326-15.124,14.677Z" transform="translate(-5123.572 -87.095)" fill="#fff"/>
        <g id="Grupo_1004457" data-name="Grupo 1004457" transform="translate(246.988 114.814)">
          <g id="Grupo_1004456" data-name="Grupo 1004456" transform="translate(0 0)">
            <ellipse id="Elipse_8448" data-name="Elipse 8448" cx="59.415" cy="21.928" rx="59.415" ry="21.928" transform="translate(0 118.03) rotate(-83.349)" fill="#3c7c4e"/>
          </g>
          <path id="Trazado_717155" data-name="Trazado 717155" d="M5368.417,232.4a.335.335,0,0,0-.458-.121l-12.855,7.471,2.041-17.495a.336.336,0,0,0-.667-.078l-2.04,17.495-10.792-10.229a.336.336,0,1,0-.461.487l11.155,10.574-1.73,14.839-10.791-10.229a.336.336,0,1,0-.461.487l11.155,10.574-1.73,14.839-10.791-10.229a.336.336,0,0,0-.462.487l11.156,10.574-1.73,14.839-10.791-10.229a.336.336,0,1,0-.462.487l11.156,10.574-1.73,14.839-10.791-10.229a.336.336,0,1,0-.462.487l11.156,10.574-.64,5.485a.334.334,0,0,0,.294.372l.039,0a.335.335,0,0,0,.333-.3l.64-5.485,13.29-7.724a.336.336,0,1,0-.338-.58l-12.854,7.471,1.731-14.839,13.29-7.724a.336.336,0,0,0-.338-.58l-12.855,7.471,1.73-14.839,13.29-7.724a.336.336,0,1,0-.337-.58l-12.855,7.471,1.73-14.839,13.29-7.724a.336.336,0,1,0-.337-.58l-12.855,7.471,1.73-14.839,13.29-7.724A.336.336,0,0,0,5368.417,232.4Z" transform="translate(-5323.229 -202.839)" fill="#fff"/>
        </g>
      </g>
      <g id="Grupo_1004459" data-name="Grupo 1004459" transform="translate(272.528 159.545)">
        <path id="Trazado_717156" data-name="Trazado 717156" d="M3842.693,540.165c-10.5,1.052-53.27,23.837-90.533,35.854a30.156,30.156,0,0,0-3.776-3.936c-11.172-9.786-51.052-4.775-66.366-7.343s-36.388-15.3-69.713-18.144-70.8,3.215-98.979,40.448c-14.1,18.635-73.761,155.315-73.761,155.315l119.755,8.356s8.466-71.319,31.409-104.264c35.989,6.959,107.113,19.775,129.882,17.074,30.944-3.67,117.6-68.218,131.094-89.782S3856.3,538.8,3842.693,540.165Z" transform="translate(-3439.565 -540.07)" fill="#ffe7cc"/>
        <path id="Trazado_717157" data-name="Trazado 717157" d="M4677.554,770.082q33.853-1.009,67.506-5.22c6.985-.9,13.969-1.867,20.89-3.175a61.124,61.124,0,0,0,10.1-2.509c7.307-3.341,12.084-9.779,9.526-17.989a24.962,24.962,0,0,0-6.95-10.349,24.018,24.018,0,0,1,7.643,10.116A14.18,14.18,0,0,1,4782.1,756.9a20.114,20.114,0,0,1-7.532,4.37,112.191,112.191,0,0,1-12.5,2.765q-8.372,1.449-16.8,2.477a462.81,462.81,0,0,1-67.714,3.573Z" transform="translate(-4469.813 -698.828)" fill="#e8c6a6"/>
      </g>
    </g>
  </g>
</svg>
