<svg xmlns="http://www.w3.org/2000/svg" width="400" height="451.999" viewBox="0 0 400 451.999">
  <g id="Grupo_1005672" data-name="Grupo 1005672" transform="translate(-1020 -10448.5)">
    <path id="Trazado_719723" data-name="Trazado 719723" d="M113,0H226V450H0V113A113,113,0,0,1,113,0Z" transform="translate(1194 10448.5)" fill="#4db1f0" opacity="0.15"/>
    <g id="Grupo_1003523" data-name="Grupo 1003523" transform="translate(994.291 10509.978)">
      <g id="Grupo_1003488" data-name="Grupo 1003488" transform="translate(341.043 232.494)">
        <g id="Grupo_1003487" data-name="Grupo 1003487" transform="translate(0 0)">
          <path id="Trazado_713167" data-name="Trazado 713167" d="M392.361,263.762l-.117-1.672s.745-.051,2-.048c1.257-.015,3.043.045,5.179.2A78.486,78.486,0,0,1,414.844,265a72.492,72.492,0,0,1,14.534,5.87,49.251,49.251,0,0,1,4.47,2.611l1.641,1.081-.939,1.388-1.6-1.054a47.606,47.606,0,0,0-4.361-2.547,70.814,70.814,0,0,0-14.2-5.736,76.8,76.8,0,0,0-15.1-2.7c-2.087-.157-3.831-.215-5.044-.2C393.026,263.716,392.361,263.762,392.361,263.762Z" transform="translate(-392.244 -262.04)" fill="#108f6e"/>
        </g>
        <path id="Trazado_713168" data-name="Trazado 713168" d="M444.094,285.386a6.309,6.309,0,0,1-2.316-3.788,5.264,5.264,0,0,1,.7-4.085,4.593,4.593,0,0,1,3.73-1.955,7.6,7.6,0,0,1,4.72,1.734,7.307,7.307,0,0,1,2.476,4.385,4.485,4.485,0,0,1-1.254,3.957,5.39,5.39,0,0,1-3.958,1.424A6.563,6.563,0,0,1,444.094,285.386Z" transform="translate(-399.146 -263.929)" fill="#fce300"/>
        <path id="Trazado_713169" data-name="Trazado 713169" d="M444.43,281.678a11.927,11.927,0,0,0,1.623.631,8.331,8.331,0,0,0,3.187.551,6.371,6.371,0,0,0-.958-3.2,12.134,12.134,0,0,0-1.063-1.477,10.3,10.3,0,0,0,3.771-1.851,7.789,7.789,0,0,0,1.309-1.255,13.362,13.362,0,0,0-5.094-1.549,8.506,8.506,0,0,0-3.723.6A7.909,7.909,0,0,0,440.5,276.1a9.854,9.854,0,0,0-.7,3.467,12.257,12.257,0,0,0,.432,3.467,10.846,10.846,0,0,0,1.972,4,8.857,8.857,0,0,0,1.035-1.471A8.733,8.733,0,0,0,444.43,281.678Z" transform="translate(-398.886 -263.642)" fill="#108f6e"/>
      </g>
      <ellipse id="Elipse_8382" data-name="Elipse 8382" cx="172.169" cy="14.445" rx="172.169" ry="14.445" transform="translate(49.016 361.632)" fill="#4db1f0" opacity="0.4"/>
      <g id="Grupo_1003490" data-name="Grupo 1003490" transform="translate(41.643 218.5)">
        <g id="Grupo_1003489" data-name="Grupo 1003489" transform="translate(14.151 5.822)">
          <path id="Trazado_713170" data-name="Trazado 713170" d="M108.972,258.713l-.612,1.695s-.687-.248-1.947-.637-3.059-.922-5.249-1.478a129.985,129.985,0,0,0-16.279-3.072,120.206,120.206,0,0,0-16.526-.861c-2.252.114-4.136.126-5.444.271l-2.056.2-.18-1.792,2.1-.208c1.333-.146,3.249-.161,5.543-.275a121.857,121.857,0,0,1,16.786.874,131.961,131.961,0,0,1,16.507,3.114c2.223.565,4.059,1.1,5.34,1.5S108.972,258.713,108.972,258.713Z" transform="translate(-60.68 -252.542)" fill="#108f6e"/>
        </g>
        <path id="Trazado_713171" data-name="Trazado 713171" d="M49.981,248.853a7.978,7.978,0,0,1,5.275.828,5.147,5.147,0,0,1,2.5,3.8,5.382,5.382,0,0,1-1.463,4.19,6.978,6.978,0,0,1-4.213,2.38,9.5,9.5,0,0,1-2.5.071,6.719,6.719,0,0,1-2.258-.718,5.719,5.719,0,0,1-2.917-3.445,4.876,4.876,0,0,1,.958-4.367,7.29,7.29,0,0,1,1.946-1.717A7.02,7.02,0,0,1,49.981,248.853Z" transform="translate(-44.231 -246.187)" fill="#fce300"/>
        <path id="Trazado_713172" data-name="Trazado 713172" d="M53.214,251.351a13.049,13.049,0,0,0-1.763.839,6.652,6.652,0,0,0-2.6,2.449,9.294,9.294,0,0,0,3.28,1.208,12.7,12.7,0,0,0,1.86.244,9.6,9.6,0,0,0-.95,4.282,9.437,9.437,0,0,0,.185,1.928,12.149,12.149,0,0,0,4.029-2.761A11.06,11.06,0,0,0,59.5,256.5a10.368,10.368,0,0,0,1.1-3.655,8.613,8.613,0,0,0-1.808-3.366,10.285,10.285,0,0,0-3.166-2.5,14,14,0,0,0-5.5-1.2,8.453,8.453,0,0,0,.556,1.867A10.85,10.85,0,0,0,53.214,251.351Z" transform="translate(-44.876 -245.774)" fill="#108f6e"/>
      </g>
      <path id="Trazado_713173" data-name="Trazado 713173" d="M249.414,124.1s-13.947-6.9-16.386-22.069,21.768-20.918,31.8,4.184c0,0-1.819-27.194,14.741-30.157s13.887,30.124,8.861,35.371c0,0,6.956-5.039,13.778-.855s4.62,20.57-17.377,24.928S249.414,124.1,249.414,124.1Z" transform="translate(-28.936 -3.541)" fill="#ffd200"/>
      <path id="Trazado_713174" data-name="Trazado 713174" d="M267.988,133.892c-3.865-8.543-10.887-17.685-10.959-17.777l.384-.3c.071.092,7.127,9.278,11.015,17.873Z" transform="translate(-32.313 -9.121)" fill="#fff"/>
      <rect id="Rectángulo_346870" data-name="Rectángulo 346870" width="33.939" height="0.483" transform="matrix(0.17, -0.985, 0.985, 0.17, 247.18, 123.297)" fill="#fff"/>
      <path id="Trazado_713175" data-name="Trazado 713175" d="M147.018,164.7s-5.746-12.6-17.6-12.6-13.565,12.517-6.636,21.8a49.17,49.17,0,0,0-27.726-7.264c-16.352.631-28.438,12.717-24.883,26.225s21.8,16.589,27.015,15.166c0,0-18.011,12.8-10.9,24.409s29.386,0,29.386,0Z" transform="translate(-6.125 -14.19)" fill="#bce13e"/>
      <path id="Trazado_713176" data-name="Trazado 713176" d="M126.822,203.2c-.2-.084-20.368-8.4-30.676-9.423l.1-.962c10.45,1.038,30.747,9.407,30.951,9.491Z" transform="translate(-9.839 -19.877)" fill="#fff"/>
      <path id="Trazado_713177" data-name="Trazado 713177" d="M96.441,203.713l-.572-.78c4.047-2.967,12.032-5.938,12.37-6.063l.335.906C108.493,197.806,100.378,200.826,96.441,203.713Z" transform="translate(-9.801 -20.443)" fill="#fff"/>
      <path id="Trazado_713178" data-name="Trazado 713178" d="M120.519,198.791c-.114-.312-2.778-7.671-3.013-10.663l.964-.076c.225,2.862,2.93,10.333,2.957,10.408Z" transform="translate(-12.823 -19.211)" fill="#fff"/>
      <path id="Trazado_713179" data-name="Trazado 713179" d="M100.924,237.863l-.488-.835c10.039-5.858,18-7.044,18.084-7.055l.137.958C118.579,230.941,110.786,232.108,100.924,237.863Z" transform="translate(-10.439 -25.067)" fill="#fff"/>
      <path id="Trazado_713180" data-name="Trazado 713180" d="M149.6,179.556c-.318-.344-7.812-8.52-9.857-15.169l.925-.284c1.98,6.438,9.566,14.715,9.642,14.8Z" transform="translate(-15.929 -15.866)" fill="#fff"/>
      <g id="Grupo_1003491" data-name="Grupo 1003491" transform="translate(25.709 233.381)">
        <path id="Trazado_713181" data-name="Trazado 713181" d="M83.3,269.664l-.794-5.892a75.846,75.846,0,0,0-37.3,4.272l-.354,4.176-2.009-3.148q-2,.919-3.829,1.98l1.266,7.718-4.612-5.564a25.814,25.814,0,0,0-8.141,8.978,16.162,16.162,0,0,0-1.465,10.831,17.655,17.655,0,0,0,4.315,8.448,20.945,20.945,0,0,0,3.6,3.121,26.534,26.534,0,0,0,4.44,2.447c6.407,2.806,14.756,3.835,23.765,3.176l2.135-6.774,2.972,6.233c2.036-.293,4.1-.661,6.162-1.119l-.573-4.056,3.372,3.39q1.194-.3,2.385-.647c14.264-4.123,23.27-10.889,28.7-16.667a36.921,36.921,0,0,0,7.294-10.541s-8.194-11.572-28.342-15.612Z" transform="translate(-25.709 -263.071)" fill="#ffd200"/>
      </g>
      <rect id="Rectángulo_346871" data-name="Rectángulo 346871" width="67.501" height="0.967" transform="translate(41.729 262.441) rotate(-10.695)" fill="#fff"/>
      <path id="Trazado_713182" data-name="Trazado 713182" d="M68.008,292.176c-4.727-.274-14.1-4.361-14.492-4.535l.388-.886c.1.042,9.605,4.191,14.159,4.456Z" transform="translate(-3.884 -32.999)" fill="#fff"/>
      <path id="Trazado_713183" data-name="Trazado 713183" d="M74.63,300.089l-.938-.234c1.011-4.042,6.24-9.44,6.463-9.668l.692.674C80.794,290.916,75.577,296.3,74.63,300.089Z" transform="translate(-6.703 -33.478)" fill="#fff"/>
      <path id="Trazado_713184" data-name="Trazado 713184" d="M98.754,286.045c-5.424-1.242-11.093-6.985-11.332-7.229l.692-.675c.056.058,5.71,5.783,10.856,6.963Z" transform="translate(-8.621 -31.796)" fill="#fff"/>
      <g id="Grupo_1003492" data-name="Grupo 1003492" transform="translate(324.27 264.095)">
        <path id="Trazado_713185" data-name="Trazado 713185" d="M397.9,331.776l-1.27,5.66a73.95,73.95,0,0,0,35.573,8.73l1.739-3.7.771,3.56q2.137-.164,4.174-.514l1.457-7.491,2.335,6.654a25.187,25.187,0,0,0,10.49-5.456,15.762,15.762,0,0,0,5.01-9.414,17.21,17.21,0,0,0-1.086-9.192,20.37,20.37,0,0,0-2.235-4.075,25.879,25.879,0,0,0-3.233-3.742c-4.911-4.739-12.2-8.508-20.667-10.959l-4.249,5.475-.607-6.71c-1.962-.422-3.978-.786-6.018-1.063l-.85,3.9L417.3,299.2q-1.2-.125-2.4-.216c-14.447-1.061-24.979,2.079-31.906,5.524a36.026,36.026,0,0,0-10.245,7.173s3.576,13.364,20.641,23.887Z" transform="translate(-372.747 -298.773)" fill="#ffd200"/>
      </g>
      <rect id="Rectángulo_346872" data-name="Rectángulo 346872" width="0.967" height="65.857" transform="translate(330.14 279.613) rotate(-80.349)" fill="#fff"/>
      <path id="Trazado_713186" data-name="Trazado 713186" d="M440.938,334.011c-.072-.071-7.367-7.087-11.44-8.871l.386-.886c4.234,1.852,11.422,8.768,11.726,9.062Z" transform="translate(-56.405 -38.237)" fill="#fff"/>
      <path id="Trazado_713187" data-name="Trazado 713187" d="M418.989,322.059l-.416-.872c.067-.032,6.661-3.19,8.81-6.333l.8.545C425.885,318.758,419.269,321.927,418.989,322.059Z" transform="translate(-54.879 -36.924)" fill="#fff"/>
      <path id="Trazado_713188" data-name="Trazado 713188" d="M407.3,330.1c-.033-.071-3.263-7.222-7.571-10.044l.531-.809c4.545,2.978,7.787,10.154,7.922,10.458Z" transform="translate(-52.247 -37.538)" fill="#fff"/>
      <g id="Grupo_1003493" data-name="Grupo 1003493" transform="translate(289.946 340.784)">
        <rect id="Rectángulo_346873" data-name="Rectángulo 346873" width="35.488" height="2.037" transform="translate(0 33.119) rotate(-68.946)" fill="#bce13e"/>
      </g>
      <g id="Grupo_1003494" data-name="Grupo 1003494" transform="translate(302.695 340.784)">
        <rect id="Rectángulo_346874" data-name="Rectángulo 346874" width="2.037" height="35.488" transform="translate(0 0.732) rotate(-21.054)" fill="#bce13e"/>
      </g>
      <g id="Grupo_1003495" data-name="Grupo 1003495" transform="translate(298.33 353.94)">
        <rect id="Rectángulo_346875" data-name="Rectángulo 346875" width="11.017" height="2.036" fill="#bce13e"/>
      </g>
      <g id="Grupo_1003496" data-name="Grupo 1003496" transform="translate(295.798 361.22)">
        <rect id="Rectángulo_346876" data-name="Rectángulo 346876" width="15.965" height="2.036" fill="#bce13e"/>
      </g>
      <path id="Trazado_713189" data-name="Trazado 713189" d="M88.833,426.51a7.742,7.742,0,0,0,1.149,2.364,19.882,19.882,0,0,1,2.266,3.2c.155.621-.59,1.18-1.3.931a52.913,52.913,0,0,1-7.078-3.508c-1.211-.932-1.553-1.273-1.522-1.491a37.719,37.719,0,0,1,1.933-3.455C84.7,423.906,87.933,423.928,88.833,426.51Z" transform="translate(-7.911 -52.198)" fill="#91b31e"/>
      <path id="Trazado_713190" data-name="Trazado 713190" d="M104.669,418.741a7.739,7.739,0,0,0,2.139,1.528,19.854,19.854,0,0,1,3.52,1.726c.433.471.046,1.318-.7,1.441a53,53,0,0,1-7.894.3c-1.509-.239-1.972-.376-2.048-.582a37.486,37.486,0,0,1,.046-3.959C99.8,418.428,102.643,416.9,104.669,418.741Z" transform="translate(-10.328 -51.314)" fill="#91b31e"/>
      <path id="Trazado_713191" data-name="Trazado 713191" d="M104.9,366.165s2.489,16.662,2.592,21.023-2.592,24.546-2.592,24.546H99.647s.513-9.835.513-11.375-.513-14.967-.513-14.967l.513-18.692S103.234,364.813,104.9,366.165Z" transform="translate(-10.328 -44.024)" fill="#0e1a34"/>
      <path id="Trazado_713192" data-name="Trazado 713192" d="M90.5,366.771s-1.645,4.274-1.132,13.083a102.668,102.668,0,0,0,.935,10.861s-5.9,22.921-6.666,25.658a12.543,12.543,0,0,0,5.731,2.138s6.243-15.394,8.467-20.868a34.49,34.49,0,0,0,2.885-14.112c.022-4.789.535-17.7.535-17.7Z" transform="translate(-8.092 -44.045)" fill="#0e1a34"/>
      <path id="Trazado_713193" data-name="Trazado 713193" d="M100.913,398.371l-.462-.141a64.214,64.214,0,0,0,2.5-18.631l.483,0A64.678,64.678,0,0,1,100.913,398.371Z" transform="translate(-10.441 -45.968)" fill="#fff"/>
      <path id="Trazado_713194" data-name="Trazado 713194" d="M107.616,361.2s-10.837-1.872-14.763-4.046-3.442-4.106-2.9-5.495,2.234-4.348,2.234-4.348l3.84,2.748-.1.856-.656,1.5s1.253.795,3.144,1.844,9.591,4.581,9.591,4.581S109.883,360.379,107.616,361.2Z" transform="translate(-8.924 -41.458)" fill="#ff9a5c"/>
      <path id="Trazado_713195" data-name="Trazado 713195" d="M110.079,362.989a6.957,6.957,0,0,0,2.04,1.464c.084.732.508,1.042.744,1.014s.242-1.127.242-1.127c.211.507,1.042,1.013,1.155.7a1.836,1.836,0,0,0,0-.816s.338.45.592.45.563-.225.45-.788a5.434,5.434,0,0,0-.788-1.859c-.338-.45-.535-.9-1.267-1.07a12.116,12.116,0,0,0-1.831-.14,16.067,16.067,0,0,0-2.112,0Z" transform="translate(-11.677 -43.34)" fill="#ff9a5c"/>
      <path id="Trazado_713196" data-name="Trazado 713196" d="M97.591,323.068s-1.442-3.139-5.514-1.951-2.8,5.005-5.429,6.617-6.532,2.46-7.55,6.956,2.121,4.836,0,7.551-2.885,4.665-.594,7.465,6.324,1.951,8.847.594,13.55-6.532,13.55-6.532a4.1,4.1,0,0,0,0-5.6c-2.558-2.889-1.866-7.3-1.866-7.3s.933-.169,1.272-2.715S99.834,322.3,97.591,323.068Z" transform="translate(-7.18 -37.761)" fill="#753519"/>
      <path id="Trazado_713197" data-name="Trazado 713197" d="M332.719,75.514l1.42-1.029a43.5,43.5,0,0,0,12.85,9.975c7.975,4.02,10.711,5.554,11.436,5.687s4.153.724,5.339,2.24,1.318,2.374,1.054,2.439-1.581-1.845-1.581-1.845,1.319,1.7,1.186,2.336-.872-.45-1.136-.714-.926-1.032-.926-1.032a10.456,10.456,0,0,1,1.454,2.38c.053.556-.872-.158-1.586-.951s-1.507-1.164-1.692-.926-.264,1.216-.555,1.032-.344-.926-.477-1.455c-.47-.01-2.62-.785-6.489-1.558s-19.348-7.567-22.873-11.953S332.719,75.514,332.719,75.514Z" transform="translate(-42.373 -3.347)" fill="#ff9a5c"/>
      <g id="Grupo_1003497" data-name="Grupo 1003497" transform="translate(349.16 198.412)">
        <path id="Trazado_713198" data-name="Trazado 713198" d="M440.911,255h0a10.166,10.166,0,0,0,2.449-5.212,9.32,9.32,0,0,0-1.237-5.456l1.132,1.205c.669.731,1.606,1.668,2.468,2.669l3.286,4.147a11.891,11.891,0,0,0-2.643,5.278,9.8,9.8,0,0,0,.431,5.607h0a9.732,9.732,0,0,0,2.995-4.811,9.038,9.038,0,0,0,.245-2.773,7.722,7.722,0,0,0-.681-2.861l.572.723c.325.447.717,1.071,1.128,1.683l1.627,2.459a11.115,11.115,0,0,0,.441,2.978,10.145,10.145,0,0,0,1.01,2.67,10.548,10.548,0,0,0,4.277,4.052h0a10.27,10.27,0,0,0-1.113-5.841,9.167,9.167,0,0,0-1.752-2.345,11.19,11.19,0,0,0-2.631-1.665l-1.018-1.538-1.044-1.578-.588-.889-.68-.865-3.667-4.629a11.019,11.019,0,0,0,11.145,1.3h0a10.609,10.609,0,0,0-5.679-2.861,9.108,9.108,0,0,0-5.831,1.138l-3.634-3.868a33.548,33.548,0,0,0-2.636-2.52l-1.23-1.112a11.619,11.619,0,0,0,2.8,1.042,14.787,14.787,0,0,0,2.836.329,10.955,10.955,0,0,0,5.6-1.572h0a12.555,12.555,0,0,0-2.935-1.624,8.534,8.534,0,0,0-3.046-.516,9.4,9.4,0,0,0-5.668,1.963l-1.23-1.112-2.886-2.233a36.422,36.422,0,0,0-2.944-2.152l-1.386-.911a11.736,11.736,0,0,0,2.932.61,10.774,10.774,0,0,0,2.824-.028,11.247,11.247,0,0,0,5.361-2.375h0a10.449,10.449,0,0,0-6.242-1.289,9.475,9.475,0,0,0-5.347,2.774l-1.386-.912c-.835-.54-2.016-1.152-3.166-1.814l-1.7-.953-1.534-.734-1.5-.717a12.488,12.488,0,0,0,5.781-.26,11.258,11.258,0,0,0,4.964-3.122h0a12.819,12.819,0,0,0-3.32-.693,9.79,9.79,0,0,0-1.559.017,9.635,9.635,0,0,0-1.5.318,9.329,9.329,0,0,0-4.87,3.5l-.7-.334-1.894-.769c-1.552-.674-3.684-1.413-5.829-2.108-2.161-.645-4.346-1.212-6.011-1.524-1.657-.343-2.79-.452-2.79-.452l-.026.275s.784.083,1.956.3,2.721.556,4.26.946c1.526.436,3.059.854,4.177,1.272l1.878.643a11.971,11.971,0,0,0,.585,5.895,10.8,10.8,0,0,0,3.255,4.481h0a9.776,9.776,0,0,0,.059-5.685,8.758,8.758,0,0,0-3.374-4.494l1.531.622c.915.379,2.157.84,3.336,1.442,1.188.578,2.394,1.124,3.271,1.587l1.441.809a11.466,11.466,0,0,0-.274,5.873,10.027,10.027,0,0,0,2.567,4.93h0a9.66,9.66,0,0,0,.872-5.592,8.974,8.974,0,0,0-.868-2.648,9.817,9.817,0,0,0-1.809-2.289l1.441.81c.886.451,1.961,1.228,3.073,1.941a47.472,47.472,0,0,1,4.314,3.054,11.411,11.411,0,0,0-1.118,5.772,10.513,10.513,0,0,0,1.832,5.272h0a9.793,9.793,0,0,0,1.673-5.434,8.489,8.489,0,0,0-.477-2.749,10.245,10.245,0,0,0-1.466-2.52l1.309,1.009a32.979,32.979,0,0,1,2.763,2.36l2.7,2.438a11.342,11.342,0,0,1,.841.852l.311.331a11.635,11.635,0,0,0-1.95,5.6,9.3,9.3,0,0,0,.226,2.736A12.035,12.035,0,0,0,440.911,255Z" transform="translate(-401.679 -222.425)" fill="#bce13e"/>
      </g>
      <g id="Grupo_1003498" data-name="Grupo 1003498" transform="translate(66.026 93.841)">
        <path id="Trazado_713199" data-name="Trazado 713199" d="M92.772,117.2h0a12.045,12.045,0,0,0-3.432,5.9,10.948,10.948,0,0,0,.614,6.715l-1.161-1.593c-.712-.944-1.6-2.244-2.474-3.558l-2.419-3.6c-.337-.486-.593-.907-.771-1.2l-.282-.462a13.18,13.18,0,0,0,3.625-6.071,11.261,11.261,0,0,0,.349-3.333,12.892,12.892,0,0,0-.5-3.464h0a12.091,12.091,0,0,0-3.954,5.582,11.34,11.34,0,0,0,.132,6.716s-.915-1.5-1.832-3c-.452-.753-.929-1.491-1.247-2.068L78.9,112.8a12.71,12.71,0,0,0-1.384-6.813,12.458,12.458,0,0,0-4.778-5.109h0a12.33,12.33,0,0,0,.906,7.046,11.84,11.84,0,0,0,4.97,5.038l.288.531c.18.34.442.822.8,1.378l2.521,4.122c.89,1.516,1.889,2.96,2.625,4.054l1.226,1.821a13.215,13.215,0,0,0-6.113-3.1,12.806,12.806,0,0,0-6.886.508h0a14.407,14.407,0,0,0,2.961,2.506,11.039,11.039,0,0,0,3.331,1.333,11.706,11.706,0,0,0,7.08-.691l1.106,1.635,2.556,3.51c1.825,2.577,3.8,5.041,3.8,5.041a13.458,13.458,0,0,0-3.056-1.789,11.726,11.726,0,0,0-3.221-.914,12.842,12.842,0,0,0-6.841,1.033h0a12.454,12.454,0,0,0,6.494,3.354,11.941,11.941,0,0,0,7.035-1.156l1.212,1.557c.714.945,1.724,2.158,2.73,3.375l2.763,3.347,1.292,1.491a12.367,12.367,0,0,0-13.171-.934h0a12.683,12.683,0,0,0,6.654,2.95,11.9,11.9,0,0,0,6.956-1.51l1.292,1.49c.769.9,1.812,2.086,2.88,3.248l2.917,3.214,1.352,1.436a12.318,12.318,0,0,0-13.182-.328h0a11.638,11.638,0,0,0,13.641.816l2.3,2.436c1.409,1.435,3.261,3.375,5.177,5.252,1.894,1.9,3.833,3.753,5.3,5.13s2.464,2.276,2.464,2.276l.219-.246s-2.807-2.54-5.513-5.193c-1.365-1.312-2.693-2.664-3.705-3.66l-1.658-1.691a12.649,12.649,0,0,0,2.2-6.715,12.26,12.26,0,0,0-1.842-6.72h0a11.418,11.418,0,0,0-.822,12.956s-2.21-2.251-4.357-4.561c-1.089-1.14-2.153-2.3-2.942-3.185l-1.323-1.461a12.176,12.176,0,0,0,.939-13.394h0a11.391,11.391,0,0,0-1.388,12.9l-1.316-1.468-2.841-3.276c-1.044-1.181-2.048-2.4-2.8-3.312l-1.253-1.521a12.78,12.78,0,0,0,2.786-6.482,12.051,12.051,0,0,0-1.186-6.821h0a12.044,12.044,0,0,0-3.025,6.106,11.264,11.264,0,0,0,1,6.683L96.81,138.8l-2.668-3.418c-1.97-2.462-3.795-5.035-3.795-5.035a12.8,12.8,0,0,0,3.15-6.309A12.6,12.6,0,0,0,92.772,117.2Z" transform="translate(-72.572 -100.875)" fill="#91b31e"/>
      </g>
      <path id="Trazado_713200" data-name="Trazado 713200" d="M282.629,84.575a5.027,5.027,0,0,1-1.223-.986,3.389,3.389,0,0,0-.758-1,2.676,2.676,0,0,0-1.2-.515,5.521,5.521,0,0,0,.978,1.974.486.486,0,0,0,.673-.069,6.541,6.541,0,0,0,.919,1.553S283.424,85.045,282.629,84.575Z" transform="translate(-35.445 -4.407)" fill="#ff9a5c"/>
      <circle id="Elipse_8383" data-name="Elipse 8383" cx="122.975" cy="122.975" r="122.975" transform="translate(98.606 120.342)" fill="#1a6652"/>
      <path id="Trazado_713201" data-name="Trazado 713201" d="M258.156,341.339a109.938,109.938,0,0,1-54.411-205.461A122.988,122.988,0,1,0,351.607,289.314,109.851,109.851,0,0,1,258.156,341.339Z" transform="translate(-11.836 -11.923)" fill="#19614f"/>
      <path id="Trazado_713202" data-name="Trazado 713202" d="M298.73,85.144s-2.936,2.643-3.919,2.643-10.763-2.929-12.609-3.317-1.748.194-2.477.68,1.561,1.956,1.561,1.956,8.733,4.454,13.25,5.521,8.126-2.591,8.126-2.591S303.845,85.285,298.73,85.144Z" transform="translate(-35.463 -4.724)" fill="#ff9a5c"/>
      <path id="Trazado_713203" data-name="Trazado 713203" d="M260.982,88.317s6.868.75,11.61-.456c0,0,2.939,4.932,4.049,6.753l-.483,2.352a15.9,15.9,0,0,1-11.079,5.388S259.92,95.222,260.982,88.317Z" transform="translate(-32.845 -5.216)" fill="#108f6e"/>
      <g id="Grupo_1003499" data-name="Grupo 1003499" transform="translate(230.268 74.545)">
        <path id="Trazado_713204" data-name="Trazado 713204" d="M272.126,95.33a5.676,5.676,0,0,1-2.521-.6l.487-.894a4.513,4.513,0,0,0,3.591.157c1.6-.689,2.8-2.474,3.567-5.306.871-3.223.435-5.8-1.259-7.443-1.975-1.919-5.121-2.1-7.361-1.423-4.588,1.384-4.122,7.828-4.117,7.893L263.5,87.8c-.006-.073-.542-7.329,4.837-8.951a8.677,8.677,0,0,1,8.364,1.666c1.378,1.339,2.762,3.889,1.532,8.439-.853,3.154-2.253,5.166-4.16,5.981A4.934,4.934,0,0,1,272.126,95.33Z" transform="translate(-263.483 -78.445)" fill="#108f6e"/>
      </g>
      <path id="Trazado_713205" data-name="Trazado 713205" d="M279.518,83.586s-.883-.341-1.235.262c-.366.624,1.108,1.114,2.354.991S280.766,83.807,279.518,83.586Z" transform="translate(-35.274 -4.605)" fill="#ff9a5c"/>
      <path id="Trazado_713206" data-name="Trazado 713206" d="M279.445,84.613a1.685,1.685,0,0,0-1.466.237c-.6.511,1.317,1.233,2.777,1.1S280.906,84.849,279.445,84.613Z" transform="translate(-35.224 -4.752)" fill="#ff9a5c"/>
      <path id="Trazado_713207" data-name="Trazado 713207" d="M311.406,168.5a8.684,8.684,0,0,1-1.285,2.646c-.939,1.285-2.363,2.883-2.537,3.578s.661,1.321,1.46,1.043a59.261,59.261,0,0,0,7.922-3.926c1.355-1.042,1.737-1.425,1.7-1.667a42.039,42.039,0,0,0-2.163-3.867C316.026,165.592,312.413,165.615,311.406,168.5Z" transform="translate(-39.371 -16.119)" fill="#91b31e"/>
      <path id="Trazado_713208" data-name="Trazado 713208" d="M279.278,85.583a1.314,1.314,0,0,0-1.3.282c-.53.546,1.165,1.29,2.464,1.149S281.129,85.675,279.278,85.583Z" transform="translate(-35.226 -4.889)" fill="#ff9a5c"/>
      <path id="Trazado_713209" data-name="Trazado 713209" d="M258,96.028s-18.916-4.271-19.615-4.276-3.053-.441-4.187,1.13a2.261,2.261,0,0,0,1.221,1.483c1.047.523,2.443-.515,2.443-.515l22.856,8.055A4.653,4.653,0,0,0,258,96.028Z" transform="translate(-29.123 -5.751)" fill="#108f6e"/>
      <path id="Trazado_713210" data-name="Trazado 713210" d="M236.029,94.9h0a1.706,1.706,0,0,1-.768-.173,2.5,2.5,0,0,1-1.352-1.656l-.043-.237.236-.044a4.18,4.18,0,0,1,.716-.053,4.944,4.944,0,0,1,3.146,1.071l.241.2-.249.186A3.741,3.741,0,0,1,236.029,94.9Zm-1.564-1.666a2.079,2.079,0,0,0,1.012,1.061,1.226,1.226,0,0,0,.552.122,2.912,2.912,0,0,0,1.36-.436,4.535,4.535,0,0,0-2.572-.76C234.681,93.22,234.562,93.227,234.465,93.233Z" transform="translate(-29.077 -5.897)" fill="#108f6e"/>
      <path id="Trazado_713211" data-name="Trazado 713211" d="M371.756,387.263H337.673l5.751-6.626h34.083Z" transform="translate(-43.578 -46.113)" fill="#ffd200"/>
      <path id="Trazado_713212" data-name="Trazado 713212" d="M232.277,93.066s-13.421,13.406-11.634,29.429h16.244s-4.011-19.813-.946-28.462A4.586,4.586,0,0,0,232.277,93.066Z" transform="translate(-27.207 -5.935)" fill="#9ae5e5" opacity="0.79"/>
      <path id="Trazado_713213" data-name="Trazado 713213" d="M308.1,105.755s-13.125,10.379-14.626,13.966,5.923,11.264,5.923,11.264,7.009,24.948,9.429,29.12a30.577,30.577,0,0,0,5.924-2.252s-2.337-22.528-3.421-25.532c0,0,17.026-15.924,19.944-20.644S310.127,104.116,308.1,105.755Z" transform="translate(-37.376 -7.65)" fill="#0e1a34"/>
      <path id="Trazado_713214" data-name="Trazado 713214" d="M320.512,152.845a8.667,8.667,0,0,1,.039,2.941c-.262,1.57-.818,3.637-.662,4.336a1.041,1.041,0,0,0,1.772.277,59.222,59.222,0,0,0,5.318-7.063c.743-1.539.914-2.052.773-2.254a42.032,42.032,0,0,0-3.668-2.485C323.335,148.169,320.117,149.811,320.512,152.845Z" transform="translate(-41.09 -13.691)" fill="#91b31e"/>
      <path id="Trazado_713215" data-name="Trazado 713215" d="M300.112,132.753c-.169-5.551,9.108-14.489,9.5-14.867l.335.349c-.1.091-9.516,9.167-9.353,14.5Z" transform="translate(-38.331 -9.41)" fill="#fff"/>
      <path id="Trazado_713216" data-name="Trazado 713216" d="M301.564,135.946l16.174,14.731a35.89,35.89,0,0,0,3.536-4.369s-5.892-11.48-8.331-13.817S301.564,135.946,301.564,135.946Z" transform="translate(-38.534 -11.372)" fill="#0e1a34"/>
      <path id="Trazado_713217" data-name="Trazado 713217" d="M357.766,377.825a8.68,8.68,0,0,1-2.286,1.852c-1.394.767-3.361,1.611-3.813,2.167s.039,1.475.88,1.562a59.278,59.278,0,0,0,8.839-.2c1.669-.37,2.177-.555,2.249-.79a42.233,42.233,0,0,0-.322-4.419C363.186,377.144,359.9,375.635,357.766,377.825Z" transform="translate(-45.509 -45.562)" fill="#91b31e"/>
      <g id="Grupo_1003501" data-name="Grupo 1003501" transform="translate(184.806 89.005)">
        <g id="Grupo_1003500" data-name="Grupo 1003500" transform="translate(5.689 6.231)">
          <path id="Trazado_713218" data-name="Trazado 713218" d="M228.529,126.713l-.981.028s-.009-.383-.1-1.091-.239-1.71-.488-2.908a43.8,43.8,0,0,0-2.847-8.512,48.156,48.156,0,0,0-4.425-7.829c-.663-1.036-1.326-1.821-1.753-2.4l-.687-.894.764-.616.7.909c.436.586,1.109,1.385,1.786,2.44a49.234,49.234,0,0,1,4.511,7.984,44.8,44.8,0,0,1,2.911,8.708c.255,1.231.424,2.267.5,3S228.529,126.713,228.529,126.713Z" transform="translate(-217.252 -102.496)" fill="#108f6e"/>
        </g>
        <path id="Trazado_713219" data-name="Trazado 713219" d="M216.3,96.58c1.444,1.627,1.508,3.835.171,4.9a3.787,3.787,0,0,1-5.047-5.418C212.588,94.807,214.774,95.035,216.3,96.58Z" transform="translate(-210.639 -95.253)" fill="#fce300"/>
        <path id="Trazado_713220" data-name="Trazado 713220" d="M215.715,98.669a6.35,6.35,0,0,0-.892-.567,4.2,4.2,0,0,0-1.894-.473,4.185,4.185,0,0,0,.411,1.854,7.878,7.878,0,0,0,.428.935,5.4,5.4,0,0,0-3.082,1.454,6.544,6.544,0,0,0,4.542,1.19,5.479,5.479,0,0,0,1.982-.574,4.826,4.826,0,0,0,1.011-1.839,6.194,6.194,0,0,0-.835-5.026A5.829,5.829,0,0,0,215.715,98.669Z" transform="translate(-210.646 -95.305)" fill="#108f6e"/>
      </g>
      <path id="Trazado_713221" data-name="Trazado 713221" d="M379.777,362.076a8.678,8.678,0,0,1-.4,2.914c-.494,1.513-1.352,3.474-1.3,4.189a1.041,1.041,0,0,0,1.71.539,59.28,59.28,0,0,0,6.315-6.188c.965-1.411,1.21-1.893,1.1-2.113a42.207,42.207,0,0,0-3.255-3.006C383.268,357.874,379.84,359.017,379.777,362.076Z" transform="translate(-49.221 -42.991)" fill="#91b31e"/>
      <g id="Grupo_1003502" data-name="Grupo 1003502" transform="translate(175.023 101.668)">
        <path id="Trazado_713222" data-name="Trazado 713222" d="M199.267,110.267a23.807,23.807,0,0,0,9.347,16.524c8.965,6.908,17.4,4.085,17.4,4.085s.581-8.873-8.385-15.782A23.805,23.805,0,0,0,199.267,110.267Z" transform="translate(-199.267 -109.973)" fill="#91b31e"/>
        <rect id="Rectángulo_346877" data-name="Rectángulo 346877" width="0.484" height="29.023" transform="translate(3.608 3.38) rotate(-52.384)" fill="#fff"/>
        <rect id="Rectángulo_346878" data-name="Rectángulo 346878" width="5.438" height="0.484" transform="matrix(1, -0.031, 0.031, 1, 6.576, 9.485)" fill="#fff"/>
        <rect id="Rectángulo_346879" data-name="Rectángulo 346879" width="0.483" height="5.438" transform="translate(8.901 3.028) rotate(-12.947)" fill="#fff"/>
        <rect id="Rectángulo_346880" data-name="Rectángulo 346880" width="5.438" height="0.484" transform="translate(12.491 14.044) rotate(-1.794)" fill="#fff"/>
        <rect id="Rectángulo_346881" data-name="Rectángulo 346881" width="0.483" height="5.438" transform="translate(14.817 7.586) rotate(-12.942)" fill="#fff"/>
        <rect id="Rectángulo_346882" data-name="Rectángulo 346882" width="5.438" height="0.484" transform="translate(18.406 18.601) rotate(-1.784)" fill="#fff"/>
        <rect id="Rectángulo_346883" data-name="Rectángulo 346883" width="0.483" height="5.438" transform="matrix(0.975, -0.224, 0.224, 0.975, 20.732, 12.144)" fill="#fff"/>
      </g>
      <path id="Trazado_713223" data-name="Trazado 713223" d="M244.752,110.07a18.96,18.96,0,0,0-13.16,7.445c-5.5,7.141-3.254,13.856-3.254,13.856s7.067.463,12.57-6.678A18.965,18.965,0,0,0,244.752,110.07Z" transform="translate(-28.242 -8.318)" fill="#bce13e"/>
      <g id="Grupo_1003505" data-name="Grupo 1003505" transform="translate(105.165 52.428)">
        <g id="Grupo_1003503" data-name="Grupo 1003503">
          <path id="Trazado_713224" data-name="Trazado 713224" d="M170.714,118.749l5.063-8.127a89.828,89.828,0,0,0-8.9-22.67,72.238,72.238,0,0,0-12.221-15.927l-6.836,4.8s.9-1.948,1.861-3.879l1.911-3.837a91.555,91.555,0,0,0-15.606-11.15c-2.47-1.36-4.635-2.5-6.647-3.384a31.524,31.524,0,0,0-5.14-1.843,28.854,28.854,0,0,0-3.66,7.745,43.251,43.251,0,0,0-1.463,5.83,57.375,57.375,0,0,0-.882,6.916l4.274,1.727,4.245,1.66-4.311.166-4.331.122a66.018,66.018,0,0,0,9.169,33.989,68.352,68.352,0,0,0,3.87,5.885c1.343,1.844,2.711,3.588,4.128,5.2l6.032-.372,6.012-.415-7.576,5.528a79.525,79.525,0,0,0,16.909,12.619c2.3,1.278,4.209,2.174,5.551,2.764s2.119.875,2.119.875l7.089-4.912,7.089-4.912s.043-.446.046-1.329-.01-2.154-.1-3.776a93.816,93.816,0,0,0-1.678-13.164Z" transform="translate(-118.066 -52.737)" fill="#91b31e"/>
        </g>
        <g id="Grupo_1003504" data-name="Grupo 1003504" transform="translate(12.003 14.273)">
          <path id="Trazado_713225" data-name="Trazado 713225" d="M175.517,138.857c-2.673-3.912-9.258-13.6-17.315-26.123-8.08-12.527-17.659-27.885-26.184-43.406,6.25,16.593,14.772,32.816,22.293,45.784,7.517,13,14.065,22.779,16.81,26.791l2.2-1.523Z" transform="translate(-132.018 -69.328)" fill="#fff"/>
        </g>
      </g>
      <g id="Grupo_1003508" data-name="Grupo 1003508" transform="translate(145.038 75.053)">
        <g id="Grupo_1003506" data-name="Grupo 1003506">
          <path id="Trazado_713226" data-name="Trazado 713226" d="M187.181,130.618l5.294-3.182A57.653,57.653,0,0,0,194,111.757a46.633,46.633,0,0,0-2.408-12.789l-5.338.8,2.2-1.707,2.2-1.676a56.784,56.784,0,0,0-5.846-10.992,31.326,31.326,0,0,0-5.392-6.353c-2.264,1.217-6.058,4.678-9.241,10.154l1.982,2.2,1.983,2.163L171.6,92.423l-2.541-1.16a42.846,42.846,0,0,0-4.551,22.121,49.146,49.146,0,0,0,1.354,8.681l7.147,3.071-5.972.952a51.765,51.765,0,0,0,5.995,12.192c.941,1.407,1.775,2.485,2.369,3.217s.958,1.124.958,1.124l5.515-.724,5.515-.724a30.1,30.1,0,0,0,1.475-2.948,60.088,60.088,0,0,0,2.911-8.059Z" transform="translate(-164.413 -79.036)" fill="#bce13e"/>
        </g>
        <g id="Grupo_1003507" data-name="Grupo 1003507" transform="translate(13.575 9.937)">
          <path id="Trazado_713227" data-name="Trazado 713227" d="M185.784,143.288c-.382-3.033-1.3-10.531-2.259-20.093s-1.991-21.2-2.5-32.608a223.413,223.413,0,0,0-.43,32.835c.512,9.668,1.379,17.206,1.771,20.315l1.71-.225Z" transform="translate(-180.192 -90.587)" fill="#fff"/>
        </g>
      </g>
      <path id="Trazado_713228" data-name="Trazado 713228" d="M365.108,181.358s8.145-22.631,7.126-44.571,5.429-38.414,15.949-37.133,19.681,40.983-20.36,84.079Z" transform="translate(-47.41 -6.853)" fill="#bce13e"/>
      <path id="Trazado_713229" data-name="Trazado 713229" d="M369.064,185.5l-.819-.514c.148-.236,14.784-23.821,15.351-49.84l.967.022C383.99,161.459,369.214,185.263,369.064,185.5Z" transform="translate(-47.849 -11.821)" fill="#fff"/>
      <path id="Trazado_713230" data-name="Trazado 713230" d="M366.94,193.272s14.6-7.612,29.578-8.945,25.559-7.225,23.72-14.243-29.617-9.573-55.16,21.565Z" transform="translate(-47.406 -16.076)" fill="#91b31e"/>
      <path id="Trazado_713231" data-name="Trazado 713231" d="M368.021,193.042l-.619-.742c.147-.123,14.965-12.369,32.79-15.188l.151.955C382.789,180.843,368.168,192.921,368.021,193.042Z" transform="translate(-47.731 -17.683)" fill="#fff"/>
      <g id="Grupo_1003509" data-name="Grupo 1003509" transform="translate(336.175 172.646)">
        <path id="Trazado_713232" data-name="Trazado 713232" d="M436.031,193.252a108.9,108.9,0,0,0-15.493-.724,50.683,50.683,0,0,0-18.989,4.317,24.508,24.508,0,0,0-12.4,13.046,33.2,33.2,0,0,0-2.494,8.687,27.213,27.213,0,0,0,8.043,4.3,23.694,23.694,0,0,0,18.863-1.171,43.157,43.157,0,0,0,15.758-13.891A48.5,48.5,0,0,0,436.031,193.252Z" transform="translate(-386.595 -192.475)" fill="#bce13e"/>
        <path id="Trazado_713233" data-name="Trazado 713233" d="M386.7,219.639l-.11-.279s2.682-1.071,6.659-2.792,9.249-4.089,14.45-6.608,10.327-5.187,14.114-7.292c1.9-1.038,3.461-1.948,4.549-2.59l1.715-1,.154.257-1.717,1c-1.09.643-2.651,1.554-4.556,2.593-3.791,2.108-8.919,4.788-14.128,7.3s-10.479,4.894-14.461,6.614S386.7,219.639,386.7,219.639Z" transform="translate(-386.586 -193.397)" fill="#fff"/>
        <path id="Trazado_713234" data-name="Trazado 713234" d="M420.029,206.082a7.149,7.149,0,0,1,.069-2.27,17.635,17.635,0,0,1,2.209-5.884l.255.151a17.388,17.388,0,0,0-2.159,5.775,9.249,9.249,0,0,0-.121,1.6,4.047,4.047,0,0,0,.042.572Z" transform="translate(-391.25 -193.237)" fill="#fff"/>
        <path id="Trazado_713235" data-name="Trazado 713235" d="M411.341,211.836l.221-.2a4.661,4.661,0,0,0,.517.449,10.255,10.255,0,0,0,1.623,1,18.493,18.493,0,0,0,7.256,1.8l-.025.3a18.8,18.8,0,0,1-7.375-1.822A7.994,7.994,0,0,1,411.341,211.836Z" transform="translate(-390.044 -195.151)" fill="#fff"/>
        <path id="Trazado_713236" data-name="Trazado 713236" d="M395.175,219.254l.231-.192a5.351,5.351,0,0,0,.571.539,11.735,11.735,0,0,0,1.812,1.229,21.349,21.349,0,0,0,8.222,2.409l-.037.3a21.665,21.665,0,0,1-8.336-2.43A9.117,9.117,0,0,1,395.175,219.254Z" transform="translate(-387.786 -196.189)" fill="#fff"/>
        <path id="Trazado_713237" data-name="Trazado 713237" d="M402.1,214.151a10.641,10.641,0,0,1,.271-3.369,26.767,26.767,0,0,1,3.715-8.589l.248.163a26.445,26.445,0,0,0-3.656,8.5,13.774,13.774,0,0,0-.3,2.386,6.241,6.241,0,0,0,.022.864Z" transform="translate(-388.748 -193.833)" fill="#fff"/>
        <path id="Trazado_713238" data-name="Trazado 713238" d="M426.079,204.275l.212-.214a4.829,4.829,0,0,0,1.3.791,11.3,11.3,0,0,0,4.314.872l-.01.3a11.644,11.644,0,0,1-4.445-.9A4.823,4.823,0,0,1,426.079,204.275Z" transform="translate(-392.103 -194.093)" fill="#fff"/>
      </g>
      <g id="Grupo_1003510" data-name="Grupo 1003510" transform="translate(336.036 199.109)">
        <path id="Trazado_713239" data-name="Trazado 713239" d="M423.428,253.257c-1.608-7.021-4.821-17.722-14.692-25.713s-22.117-2.424-22.117-2.424-2.2,13.248,8.187,20.74S416.315,253.613,423.428,253.257Z" transform="translate(-386.424 -223.235)" fill="#91b31e"/>
        <path id="Trazado_713240" data-name="Trazado 713240" d="M386.561,225.509l.152-.2,30.62,23.406-.15.2Z" transform="translate(-386.443 -223.525)" fill="#fff"/>
        <path id="Trazado_713241" data-name="Trazado 713241" d="M411.033,243.821a5.732,5.732,0,0,1,1.733-.755,13.916,13.916,0,0,1,5.257-.336l-.026.249a13.652,13.652,0,0,0-5.155.335,7.311,7.311,0,0,0-1.245.471,3.321,3.321,0,0,0-.416.237Z" transform="translate(-389.862 -225.945)" fill="#fff"/>
        <path id="Trazado_713242" data-name="Trazado 713242" d="M404.46,239.131l.234.089a4,4,0,0,0-.141.555,8.836,8.836,0,0,0-.144,1.586,16.434,16.434,0,0,0,1.263,6.064l-.232.091a16.683,16.683,0,0,1-1.291-6.158A6.876,6.876,0,0,1,404.46,239.131Z" transform="translate(-388.9 -225.456)" fill="#fff"/>
        <path id="Trazado_713243" data-name="Trazado 713243" d="M392.676,230.129l.233.09a4.471,4.471,0,0,0-.163.634,9.968,9.968,0,0,0-.17,1.815,18.716,18.716,0,0,0,1.435,6.943l-.233.091a18.977,18.977,0,0,1-1.465-7.032A7.753,7.753,0,0,1,392.676,230.129Z" transform="translate(-387.246 -224.198)" fill="#fff"/>
        <path id="Trazado_713244" data-name="Trazado 713244" d="M397.837,233.642a8.568,8.568,0,0,1,2.586-1.115,20.909,20.909,0,0,1,7.849-.488l-.027.249a20.647,20.647,0,0,0-7.759.5,11.155,11.155,0,0,0-1.875.7,4.887,4.887,0,0,0-.626.356Z" transform="translate(-388.018 -224.444)" fill="#fff"/>
        <path id="Trazado_713245" data-name="Trazado 713245" d="M415.449,247.514l.233.09a4.132,4.132,0,0,0-.163,1.262,9.742,9.742,0,0,0,.75,3.574l-.231.091a10,10,0,0,1-.774-3.681A4.14,4.14,0,0,1,415.449,247.514Z" transform="translate(-390.453 -226.627)" fill="#fff"/>
      </g>
      <path id="Trazado_713246" data-name="Trazado 713246" d="M94.842,339.2s-.348-.489-2.331.4-6.577,6.942-7.934,10.177a33.391,33.391,0,0,0,4.593,3.5,23.656,23.656,0,0,1,2.646-1.931,56.438,56.438,0,0,1-.663,9.395,55.523,55.523,0,0,1-1.444,5.638,24.875,24.875,0,0,0,14.128,1.305s.1-8.4.366-11.64,1.775-6.838.939-9.865-4.4-4.159-7.291-7.117Z" transform="translate(-8.223 -40.305)" fill="#ffd200"/>
      <path id="Trazado_713247" data-name="Trazado 713247" d="M101.56,329.476a8.39,8.39,0,0,0-1.546-4.216c-1.406-1.757-4.5-1.124-5.763,1.546a9.094,9.094,0,0,0-1.007,3.965.938.938,0,0,0-1.216.036c-.942.642.484,2.906,1.921,2.515a4.971,4.971,0,0,0,1.216,1.462,4.311,4.311,0,0,0,.373,2.315c1.335,1.616,2.905,3.212,3.959,2.51s-.211-1.686-.563-2.248a.588.588,0,0,1,.1-.856C102.192,336.082,101.56,329.476,101.56,329.476Z" transform="translate(-9.222 -38.24)" fill="#ff9a5c"/>
      <path id="Trazado_713248" data-name="Trazado 713248" d="M99.461,326.475s-.822,3.08-2.655,3.758a3.741,3.741,0,0,0,.671-.887s-2.349,2.192-3.654,1.983c0,0-.835-.365-1.1-3.288s2.818-4.593,2.818-4.593h3.5l2.454,2.818.253,1.984A2.638,2.638,0,0,1,99.461,326.475Z" transform="translate(-9.36 -38.125)" fill="#753519"/>
      <path id="Trazado_713249" data-name="Trazado 713249" d="M100.571,365.277s-10.838-1.872-14.763-4.046-3.442-4.106-2.9-5.495,2.234-4.348,2.234-4.348l3.84,2.748-.1.856-.656,1.5s1.253.795,3.144,1.844,9.59,4.581,9.59,4.581S102.838,364.457,100.571,365.277Z" transform="translate(-7.94 -42.028)" fill="#ff9a5c"/>
      <g id="Grupo_1003511" data-name="Grupo 1003511" transform="translate(94.482 321.583)">
        <path id="Trazado_713250" data-name="Trazado 713250" d="M122.545,387.07l-2.194-11.918a2.846,2.846,0,0,0-1.627-2.078l-13.075-5.9.711-1.577,13.076,5.9a4.574,4.574,0,0,1,2.616,3.342l2.194,11.917Z" transform="translate(-105.649 -365.595)" fill="#108f6e"/>
      </g>
      <path id="Trazado_713251" data-name="Trazado 713251" d="M132.253,382s2.66-1.813,3.99-2,1.709,1.243,2.659,1a4.2,4.2,0,0,0,1.71-1.019l1.9,1.01s.19-.527,1.52,0,.57-.043,1.33.527a3.2,3.2,0,0,0,1.9.483,3.8,3.8,0,0,1,1.9,0c.95.277,2.368-.464,4.56,0s4.179-.467,5.319,0,1.71,2.125,2.66,1.676a17.157,17.157,0,0,0,2.47-1.676l1.519,2.66s.57-1.227,1.33,0a6.372,6.372,0,0,0,2.47,1.986,3.777,3.777,0,0,1,.95,1.165,14.761,14.761,0,0,1,1.028,3.483v1.14l-28.576-1.14-11.97-6.635Z" transform="translate(-14.697 -46.022)" fill="#753519"/>
      <g id="Grupo_1003512" data-name="Grupo 1003512" transform="translate(98.617 317.447)">
        <path id="Trazado_713252" data-name="Trazado 713252" d="M127.351,382.264l-2.194-11.919a2.841,2.841,0,0,0-1.625-2.077l-13.077-5.9.711-1.577,13.077,5.9a4.574,4.574,0,0,1,2.616,3.339l2.194,11.92Z" transform="translate(-110.455 -360.788)" fill="#108f6e"/>
      </g>
      <path id="Trazado_713253" data-name="Trazado 713253" d="M126.95,382.329s-2.417,7.508-3.054,8.78,1.527,5.854,1.527,5.854l22.778,11.2,22.269-15.4Z" transform="translate(-13.699 -46.35)" fill="#108f6e"/>
      <path id="Trazado_713254" data-name="Trazado 713254" d="M122.016,420.3a3.057,3.057,0,0,1-1.723-.455c-1.15-.752-1.558-2.352-1.321-5.187.464-5.565,4.329-21.011,4.493-21.666l.938.236c-.04.159-4.011,16.024-4.468,21.51-.2,2.405.083,3.772.888,4.3,1.214.793,4.043-.027,8.648-2.513,8.65-4.669,15.107-8.927,15.172-8.97l.533.806c-.065.043-6.556,4.323-15.246,9.014C126.258,419.359,123.74,420.3,122.016,420.3Z" transform="translate(-13.019 -47.84)" fill="#108f6e"/>
      <path id="Trazado_713255" data-name="Trazado 713255" d="M177.839,400.259a6.368,6.368,0,0,0-1.442,2.47c-.078.951,1.442,0,1.442,0s.76,1.035,1.52.422,0-1.349,0-1.349l.337-1.543Z" transform="translate(-21.049 -48.854)" fill="#753519"/>
      <g id="Grupo_1003514" data-name="Grupo 1003514" transform="translate(190.933 322.604)">
        <g id="Grupo_1003513" data-name="Grupo 1003513" transform="translate(8.668 12.269)">
          <path id="Trazado_713256" data-name="Trazado 713256" d="M250.462,419.23l-1.291,1-1.143-1.536c-.711-.982-1.722-2.385-2.879-4.105-2.331-3.429-5.293-8.1-7.988-12.93-2.71-4.821-5.121-9.808-6.784-13.614l-1.9-4.649-.644-1.795,1.536-.556s.23.643.633,1.766l1.871,4.585c1.641,3.759,4.025,8.689,6.71,13.464,2.668,4.783,5.6,9.415,7.914,12.812,1.146,1.7,2.146,3.092,2.848,4.06Z" transform="translate(-227.837 -381.043)" fill="#108f6e"/>
        </g>
        <path id="Trazado_713257" data-name="Trazado 713257" d="M230.4,371.442a6.722,6.722,0,0,1-.225,4.411,4.9,4.9,0,0,1-2.857,2.861,4.648,4.648,0,0,1-4.065-.539,6.847,6.847,0,0,1-2.787-3.92,8.13,8.13,0,0,1-.273-1.286,7.581,7.581,0,0,1,.006-1.274,6.607,6.607,0,0,1,.6-2.269,4.451,4.451,0,0,1,3.15-2.558,5.143,5.143,0,0,1,3.974.957,6.1,6.1,0,0,1,1.5,1.546,6.426,6.426,0,0,1,.539.978A6.511,6.511,0,0,1,230.4,371.442Z" transform="translate(-218.097 -366.782)" fill="#fce300"/>
        <path id="Trazado_713258" data-name="Trazado 713258" d="M227.683,374.484a11.479,11.479,0,0,0-.936-1.421,10.608,10.608,0,0,0-1.053-1.183,5.27,5.27,0,0,0-1.271-.988,5.221,5.221,0,0,0-.686,1.51,8.8,8.8,0,0,0-.235,1.583,11.941,11.941,0,0,0,.015,1.768,9.7,9.7,0,0,0-4.019-.557,7.646,7.646,0,0,0-1.738.3,10.01,10.01,0,0,0,6.437,5.516,7.875,7.875,0,0,0,3.452.161,9.3,9.3,0,0,0,2.563-2.34,11.325,11.325,0,0,0,2.216-7.489,8.411,8.411,0,0,0-1.641.63A8.826,8.826,0,0,0,227.683,374.484Z" transform="translate(-217.761 -367.356)" fill="#108f6e"/>
      </g>
      <path id="Trazado_713259" data-name="Trazado 713259" d="M182.774,403.846s-1.14,2.234-.95,2.8.95,0,.95,0,1.14.507,1.71.254A6.673,6.673,0,0,0,186,405.41h-2.1Z" transform="translate(-21.805 -49.355)" fill="#753519"/>
      <path id="Trazado_713260" data-name="Trazado 713260" d="M187.906,419.742s-4.771-.511-4.76,0,0,1.966,0,1.966a1.32,1.32,0,0,0-2.1,0,6.311,6.311,0,0,0-1.351,3.1,1.967,1.967,0,0,1-1.651,1.328,1.963,1.963,0,0,0-1.649,1.332,31.2,31.2,0,0,0,4.651,1.14,15.623,15.623,0,0,0,3.251,0,14.885,14.885,0,0,1,3.61.084c1.71.3,3.61.675,5.319.866s4.75-1.33,4.75-1.33a53.629,53.629,0,0,1,7.41.19,8.969,8.969,0,0,0,4.37-.57l.761-1.712a4.715,4.715,0,0,1-2.47-1.593c-.95-1.255-2.09-4.555-2.85-4.8a17.187,17.187,0,0,1-2.849-1.971s-1.9-2.934-2.091-4.786-2.659-3.041-2.659-3.041a3.373,3.373,0,0,0-1.9,1.888,1.925,1.925,0,0,1-2.24,1.154s-.989.164-1.559,1.816a17.973,17.973,0,0,0-.761,2.97s-2.28-.772-3.42,0S187.906,419.742,187.906,419.742Z" transform="translate(-21.049 -50.207)" fill="#753519"/>
      <rect id="Rectángulo_346884" data-name="Rectángulo 346884" width="1.933" height="7.934" transform="matrix(0.843, -0.538, 0.538, 0.843, 133.55, 361.542)" fill="#108f6e"/>
      <g id="Grupo_1003515" data-name="Grupo 1003515" transform="translate(310.813 340.784)">
        <rect id="Rectángulo_346885" data-name="Rectángulo 346885" width="35.489" height="2.037" transform="translate(0 33.12) rotate(-68.947)" fill="#91b31e"/>
      </g>
      <g id="Grupo_1003516" data-name="Grupo 1003516" transform="translate(323.563 340.784)">
        <rect id="Rectángulo_346886" data-name="Rectángulo 346886" width="2.037" height="35.488" transform="translate(0 0.732) rotate(-21.054)" fill="#91b31e"/>
      </g>
      <g id="Grupo_1003517" data-name="Grupo 1003517" transform="translate(319.197 353.94)">
        <rect id="Rectángulo_346887" data-name="Rectángulo 346887" width="11.016" height="2.036" fill="#91b31e"/>
      </g>
      <g id="Grupo_1003518" data-name="Grupo 1003518" transform="translate(316.664 361.22)">
        <rect id="Rectángulo_346888" data-name="Rectángulo 346888" width="15.966" height="2.036" fill="#91b31e"/>
      </g>
      <path id="Trazado_713261" data-name="Trazado 713261" d="M357.673,266.205a16.134,16.134,0,0,0-3.6,5.473,4.517,4.517,0,0,0,3.07,6.074,26.39,26.39,0,0,1,.534,4.071,11.118,11.118,0,0,0,3.07.4,8.355,8.355,0,0,0,2-.534v-4.271a11.128,11.128,0,0,0,2.6-3.471c.6-1.668,1.135-5.74-.8-7.742S358.739,265.024,357.673,266.205Z" transform="translate(-45.828 -29.959)" fill="#ff9a5c"/>
      <path id="Trazado_713262" data-name="Trazado 713262" d="M323.573,251.329s-.071.3-1.611.775-2.638.037-3.077,1.283.44,3.663-.513,4.177a4.332,4.332,0,0,0-1.246.879s2.416,3.077,3.223,4.4a4.748,4.748,0,0,0,1.467-2.418c.367-1.538,2.869-.8,3.444-1.319a11.5,11.5,0,0,0,1.185-1.319S325.623,252.422,323.573,251.329Z" transform="translate(-40.708 -28.05)" fill="#91b31e"/>
      <path id="Trazado_713263" data-name="Trazado 713263" d="M361.969,268.465s-2.685-1.874-3.31-3.622.125-3.362,1.655-3.18a14.758,14.758,0,0,1,2.341.432s1.426-1.811,3.9.5a7.253,7.253,0,0,1,2.16,5.558s3.122.874,1.873,3.809a7.415,7.415,0,0,1-4.033,3.888s-.4,1.9-1.462,2a6.8,6.8,0,0,0-1.695.354l.2-3.561a1.865,1.865,0,0,0,1.561-1.186c.562-1.186-1.186-1-1.186-1s-1-1.811-.563-2.5C363.4,269.963,361.844,269.339,361.969,268.465Z" transform="translate(-46.479 -29.46)" fill="#753519"/>
      <path id="Trazado_713264" data-name="Trazado 713264" d="M343.932,273.8a64.161,64.161,0,0,1-8.881-8.78c-4.082-5.007-6.581-8.589-6.581-8.589a10.184,10.184,0,0,0-.834-3.833,5.755,5.755,0,0,0-1.416-2.083c-.5-.667-.5.541.134,1.717l.631,1.176s-1.635-2.61-2.238-2.524.114.946.43,1.406a3.6,3.6,0,0,1,.43,1.262s-1.176-1.807-1.578-1.492.43,1.406,1.09,2.266.775,2.209,1.176,2.926c0,0,5.676,14.732,13.768,21.06S343.932,273.8,343.932,273.8Z" transform="translate(-41.658 -27.91)" fill="#ff9a5c"/>
      <path id="Trazado_713265" data-name="Trazado 713265" d="M328.948,257.122a9.012,9.012,0,0,1,.246-1.059c.069-.1.29-.9.457-1.4s-.074-.98-.352-.739a3.025,3.025,0,0,0-.886,1.663A5.234,5.234,0,0,0,328.948,257.122Z" transform="translate(-42.284 -28.404)" fill="#ff9a5c"/>
      <path id="Trazado_713266" data-name="Trazado 713266" d="M372.9,292.853s3.623,4.394,5.008,5.086,5.04-2.351,6.926-5.849a52.88,52.88,0,0,0,2.861-6.152s2.448-1.775,3.142-3.468c0,0,.251-.757,0-.927s-.973,1.06-1.354,1.527c0,0,1.1-1.909.933-2.333s-1.739,1.782-1.739,1.782,1.23-2.248.806-2.291-1.612,1.994-1.612,1.994-.042-1.4-.466-1.315-.3,1.654-.3,1.654-.424,1.951-.678,2.588-5.6,6.744-6.278,6.913c0,0-2.164-3.054-4.157-3.648S372.9,292.853,372.9,292.853Z" transform="translate(-48.499 -32.087)" fill="#ff9a5c"/>
      <path id="Trazado_713267" data-name="Trazado 713267" d="M351.359,310.481s5.017,53.172,5.894,57.649c0,0,4.755.574,6.375,0,0,0-.357-32.375,0-35.7s3.227-20.321,2.194-22.617S351.359,310.481,351.359,310.481Z" transform="translate(-45.49 -36.098)" fill="#0e1a34"/>
      <path id="Trazado_713268" data-name="Trazado 713268" d="M368.147,309.624s1.785,21.27,2.672,24.527,10.5,17.017,10.5,17.017l-4.218,4.264s-8.725-8.84-11.25-12.055-6.888-16.646-6.888-16.646S361.488,306.3,368.147,309.624Z" transform="translate(-46.552 -36.142)" fill="#0e1a34"/>
      <path id="Trazado_713269" data-name="Trazado 713269" d="M264.716,165.236c-4.9-1.519-8.44-2-11.309-3.614s-5.739-2.815-7.934-2.723-6.752-1.1-9.452,0-5.559,6.667-9.7,7.683-14.538-1.178-17.441-3.034-3.729-5.571-2.894-7.427a15.655,15.655,0,0,0,1-6.383c-.169-1.213,4.22-3.594,5.739-5.188s2.955-6.79-.639-9.388a122.45,122.45,0,0,0-46.727,21.608,7.533,7.533,0,0,0,1.118,2.9c1.013,1.687-.612,2.7-.559,3.206s.957.448.167,1.406.014.789-.725,1.464a21.778,21.778,0,0,1-1.921,1.688c-.507.337-.337,1.35-1.351,2.532s-2.869,2.194-2.869,4.05-2.869,4.388-3.207,5.4-3.206,4.894-3.376,7.426a44.55,44.55,0,0,0,0,6.752,15.864,15.864,0,0,1-.126,5.064,39.415,39.415,0,0,0-.886,6.92c-.169,3.376,1.182,4.9,4.388,5.908s9.275,3.883,10.8,6.076,2.368,4.9,3.549,5.233,2.195,3.882,6.076,6.582,11.14,3.043,14.347,6.5,9.115,11.885,10.634,16.533,4.05,6.36,6.752,8.627,6.076,4.8,8.608,4.967,3.564-.893,3.47-1.8-3.3-3.6-3.808-4.28-1.519-5.232-3.038-8.44-1.688-3.338-1.182-4.876,1.519-4.908,3.039-5.755,2.7-.229,3.713-1.72,1.37-2.33,1.276-3.261-1.613-1.507-3.132-1.641-2.025-1.484-4.051-1.821-4.894-1.182-5.57-2.363a3.187,3.187,0,0,0-3.207-1.35c-1.013.169-4.051.674-6.076-1.351s-2.195-5.908-2.532-7.933-.675-2.7-.169-4.22.506-2.711,2.869-3.8,6.245-1.947,8.608,0,7.089.427,8.1-.755,3.882-4.726,6.245-4.894,6.245,0,7.764-1.351,7.258-4.2,8.271-6.488,4.9-8.932,4.9-11.1,7.089-6.384,9.114-5.709,4.727-2.532,5.739-2.532,4.051.506,5.739-1.519,3.038-3.386,4.388-5.322S269.611,166.755,264.716,165.236Z" transform="translate(-17.587 -11.823)" fill="#108f6e"/>
      <path id="Trazado_713270" data-name="Trazado 713270" d="M267.346,344.985a89.472,89.472,0,0,0-10.528-5.6c-4.835-2.035-8.4-9.241-9.671-10.728s-2.29-14.468,0-16.758,4.6-6.108,6.5-9.162,2.664-5.09,1.9-6.363-.763-8.5,0-9.721,4.581-3.513,6.363-3.259,7.381-1.311,9.671-.019,10.944,5.866,14.761,6.125,7.635,3.566,10.689,1.784,7.536.255,10.131,4.072,5.648,7.7,9.975,10.214,3.95,4.8,6.428,5.312,8.016,2.019,11.015,4.072,2.016,4.581-.461,7.635-5.557,7.889-7.579,10.943-1.286,7.635,0,8.908.268,6.617-1.514,8.145-5.6,4.072-7.126,6.871-1.38,4.876-4.889,6.128-11.4,4.816-16.235,5.961-8.908,1.415-12.216,4.207-3.775,10.372-6.888,11.672-12.454,7.147-16.017,6.768-3.557-1.09-1.524-3.661,7.18-7.1,10.079-11.224-.92-8.113,1.625-9.783,2.99-6.633,3.785-8.1S276.2,349.837,267.346,344.985Z" transform="translate(-30.742 -32.455)" fill="#108f6e"/>
      <path id="Trazado_713271" data-name="Trazado 713271" d="M352.81,214.637c.509,1.038,3.224,2.225,5.26,3.243s3.949-.548,4.774-3.243,4.388-3.2,6.254-2.186,3.9,1.527,5.26,1.187c1.34-.335,3.939-1.333,4.006-1.359a123.311,123.311,0,0,0-35.527-48.01,26.462,26.462,0,0,1-3.6,4.075,12.737,12.737,0,0,0-3.328,4.743c-.575,1.188-2.272,6.278-1.593,8.484s.4,3.733,2.913,5.6,4.756,2.5,3.636,5.916-.271,7.065-1.458,8.888a6.122,6.122,0,0,0,1.458,7.762c2.783,2.375,6.347,1.867,7.195,2.036S352.3,213.6,352.81,214.637Z" transform="translate(-43.087 -15.889)" fill="#108f6e"/>
      <path id="Trazado_713272" data-name="Trazado 713272" d="M257.945,253.595a5.677,5.677,0,0,1-1.7,3.859c-1.7,1.527-3.393,4.242-1.7,4.581s5.26.841,6.108,1.353,5.26,2.889,6.447,2.041,2.036-2.885,3.224-3.054,1.527-3.178,2.546-4.134,4.581-4.35,4.92-7.065.679-6.786,0-7.8-5.429-1.7-5.939-3.054-3.534-2.375-5.839-1.018-3.323,4.412-3.662,6.618S257.775,249.735,257.945,253.595Z" transform="translate(-31.869 -26.281)" fill="#108f6e"/>
      <g id="Grupo_1003520" data-name="Grupo 1003520" transform="translate(297.632 97.127)">
        <g id="Grupo_1003519" data-name="Grupo 1003519" transform="translate(0 13.645)">
          <path id="Trazado_713273" data-name="Trazado 713273" d="M343.181,165.067l-1.4-1.05s.416-.551,1.1-1.626,1.629-2.621,2.674-4.542a107.992,107.992,0,0,0,6.5-14.676,127.989,127.989,0,0,0,4.476-15.444c.537-2.129.8-3.943,1.062-5.2l.374-1.978,1.723.3-.379,2c-.262,1.269-.533,3.1-1.076,5.262a129.778,129.778,0,0,1-4.536,15.652,109.721,109.721,0,0,1-6.606,14.919c-1.066,1.96-2.027,3.557-2.742,4.655S343.181,165.067,343.181,165.067Z" transform="translate(-341.784 -120.555)" fill="#108f6e"/>
        </g>
        <path id="Trazado_713274" data-name="Trazado 713274" d="M367.414,111.935c-.52,3.767-3.42,6.391-6.421,5.866s-5.032-3.745-4.551-7.195c.345-3.472,3.1-6.113,6.143-5.9S367.795,108.155,367.414,111.935Z" transform="translate(-343.822 -104.694)" fill="#fce300"/>
        <path id="Trazado_713275" data-name="Trazado 713275" d="M363.565,114.071a11.249,11.249,0,0,0-.269-1.855,7.493,7.493,0,0,0-1.5-3.121,7.476,7.476,0,0,0-2.083,2.684,14.187,14.187,0,0,0-.767,1.672,9.722,9.722,0,0,0-5.528-2.547,11.517,11.517,0,0,0,3.661,7.644,9.541,9.541,0,0,0,3.11,1.975,8.773,8.773,0,0,0,3.638-.816c2.016-.9,4.341-2.83,5.789-6.84A10.255,10.255,0,0,0,363.565,114.071Z" transform="translate(-343.409 -105.309)" fill="#108f6e"/>
      </g>
      <path id="Trazado_713276" data-name="Trazado 713276" d="M314.385,72.216a17.3,17.3,0,0,0-4.329,1.969c-2.864,1.654-9.29,8.017-9.29,8.017a24.7,24.7,0,0,0,5.344,6.553,47.866,47.866,0,0,0,4.39-2.226s1.782,8.589-1.782,13.87a9.516,9.516,0,0,0,5.409,2.927c3.372.509,6.935.446,9.862,2.546s7.7,1.908,9.734,0a28,28,0,0,0,0-12.789,32.645,32.645,0,0,0-4.2-9.607l1.082.827s3.69-4.008,3.881-7.126c0,0-4.263-4.39-7.317-6.045a10.2,10.2,0,0,0-8.922,0A11.236,11.236,0,0,1,314.385,72.216Z" transform="translate(-38.422 -2.734)" fill="#108f6e"/>
      <path id="Trazado_713277" data-name="Trazado 713277" d="M308.879,62.5c.03.281.756,3.78,2.457,5.481s3.024.662,3.5.85.756,1.512.756,2.457,1.512,1.89,2.929.851.662-5.859.662-5.859a5.828,5.828,0,0,0,.2-3.78s.724-1.8.214-2.836-1.266-.756-1.644,0c0,0-1.8-3.307-4.442-2.74S308.5,58.911,308.879,62.5Z" transform="translate(-39.55 -0.886)" fill="#ff9a5c"/>
      <path id="Trazado_713278" data-name="Trazado 713278" d="M320.129,59.633c-.851-1.134-.284-4.063-1.388-5.765s-3.432-1.134-3.432-1.134-.567-2.552-2.741-2.173-4.158,3.307-4.158,3.307a7.08,7.08,0,0,0-3.213,0c-2.078.379-4.441,1.8-3.591,3.875S305.67,59.7,305.67,59.7s-.851,4.086,2.134,2.953c.088-.034.163-.08.245-.12a9.352,9.352,0,0,1-.206-.92,4.429,4.429,0,0,1,2.529-4.866h0a8.86,8.86,0,0,1,2.1-.71c2.646-.567,4.442,2.74,4.442,2.74.379-.756,1.134-1.039,1.644,0s-.214,2.836-.214,2.836a6.108,6.108,0,0,1,.077,2.879,1.892,1.892,0,0,0,.318.051C321.512,64.547,320.979,60.767,320.129,59.633Z" transform="translate(-38.515)" fill="#753519"/>
      <path id="Trazado_713279" data-name="Trazado 713279" d="M308.9,63.036s3.255-1.376,3.487-6.248c0,0,1,3.037,5.379,2.492,0,0-.344-4.056-3.951-5.073s-6.247,5-6.247,5A4.2,4.2,0,0,0,308.9,63.036Z" transform="translate(-39.365 -0.499)" fill="#753519"/>
      <path id="Trazado_713280" data-name="Trazado 713280" d="M315.811,148.248c-.683-5.726-1.814-11.44-1.826-11.5l.474-.095c.011.058,1.147,5.791,1.831,11.535Z" transform="translate(-40.269 -12.032)" fill="#fff"/>
      <path id="Trazado_713281" data-name="Trazado 713281" d="M110.831,360.639a13.753,13.753,0,0,1,1.57.118c.561.1.922.894,1.081,1.212s-.541.286-.891-.159-.423-.557-.423-.557a1.938,1.938,0,0,0-.833,0c-.3.111-.67-.246-.732-.5S110.831,360.639,110.831,360.639Z" transform="translate(-11.858 -43.315)" fill="#ff9a5c"/>
      <path id="Trazado_713282" data-name="Trazado 713282" d="M103.034,367.067a6.957,6.957,0,0,0,2.04,1.464c.084.732.507,1.042.744,1.014s.242-1.127.242-1.127c.211.507,1.042,1.013,1.155.7a1.837,1.837,0,0,0,0-.816s.338.45.591.45.563-.225.451-.788a5.452,5.452,0,0,0-.789-1.859c-.337-.451-.535-.9-1.267-1.07a12.119,12.119,0,0,0-1.831-.14,15.911,15.911,0,0,0-2.112,0Z" transform="translate(-10.693 -43.909)" fill="#ff9a5c"/>
      <path id="Trazado_713283" data-name="Trazado 713283" d="M103.5,365.234v-.455a9.53,9.53,0,0,1,2.467-.48c.409.145.794.719,1.019.935S103.5,365.234,103.5,365.234Z" transform="translate(-10.866 -43.828)" fill="#ff9a5c"/>
      <circle id="Elipse_8384" data-name="Elipse 8384" cx="8.857" cy="8.857" r="8.857" transform="translate(133.426 366.292)" fill="#0e1a34"/>
      <path id="Trazado_713284" data-name="Trazado 713284" d="M160.568,431.173a3.957,3.957,0,1,1,3.957-3.957A3.961,3.961,0,0,1,160.568,431.173Zm0-7.43a3.473,3.473,0,1,0,3.474,3.472A3.476,3.476,0,0,0,160.568,423.743Z" transform="translate(-18.286 -52.067)" fill="#fff"/>
      <path id="Trazado_713285" data-name="Trazado 713285" d="M284.109,259.647a26.719,26.719,0,0,0-3.4,3.81c-1.4,2,2.4,1,3.4,1.2s1.2,1.647,3.2,1.124a11.281,11.281,0,0,0,2-.522,15.23,15.23,0,0,1,4.205-.6c1.8-.2,1.448-1.509,2.426-2.657s1.024-2.149,0-3.15-1.625,2-3.628,0-1.936-3.723-3.771-2.863-1.359,1.163-2.2,1.913S284.109,259.647,284.109,259.647Z" transform="translate(-35.577 -28.669)" fill="#108f6e"/>
      <path id="Trazado_713286" data-name="Trazado 713286" d="M357.871,281.556a14.914,14.914,0,0,1-10.778-4.605,23.588,23.588,0,0,0-5.139,6.14,27.957,27.957,0,0,0,7.677,6.141s-1.844,15.513-.868,20.892c0,0,6.475,1.2,10.479,1.469a34.014,34.014,0,0,0,8.944-1l-1.135-19.157,1.135,1.335s4.138-3.8,4.2-5.873c0,0-5.9-5.54-8.457-6.408S360.359,281.756,357.871,281.556Z" transform="translate(-44.176 -31.63)" fill="#91b31e"/>
      <path id="Trazado_713287" data-name="Trazado 713287" d="M365.64,342.575l-.483-.008c.008-.436.178-10.685.483-12.1.3-1.389,2.077-11.061,2.095-11.158l.476.087c-.018.1-1.8,9.777-2.1,11.173C365.818,331.937,365.642,342.469,365.64,342.575Z" transform="translate(-47.417 -37.546)" fill="#fff"/>
      <path id="Trazado_713288" data-name="Trazado 713288" d="M274.743,426.947h-9.878s-5.411-36.207,0-43.855S281.616,378.049,274.743,426.947Z" transform="translate(-33.071 -46.002)" fill="#ffd200"/>
      <path id="Trazado_713289" data-name="Trazado 713289" d="M257.021,430.915H248.2s-11.567-3.607-17.106-12.425,2.677-12.557,8.689-8.784S257.021,430.915,257.021,430.915Z" transform="translate(-28.434 -49.97)" fill="#ffd200"/>
      <path id="Trazado_713290" data-name="Trazado 713290" d="M262.01,428.521H256.6s-12.825-12.665-14.429-27.977,10.621-10.339,16.033,3.107a86.121,86.121,0,0,1,6.012,24.869Z" transform="translate(-30.217 -47.576)" fill="#91b31e"/>
      <path id="Trazado_713291" data-name="Trazado 713291" d="M280.464,430.915h8.818s11.567-3.607,17.106-12.425-2.677-12.557-8.689-8.784S280.464,430.915,280.464,430.915Z" transform="translate(-35.586 -49.97)" fill="#ffd200"/>
      <path id="Trazado_713292" data-name="Trazado 713292" d="M276.379,428.521h5.411s12.826-12.665,14.429-27.977-10.621-10.339-16.033,3.107a86.122,86.122,0,0,0-6.012,24.869Z" transform="translate(-34.708 -47.576)" fill="#91b31e"/>
      <path id="Trazado_713293" data-name="Trazado 713293" d="M311.891,247.665l.524-1.069.681.977,1.069.524-.977.681-.524,1.069-.681-.977-1.069-.524Z" transform="translate(-39.84 -27.389)" fill="#fff"/>
      <path id="Trazado_713294" data-name="Trazado 713294" d="M333.765,252.878l.319-.651.414.594.65.319-.594.414-.319.65-.414-.594-.65-.319Z" transform="translate(-42.949 -28.176)" fill="#fff"/>
      <path id="Trazado_713295" data-name="Trazado 713295" d="M337.283,242.7l.319-.65.414.594.65.319-.594.414-.319.65-.414-.594-.65-.319Z" transform="translate(-43.44 -26.754)" fill="#fff"/>
      <path id="Trazado_713296" data-name="Trazado 713296" d="M306.692,238.9l.319-.65.414.594.65.319-.594.414-.319.65-.414-.594-.65-.319Z" transform="translate(-39.167 -26.223)" fill="#fff"/>
      <path id="Trazado_713297" data-name="Trazado 713297" d="M311.258,266.8l.319-.65.414.594.65.319-.594.414-.319.651-.414-.594-.65-.319Z" transform="translate(-39.805 -30.12)" fill="#fff"/>
      <g id="Grupo_1003521" data-name="Grupo 1003521" transform="translate(197.997 89.25)">
        <path id="Trazado_713298" data-name="Trazado 713298" d="M233.929,96.089l-.2-.14c.191-.268.3-.411.3-.411l.193.146S234.117,95.826,233.929,96.089Z" transform="translate(-227.056 -95.538)" fill="#fff"/>
        <path id="Trazado_713299" data-name="Trazado 713299" d="M226.453,110.14l-.236-.052c.016-.071.032-.143.048-.213l.235.055C226.484,110,226.468,110.069,226.453,110.14Zm.293-1.184-.233-.064q.133-.49.28-.972l.231.071Q226.878,108.47,226.746,108.956Zm.588-1.921-.229-.077c.108-.323.223-.64.34-.954l.226.084Q227.5,106.556,227.334,107.035Zm.7-1.884-.224-.09q.191-.475.391-.933l.222.1Q228.226,104.679,228.035,105.151Zm.8-1.846-.219-.1q.215-.467.436-.913l.217.106C229.123,102.692,228.978,103,228.835,103.3Zm.888-1.806-.214-.112q.24-.461.477-.892l.212.116C230.04,100.9,229.882,101.194,229.723,101.5Zm.967-1.765-.21-.12q.265-.458.514-.871l.206.125C231.036,99.141,230.864,99.429,230.69,99.734Zm1.041-1.721-.2-.13c.2-.314.385-.6.552-.848l.2.134C232.114,97.418,231.929,97.7,231.731,98.012Z" transform="translate(-226.006 -95.747)" fill="#fff"/>
        <path id="Trazado_713300" data-name="Trazado 713300" d="M226.209,113.365l-.237-.044c.031-.168.063-.336.1-.5l.237.049Q226.256,113.116,226.209,113.365Z" transform="translate(-225.972 -97.952)" fill="#fff"/>
      </g>
      <g id="Grupo_1003522" data-name="Grupo 1003522" transform="translate(205.37 89.868)">
        <path id="Trazado_713301" data-name="Trazado 713301" d="M235.993,96.8l-.238-.045c.061-.323.1-.5.1-.5l.237.05S236.054,96.48,235.993,96.8Z" transform="translate(-234.711 -96.256)" fill="#fff"/>
        <path id="Trazado_713302" data-name="Trazado 713302" d="M234.561,109.122q-.015-.507-.019-1.012l.242,0q0,.5.018,1.006Zm.227-2.019-.242,0c.005-.339.014-.676.026-1.01l.242.009Q234.8,106.6,234.788,107.1Zm.071-2.011-.242-.013q.028-.512.065-1.008l.24.016Q234.887,104.582,234.859,105.092Zm.144-2.009-.241-.021c.03-.344.063-.681.1-1.007l.241.025Q235.049,102.568,235,103.083Zm.209-2-.24-.028q.062-.525.127-1l.24.032Q235.275,100.557,235.212,101.08Zm.269-2-.239-.036c.056-.368.109-.7.159-1l.237.04C235.59,98.386,235.536,98.718,235.481,99.085Z" transform="translate(-234.542 -96.507)" fill="#fff"/>
        <path id="Trazado_713303" data-name="Trazado 713303" d="M234.708,113.356c-.015-.169-.029-.339-.042-.508l.241-.018q.019.253.042.5Z" transform="translate(-234.559 -98.571)" fill="#fff"/>
      </g>
      <path id="Trazado_713304" data-name="Trazado 713304" d="M230.214,114.562c-.012-.166-.021-.331-.03-.5l.242-.011c.008.163.018.328.029.491Zm-.06-1.468c0-.129,0-.259,0-.388,0-.2,0-.389.006-.582l.242,0q-.006.288-.006.578,0,.192,0,.385Zm.281-1.928-.242-.012q.026-.49.067-.97l.241.021Q230.46,110.681,230.435,111.166Zm.163-1.919-.24-.028q.057-.487.126-.962l.239.034Q230.655,108.763,230.6,109.247Zm.279-1.906-.238-.043c.057-.323.118-.64.181-.953l.237.048Q230.96,106.858,230.876,107.34Zm.384-1.89-.235-.054q.111-.481.231-.943l.234.061C231.41,104.819,231.334,105.132,231.26,105.45Zm.483-1.868-.232-.065q.135-.479.277-.93l.231.071C231.925,102.957,231.833,103.266,231.742,103.583Zm.573-1.842-.229-.077c.108-.319.216-.625.323-.915l.226.083Q232.477,101.265,232.315,101.741Zm.663-1.812-.225-.089c.129-.326.253-.626.368-.9l.223.095C233.229,99.307,233.106,99.6,232.979,99.929Zm.755-1.774-.219-.1c.259-.561.421-.865.428-.878l.213.114S233.99,97.6,233.734,98.155Z" transform="translate(-28.558 -6.517)" fill="#fff"/>
      <path id="Trazado_713305" data-name="Trazado 713305" d="M91.682,351.915c-.1-.064-.213-.12-.316-.185a37.928,37.928,0,0,0-5.176-3.141,2.239,2.239,0,0,1-.211-.119,19.883,19.883,0,0,0-1.4,2.617,33.387,33.387,0,0,0,4.593,3.5s1.156-.961,2.1-1.59A8.842,8.842,0,0,1,91.682,351.915Z" transform="translate(-8.223 -41.62)" fill="#ffd200"/>
    </g>
  </g>
</svg>
