<svg xmlns="http://www.w3.org/2000/svg" width="388.5" height="259" viewBox="0 0 388.5 259">
  <g id="Grupo_1005145" data-name="Grupo 1005145" transform="translate(-180 -1218)">
    <rect id="Rectángulo_346904" data-name="Rectángulo 346904" width="210" height="259" transform="translate(180 1218)" fill="#4db1f0"/>
    <g id="Grupo_1005144" data-name="Grupo 1005144" transform="translate(249.623 1168.66)">
      <g id="Grupo_1005109" data-name="Grupo 1005109" transform="translate(39.21 59.483)">
        <ellipse id="Elipse_8511" data-name="Elipse 8511" cx="11.915" cy="14.258" rx="11.915" ry="14.258" transform="translate(255.838 119.113)" fill="#d4f0f9"/>
        <ellipse id="Elipse_8512" data-name="Elipse 8512" cx="23.624" cy="19.741" rx="23.624" ry="19.741" transform="translate(129.65)" fill="#d4f0f9"/>
        <path id="Trazado_718938" data-name="Trazado 718938" d="M75.763,316.153H289.127a72.394,72.394,0,0,0,12.033-85.586,66.351,66.351,0,0,1-7.783-34.291c.013-.368.019-.736.019-1.107a31.6,31.6,0,0,0-16.034-27.512,40.652,40.652,0,0,1-16.208-17.634,44.639,44.639,0,0,0-44.545-24.752,76.721,76.721,0,0,1-46.062-9.734A63.4,63.4,0,0,0,75.536,169.87a63.858,63.858,0,0,0,.936,11.537,41.8,41.8,0,0,1-8.865,34.034,72.084,72.084,0,0,0,8.157,100.712Z" transform="translate(-44.319 -77.334)" fill="#d4f0f9"/>
        <ellipse id="Elipse_8513" data-name="Elipse 8513" cx="12.932" cy="15.476" rx="12.932" ry="15.476" transform="translate(0 103.056)" fill="#d4f0f9"/>
      </g>
      <path id="Trazado_718939" data-name="Trazado 718939" d="M312.759,427.724c-1.086-13.32-56.164-9.1-123.959-9.1s-122.873-4.222-123.96,9.1Z" transform="translate(-9.728 -120.503)" fill="#b8e9f4"/>
      <g id="Grupo_1005143" data-name="Grupo 1005143" transform="translate(35.378 53.03)">
        <g id="Grupo_1005120" data-name="Grupo 1005120">
          <g id="Grupo_1005111" data-name="Grupo 1005111">
            <path id="Trazado_718940" data-name="Trazado 718940" d="M411.789,266.011c4.843,0,5.128-7.29.291-7.54q-.238-.012-.48-.012a9.115,9.115,0,0,0-3.394.653,10.441,10.441,0,0,0-15.825-5.771,11.118,11.118,0,0,0-20.787,2.928,10.987,10.987,0,0,0-13.246,3.86,3.769,3.769,0,0,0,3.136,5.881Z" transform="translate(-141.796 -117.18)" fill="#59cef7"/>
            <g id="Grupo_1005110" data-name="Grupo 1005110" transform="translate(41.681)">
              <circle id="Elipse_8514" data-name="Elipse 8514" cx="35.276" cy="35.276" r="35.276" fill="#ffc74a"/>
              <path id="Trazado_718941" data-name="Trazado 718941" d="M151.422,56.947a35.275,35.275,0,0,1-38.111,57.776,35.274,35.274,0,1,0,38.111-57.776Z" transform="translate(-102.791 -54.323)" fill="#f9a428"/>
            </g>
            <path id="Trazado_718942" data-name="Trazado 718942" d="M243.5,84.653c4.477,0,4.741-6.739.27-6.97q-.22-.011-.443-.011a8.432,8.432,0,0,0-3.137.6,9.652,9.652,0,0,0-14.629-5.334,10.278,10.278,0,0,0-19.216,2.707A10.154,10.154,0,0,0,194.1,79.217a3.484,3.484,0,0,0,2.9,5.436Z" transform="translate(-87.58 -57.766)" fill="#59cef7"/>
            <path id="Trazado_718943" data-name="Trazado 718943" d="M90.42,192.741c4.927,0,5.217-7.416.3-7.671q-.243-.012-.488-.012a9.271,9.271,0,0,0-3.453.664,10.622,10.622,0,0,0-16.1-5.871,11.311,11.311,0,0,0-21.147,2.979,11.176,11.176,0,0,0-13.475,3.927,3.834,3.834,0,0,0,3.19,5.983Z" transform="translate(-35.378 -92.881)" fill="#59cef7"/>
          </g>
          <g id="Grupo_1005119" data-name="Grupo 1005119" transform="translate(29.065 8.05)">
            <g id="Grupo_1005112" data-name="Grupo 1005112" transform="translate(167.498)">
              <path id="Trazado_718944" data-name="Trazado 718944" d="M345.148,134.5s14.5-46.088-1.806-69.455a185.712,185.712,0,0,1-10.6,25.321C323.765,107.66,331.231,125.187,345.148,134.5Z" transform="translate(-328.834 -65.048)" fill="#0e8c74"/>
              <path id="Trazado_718945" data-name="Trazado 718945" d="M345.148,134.5s.026-.084.074-.242c-11.031-9.711-10.934-22.2-6.3-37.553a104.41,104.41,0,0,0,4.42-31.659,185.712,185.712,0,0,1-10.6,25.321C323.765,107.66,331.231,125.187,345.148,134.5Z" transform="translate(-328.834 -65.048)" fill="#06967a"/>
            </g>
            <path id="Trazado_718946" data-name="Trazado 718946" d="M318.97,164.814s-31.343-18.981-34.642-60.512C284.328,104.3,317.661,125.186,318.97,164.814Z" transform="translate(-146.641 -78.009)" fill="#1aaa8e"/>
            <path id="Trazado_718947" data-name="Trazado 718947" d="M327.1,159.567s-20.955-22.437-14.167-56.676C312.933,102.891,335.06,127.315,327.1,159.567Z" transform="translate(-155.639 -77.543)" fill="#0e8c74"/>
            <g id="Grupo_1005114" data-name="Grupo 1005114" transform="translate(159.689 12.41)">
              <path id="Trazado_718948" data-name="Trazado 718948" d="M333.165,135.783s-.762-29.866,9.051-30.019,7.961,16.717,7.961,16.717,3.4-31.857,12.956-30.782c9.141,1.028,5.188,13.6,5.188,13.6s12.9-32.58,24.978-17.95-16.009,26.428-16.009,26.428,13.053-4.738,15.011,5.111-28.432,15.342-28.432,15.342S381,130.3,380.56,140.607s-48.069,14.385-48.069,14.385Z" transform="translate(-322.233 -83.575)" fill="#1aaa8e"/>
              <g id="Grupo_1005113" data-name="Grupo 1005113" transform="translate(0 11.875)">
                <path id="Trazado_718949" data-name="Trazado 718949" d="M317.737,171.12l-.561-.655c16.447-14.08,62.469-68.612,62.932-69.161l.66.557C380.3,102.41,334.236,156.995,317.737,171.12Z" transform="translate(-317.176 -101.304)" fill="#0e7763"/>
                <path id="Trazado_718950" data-name="Trazado 718950" d="M345.918,161.675c2.515-10.654,1.434-28.028,1.423-28.2l.861-.056c.011.176,1.1,17.677-1.445,28.456Z" transform="translate(-326.666 -111.907)" fill="#0e7763"/>
                <path id="Trazado_718951" data-name="Trazado 718951" d="M374.232,133.721c1.738-5.878,2.164-20.916,2.168-21.067l.863.023c-.017.622-.433,15.3-2.2,21.288Z" transform="translate(-336.015 -105.052)" fill="#0e7763"/>
                <path id="Trazado_718952" data-name="Trazado 718952" d="M346.786,173.534l-.329-.8c10.239-4.224,27.691-5.925,27.866-5.942l.082.859C374.231,167.67,356.906,169.36,346.786,173.534Z" transform="translate(-326.844 -122.928)" fill="#0e7763"/>
                <path id="Trazado_718953" data-name="Trazado 718953" d="M374.724,141.934l-.373-.778c5.629-2.7,20.057-5.437,20.669-5.553l.16.848C395.031,136.479,380.251,139.286,374.724,141.934Z" transform="translate(-336.054 -112.629)" fill="#0e7763"/>
              </g>
            </g>
            <g id="Grupo_1005116" data-name="Grupo 1005116" transform="translate(0 90.895)">
              <path id="Trazado_718954" data-name="Trazado 718954" d="M143.807,279s-37.429-17.456-46.177-63.591C97.63,215.413,137.52,234.759,143.807,279Z" transform="translate(-84.997 -205.59)" fill="#0e8c74"/>
              <path id="Trazado_718955" data-name="Trazado 718955" d="M146.03,264.007s-24.518-24.416-18.271-63.259C127.76,200.748,153.68,227.355,146.03,264.007Z" transform="translate(-94.609 -200.748)" fill="#1aaa8e"/>
              <g id="Grupo_1005115" data-name="Grupo 1005115" transform="translate(0 32.713)">
                <path id="Trazado_718956" data-name="Trazado 718956" d="M180.954,337.572S133.626,256.617,78.77,249.586a360.408,360.408,0,0,1,22.573,48.253C114.484,333.3,149.414,345.424,180.954,337.572Z" transform="translate(-78.77 -249.586)" fill="#1aaa8e"/>
                <path id="Trazado_718957" data-name="Trazado 718957" d="M180.954,337.572s-.086-.147-.252-.424c-28.344,3.19-46.166-13.235-62.193-39.92A202.655,202.655,0,0,0,78.77,249.586a360.408,360.408,0,0,1,22.573,48.253C114.484,333.3,149.414,345.424,180.954,337.572Z" transform="translate(-78.77 -249.586)" fill="#06967a"/>
              </g>
            </g>
            <g id="Grupo_1005117" data-name="Grupo 1005117" transform="translate(23.312 28.157)">
              <path id="Trazado_718958" data-name="Trazado 718958" d="M150,186.767a78.621,78.621,0,0,1-10.714-20.8,114.468,114.468,0,0,1-5.265-23.633c-.569-4.66-.914-9.344-1.117-14.033-.025-.567-.911-.62-.886-.05a156.672,156.672,0,0,0,2.887,25.031,95.9,95.9,0,0,0,7.592,22.725,74.8,74.8,0,0,0,6.85,11.357c.337.46.989-.143.654-.6Z" transform="translate(-119.661 -113.941)" fill="#0e8c74"/>
              <path id="Trazado_718959" data-name="Trazado 718959" d="M136.1,188.94s-16.461-18.9-21.034-13.944S128.429,190.12,136.1,188.94Z" transform="translate(-113.823 -129.234)" fill="#0e8c74"/>
              <path id="Trazado_718960" data-name="Trazado 718960" d="M131.6,171.362s-11.873-19.138-16.645-15.4S124.623,171.3,131.6,171.362Z" transform="translate(-113.716 -123.062)" fill="#0e8c74"/>
              <path id="Trazado_718961" data-name="Trazado 718961" d="M128.988,154.374s-10.4-16.77-14.584-13.5S122.875,154.32,128.988,154.374Z" transform="translate(-113.573 -118.102)" fill="#0e8c74"/>
              <path id="Trazado_718962" data-name="Trazado 718962" d="M127.971,137.5s-5.877-15.745-9.916-13.714S122.877,136.432,127.971,137.5Z" transform="translate(-114.715 -112.539)" fill="#0e8c74"/>
              <path id="Trazado_718963" data-name="Trazado 718963" d="M147.916,187.77s3.413-24.828,9.954-23.191S154.98,184.553,147.916,187.77Z" transform="translate(-124.912 -126.043)" fill="#0e8c74"/>
              <path id="Trazado_718964" data-name="Trazado 718964" d="M141.435,171.651s2.9-22.335,8.785-20.908S147.761,168.712,141.435,171.651Z" transform="translate(-122.772 -121.478)" fill="#0e8c74"/>
              <path id="Trazado_718965" data-name="Trazado 718965" d="M135.373,151.763s5.511-18.949,10.417-16.923S141.245,150.068,135.373,151.763Z" transform="translate(-120.771 -116.199)" fill="#0e8c74"/>
              <path id="Trazado_718966" data-name="Trazado 718966" d="M133.295,136.419s2.895-16.555,7.237-15.3S138.108,134.436,133.295,136.419Z" transform="translate(-120.085 -111.697)" fill="#0e8c74"/>
              <path id="Trazado_718967" data-name="Trazado 718967" d="M131.909,124.039s4.776-16.113.329-16.92S128.482,120.121,131.909,124.039Z" transform="translate(-118.706 -107.084)" fill="#0e8c74"/>
            </g>
            <g id="Grupo_1005118" data-name="Grupo 1005118" transform="translate(175.884 75.863)">
              <path id="Trazado_718968" data-name="Trazado 718968" d="M341.974,206.52a76.388,76.388,0,0,1,22.385-3.92,111.214,111.214,0,0,1,23.438,1.952c4.486.821,8.929,1.855,13.337,3.022.532.141.838-.665.3-.807a152.1,152.1,0,0,0-24.047-4.561,93.131,93.131,0,0,0-23.269.468,72.62,72.62,0,0,0-12.513,3.068c-.524.18-.153.959.367.78Z" transform="translate(-341.354 -186.029)" fill="#0e7763"/>
              <path id="Trazado_718969" data-name="Trazado 718969" d="M363.922,195.121s22.284-9.8,19.014-15.473S365.047,187.665,363.922,195.121Z" transform="translate(-348.805 -178.306)" fill="#0e7763"/>
              <path id="Trazado_718970" data-name="Trazado 718970" d="M381.609,196.052s21.181-5.476,19.1-10.98S383.683,189.6,381.609,196.052Z" transform="translate(-354.645 -180.015)" fill="#0e7763"/>
              <path id="Trazado_718971" data-name="Trazado 718971" d="M399.328,198.6s18.559-4.8,16.734-9.62S401.145,192.944,399.328,198.6Z" transform="translate(-360.496 -181.369)" fill="#0e7763"/>
              <path id="Trazado_718972" data-name="Trazado 718972" d="M415.917,202.536s16.3-.9,15.585-5.229S418.381,198.121,415.917,202.536Z" transform="translate(-365.973 -184.039)" fill="#0e7763"/>
              <path id="Trazado_718973" data-name="Trazado 718973" d="M360.809,203.541s22.036,10.345,18.627,15.936S361.749,211.022,360.809,203.541Z" transform="translate(-347.777 -186.638)" fill="#0e7763"/>
              <path id="Trazado_718974" data-name="Trazado 718974" d="M378.679,202.52s19.874,9.145,16.849,14.193S379.576,209.236,378.679,202.52Z" transform="translate(-353.678 -186.301)" fill="#0e7763"/>
              <path id="Trazado_718975" data-name="Trazado 718975" d="M400.656,203.206s15.979,10.591,12.68,14.554S400.53,209.142,400.656,203.206Z" transform="translate(-360.934 -186.528)" fill="#0e7763"/>
              <path id="Trazado_718976" data-name="Trazado 718976" d="M416.268,205.96s14.514,7.472,12.092,11.135S416.715,211,416.268,205.96Z" transform="translate(-366.089 -187.437)" fill="#0e7763"/>
              <path id="Trazado_718977" data-name="Trazado 718977" d="M427.026,209s13.56,9.089,15.595,5.2S431.65,206.955,427.026,209Z" transform="translate(-369.641 -188.236)" fill="#0e7763"/>
            </g>
          </g>
        </g>
        <g id="Grupo_1005121" data-name="Grupo 1005121" transform="translate(35.024 26.252)">
          <circle id="Elipse_8515" data-name="Elipse 8515" cx="80.984" cy="80.984" r="80.984" transform="translate(0 114.529) rotate(-45)" fill="#92deff"/>
          <circle id="Elipse_8516" data-name="Elipse 8516" cx="80.984" cy="80.984" r="80.984" transform="translate(0 114.529) rotate(-45)" fill="#b3ebff"/>
          <path id="Trazado_718978" data-name="Trazado 718978" d="M223.659,142.526a60.726,60.726,0,1,1-85.691,85.69,80.983,80.983,0,1,0,85.691-85.69Z" transform="translate(-104.274 -108.832)" fill="#92deff"/>
          <path id="Trazado_718979" data-name="Trazado 718979" d="M265.238,158.943A81,81,0,0,1,154.385,269.8,80.99,80.99,0,1,0,265.238,158.943Z" transform="translate(-109.695 -114.253)" fill="#59cef7"/>
          <path id="Trazado_718980" data-name="Trazado 718980" d="M337.941,244.032c-7.85-3.722-15.128-7.04-11.528-10.879,5.377-5.738,6.953,4.032,12.606,4.241a81.829,81.829,0,0,0,.591-9.8,80.964,80.964,0,0,0-42.067-71.034q-1.489-.631-3.006-1.206c-10.2,4.249-5.073,10.838-2.328,12.119,8.375,3.908,36.4-2.006,16.621,11.616-8.962,6.172-20.82,5.6-16.987,14.189,4.575,10.249,10.98,8.357,17.325,12.994,6.4,4.675.155,10.422-9.517,6.466s-17.633-5.959-26.424,5.909-24.173,33.839-6.59,33.839,20.525-.59,17.886,14.791-2.5,6.748,8.047,18.173c3.387,3.669,3.147,9.2,1.787,14.834A81.119,81.119,0,0,0,337.941,244.032Z" transform="translate(-144.098 -113.069)" fill="#1aaa8e"/>
          <path id="Trazado_718981" data-name="Trazado 718981" d="M205.5,274.315s3.863-3.868-11.6-12.08S183.755,254.5,174.57,257.4s-11.595,3.868-21.741-6.765,3.863-9.18,14.977-8.7-3.863-13.047,9.185-19.326,10.627-11.6,10.627-11.6c11.6.486,14.5-6.765,7.732-12.081s-5.8-6.765-14.01-18.845-14.982,5.316-22.233,10.633c-2.673,1.962-4.622-.227-6.02-3.765a81.1,81.1,0,0,0-10.528,74.988q1.347.771,2.644,1.505a38.756,38.756,0,0,1,18.508,24.1c.986,3.869,2.088,7.164,3.127,8.03,2.9,2.415,5.8,3.382,10.633,5.8.908.453,1.248,1.7,1.21,3.408a80.456,80.456,0,0,0,22.172,8.6c.492-1.156.78-1.861.78-1.861s10.146-3.863,10.633-5.311,10.522-18.434,10.522-24.335C222.787,273.821,205.5,274.315,205.5,274.315Z" transform="translate(-104.201 -119.852)" fill="#31c9ac"/>
          <path id="Trazado_718982" data-name="Trazado 718982" d="M259.4,143.321a81.416,81.416,0,0,0-37.38,2.77,12.128,12.128,0,0,1,2.527,6.174c.879,9.671,5.438,14.344,16.426,11.268C248.051,161.55,255.3,153.27,259.4,143.321Z" transform="translate(-132.027 -108.758)" fill="#31c9ac"/>
        </g>
        <g id="Grupo_1005142" data-name="Grupo 1005142" transform="translate(31.726 45.17)">
          <g id="Grupo_1005124" data-name="Grupo 1005124" transform="translate(182.537 149.565)">
            <path id="Rectángulo_347569" data-name="Rectángulo 347569" d="M0,0H31.213a0,0,0,0,1,0,0V35.017a2.806,2.806,0,0,1-2.806,2.806H2.806A2.806,2.806,0,0,1,0,35.017V0A0,0,0,0,1,0,0Z" transform="translate(2.923 15.235)" fill="#7bddff"/>
            <path id="Trazado_718983" data-name="Trazado 718983" d="M403.046,366.5v37.823h.482a1.646,1.646,0,0,0,1.646-1.646V366.5Z" transform="translate(-371.037 -351.267)" fill="#59cef7" style="mix-blend-mode: multiply;isolation: isolate"/>
            <rect id="Rectángulo_347570" data-name="Rectángulo 347570" width="31.213" height="3.576" transform="translate(2.923 15.235)" fill="#59cef7" style="mix-blend-mode: multiply;isolation: isolate"/>
            <rect id="Rectángulo_347571" data-name="Rectángulo 347571" width="37.059" height="3.615" transform="translate(0 11.62)" fill="#7bddff"/>
            <path id="Trazado_718984" data-name="Trazado 718984" d="M364.794,343.757h20.8l5.282,11.62H359.512Z" transform="translate(-356.663 -343.757)" fill="#7bddff"/>
            <path id="Trazado_718985" data-name="Trazado 718985" d="M371.574,350.245h13.02l3.307,7.274H368.268Z" transform="translate(-359.554 -345.899)" fill="#2b9bba"/>
            <path id="Trazado_718986" data-name="Trazado 718986" d="M360.489,357.895l-.977,2.15h31.362l-.977-2.15Z" transform="translate(-356.663 -348.425)" fill="#59cef7" style="mix-blend-mode: multiply;isolation: isolate"/>
            <g id="Grupo_1005123" data-name="Grupo 1005123" transform="translate(9.671 27.349)">
              <path id="Trazado_718987" data-name="Trazado 718987" d="M373.922,396.1l1.556.995-1.123-4.21-4.292.747,1.608,1.028-1.358,2.023a3.588,3.588,0,0,0,3,5.588l-.038-.013a2.456,2.456,0,0,0,.257.011l2.638-.017.064-2.693-4.631.03Zm-2.32,3.614v0Z" transform="translate(-369.698 -387.328)" fill="#fff"/>
              <g id="Grupo_1005122" data-name="Grupo 1005122" transform="translate(4.119)">
                <path id="Trazado_718988" data-name="Trazado 718988" d="M380.544,386.606l1.8,2.58-1.607,1.259,4.344.335.717-4.3-1.335,1.045-.977-1.39a3.588,3.588,0,0,0-5.933.038l-1.71,2.549,2.3,1.4,2.141-3.19A3.144,3.144,0,0,1,380.544,386.606Zm.879-.676h0l-.009,0Z" transform="translate(-375.847 -384.587)" fill="#fff"/>
                <path id="Trazado_718989" data-name="Trazado 718989" d="M390.625,396.988l-1.978-2.867-2.376,1.3,2.78,4.03a2.2,2.2,0,0,1,.244.464l-5,.032-.015-1.712-2.915,3.238,2.969,3.19-.017-2.023,3.381-.022a3.588,3.588,0,0,0,2.93-5.626Z" transform="translate(-377.668 -387.735)" fill="#fff"/>
              </g>
            </g>
          </g>
          <g id="Grupo_1005131" data-name="Grupo 1005131" transform="translate(115.747 59.53)">
            <g id="Grupo_1005125" data-name="Grupo 1005125">
              <path id="Trazado_718990" data-name="Trazado 718990" d="M277.681,245.443s-2.508-22.46-22.136-24.272c0,0,2.451,10.822,9.792,15.673S275.818,242.256,277.681,245.443Z" transform="translate(-255.545 -213.246)" fill="#46dbbf"/>
              <path id="Trazado_718991" data-name="Trazado 718991" d="M292.156,238.757s-1.069-23.028,14.624-29.417c0,0,.614,11.079-5.114,17.759S293.073,235.18,292.156,238.757Z" transform="translate(-267.628 -209.34)" fill="#46dbbf"/>
              <path id="Trazado_718992" data-name="Trazado 718992" d="M284.119,259.522a.228.228,0,0,1-.209-.216c-.749-16.3-15.94-28.125-16.093-28.242a.228.228,0,1,1,.277-.362c.155.119,15.513,12.065,16.272,28.583a.227.227,0,0,1-.217.238Z" transform="translate(-259.567 -216.378)" fill="#065949"/>
              <path id="Trazado_718993" data-name="Trazado 718993" d="M291.184,252.519a.228.228,0,0,1-.208-.2,41.4,41.4,0,0,1,10.311-29.634.228.228,0,0,1,.343.3,40.919,40.919,0,0,0-10.2,29.279.228.228,0,0,1-.2.253A.26.26,0,0,1,291.184,252.519Z" transform="translate(-267.212 -213.721)" fill="#065949"/>
            </g>
            <g id="Grupo_1005130" data-name="Grupo 1005130" transform="translate(22.956 31.349)">
              <g id="Grupo_1005126" data-name="Grupo 1005126" transform="translate(42.308 15.415)">
                <path id="Trazado_718994" data-name="Trazado 718994" d="M352.981,279.157a7.888,7.888,0,0,1,5.127,3.836c2.079,3.405,2.545,10.647,2.545,10.647h-7.206Z" transform="translate(-352.981 -279.157)" fill="#5cade5"/>
                <path id="Trazado_718995" data-name="Trazado 718995" d="M361.11,313.145a23.487,23.487,0,0,1-2.865,4.389,92.574,92.574,0,0,1-.81-16.758h3.89C361.337,303.194,361.356,312.03,361.11,313.145Z" transform="translate(-354.42 -286.295)" fill="#f9cfaa"/>
              </g>
              <g id="Grupo_1005129" data-name="Grupo 1005129">
                <g id="Grupo_1005127" data-name="Grupo 1005127" transform="translate(0 8.049)">
                  <path id="Trazado_718996" data-name="Trazado 718996" d="M291.518,273.075s11.425,18.454,14.705,19.469c1.458.451,10.461-3.2,14.271-3.874a3.984,3.984,0,0,0,3.268-4.338h0a4.691,4.691,0,0,0-5.347-3.836L305.9,284.57s-10.776-10.864-13.177-13.348c0,0-1.021-3.082-2.481-3.063C288.942,268.176,290.973,272.018,291.518,273.075Z" transform="translate(-289.817 -268.159)" fill="#f9cfaa"/>
                  <path id="Trazado_718997" data-name="Trazado 718997" d="M316.342,292.158c-3.955,1.264-8.428,2.846-9.42,2.541-3.28-1.018-14.7-19.468-14.7-19.468-.072-.143-.169-.331-.285-.551.681.992,12.732,18.515,15.241,18.308a58.488,58.488,0,0,0,8.6-2.314C315.966,291.178,316.154,291.678,316.342,292.158Z" transform="translate(-290.516 -270.312)" fill="#de8162"/>
                </g>
                <path id="Trazado_718998" data-name="Trazado 718998" d="M357.881,389.262h-7.39L340.04,353.769l-4.149-22.781a24.673,24.673,0,0,0,13.75-1.063l1.99-.791s.169,22.774.46,23.2C352.344,352.725,357.025,383.13,357.881,389.262Z" transform="translate(-305.03 -280.243)" fill="#2b6799"/>
                <path id="Trazado_718999" data-name="Trazado 718999" d="M346.186,329.134l-14.242,22.631-.137,37.5H324.76L319.4,350.618l6.4-21.089a24.706,24.706,0,0,0,18.4.4Z" transform="translate(-299.585 -280.243)" fill="#4080c0"/>
                <circle id="Elipse_8517" data-name="Elipse 8517" cx="6.041" cy="6.041" r="6.041" transform="translate(31.715)" fill="#2b6799"/>
                <g id="Grupo_1005128" data-name="Grupo 1005128" transform="translate(30.719 2.724)">
                  <path id="Trazado_719000" data-name="Trazado 719000" d="M337.625,260.21c-5.252,9.035,1.792,10.576,1.792,10.576v2.34h6.308V268.59s-2.4-.7-1.352-1.237a1.981,1.981,0,0,0,.753-2.957c-.726-1.291-1.829-.054-1.829-.054a4.8,4.8,0,0,1-1.533-2.366" transform="translate(-335.679 -260.21)" fill="#f9cfaa"/>
                  <path id="Trazado_719001" data-name="Trazado 719001" d="M341.26,277.9v-2.34s2.578.1,3.675-.9a3.086,3.086,0,0,1-2.456,1.833v1.4Z" transform="translate(-337.522 -264.981)" fill="#de8162"/>
                </g>
                <path id="Trazado_719002" data-name="Trazado 719002" d="M344.154,278.995s5.77-.25,4.318,10.021c-1.312,9.28.26,22.078.868,23.564l-1.987.792a24.744,24.744,0,0,1-18.4-.4h0s3.051-25.158,6.573-32.173a2.933,2.933,0,0,1,2.526-1.589Z" transform="translate(-302.739 -263.688)" fill="#72bdf8"/>
                <path id="Trazado_719003" data-name="Trazado 719003" d="M357.856,328.031l-1.984.791c-.369.143-.745.273-1.121.389.467-.583,1.549-1.965,2.638-3.417A13.386,13.386,0,0,0,357.856,328.031Z" transform="translate(-311.257 -279.14)" fill="#72bdf8"/>
                <path id="Trazado_719004" data-name="Trazado 719004" d="M330.978,418.9v4.947H318.185c-.582,0-.819-.842-.278-1.059a35.5,35.5,0,0,0,7.264-3.888Z" transform="translate(-298.992 -309.882)" fill="#124e77"/>
                <path id="Trazado_719005" data-name="Trazado 719005" d="M361.247,418.9v4.947H348.454c-.582,0-.819-.842-.278-1.059a35.5,35.5,0,0,0,7.264-3.888Z" transform="translate(-308.986 -309.882)" fill="#124e77"/>
                <path id="Trazado_719006" data-name="Trazado 719006" d="M343.955,293.875l-11.008.12c-2.31,10.015-3.993,23.893-3.993,23.893h0a24.763,24.763,0,0,0,2.656.949l2.235-15.761a4.285,4.285,0,0,1,3.442-3.608h0C341.589,299.037,343.955,293.875,343.955,293.875Z" transform="translate(-302.739 -268.601)" fill="#5aace5"/>
                <path id="Trazado_719007" data-name="Trazado 719007" d="M342.6,285.086c-.475-3.077-3.764-4.876-7.657-3.657l-11.6,4.417c1.112,2.612,2.758,6.819,3.933,9.864,3.876-1.457,8.3-3.18,10.886-3.81A5.713,5.713,0,0,0,342.6,285.086Z" transform="translate(-300.887 -264.365)" fill="#72bdf8"/>
                <path id="Trazado_719008" data-name="Trazado 719008" d="M321.4,352.528l3.352,36.926L319.4,350.81l6.4-21.089,2.658.959Z" transform="translate(-299.585 -280.437)" fill="#2b6799"/>
              </g>
              <path id="Trazado_719009" data-name="Trazado 719009" d="M354.4,330.966c.078-.019.155-.045.233-.071-.149.194-.233.3-.233.3Z" transform="translate(-311.142 -280.824)" fill="#5cade5"/>
            </g>
          </g>
          <g id="Grupo_1005133" data-name="Grupo 1005133" transform="translate(46.94 61.733)">
            <path id="Trazado_719010" data-name="Trazado 719010" d="M178,258.729c0-.815-1.8-1.475-4.01-1.475s-4.009.66-4.009,1.475,1.8,1.476,4.009,1.476S178,259.544,178,258.729Z" transform="translate(-158.485 -227.364)" fill="#1aaa8e"/>
            <g id="Grupo_1005132" data-name="Grupo 1005132">
              <path id="Trazado_719011" data-name="Trazado 719011" d="M167.373,236.667s.17-17.271-14.553-20.456c0,0,.86,8.436,5.981,12.794S166.254,234.077,167.373,236.667Z" transform="translate(-152.82 -213.812)" fill="#1aaa8e"/>
              <path id="Trazado_719012" data-name="Trazado 719012" d="M177.639,233.6s1.314-17.567,13.809-20.966c0,0-.557,8.462-5.519,13S178.664,230.968,177.639,233.6Z" transform="translate(-161.015 -212.63)" fill="#1aaa8e"/>
              <path id="Trazado_719013" data-name="Trazado 719013" d="M170.947,247.952a.175.175,0,0,1-.139-.184c.936-12.436-9.5-22.807-9.6-22.91a.174.174,0,1,1,.244-.249c.107.1,10.654,10.585,9.706,23.185a.175.175,0,0,1-.187.161Z" transform="translate(-155.571 -216.569)" fill="#065949"/>
              <path id="Trazado_719014" data-name="Trazado 719014" d="M175.648,243.761a.174.174,0,0,1-.139-.17,31.633,31.633,0,0,1,10.556-21.53.177.177,0,0,1,.246.014.174.174,0,0,1-.014.246,31.278,31.278,0,0,0-10.44,21.271.174.174,0,0,1-.175.173A.154.154,0,0,1,175.648,243.761Z" transform="translate(-160.311 -215.729)" fill="#065949"/>
            </g>
          </g>
          <g id="Grupo_1005135" data-name="Grupo 1005135" transform="translate(98.056)">
            <path id="Trazado_719015" data-name="Trazado 719015" d="M250.447,158.991c0-.822-1.811-1.488-4.043-1.488s-4.043.666-4.043,1.488,1.81,1.488,4.043,1.488S250.447,159.813,250.447,158.991Z" transform="translate(-233.501 -132.695)" fill="#1aaa8e"/>
            <g id="Grupo_1005134" data-name="Grupo 1005134">
              <path id="Trazado_719016" data-name="Trazado 719016" d="M241.291,140.548s.143-14.429-12.158-17.09c0,0,.719,7.049,5,10.689S240.357,138.385,241.291,140.548Z" transform="translate(-229.133 -121.454)" fill="#1aaa8e"/>
              <path id="Trazado_719017" data-name="Trazado 719017" d="M249.868,137.982s1.1-14.676,11.536-17.516c0,0-.465,7.07-4.61,10.862S250.725,135.787,249.868,137.982Z" transform="translate(-235.979 -120.466)" fill="#1aaa8e"/>
              <path id="Trazado_719018" data-name="Trazado 719018" d="M244.276,149.976a.146.146,0,0,1-.115-.153c.782-10.39-7.934-19.054-8.022-19.141a.145.145,0,1,1,.2-.208c.089.087,8.9,8.843,8.109,19.371a.146.146,0,0,1-.156.134Z" transform="translate(-231.432 -123.757)" fill="#065949"/>
              <path id="Trazado_719019" data-name="Trazado 719019" d="M248.2,146.475a.145.145,0,0,1-.116-.143,26.432,26.432,0,0,1,8.82-17.987.145.145,0,1,1,.194.217,26.126,26.126,0,0,0-8.722,17.77.145.145,0,0,1-.146.145A.141.141,0,0,1,248.2,146.475Z" transform="translate(-235.392 -123.056)" fill="#065949"/>
            </g>
          </g>
          <g id="Grupo_1005138" data-name="Grupo 1005138" transform="translate(62.304 85.609)">
            <g id="Grupo_1005137" data-name="Grupo 1005137">
              <path id="Trazado_719020" data-name="Trazado 719020" d="M220.326,289.891l-13.9-.806c-.545-.04-12.534-9.175-12.534-9.175a31.8,31.8,0,0,0-2.431-3.227l-.819,10.561s11.98,6.556,14.4,6.584l15.238-1.243Z" transform="translate(-180.672 -257.655)" fill="#ff9d4d"/>
              <g id="Grupo_1005136" data-name="Grupo 1005136" transform="translate(35.121)">
                <path id="Trazado_719021" data-name="Trazado 719021" d="M237.233,276.684s-.313-18.419-8.714-22.281c0,0-2.035,6,4.039,11.94a9.3,9.3,0,0,1,1.957,2.718A34.888,34.888,0,0,1,237.233,276.684Z" transform="translate(-228.192 -250.298)" fill="#0e8c74"/>
                <path id="Trazado_719022" data-name="Trazado 719022" d="M241.746,274.661s.371-21.813,10.32-26.386c0,0,2.409,7.1-4.783,14.14a11.015,11.015,0,0,0-2.318,3.218A41.357,41.357,0,0,0,241.746,274.661Z" transform="translate(-232.667 -248.275)" fill="#0e8c74"/>
              </g>
              <path id="Trazado_719023" data-name="Trazado 719023" d="M246.415,283.587H228.981l2.546,13.66h12.341Z" transform="translate(-193.331 -259.934)" fill="#e26d44"/>
              <path id="Trazado_719024" data-name="Trazado 719024" d="M248.067,283.587l-2.546,13.66h3.809l2.546-13.66Z" transform="translate(-198.792 -259.934)" fill="#d1552f"/>
              <path id="Trazado_719025" data-name="Trazado 719025" d="M185.839,326.148l1.389,32.357-9.805,25.14,4.889,1.648L199.337,361l.2-35.307Z" transform="translate(-176.308 -273.837)" fill="#2b6799"/>
              <path id="Trazado_719026" data-name="Trazado 719026" d="M204.009,290.012c-.072.039,1.208,8.02,1.9,20.553l-16.143.173c1.74-8.338,1.148-9.751-.259-23.869h0c-1.09-4.129,2.64-7.35,6.894-7.733,5.929-.535,8.011.677,12.039,5.731l4.141,8.785a1.4,1.4,0,0,0,1.277.805l11.08-.05.165,2.691-12.254,2.2a3.515,3.515,0,0,1-3.138-1.436Z" transform="translate(-180.235 -258.426)" fill="#ffc74a"/>
              <path id="Trazado_719027" data-name="Trazado 719027" d="M203.628,270.154V275.8a19.543,19.543,0,0,0-3.761.046.149.149,0,0,0-.054.007v-6.795Z" transform="translate(-183.7 -255.138)" fill="#f9cfaa"/>
              <path id="Trazado_719028" data-name="Trazado 719028" d="M189.988,326.288l12.705,60.848h5.6l-2.165-61.021Z" transform="translate(-180.456 -273.976)" fill="#4080c0"/>
              <path id="Trazado_719029" data-name="Trazado 719029" d="M194.771,265.776s3.231,10.424-2.8,12.134c-6.592,1.867-10.62-4.248-3.149-12.708,0,0-.895-7.5,6.226-8.27,7.471-.812,6.585,3.922,6.506,5.148s-3.815,2.433-3.815,2.433Z" transform="translate(-178.742 -251.103)" fill="#2b6799"/>
              <path id="Trazado_719030" data-name="Trazado 719030" d="M201.964,263.978a7.677,7.677,0,0,0,4.184.459c.937,3.229-.408,6.69-2.743,7.23-2.813.649-3.462-3.417-3.462-3.417-1.346-.122-1.6-2.066-.679-2.873.821-.716,1.81.673,1.81.673Z" transform="translate(-183.338 -253.46)" fill="#f9cfaa"/>
              <path id="Trazado_719031" data-name="Trazado 719031" d="M210.323,417.215v4.5h11.361a.447.447,0,0,0,.243-.822c-.7-.445-7.56-3.683-7.56-3.683Z" transform="translate(-187.171 -304.056)" fill="#124e77"/>
              <path id="Trazado_719032" data-name="Trazado 719032" d="M177.207,412.344l-1.449,4.265,10.757,3.655a.447.447,0,0,0,.494-.7c-.516-.646-5.973-5.919-5.973-5.919Z" transform="translate(-175.758 -302.447)" fill="#124e77"/>
              <path id="Trazado_719033" data-name="Trazado 719033" d="M242.344,301.724s4.083-.9,3.937-.385-1.026.879-1.026.879,3.369-.586,3.443.146-1.392,2.563-6.665,2.2Z" transform="translate(-197.641 -265.743)" fill="#f9cfaa"/>
            </g>
            <path id="Trazado_719034" data-name="Trazado 719034" d="M206.78,289.638c.269.968,1.022,3.818,1.829,7.9.481,2.439.579,10.449.581,16.513l2.48-.027c-.691-12.533-1.972-20.514-1.9-20.553C209.77,293.476,206.512,288.67,206.78,289.638Z" transform="translate(-185.996 -261.89)" fill="#f9b52b"/>
          </g>
          <g id="Grupo_1005141" data-name="Grupo 1005141" transform="translate(0 160.75)">
            <g id="Grupo_1005139" data-name="Grupo 1005139" transform="translate(9.083)">
              <path id="Trazado_719035" data-name="Trazado 719035" d="M112.073,402.705S108.819,384.43,96.3,379.674C96.3,379.674,99.681,397.073,112.073,402.705Z" transform="translate(-96.302 -366.801)" fill="#0e8c74"/>
              <path id="Trazado_719036" data-name="Trazado 719036" d="M118.737,403.326s3.076-17.276,14.909-21.773C133.646,381.553,130.451,398,118.737,403.326Z" transform="translate(-103.71 -367.422)" fill="#0e8c74"/>
              <path id="Trazado_719037" data-name="Trazado 719037" d="M117.9,396.437s6.412-23.359-5.671-35.981C112.227,360.456,106.455,382.853,117.9,396.437Z" transform="translate(-101.08 -360.456)" fill="#1aaa8e"/>
            </g>
            <g id="Grupo_1005140" data-name="Grupo 1005140" transform="translate(0 33.574)">
              <path id="Trazado_719038" data-name="Trazado 719038" d="M132.678,420.742c-1.818-5.752-12.3-10.163-24.968-10.163s-23.15,4.411-24.968,10.163Z" transform="translate(-82.742 -410.58)" fill="#e26d44"/>
              <path id="Trazado_719039" data-name="Trazado 719039" d="M117.64,410.58c-1.65,0-3.262.076-4.824.22,10.425.954,18.563,4.941,20.144,9.943h9.647C140.79,414.991,130.3,410.58,117.64,410.58Z" transform="translate(-92.672 -410.58)" fill="#d1552f"/>
            </g>
          </g>
        </g>
      </g>
    </g>
  </g>
</svg>
