<svg xmlns="http://www.w3.org/2000/svg" xmlns:xlink="http://www.w3.org/1999/xlink" width="400" height="196.852" viewBox="0 0 400 196.852">
  <defs>
    <clipPath id="clip-path">
      <rect id="Rect치ngulo_347620" data-name="Rect치ngulo 347620" width="273.359" height="193.499" fill="none"/>
    </clipPath>
  </defs>
  <g id="Grupo_1005669" data-name="Grupo 1005669" transform="translate(-180 -2655.148)">
    <rect id="Rect치ngulo_346916" data-name="Rect치ngulo 346916" width="210" height="187" transform="translate(180 2665)" fill="#4db1f0" opacity="0.33"/>
    <g id="Grupo_1005668" data-name="Grupo 1005668" transform="translate(202.044 2575.912)">
      <path id="Trazado_719624" data-name="Trazado 719624" d="M368.288,274.7s24.555-49.594,0-78.194-16.66-77.942-46.58-92.424-54.384,1.385-84.514-13.314c-43.265-21.109-65.637-9.074-78.542,3.194-18.361,17.456-9.123,32.559-39.512,44.322s-47.974,22.645-54.395,44.93c-6.093,21.148,19.235,34.719,3.16,55.364C54.322,256.02,70.29,274.7,70.29,274.7Z" transform="translate(-1.926)" fill="#e5f7f9"/>
      <path id="Trazado_719625" data-name="Trazado 719625" d="M98.145,231.179s7.024-11.246,0-19S95.1,203.5,93.687,198.465s-5.515-4.107-3.847-8.275.77-10.884-1.8-13.547-9.235-10.978-8.209-1.842-.128,15.367-3.462,16.941.513,4.7,0,9.564-9.619,2.879-6.669,10.876,8.208,8.887,5,14.985-3.128,9.814-.089,16.929S81.5,260.3,84.2,262.759s4.233,4.082,4.233,4.082Z" transform="translate(-3.139 -16.565)" fill="#567f21"/>
      <path id="Trazado_719626" data-name="Trazado 719626" d="M100.026,260.108s5.638-8.622,0-14.564-2.447-6.658-3.58-10.517-4.426-3.148-3.088-6.344.618-8.344-1.441-10.386-7.412-8.416-6.588-1.411-.1,11.781-2.78,12.988.412,3.6,0,7.332-7.721,2.208-5.353,8.339,6.588,6.813,4.014,11.487-2.51,7.524-.071,12.979,5.527,12.422,7.69,14.309,3.4,3.129,3.4,3.129Z" transform="translate(-4.518 -24.371)" fill="#6ea038"/>
      <g id="Grupo_1005650" data-name="Grupo 1005650" transform="translate(84.415 80.133)">
        <g id="Grupo_1005649" data-name="Grupo 1005649" clip-path="url(#clip-path)">
          <g id="Grupo_1005648" data-name="Grupo 1005648" transform="translate(2.488 41.567)">
            <path id="Trazado_719627" data-name="Trazado 719627" d="M363.055,265.285A134.223,134.223,0,0,1,212.7,398.5q-5.935-.69-11.686-1.919a132.457,132.457,0,0,1-24.357-7.637A134.393,134.393,0,0,1,96.343,244.068a132.663,132.663,0,0,1,7.006-26.342,134.313,134.313,0,0,1,107.829-85.468,131.631,131.631,0,0,1,14.144-1.1c1.183-.039,2.353-.052,3.536-.052a134.1,134.1,0,0,1,134.2,134.184Z" transform="translate(-94.674 -131.101)" fill="#46b2d3"/>
            <path id="Trazado_719628" data-name="Trazado 719628" d="M295.255,420.5a134.471,134.471,0,0,1-73.27,11.764q-5.935-.69-11.686-1.919a132.457,132.457,0,0,1-24.357-7.637c1.262-7.4.92-14.63-3.878-17.943-11.725-8.11-21.584-2.392-20.926-16.09s9.793-2.339-.026-18.547-20.349-11.147-12.462-23.858,2.327-15.472,9.386-17.049,8.36,8.807,18.876,0,5.258-15.5,18.4-9.53,30.141-4.654,38.739,0,25.4,4.877,28.406,13.907,12.37,17.707,7.112,28.223,3.457,14.919-3.195,26.855S249,407.963,256.661,413.484s10.03,10.779,23.306,4.206C286.448,414.483,293.073,415.85,295.255,420.5Z" transform="translate(-103.957 -164.874)" fill="#5acbe5"/>
            <g id="Grupo_1005646" data-name="Grupo 1005646" transform="translate(1.669 0.052)">
              <path id="Trazado_719629" data-name="Trazado 719629" d="M203.292,170.9c-7.427-.29-11.857,6.428-18.863,14.17s-5.692,4.535-7.453,1.459-3.944-1.748-7.441,8.321-3.076,5.7-9.28,4.824-3,2.629-.906,15.341.986,9.2-7.782,20.151-3.51,5.258-9.635,17.536-6.139.433-15.708,7.887-11.029,5.692-13.658,0-13.579-3.51-14.012-12.054c-.237-4.574-.855-4.85-1.841-4.456a132.663,132.663,0,0,1,7.006-26.342,134.313,134.313,0,0,1,107.829-85.468,131.631,131.631,0,0,1,14.144-1.1c-5.14,3.943-2.616,11.883-4.89,18.166-3.509,9.688-9.648,4.785-8.544,11.462S210.719,171.2,203.292,170.9Z" transform="translate(-96.713 -131.165)" fill="#5acbe5"/>
              <path id="Trazado_719630" data-name="Trazado 719630" d="M376.564,215.2c-4.8,1.289-10.214-16.6-13.277-8.82-3.812,9.7,5.35,12.712,7.282,24.108s-3.246,7.007-.906,19.494-.145,11.173-4.18,27.709-7.8,9.32-13.933,7.191-6.573,7.821-18.4,20.7-10.069-2.365-19.993-1.143-18.995,14.985-25.935,9.517-3.575-9.859-1.5-20.651,10.188-6.743,13.934-11.449-2.748-9.2-12.435-8.44-23.74-7.44-19.336-6.677,14-7.782,12.987-15.025-16.51-9.845-22.649-16.851-8.321,3.509-16.182,2.629-4.4-4.824-13.171-5.613,3.51-8.846,11.4-19.783,11.384-12.29,27.618-18.863,6.112-5.692,16.195-10.766,2.2-7.637,5.692-13.329,6.138-8.768,12.618-2.787,9.293,4.1,14.551-.644-.433-8.4-7.9-14.933c-3.812-3.339-8.084-7.742-14.854-11.647a133.816,133.816,0,0,1,55.2,34.637A134.291,134.291,0,0,1,376.564,215.2Z" transform="translate(-120.118 -132.608)" fill="#5acbe5"/>
            </g>
            <path id="Trazado_719631" data-name="Trazado 719631" d="M211.942,147.565c-3.944.657-3.944.657-6.573,4.6s-1.643.657-4.93,2.957a16.69,16.69,0,0,1-10.844,2.629c-3.286-.328-.986-1.972,1.314-4.271s.987-7.888,0-9.859-8.873,5.258-9.858,6.573,7.229,1.314,5.915,2.3a15.963,15.963,0,0,0-5.586,6.9c-1.643,3.944-1.315,3.944-6.547,7.676s-.355,2.183-.026,5.8-1.972,1.643-6.2,1.643-3,1.972-1.354,2.629,3.32,4.26,1.348,7.546c-.1.183-1.2,4.266-1.334,4.45-2.089,3.1-6.023,3.853-8.81,6.639-2.958,2.958-5.007-4.5-2.707-7.462.5-.631-1.416-1.1-1.087-1.775.5-1.012,1.584-2.733,1.532-3.719,0,0,.725-2.315-1.1-3.38-3.943-2.3,2.958-6.244,2.958-10.844s-11.5,2.3-16.1,5.915-2.957,0-6.572,0-1.315,4.929,0,9.2,10.187-1.972,14.131-3.615,1.643,6.9-1.972,11.831-.657,3.615,2.957,7.229,1.314,1.972,1.972,5.587.329,5.586-2.3,8.215.328,5.915,0,11.831-3.286,4.272-8.544,11.344-.657,9.359-3.615,11.66-6.9-.328-11.831,3.286-5.258,6.9-10.845,6.572-6.244-5.915-5.258-8.873-3.615-4.6-3.943-7.558,9.2-4.272,9.2-7.559-4.929-1.643-7.558-2.958.328-2.3,1.643-5.258c.749-1.683-1.8-4.956-4.141-7.466q1.262-3.332,2.7-6.56a133.861,133.861,0,0,1,25.645-38.409c.657-.7,1.328-1.393,2-2.063A133.7,133.7,0,0,1,213.1,132.514a11.115,11.115,0,0,0-.829,3.878,4.847,4.847,0,0,0,1.538,3.68,8.628,8.628,0,0,1,2.3,3.208C217.318,146.565,215.885,146.907,211.942,147.565Z" transform="translate(-96.595 -131.357)" fill="#359d9e"/>
            <path id="Trazado_719632" data-name="Trazado 719632" d="M362.916,255.124c2.629,3.943,0,0-1.972,6.244s0,0,1.2,3.943.775,2.958-1.63,4.6-6.139-1.643-6.927-10.188-2.169-3.615-1.971,3.286-.2,6.9-2.314,12.159-3.142,4.929-5.442,12.882-7.558,7.492-14.722,8.426-3.024-.276-10.819,3.01-2.392,4.6-8.584,4.968-5.31-1.353-7.939,3.155-8.544,6.993-11.5,5.35-.329-1.643,2.629-3.194.328-2.721,1.972-8.36,3.615-3.234,8.347-4.93,4.8-.605,6.493-4.469-.71-5.008,0-8.807,4.22-.8,8.492,2.485,0,0,.092,4.272,3.523,1.314,7.467-3.944,3.615-8.544,2.931-14.367-7.861-1.078-13.119-1.735.657-3.286-2.958-3.944-7.229,6.244-12.146,9.858-6.257-2.629-7.9-7.558,5.587-7.23,3.944-9.859-5.587-6.244-6.244-10.516-4.93-4.6-9.2-7.887c-2.274-1.748-.815-4.443,1.051-7.322,1.617-2.51,3.549-5.165,3.549-7.466a1.072,1.072,0,0,0-.013-.21c-.184-4.469-6.585,3.589-8.531,9.741-1.971,6.244-10.187-3.943-11.83-7.887s7.887-4.93,10.516-8.544,4.272,0,6.573-2.3-5.259-4.271-10.845-3.286-6.244,7.558-10.516,8.544-2.629,0-7.006,5.259-9.754,5.586-8.11,2.3,11.173-9.2,12.816-16.1,9.2-6.9,16.431-12.817S283.39,198.6,287,194.328s3.943-2.629,6.244-1.314,3.286,6.244,5.915,10.844-1.315,10.845,1.327,14.46,3.273-3.615,7.546-10.516,3.944-6.9,2.957-11.331-2.3-1.814-7.755,0-4.732-4.114-2.748-10.358,11.489-2.957,16.747-2.957c.906,0,1.6-.026,2.143-.079a2.912,2.912,0,0,0,2.169-.906,31.085,31.085,0,0,1,3.246-3.616c4.272-3.943,2.629-4.929,3.616-9.53.459-2.156.42-7.071-.237-12.4q2.8,1.775,5.481,3.694a131.45,131.45,0,0,1,13.657,11.068c1.932,1.788,3.825,3.641,5.653,5.547a15.684,15.684,0,0,0-1.354,9.833c1.524,8.873,1.446,5.258-.539,9.2s-1.63,4.6,3.956,9.859,1.643,4.929,5.481,12.817,2.405,12.159,3.51,18.4-.447,9.858-3.733,14.131S360.287,251.18,362.916,255.124Z" transform="translate(-122.035 -135.728)" fill="#359d9e"/>
            <path id="Trazado_719633" data-name="Trazado 719633" d="M279.1,176.244c0,.461,2.15,10.444-1.536,12.287s-3.993,1.69-7.372,4.3-3.686-.922-8.14,1.689-7.679,4.761-7.986,0,2.611-4.3,4.607-9.369,3.84-4.454,1.69-6.6-2.611-.921-2.3-4.3,3.379-3.226-.614-6.451-8.294-3.072-7.065-4.915,11.774-2.457,14.565-3.532,1.561-4.2,4.018-5.246,3.379.332,6.144-1.511,3.225-3.225,6.6-1.382,5.376-.922,7.219-2.918,5.222-1.843,5.682,1.843-2.611,4.915,2.458,6.143,6.6,1.69,6.6,4.147,2.3,4.3-1.382,6.451-7.987,1.075-9.216,3.379-.768,7.525-5.836,6.45A22.144,22.144,0,0,0,279.1,176.244Z" transform="translate(-122.858 -133.986)" fill="#359d9e"/>
            <path id="Trazado_719634" data-name="Trazado 719634" d="M203.263,173.378s-2.3-1.1-4.6,4.162-2.519,11.94,1.205,9.53,4.272-2.739,4.82-5.587,1.314-5.367,2.957-6.572,2.629,2.081,4.382-.11.11-2.957,3.067-2.191,6.025.269,5.587-1.782-.877-3.038-3.068-3.146-5.367-1.1-7.01.986-1.972,3.177-3.615,3.4A13.915,13.915,0,0,0,203.263,173.378Z" transform="translate(-113.22 -137.672)" fill="#359d9e"/>
            <path id="Trazado_719635" data-name="Trazado 719635" d="M268.17,345.233c-2.471,2.445-5.534,3.273-4.416,5.56,1.131,2.314-4.4,30.076-4.4,37.28s-16.326,8.715-17.969,15.708-5.586,5.034-9.53,10.779-6.244,7.138-7.229,10.555c-.92,3.169,2.721,5.561.052,9.767q-5.935-.69-11.686-1.919a8.074,8.074,0,0,1,.946-2.471c2.143-3.286-10.674-6.573-5.416-9.688s6.415-3.5,3.615-4.705-11.5,5.81-13.316,0,2.971-4.838,6.415-5.982-5.415-.986-8.544-4.772.815-3.943-4.6-5.087-3.444-.986-5.258-5.429-1.157-7.229-6.415-9.517c-5.258-2.313-11-.749-9.359-5.718s1.814-8.084-1.472-10.555-2.629-3.615-1-7.729c1.656-4.1-2.945-7.927-5.416-12.422s-3.615-10.083-.815-8.768a11.037,11.037,0,0,0,8.544.657c2.945-.986,8.7,4.443,13.146,3.944s6.231-4.443,9.359-1.643,5.415,5.915,6.415,3.286c.973-2.629-1.972-11,2.287-10.03,4.285,1,16.931,2.8,20.717-1.144s6.073-2.458,10.516,0,8.373,2.458,11.66-.828,7.4-3.6,9.373.5,1.972,6.585,7.716,6.665S270.629,342.775,268.17,345.233Z" transform="translate(-106.645 -167.488)" fill="#359d9e"/>
            <path id="Trazado_719636" data-name="Trazado 719636" d="M284.071,314.285s-1.015.657-3.644,0-3.177,2.3-5.149,1.752-4.053-3.4-.766-5.7,4.71-2.739,7.339-.548S284.071,314.285,284.071,314.285Z" transform="translate(-126.96 -163.232)" fill="#b4ed48"/>
            <path id="Trazado_719637" data-name="Trazado 719637" d="M292.185,314.643c-.736-.109-4.9-.486-3.693-2.708a3.989,3.989,0,0,1,4.71-2.112c1.643.328,1.972-.219,3.615-1.205s1.205.11,2.957,0,1.205-2.52,3.615-1.753,5.4,1.205,4.837,3.286-1,3.067-2.317,3.4-.877-.548-2.629,1.753-3.417,3.286-5,1.643-2.125-1.507-3.44-1.137S292.185,314.643,292.185,314.643Z" transform="translate(-129.766 -162.933)" fill="#b4ed48"/>
            <g id="Grupo_1005647" data-name="Grupo 1005647" transform="translate(11.371 1.157)">
              <path id="Trazado_719638" data-name="Trazado 719638" d="M145.565,210.754c4.009,5.258,2.892,6.573,0,11.5s-2.038,5.258-.395,11.5-1.972,4.6-8.215,10.187-.329,8.216-6.245,7.23-16.1,9.2-15.116,5.915-1.643-3.615,3.615-7.887,4.272-7.229-2.957-9.556-4.272-5.56-2.629-12.461c.591-2.5-1.788-4.824-5.061-6.8a133.862,133.862,0,0,1,25.645-38.409c-.617,1.551-1.038,4.115-1.524,8.255-1.315,11.344,13.473,5.074,9.53,9.346S141.555,205.5,145.565,210.754Z" transform="translate(-108.562 -141.48)" fill="#b4ed48"/>
              <path id="Trazado_719639" data-name="Trazado 719639" d="M218.987,136.392a11.115,11.115,0,0,1,.829-3.878,133.7,133.7,0,0,0-77.489,38.436,12.922,12.922,0,0,1,4.364.2c5.692.737,19.836-11.37,20.927-6.638s-4.825,9.674-3.839,11.646,2.682,2.13.684,7.138v.014a9.528,9.528,0,0,0-.736,3.036c-.155,2.252.729,3.765.994,5.776a.825.825,0,0,0,1.384.495c1.315-1.228,2.762-2.5,4.1-3.8a6.965,6.965,0,0,0,1.393-7.984c-1.421-2.995-2.387-5.583-1.574-6.918,1.643-2.681,5.652-1.183,6.112-2.761s-5.784-.1,2.761-7.742,13.473-8.426,9.53-11.147-3.773-6.546,1.38-10.279,14.393-2.3,12.422,2.958-4.062,14.459.276,10.187,1.7-3.286,6.954-6.244,7.559,1.17,9.2-3.943a28.025,28.025,0,0,1,1.866-4.864A4.849,4.849,0,0,1,218.987,136.392Z" transform="translate(-114.682 -132.514)" fill="#b4ed48"/>
              <path id="Trazado_719640" data-name="Trazado 719640" d="M364.166,257.69c2.3,3.181-1.209,1.433-3.944,5.481s-.118-2.405-.657-6.467-2.852-4.706-5.376-7.887-1.2,2.419-4.14,9.2-.237,12.488-.014,13.8-1.971,7.125-6.033,11.173.657.986-2.51,7.676-4.93,1.42-9.425,3.286-8.873,4.049-11.344,3.943-1.144,1.42-4,3-3.72.5-6.244,0,1.972-1.906,3.733-3.6,4.049-6.625,5.587-5.206.867,1.538,3.825,2.957,16.326-16.43,14.341-21.032.013-15.774-2.694-15.445-9.78,6.245-16.681,5.915-4.93-.986-9.61,1.972-5.836,4.6-10.436,4.272,2.629-6.573,4.271-13.146-4.6-6.572-4.271-9.53-1.972-4.272-10.109-7.887c-2.983-1.327-3.168-3.851-2.314-6.665a55.007,55.007,0,0,1,3.536-7.676c1.039-2.1,1.682-3.838,1-4.719-2.3-2.957-14.131,10.517-13.158,5.915s11.186-7.558,13.158-12.974-3.615-4.443-13.158-3.128-12.474,4.6-7.545,0,8.544-4.93,13.2-7.23,7.177-.986,13.421-3.4-2.3,7.676,1.972,16.878,3.943,10.516,8.11,6.9,5.691-9.859,9.307-14.46,1.642-13.473,0-16.76-6.9-1.972-3.944-4.351c1.722-1.393,6.769-2.8,11.344-4.6.736-.289,1.472-.591,2.169-.906,2.405-1.078,4.483-2.288,5.547-3.694,3.286-4.351,8.2-11.738,6.56-18.153A131.45,131.45,0,0,1,351.3,172.208a20.326,20.326,0,0,0-.5,4.207c.065,4.732-7.007,10.516-3.51,15.34s-1.525,5.258-3.5,9.636,7.23.88,9.2,9.2,6.349,4.378,9.2,10.95,5.337,12.028,1.315,20.375S361.865,254.521,364.166,257.69Z" transform="translate(-137.389 -137.703)" fill="#b4ed48"/>
            </g>
            <path id="Trazado_719641" data-name="Trazado 719641" d="M169.6,350.806s10.954,5.476,7.449,11.172,3.067,8.3,7.01,12.693-10.712,6.374,2.312,10.424,17.638,7.39,17.522,10.759-8.2,2.467,0,6.423,13.33,8.505,11.864,10.612-.113-1.926.744,5.129.857,17.106,4.8,9.013,7.5-6.236,10.541-14.393-4.054-6.994,6.5-13.273S254.6,395,255.917,385.283s8.772-3.15,5.043-16.295-6.358-13.145-5.043-17.527-1.534-8.144-15.665-8.015-15.007-2.326-20.265,0-5.7,10.508-9.64,10.577-7.887,1.276-14.9-1.956-5.7-3.287-12.707,0S169.6,350.806,169.6,350.806Z" transform="translate(-108.255 -169.409)" fill="#d1f47a"/>
            <path id="Trazado_719642" data-name="Trazado 719642" d="M287.177,155.673s-6.144,2.807-10.444,5.179-3.686,10.3-6.758,10.174-7.987-10.036-5.222,1.832-10.751,20.161.922,15.861,8.023,2.861,13.533-6.556,3.054-7.943,9.2-11.137,7.68-5.959,7.68-8.417S287.177,155.673,287.177,155.673Z" transform="translate(-124.795 -135.555)" fill="#b4ed48"/>
          </g>
        </g>
      </g>
      <path id="Trazado_719643" data-name="Trazado 719643" d="M191,283.968c0,1.531-8.905,2.773-19.891,2.773s-19.89-1.242-19.89-2.773,8.905-2.773,19.89-2.773S191,282.436,191,283.968Z" transform="translate(-18.021 -36.607)" fill="#191919" opacity="0.21"/>
      <ellipse id="Elipse_8537" data-name="Elipse 8537" cx="34.393" cy="7.808" rx="34.393" ry="7.808" transform="translate(266.827 207.925)" fill="#191919" opacity="0.21"/>
      <ellipse id="Elipse_8538" data-name="Elipse 8538" cx="32.39" cy="5.314" rx="32.39" ry="5.314" transform="translate(180.284 155.612)" fill="#191919" opacity="0.21"/>
      <path id="Trazado_719644" data-name="Trazado 719644" d="M109.539,307.1s-9.426-24.266-2.308-27.677,8.079,19.617,11.35,16.471-11.927-25.979-2.5-30.433,14.858,8.659,13.874,17.781-1.754,11.439,4.787,4.8,8.119-10.457,12.235-4.8.379,8.544-4.2,10.276-7.27,6.541-1.883,5.964,6.817-7.6,15.24-3.221-.74,10.96-.74,10.96Z" transform="translate(-9.565 -33.594)" fill="#80b54d"/>
      <path id="Trazado_719645" data-name="Trazado 719645" d="M127.78,303.32c.164,1.931.272,3.866.351,5.8h.878c-.114-1.959-.256-3.917-.456-5.869q-.5-5.3-1.285-10.558c-1.038-7.013-2.366-13.98-4.082-20.858a.118.118,0,0,0-.141-.084.116.116,0,0,0-.083.141c1.594,6.891,2.8,13.873,3.716,20.883Q127.375,298.033,127.78,303.32Z" transform="translate(-12.898 -34.895)" fill="#567f21"/>
      <path id="Trazado_719646" data-name="Trazado 719646" d="M148.406,291.777a.1.1,0,0,0-.14-.042,27.027,27.027,0,0,0-6.3,4.952,45.128,45.128,0,0,0-5.025,6.258l-1.1,1.686c-.348.572-.672,1.158-1.01,1.738-.7,1.146-1.254,2.367-1.872,3.557-.454.924-.859,1.872-1.271,2.816h.91c.34-.835.679-1.671,1.058-2.489.581-1.188,1.1-2.41,1.766-3.557.32-.58.626-1.168.957-1.741l1.044-1.691a44.639,44.639,0,0,1,4.823-6.3,26.8,26.8,0,0,1,6.1-5.039l.01-.006A.1.1,0,0,0,148.406,291.777Z" transform="translate(-14.481 -38.516)" fill="#567f21"/>
      <path id="Trazado_719647" data-name="Trazado 719647" d="M121.016,312.646h.862c-.281-.308-.564-.615-.837-.928a51.143,51.143,0,0,1-4.65-6.25,52.713,52.713,0,0,1-3.69-6.874c-.567-1.174-1-2.4-1.478-3.618s-.813-2.477-1.225-3.714l0-.007a.092.092,0,0,0-.175.056c.39,1.249.719,2.519,1.159,3.752.456,1.227.869,2.473,1.417,3.664a53.146,53.146,0,0,0,3.586,7,51.676,51.676,0,0,0,4.58,6.4C120.711,312.3,120.866,312.472,121.016,312.646Z" transform="translate(-10.516 -38.419)" fill="#567f21"/>
      <path id="Trazado_719648" data-name="Trazado 719648" d="M157.193,309.495a18.5,18.5,0,0,0-3.548.376c-1.168.21-2.316.51-3.457.834a49.065,49.065,0,0,0-6.637,2.53c-1.812.808-3.557,1.75-5.283,2.729h1.278c1.384-.8,2.786-1.564,4.234-2.24a48.7,48.7,0,0,1,6.529-2.622c1.122-.34,2.253-.657,3.4-.884a18.32,18.32,0,0,1,3.469-.431h.013a.146.146,0,0,0,0-.292Z" transform="translate(-15.673 -41.737)" fill="#567f21"/>
      <path id="Trazado_719649" data-name="Trazado 719649" d="M414.132,272.161s8.918-23.194,3.433-44-9.789-22.119-9.817-36.083,4.076-17.259,4.076-13.944a60.445,60.445,0,0,0,7.524,33.818c9.148,16.437,9.172,29.179,5.455,43.261s-4,20.343-4,20.343Z" transform="translate(-64.519 -17.711)" fill="#567f21"/>
      <path id="Trazado_719650" data-name="Trazado 719650" d="M424.24,274.043s-6.669-18.816,5.9-34.791,9.235-48.732,10.26-44.921,8.977,17.632,0,38.937-11.141,10.841-11.6,40.055Z" transform="translate(-67.188 -20.807)" fill="#6ea038"/>
      <path id="Trazado_719651" data-name="Trazado 719651" d="M300.961,310.01a19.782,19.782,0,0,1,7.694-14.064c7.6-6.059,10.965-15.351,10.965-15.351s1.321,15.231.323,22.337l-1,7.1Z" transform="translate(-45.163 -36.499)" fill="#359d9e"/>
      <g id="Grupo_1005651" data-name="Grupo 1005651" transform="translate(193.288 218.618)">
        <path id="Trazado_719652" data-name="Trazado 719652" d="M254.85,307.392c-.1-.122-9.858-12.993-11.385-24.582a120.2,120.2,0,0,1-.958-12.09c-.142-3.694-.237-6.135-1.211-8.641l.359-.14c1,2.566,1.093,5.033,1.237,8.765.117,3.032.517,6.813,1.21,12.065,1.514,11.481,11.244,23.189,11.34,23.31Z" transform="translate(-227.636 -251.735)" fill="#567f21"/>
        <path id="Trazado_719653" data-name="Trazado 719653" d="M242,268.436s-5.443-6.824-3.991-13.863,5.416-5.684,6.8-2.514C248.071,259.489,242,268.436,242,268.436Z" transform="translate(-226.997 -249.476)" fill="#abdd7f"/>
        <path id="Trazado_719654" data-name="Trazado 719654" d="M239.257,280.056s-6.624-6.715-10.6-6.174c-3.211.437-1.4,4.52,3.236,5.376A40.406,40.406,0,0,0,239.257,280.056Z" transform="translate(-225.052 -253.894)" fill="#abdd7f"/>
        <path id="Trazado_719655" data-name="Trazado 719655" d="M245.454,283.673s3.41-11.063,7.788-8.424C256.958,277.489,250.862,283.614,245.454,283.673Z" transform="translate(-228.39 -254.074)" fill="#abdd7f"/>
        <path id="Trazado_719656" data-name="Trazado 719656" d="M240.786,293.53s-12.416-6.359-15.57-2.258C221.846,295.653,233.342,297.433,240.786,293.53Z" transform="translate(-224.612 -256.802)" fill="#abdd7f"/>
      </g>
      <g id="Grupo_1005656" data-name="Grupo 1005656" transform="translate(253.521 130.219)">
        <path id="Trazado_719657" data-name="Trazado 719657" d="M337.095,237.915c-.192,2.5-4.14,1.154-6.733,2.5s-6.349,1.538-7.21.431,5.287-4.763,6.633-6.394a4.1,4.1,0,0,0,.047-2.37c-.855-5.879-5.533-20.508-6.01-25.039-.354-3.355,2.925-3.978,5.526-3.955a41,41,0,0,0,4.336-.329l.427,1.307a17.947,17.947,0,0,0-1.377,12.112,118.082,118.082,0,0,1,2.439,15.582C335.463,234.645,337.287,235.413,337.095,237.915Z" transform="translate(-302.691 -152.609)" fill="#ffbf9f"/>
        <path id="Trazado_719658" data-name="Trazado 719658" d="M329.992,232.155c-.855-5.879-5.533-20.508-6.01-25.039-.354-3.355,2.925-3.978,5.526-3.955-1.2,2.162-2.586,5.033-2.509,6.679C327.1,212.171,331.384,225.845,329.992,232.155Z" transform="translate(-302.852 -152.681)" fill="#ed8772" opacity="0.42"/>
        <path id="Trazado_719659" data-name="Trazado 719659" d="M345.661,231.552s-7.022,12.23-1.059,13.674,13.659-.866,24.143-4.618,12.024-4.328,15.294-2.6,9.234,1.539,4.521-2.02-4.233-7.214-5.868-6.637-3.655,2.789-6.444,3.559-4.809-1.539-15.967,1.923l-3.847,1.154Z" transform="translate(-306.159 -157.419)" fill="#ffbf9f"/>
        <g id="Grupo_1005652" data-name="Grupo 1005652" transform="translate(28.922 49.304)">
          <path id="Trazado_719660" data-name="Trazado 719660" d="M334.277,203.2s-.485-1.732,3.555-1.347,7.791,1.154,9.33,1.347a16.263,16.263,0,0,0,3.27,0s5.676-1.843,8.465-1.4-6.926,14.291-8.85,15.35-15.422-1.154-15.422-1.154-1.506-7.022-1.026-9.234S334.277,203.2,334.277,203.2Z" transform="translate(-333.505 -201.726)" fill="#2a2a5b"/>
        </g>
        <g id="Grupo_1005653" data-name="Grupo 1005653" transform="translate(37.561 46.061)">
          <path id="Trazado_719661" data-name="Trazado 719661" d="M369.178,199.112a11.376,11.376,0,0,1,2.4,13.178c-3.655,7.791-10.965,16.832-10.965,16.832l-3.847,1.154s-14.621-.77-12.5-4.04,13.219-24.093,18.179-27.125S369.178,199.112,369.178,199.112Z" transform="translate(-344.056 -197.764)" fill="#3d3d7f"/>
        </g>
        <path id="Trazado_719662" data-name="Trazado 719662" d="M329.405,183.271s-3.655,14.108-5.643,17.314-9.747,15.9-10.9,18.083-1.6,4.1-2.052,2.18-.706-1.8-1.86-.9-3.975,3.655-4.232,2.437,3.271-3.014,4.745-5.322,4.3-9.683,6.541-13.21,3.847-6.028,4.168-7.053,3.655-16.381,3.655-16.381Z" transform="translate(-299.363 -148.559)" fill="#ffbf9f"/>
        <path id="Trazado_719663" data-name="Trazado 719663" d="M318.061,152.556s-3.72,1.282-4.1-2.116,3.848-3.462,7.888-7.311,13.53-.962,11.863,9.811S318.061,152.556,318.061,152.556Z" transform="translate(-301.035 -141.506)" fill="#1c2b49"/>
        <g id="Grupo_1005654" data-name="Grupo 1005654" transform="translate(17.026 9.745)">
          <path id="Trazado_719664" data-name="Trazado 719664" d="M318.975,154.713s3.847,9.49,8.208,10.26,4.938,3.72,9.683.577.7-8.08.7-8.08-.513.321-1.732-1.026l-1.218-1.347s-.32,2.63-1.154,1.6-2.179-4.361-2.949-2.95.833,2.885-.192,2.564a27.54,27.54,0,0,1-4.424-2.564C324.618,152.918,318.975,154.713,318.975,154.713Z" transform="translate(-318.975 -153.408)" fill="#ffbf9f"/>
        </g>
        <path id="Trazado_719665" data-name="Trazado 719665" d="M336.193,163.749a21.082,21.082,0,0,0,0-2.668,22.4,22.4,0,0,1,0-2.747s3.171,4.306,1.346,6.891S336.193,163.749,336.193,163.749Z" transform="translate(-305.06 -144.556)" fill="#ed8772"/>
        <path id="Trazado_719666" data-name="Trazado 719666" d="M367.066,192.672a10.709,10.709,0,0,1-3.425,1.792,24.868,24.868,0,0,1-5.1,1.347,35.845,35.845,0,0,1-9.942-.446s0-.084-.016-.254c-.069-.862-.6-3.948-4.532-8.788-4.686-5.771-8.6-10.265-8.6-10.265s-.446,2.9-1.654,3.855a1.218,1.218,0,0,1-1.1.254c-2.055-.516-7.249-1.67-7-3.655s2.694-10.65,2.694-10.65a5.919,5.919,0,0,0,3.147.323c1.347-.385,2.755-2.44,2.755-2.44s.576.07.323,1.347.893,2.247,2.047.962,1.609-3.271,1.994-4.933a6.6,6.6,0,0,0,.123-2.762s3.016-.061,6.156,0,4.216.277,5.879,2.185a17.172,17.172,0,0,1,2.647,5.087c.293.793.524,1.5.708,2.031.577,1.662,8.08,11.35,10.519,17.375.854,2.116,1.47,3.6,1.877,4.671C367.327,191.7,367.4,192.249,367.066,192.672Z" transform="translate(-303.168 -144.556)" fill="#ed2e53"/>
        <path id="Trazado_719667" data-name="Trazado 719667" d="M337.041,179.288s-.446,2.9-1.654,3.855l-.939-7Z" transform="translate(-304.754 -147.785)" fill="#c4234a"/>
        <path id="Trazado_719668" data-name="Trazado 719668" d="M370.6,191.325a9.076,9.076,0,0,0-2.932,4.755,24.869,24.869,0,0,1-5.1,1.347,35.845,35.845,0,0,1-9.942-.446s0-.084-.016-.254c2.893-2.031,7.618-6.048,6.5-10.012-1.6-5.625-11.2-18-11.2-18a86.737,86.737,0,0,1,9.587-1.47c.293.793.524,1.5.708,2.031.577,1.662,8.08,11.35,10.519,17.375C369.576,188.771,370.191,190.256,370.6,191.325Z" transform="translate(-307.194 -146.172)" fill="#c4234a"/>
        <path id="Trazado_719669" data-name="Trazado 719669" d="M354.52,175.028s8.946,10.773,8.657,11.927-5.194,19.911-6.83,22.027-5.1,5.771-2.6,6.732,3.078,1.059,3.559-.576,1.732-.866,1.924-3.078.962-2.116,1.732-3.751,9.234-16.448,8.656-21.161a52.4,52.4,0,0,0-4.232-8.622C362.7,174.163,360,169.97,360,169.97Z" transform="translate(-308.093 -146.665)" fill="#ffbf9f"/>
        <path id="Trazado_719670" data-name="Trazado 719670" d="M360.738,168.758c-.385,1.085-6.479,5.964-6.925,5.964s-10.581-7.187-3.725-13.274c.892-.791,2.516-1.619,3.732-1.213,1.1.368,2.139,1.978,2.893,2.816.988,1.1,1.966,2.218,2.848,3.406C359.9,166.92,360.973,168.092,360.738,168.758Z" transform="translate(-307.159 -144.881)" fill="#ff507a"/>
        <path id="Trazado_719671" data-name="Trazado 719671" d="M312.492,236.216l-2.218,1.67a8.64,8.64,0,0,0-2.781,3.911,9.268,9.268,0,0,0-.994-1.912,14.779,14.779,0,0,0-4.051-4.257l-.2.33a14.714,14.714,0,0,1,3.932,4.144,8.7,8.7,0,0,1,1.461,5.948l.378.071a8.47,8.47,0,0,0-.319-3.717,8.531,8.531,0,0,1,2.805-4.21l2.218-1.67Z" transform="translate(-298.918 -158.567)" fill="#567f21"/>
        <g id="Grupo_1005655" data-name="Grupo 1005655" transform="translate(0 74.899)">
          <path id="Trazado_719672" data-name="Trazado 719672" d="M302.93,236.1a2.974,2.974,0,0,0-2.249-2.645c-2.18-.609-2.5-.449-2.5-.449s.609,2.276,1.988,3.094A2.874,2.874,0,0,0,302.93,236.1Z" transform="translate(-298.18 -232.987)" fill="#80b54d"/>
          <path id="Trazado_719673" data-name="Trazado 719673" d="M312.278,237.894s-1.2-1.752,1.622-2.99,3.431-.886,3.431-.886-.381,2.409-1.794,3.336A4.822,4.822,0,0,1,312.278,237.894Z" transform="translate(-300.689 -233.165)" fill="#80b54d"/>
        </g>
        <path id="Trazado_719674" data-name="Trazado 719674" d="M303.154,249.159a8.175,8.175,0,0,1,4.905-1.346c3.239,0,4.329,1.346,4.329,1.346Z" transform="translate(-299.082 -160.775)" fill="#a58859"/>
      </g>
      <g id="Grupo_1005659" data-name="Grupo 1005659" transform="translate(184.373 80.249)">
        <path id="Trazado_719675" data-name="Trazado 719675" d="M224.694,171.795a2.964,2.964,0,0,1-2.645-.385c-1.394-.914-2.837-.673-4.569,1.3s-4.617,2.789-3.511,3.463,4.04.337,5.626-1.01,5.771-.673,5.771-.673Z" transform="translate(-213.724 -96.864)" fill="#ffbf9f"/>
        <g id="Grupo_1005657" data-name="Grupo 1005657" transform="translate(21.464 49.825)">
          <path id="Trazado_719676" data-name="Trazado 719676" d="M247.77,141.33s13.178,7.758,12.7,14.411-8.753,10.309-8.753,10.309L239.94,141.33Z" transform="translate(-239.94 -141.33)" fill="#2a2a5b"/>
        </g>
        <path id="Trazado_719677" data-name="Trazado 719677" d="M265.208,142s-4.24-2.13-4.573,2.313.5,5.464-1.181,7.315-2.452,6.186-1.3,10.314,3.911,5.965,9.17,7.439,4.809,2.629,9.746,3.847,8.465-1.6,7.439-3.591-8.721-5.194-9.106-9.17-.129-5.579,2.18-5.514,3.206-1.6,1.859-5.13-6.861-6.384-10-6.943S265.208,142,265.208,142Z" transform="translate(-221.678 -91.534)" fill="#e6e6e6"/>
        <path id="Trazado_719678" data-name="Trazado 719678" d="M263.785,143.225a1.716,1.716,0,0,0-.726.918,1.571,1.571,0,0,0-.035,1.127c.319.773,1.34,1.066,2.077,1.224,3.895.833,6.2.256,8.768,3.206s4.04,4.809,5.387,3.847-1.678-5.146-4.233-7.311-6.732-2.792-8.273-3.095A4.429,4.429,0,0,0,263.785,143.225Z" transform="translate(-222.644 -91.794)" fill="#938c83"/>
        <g id="Grupo_1005658" data-name="Grupo 1005658" transform="translate(10.027 48.478)">
          <path id="Trazado_719679" data-name="Trazado 719679" d="M232.06,139.685s-2.789,7.7,2.309,13.563,9.436,9.811,8.469,10.581S226,164.982,226,166.041s-.385,4.04,1.635,4.232,15.967,2.308,21.643-.577,4.617-5.386,3.751-7.7-12.565-20.2-12.565-20.2Z" transform="translate(-225.971 -139.685)" fill="#3d3d7f"/>
        </g>
        <path id="Trazado_719680" data-name="Trazado 719680" d="M260.457,116.814s-1.539,9.483-.673,10.858,5.867,9.022,8.368,9.936,4.473,2.838,3.9,2.934-5.386-2.356-4.28-1.2-.884,1.491-1.933-.1-2.107-1.732-3.358-2.838-6.925-5.738-6.973-7.726-.962-6.606,1.25-10.212S260.457,116.814,260.457,116.814Z" transform="translate(-221.256 -86.965)" fill="#ffbf9f"/>
        <path id="Trazado_719681" data-name="Trazado 719681" d="M257.476,110.408c-.053,2.278-.084,3.485-.392,3.832h-.007a.18.18,0,0,1-.093.077c-.408.192-2.97,1.539-2.97,1.539a.023.023,0,0,0,.007.015,4.538,4.538,0,0,1-1.1,3.833c-1.6,1.793-3.293,7.248-3.793,9.811a14.908,14.908,0,0,0-.215,2.916c0,1.186-.008,2.132-.608,2.724-1.023,1.032-11.35,1.032-14.043.647a3.682,3.682,0,0,1-1.723-.6c-.855-.647-.67-1.678-.262-2.8.2-.57.562-1.793,1-3.286.338-1.139.731-2.44,1.146-3.717a40.226,40.226,0,0,1,1.763-4.671,24.125,24.125,0,0,0,1.993-5.386s-4.494-.77-3.917-1.985,1.669-5.579,4.617-7.118,7.118-1.923,9.365-1.023a2.675,2.675,0,0,0,3.363-1.346,3.746,3.746,0,0,1,3.309.677,4.549,4.549,0,0,1,1.57,2.593S257.538,107.907,257.476,110.408Z" transform="translate(-217.024 -84.691)" fill="#ed56a8"/>
        <path id="Trazado_719682" data-name="Trazado 719682" d="M248.857,100.843s1.539,4.617,5.386,4.232.433-4.633.433-4.633,1.683-1.475,3.174-.464,3.126-1.876,3.174-2.02.08-1.2.112-1.716.882-3.431.882-3.431,1.732-4.184.85-4.553-8.151-7.134-10.673-.5A64.4,64.4,0,0,0,248.857,100.843Z" transform="translate(-220.092 -81.268)" fill="#ffbf9f"/>
        <path id="Trazado_719683" data-name="Trazado 719683" d="M258.561,87.336s-4.328-1.86-6,2.052-2.308,4.649-1.859,7.631-3.4,3.142-3.367,4.233-1.058,3.4-2.116,2.244-4.009.641-5.066-2.758-2.5-5.194,1.25-6.669.545-5.77,3.848-8.24,3.879-5.867,8.3-5.29,6.253,2.116,6.862,4.232,1.347,1.507,1.411,3.335-2.18,4.777-2.116,6.957.449,2.6-.256,5.1-1.7,2.758-1.7,2.758a28.733,28.733,0,0,0-3.078-2.4,6.221,6.221,0,0,0-1.8-.866s.192-3.334,1.122-2.853,2.052,1.539,3.367,1.026,1.955-3.431,2.308-4.809,1.539-3.879.77-4.681A3.824,3.824,0,0,0,258.561,87.336Z" transform="translate(-218.301 -80.474)" fill="#1c2b49"/>
        <path id="Trazado_719684" data-name="Trazado 719684" d="M256.754,100.02l-2.18-1.747s-1.01,6.829,0,4.953S255.519,99.988,256.754,100.02Z" transform="translate(-221.047 -83.7)" fill="#ed8772"/>
        <path id="Trazado_719685" data-name="Trazado 719685" d="M242.954,115.328s-.065,2.5-.706,2.885a1.461,1.461,0,0,1-1.411-.129s-3.512,7.888-1.949,9.3,8.088,3.974,8.088,3.974-5.889-3.927-6.653-6.283.321-6.091,1.347-6.091.994-.289,1.283-1.411A5.077,5.077,0,0,0,242.954,115.328Z" transform="translate(-218.213 -86.792)" fill="#bf3c8a"/>
        <path id="Trazado_719686" data-name="Trazado 719686" d="M249.046,137.226c0,1.186-.008,2.132-.608,2.724-1.023,1.032-11.35,1.032-14.043.647a3.682,3.682,0,0,1-1.723-.6,88.225,88.225,0,0,0,9.549-.785c1.931-.439-4.932-3.655-8.81-5.3.338-1.139.731-2.44,1.146-3.717Z" transform="translate(-217.158 -89.486)" fill="#bf3c8a"/>
        <path id="Trazado_719687" data-name="Trazado 719687" d="M255.167,140.214l-1.11,2.371-2.116,1.808s-.012.684,1.216.26c.267.717.559,1.325,1.167,1.24a1.937,1.937,0,0,0,1.18-.511c0-.11-.195-.5-.183-.535s.693-.3.693-.34.061-.39.061-.39a7.523,7.523,0,0,1,0-.912c.037-.048,1.727-1.154,1.727-1.154l1.471-1.962a7.538,7.538,0,0,0,.449-.8c0-.075-.1-.585-.851-.609s-1.095-.949-1.216-.949-1.078-.219-1.078-.219l-.26,1.24-.341.851-.811.025Z" transform="translate(-220.651 -90.813)" fill="#f15a24"/>
        <path id="Trazado_719688" data-name="Trazado 719688" d="M234.564,116.44s-4.1,10.888-2.243,12.363,16.929,8.336,18.276,8.529,1.09-.039,2.116,1.006.833,1.879,1.923,1.174,2.116-2.694.449-3.72-.9-.641-3.688-1.475-13.548-7.247-13.715-8.016,1.949-8.015,1.949-8.015Z" transform="translate(-217.007 -86.993)" fill="#ffbf9f"/>
        <path id="Trazado_719689" data-name="Trazado 719689" d="M261.859,116.34a.18.18,0,0,1-.093.077c-.408.192-2.97,1.539-2.97,1.539l-.477-2.632A6.761,6.761,0,0,0,261.859,116.34Z" transform="translate(-221.807 -86.791)" fill="#bf3c8a"/>
      </g>
      <g id="Grupo_1005666" data-name="Grupo 1005666" transform="translate(113.085 120.144)">
        <path id="Trazado_719690" data-name="Trazado 719690" d="M166.828,274.769s-.513,3.27,0,4.553.257,2.564-.9,2.949-9.939.962-9.555-.449,5.771-2.308,6.733-3.783a11.684,11.684,0,0,0,1.347-3.72Z" transform="translate(-132.038 -155.506)" fill="#ed8772"/>
        <path id="Trazado_719691" data-name="Trazado 719691" d="M185.547,274.869s1.411,3.655-.706,5.066-1.218,2.373,0,2.694,4.682.833,4.682-.77-.962-1.8-.9-3.335a20.058,20.058,0,0,1,.385-3.014Z" transform="translate(-136.97 -155.605)" fill="#ed8772"/>
        <g id="Grupo_1005660" data-name="Grupo 1005660" transform="translate(31.435 52.757)">
          <path id="Trazado_719692" data-name="Trazado 719692" d="M168.512,199.739s-2.295,35.781-2.549,44.759-1.926,16.544,0,16.8,2.439.769,3.081-.642,8.33-36.945,8.849-50.018.16-18.281-2.309-16.74A68.927,68.927,0,0,0,168.512,199.739Z" transform="translate(-165.048 -193.638)" fill="#2a2a5b"/>
        </g>
        <g id="Grupo_1005661" data-name="Grupo 1005661" transform="translate(42.552 47.828)">
          <path id="Trazado_719693" data-name="Trazado 719693" d="M187.792,187.618c0,.385,5.386,5.644,3.463,16.288s-4.361,19.879-4.1,22.957,2.449,16.544,2.251,23.214.186,10.388-1.353,10.644-3.72.129-4.233-.77-2.949-31.036-4.1-38.219-2.223-24.888,1.453-28.924S187.792,187.618,187.792,187.618Z" transform="translate(-178.625 -187.618)" fill="#3d3d7f"/>
        </g>
        <path id="Trazado_719694" data-name="Trazado 719694" d="M152.68,226.345c-.124-.313-2.992-7.711-.278-13.3a9.943,9.943,0,0,1,6.448-5.19,13.534,13.534,0,0,1,14.748,4.908c3,3.875,3.733,8.62,1.81,11.809l-1.318-.795c1.6-2.647.91-6.695-1.709-10.07a11.828,11.828,0,0,0-13.09-4.377,8.466,8.466,0,0,0-5.505,4.387c-2.422,4.993.3,12,.324,12.067Z" transform="translate(-131.109 -143.35)" fill="#fff"/>
        <path id="Trazado_719695" data-name="Trazado 719695" d="M151.76,182.1s.321,19.045.385,20.841-1.667,3.783,0,6.028,1.732,2.309,2.95.77,1.8-2.629.449-4.809-.9-5.45-.192-9.17,1.668-11.735.577-13.659S151.76,182.1,151.76,182.1Z" transform="translate(-131.142 -138.635)" fill="#ed8772"/>
        <g id="Grupo_1005662" data-name="Grupo 1005662" transform="translate(15.559 16.41)">
          <path id="Trazado_719696" data-name="Trazado 719696" d="M183.74,184.126c-1.331,1.393-9.234,6.01-14.559,7.934-2.378.854-4.24,1.177-4.771.438a16.457,16.457,0,0,1-1.562-3.647c-1.562-4.517-3.44-11.412-5.271-13.1-2.347-2.162-2.916-2.747-2.978-2.808l-.008-.008s1.354,4.071.677,4.171-4.809.57-5-.292-4.7-12.7-4.609-14.528,5.087-7.6,5.087-7.6l4.393-2.947s6.964-5.124,11.481-.7,7.6,14.228,11.827,20.092S185.665,182.109,183.74,184.126Z" transform="translate(-145.656 -149.244)" fill="#fcdc3f"/>
        </g>
        <path id="Trazado_719697" data-name="Trazado 719697" d="M133.274,144.978s3.078,7.631,5.515,10.132,3.783.9,5.066-.577,2.052-1.539,2.821-.77l.77.77s0,3.847,2.629,3.591,3.591-5.31,3.463-6.567-.641-1.321-.641-1.321-2.822.385-3.72-1.538-1.539-8.786-8.529-7.631S133.274,144.978,133.274,144.978Z" transform="translate(-127.853 -131.328)" fill="#ed8772"/>
        <path id="Trazado_719698" data-name="Trazado 719698" d="M133.121,142.851s-2.373-4.168,1.667-6.541,6.156-2.565,6.156-2.565-1.923-5.13,3.72-4.488,4.489,5.194,3.078,6.091a4.766,4.766,0,0,1-2.949.678s6.412,3.363,6.925,6.825-4.809,6.926-6.348,4.168-2.2-7.182-3.279-5.387-.248,2.565-1.595,2.758S137.353,145.16,133.121,142.851Z" transform="translate(-127.7 -129.201)" fill="#242754"/>
        <g id="Grupo_1005663" data-name="Grupo 1005663" transform="translate(20.17 33.077)">
          <path id="Trazado_719699" data-name="Trazado 719699" d="M156.29,180.8c-.677.093-4.809.57-5-.292,2.631-.323,3.655-2.308,2.247-4.617s-.707-6.287-.707-6.287.446,2.185.707,4.171a3.954,3.954,0,0,0,2.078,2.855S156.967,180.7,156.29,180.8Z" transform="translate(-151.288 -169.601)" fill="#ffc239"/>
        </g>
        <g id="Grupo_1005664" data-name="Grupo 1005664" transform="translate(32.351 31.069)">
          <path id="Trazado_719700" data-name="Trazado 719700" d="M177.162,188.048A20.323,20.323,0,0,0,172.9,195.3c-2.378.854-4.24,1.177-4.771.438a16.457,16.457,0,0,1-1.562-3.647,34.252,34.252,0,0,0,3.485-10.4c1.154-6.441-3.886-14.544-3.886-14.544l11.042,2.008a36.773,36.773,0,0,1,3.616,7.026C182.072,179.707,181.879,183.33,177.162,188.048Z" transform="translate(-166.166 -167.148)" fill="#ffc239"/>
        </g>
        <path id="Trazado_719701" data-name="Trazado 719701" d="M172.342,177.709a8.422,8.422,0,0,1,.77,3.591c-.192,1.475-6.8,16.737-7.888,17.634s-3.634,3.014-2.618,4.682,3.895,3.014,5.148,1.539.42-3.976.74-5.9,10.517-16.223,10.453-17.955-1.8-5.9-1.8-5.9Z" transform="translate(-133.127 -137.575)" fill="#ed8772"/>
        <g id="Grupo_1005665" data-name="Grupo 1005665" transform="translate(29.479 18.801)">
          <path id="Trazado_719702" data-name="Trazado 719702" d="M165.422,152.167a1.541,1.541,0,0,0-.487.087c-1.026.369-4.7,2.392.245,11.529,5.675,10.485,6.06,10.581,7.5,10.292s5.291-.77,5.579-2.02-5.312-15.583-7.8-17.891A7.274,7.274,0,0,0,165.422,152.167Z" transform="translate(-162.658 -152.165)" fill="#ffe269"/>
        </g>
        <path id="Trazado_719703" data-name="Trazado 719703" d="M160.376,241.5s-1.6,4.488-5.13,3.014-11.927-2.244-14.62-2.116a14.752,14.752,0,0,0-4.3.758l-.7,2.256a13.651,13.651,0,0,1,6.926-1.282c4.36.192,17.275,4.822,19.493,3.335a15.184,15.184,0,0,0,3.72-3.783Z" transform="translate(-128.279 -149.557)" fill="#fff"/>
        <path id="Trazado_719704" data-name="Trazado 719704" d="M136.7,241.28c.2.445-.384,1.6-.5,1.931l-1.231,3.606a1.132,1.132,0,0,1-.314.551.588.588,0,0,1-.85-.184,1.15,1.15,0,0,1,.068-.895q.792-2.181,1.583-4.362c.1-.28.746-.941,1.1-.791A.275.275,0,0,1,136.7,241.28Z" transform="translate(-127.938 -149.487)" fill="#fff"/>
        <path id="Trazado_719705" data-name="Trazado 719705" d="M184.184,230.225a16.856,16.856,0,0,1-3.062,9.619c-3.4,5.194-6.99,6.284-6.99,6.284s-1.86-6.028,0-10.2S184.184,230.225,184.184,230.225Z" transform="translate(-135.109 -147.513)" fill="#938c83"/>
        <path id="Trazado_719706" data-name="Trazado 719706" d="M180.358,227.63a70.616,70.616,0,0,0-7.51,7.433c-2.409,3.086-2.539,8.472-2.539,8.472l-1.878-1.354-16.074-11.6a5.841,5.841,0,0,1-.131-1.062,11.928,11.928,0,0,1,3.385-8.688c4.44-4.871,6.3-5.4,8.026-4.617S180.358,227.63,180.358,227.63Z" transform="translate(-131.286 -144.92)" fill="#fff"/>
        <path id="Trazado_719707" data-name="Trazado 719707" d="M180.358,227.63a70.616,70.616,0,0,0-7.51,7.433c-2.409,3.086-2.539,8.472-2.539,8.472l-1.878-1.354c-.553-6.695,7.272-17.537-3.447-19.053-7.872-1.116-11.373,3.516-12.758,6.394a11.928,11.928,0,0,1,3.385-8.688c4.44-4.871,6.3-5.4,8.026-4.617S180.358,227.63,180.358,227.63Z" transform="translate(-131.286 -144.92)" fill="#938c83" opacity="0.24"/>
        <path id="Trazado_719708" data-name="Trazado 719708" d="M133.571,245.325a3.877,3.877,0,0,0-1.9,3.1c-.249,2.3-2.255,1.83-1.977-.092A3.737,3.737,0,0,1,133.571,245.325Z" transform="translate(-127.198 -150.249)" fill="#359d9e"/>
        <path id="Trazado_719709" data-name="Trazado 719709" d="M133.417,243.41s-2.625-.573-2.939.591S132.141,243.668,133.417,243.41Z" transform="translate(-127.34 -149.877)" fill="#359d9e"/>
        <path id="Trazado_719710" data-name="Trazado 719710" d="M129.96,245.653s-1.787.6-2.139,1.595c-.254.721.591.7.869.027A5.51,5.51,0,0,1,129.96,245.653Z" transform="translate(-126.856 -150.309)" fill="#359d9e"/>
        <path id="Trazado_719711" data-name="Trazado 719711" d="M128.182,250.033a6.988,6.988,0,0,0,0,3.956c.648,2.07-1.214,2.642-1.479.665A5.752,5.752,0,0,1,128.182,250.033Z" transform="translate(-126.653 -151.103)" fill="#359d9e"/>
      </g>
      <path id="Trazado_719712" data-name="Trazado 719712" d="M255.634,310.01s-10.644-8.837-5.643-12.686,8.208,8.453,10.644,6.343-6.284-16.179,1.924-19.661,2.052,17.294,6.028,17.038,2.565-22.7,11.927-20.264-7.311,17.955-4.874,20.007,6.285-13.851,15.391-11.029-7.311,11.543-3.72,12.826,7.438-3.207,10,.385-.77,7.042-.77,7.042Z" transform="translate(-35.682 -36.499)" fill="#abdd7f"/>
      <path id="Trazado_719713" data-name="Trazado 719713" d="M319.274,311.726s-4.063-4.921-.087-12.36,5.216-9.3,5.216-9.3,3.337,7.723,3.1,13.5c-.292,7.149-3.358,8.16-3.358,8.16Z" transform="translate(-48.151 -38.215)" fill="#abdd7f"/>
      <path id="Trazado_719714" data-name="Trazado 719714" d="M324.564,298.171q-.364,4.09-.862,8.169c-.339,2.719-.713,5.434-1.263,8.142a.493.493,0,0,1-.967-.2l.006-.024,0-.007c.677-2.623,1.193-5.311,1.672-8s.9-5.393,1.285-8.1a.064.064,0,0,1,.128.014Z" transform="translate(-48.879 -39.672)" fill="#6ea038"/>
      <g id="Grupo_1005667" data-name="Grupo 1005667" transform="translate(332.209 213.177)">
        <path id="Trazado_719715" data-name="Trazado 719715" d="M407.909,303.285h-10.93s-5.82-14.98-.338-29.535c7.5-19.926,7.806-30.919,7.806-30.919s15.684,22.528,12.338,40.058C413.565,299.758,407.909,303.285,407.909,303.285Z" transform="translate(-394.289 -242.831)" fill="#6ea038"/>
        <path id="Trazado_719716" data-name="Trazado 719716" d="M410.9,306.522s-2.094-16.192,10.581-26.785c16.183-13.524,21.546-19.046,21.546-19.046s-2.12,24.356-8.276,33.974-13.27,11.736-13.27,11.736Z" transform="translate(-397.276 -246.069)" fill="#80b54d"/>
        <path id="Trazado_719717" data-name="Trazado 719717" d="M437.825,276.913c-2.281,2.451-4.41,5.044-6.435,7.707s-3.925,5.422-5.707,8.247a95.712,95.712,0,0,0-4.913,8.716,83.336,83.336,0,0,0-3.905,9.175l-.01.026a.725.725,0,0,1-1.36-.5l.008-.022a84.741,84.741,0,0,1,4.272-9.19,96.6,96.6,0,0,1,5.246-8.634q2.832-4.179,6.006-8.1c2.121-2.605,4.338-5.131,6.706-7.514a.064.064,0,0,1,.091,0A.066.066,0,0,1,437.825,276.913Z" transform="translate(-398.125 -248.989)" fill="#567f21"/>
      </g>
      <path id="Trazado_719718" data-name="Trazado 719718" d="M171.8,311.951h-2.919s-5.31-5.153-.752-14.568,8.561-7.367,10.2,2.541S171.8,311.951,171.8,311.951Z" transform="translate(-20.75 -38.44)" fill="#567f21"/>
      <path id="Trazado_719719" data-name="Trazado 719719" d="M172.978,311.24s-2.566-8.124,11.615-13.327c12.288-4.509,18.559-10.532,18.559-10.532s.468,11.832-6.924,21.073c-5.979,7.474-14.109,2.907-14.109,2.907Z" transform="translate(-21.932 -37.729)" fill="#abdd7f"/>
      <path id="Trazado_719720" data-name="Trazado 719720" d="M104.206,304.437H83.43c-28.928-9.108-19.3-34.1-31.628-54.414,19.479-2.407,24.326,22.233,37.861,31.706C104.647,292.216,104.206,304.437,104.206,304.437Z" transform="translate(0 -30.927)" fill="#80b54d"/>
      <path id="Trazado_719721" data-name="Trazado 719721" d="M88.209,310.223l1.478-.2S72.34,297.1,80.219,281.782c1.759,8.39,9.671,9.631,14.737,18.9a15.766,15.766,0,0,1-.514-13.162c13.354,2.875,14.543,22.708,14.543,22.708Z" transform="translate(-4.779 -36.714)" fill="#abdd7f"/>
      <path id="Trazado_719722" data-name="Trazado 719722" d="M371.429,319.053H70.507a1.391,1.391,0,0,1-1.39-1.391h0a1.39,1.39,0,0,1,1.39-1.39H371.429a1.39,1.39,0,0,1,1.39,1.39h0A1.391,1.391,0,0,1,371.429,319.053Z" transform="translate(-3.139 -42.966)" fill="#567f21"/>
    </g>
  </g>
</svg>
