<svg xmlns="http://www.w3.org/2000/svg" xmlns:xlink="http://www.w3.org/1999/xlink" width="101.933" height="101.933" viewBox="0 0 101.933 101.933">
  <defs>
    <clipPath id="clip-path">
      <rect id="Rectángulo_346372" data-name="Rectángulo 346372" width="60.764" height="60.905" fill="none"/>
    </clipPath>
  </defs>
  <g id="Grupo_1002340" data-name="Grupo 1002340" transform="translate(11842.319 12232.065)">
    <path id="Trazado_710607" data-name="Trazado 710607" d="M1090.171,489.446A50.966,50.966,0,1,1,1039.2,438.48a50.966,50.966,0,0,1,50.966,50.966" transform="translate(-12830.557 -12670.545)" fill="#12263f"/>
    <path id="Trazado_710608" data-name="Trazado 710608" d="M1145.16,554.486a40.917,40.917,0,1,1-40.917-40.917,40.917,40.917,0,0,1,40.917,40.917" transform="translate(-12895.596 -12735.584)" fill="#fff"/>
    <g id="Grupo_1002313" data-name="Grupo 1002313" transform="translate(-11821.184 -12209.818)">
      <g id="Grupo_1002208" data-name="Grupo 1002208" transform="translate(0 0)" clip-path="url(#clip-path)">
        <path id="Trazado_707879" data-name="Trazado 707879" d="M211.441,220.5l.793-1.076a.132.132,0,0,0,.076-.085,28.785,28.785,0,0,1,5.129-5.136l.094-.084,1.167-.862.139-.094a32.047,32.047,0,0,1,5.839-3.115l.1-.1a16.962,16.962,0,0,0,2.315-.635,21.029,21.029,0,0,1,5.314-.918,28.672,28.672,0,0,1,4.243.1c1.2.176,2.408.3,3.6.547a1.85,1.85,0,0,1,1.61,1.652,26.605,26.605,0,0,1,.692,6.3,30.922,30.922,0,0,1-.756,5.861,27.118,27.118,0,0,1-5.4,10.9,30.74,30.74,0,0,1-8,7.006,26.327,26.327,0,0,1-5.648,2.53,26.621,26.621,0,0,1-4.479.967c-.365.054-.728.1-1.1.131-.126,0-.282-.1-.356.1h-4.511c-.017-.095-.085-.115-.169-.121a22.559,22.559,0,0,1-3.583-.593,1.574,1.574,0,0,1-1.333-1.063,25.952,25.952,0,0,1-.852-6.123c0-.533-.013-1.065-.019-1.6a13.162,13.162,0,0,0,.222-2.084c.045-.478.357-.979.058-1.477.128-.03.4.059.207-.242.065-.32.116-.643.2-.959a28.5,28.5,0,0,1,4.4-9.719m5.362,10.191q.008-6.274.014-12.547c0-.046-.048-.091-.089-.165a1.076,1.076,0,0,0-.472.5,31.677,31.677,0,0,0-3.115,3.719c-.082-.033-.1,0-.086.078-.6,1.022-1.289,2.005-1.791,3.075a26.28,26.28,0,0,0-2.187,6.982,24.192,24.192,0,0,0-.178,6.35c.042.419-.09.95.328,1.3.139.382.29.1.4-.007q3.546-3.535,7.081-7.081c.1-.1.351-.212.094-.413q0-.894,0-1.788m12.835-11.048c.323.287.41-.1.533-.223q3.906-3.875,7.788-7.773a1.964,1.964,0,0,0,.278-.3c.1-.155-.02-.2-.149-.225-.483-.062-.865-.6-1.449-.251-.255.152-.558-.1-.854-.113a37.1,37.1,0,0,1-4.58-.1.214.214,0,0,0-.148.076c-.325.345-.788.28-1.187.363-.281.059-.35.131-.349.4.014,2.255.017,4.51.024,6.765a3.083,3.083,0,0,0,.092,1.389M212.913,242.1l.941-.019a24.229,24.229,0,0,0,14.222-3.933c-.089-.049-.118-.078-.147-.078q-6.557,0-13.113-.01a.631.631,0,0,0-.614.358q-1.575,1.549-3.151,3.1c-.22.216-.22.27.119.382.544.18,1.091-.024,1.62.119l.124.084m14.111-19.844a9.586,9.586,0,0,0,.108-2.622q.01-3.735.023-7.469c0-.333-.062-.372-.409-.269a23.252,23.252,0,0,0-3.723,1.537,20.928,20.928,0,0,0-3.82,2.433c-.4.09-.234.412-.234.633q-.014,6.435-.007,12.869c0,.119-.007.238,0,.356.03.344.205.466.519.3a1.872,1.872,0,0,0,.42-.32q3.422-3.414,6.839-6.832c.172-.172.338-.338.284-.611m13.067-6.529a9.2,9.2,0,0,0-.273-2.757l-3.29,3.124a1.545,1.545,0,0,0-.186.138q-4.929,4.928-9.853,9.86c-.085.085-.25.141-.19.338h1.241q5.072,0,10.143,0c.221,0,.451.069.579-.242a26.014,26.014,0,0,0,1.747-6.572c.1-.759.028-1.518.167-2.277a2.554,2.554,0,0,0-.085-1.609m-23.222,19.964h.737c4.134,0,8.268-.04,12.4.029a2.906,2.906,0,0,0,2.268-.936,31.094,31.094,0,0,0,3.49-4.118,10.39,10.39,0,0,0,1.132-1.819,1.029,1.029,0,0,0-.17-.04q-6.319,0-12.638-.007a.664.664,0,0,0-.523.2c-2.191,2.2-4.389,4.388-6.7,6.69" transform="translate(-181.8 -183.573)" fill="#040504"/>
        <path id="Trazado_707880" data-name="Trazado 707880" d="M13.1,225.411c-2.826-.008-5.653-.013-8.479-.029-.374,0-.362.106-.228.408a26.841,26.841,0,0,0,3.469,5.717,25.882,25.882,0,0,0,3.311,3.507,27.162,27.162,0,0,0,4.776,3.422,22.769,22.769,0,0,0,4.77,2.029,1.242,1.242,0,0,1,.985,1.478,1.265,1.265,0,0,1-1.771.8,27.742,27.742,0,0,1-7.811-3.9,29.382,29.382,0,0,1-3.987-3.41,30.639,30.639,0,0,1-4.9-6.538A20.023,20.023,0,0,1,1.9,225.964l-.1-.126a23.584,23.584,0,0,1-1.446-5.192c-.109-.764-.236-1.526-.355-2.289v-1.306a3.634,3.634,0,0,0,0-2.018v-1.187A4.183,4.183,0,0,0,.23,212.4c.151-.922.335-1.832.552-2.741.206-.862.849-1.1,1.581-1.279,1.292-.314,2.628-.337,3.927-.6.164.186.209.066.24-.093a6.775,6.775,0,0,0,1.86.094,25.553,25.553,0,0,1,5.381.566,25.544,25.544,0,0,1,5.544,1.763,26.12,26.12,0,0,1,6.06,3.74c.793.672,1.58,1.344,2.307,2.087a1.162,1.162,0,0,1,.188,1.708c-.734.631-1.16.612-1.868-.058-.543-.514-1.084-1.031-1.653-1.516a19.973,19.973,0,0,0-2.267-1.707v.747c0,3.831.051,7.663-.031,11.493a2.958,2.958,0,0,0,1.182,2.686.814.814,0,0,1,.4.8q0,.189,0,.377a1.054,1.054,0,0,1-1.733.775c-.239-.2-.514-.367-.735-.587q-2.547-2.53-5.072-5.083a.55.55,0,0,0-.445-.2c-.85.016-1.7.023-2.549.034m-8.69-14.895c-.253.285.074.377.193.5,1.445,1.463,2.9,2.914,4.356,4.368.713.713,1.423,1.429,2.142,2.136.163.16.361.464.533,0q0-3.343.006-6.687c0-.28.046-.53-.392-.552a30.573,30.573,0,0,0-3.646-.089,10.085,10.085,0,0,0-3.192.332m6.978,12.455h2.194c-1.493-1.418-2.765-2.847-4.2-4.112l-6.749-6.7c-.01,1.047-.283,1.893-.253,2.771a30.486,30.486,0,0,0,.225,4.628,26.287,26.287,0,0,0,.683,3.141c.072.226.149.3.388.3,2.571-.016,5.141-.02,7.712-.027m8.324,2.775c0-4.267,0-8.379.007-12.491a.436.436,0,0,0-.278-.448,16.616,16.616,0,0,0-2.456-1.094c-.813-.247-1.64-.456-2.436-.751-.457-.169-.542-.056-.541.379.01,2.768,0,5.537.006,8.306a.676.676,0,0,0,.146.55c1.818,1.811,3.631,3.627,5.552,5.549" transform="translate(0 -182.977)" fill="#040504"/>
        <path id="Trazado_707881" data-name="Trazado 707881" d="M316.845,0c-.206.241,0,.246.149.229a8.466,8.466,0,0,1,6.657,1.995,8.158,8.158,0,0,1,2.9,4.865,8.524,8.524,0,0,1-1.893,7.375,8.625,8.625,0,0,1-5.275,3.052,8.08,8.08,0,0,1-5.74-1.076,9.014,9.014,0,0,1-4.051-5.3,8.357,8.357,0,0,1,1.313-7.36A8.165,8.165,0,0,1,315.628.44c.315-.083.638-.131.954-.209.181-.045.153-.138.026-.23Zm1.143,15.194a6.416,6.416,0,0,0,6.335-5.926,6.349,6.349,0,1,0-12.682-.57,6.4,6.4,0,0,0,6.347,6.5" transform="translate(-272.443)" fill="#050605"/>
        <path id="Trazado_707882" data-name="Trazado 707882" d="M0,269.379A3.634,3.634,0,0,1,0,271.4Z" transform="translate(0 -237.324)" fill="#1f1e1e"/>
        <path id="Trazado_707883" data-name="Trazado 707883" d="M294.317,510.925c.074-.2.23-.092.356-.1,0,.032,0,.064,0,.1Z" transform="translate(-259.294 -450.02)" fill="#fcfcfc"/>
        <path id="Trazado_707884" data-name="Trazado 707884" d="M120.589,279.543a.814.814,0,0,0-.4-.8,2.959,2.959,0,0,1-1.182-2.686c.082-3.829.031-7.662.031-11.493v-.747a19.951,19.951,0,0,1,2.267,1.706c.568.485,1.11,1,1.653,1.516.709.67,1.135.689,1.868.058.2.639.807.964,1.139,1.5a6.277,6.277,0,0,0,.631.749,28.494,28.494,0,0,0-4.4,9.719c-.081.316-.132.639-.2.959-.1.053-.2.11-.207.242.3.5-.013,1-.058,1.477a13.165,13.165,0,0,1-.222,2.084c-.729-.352-1.475-.673-2.184-1.063a27.993,27.993,0,0,1-5.607-3.936,30.409,30.409,0,0,1-3.669-3.975c.85-.01,1.7-.018,2.549-.034a.551.551,0,0,1,.445.2q2.52,2.557,5.072,5.083c.221.22.5.384.735.587a1.054,1.054,0,0,0,1.733-.775c.164-.126.169-.251,0-.377" transform="translate(-96.959 -232.421)" fill="#008e8b"/>
        <path id="Trazado_707885" data-name="Trazado 707885" d="M168.286.912a7.187,7.187,0,0,1,3.079.694c.046.129.146.108.246.089l.862.468.052,0a5.03,5.03,0,0,1,1.841,1.454c-.02.173-.092.377.209.367a1.135,1.135,0,0,1-1.408,1.41c-.02-.064-.045-.12-.13-.089-.522,0-.764-.458-1.089-.728a6.8,6.8,0,0,0-7.286-.3,6.346,6.346,0,0,0,2.318,11.579,6.794,6.794,0,0,0,4.446-.765,6.192,6.192,0,0,0,1.106-.942,1.3,1.3,0,0,1,1.456-.229,1.071,1.071,0,0,1,.586,1.318c-.064.018-.121.042-.089.128a4.271,4.271,0,0,1-1.635,1.545,9.181,9.181,0,0,1-3.327,1.311,8.672,8.672,0,0,1-9.962-6.821A8.383,8.383,0,0,1,161.5,3.93a8.38,8.38,0,0,1,4.93-2.875,4.252,4.252,0,0,1,1.622-.144c.012.076.021.166.118.167s.107-.09.119-.166" transform="translate(-140.386 -0.771)" fill="#040504"/>
        <path id="Trazado_707886" data-name="Trazado 707886" d="M53.873,9.662q0-3.739,0-7.479A1.1,1.1,0,0,1,55.06.977q3.68-.017,7.36,0A1.244,1.244,0,0,1,63.77,1.9c.2.569-.135.91-.5,1.241a1.046,1.046,0,0,1-.764.209c-1.919-.007-3.838.01-5.757-.015-.421-.005-.523.105-.514.519q.042,2.076,0,4.154c-.007.4.112.489.492.482,1.206-.024,2.414-.018,3.62-.006.929.009,1.48.477,1.477,1.218s-.559,1.2-1.486,1.209c-1.207.011-2.414.02-3.62-.007-.4-.009-.488.113-.482.492.022,1.4.025,2.81,0,4.214-.007.381.11.451.464.448,1.879-.018,3.759-.026,5.638,0,.9.012,1.256.3,1.455.954a1.188,1.188,0,0,1-1.041,1.41q-3.887.01-7.775,0a1.128,1.128,0,0,1-1.1-1.162q0-3.8,0-7.6" transform="translate(-47.461 -0.853)" fill="#040504"/>
        <path id="Trazado_707887" data-name="Trazado 707887" d="M281.006,196.8c.125.3-.124.566-.3.735a25.939,25.939,0,0,1-2.666,2.572,1.479,1.479,0,0,1-1.522-.007,1.578,1.578,0,0,1-.011-1.77c.793-.824,1.6-1.639,2.426-2.426a1.176,1.176,0,0,1,1.482-.184,1.073,1.073,0,0,1,.589,1.08" transform="translate(-243.37 -172.269)" fill="#060707"/>
        <path id="Trazado_707888" data-name="Trazado 707888" d="M194.128,197.363c-.14-.338-.4-.631-.3-1.049.251-1.053,1.2-1.249,2.085-.611.893.858,1.784,1.717,2.6,2.646.052.148-.088.342.107.456l.037.238c-.229.5-.419,1.03-1.087,1.087l-.238,0a1.463,1.463,0,0,1-.7-.263,30.507,30.507,0,0,0-2.506-2.507" transform="translate(-170.74 -172.093)" fill="#0b0b0a"/>
        <path id="Trazado_707889" data-name="Trazado 707889" d="M247.829,174.3a9.3,9.3,0,0,1-.131,2.071,1.378,1.378,0,0,1-1.25.847,1.323,1.323,0,0,1-1.007-1.083q-.006-1.81,0-3.62a1.176,1.176,0,0,1,2.252-.288,9.576,9.576,0,0,1,.132,2.074" transform="translate(-216.231 -151.099)" fill="#040504"/>
        <path id="Trazado_707890" data-name="Trazado 707890" d="M285.589,24.309c-.3.01-.229-.194-.209-.367.238.026.211.2.209.367" transform="translate(-251.401 -21.093)" fill="#f9f9f9"/>
        <path id="Trazado_707891" data-name="Trazado 707891" d="M223.481,235.613l.238,0c-.012.076-.02.168-.118.169s-.108-.09-.12-.167" transform="translate(-196.887 -207.574)" fill="#fefefe"/>
        <path id="Trazado_707892" data-name="Trazado 707892" d="M234.333,224.72l-.037-.238c.087.014.205,0,.2.128,0,.039-.105.073-.162.109" transform="translate(-206.415 -197.769)" fill="#fefefe"/>
        <path id="Trazado_707893" data-name="Trazado 707893" d="M232.7,1.179c-.012.076-.022.166-.119.166s-.107-.091-.118-.167h.238" transform="translate(-204.798 -1.038)" fill="#050605"/>
        <path id="Trazado_707894" data-name="Trazado 707894" d="M53.1,207.568c-.031.159-.076.279-.24.093.038-.14.14-.113.24-.093" transform="translate(-46.567 -182.853)" fill="#090909"/>
        <path id="Trazado_707895" data-name="Trazado 707895" d="M260.573,6.7c-.1.018-.2.04-.246-.089.107-.038.235-.137.246.089" transform="translate(-229.349 -5.776)" fill="#f9f9f9"/>
        <path id="Trazado_707896" data-name="Trazado 707896" d="M274.375,38.058c.085-.031.11.025.13.089l-.13-.089" transform="translate(-241.725 -33.522)" fill="#f6f6f6"/>
        <path id="Trazado_707897" data-name="Trazado 707897" d="M299.562,256.6l-.094.084c-.013-.078.008-.117.094-.084" transform="translate(-263.829 -226.057)" fill="#0b0b0a"/>
        <path id="Trazado_707898" data-name="Trazado 707898" d="M269.695,10.927l-.052,0,.027-.1.024.108" transform="translate(-237.556 -9.532)" fill="#f6f6f6"/>
        <path id="Trazado_707899" data-name="Trazado 707899" d="M255.728,300.522a.131.131,0,0,1-.076.085c-.035-.082,0-.1.076-.085" transform="translate(-225.219 -264.756)" fill="#0b0b0a"/>
        <path id="Trazado_707900" data-name="Trazado 707900" d="M310.233,248.589l-.139.094c.026-.062.049-.127.139-.094" transform="translate(-273.194 -219)" fill="#090909"/>
        <path id="Trazado_707901" data-name="Trazado 707901" d="M360.4,221.624l-.1.1c-.018-.083.014-.116.1-.1" transform="translate(-317.419 -195.246)" fill="#0b0b0a"/>
        <path id="Trazado_707902" data-name="Trazado 707902" d="M286.486,121.759c-.031-.085.025-.109.089-.128l-.089.128" transform="translate(-252.387 -107.157)" fill="#f9f9f9"/>
        <path id="Trazado_707903" data-name="Trazado 707903" d="M294.7,386.981c2.307-2.3,4.5-4.493,6.7-6.69a.664.664,0,0,1,.523-.2q6.319.007,12.638.007a1.03,1.03,0,0,1,.17.04,10.391,10.391,0,0,1-1.132,1.819,31.1,31.1,0,0,1-3.49,4.118,2.906,2.906,0,0,1-2.268.936c-4.133-.069-8.267-.029-12.4-.029H294.7" transform="translate(-259.633 -334.861)" fill="#00716f"/>
        <path id="Trazado_707904" data-name="Trazado 707904" d="M387.638,270.219a2.555,2.555,0,0,1,.085,1.609c-.139.759-.069,1.519-.167,2.277a26.023,26.023,0,0,1-1.747,6.572c-.128.311-.358.242-.579.242q-5.072,0-10.143,0h-1.241c-.06-.2.105-.253.19-.338q4.922-4.934,9.853-9.86a1.544,1.544,0,0,1,.186-.138c1.1-.057,2.2-.26,3.31-.239.084,0,.169-.083.253-.127" transform="translate(-329.348 -238.064)" fill="#00716f"/>
        <path id="Trazado_707905" data-name="Trazado 707905" d="M269.713,458.253a.631.631,0,0,1,.614-.358q6.557.014,13.113.01c.029,0,.057.029.147.078a24.229,24.229,0,0,1-14.222,3.933,34.4,34.4,0,0,1,.347-3.663" transform="translate(-237.312 -403.407)" fill="#00716f"/>
        <path id="Trazado_707906" data-name="Trazado 707906" d="M314.434,310.2a32.145,32.145,0,0,1,7.49-6.954,2.88,2.88,0,0,1,.425-.193,9.59,9.59,0,0,1-.107,2.622c-2.633,2.477-5.054,5.173-7.807,7.634Z" transform="translate(-277.017 -266.988)" fill="#00716f"/>
        <path id="Trazado_707907" data-name="Trazado 707907" d="M312.344,282.3v3.109c2.753-2.461,5.174-5.157,7.807-7.634.055.273-.111.439-.284.611q-3.42,3.415-6.839,6.832a1.877,1.877,0,0,1-.42.32c-.314.17-.488.048-.519-.3-.01-.118,0-.237,0-.356q0-6.435.007-12.869c0-.22-.162-.542.234-.633q.008,5.457.015,10.915" transform="translate(-274.927 -239.092)" fill="#050605"/>
        <path id="Trazado_707908" data-name="Trazado 707908" d="M404.144,237.658c.019-.007.042-.008.055-.021q3.13-3.084,6.258-6.171c.129.024.248.07.149.225a1.958,1.958,0,0,1-.278.3q-3.89,3.891-7.788,7.774c-.124.122-.21.51-.533.223.445-.459.905-.9,1.33-1.382.277-.31.7-.5.808-.953" transform="translate(-354.168 -203.923)" fill="#050605"/>
        <path id="Trazado_707909" data-name="Trazado 707909" d="M230.466,418.486q2.85-2.887,5.7-5.773c.152-.154.316-.3.474-.443.079.007.106-.038.109-.107l-.008.009,1.3-1.188c.256.2.009.31-.094.414q-3.534,3.547-7.08,7.081c-.112.112-.263.39-.4.007" transform="translate(-203.041 -362.078)" fill="#050605"/>
        <path id="Trazado_707910" data-name="Trazado 707910" d="M403.2,283.495c-.113.449-.531.643-.808.953-.425.477-.885.923-1.33,1.382a3.083,3.083,0,0,1-.092-1.389l2.23-.946" transform="translate(-353.227 -249.76)" fill="#00716f"/>
        <path id="Trazado_707911" data-name="Trazado 707911" d="M284.417,395.987a.425.425,0,0,1,.094-.027q0,.894,0,1.788l-1.3,1.188a8.9,8.9,0,0,1,1.071-2.635c.054-.1.092-.209.137-.314" transform="translate(-249.508 -348.842)" fill="#00716f"/>
        <path id="Trazado_707912" data-name="Trazado 707912" d="M208.7,400.29c.01-.131.106-.188.207-.242.189.3-.079.211-.207.242" transform="translate(-183.868 -352.443)" fill="#080b07"/>
        <path id="Trazado_707913" data-name="Trazado 707913" d="M262.686,324.485l-.086.078c-.017-.076,0-.111.086-.078" transform="translate(-231.347 -285.861)" fill="#f6f6f6"/>
        <path id="Trazado_707914" data-name="Trazado 707914" d="M260.415,491.085c.078-.026.1.028.124.084l-.124-.084" transform="translate(-229.426 -432.641)" fill="#0b0b0a"/>
        <path id="Trazado_707915" data-name="Trazado 707915" d="M125.86,426.538a10.124,10.124,0,0,1-2.18-.722,23.786,23.786,0,0,1-5.063-2.74,1.245,1.245,0,0,1-.6-1.465,1.156,1.156,0,0,1,1.743-.643c.955.524,1.816,1.2,2.79,1.7a25.485,25.485,0,0,0,3.539,1.477c1.031.348,1.347,1.01.886,1.826a1.244,1.244,0,0,1-1.113.563" transform="translate(-103.92 -370.72)" fill="#060707"/>
        <path id="Trazado_707916" data-name="Trazado 707916" d="M93.877,401.445a1.221,1.221,0,0,1-1.1-1.192,1.183,1.183,0,1,1,2.365.017,1.247,1.247,0,0,1-1.27,1.175" transform="translate(-81.741 -351.584)" fill="#060707"/>
        <path id="Trazado_707917" data-name="Trazado 707917" d="M15.087,360.178l.1.126c-.069-.014-.121-.041-.1-.126" transform="translate(-13.286 -317.318)" fill="#0b0b0a"/>
        <path id="Trazado_707918" data-name="Trazado 707918" d="M123.387,249.405c-1.921-1.922-3.734-3.738-5.552-5.549a.676.676,0,0,1-.146-.55c0-2.769,0-5.537-.006-8.306,0-.435.084-.548.541-.379.8.295,1.623.5,2.436.751a16.616,16.616,0,0,1,2.456,1.094.436.436,0,0,1,.278.448c-.009,4.112-.007,8.224-.007,12.491" transform="translate(-103.679 -206.637)" fill="#008e8b"/>
        <path id="Trazado_707919" data-name="Trazado 707919" d="M63.848,228.416a30.564,30.564,0,0,1,3.646.089c.437.022.392.272.392.552q-.005,3.343-.006,6.687a.294.294,0,0,1-.307-.119q-1.693-1.715-3.388-3.429c-.105-1.26-.347-2.509-.337-3.78" transform="translate(-56.25 -201.208)" fill="#008e8b"/>
        <path id="Trazado_707920" data-name="Trazado 707920" d="M80.813,305.646a20.407,20.407,0,0,1-2.006-4.112c1.435,1.265,2.707,2.694,4.2,4.112Z" transform="translate(-69.429 -265.652)" fill="#008e8b"/>
        <path id="Trazado_707921" data-name="Trazado 707921" d="M36.335,231.423l3.529,3.448q1.694,1.714,3.388,3.429a.294.294,0,0,0,.307.119c-.172.469-.37.165-.533,0-.719-.707-1.429-1.423-2.142-2.136-1.454-1.454-2.911-2.9-4.356-4.368-.118-.12-.446-.212-.193-.5" transform="translate(-31.929 -203.884)" fill="#050605"/>
        <path id="Trazado_707922" data-name="Trazado 707922" d="M198.571,395.993c.168.126.164.252,0,.377q0-.189,0-.377" transform="translate(-174.942 -348.871)" fill="#080b07"/>
        <path id="Trazado_707923" data-name="Trazado 707923" d="M282.471,420.831c0,.069-.03.115-.109.107.013-.059,0-.143.109-.107" transform="translate(-248.762 -370.746)" fill="#95bf27"/>
      </g>
    </g>
  </g>
</svg>
