<svg xmlns="http://www.w3.org/2000/svg" xmlns:xlink="http://www.w3.org/1999/xlink" width="131.637" height="144.887" viewBox="0 0 131.637 144.887">
  <defs>
    <clipPath id="clip-path">
      <rect id="Rect치ngulo_346374" data-name="Rect치ngulo 346374" width="20.178" height="45.944" transform="translate(0 0)" fill="none" stroke="#12263f" stroke-width="1"/>
    </clipPath>
    <clipPath id="clip-path-2">
      <rect id="Rect치ngulo_346376" data-name="Rect치ngulo 346376" width="112.667" height="88.126" fill="none"/>
    </clipPath>
  </defs>
  <g id="Grupo_1002341" data-name="Grupo 1002341" transform="translate(-956.927 -282.931)">
    <g id="Grupo_1002316" data-name="Grupo 1002316" transform="translate(1017.729 282.931) rotate(47)">
      <g id="Grupo_1002212" data-name="Grupo 1002212" clip-path="url(#clip-path)">
        <path id="Trazado_707910" data-name="Trazado 707910" d="M15,1.5C9.476,12.543,10.089,29.267,11.93,41.536" fill="none" stroke="#12263f" stroke-linecap="round" stroke-linejoin="round" stroke-width="3"/>
        <path id="Trazado_707911" data-name="Trazado 707911" d="M1.5,35.242c3.681,3.681,7.976,6.135,11.656,9.2a34.1,34.1,0,0,1,5.522-10.429" fill="none" stroke="#12263f" stroke-linecap="round" stroke-linejoin="round" stroke-width="3"/>
      </g>
    </g>
    <g id="Grupo_1002319" data-name="Grupo 1002319" transform="matrix(0.966, -0.259, 0.259, 0.966, 956.927, 342.695)">
      <g id="Grupo_1002218" data-name="Grupo 1002218" transform="translate(0 0)" clip-path="url(#clip-path-2)">
        <path id="Trazado_707923" data-name="Trazado 707923" d="M3.074,9.063a9.589,9.589,0,0,1-1.9-.725C.717,8.039.137,7.519.1,7.056A15.818,15.818,0,0,1,.182,2.849,3.058,3.058,0,0,1,3.216.346,84.613,84.613,0,0,1,16.481.189c1.822.124,3.658.195,5.458.472,2.746.423,3.585,1.469,3.7,4.28.032.767.023,1.538,0,2.306-.034,1.306-.315,1.646-1.586,1.92-.4.087-.822.089-1.23.158-.345.057-.686.157-1.113.258,0,1.062-.032,2.107.005,3.15.2,5.71.494,11.417.615,17.13.093,4.42.057,8.845-.071,13.263-.092,3.122-.335,6.247-.7,9.349a6.251,6.251,0,0,1-4.27,5.566c-2.485.9-4.955,1.507-7.593.786a5.47,5.47,0,0,1-2.754-1.785c-2.368-2.694-2.828-6-3.315-9.353-.607-4.172-.415-8.366-.574-12.549-.172-4.425-.23-8.856-.238-13.284-.007-3.01.17-6.021.243-9.032.031-1.235.007-2.472.007-3.762M4.6,9.125c-.124,1.914-.3,3.556-.325,5.2-.063,3.542-.039,7.085-.082,10.627-.018,1.588-.2,3.176-.154,4.76.1,3.355.4,6.705.438,10.058a74.394,74.394,0,0,0,.967,10.389,10.9,10.9,0,0,0,2.646,5.7,4.026,4.026,0,0,0,2.377,1.4,11.277,11.277,0,0,0,7.921-1.723A3.465,3.465,0,0,0,19.5,54.2c1.028-1.861,1.064-3.969,1.241-6,.234-2.7.246-5.415.3-8.125.083-4.657.159-9.315.159-13.972,0-2.652-.095-5.307-.26-7.954-.178-2.873-.487-5.738-.749-8.717C14.97,8.521,9.864,9.292,4.6,9.125m8.053-7.57c0-.094,0-.19,0-.285-2.826.1-5.655.171-8.477.32-2.043.109-2.734.868-2.8,2.853C1.293,7.066,1.7,7.529,4.3,7.735c.41.033.825.029,1.237.033,2.06.021,4.125-.017,6.181.073,2.936.131,5.869.321,8.8.547,2.986.229,4.1-.959,3.5-3.827a7.971,7.971,0,0,1-.218-.853,1.628,1.628,0,0,0-1.5-1.5,25.351,25.351,0,0,0-3.644-.621c-2-.1-4-.029-6-.029" transform="translate(0 0)" fill="#12263f" fill-rule="evenodd"/>
        <path id="Trazado_707924" data-name="Trazado 707924" d="M5.2,10.466c5.264.166,10.371-.6,15.587.305.262,2.978.571,5.844.749,8.717.165,2.647.262,5.3.26,7.954,0,4.657-.077,9.315-.159,13.972-.05,2.711-.062,5.429-.3,8.126-.177,2.031-.212,4.138-1.241,6a3.471,3.471,0,0,1-1.113,1.336A11.277,11.277,0,0,1,11.069,58.6a4.026,4.026,0,0,1-2.377-1.4,10.9,10.9,0,0,1-2.646-5.7,74.527,74.527,0,0,1-.967-10.389c-.037-3.353-.338-6.7-.438-10.058-.047-1.583.137-3.172.155-4.76.043-3.543.019-7.086.082-10.627.029-1.644.2-3.285.325-5.2" transform="translate(-0.602 -1.341)" fill="#fff" fill-rule="evenodd"/>
        <path id="Trazado_707925" data-name="Trazado 707925" d="M7.9,15.45c3.734.137,7.357-.5,11.06.251.186,2.442.4,4.792.531,7.148.118,2.17.186,4.347.185,6.522,0,3.818-.054,7.639-.113,11.457-.036,2.222-.043,4.451-.211,6.663a13.5,13.5,0,0,1-.881,4.92,2.772,2.772,0,0,1-.788,1.1,7.153,7.153,0,0,1-5.62,1.412,2.809,2.809,0,0,1-1.686-1.148A9.613,9.613,0,0,1,8.5,49.1a70.784,70.784,0,0,1-.686-8.519c-.026-2.749-.239-5.5-.311-8.248-.035-1.3.1-2.6.11-3.9.03-2.9.014-5.811.057-8.715.022-1.348.143-2.694.231-4.263" transform="translate(-0.975 -1.993)" fill="#4db1f0" fill-rule="evenodd"/>
        <path id="Trazado_707926" data-name="Trazado 707926" d="M12.857,1.744c2,0,4.008-.075,6,.029a25.351,25.351,0,0,1,3.644.621A1.628,1.628,0,0,1,24,3.9a7.971,7.971,0,0,0,.218.853c.6,2.868-.515,4.056-3.5,3.827-2.929-.226-5.862-.417-8.8-.547-2.056-.09-4.12-.052-6.181-.073-.412,0-.827,0-1.237-.033-2.6-.206-3-.669-2.921-3.293.063-1.985.754-2.744,2.8-2.853,2.822-.15,5.652-.217,8.477-.32,0,.1,0,.191,0,.285" transform="translate(-0.204 -0.19)" fill="#fff" fill-rule="evenodd"/>
        <path id="Trazado_707927" data-name="Trazado 707927" d="M19.107,17.48h4.06a.544.544,0,0,0,0-1.088h-4.06a.544.544,0,0,0,0,1.088" transform="translate(-2.415 -2.131)" fill="#12263f"/>
        <path id="Trazado_707928" data-name="Trazado 707928" d="M18.96,24.628a23.9,23.9,0,0,0,4.64.164.544.544,0,0,0,0-1.088,22.571,22.571,0,0,1-4.351-.125.558.558,0,0,0-.669.379.549.549,0,0,0,.38.669" transform="translate(-2.413 -3.063)" fill="#12263f"/>
        <path id="Trazado_707929" data-name="Trazado 707929" d="M19.294,33.128a23.09,23.09,0,0,0,4.494.164.544.544,0,0,0,0-1.088,21.765,21.765,0,0,1-4.206-.125.558.558,0,0,0-.669.379.549.549,0,0,0,.38.669" transform="translate(-2.456 -4.168)" fill="#12263f"/>
        <path id="Trazado_707930" data-name="Trazado 707930" d="M19.938,40.812a34.724,34.724,0,0,0,3.77.145.544.544,0,1,0,0-1.088,34.724,34.724,0,0,1-3.77-.145.547.547,0,0,0-.544.544.557.557,0,0,0,.544.544" transform="translate(-2.521 -5.163)" fill="#12263f"/>
        <path id="Trazado_707931" data-name="Trazado 707931" d="M21.794,37.294a11.964,11.964,0,0,0,2.319.164.544.544,0,0,0,0-1.088c-.356,0-.712,0-1.067-.017-.175-.009-.349-.021-.523-.04L22.4,36.3c-.128-.015.093.017-.023,0-.1-.016-.2-.031-.293-.05a.544.544,0,1,0-.289,1.048" transform="translate(-2.782 -4.71)" fill="#12263f"/>
        <path id="Trazado_707932" data-name="Trazado 707932" d="M21.626,28.771a5.333,5.333,0,0,0,2.319-.145.548.548,0,0,0,.38-.668.555.555,0,0,0-.669-.38c-.144.036-.287.07-.432.1-.084.017-.167.032-.251.045-.037.006-.074.01-.109.017.157-.03.012,0-.024,0a4.149,4.149,0,0,1-.5.023c-.084,0-.169-.006-.255-.014l-.078-.009.065.01a.913.913,0,0,1-.158-.027.544.544,0,1,0-.289,1.048" transform="translate(-2.76 -3.582)" fill="#12263f"/>
        <path id="Trazado_707933" data-name="Trazado 707933" d="M21.271,21.48h2.465a.544.544,0,1,0,0-1.088H21.271a.544.544,0,1,0,0,1.088" transform="translate(-2.694 -2.651)" fill="#12263f"/>
        <path id="Trazado_707934" data-name="Trazado 707934" d="M76.907,38.2c1.307-.606,2.466-1.188,3.658-1.689a21.525,21.525,0,0,1,9.178-1.573c2.71.092,5.418.211,8.124.385a21.394,21.394,0,0,1,7.1,2.113c2.054.892,4.058,1.9,6.1,2.832a18.325,18.325,0,0,1,4.655,3.166,2.717,2.717,0,0,1,.92,2.818c-.831,4.655-1.611,9.319-2.393,13.981-1.006,6-1.983,12.005-3,18-.651,3.836-1.348,7.665-2.034,11.5a8.918,8.918,0,0,1-.347,1.189,1.184,1.184,0,0,1-1.494.869c-3.741-.506-7.508-.867-11.235-1.464-5.131-.822-10.226-1.9-15.361-2.7C76,86.885,71.193,86.351,66.4,85.721c-.527-.07-1.054-.149-1.577-.245-4.347-.8-8.688-1.63-13.042-2.386-2.382-.413-4.792-.666-7.178-1.051-3.787-.611-7.563-1.279-11.348-1.911-2.225-.372-2.384-.581-1.932-2.742.617-2.945,1.317-5.875,1.832-8.838q1.287-7.4,2.372-14.844c.572-3.852,1.05-7.719,1.508-11.586q.591-5.011,1.021-10.043a1.852,1.852,0,0,1,1.57-1.915,26.293,26.293,0,0,1,7.2-1.681,41.79,41.79,0,0,1,13.66,1.455c2.421.734,4.855,1.431,7.283,2.146a2.665,2.665,0,0,1,.669.223c2.889,1.8,6.189,3,8.466,5.9m38.3,6.93a33.547,33.547,0,0,0-4.022-2.906c-2.765-1.449-5.632-2.706-8.488-3.98a19.478,19.478,0,0,0-7.788-1.43c-.943-.013-1.895.084-2.829-.007a21.02,21.02,0,0,0-13.767,2.895,2.509,2.509,0,0,0-1.356,1.857c-.35,2.266-.753,4.528-1.007,6.805-.348,3.1-.5,6.226-.877,9.322-.528,4.334-1.181,8.651-1.794,12.975-.488,3.444-.688,6.937-1.72,10.291a2.213,2.213,0,0,0,.019.643c.975-.611,1.789-1.187,2.662-1.654,3.034-1.628,6.409-1.864,9.729-2.3a25.883,25.883,0,0,1,8.442.715,22.537,22.537,0,0,1,13.3,7.494c.615.73,1.287,1.416,2.175,2.388,2.476-14.575,4.886-28.751,7.326-43.111M33.442,75.44c.38-.24.7-.482,1.057-.66a29.521,29.521,0,0,1,5.229-2.535,24.6,24.6,0,0,1,19.145,2.28,35.559,35.559,0,0,1,9.543,8.062c.251.294.546.55,1.009,1.014.581-2.454,1.26-4.655,1.6-6.907.711-4.665,1.251-9.355,1.84-14.038.338-2.69.645-5.384.947-8.077.092-.82.077-1.652.184-2.47.485-3.687.927-7.383,1.526-11.052a3.3,3.3,0,0,0-1.314-3.39,28.268,28.268,0,0,0-2.44-1.753,30.41,30.41,0,0,0-6.213-2.932,47.737,47.737,0,0,0-17.7-2.87,16.815,16.815,0,0,0-8.309,2.282c-1.443,14.42-3.3,28.744-6.1,43.047m72.913,14.529a8.416,8.416,0,0,0-.527-1.292A20.311,20.311,0,0,0,98.321,82.1a26.134,26.134,0,0,0-9.006-2.474,28.62,28.62,0,0,0-13.574,1.609,7.417,7.417,0,0,0-3.879,3.35c.811.181,1.482.371,2.168.476,1.808.277,3.63.466,5.431.78,6.048,1.046,12.077,2.191,18.133,3.176,2.777.452,5.6.618,8.762.951M66.861,84.111c.085-.16.17-.321.255-.482a35.622,35.622,0,0,0-6.422-5.979A24.094,24.094,0,0,0,47.842,73.2c-4.247-.229-8.22.418-11.805,2.844a10.537,10.537,0,0,0-2.425,2.422l33.249,5.65" transform="translate(-4.045 -3.696)" fill="#12263f" fill-rule="evenodd"/>
        <path id="Trazado_707935" data-name="Trazado 707935" d="M121.251,46.365c-2.44,14.36-4.849,28.536-7.326,43.111-.888-.972-1.56-1.658-2.175-2.388a22.543,22.543,0,0,0-13.3-7.5,25.909,25.909,0,0,0-8.442-.714c-3.321.432-6.7.668-9.729,2.3-.874.467-1.687,1.043-2.662,1.654a2.219,2.219,0,0,1-.019-.644c1.032-3.354,1.232-6.845,1.72-10.29.613-4.323,1.266-8.641,1.794-12.975.379-3.1.529-6.221.877-9.322.255-2.278.658-4.539,1.007-6.805a2.509,2.509,0,0,1,1.356-1.857,21.018,21.018,0,0,1,13.767-2.895c.934.091,1.886-.007,2.829.007a19.448,19.448,0,0,1,7.788,1.43c2.855,1.275,5.723,2.531,8.488,3.98a33.424,33.424,0,0,1,4.022,2.906" transform="translate(-10.084 -4.927)" fill="#fff" fill-rule="evenodd"/>
        <path id="Trazado_707936" data-name="Trazado 707936" d="M33.789,75.687c2.8-14.3,4.658-28.627,6.1-43.047a16.834,16.834,0,0,1,8.31-2.282,47.751,47.751,0,0,1,17.7,2.871,30.407,30.407,0,0,1,6.213,2.931,28.47,28.47,0,0,1,2.44,1.753,3.3,3.3,0,0,1,1.313,3.39c-.6,3.67-1.041,7.366-1.526,11.053-.107.818-.091,1.65-.184,2.469-.3,2.694-.608,5.388-.946,8.078-.59,4.682-1.13,9.373-1.841,14.037-.341,2.252-1.02,4.454-1.6,6.908-.464-.465-.758-.72-1.009-1.014a35.568,35.568,0,0,0-9.542-8.062,24.6,24.6,0,0,0-19.146-2.28,29.46,29.46,0,0,0-5.229,2.535c-.353.178-.676.42-1.057.66" transform="translate(-4.392 -3.943)" fill="#fff" fill-rule="evenodd"/>
        <path id="Trazado_707937" data-name="Trazado 707937" d="M112.443,97.585c-3.163-.334-5.985-.5-8.761-.951-6.056-.986-12.085-2.13-18.133-3.176-1.8-.312-3.623-.5-5.431-.78-.686-.1-1.358-.295-2.168-.475a7.408,7.408,0,0,1,3.879-3.35A28.62,28.62,0,0,1,95.4,87.244a26.156,26.156,0,0,1,9.006,2.473,20.328,20.328,0,0,1,7.507,6.575,8.491,8.491,0,0,1,.526,1.292" transform="translate(-10.132 -11.312)" fill="#cbd3dc" fill-rule="evenodd"/>
        <path id="Trazado_707938" data-name="Trazado 707938" d="M67.233,90.792l-33.249-5.65a10.537,10.537,0,0,1,2.425-2.422c3.585-2.426,7.559-3.073,11.805-2.844a24.094,24.094,0,0,1,12.853,4.455,35.622,35.622,0,0,1,6.422,5.979c-.085.161-.17.322-.255.482" transform="translate(-4.417 -10.377)" fill="#cbd3dc" fill-rule="evenodd"/>
        <path id="Trazado_707939" data-name="Trazado 707939" d="M46.213,37.966c0,3.189-1.16,6.67-.87,9.715.145,1.885-.435,1.305,1.6,1.885A18.706,18.706,0,0,0,51,49.711c3.48.29,4.206.435,4.206-3.625,0-2.61.144-5.075.29-7.685a30.606,30.606,0,0,0-8.99-.726" transform="translate(-5.888 -4.891)" fill="#ffa031" fill-rule="evenodd"/>
        <path id="Trazado_707940" data-name="Trazado 707940" d="M60.606,41.313c4.922.007,10.036.422,14.226,3.261.58.394,1.125-.548.548-.939-4.341-2.942-9.673-3.4-14.775-3.41a.544.544,0,0,0,0,1.088" transform="translate(-7.81 -5.229)" fill="#12263f"/>
        <path id="Trazado_707941" data-name="Trazado 707941" d="M60.106,46.812a70.063,70.063,0,0,1,14.211,2.3.544.544,0,0,0,.289-1.048,71.46,71.46,0,0,0-14.5-2.339c-.7-.06-.693,1.028,0,1.088" transform="translate(-7.745 -5.943)" fill="#12263f"/>
        <path id="Trazado_707942" data-name="Trazado 707942" d="M59.607,52.312A113.391,113.391,0,0,1,73.238,54.9a.544.544,0,0,0,.289-1.049,115.821,115.821,0,0,0-13.92-2.629c-.693-.085-.687,1,0,1.088" transform="translate(-7.681 -6.658)" fill="#12263f"/>
        <path id="Trazado_707943" data-name="Trazado 707943" d="M41.94,58.145a144.225,144.225,0,0,1,14.461.4c4.856.486,9.877,1.525,13.975,4.31.58.394,1.125-.548.548-.94-4.077-2.771-9.038-3.85-13.866-4.388a135.488,135.488,0,0,0-15.118-.471.544.544,0,0,0,0,1.088" transform="translate(-5.383 -7.416)" fill="#12263f"/>
        <path id="Trazado_707944" data-name="Trazado 707944" d="M41.583,64.165a35.846,35.846,0,0,1,14.294-.247c4.642.747,9.46,2.125,13.271,4.977.561.419,1.1-.524.549-.939-3.959-2.963-9.019-4.394-13.843-5.136a37,37,0,0,0-14.561.3.544.544,0,0,0,.289,1.048" transform="translate(-5.317 -8.091)" fill="#12263f"/>
        <path id="Trazado_707945" data-name="Trazado 707945" d="M40.274,69.645c5.544.652,11.184-.344,16.687.761a56.6,56.6,0,0,1,5.591,1.4,13.51,13.51,0,0,1,5.468,2.751c.505.484,1.275-.284.769-.769-2.847-2.727-7.4-3.538-11.115-4.345-5.739-1.245-11.611-.209-17.4-.889-.693-.082-.688,1.007,0,1.088" transform="translate(-5.168 -8.911)" fill="#12263f"/>
        <path id="Trazado_707946" data-name="Trazado 707946" d="M40.606,75.131a74.235,74.235,0,0,1,13.812.47,29.872,29.872,0,0,1,12.739,5.111c.572.405,1.116-.537.549-.94a30.568,30.568,0,0,0-13-5.22,75.69,75.69,0,0,0-14.1-.509c-.7.021-.7,1.108,0,1.088" transform="translate(-5.21 -9.612)" fill="#12263f"/>
        <path id="Trazado_707947" data-name="Trazado 707947" d="M83.866,74.566c-.291,2.031-.87,3.771-1.015,5.655,3.335-.29,6.96-1.16,10.73-.725,3.045.29,5.8,1.885,8.556,2.9a28.824,28.824,0,0,0,1.595-5.8c-3.045-.87-6.815-2.466-9.86-2.755-3.336-.29-5.927.56-10.005.725" transform="translate(-10.769 -9.59)" fill="#008b8a" fill-rule="evenodd"/>
        <path id="Trazado_707948" data-name="Trazado 707948" d="M111.5,63.683c-.579,5.945-1.595,11.89-2.319,17.69,2.754.87,5.22,1.45,7.54,3.045,1.74-2.754,1.885-7.685,2.61-10.875a31.384,31.384,0,0,0,.87-8.265,82.3,82.3,0,0,0-8.265-1.449" transform="translate(-14.192 -8.278)" fill="#cbd3dc" fill-rule="evenodd"/>
        <path id="Trazado_707949" data-name="Trazado 707949" d="M88.582,45.761c9.474-2.433,20.134-1.6,28.581,3.571.6.366,1.146-.573.549-.939-8.691-5.323-19.671-6.184-29.419-3.68a.544.544,0,0,0,.289,1.048" transform="translate(-11.426 -5.637)" fill="#12263f"/>
        <path id="Trazado_707950" data-name="Trazado 707950" d="M87.939,51.236c4.759-.292,9.593-.785,14.355-.29,4.7.487,9.211,2.181,13.631,3.751.66.234.945-.816.289-1.049-4.406-1.564-8.844-3.163-13.51-3.738-4.883-.6-9.881-.061-14.765.239-.7.043-.7,1.13,0,1.088" transform="translate(-11.363 -6.452)" fill="#12263f"/>
        <path id="Trazado_707951" data-name="Trazado 707951" d="M87.94,57.576a58.411,58.411,0,0,1,15.985.169c3.782.536,8,1.168,11.292,3.237.593.373,1.14-.567.548-.94-3.363-2.116-7.634-2.783-11.5-3.339a59.111,59.111,0,0,0-16.326-.215c-.684.09-.693,1.179,0,1.088" transform="translate(-11.364 -7.282)" fill="#12263f"/>
        <path id="Trazado_707952" data-name="Trazado 707952" d="M86.606,63.145c6.211.131,12.51-.258,18.561,1.43a.544.544,0,0,0,.289-1.048c-6.146-1.715-12.541-1.336-18.85-1.469a.544.544,0,0,0,0,1.088" transform="translate(-11.189 -8.067)" fill="#12263f"/>
        <path id="Trazado_707953" data-name="Trazado 707953" d="M85.772,68.77c5.938-.555,12.2-.591,17.561,2.391.612.341,1.161-.6.548-.939-5.532-3.078-11.971-3.114-18.109-2.54-.691.064-.7,1.153,0,1.088" transform="translate(-11.081 -8.76)" fill="#12263f"/>
      </g>
    </g>
  </g>
</svg>
