<svg xmlns="http://www.w3.org/2000/svg" xmlns:xlink="http://www.w3.org/1999/xlink" width="85.737" height="75.958" viewBox="0 0 85.737 75.958">
  <defs>
    <clipPath id="clip-path">
      <rect id="Rect치ngulo_346372" data-name="Rect치ngulo 346372" width="53.528" height="40.475" fill="#12263f"/>
    </clipPath>
    <clipPath id="clip-path-2">
      <rect id="Rect치ngulo_346374" data-name="Rect치ngulo 346374" width="20.178" height="45.944" transform="translate(0 0)" fill="none" stroke="#12263f" stroke-width="1"/>
    </clipPath>
  </defs>
  <g id="Grupo_1002333" data-name="Grupo 1002333" transform="translate(-1066.416 -89.307)">
    <g id="Grupo_1002312" data-name="Grupo 1002312" transform="translate(1066.416 104.061) rotate(-16)">
      <g id="Grupo_1002208" data-name="Grupo 1002208" transform="translate(0 0)" clip-path="url(#clip-path)">
        <path id="Trazado_707879" data-name="Trazado 707879" d="M46.195,16.058c.742-.19,1.538-.428,2.349-.593a2.265,2.265,0,0,1,2.927,1.568c.551,1.7.95,3.445,1.427,5.167.186.674.41,1.339.631,2.054-.249.816-.983,1.044-1.74,1.27C48.3,26.577,44.8,27.615,41.32,28.7c-4.9,1.534-9.772,3.169-14.687,4.654-4.976,1.5-9.993,2.858-14.981,4.313-2.237.653-4.442,1.4-6.671,2.086-.84.256-1.7.441-2.788.719C1.227,37.017.76,33.719,0,30.51c.931-1.351,2.552-1.308,3.619-2C3.383,26.3,3,24.177,2.977,22.055a36.387,36.387,0,0,1,.53-6.229C4.092,12.254,6.482,9.763,8.98,7.41A26.377,26.377,0,0,1,19.5,1.51,27.314,27.314,0,0,1,25.225.088,18.651,18.651,0,0,1,40.2,5.106,17.193,17.193,0,0,1,43.836,10.6c.806,1.722,1.514,3.494,2.359,5.46M3.613,38.461c16-4.629,31.881-9.311,47.6-14.6.121-2.518-.967-4.606-1.708-6.863-.536.091-1,.154-1.462.255-.527.113-1.042.284-1.57.387a1.894,1.894,0,0,1-2.287-1.23c-.155-.385-.184-.82-.327-1.211C42.493,11.469,40.914,7.9,37.6,5.373a16.113,16.113,0,0,0-13.7-3.1A50.053,50.053,0,0,0,17.058,4.4a22.288,22.288,0,0,0-9.4,6.972,10.615,10.615,0,0,0-2.53,5.072,24.8,24.8,0,0,0,.25,11.014c.414,1.453.192,1.858-1.252,2.437-.761.3-1.547.545-2.481.87.656,2.568,1.286,5.036,1.967,7.7" transform="translate(0 0)" fill="#12263f" fill-rule="evenodd"/>
        <path id="Trazado_707880" data-name="Trazado 707880" d="M4.164,39.086c-.68-2.663-1.311-5.131-1.967-7.7.934-.325,1.719-.565,2.481-.869,1.444-.58,1.666-.985,1.253-2.438a24.775,24.775,0,0,1-.25-11.013A10.607,10.607,0,0,1,8.21,11.994a22.286,22.286,0,0,1,9.4-6.972A49.952,49.952,0,0,1,24.45,2.9,16.118,16.118,0,0,1,38.15,6c3.315,2.523,4.894,6.1,6.258,9.829.143.392.172.826.327,1.212a1.893,1.893,0,0,0,2.287,1.229c.528-.1,1.044-.273,1.57-.386.459-.1.926-.164,1.462-.255.74,2.257,1.829,4.345,1.708,6.863-15.717,5.286-31.6,9.968-47.6,14.6M38.913,20.958c0-.611.015-.847,0-1.081a3.389,3.389,0,0,0-.106-.707,16.221,16.221,0,0,0-5.169-8.2,8.966,8.966,0,0,0-6.1-2.158,20.57,20.57,0,0,0-10.578,2.98,10.336,10.336,0,0,0-5.309,9.184,26.281,26.281,0,0,0,1.035,5.8c.318,1.3,1.017,1.576,2.317,1.194q3.692-1.091,7.371-2.221c3.25-1,6.479-2.074,9.743-3.033,2.224-.653,4.491-1.164,6.8-1.755" transform="translate(-0.551 -0.626)" fill="#ffa031" fill-rule="evenodd"/>
        <path id="Trazado_707881" data-name="Trazado 707881" d="M42.073,23.072c-2.313.591-4.58,1.1-6.8,1.755-3.263.959-6.493,2.029-9.742,3.032q-3.677,1.134-7.371,2.221c-1.3.384-2,.106-2.317-1.193a26.283,26.283,0,0,1-1.036-5.8,10.341,10.341,0,0,1,5.309-9.185,20.571,20.571,0,0,1,10.578-2.98A8.969,8.969,0,0,1,36.8,13.086a16.22,16.22,0,0,1,5.168,8.2,3.39,3.39,0,0,1,.107.707c.017.235,0,.471,0,1.082m-2.108-1.41a12.68,12.68,0,0,0-4.018-6.721,6.968,6.968,0,0,0-5.362-2.062,19.786,19.786,0,0,0-8.645,2.051c-4.764,2.548-6.963,7.8-4.313,13.62l22.339-6.888" transform="translate(-3.712 -2.74)" fill="#12263f" fill-rule="evenodd"/>
        <path id="Trazado_707882" data-name="Trazado 707882" d="M9.567,44.084a9.854,9.854,0,0,0,.494,2.165,9.427,9.427,0,0,1,.5,1.956.482.482,0,0,0,.468.468.472.472,0,0,0,.468-.468c-.14-1.421-.871-2.7-1-4.121a.481.481,0,0,0-.468-.468.472.472,0,0,0-.468.468" transform="translate(-2.399 -10.938)" fill="#12263f"/>
        <path id="Trazado_707883" data-name="Trazado 707883" d="M25.082,40.208c.5,1.246,1.245,2.377,1.748,3.621a.484.484,0,0,0,.576.327.471.471,0,0,0,.327-.576c-.5-1.246-1.245-2.377-1.748-3.621a.482.482,0,0,0-.575-.327.472.472,0,0,0-.327.576" transform="translate(-6.284 -9.934)" fill="#12263f"/>
        <path id="Trazado_707884" data-name="Trazado 707884" d="M41.8,35.655c.623,1.126,1.1,2.322,1.624,3.5a.471.471,0,0,0,.641.168.479.479,0,0,0,.168-.641c-.521-1.175-1-2.371-1.624-3.5a.468.468,0,0,0-.808.473" transform="translate(-10.466 -8.765)" fill="#12263f"/>
        <path id="Trazado_707885" data-name="Trazado 707885" d="M58.249,30.209c.411,1.226.9,2.427,1.421,3.608a.472.472,0,0,0,.641.169.48.48,0,0,0,.168-.641c-.491-1.107-.942-2.234-1.327-3.384a.479.479,0,0,0-.575-.327.473.473,0,0,0-.327.576" transform="translate(-14.602 -7.427)" fill="#12263f"/>
        <path id="Trazado_707886" data-name="Trazado 707886" d="M17.635,44.488c-.015-.037-.012-.028.01.024l.037.09.063.158c.044.112.087.225.13.337.077.206.152.412.229.618a13.174,13.174,0,0,0,.53,1.271.471.471,0,0,0,.641.168.479.479,0,0,0,.168-.641c-.048-.1-.1-.2-.139-.3-.007-.016-.067-.153-.032-.071q-.035-.083-.067-.166c-.08-.2-.155-.4-.229-.6-.169-.459-.339-.915-.53-1.364a.469.469,0,0,0-.641-.168.483.483,0,0,0-.168.641" transform="translate(-4.408 -10.98)" fill="#12263f"/>
        <path id="Trazado_707887" data-name="Trazado 707887" d="M33.3,39.654a8.209,8.209,0,0,1,.647,1.182c.007.014.076.175.043.1q.027.063.052.126c.045.112.088.226.129.339.076.212.145.426.207.643a.468.468,0,0,0,.9-.249,9.441,9.441,0,0,0-1.171-2.609.468.468,0,1,0-.808.473" transform="translate(-8.333 -9.767)" fill="#12263f"/>
        <path id="Trazado_707888" data-name="Trazado 707888" d="M49.466,33.822a19.57,19.57,0,0,1,1.451,3.26.479.479,0,0,0,.576.327.473.473,0,0,0,.327-.576,20.926,20.926,0,0,0-1.546-3.483.468.468,0,1,0-.808.473" transform="translate(-12.389 -8.306)" fill="#12263f"/>
        <path id="Trazado_707889" data-name="Trazado 707889" d="M13.8,46.32c-.045-.106.018.048.025.067.013.036.027.072.04.108.029.082.056.166.082.25.046.154.088.309.127.465.08.322.151.646.241.966a.468.468,0,0,0,.9-.249c-.094-.331-.166-.668-.25-1a7.268,7.268,0,0,0-.359-1.077.466.466,0,0,0-.279-.215.479.479,0,0,0-.361.047.473.473,0,0,0-.215.279.554.554,0,0,0,.047.361" transform="translate(-3.446 -11.439)" fill="#12263f"/>
        <path id="Trazado_707890" data-name="Trazado 707890" d="M22.052,43.695c.141.326.3.644.449.967.037.079.073.158.108.238.017.039.036.079.052.118-.043-.109.007.019.016.04.065.162.123.325.172.492a.468.468,0,0,0,.9-.249,18.116,18.116,0,0,0-.89-2.078.466.466,0,0,0-.279-.215.479.479,0,0,0-.361.047.473.473,0,0,0-.215.279.549.549,0,0,0,.047.361" transform="translate(-5.515 -10.781)" fill="#12263f"/>
        <path id="Trazado_707891" data-name="Trazado 707891" d="M29.879,41.331a13.982,13.982,0,0,0,.8,2.078.467.467,0,0,0,.28.216.481.481,0,0,0,.36-.047.474.474,0,0,0,.215-.28.55.55,0,0,0-.047-.361c-.066-.154-.135-.309-.2-.463l-.106-.242-.025-.061c.025.061.028.068.009.021l-.044-.106a7.755,7.755,0,0,1-.333-1,.468.468,0,1,0-.9.249" transform="translate(-7.489 -10.215)" fill="#12263f"/>
        <path id="Trazado_707892" data-name="Trazado 707892" d="M37.876,38.83l.843,2.248a.48.48,0,0,0,.576.327.474.474,0,0,0,.327-.576l-.843-2.248a.468.468,0,1,0-.9.249" transform="translate(-9.492 -9.588)" fill="#12263f"/>
        <path id="Trazado_707893" data-name="Trazado 707893" d="M45.925,36.319a19.471,19.471,0,0,1,1.311,2.341.47.47,0,0,0,.641.168.481.481,0,0,0,.168-.641,19.325,19.325,0,0,0-1.311-2.341.468.468,0,1,0-.808.473" transform="translate(-11.5 -8.931)" fill="#12263f"/>
        <path id="Trazado_707894" data-name="Trazado 707894" d="M54.3,33.444c.22.352.452.7.658,1.06.094.166.184.336.262.512l.022.052c-.022-.055-.024-.057,0-.008s.036.093.052.14c.033.094.061.19.086.286a.468.468,0,0,0,.9-.249,8.274,8.274,0,0,0-1.171-2.266.468.468,0,0,0-.808.473" transform="translate(-13.6 -8.21)" fill="#12263f"/>
        <path id="Trazado_707895" data-name="Trazado 707895" d="M63.048,30.318a4.45,4.45,0,0,1,.663,1.232c.16.45.277.914.414,1.372a.468.468,0,1,0,.9-.249,8.355,8.355,0,0,0-1.171-2.828.481.481,0,0,0-.641-.168.473.473,0,0,0-.168.641" transform="translate(-15.793 -7.426)" fill="#12263f"/>
      </g>
    </g>
    <g id="Grupo_1002314" data-name="Grupo 1002314" transform="translate(1152.153 149.584) rotate(129)">
      <g id="Grupo_1002212" data-name="Grupo 1002212" clip-path="url(#clip-path-2)">
        <path id="Trazado_707910" data-name="Trazado 707910" d="M15,1.5C9.476,12.543,10.089,29.267,11.93,41.536" fill="none" stroke="#12263f" stroke-linecap="round" stroke-linejoin="round" stroke-width="3"/>
        <path id="Trazado_707911" data-name="Trazado 707911" d="M1.5,35.242c3.681,3.681,7.976,6.135,11.656,9.2a34.1,34.1,0,0,1,5.522-10.429" fill="none" stroke="#12263f" stroke-linecap="round" stroke-linejoin="round" stroke-width="3"/>
      </g>
    </g>
  </g>
</svg>
