<svg xmlns="http://www.w3.org/2000/svg" width="400" height="302.667" viewBox="0 0 400 302.667">
  <g id="Grupo_1005670" data-name="Grupo 1005670" transform="translate(-180 -2115.333)">
    <path id="Rectángulo_346838" data-name="Rectángulo 346838" d="M0,0H201A199,199,0,0,1,400,199v9a0,0,0,0,1,0,0H0a0,0,0,0,1,0,0V0A0,0,0,0,1,0,0Z" transform="translate(180 2210)" fill="#4db1f0" opacity="0.41"/>
    <g id="Grupo_1004667" data-name="Grupo 1004667" transform="translate(91.029 2087.211)">
      <ellipse id="Elipse_8479" data-name="Elipse 8479" cx="155.175" cy="18.123" rx="155.175" ry="18.123" transform="translate(133.676 279.209)" fill="#4db1f0"/>
      <g id="Grupo_1004603" data-name="Grupo 1004603" transform="translate(330.063 53.836)">
        <g id="Grupo_1004602" data-name="Grupo 1004602" transform="translate(0 0)">
          <g id="Grupo_1004579" data-name="Grupo 1004579" transform="translate(24.509 72.028)">
            <g id="Grupo_1004576" data-name="Grupo 1004576" transform="translate(13.599 66.249)">
              <g id="Grupo_1004567" data-name="Grupo 1004567" transform="translate(21.505 14.705)">
                <path id="Trazado_717591" data-name="Trazado 717591" d="M544.509,303.491l.333,7.045c.066,1.1.122,1.381-1.1,1.955-2.65,1.248-5.449,2.8-10.045,2.537-1.65-.093-3.65-1.156-3.467-2.217a18.338,18.338,0,0,1,4.271-8.893Z" transform="translate(-530.22 -303.491)" fill="#420b17"/>
                <g id="Grupo_1004566" data-name="Grupo 1004566" transform="translate(1.357 1.932)">
                  <g id="Grupo_1004561" data-name="Grupo 1004561" transform="translate(0 2.979)">
                    <g id="Grupo_1004560" data-name="Grupo 1004560">
                      <path id="Trazado_717592" data-name="Trazado 717592" d="M532.554,312.221a.232.232,0,0,1-.113-.439,10,10,0,0,1,3.537-.706,15.706,15.706,0,0,1,3.641.309.231.231,0,0,1-.094.453,16.11,16.11,0,0,0-3.461-.3l-.06,0a9.79,9.79,0,0,0-3.361.661A.23.23,0,0,1,532.554,312.221Z" transform="translate(-532.311 -311.059)" fill="#f0f3bd"/>
                    </g>
                  </g>
                  <g id="Grupo_1004563" data-name="Grupo 1004563" transform="translate(0.339 1.49)">
                    <g id="Grupo_1004562" data-name="Grupo 1004562">
                      <path id="Trazado_717593" data-name="Trazado 717593" d="M533.076,309.923a.231.231,0,0,1-.112-.439,9.964,9.964,0,0,1,3.537-.706,16.505,16.505,0,0,1,3.64.308.231.231,0,0,1-.094.453,16.208,16.208,0,0,0-3.461-.3l-.06,0a9.8,9.8,0,0,0-3.361.66A.217.217,0,0,1,533.076,309.923Z" transform="translate(-532.833 -308.765)" fill="#f0f3bd"/>
                    </g>
                  </g>
                  <g id="Grupo_1004565" data-name="Grupo 1004565" transform="translate(1.201)">
                    <g id="Grupo_1004564" data-name="Grupo 1004564">
                      <path id="Trazado_717594" data-name="Trazado 717594" d="M540.91,307.247a.248.248,0,0,1-.058,0,16.208,16.208,0,0,0-3.461-.3l-.06,0a11.609,11.609,0,0,0-2.867.478.231.231,0,1,1-.14-.441,12.036,12.036,0,0,1,2.982-.5,16.715,16.715,0,0,1,3.641.308.231.231,0,0,1-.036.458Z" transform="translate(-534.162 -306.469)" fill="#f0f3bd"/>
                    </g>
                  </g>
                </g>
              </g>
              <g id="Grupo_1004575" data-name="Grupo 1004575">
                <path id="Trazado_717595" data-name="Trazado 717595" d="M511.186,280.831l2.448,7.175c.232.681.2.855-.531,1.476-.786.664-2.11.783-3.706,1.859-.283.191-1.764,2.6-2.83,2.6h-7.876c-1.256,0-1.791-.084-1.558-1.135a17.559,17.559,0,0,1,4.117-8.018Z" transform="translate(-497.08 -280.831)" fill="#420b17"/>
                <g id="Grupo_1004574" data-name="Grupo 1004574" transform="translate(1.848 3.883)">
                  <g id="Grupo_1004569" data-name="Grupo 1004569" transform="translate(0 3.005)">
                    <g id="Grupo_1004568" data-name="Grupo 1004568">
                      <path id="Trazado_717596" data-name="Trazado 717596" d="M500.137,292.745a.231.231,0,0,1-.086-.434,9.969,9.969,0,0,1,3.511-.827,16.174,16.174,0,0,1,3.648.184.231.231,0,0,1,.189.267.225.225,0,0,1-.267.188,16.073,16.073,0,0,0-3.53-.18,9.771,9.771,0,0,0-3.336.775A.231.231,0,0,1,500.137,292.745Z" transform="translate(-499.928 -291.444)" fill="#f0f3bd"/>
                    </g>
                  </g>
                  <g id="Grupo_1004571" data-name="Grupo 1004571" transform="translate(0.288 1.503)">
                    <g id="Grupo_1004570" data-name="Grupo 1004570">
                      <path id="Trazado_717597" data-name="Trazado 717597" d="M500.58,290.43a.231.231,0,0,1-.085-.435,10.011,10.011,0,0,1,3.511-.825,16.26,16.26,0,0,1,3.648.184.231.231,0,1,1-.079.456,16.068,16.068,0,0,0-3.53-.18,9.77,9.77,0,0,0-3.336.775A.236.236,0,0,1,500.58,290.43Z" transform="translate(-500.371 -289.13)" fill="#f0f3bd"/>
                    </g>
                  </g>
                  <g id="Grupo_1004573" data-name="Grupo 1004573" transform="translate(1.437)">
                    <g id="Grupo_1004572" data-name="Grupo 1004572">
                      <path id="Trazado_717598" data-name="Trazado 717598" d="M502.351,287.788a.231.231,0,0,1-.045-.45,12.818,12.818,0,0,1,2.609-.483,16.174,16.174,0,0,1,3.649.184.231.231,0,0,1,.188.267.218.218,0,0,1-.267.188,16.16,16.16,0,0,0-3.53-.18,12.431,12.431,0,0,0-2.514.465A.225.225,0,0,1,502.351,287.788Z" transform="translate(-502.143 -286.814)" fill="#f0f3bd"/>
                    </g>
                  </g>
                </g>
              </g>
            </g>
            <g id="Grupo_1004578" data-name="Grupo 1004578" transform="translate(0 0)">
              <path id="Trazado_717599" data-name="Trazado 717599" d="M490.025,178.742c-5.111,8.345-13.108,22.578-13.838,30.569-.195,2.136-.769,5.093,13.372,40.641a42.921,42.921,0,0,0,8.246-2.072c6.348-2.374,8.277-4.5,8.277-4.5-5.261-13.228-10.97-28.667-12.06-33.179.676-2.923,3.8-9.4,7.873-16.542l8.239,66.465a13.964,13.964,0,0,0,5.936.871c7.755-.125,11.8-1.78,11.8-1.78L518.55,179.97Z" transform="translate(-476.124 -178.742)" fill="#e6b207"/>
              <g id="Grupo_1004577" data-name="Grupo 1004577" transform="translate(11.708 0.103)">
                <path id="Trazado_717600" data-name="Trazado 717600" d="M499.426,178.926a5.594,5.594,0,0,1-1.7,2.86,3.823,3.823,0,0,1-2.441.758,7.286,7.286,0,0,1-1.116-.092c.117-.2.228-.389.345-.579a3.676,3.676,0,0,0,2.836-.574,4.9,4.9,0,0,0,1.449-2.4Z" transform="translate(-494.167 -178.901)" fill="#c80"/>
                <path id="Trazado_717601" data-name="Trazado 717601" d="M544.939,260.309c-.185.049-.382.1-.6.148l-9-73.6c-2.57-.056-3.87-.885-4.522-2.08-.551-1.011-.638-3.3-.638-4.587h.622a12.639,12.639,0,0,0,.545,4.283c.586,1.119,1.74,1.71,3.919,1.767l-.721-5.887.622.025Z" transform="translate(-506.811 -179.353)" fill="#c80"/>
                <path id="Trazado_717602" data-name="Trazado 717602" d="M513.245,251.3c-.148.117-.32.234-.512.358-2.607-5.4-13.094-31.312-13.094-34.7,0-2.86,6.554-14.358,8.021-16.9a3.889,3.889,0,0,1-.611-.407,3.37,3.37,0,0,1-.795-.844l.031-.056,1.955.925,1.923.981-.012.031a.047.047,0,0,0-.012.025,3.5,3.5,0,0,1-1.153-.1,4.581,4.581,0,0,1-.77-.271c-1.393,2.417-7.959,13.938-7.959,16.626C500.255,220.28,510.594,245.79,513.245,251.3Z" transform="translate(-496.088 -185.868)" fill="#c80"/>
              </g>
            </g>
          </g>
          <g id="Grupo_1004585" data-name="Grupo 1004585" transform="translate(42.297 11.415)">
            <g id="Grupo_1004580" data-name="Grupo 1004580" transform="translate(6.025 18.655)">
              <path id="Trazado_717603" data-name="Trazado 717603" d="M519.851,121.79l-.261-7.7h-6.768v7.7Z" transform="translate(-512.821 -114.087)" fill="#c4814e"/>
              <path id="Trazado_717604" data-name="Trazado 717604" d="M512.821,114.088v5.694a6.2,6.2,0,0,0,6.425-5.7Z" transform="translate(-512.82 -114.086)" fill="#a8602a"/>
            </g>
            <path id="Trazado_717605" data-name="Trazado 717605" d="M520.171,95.692l0,4.08a9.337,9.337,0,0,1-9.3,9.329,5.592,5.592,0,0,1-5.589-5.575s-.005-8.236.012-8.448a7.448,7.448,0,0,1,14.87.614Z" transform="translate(-504.15 -86.362)" fill="#c4814e"/>
            <g id="Grupo_1004583" data-name="Grupo 1004583" transform="translate(2.888 10.276)">
              <path id="Trazado_717606" data-name="Trazado 717606" d="M515.626,109.7l.2.651a2.2,2.2,0,0,1-4.2,1.312l-.2-.652Z" transform="translate(-509.194 -104.168)" fill="#f0f3bd"/>
              <g id="Grupo_1004581" data-name="Grupo 1004581" transform="translate(1.381 1.291)">
                <path id="Trazado_717607" data-name="Trazado 717607" d="M511.272,106.955a.3.3,0,0,1-.217-.09l-.849-.85a.307.307,0,0,1,.03-.462,2.894,2.894,0,0,0,.8-2.075.309.309,0,0,1,.3-.314.3.3,0,0,1,.314.3,3.709,3.709,0,0,1-.787,2.341l.622.623a.308.308,0,0,1-.218.526Z" transform="translate(-510.114 -103.163)" fill="#a8602a"/>
              </g>
              <g id="Grupo_1004582" data-name="Grupo 1004582">
                <path id="Trazado_717608" data-name="Trazado 717608" d="M508.51,101.173a.524.524,0,0,0-.524.524v1.6a.524.524,0,0,0,1.047,0v-1.6A.524.524,0,0,0,508.51,101.173Z" transform="translate(-507.986 -101.173)" fill="#601222"/>
                <path id="Trazado_717609" data-name="Trazado 717609" d="M516.013,101.173a.524.524,0,0,0-.523.524v1.6a.523.523,0,0,0,1.047,0v-1.6A.524.524,0,0,0,516.013,101.173Z" transform="translate(-510.62 -101.173)" fill="#601222"/>
              </g>
            </g>
            <path id="Trazado_717610" data-name="Trazado 717610" d="M505.755,90.8a13.361,13.361,0,0,0,3.717.5c2.365.02,5.31-.481,5.76-.084,1.359,1.2-.059,5.627-.059,5.627l4.385,1.191s1.668-7.18.533-8.53a2.418,2.418,0,0,0-2.046-.816s.138-3.02-2.774-3.1c-1.046-.028-3.687-.039-5.8-.044-2.96-.007-5.529-.212-5.529-.212a1.947,1.947,0,0,0,.236,1.451,2.374,2.374,0,0,0,1,.915l-1.635.379a5.024,5.024,0,0,0,.838,1.672A4.661,4.661,0,0,0,505.755,90.8Z" transform="translate(-503.535 -85.338)" fill="#601222"/>
            <g id="Grupo_1004584" data-name="Grupo 1004584" transform="translate(12.476 10.218)">
              <path id="Trazado_717611" data-name="Trazado 717611" d="M527.7,105.921a2.774,2.774,0,1,1,.128-4.162A2.956,2.956,0,0,1,527.7,105.921Z" transform="translate(-522.761 -101.083)" fill="#c4814e"/>
              <path id="Trazado_717612" data-name="Trazado 717612" d="M528.01,103.646a2.541,2.541,0,0,0-2.788,2.319Z" transform="translate(-523.625 -101.981)" fill="#a8602a"/>
            </g>
          </g>
          <g id="Grupo_1004587" data-name="Grupo 1004587" transform="translate(33.771 35.85)">
            <path id="Trazado_717613" data-name="Trazado 717613" d="M517.182,142.691c.019.018.031.025.043.037,1.461,1.344,2.639,2.385,2.971,2.669.931.8,1.911,1.572,2.9,2.3l-.1,6.485s1.775,3.224,1.775,4.309a4.648,4.648,0,0,1-1.165,2.731,62.012,62.012,0,0,1-16.867,1.134,34.692,34.692,0,0,1-11.707-2.978s-.487-12.367-.363-20.818c-.944.136-1.9.259-2.855.358,3.4-4.759,2.115-11.553-1.424-13.508,1.171-.117,2.336-.259,3.415-.413,0,0,6.306-.949,8.384-1.233.4-.056.881-.111,1.406-.173-.08,1.208.215,3.489,3.6,3.544a7.854,7.854,0,0,0,6.356-3.44,11.175,11.175,0,0,1,4.71,2.189c1.942,1.584,7.577,6.553,7.577,6.553C521.627,132.087,517.4,138.874,517.182,142.691Z" transform="translate(-490.396 -123.202)" fill="#6e8700"/>
            <path id="Trazado_717614" data-name="Trazado 717614" d="M516.152,122.992a22.178,22.178,0,0,1,4.543.493,7.854,7.854,0,0,1-6.356,3.44c-3.385-.055-3.681-2.336-3.6-3.544A51.717,51.717,0,0,1,516.152,122.992Z" transform="translate(-497.534 -122.991)" fill="#c4814e"/>
            <g id="Grupo_1004586" data-name="Grupo 1004586" transform="translate(3.964 5.305)">
              <path id="Trazado_717615" data-name="Trazado 717615" d="M524.86,147.958l2.232,1.607,2.2,1.656-.037.049a5.1,5.1,0,0,1-1.35-.486,8.6,8.6,0,0,1-1.175-.724,8.81,8.81,0,0,1-1.038-.909,5.163,5.163,0,0,1-.866-1.144Z" transform="translate(-506.446 -137.061)" fill="#8ea800"/>
              <path id="Trazado_717616" data-name="Trazado 717616" d="M503.72,151.079s7.132,6.712,12.94,7.737Z" transform="translate(-499.038 -138.157)" fill="#8ea800"/>
              <path id="Trazado_717617" data-name="Trazado 717617" d="M498.489,131.185a35.52,35.52,0,0,0-1.155,4.961q-.221,1.256-.343,2.525c-.091.846-.121,1.7-.139,2.545h-.062a10.785,10.785,0,0,1-.284-2.589,16.043,16.043,0,0,1,.851-5.093c.147-.407.3-.812.461-1.212a10.772,10.772,0,0,1,.613-1.156Z" transform="translate(-496.505 -131.166)" fill="#8ea800"/>
            </g>
          </g>
          <g id="Grupo_1004592" data-name="Grupo 1004592">
            <path id="Trazado_717618" data-name="Trazado 717618" d="M475.844,135.089a38.637,38.637,0,0,1-11.923-.382,13.115,13.115,0,0,1-2.947-.962,30.073,30.073,0,0,1-8.249-6.436c-1.5-1.554-2.873-3.175-4.186-4.827a53.377,53.377,0,0,1-3.65-5.209l4.592-4.587c1.745.98,3.459,2.09,5.136,3.138l4.962,3.132c1.609,1.005,6.208,3.28,6.208,3.28s4.315-.2,8.624-.653h.007C477.959,123.536,479.242,130.33,475.844,135.089Z" transform="translate(-440.65 -83.524)" fill="#c4814e"/>
            <g id="Grupo_1004591" data-name="Grupo 1004591">
              <g id="Grupo_1004589" data-name="Grupo 1004589">
                <path id="Trazado_717619" data-name="Trazado 717619" d="M440.662,111.1l-2.306-1.375,14.376-23.184,1.484.885Z" transform="translate(-438.356 -74.346)" fill="#f0f3bd"/>
                <path id="Trazado_717620" data-name="Trazado 717620" d="M459.187,90.538l-1.59-.948,1.891-3.05,1.484.884Z" transform="translate(-445.111 -74.344)" fill="#c3cc8f"/>
                <g id="Grupo_1004588" data-name="Grupo 1004588" transform="translate(1.324)">
                  <path id="Trazado_717621" data-name="Trazado 717621" d="M462.933,79.881l5.055-7.931a6.733,6.733,0,0,0,1.047-3.313l.04-.89-.764.458a6.733,6.733,0,0,0-2.417,2.5l-4.571,8.219Z" transform="translate(-447.743 -67.747)" fill="#f0f3bd"/>
                  <path id="Trazado_717622" data-name="Trazado 717622" d="M453.981,84.708l-9.393-.478a6.735,6.735,0,0,0-3.4.726l-.794.4.775.438a6.734,6.734,0,0,0,3.365.868l9.4-.085Z" transform="translate(-440.396 -73.53)" fill="#f0f3bd"/>
                  <path id="Trazado_717623" data-name="Trazado 717623" d="M462.9,86.432l4.889,8.034a6.737,6.737,0,0,1,.978,3.334l.021.89-.754-.474a6.729,6.729,0,0,1-2.364-2.546l-4.4-8.313Z" transform="translate(-447.724 -74.307)" fill="#f0f3bd"/>
                </g>
                <path id="Trazado_717624" data-name="Trazado 717624" d="M462.481,86.5a1.342,1.342,0,1,1-.465-1.84A1.342,1.342,0,0,1,462.481,86.5Z" transform="translate(-445.949 -73.619)" fill="#c3cc8f"/>
                <path id="Trazado_717625" data-name="Trazado 717625" d="M462.266,86.522a.666.666,0,1,1-.231-.912A.665.665,0,0,1,462.266,86.522Z" transform="translate(-446.315 -73.985)" fill="#f0f3bd"/>
              </g>
              <g id="Grupo_1004590" data-name="Grupo 1004590" transform="translate(0.137 22.265)">
                <path id="Trazado_717626" data-name="Trazado 717626" d="M450.332,106.447a1.432,1.432,0,0,0-.942-.316l-.005,0a6.367,6.367,0,0,0-1.99-2.406c-1.535-1.234-3.6-2.351-4.6-1.17a2.01,2.01,0,0,0-.2,1.543,1.683,1.683,0,0,0-1.162.835,1.714,1.714,0,0,0-.152,1.6,1.826,1.826,0,0,0-1.321.84,1.9,1.9,0,0,0-.129,1.309,2.9,2.9,0,0,0-1.111.812c-.6.908.808,2.021.808,2.021a5.379,5.379,0,0,0,.651.453l-.005,0c.093.091,1.909,1.775,3.464,1.917a3.758,3.758,0,0,0,3.259-1.509,4.891,4.891,0,0,0,.561-.857h.006v0a.97.97,0,0,0,.917-.345l2.177-2.708A1.444,1.444,0,0,0,450.332,106.447Z" transform="translate(-438.567 -102.057)" fill="#c4814e"/>
                <path id="Trazado_717627" data-name="Trazado 717627" d="M450.714,107.728l-.056.025a2.076,2.076,0,0,1,.019.727.69.69,0,0,1-.123.271,3.042,3.042,0,0,1-.241.253,1.44,1.44,0,0,1-.524.339.834.834,0,0,1-.506-.006l-.117-.037a24.6,24.6,0,0,0-3.286-2.614.314.314,0,0,0-.426.1.3.3,0,0,0,.1.425,23.915,23.915,0,0,1,3.212,2.552v.006l.074.2a.948.948,0,0,1,.018.481,1.182,1.182,0,0,1-.24.481,2.078,2.078,0,0,1-.463.388,2.555,2.555,0,0,1-.548.252,28.064,28.064,0,0,0-2.978-2.454.308.308,0,1,0-.351.506,28.523,28.523,0,0,1,2.971,2.454s-.068.209-.086.271a1.235,1.235,0,0,1-.08.241,1.651,1.651,0,0,1-.289.45,1.187,1.187,0,0,1-.4.277,2.285,2.285,0,0,1-.548.178l-.031.006c-.474-.413-1.473-1.264-2.509-2a.312.312,0,0,0-.432.067.307.307,0,0,0,.074.432c.962.685,1.892,1.474,2.385,1.9a2.227,2.227,0,0,1-.407.426,1.275,1.275,0,0,1-.77.216,3.3,3.3,0,0,1-.931-.2,5.878,5.878,0,0,1-.925-.457l-.043.043a3.646,3.646,0,0,0,1.849.974,1.741,1.741,0,0,0,1.042-.173,2.358,2.358,0,0,0,.579-.493c.068-.068.13-.141.191-.21a2.107,2.107,0,0,0,.284-.056,2.822,2.822,0,0,0,.407-.123,1.721,1.721,0,0,0,.622-.407,2.163,2.163,0,0,0,.439-.689.959.959,0,0,0,.045.143.8.8,0,0,0,.417.361.6.6,0,0,0,.611-.1l.019-.058a.96.96,0,0,1-.506-.493,1.846,1.846,0,0,1-.2-.566,2.491,2.491,0,0,0,1.009-.779,1.446,1.446,0,0,0,.271-1.258.941.941,0,0,0-.068-.21.88.88,0,0,0,.222.012,1.23,1.23,0,0,0,.469-.111,1.74,1.74,0,0,0,.592-.5,1.2,1.2,0,0,0,.321-.709A1.888,1.888,0,0,0,450.714,107.728Z" transform="translate(-439.862 -103.667)" fill="#a8602a"/>
              </g>
            </g>
          </g>
          <g id="Grupo_1004601" data-name="Grupo 1004601" transform="translate(60.557 42.035)">
            <path id="Trazado_717628" data-name="Trazado 717628" d="M571.147,153.221c0,.234-3.563,1.492-3.927,1.628-1.27.469-2.552.888-3.84,1.276a51.758,51.758,0,0,1-8.8,1.917,18.217,18.217,0,0,1-7.528-.321,32.941,32.941,0,0,1-9.445-5.24c-.006,0-.006-.006-.012-.006-.992-.727-1.973-1.5-2.9-2.3-.333-.284-1.511-1.325-2.971-2.669-.012-.012-.025-.019-.044-.037.222-3.816,4.445-10.6,8.662-10.252l1.2,1.055c1.443,1.263,2.879,2.528,4.291,3.7s5.221,3.865,5.221,3.865,5.031.629,6.929.678l5.863.123c1.979.056,4.02.08,6.017.222Z" transform="translate(-531.673 -134.166)" fill="#c4814e"/>
            <g id="Grupo_1004600" data-name="Grupo 1004600" transform="translate(37.554)">
              <path id="Trazado_717629" data-name="Trazado 717629" d="M594.175,146.554c.369-2.156,1.284-4.338.723-5.356-.28-.509-1.948-1.4-2.154.015a14.282,14.282,0,0,1-1.432,3.955,7.436,7.436,0,0,0-.805,2.831l1.295,6.362,4.233-1.077Z" transform="translate(-589.882 -135.306)" fill="#c4814e"/>
              <g id="Grupo_1004594" data-name="Grupo 1004594">
                <path id="Trazado_717630" data-name="Trazado 717630" d="M602.067,133.4l-3.634-.436-3.634-.436-5.256,21.3,6.293.756,6.293.756Z" transform="translate(-589.543 -132.523)" fill="#34575c"/>
                <g id="Grupo_1004593" data-name="Grupo 1004593" transform="translate(4.517 2.448)">
                  <path id="Trazado_717631" data-name="Trazado 717631" d="M604.519,137.88l-8.014-1.032.134-.552,7.878,1.018Z" transform="translate(-596.505 -136.296)" fill="#244347"/>
                </g>
              </g>
              <g id="Grupo_1004599" data-name="Grupo 1004599" transform="translate(11.645 6.594)">
                <g id="Grupo_1004596" data-name="Grupo 1004596">
                  <g id="Grupo_1004595" data-name="Grupo 1004595">
                    <path id="Trazado_717632" data-name="Trazado 717632" d="M610.247,148.511a1.606,1.606,0,0,1,.438,1.319c-.148.986-1.449,1.659-1.449,1.659s.666,2.158-.82,2.311l-.006-2.348-.006-3.015a1.8,1.8,0,0,1-.911-1.622,1.613,1.613,0,0,1,.689-1.38,3.476,3.476,0,0,1,.2-2.682c.081-.185,2.639-.062,2.762,1.116a6.475,6.475,0,0,1-.265,1.707s.74.549.69,1.178A2.506,2.506,0,0,1,610.247,148.511Z" transform="translate(-607.489 -142.684)" fill="#c4814e"/>
                  </g>
                </g>
                <g id="Grupo_1004598" data-name="Grupo 1004598" transform="translate(0.421 2.461)">
                  <path id="Trazado_717633" data-name="Trazado 717633" d="M611.313,146.673c-.108-.1-.3-.286-2.882-.149a.308.308,0,0,0-.008.615.276.276,0,0,0,.04,0,10.756,10.756,0,0,1,2.457.014.308.308,0,0,0,.5-.248A.346.346,0,0,0,611.313,146.673Z" transform="translate(-608.138 -146.476)" fill="#a8602a"/>
                  <g id="Grupo_1004597" data-name="Grupo 1004597" transform="translate(0.185 2.984)">
                    <path id="Trazado_717634" data-name="Trazado 717634" d="M610.575,151.766a.3.3,0,0,1-.086-.012,16.269,16.269,0,0,0-1.751-.062h-.006a.308.308,0,0,1-.308-.308.3.3,0,0,1,.315-.309,14.536,14.536,0,0,1,1.923.086.309.309,0,0,1-.086.6Z" transform="translate(-608.424 -151.075)" fill="#a8602a"/>
                  </g>
                  <path id="Trazado_717635" data-name="Trazado 717635" d="M610.018,156.159a.305.305,0,0,1-.395.173,2.145,2.145,0,0,0-.715-.043v-.61a2.226,2.226,0,0,1,.937.08A.307.307,0,0,1,610.018,156.159Z" transform="translate(-608.409 -149.703)" fill="#a8602a"/>
                </g>
              </g>
            </g>
          </g>
        </g>
        <path id="Trazado_717636" data-name="Trazado 717636" d="M525.964,209.2a.925.925,0,0,0-1.841.182l.993,10.056H489.251l-1.01-10.238a.925.925,0,0,0-1.841.182l14.746,149.436a.926.926,0,0,0,.92.834c.03,0,.062,0,.092,0a.926.926,0,0,0,.829-1.012l-1.449-14.689H537.4l1.467,14.871a.926.926,0,0,0,.919.834c.031,0,.062,0,.092,0a.926.926,0,0,0,.829-1.012Zm1.572,34.77H491.672l-1.028-10.417h35.864Zm.182,1.849,1.028,10.417H492.882l-1.028-10.417Zm1.21,12.266,1.028,10.416H494.093l-1.028-10.416Zm1.211,12.265,1.028,10.417H495.3l-1.028-10.417Zm1.21,12.266,1.028,10.416H496.514l-1.028-10.416Zm1.21,12.266,1.028,10.416H497.724L496.7,294.879Zm1.21,12.265,1.028,10.417H498.934l-1.028-10.417ZM499.117,319.41h35.865l1.028,10.416H500.145ZM525.3,221.283l1.028,10.417H490.462l-1.028-10.417Zm-23.943,120.81-1.027-10.416h35.864l1.028,10.416Z" transform="translate(-455.221 -117.113)" fill="#34575c"/>
      </g>
      <g id="Grupo_1004621" data-name="Grupo 1004621" transform="translate(174.237 28.122)">
        <g id="Grupo_1004606" data-name="Grupo 1004606" transform="translate(1.302 34.933)">
          <g id="Grupo_1004604" data-name="Grupo 1004604" transform="translate(18.447)">
            <path id="Trazado_717637" data-name="Trazado 717637" d="M285.753,107.054c15.175,22.924,2.689,57.914,2.689,57.914s-37.087-2.176-52.261-25.1-2.689-57.915-2.689-57.915S270.58,84.13,285.753,107.054Z" transform="translate(-228.661 -81.954)" fill="#6e8700"/>
            <path id="Trazado_717638" data-name="Trazado 717638" d="M290.66,165.364l-8.89-13.431c-1.309-8.7,4.949-16.105,5.013-16.179a.462.462,0,0,0-.7-.6c-.254.294-5.792,6.837-5.4,15.136l-6.833-10.323c-2.7-11.767,8.814-23.416,8.931-23.533a.462.462,0,0,0-.653-.655c-.464.462-10.718,10.832-9.527,22.3l-7.768-11.735c-2.7-11.766,8.814-23.415,8.931-23.532a.463.463,0,1,0-.653-.655c-.464.463-10.718,10.832-9.527,22.3l-8.861-13.386c-1.308-8.7,4.949-16.1,5.012-16.178a.462.462,0,1,0-.7-.6c-.254.294-5.791,6.836-5.4,15.136l-14.2-21.458a.462.462,0,1,0-.771.511l14.2,21.458c-7.489-3.6-15.674-1.06-16.044-.941a.462.462,0,0,0,.282.881c.092-.03,9.34-2.9,16.851,1.706l8.86,13.386c-10.093-5.577-23.644-.189-24.251.058a.462.462,0,1,0,.348.857c.153-.062,15.374-6.11,25.152.972l7.767,11.734c-10.092-5.576-23.644-.189-24.251.058a.462.462,0,0,0,.348.857c.153-.062,15.367-6.114,25.152.973l6.833,10.323c-7.487-3.6-15.674-1.058-16.044-.94a.462.462,0,1,0,.282.881c.093-.029,9.35-2.9,16.852,1.706l8.891,13.431a.461.461,0,0,0,.385.207.456.456,0,0,0,.255-.077A.462.462,0,0,0,290.66,165.364Z" transform="translate(-231.412 -83.992)" fill="#8ea800"/>
          </g>
          <g id="Grupo_1004605" data-name="Grupo 1004605" transform="translate(0 57.291)">
            <path id="Trazado_717639" data-name="Trazado 717639" d="M237.143,171.438C254.336,176.782,262.5,199.7,262.5,199.7s-19.716,14.258-36.908,8.914-25.352-28.266-25.352-28.266S219.95,166.094,237.143,171.438Z" transform="translate(-200.235 -170.239)" fill="#8ea800"/>
            <path id="Trazado_717640" data-name="Trazado 717640" d="M263.073,200.993l-10.051-3.124c-4.218-3.843-4.113-10.132-4.111-10.2a.4.4,0,0,0-.8-.021,15.867,15.867,0,0,0,3.34,9.727l-7.408-2.3c-6.185-4.822-5.178-15.432-5.167-15.539a.4.4,0,0,0-.358-.439.407.407,0,0,0-.439.358c-.043.421-.922,9.66,4.167,15.063l-8.419-2.616c-6.186-4.822-5.178-15.433-5.167-15.54a.4.4,0,0,0-.8-.082c-.043.421-.922,9.66,4.167,15.063l-9.654-3c-4.219-3.843-4.114-10.131-4.112-10.195a.4.4,0,0,0-.8-.021,15.862,15.862,0,0,0,3.341,9.727l-15.777-4.9a.4.4,0,0,0-.238.765l15.777,4.9a15.865,15.865,0,0,0-8.265,6.119.4.4,0,0,0,.117.554.4.4,0,0,0,.218.065.4.4,0,0,0,.336-.182c.034-.053,3.5-5.291,9.17-6.066l9.65,3c-7.254,1.566-11.768,9.675-11.971,10.047a.4.4,0,0,0,.7.384c.052-.094,5.229-9.406,13.066-9.872l8.419,2.617c-7.255,1.566-11.768,9.675-11.971,10.047a.4.4,0,0,0,.7.384c.052-.094,5.229-9.406,13.066-9.873l7.408,2.3a15.868,15.868,0,0,0-8.265,6.119.4.4,0,1,0,.672.437c.034-.053,3.515-5.293,9.17-6.067l10.047,3.123a.4.4,0,0,0,.237-.765Z" transform="translate(-201.734 -172.234)" fill="#6e8700"/>
          </g>
        </g>
        <g id="Grupo_1004611" data-name="Grupo 1004611" transform="translate(94.951)">
          <g id="Grupo_1004608" data-name="Grupo 1004608">
            <path id="Trazado_717641" data-name="Trazado 717641" d="M356.61,83.609l-5.956.707-5.956.707-.151,35.956,10.314-1.225,10.314-1.225Z" transform="translate(-344.548 -47.602)" fill="#34575c"/>
            <g id="Grupo_1004607" data-name="Grupo 1004607" transform="translate(0.132 40.136)">
              <path id="Trazado_717642" data-name="Trazado 717642" d="M357.913,90.872l-13.162,1.449V91.39l12.94-1.418Z" transform="translate(-344.751 -89.972)" fill="#244347"/>
            </g>
            <path id="Trazado_717643" data-name="Trazado 717643" d="M408.335,29.667c.372,1.027-.393,2.1-1.151,2.879a28.822,28.822,0,0,1-8.829,6.178,2.554,2.554,0,0,0-1.45,1.128c-.343.811.266,1.684.693,2.464a6.521,6.521,0,0,1-3.735,8.967c-3.736,1.1-7.618-1.423-11.5-1.158s-6.962,3.149-9.875,5.709a10.633,10.633,0,0,1-2.88,1.99,16.17,16.17,0,0,1-4.062.74,18.688,18.688,0,0,0-11.309,6.141l-1.063.128-1.463.173c.538-2.737-.088-5.77.652-8.514a8.859,8.859,0,0,1,7.466-6.343c2.913-.293,5.823.905,8.746.654,4.631-.388,8.116-4.174,11.444-7.414a75.768,75.768,0,0,1,18.718-13.384c2.4-1.219,5.1-2.328,7.718-1.7A2.531,2.531,0,0,1,408.335,29.667Z" transform="translate(-347.061 -28.122)" fill="#f0f3bd"/>
          </g>
          <g id="Grupo_1004610" data-name="Grupo 1004610" transform="translate(22.598 27.831)">
            <path id="Trazado_717644" data-name="Trazado 717644" d="M395.254,94.875l-4.774-.477-4.774-.477-6.334,28.059,8.268.827,8.268.827Z" transform="translate(-379.371 -79.053)" fill="#4c6e73"/>
            <g id="Grupo_1004609" data-name="Grupo 1004609" transform="translate(5.414 18.023)">
              <path id="Trazado_717645" data-name="Trazado 717645" d="M398.249,99.441l.021.925L387.715,99.7l.208-.916Z" transform="translate(-387.715 -98.782)" fill="#3d6166"/>
            </g>
            <path id="Trazado_717646" data-name="Trazado 717646" d="M393.942,86.19a18.143,18.143,0,0,1,1.007-4.909,8.681,8.681,0,0,1,5.31-5.488c2.352-.691,4.924,0,7.305-.577,2.544-.62,4.517-2.594,6.876-3.73a2.952,2.952,0,0,1,2.877-.161A2.263,2.263,0,0,1,418.1,72.4a4.719,4.719,0,0,1-1.631,5.05,12.315,12.315,0,0,1-5.14,2.246,18.444,18.444,0,0,0-5.324,1.851,6.436,6.436,0,0,1,5.78,2.105c-1.256,1.111-3.178.348-4.811-.035a9.34,9.34,0,0,0-7.634,1.6,6.358,6.358,0,0,1-2.25,1.287Z" transform="translate(-384.486 -71.01)" fill="#f0f3bd"/>
          </g>
        </g>
        <g id="Grupo_1004619" data-name="Grupo 1004619" transform="translate(0 35.825)">
          <circle id="Elipse_8480" data-name="Elipse 8480" cx="82.5" cy="82.5" r="82.5" transform="translate(0 116.673) rotate(-45)" fill="#029083"/>
          <path id="Trazado_717647" data-name="Trazado 717647" d="M415.887,258.209a82.5,82.5,0,1,1-164.5-9.075,82.507,82.507,0,0,0,164.01,0A83.08,83.08,0,0,1,415.887,258.209Z" transform="translate(-216.716 -141.538)" fill="#02c373" opacity="0.3" style="mix-blend-mode: multiply;isolation: isolate"/>
          <g id="Grupo_1004618" data-name="Grupo 1004618" transform="translate(40.198 55.976)">
            <g id="Grupo_1004612" data-name="Grupo 1004612" transform="translate(0 2.072)" opacity="0.3" style="mix-blend-mode: multiply;isolation: isolate">
              <path id="Trazado_717648" data-name="Trazado 717648" d="M462.307,235.965a83.735,83.735,0,0,1-.431,8.476c-.469,1.042-1.091,1.745-1.9,1.751-3.156.025-3.6-6.092-4.352-8.187-1.184-3.317-2.774-6.06-6.221-7.4-1.344-.524-11.121-2.929-11.275-2.546-.167.407,6.084,3.07,6.263,5.191.289,3.441-5.055,6.147-7.718,6.794-3.964.974-5.5-1.042-6.732-4.568-.284-.82-3.138-9.494-5.432-6.984-1.233,1.344,1.7,5.53,2.411,6.67.863,1.393,1.769,2.83,2.681,4.18,2.053,3.034,2.534,2.75,5.678,3.582,4.26,1.134,3.014,3.89.635,6.8-3.335,4.088-4.975,5.968-5.16,11.517-.167,5.012-2.084,6.035-4.063,10.252-1.473,3.151-2.879,6.726-5.055,9.611-2.084,2.762-7.5,6.442-10.8,3.711-2.774-2.3-4.118-12.483-4.118-15.966-.006-1.85,1.036-3.557.783-5.388-.308-2.245-2.034-3.589-2.935-5.537-1.782-3.834.727-8.809-4.963-9.6-4.5-.629-8.8,2.17-12.724-1.054-4.3-3.533-4.124-5.894-3.267-10.925.814-4.8,3.341-6.522,5.505-10.548,2.6-4.84,6.516-4.858,11.546-5.758,5.524-.986,5.142,2.484,10.031,3.84a32.678,32.678,0,0,0,8.612.888c2.01-.056,5.222-.13,5.407-2.805.136-1.973-1.221-2.214-2.639-2.873a29.356,29.356,0,0,0-5.228-1.714c-1.424.068-.2,2.454-2.6,2.114-1.226-.173-.992-2.379-2.533-2.343-1.967.049-3.4,4.8-4.439,1.276-.142-.487,1.319-1.153.955-2.411-.2-.7-2.57-2.515-3.255-2.65-3.434-.654-6.017,4.358-8.587,5.905-3.958,2.386-7.047-.3-5.986-4.808.66-2.787,1.412-1.751,3.262-3.071.629-.443,1.245-.061,1.757-.912.426-.69-.407-1.825-.191-2.132,1.572-2.306,4.987-3.8,7.145-6.3,3.662-4.229,2.719.463,6.788.685,3.07.166,5.672-5.739,3.7-8.119-1.825-2.206-1.332,3.748-2.848,4.981-2.626,2.133-1.781.062-3.471-.573-.111-.043-1.042-.956-1.363-1.122-.709-.37-1.763.87-2.632.548-4.352-1.591,1.744-5.1,3.341-6.535,4.827-4.358,7.016-3.97,13.248-3.378,5.376.518,10.8,1.282,15.757-1.307,3.705-1.929,6.362-2.151,10.006.709a7.273,7.273,0,0,0,2.6.869A82.131,82.131,0,0,1,462.307,235.965Z" transform="translate(-303.335 -177.342)" fill="#02c373"/>
              <path id="Trazado_717649" data-name="Trazado 717649" d="M347.245,176.685c-3.341,3.015-4.18,7.065-8.317,9.154-3.162,1.6-6.171,2.386-9.173,4.334-3.341,2.17-8.15,2.4-7.478-3.107.363-3,3.317-4.211.968-7.139a15.4,15.4,0,0,1-2.533-.777c-.894-.432-1.085-.956-.586-1.572a3.81,3.81,0,0,0-2.293-.66c-1.066-.068-3.877.912-4.309,2.047-.623,1.646.838,2.182,1.788,3.23,2.577,2.848,2.842,2.694.284,5.3-1.585,1.621-2.047,2.429-4.322,2.108-.5-.068-2.607-2.133-2.965-1.874,2.873-2.059,3.7-6.59-.13-3.335-.592.506-4.3,7.57-5.721,3.792-.548-1.443,4.149-4.685,2.053-6.048-1.955-1.263-2.614,4.864-3.033,5.339-1.64,1.856-6.584,1.548-7.25,4.587-1.141,5.167,6.547,4.624,8.853,2.115,1.128-1.227,1.929-3.939,3.692-4.4,2.744-.722,1.585.561,3.027,1.664,1.707,1.295.6.543,2.515.666,2.01.136,1.184-2.034,2.725.734,1.029,1.843,1.628,7.293,1.128,9.234-1.276,4.951-2.3.938-4.772.247-3.532-.992-.894,1.763-1.892,3.576-.222.4-4,2.028-4.482,2.336a26.905,26.905,0,0,0-6.812,5.739c-2.324,2.836-5.4,4.679-6.517,8.236-.314,1.011.228,2.934-1.307,3.163-1.369.21-1.436-2.682-2.262-3.317-6.794-5.234-16.9,8.674-8.317,8.489,1.171-.03,2.435-1.64,3.637-.814.727.5.247,3.095.759,3.853.2.308,1.189.092,1.411.413.833,1.221.4,1.3.734,1.844.308.506,1.9,4.1,1.67,4.562-1.042,2.145-3.477-.857-4.518-1.585-2.639-1.825-5.178-2.552-8.193-3.5a8.458,8.458,0,0,1-6.084-5.351,63.321,63.321,0,0,0-3.206-5.543c-.136,1.221,1.356,3.465-.45,4.02-1.788.554-2.565-2.06-2.928-3.243-.69-2.25-.543-4.772-1.171-7.083-.764-2.786-1.264-3.847-.031-6.7.863-2.009,1.733-3.254,2.182-5.462.185-.894,1.726-5.283,1.529-5.831-1.029-2.886-3.828,1.436-4.864.394-.037-.037-.074-.074-.111-.117a82.3,82.3,0,0,1,10.246-18.2,22.261,22.261,0,0,0,4.007.339c2.232-.086,14.783,2.706,14.345-1.381.012.111-3.724,1.319-4.143.512-1.165-2.208,5.524-2.442,6.189-2.349.919.13,4.445.432,5.117,1.128.7.727.247,1.609.715,2.324.407.629-1.054,3.323,1.664,2.034,1.948-.918.7-1.48.9-2.565.315-1.633-.659-2.108,1.048-3.958,1.116-1.208,2.966-1.714,4.457-2.226,9.186-3.138,18.13-2.016,27.575-2.934,4.18-.406,8.144-.055,12.293-.3C348.854,172.579,351.147,173.177,347.245,176.685Z" transform="translate(-260.173 -172.781)" fill="#02c373"/>
              <path id="Trazado_717650" data-name="Trazado 717650" d="M397.144,211.653c1.934-.313,2.121-4.757,3.106-1.94-.02-.057-1.016,3.57-1.277,3.134,1,1.661,4.846-1.629,4.921-2.879.055-.925-2.75-5.18-3.472-5.267C398.3,204.446,393.513,212.24,397.144,211.653Z" transform="translate(-307.796 -183.985)" fill="#02c373"/>
              <path id="Trazado_717651" data-name="Trazado 717651" d="M337.564,287.146c-3.439-2.339-7.181-2.81-10.315-5.761-2.7-2.539-5.047-5.069-8.325-6.933-2.842-1.617-6-2.835-9.147-1.4-3.617,1.648-3.709,4.885-4.785,8.175-.518,1.581-1.772,3.2-2.156,4.769-.579,2.367.406,2.184.783,4.37.329,1.911-.639,3.019.416,4.8.752,1.272,2.533,1.89,3.628,2.758,5.885,4.664,3.282,11.458,4.774,17.915,1.311,5.672,1.4,15.428,7.893,18.267,4.334,1.9,3.463-1.06,2.669-3.966-.827-3.028-.921-5.317.527-8.192,1.6-3.17,4.295-5.672,5.961-8.843.881-1.676,1.378-3.665,2.554-5.175.912-1.171,2.441-1.629,3.36-2.762,2.415-2.976,1.785-6.629,2.69-10.15C338.817,292.2,340.757,289.32,337.564,287.146Z" transform="translate(-275.088 -207.759)" fill="#02c373"/>
            </g>
            <g id="Grupo_1004617" data-name="Grupo 1004617" transform="translate(0.727)">
              <g id="Grupo_1004616" data-name="Grupo 1004616">
                <g id="Grupo_1004613" data-name="Grupo 1004613">
                  <path id="Trazado_717652" data-name="Trazado 717652" d="M462.4,234.668q0,4.18-.407,8.249c-.252.185-.37.493-.653.351-.851-.419-1.806-.382-2.6-1.2-.863-.888-1.091-2.86-1.437-3.989-.974-3.175-1.732-6.646-4.3-8.976-2.256-2.034-4.944-2.053-7.774-2.762-1.973-.5-3.909-1.122-5.863-1.7a.447.447,0,0,0-.333.825c2.762,1.394,7.071,2.041,5.844,5.944-.906,2.9-8.384,7.139-11.361,5.468-4.093-2.3-2.164-9.376-7.022-11.454-3.909-1.67.925,6.522,1.862,7.663,1.474,1.794,2.374,4.463,4.051,6,1.8,1.646,3.982-.08,5.573,1.067,2.934,2.1-1.282,6.559-2.922,7.946-3.841,3.237-3.563,6.991-3.613,11.707-.025,3.261-.37,3.8-2.633,6.1-1.917,1.96-1.171,2.836-2.071,5.036-.481,1.153-1.664,1.72-2.311,2.818-.456.783-.616,1.744-1.048,2.552a11.092,11.092,0,0,1-3.841,4.217c-3.021,1.966-7.077,3.68-8.92-.222-1.313-2.768-1.511-6.3-2.059-9.26-.419-2.275-1.609-4.815-.962-7.127.77-2.768,1.226-3.175-.3-6.011-.981-1.819-2.528-3.125-2.842-5.234-.351-2.337.845-4.889-1.393-6.652-1.541-1.221-3.909-.814-5.727-.783-2.256.037-5.049.986-7.219.413-2-.524-3.243-2.336-4.587-3.779-2.1-2.244-2.651-2.966-1.744-5.869.74-2.374.469-5.24,1.541-7.466.807-1.665,2.688-2.238,3.557-3.717,1.171-2,.968-3.9,3.064-5.456,2.792-2.071,7.552-1.874,10.942-2.842,3.3-.949,3.144.666,5.376,2.676a7.35,7.35,0,0,0,4.907,1.72c2.219.1,13.434,2.8,12.132-3.132-.616-2.829-5.394-1.263-7.336-3.434a.448.448,0,0,0-.758.154c-.358,1.1-.69,2.4-2.263,1.825-1.128-.407-.844-2.355-2.2-2.5-.574-.062-5.277,5.284-4.772,1.437.173-1.3,1.677-.123,1.313-1.886-.123-.574-2.916-2.953-3.613-3.175-2.491-.8-5.973,4.051-8,5.518-1.868,1.35-4.371,2.626-6.017.277-.888-1.263-.9-5.141-.062-6.485,1.5-2.4,4.315-.111,4.79-2.725.16-.875-.912-1.51-.314-2.5.5-.82,2.324-.981,3.138-1.492a20.04,20.04,0,0,0,3.447-3.335c.289-.321,1.825-2.805,2.324-2.818,2.232-.055,3.533,4.309,6.621,2.633,1.683-.907,2.454-4.291,2.343-6.079-.043-.617.056-1.93-.684-2.257-2.38-1.047-.875,2.146-.907,2.361-.215,1.511-2.651,5.53-4.537,3.915-.851-.722-.16-2.1-1.43-2.528-.968-.327-2.071.962-3.138.6-4.507-1.559,1.128-4.463,2.213-5.419,2.14-1.886,2.688-3.724,5.7-4.827,3.082-1.134,4.8-.333,7.768.259,1.806.363,3.625-.086,5.45.111,1.714.185,3.255.746,5.018.623a15.476,15.476,0,0,0,6.2-1.967c1.06-.573,2.219-1.794,3.434-1.973,2.466-.364,3.754,2.559,6.19,2.509.148-.006.24.136.382.172h.006A82.153,82.153,0,0,1,462.4,234.668Z" transform="translate(-304.151 -173.969)" fill="#b6c302"/>
                  <path id="Trazado_717653" data-name="Trazado 717653" d="M348.255,173.717a16.387,16.387,0,0,0-4.285,5.844c-1.307,3.187-7.786,4.488-10.591,5.881-3.014,1.5-6.165,6.023-9.223,2.2-3.15-3.933,2.214-6.473,1-9.771-.524-1.43-2.417-.986-3.433-1.689-1.184-.82-.894-1.369-.586-1.572a.193.193,0,0,0-.018-.314c-1.763-1.091-5.622.32-6.584,1.7-1.356,1.96,3.465,3.637,4.087,5.813.555,1.955-.567,1.523-2.016,2.719-.993.814-1.739,2.5-3.249,2.441-1.677-.062-2.158-1.979-3.914-1.868a.186.186,0,0,1-.123-.339c1.159-.833,3.15-2.053,3.033-3.237-.321-3.125-3-.364-3.631.419-.616.758-1.35,3.008-1.837,3.36-.413.3-2.8,1.1-3.347.376-.764-1.017,3.9-5.677,1.985-6.51-1.64-.709-2.238,2.337-2.534,3.323-.321,1.079.808.45.086,1.621a8.93,8.93,0,0,1-2.077,1.03c-2.805,1.387-8.674,3.569-4.322,6.935,3.761,2.91,6.227,1.153,8.354-2.207.82-1.307,2.232-3.452,4.032-3.384,2.4.08,1.066,2.866,2.786,3.323,1.492.395,2.1-2.583,3.594-1.56.53.364.8,2.818.912,3.409.358,1.973,1.548,7.613.29,9.371-2.238,3.132-4.562-4.851-6.418-1.276-.462.888.833,1.628.635,2.336-.413,1.5-.426.518-1.837,1.344-1.541.907-2.984,1.775-4.463,2.817a22.09,22.09,0,0,0-4.328,3.317c-1.208,1.418-1.634,2.928-3.07,4.106-1.955,1.59-3.52,2.047-4.334,4.74-.321,1.079.148,3.909-1.43,3.989s-1.152-2.219-1.806-3c-1.184-1.406-4.241-.981-5.968-.74-3.206.45-9.4,4.981-5.092,8.643,2.207,1.874,5.554-2.718,6.331.234.3,1.11-.832,1.738-.178,2.836.129.216,1.8.536,1.942.653,2.177,1.782.241.962.777,2.811.308,1.06,2.522,3.119,1.511,4.019-1.437,1.264-3.36-1.258-4.4-2.01a18.067,18.067,0,0,0-6.258-3.088c-1.954-.506-3.89-.512-5.5-1.874-2.891-2.448-2.8-6.707-5.4-9.531a.189.189,0,0,0-.326.105c-.16,1.467,1.461,3.5-.45,4.019-1.769.487-2.676-2.022-2.928-3.243-.537-2.6-.136-4.574-1.171-7.083-.888-2.152-1.523-3.786-.419-6.036.992-2.028,2.25-2.873,2.5-5.234a17.238,17.238,0,0,1,.894-5.234c.69-1.751,1.8-2.41-.463-2.509-1.085-.056-2.4.918-3.372,1.621-.148.105-.117-.173-.3-.2a.035.035,0,0,1-.025-.006,82.5,82.5,0,0,1,10.357-17.582c3.329-.888,9.482-.117,12.742.148,1.973.16,5.733,1.276,5.388-1.929-.012-.093-3.662,1.43-4.143.511-.284-.536,2.38-2.385,3.052-2.54,1.8-.419,4.482.623,6.245.881,2.67.4,2.367.308,2.725,2.763.154,1.073-1.029,1.344.358,2.108.7.388,2-.3,2.355-.882,1.055-1.744-1.233-1.794-.635-3.483,1.436-4.038,7.287-4.7,10.6-5.7,8.717-2.632,17.539-.518,26.231-2.121a18.912,18.912,0,0,1,5.918.327c1.708.215,6.048-.919,7.429-.136C352.293,171.264,349.543,172.558,348.255,173.717Z" transform="translate(-261.294 -169.587)" fill="#b6c302"/>
                  <path id="Trazado_717654" data-name="Trazado 717654" d="M397.973,208.749c1.021-.165,2.269-4.032,3.2-2.821.867,1.133-.745.751-.783,1.518-.014.295.486,1.75.55,1.469-.1.432-2.293.97-.362,1.323.692.127,2.377-.852,2.875-1.22,2.221-1.64,1.181-2.2-.01-4.1-1.4-2.229-1.2-4.742-3.929-2.092C398.78,203.539,394.039,209.386,397.973,208.749Z" transform="translate(-308.736 -180.858)" fill="#b6c302"/>
                  <path id="Trazado_717655" data-name="Trazado 717655" d="M338.4,284.266c-2.393-1.628-5.14-1.9-7.516-3.384-2.585-1.614-4.333-4.437-6.785-6.3-3.816-2.892-9.5-7.114-14.3-4.03-2.143,1.378-2.968,3.385-3.523,5.767a24.764,24.764,0,0,1-1.065,4c-.555,1.336-1.9,2.771-1.925,4.26-.02,1.319.884,1.749,1.168,2.9.3,1.2-.453,2.3-.185,3.526.519,2.378,3.743,3.385,5.354,4.9,3.729,3.5,2.973,7.432,2.9,12.029-.049,2.912.889,5.224,1.5,8.023.691,3.153.381,6.124,1.962,9.052,1.107,2.05,3.077,5.095,5.181,6.217,2.482,1.324,4.6.548,3.413-2.1-2.633-5.894-1.613-8.944,2.378-13.752a32.626,32.626,0,0,0,5.071-8.9c1.16-2.851,3.771-2.921,5.175-5.441,1.448-2.6.85-6.06,1.724-8.89C339.842,289.183,341.654,286.48,338.4,284.266Z" transform="translate(-276.037 -204.656)" fill="#b6c302"/>
                </g>
                <g id="Grupo_1004615" data-name="Grupo 1004615" transform="translate(3.245 3.488)">
                  <g id="Grupo_1004614" data-name="Grupo 1004614">
                    <path id="Trazado_717656" data-name="Trazado 717656" d="M415.786,281.574c-2.1,0-3.338-14.025-3.234-15.709.186-3.015.685-4.479-.806-7.41-1.292-2.539-2.155-3.448-2.488-6.322-1.67-14.411-16.409-1.733-20.85-11.4a1.268,1.268,0,0,1-.059-.9c.321-1.075.741-4.358.81-4.707.626-3.186,1.709-3.6,3.52-5.993,1.088-1.438,1.326-3.7,2.53-4.945,1.438-1.49,4.053-1.544,5.958-1.879,1.548-.273,3.772-1.079,5.067-.626,1.49.52,2.794,2.846,4.515,3.551,3.069,1.259,8,1.674,11.63,1.488a1.17,1.17,0,0,1,1.247,1.239c-.24,5.626,6.764,15.1,11.937,16.694a1.205,1.205,0,0,1,.629,1.863c-2.537,3.456-5.428,5.393-5.964,10.508-.391,3.73.189,5.607-1.889,8.722C425.351,270.228,422.721,281.574,415.786,281.574Zm21.14-45.4c-1.639,0-2.033-4.752-2.587-6.019a10.266,10.266,0,0,0-4.154-5.2,1.213,1.213,0,0,1-.421-1.737c4.71-7.125-9.184-9.661-13.051-9.708-3.741-.045-5.507-3.8-9.127-4.35-4.76-.724-6.72,4.093-10.078,6.265a1.2,1.2,0,0,1-1.846-1.128c.133-.822,1.046-.31,2.1-1.21a13.514,13.514,0,0,0,3.081-2.918,1.318,1.318,0,0,0,.164-.307,3.577,3.577,0,0,0,.212-1.025,1.234,1.234,0,0,1,.7-1.077,7.27,7.27,0,0,0,2.021-1.381,17,17,0,0,0,2.681-2.758,1.208,1.208,0,0,1,1.65-.251c7.458,5.58,12.716-6.46,9.7-11.576a1.2,1.2,0,0,1,1.282-1.8,20.5,20.5,0,0,0,3.092.537c2.709.159,5.579.611,8.278.6,3.738-.011,6.446-2.884,9.659-3.336,2.374-.335,4.642,1.4,6.457,3.382,8.851,9.678,13.051,25.54,14.055,39.066a1.2,1.2,0,0,1-2.174.788,12.02,12.02,0,0,0-6.21-4.635c-2.952-.977-9.3-3.541-12.222-2.69a3.458,3.458,0,0,0-2.679,4.1c.642,2.975,3.853,2.012,5.172,3.836,1.1,1.519,1.141,1.551-.119,2.5A12.07,12.07,0,0,1,436.926,236.175Zm-25.407-40.194c-.971.435-4.784-1.019-3.778-2.269,1.3-1.613,2.925-2.579,3.511-2.143C411.759,191.946,412.864,195.379,411.519,195.981Z" transform="translate(-309.124 -179.455)" fill="#9ab300"/>
                    <path id="Trazado_717657" data-name="Trazado 717657" d="M274.418,226.85c-1.189-2.927-2.138-6.358-4.667-6.759a2.851,2.851,0,0,1-2.186-1.948c-.583-1.707-1.422-3.519-1.248-4.94.228-1.858,2.173-3.689,2.761-5.535.842-2.643,3.014-9.151.805-11.646a2.488,2.488,0,0,1-.441-2.738c1.469-3.044,3.683-7.618,5.709-8.622,2.326-1.153,7.534.119,9.933.347,2.568.244,5.622,1.068,7.805-.781,1.155-.979,1.045-2.547,2.467-2.426.9.077.874,1.835,1.474,3.19a1.779,1.779,0,0,1-.459,2.091c-4.069,3.483-2.654,8.868,2.894,10.851,4.845,1.731,7.638-1.261,10.191-4.7a.7.7,0,0,1,1.084-.058c1.145,1.3,2.722.621,3.981,1.543a2.958,2.958,0,0,1,1.03,2.011.991.991,0,0,1-1.278,1.1,4.127,4.127,0,0,0-4.064,1.032c-1.421,1.354-.491,2.98-1.325,4-.574.7-2.081,1.254-2.855,1.753a40.391,40.391,0,0,0-6.591,5.534c-2.029,2.033-3.816,4.385-6.065,6.188-.454.363-1.156,1.58-1.287,1.608-.354.076-.78-.212-1.1-.326a10.185,10.185,0,0,0-4.245-.125,13.042,13.042,0,0,0-7.176,2.411,9.07,9.07,0,0,0-3.745,5.844,6.705,6.705,0,0,0-.056.773v.051A.7.7,0,0,1,274.418,226.85Zm54.433-38.995a.413.413,0,0,1-.44-.139c-1.252-1.518,1.531-4.468,1.655-6.18a5.429,5.429,0,0,0-1.544-4.65,4.812,4.812,0,0,0-1.415-.741.4.4,0,0,1,.153-.763,79.028,79.028,0,0,0,8.343-.291c3.317-.338,6.5.126,9.742-.053a.4.4,0,0,1,.317.652c-2.691,3.227-3.1,5.43-7.433,7.143C335.056,184.085,331.939,186.877,328.851,187.855Zm-18.774-7.229c-.526.147-2.728-1.853-2.091-2.581s5.16-2.1,5.512-1.506c.428.725.772,2.143.042,2.552A20.534,20.534,0,0,1,310.077,180.626Z" transform="translate(-266.294 -174.962)" fill="#9ab300"/>
                    <path id="Trazado_717658" data-name="Trazado 717658" d="M323.8,332.4m-1.5-4.409c-3.1-4.265-4.029-11.369-4.642-16.582-.737-6.276.958-11.738-4.565-16.424-.783-.665-2.452-1.191-3-2.047-1.573-2.436.1.45-.54-2.626-.453-2.192-.954-3.292-.53-5.148,1.141-5,2.967-12.6,9.426-10.037,6.008,2.385,9.145,8.554,14.887,11.242,1.452.68,5.287,1.212,5.8,2.951.4,1.355-1.54,5.183-1.77,6.718-.521,3.472-.689,4.6-2.926,7.071a34.01,34.01,0,0,0-5.03,7.761C326.33,316.65,320.751,320.72,322.3,327.994Z" transform="translate(-281.238 -209.947)" fill="#9ab300"/>
                  </g>
                </g>
              </g>
            </g>
          </g>
        </g>
        <g id="Grupo_1004620" data-name="Grupo 1004620" transform="translate(79.944 145.102)">
          <path id="Trazado_717659" data-name="Trazado 717659" d="M355.39,286.282c1.776-8.539-4.851-15.058-6.8-20.907-1.582,6.089-.1,12.855-.137,13.16-5.566-8.319,1.3-19.885-8-26.811a24.483,24.483,0,0,1-1.152,16.248c-.662,1.733-1.493,3.434-2.29,5.179.424-1.513,2.112-11.408-1.16-14.966-.551,5.374-2.82,6.954-5.609,13.241a66.193,66.193,0,0,0-2.438,7.109c-.2-6.84,2.205-10.252,2.711-13.16-6.264,5.617-11.819,15-7.641,23.667,3.977,8.245,15.682,10.712,15.682,10.712S353.253,296.552,355.39,286.282Z" transform="translate(-321.422 -251.724)" fill="#ff5e19"/>
          <path id="Trazado_717660" data-name="Trazado 717660" d="M340.017,306.329c19.812-4.4,12.688-18.09,12.688-18.09a17.776,17.776,0,0,1-1.327,2.565,16.667,16.667,0,0,1-1.8,2.176c-2-2.994-5.694-7.817-5.98-10.938-.86,1.035-3.315,3.5-4.533,9.491a22.432,22.432,0,0,1-2.657-4.887,15.085,15.085,0,0,1-.84-3.583c-4.067,3.728-4.853,9.9-4.853,9.9a5.811,5.811,0,0,1-3.116-1.511,8.42,8.42,0,0,1-1.5-1.931C324.656,292.567,325.05,303.578,340.017,306.329Z" transform="translate(-322.871 -262.368)" fill="#ff970f"/>
          <path id="Trazado_717661" data-name="Trazado 717661" d="M342.8,307.334c7.72-1.234,10.248-6.28,10.248-6.28l-4.406-.189a10.793,10.793,0,0,0-.587-2.214,9.77,9.77,0,0,0-1.9-2.849l-3.552,5.629s-3.431-2.529-5.148-4.139c-.659,1.173-.452,4.957-.452,4.957l-3.337-.282C335.32,304.561,338.455,306.4,342.8,307.334Z" transform="translate(-325.719 -267.198)" fill="#ff5e19"/>
        </g>
      </g>
      <g id="Grupo_1004666" data-name="Grupo 1004666" transform="translate(129.891 145.188)">
        <g id="Grupo_1004629" data-name="Grupo 1004629" transform="translate(28.03)">
          <g id="Grupo_1004622" data-name="Grupo 1004622" transform="translate(13.148 17.594)">
            <path id="Trazado_717662" data-name="Trazado 717662" d="M193.347,243.337l.261-7.7h6.768v7.7Z" transform="translate(-193.347 -235.634)" fill="#c4814e"/>
            <path id="Trazado_717663" data-name="Trazado 717663" d="M200.7,235.635v5.694a6.2,6.2,0,0,1-6.424-5.7Z" transform="translate(-193.675 -235.633)" fill="#a8602a"/>
          </g>
          <path id="Trazado_717664" data-name="Trazado 717664" d="M186.6,218.726l.8,4a9.337,9.337,0,0,0,10.95,7.317,5.593,5.593,0,0,0,4.383-6.566l-1.517-7.659c-.045-.212-.1-.417-.157-.621a7.448,7.448,0,0,0-14.459,3.528Z" transform="translate(-177.779 -208.978)" fill="#c4814e"/>
          <g id="Grupo_1004625" data-name="Grupo 1004625" transform="translate(15.298 8.184)">
            <g id="Grupo_1004623" data-name="Grupo 1004623" transform="translate(4.025 1.684)">
              <path id="Trazado_717665" data-name="Trazado 717665" d="M203.869,227.44a.308.308,0,0,1-.256-.479l.488-.733a3.706,3.706,0,0,1-1.233-2.141.308.308,0,0,1,.607-.108,2.9,2.9,0,0,0,1.2,1.876.308.308,0,0,1,.121.447l-.665,1A.309.309,0,0,1,203.869,227.44Z" transform="translate(-202.863 -223.726)" fill="#a8602a"/>
            </g>
            <g id="Grupo_1004624" data-name="Grupo 1004624" transform="translate(0.615 5.754)">
              <path id="Trazado_717666" data-name="Trazado 717666" d="M201.866,232.46c-3.447,0-4.206-1.96-4.239-2.048a.308.308,0,0,1,.578-.215c.029.075.74,1.819,4.156,1.633a.3.3,0,0,1,.324.291.307.307,0,0,1-.291.324C202.212,232.455,202.036,232.46,201.866,232.46Z" transform="translate(-197.608 -229.998)" fill="#a8602a"/>
            </g>
            <path id="Trazado_717667" data-name="Trazado 717667" d="M198.57,223.03a.524.524,0,0,0-1.027.206l.293,1.459-1.177-.387a.988.988,0,0,0,1.246.619.52.52,0,0,0,.467.3.506.506,0,0,0,.1-.01.525.525,0,0,0,.411-.616Z" transform="translate(-196.66 -221.65)" fill="#601222"/>
            <path id="Trazado_717668" data-name="Trazado 717668" d="M207.63,222.2l-.938.81-.291-1.46a.523.523,0,1,0-1.027.205l.314,1.574a.524.524,0,0,0,.615.411.49.49,0,0,0,.1-.03.52.52,0,0,0,.315-.466A.992.992,0,0,0,207.63,222.2Z" transform="translate(-199.716 -221.131)" fill="#601222"/>
          </g>
          <path id="Trazado_717669" data-name="Trazado 717669" d="M201.281,211.253c-.75-1.254-2.376-1.088-3.193-.912-1.018-1.322-3.629-3.375-8.783.089-5.55,3.73-2.43,10.027-2.43,10.027s7.611-4.2,9.367-8.728v4.328s2.77-2.554,2.372-4.857c.053.045.111.087.162.134a7.481,7.481,0,0,1,2.121,3.409c.056.2.111.407.154.623l.117.6C201.466,215.032,202.095,212.615,201.281,211.253Z" transform="translate(-177.62 -208.52)" fill="#601222"/>
          <g id="Grupo_1004627" data-name="Grupo 1004627" transform="translate(0 2.966)">
            <g id="Grupo_1004626" data-name="Grupo 1004626">
              <path id="Trazado_717670" data-name="Trazado 717670" d="M173.086,220.406l2.38-.036a5.83,5.83,0,0,1-.2-2.027c.2-2.844,2.266-5.195,4.62-5.251s4.1,2.2,3.9,5.049a5.752,5.752,0,0,1-4.608,5.435A5.675,5.675,0,0,1,173.086,220.406Z" transform="translate(-173.086 -213.091)" fill="#601222"/>
            </g>
            <path id="Trazado_717671" data-name="Trazado 717671" d="M186.014,216.73a7.339,7.339,0,0,0-.247,2,9.717,9.717,0,0,0,.746,3.705c-.031.031-.056.068-.093.1a5.293,5.293,0,0,1-.912-1.689,7.022,7.022,0,0,1-.358-2.115,5.84,5.84,0,0,1,.395-2.127,4.343,4.343,0,0,1,1.215-1.757l.006.006.043.025c0,.006-.006.006-.006.012A6.729,6.729,0,0,0,186.014,216.73Z" transform="translate(-177.322 -213.708)" fill="#420b17"/>
          </g>
          <g id="Grupo_1004628" data-name="Grupo 1004628" transform="translate(7.17 10.514)">
            <path id="Trazado_717672" data-name="Trazado 717672" d="M185.541,229.845a2.774,2.774,0,1,0-.944-4.055A2.956,2.956,0,0,0,185.541,229.845Z" transform="translate(-184.135 -224.722)" fill="#c4814e"/>
            <path id="Trazado_717673" data-name="Trazado 717673" d="M186.178,227.6a2.54,2.54,0,0,1,3.189,1.725Z" transform="translate(-184.852 -225.697)" fill="#a8602a"/>
          </g>
        </g>
        <g id="Grupo_1004650" data-name="Grupo 1004650" transform="translate(4.479 59.985)">
          <g id="Grupo_1004630" data-name="Grupo 1004630" transform="translate(25.931)">
            <path id="Trazado_717674" data-name="Trazado 717674" d="M203.681,327.232l-4.488,1.437-.074.025a4.573,4.573,0,0,0-.832-.641c-1.923-1.233-7.367-3.446-18.23.641-.653-3.717-1.517-8.15-2.6-12.742-1.251-5.271-.838-10.8,1.289-14.994l25.417.66C204.452,309.822,204.223,318.57,203.681,327.232Z" transform="translate(-176.753 -300.957)" fill="#6e8700"/>
            <path id="Trazado_717675" data-name="Trazado 717675" d="M209.039,329.8c.191,1.362.37,2.731.524,4.106l-.074.025a4.572,4.572,0,0,0-.832-.641c-.111-1.128-.247-2.256-.395-3.378q-.4-3.366-.9-6.72c-.148-1.116-.376-2.232-.537-3.354l-.5-3.36-.037-.259.24-.025q1.693-.184,3.4-.32l-2.842.917C207.528,319,208.724,327.555,209.039,329.8Z" transform="translate(-187.122 -306.194)" fill="#8ea800"/>
          </g>
          <g id="Grupo_1004648" data-name="Grupo 1004648" transform="translate(0 67.401)">
            <g id="Grupo_1004639" data-name="Grupo 1004639" transform="translate(34.034 20.337)">
              <g id="Grupo_1004631" data-name="Grupo 1004631">
                <path id="Trazado_717676" data-name="Trazado 717676" d="M216.911,444.05c.509.7-.278,1.635-1.112,1.635H190.567a1.328,1.328,0,0,1-1.327-1.328V436.2s8.174-.114,10.9.026C206.683,436.565,214.214,440.318,216.911,444.05Z" transform="translate(-189.24 -436.16)" fill="#420b17"/>
              </g>
              <g id="Grupo_1004638" data-name="Grupo 1004638" transform="translate(14.868 1.062)">
                <g id="Grupo_1004633" data-name="Grupo 1004633">
                  <g id="Grupo_1004632" data-name="Grupo 1004632">
                    <path id="Trazado_717677" data-name="Trazado 717677" d="M212.459,439.891a.3.3,0,0,1-.187-.063.308.308,0,0,1-.058-.432,5.264,5.264,0,0,1,2.387-1.583.308.308,0,1,1,.2.584,4.681,4.681,0,0,0-2.1,1.373A.309.309,0,0,1,212.459,439.891Z" transform="translate(-212.151 -437.797)" fill="#f0f3bd"/>
                  </g>
                </g>
                <g id="Grupo_1004635" data-name="Grupo 1004635" transform="translate(3.323 1.299)">
                  <g id="Grupo_1004634" data-name="Grupo 1004634">
                    <path id="Trazado_717678" data-name="Trazado 717678" d="M217.579,441.859a.308.308,0,0,1-.245-.5,5.239,5.239,0,0,1,2.29-1.548.308.308,0,0,1,.208.58,4.715,4.715,0,0,0-2.008,1.343A.31.31,0,0,1,217.579,441.859Z" transform="translate(-217.272 -439.799)" fill="#f0f3bd"/>
                  </g>
                </g>
                <g id="Grupo_1004637" data-name="Grupo 1004637" transform="translate(6.645 2.801)">
                  <g id="Grupo_1004636" data-name="Grupo 1004636">
                    <path id="Trazado_717679" data-name="Trazado 717679" d="M222.7,443.938a.3.3,0,0,1-.188-.064.307.307,0,0,1-.057-.431,5.041,5.041,0,0,1,1.7-1.3.308.308,0,1,1,.271.554,4.5,4.5,0,0,0-1.479,1.119A.308.308,0,0,1,222.7,443.938Z" transform="translate(-222.391 -442.114)" fill="#f0f3bd"/>
                  </g>
                </g>
              </g>
            </g>
            <g id="Grupo_1004647" data-name="Grupo 1004647">
              <g id="Grupo_1004640" data-name="Grupo 1004640">
                <path id="Trazado_717680" data-name="Trazado 717680" d="M145.435,433.4c-.543.678-1.65.168-1.872-.636l-6.721-24.321a1.327,1.327,0,0,1,.926-1.633l7.912-1.994s2.235,7.67,2.825,10.331C149.926,421.552,148.314,429.811,145.435,433.4Z" transform="translate(-136.794 -404.821)" fill="#420b17"/>
              </g>
              <g id="Grupo_1004642" data-name="Grupo 1004642" transform="translate(8.861 13.623)">
                <g id="Grupo_1004641" data-name="Grupo 1004641">
                  <path id="Trazado_717681" data-name="Trazado 717681" d="M153.823,427.269a.307.307,0,0,1-.2-.071,4.378,4.378,0,0,0-2.84-.754.308.308,0,1,1-.061-.613,4.936,4.936,0,0,1,3.294.893.308.308,0,0,1-.2.546Z" transform="translate(-150.448 -425.814)" fill="#f0f3bd"/>
                </g>
              </g>
              <g id="Grupo_1004644" data-name="Grupo 1004644" transform="translate(8.943 16.471)">
                <g id="Grupo_1004643" data-name="Grupo 1004643">
                  <path id="Trazado_717682" data-name="Trazado 717682" d="M153.785,431.566a.305.305,0,0,1-.191-.067,3.965,3.965,0,0,0-2.67-.657.3.3,0,0,1-.347-.265.307.307,0,0,1,.264-.346,4.537,4.537,0,0,1,3.136.786.308.308,0,0,1-.193.549Z" transform="translate(-150.575 -430.202)" fill="#f0f3bd"/>
                </g>
              </g>
              <g id="Grupo_1004646" data-name="Grupo 1004646" transform="translate(8.943 19.666)">
                <g id="Grupo_1004645" data-name="Grupo 1004645">
                  <path id="Trazado_717683" data-name="Trazado 717683" d="M153.434,436.2a.3.3,0,0,1-.164-.047,4.188,4.188,0,0,0-2.347-.38.308.308,0,1,1-.08-.611,4.771,4.771,0,0,1,2.755.469.308.308,0,0,1-.165.569Z" transform="translate(-150.575 -435.127)" fill="#f0f3bd"/>
                </g>
              </g>
            </g>
          </g>
          <g id="Grupo_1004649" data-name="Grupo 1004649" transform="translate(7.561 25.38)">
            <path id="Trazado_717684" data-name="Trazado 717684" d="M193.743,340.962a532.736,532.736,0,0,1-7.928,61.532l-10.9-.025s-.111-17.218.561-28.426c-8.631,7.651-18.951,14.969-22.878,18.378,0,0-2.546-.191-3.822-4.587a7.042,7.042,0,0,1,.315-5.2c4.55-6.973,10.936-17.052,15.171-22.489,1.628-2.09,7.4-7.6,7.4-7.6s-.493-4.137-1.541-10.123c14.093-5.3,19.062,0,19.062,0Z" transform="translate(-148.444 -340.067)" fill="#c4814e"/>
            <path id="Trazado_717685" data-name="Trazado 717685" d="M204.281,352.777a23.154,23.154,0,0,1-1.184,6.7,21.49,21.49,0,0,1-3.477,5.831,81.73,81.73,0,0,1-9.506,9.71l-.062-.068c1.578-1.633,3.175-3.236,4.679-4.92a64.57,64.57,0,0,0,4.346-5.147,22.93,22.93,0,0,0,3.237-5.69,22.334,22.334,0,0,0,1.06-6.455,72.093,72.093,0,0,0-.419-10.024,4.572,4.572,0,0,1,.832.641l.074-.025A62.8,62.8,0,0,1,204.281,352.777Z" transform="translate(-163.052 -340.995)" fill="#a8602a"/>
          </g>
        </g>
        <g id="Grupo_1004659" data-name="Grupo 1004659" transform="translate(48.714 5.145)">
          <g id="Grupo_1004656" data-name="Grupo 1004656" transform="translate(39.641)">
            <g id="Grupo_1004653" data-name="Grupo 1004653" transform="translate(32.609 6.894)">
              <g id="Grupo_1004651" data-name="Grupo 1004651" transform="translate(0.187 2.2)">
                <path id="Trazado_717686" data-name="Trazado 717686" d="M335.285,246.54a.369.369,0,0,1-.408-.293q-.079-.382-.164-.75a.37.37,0,0,1,.722-.165c.058.252.113.507.166.767a.37.37,0,0,1-.287.437Zm-.628-2.548a.37.37,0,0,1-.4-.263c-.172-.594-.362-1.177-.563-1.732a.37.37,0,1,1,.7-.253c.207.572.4,1.169.579,1.779a.37.37,0,0,1-.252.459A.347.347,0,0,1,334.657,243.992Zm-1.266-3.465a.37.37,0,0,1-.383-.215c-.254-.561-.529-1.105-.818-1.618a.37.37,0,0,1,.644-.363c.3.532.585,1.1.848,1.677a.37.37,0,0,1-.184.489A.381.381,0,0,1,333.391,240.527Zm-1.817-3.209a.369.369,0,0,1-.349-.153,15.818,15.818,0,0,0-1.121-1.413.37.37,0,0,1,.552-.493,16.721,16.721,0,0,1,1.173,1.48.369.369,0,0,1-.089.515A.363.363,0,0,1,331.574,237.318Zm-2.459-2.744a.367.367,0,0,1-.289-.088,13.459,13.459,0,0,0-1.431-1.087.37.37,0,0,1,.406-.618,14.214,14.214,0,0,1,1.51,1.147.37.37,0,0,1-.2.646Zm-3.08-2.024a.364.364,0,0,1-.206-.033,13.3,13.3,0,0,0-1.672-.662.37.37,0,1,1,.226-.7,14.208,14.208,0,0,1,1.764.7.37.37,0,0,1-.113.7Zm-3.511-1.129a.368.368,0,0,1-.113,0,15.005,15.005,0,0,0-1.792-.216.37.37,0,1,1,.044-.738,15.553,15.553,0,0,1,1.882.227.37.37,0,0,1-.021.731Zm-5.522.02a.37.37,0,0,1-.135-.727,11.613,11.613,0,0,1,1.9-.25.37.37,0,0,1,.045.738,11.365,11.365,0,0,0-1.769.231Z" transform="translate(-316.584 -230.462)" fill="#f0f3bd"/>
              </g>
              <g id="Grupo_1004652" data-name="Grupo 1004652">
                <path id="Trazado_717687" data-name="Trazado 717687" d="M337.656,241.552a.371.371,0,0,1-.392-.236l-.375-.981c-.1-.25-.194-.494-.293-.736a.37.37,0,0,1,.684-.282c.1.246.2.5.3.751l.376.984a.372.372,0,0,1-.3.5Zm-1.424-3.413a.37.37,0,0,1-.38-.206c-.269-.557-.553-1.1-.844-1.616a.37.37,0,0,1,.644-.365c.3.53.591,1.088.867,1.659a.37.37,0,0,1-.287.528Zm-1.826-3.21a.37.37,0,0,1-.354-.16c-.344-.511-.706-1-1.078-1.459a.37.37,0,0,1,.574-.467c.385.475.761.983,1.117,1.512a.369.369,0,0,1-.1.513A.362.362,0,0,1,334.406,234.929Zm-2.332-2.859a.366.366,0,0,1-.309-.106,15.641,15.641,0,0,0-1.345-1.2.37.37,0,0,1,.461-.579,16.482,16.482,0,0,1,1.408,1.261.369.369,0,0,1-.215.628Zm-2.892-2.287a.373.373,0,0,1-.238-.051,13.28,13.28,0,0,0-1.6-.825.37.37,0,1,1,.295-.679,14.094,14.094,0,0,1,1.685.872.37.37,0,0,1-.145.683Zm-3.382-1.465a.37.37,0,0,1-.145-.011,13.317,13.317,0,0,0-1.761-.364.37.37,0,0,1,.1-.733,14.109,14.109,0,0,1,1.859.385.37.37,0,0,1-.053.724Zm-9.088.451a.37.37,0,0,1-.193-.707,11.787,11.787,0,0,1,1.828-.568.37.37,0,0,1,.17.72,11.364,11.364,0,0,0-1.7.527A.369.369,0,0,1,316.712,228.769Zm5.435-.96-.05,0a14.792,14.792,0,0,0-1.8.094.371.371,0,0,1-.409-.326.353.353,0,0,1,.326-.409,15.886,15.886,0,0,1,1.892-.1.37.37,0,0,1,.043.737Z" transform="translate(-316.296 -227.071)" fill="#f0f3bd"/>
              </g>
            </g>
            <g id="Grupo_1004655" data-name="Grupo 1004655">
              <path id="Trazado_717688" data-name="Trazado 717688" d="M299.567,226.989l3.944,2.086-4.391-8.561-.576,4.2-6.449,4.21c.071-6.184-.228-10.544-.228-10.544l-6.564-.965-6.564-.965s-.2.527-.528,1.466c-3.113-.781-8.7-1.624-11.3,8.167-1.169,4.393-1.154,7.393.045,9.444s3.343,2.763,5.528,3.345c-.278,1.45-.531,2.918-.748,4.39l9.559,1.4,9.559,1.406a124.759,124.759,0,0,0,1.177-14.162Zm-31.093,7.648c-.934-1.6-.89-4.249.136-8.1,2.144-8.064,6.112-7.668,9.026-6.949a156.139,156.139,0,0,0-4.808,17.559C270.918,236.63,269.31,236.067,268.474,234.637Z" transform="translate(-266.046 -216.448)" fill="#34575c"/>
              <g id="Grupo_1004654" data-name="Grupo 1004654" transform="translate(11.053 3.865)">
                <path id="Trazado_717689" data-name="Trazado 717689" d="M298.047,225.5l-14.968-2.2c.1-.315.2-.613.293-.892l14.65,2.153C298.028,224.858,298.039,225.17,298.047,225.5Z" transform="translate(-283.079 -222.404)" fill="#244347"/>
              </g>
            </g>
          </g>
          <g id="Grupo_1004658" data-name="Grupo 1004658" transform="translate(0 7.807)">
            <path id="Trazado_717690" data-name="Trazado 717690" d="M204.959,255.933c6.141,1.118,12.646,1.817,18.853.885,5.637-.846,9.847-4.476,13.762-8.364,1.509-1.5,2.9-3.078,4.246-4.674a59.515,59.515,0,0,0,3.787-5.049L241.121,234c-3.5,1.954-6.9,4.116-10.19,6.107-1.646.99-7.43,3.875-7.43,3.875-.026,0-9.015-.435-10.907-.685-1.656-.219-6.607-1.009-6.607-1.009Z" transform="translate(-204.959 -230.416)" fill="#c4814e"/>
            <g id="Grupo_1004657" data-name="Grupo 1004657" transform="translate(35.125)">
              <path id="Trazado_717691" data-name="Trazado 717691" d="M262.143,228.835a1.332,1.332,0,0,1,1.6.4l0,0,.008-.008a1.5,1.5,0,0,1,.917-.436l2.755-.281a2.547,2.547,0,0,1,1.818.344,1.918,1.918,0,0,1,.194,1.557,2.073,2.073,0,0,1-1.08.679c.718.022,1.381-.009,1.427.775.045.764-.074,1.282-.463,1.535a3.094,3.094,0,0,1-.887.411,1.332,1.332,0,0,1,.732.189,1.6,1.6,0,0,1-.228,2.016c-.872.7-1.132.513-1.132.513.481.169.79,1.528-.324,2.129a5.178,5.178,0,0,1-4.058.653,1.26,1.26,0,0,1-.713-.308l0,0a1.154,1.154,0,0,1-.319-.508,6.749,6.749,0,0,1-3.292-5.647A4.112,4.112,0,0,1,262.143,228.835Z" transform="translate(-259.086 -228.479)" fill="#c4814e"/>
              <path id="Trazado_717692" data-name="Trazado 717692" d="M260.89,233.544a2.3,2.3,0,0,0,1.4-.666.246.246,0,0,1,.245-.065.229.229,0,0,1,.175.191,3.019,3.019,0,0,0,.775,1.445,1.8,1.8,0,0,0,1.261.717.878.878,0,0,0,.143-.014.48.48,0,0,0,.309-.208.507.507,0,0,0,.076-.373c0-.029-.722-3.69-.842-4.3l-.017-.084a1.115,1.115,0,0,0-.3-.571.24.24,0,0,1,0-.351.253.253,0,0,1,.354,0,1.59,1.59,0,0,1,.444.825l.239,1.221a3.365,3.365,0,0,0,3.2-.188.249.249,0,1,1,.227.443,4.04,4.04,0,0,1-3.311.341l.43,2.185a.754.754,0,0,0,.45.3,2.957,2.957,0,0,0,2.175-.539.246.246,0,0,1,.338.1.249.249,0,0,1-.1.339,3.444,3.444,0,0,1-2.584.574,1.5,1.5,0,0,1-.2-.08.9.9,0,0,1-.156.434.97.97,0,0,1-.629.425,1.7,1.7,0,0,1-1.309-.358,1.169,1.169,0,0,0-.08.35c-.033.465.62,1.1,1.147,1.258a3.006,3.006,0,0,0,2.48-.389.249.249,0,1,1,.217.448c-1.984.962-3,.432-3.33.185a1.285,1.285,0,0,0-1,1.134.979.979,0,0,0,.329.83.263.263,0,0,1-.029.361.234.234,0,0,1-.337-.032,1.388,1.388,0,0,1-.159-.171,1.478,1.478,0,0,1-.3-1.02,1.766,1.766,0,0,1,.96-1.444,1.475,1.475,0,0,1-.474-1.2,1.926,1.926,0,0,1,.183-.65c-.025-.022-.05-.053-.076-.075a4.093,4.093,0,0,1-.868-1.378c-.324.254-1.714.8-1.723.284C260.607,233.551,260.8,233.541,260.89,233.544Z" transform="translate(-259.622 -228.728)" fill="#a8602a"/>
            </g>
          </g>
        </g>
        <g id="Grupo_1004660" data-name="Grupo 1004660" transform="translate(29.492 23.903)">
          <path id="Trazado_717693" data-name="Trazado 717693" d="M201.631,246.538a39.689,39.689,0,0,1-1.72,6.036,59.521,59.521,0,0,0-8.557-6.979,12.277,12.277,0,0,1,2.441-.24h2.435A12.786,12.786,0,0,1,201.631,246.538Z" transform="translate(-180.961 -245.354)" fill="#c4814e"/>
          <path id="Trazado_717694" data-name="Trazado 717694" d="M205.262,259.988c-.04-2.027-1.6-5.844-3.939-8.883v.014a13.17,13.17,0,0,0-5.316-4.451,39.691,39.691,0,0,1-1.72,6.036,59.522,59.522,0,0,0-8.557-6.979,12.739,12.739,0,0,0-2.879.913c-.006,0-.012-.007-.025,0-1.35.376-7.49,3.951-7.49,3.951l2.91,30.985a54.666,54.666,0,0,0,19.006,2.182,16.886,16.886,0,0,0,6.411-1.529V263.365A7.865,7.865,0,0,0,205.262,259.988Z" transform="translate(-175.338 -245.484)" fill="#e6b207"/>
          <path id="Trazado_717695" data-name="Trazado 717695" d="M192.032,270.5a5.442,5.442,0,0,0,1.649,1.182,8.616,8.616,0,0,0,1.942.645,12.51,12.51,0,0,0,2.034.287l1.03.027,1.032-.024.007.092a6.135,6.135,0,0,1-1.031.433,8.5,8.5,0,0,1-1.075.208,6.975,6.975,0,0,1-2.2-.121,5.906,5.906,0,0,1-2.064-.889,3.412,3.412,0,0,1-1.4-1.786Z" transform="translate(-181.172 -254.181)" fill="#c80"/>
        </g>
        <g id="Grupo_1004665" data-name="Grupo 1004665" transform="translate(0 28.138)">
          <g id="Grupo_1004661" data-name="Grupo 1004661" transform="translate(11.953)">
            <path id="Trazado_717696" data-name="Trazado 717696" d="M148.311,289.381c.439-18.4.891-21.768,2.931-24.617,3.613-5.047,9.286-8.954,14.61-12.016l.055-.032a6.33,6.33,0,0,1,8.634,2.356l.38.663A6.276,6.276,0,0,1,173.063,264l-.047.033c-1.614,1.079-3.2,2.183-4.77,3.247s-3.1,2.136-4.474,3.187c-.688.513-2.683,2.221-2.727,2.24a8.12,8.12,0,0,0-.812,1.672c-.294.748-.559,1.589-.834,2.452-.528,1.74-1.025,3.6-1.5,5.488-.975,3.772-1.838,6.487-2.931,10.353Z" transform="translate(-148.311 -251.881)" fill="#c4814e"/>
          </g>
          <g id="Grupo_1004664" data-name="Grupo 1004664" transform="translate(0 37.501)">
            <path id="Trazado_717697" data-name="Trazado 717697" d="M139.451,321.789c-.271.284-.629.672-1.085,1.221-1.892,2.25-2.691,3.608-4.108,3.387-.436-.068-1.145-.674-1.1-1.05a44.839,44.839,0,0,1,3.1-4.439Z" transform="translate(-131.037 -313.615)" fill="#a8602a"/>
            <g id="Grupo_1004662" data-name="Grupo 1004662">
              <path id="Trazado_717698" data-name="Trazado 717698" d="M148.5,312.96a4.2,4.2,0,0,1-.918,3.558c-.346.328-.67.66-.992.912a22.592,22.592,0,0,0-2.272,2.325c-.576.661-2.325,2.627-2.325,2.627a1.481,1.481,0,0,1-2.257-.047,1.528,1.528,0,0,1,.088-1.968s1.16-1.319,1.552-1.754c.484-.537.841-1.324.48-1.721-.321-.352-1.141-.728-3.736,1.141-.863.622-3.379,2.589-3.379,2.589a1.522,1.522,0,0,1-2.211-.129l-.005,0a2.451,2.451,0,0,1-.934.437,1.48,1.48,0,0,1-1.433-.589,1.533,1.533,0,0,1,.3-2.049s2.576-1.7,4.39-3.045c2.471-1.826,5.75-4.787,7-5.581" transform="translate(-129.891 -309.669)" fill="#c4814e"/>
            </g>
            <g id="Grupo_1004663" data-name="Grupo 1004663" transform="translate(2.07 3.666)">
              <path id="Trazado_717699" data-name="Trazado 717699" d="M133.653,322.784a.307.307,0,0,1-.239-.113,1.4,1.4,0,0,1-.072-1.706,15.988,15.988,0,0,1,2.836-2.517c1.114-.866,2.378-1.846,3.647-3.045a.308.308,0,1,1,.424.448c-1.291,1.221-2.567,2.211-3.692,3.084a16.053,16.053,0,0,0-2.72,2.4.805.805,0,0,0,.056.947.307.307,0,0,1-.044.434A.3.3,0,0,1,133.653,322.784Z" transform="translate(-133.081 -315.318)" fill="#a8602a"/>
            </g>
          </g>
        </g>
      </g>
    </g>
  </g>
</svg>
