<svg xmlns="http://www.w3.org/2000/svg" width="400" height="314.473" viewBox="0 0 400 314.473">
  <g id="Grupo_1005684" data-name="Grupo 1005684" transform="translate(-915 -11964)">
    <path id="Rectángulo_347089" data-name="Rectángulo 347089" d="M165,0H400a0,0,0,0,1,0,0V180a0,0,0,0,1,0,0H0a0,0,0,0,1,0,0V165A165,165,0,0,1,165,0Z" transform="translate(915 12098.473)" fill="#afafaf"/>
    <g id="Discussion-amico" transform="translate(962.98 11940.06)">
      <g id="freepik--Floor--inject-13" transform="translate(5.02 143.547)">
        <ellipse id="freepik--floor--inject-13-2" data-name="freepik--floor--inject-13" cx="157.5" cy="90.933" rx="157.5" ry="90.933" fill="#fafafa"/>
      </g>
      <g id="freepik--Shadows--inject-13" transform="translate(21.808 211.525)">
        <path id="freepik--Shadow--inject-13" d="M353.455,368.327l47.871-27.645c3.009-1.736,3.009-4.552,0-6.288l-29.985-17.314a12.643,12.643,0,0,0-11.007-.206l-50.211,26.571c-3.073,1.627-3.118,4.353-.109,6.088l32.544,18.792A12.053,12.053,0,0,0,353.455,368.327Z" transform="translate(-129.923 -315.715)" fill="#e6e6e6"/>
        <path id="freepik--shadow--inject-13-2" data-name="freepik--shadow--inject-13" d="M98.424,368.327,50.547,340.682c-3.009-1.736-3.009-4.552,0-6.288l29.992-17.314a12.643,12.643,0,0,1,11.007-.206l50.211,26.571c3.067,1.627,3.118,4.353.109,6.088l-32.544,18.792A12.053,12.053,0,0,1,98.424,368.327Z" transform="translate(-37.259 -315.715)" fill="#e6e6e6"/>
        <ellipse id="freepik--shadow--inject-13-3" data-name="freepik--shadow--inject-13" cx="68.958" cy="39.815" rx="68.958" ry="39.815" transform="translate(73.573 23.219)" fill="#e6e6e6"/>
        <path id="freepik--shadow--inject-13-4" data-name="freepik--shadow--inject-13" d="M374.941,422.694,355.9,411.726c-.926-.54-.926-1.408,0-1.929l53.407-30.86a3.729,3.729,0,0,1,3.362,0l19.03,10.968c.932.54.932,1.408,0,1.929l-53.4,30.86A3.729,3.729,0,0,1,374.941,422.694Z" transform="translate(-146.857 -338.148)" fill="#e6e6e6"/>
        <path id="freepik--shadow--inject-13-5" data-name="freepik--shadow--inject-13" d="M88.594,422.694l19.037-10.968c.926-.54.926-1.408,0-1.929l-53.407-30.86a3.716,3.716,0,0,0-3.356,0L31.832,389.919c-.932.54-.932,1.408,0,1.929l53.4,30.86A3.729,3.729,0,0,0,88.594,422.694Z" transform="translate(-31.132 -338.148)" fill="#e6e6e6"/>
      </g>
      <g id="freepik--Plants--inject-13" transform="translate(7.516 183.619)">
        <g id="freepik--plants--inject-13-2" data-name="freepik--plants--inject-13" transform="translate(0 3.514)">
          <path id="Trazado_716498" data-name="Trazado 716498" d="M48.925,317.555s1.106-11.572-1.852-20.856S38.465,280.627,32.1,278.363s-13.218,2.327-7.342,8.3,16.883,17.461,18.458,34.331Z" transform="translate(-13.766 -277.776)" fill="#3076b6"/>
          <path id="Trazado_716499" data-name="Trazado 716499" d="M48.925,317.555s1.106-11.572-1.852-20.856S38.465,280.627,32.1,278.363s-13.218,2.327-7.342,8.3,16.883,17.461,18.458,34.331Z" transform="translate(-13.766 -277.776)" fill="#fff" opacity="0.65"/>
          <path id="Trazado_716500" data-name="Trazado 716500" d="M48.447,316.486h.077a.379.379,0,0,0,.315-.405c-.829-19.435-11.662-30.86-17.243-33.843a.366.366,0,0,0-.489.154.36.36,0,0,0,.148.482c5.471,2.9,15.841,14.292,16.87,33.271A.347.347,0,0,0,48.447,316.486Z" transform="translate(-16.817 -279.355)" fill="#fff"/>
          <path id="Trazado_716501" data-name="Trazado 716501" d="M8.907,307.052a4.535,4.535,0,0,0,2.025,2.655,5.207,5.207,0,0,1,2.186,2.572c.572,2.237-2.006,4.43-1.331,6.635a3.587,3.587,0,0,0,1.967,2.019c.72.354,1.5.566,2.25.849A8.89,8.89,0,0,0,17.13,322a5.188,5.188,0,0,1,3.086,1.228c1.286,1.286,1.222,3.343,1.736,5.092.611,2.089,1.569,3.954,3.472,4.983a9.567,9.567,0,0,0,5.748.919l7.181-4.185c2.4-.727,2.5-2.99,2.572-5.465a9.7,9.7,0,0,0-2.533-6.429,13.616,13.616,0,0,0-3.44-2.572,5.406,5.406,0,0,1-1.884-1.286,4.147,4.147,0,0,1-.534-1.929,12.273,12.273,0,0,0-.354-2.321,8.551,8.551,0,0,0-1.132-2.16A4.25,4.25,0,0,0,29,306.235a14.969,14.969,0,0,0-3.857-.964c-1.684-.18-3.517.289-5.143-.251a41.067,41.067,0,0,0-4.738-1.742,5.966,5.966,0,0,0-5.143,1.08,3.215,3.215,0,0,0-1.215,2.694Z" transform="translate(-8.903 -286.816)" fill="#3076b6"/>
          <path id="Trazado_716502" data-name="Trazado 716502" d="M8.907,307.052a4.535,4.535,0,0,0,2.025,2.655,5.207,5.207,0,0,1,2.186,2.572c.572,2.237-2.006,4.43-1.331,6.635a3.587,3.587,0,0,0,1.967,2.019c.72.354,1.5.566,2.25.849A8.89,8.89,0,0,0,17.13,322a5.188,5.188,0,0,1,3.086,1.228c1.286,1.286,1.222,3.343,1.736,5.092.611,2.089,1.569,3.954,3.472,4.983a9.567,9.567,0,0,0,5.748.919l7.181-4.185c2.4-.727,2.5-2.99,2.572-5.465a9.7,9.7,0,0,0-2.533-6.429,13.616,13.616,0,0,0-3.44-2.572,5.406,5.406,0,0,1-1.884-1.286,4.147,4.147,0,0,1-.534-1.929,12.273,12.273,0,0,0-.354-2.321,8.551,8.551,0,0,0-1.132-2.16A4.25,4.25,0,0,0,29,306.235a14.969,14.969,0,0,0-3.857-.964c-1.684-.18-3.517.289-5.143-.251a41.067,41.067,0,0,0-4.738-1.742,5.966,5.966,0,0,0-5.143,1.08,3.215,3.215,0,0,0-1.215,2.694Z" transform="translate(-8.903 -286.816)" fill="#fff" opacity="0.25"/>
          <path id="Trazado_716503" data-name="Trazado 716503" d="M32.43,319.39a1.524,1.524,0,0,0-.135-.193,27.757,27.757,0,0,0-15.1-10.73.259.259,0,0,0-.1.508,27.118,27.118,0,0,1,14.337,9.869,14.144,14.144,0,0,0-11.264.4.251.251,0,0,0-.09.347.238.238,0,0,0,.2.129.206.206,0,0,0,.148-.032,13.713,13.713,0,0,1,11.534-.071,21.537,21.537,0,0,1,3.587,12.4.251.251,0,0,0,.231.257h0a.264.264,0,0,0,.264-.257,22.013,22.013,0,0,0-3.613-12.62Z" transform="translate(-11.756 -288.734)" fill="#fff"/>
        </g>
        <g id="freepik--plants--inject-13-3" data-name="freepik--plants--inject-13" transform="translate(277.005)">
          <path id="Trazado_716504" data-name="Trazado 716504" d="M439.864,317.757a63.1,63.1,0,0,1,7.31-32.686c4.938-9,12.46-12.717,16.819-12.762,4.886-.051,9.335,4.34,4.359,10.126-4.732,5.5-12.858,7.2-19.2,22.058a59.215,59.215,0,0,0-4.185,14.144,1.59,1.59,0,0,1-2.456.887Z" transform="translate(-439.764 -272.309)" fill="#3076b6"/>
          <path id="Trazado_716505" data-name="Trazado 716505" d="M439.864,317.757a63.1,63.1,0,0,1,7.31-32.686c4.938-9,12.46-12.717,16.819-12.762,4.886-.051,9.335,4.34,4.359,10.126-4.732,5.5-12.858,7.2-19.2,22.058a59.215,59.215,0,0,0-4.185,14.144,1.59,1.59,0,0,1-2.456.887Z" transform="translate(-439.764 -272.309)" fill="#fff" opacity="0.5"/>
          <path id="Trazado_716506" data-name="Trazado 716506" d="M445.022,316.307a.283.283,0,0,0,.309-.264c0-18.824,12.087-33.541,20.67-37.977a.244.244,0,0,0,.1-.36.334.334,0,0,0-.418-.1c-8.7,4.5-20.965,19.4-20.965,38.433a.283.283,0,0,0,.3.264Z" transform="translate(-441.534 -274.189)" fill="#fff"/>
          <path id="Trazado_716507" data-name="Trazado 716507" d="M444.357,331.277a1.639,1.639,0,0,0,2.379-.6c1.537-3.62,4.687-7.207,10.177-10.788,6.384-4.166,14.916-7.715,14.215-12s-7.162-3.954-11.9-2.077a26.537,26.537,0,0,0-15.539,25.009Z" transform="translate(-441.164 -283.804)" fill="#3076b6"/>
          <path id="Trazado_716508" data-name="Trazado 716508" d="M444.357,331.277a1.639,1.639,0,0,0,2.379-.6c1.537-3.62,4.687-7.207,10.177-10.788,6.384-4.166,14.916-7.715,14.215-12s-7.162-3.954-11.9-2.077a26.537,26.537,0,0,0-15.539,25.009Z" transform="translate(-441.164 -283.804)" fill="#fff" opacity="0.25"/>
          <path id="Trazado_716509" data-name="Trazado 716509" d="M445.135,332.62a.289.289,0,0,0,.3-.219c1.029-11.412,13.578-23,21.692-24.578a.257.257,0,0,0,.225-.315.321.321,0,0,0-.373-.193c-7.972.977-21.711,13.5-22.142,24.99a.283.283,0,0,0,.244.309Z" transform="translate(-441.576 -284.806)" fill="#fff"/>
        </g>
      </g>
      <g id="freepik--character-2--inject-13" transform="translate(181.331 54.428)">
        <g id="freepik--Character--inject-13" transform="translate(0 0)">
          <g id="freepik--Chair--inject-13" transform="translate(21.892 48.84)">
            <path id="Trazado_716510" data-name="Trazado 716510" d="M313.31,329.818l5.51-59.591,5.111-.257-8.043,59.842h0a.688.688,0,0,1-.341.456,2.012,2.012,0,0,1-1.826.1.643.643,0,0,1-.4-.546Z" transform="translate(-313.31 -191.122)" fill="#263238"/>
            <path id="Trazado_716511" data-name="Trazado 716511" d="M321.452,270.227l5.111-.257-1.5,9.894a20.333,20.333,0,0,1-3.028-1.389,3.118,3.118,0,0,1-1.35-1.157Z" transform="translate(-315.942 -191.122)" fill="#263238"/>
            <path id="Trazado_716512" data-name="Trazado 716512" d="M427.54,258.46h5.143l8.191,56.685h0a.643.643,0,0,1-.366.566,2.031,2.031,0,0,1-1.826,0,.7.7,0,0,1-.366-.444h0Z" transform="translate(-354.1 -187.012)" fill="#37474f"/>
            <path id="Trazado_716513" data-name="Trazado 716513" d="M432.658,258.46l1.987,13.765a21.351,21.351,0,0,1-4.037,2.475l-3.067-16.24Z" transform="translate(-354.1 -187.012)" fill="#263238"/>
            <path id="Trazado_716514" data-name="Trazado 716514" d="M366.51,356.549l4.063-60.472,5.111-.257-6.6,60.723h0a.7.7,0,0,1-.341.456,2.019,2.019,0,0,1-1.819.1.643.643,0,0,1-.4-.546Z" transform="translate(-332.307 -200.353)" fill="#37474f"/>
            <path id="Trazado_716515" data-name="Trazado 716515" d="M372,303.728l.514-7.651,5.111-.257-.9,8.249A9.538,9.538,0,0,1,372,303.728Z" transform="translate(-334.268 -200.353)" fill="#263238"/>
            <path id="Trazado_716516" data-name="Trazado 716516" d="M384.09,233.2h5.143l8.191,57.8h0a.643.643,0,0,1-.373.559,1.974,1.974,0,0,1-1.819,0,.688.688,0,0,1-.366-.437h0Z" transform="translate(-338.585 -177.992)" fill="#263238"/>
            <g id="freepik--chair--inject-13-2" data-name="freepik--chair--inject-13" transform="translate(3.298)">
              <path id="Trazado_716517" data-name="Trazado 716517" d="M403.32,166.246a29.1,29.1,0,0,1,2.044,9c.585,6.892-1.749,29.195-3.15,39.173h0c-2.025,16.664-4.5,16.716-8.126,19.487-6.211,4.8-24.071,14.2-29.972,16.523-10.692,4.211-19.435-2.276-25.954-5.5A151.4,151.4,0,0,1,320.906,234.7c-1.627-1.189-2.469-2.385-2.456-3.645v-3.08c0-1.607,1.421-3.33,4.417-5.272,5.523-3.581,25.479-15.224,33.213-19.506a.077.077,0,0,1,.064-.064c5.953-3.613,9.534-28.172,13.655-41.236.09-.283.174-.553.27-.81s.141-.411.212-.611q.357-.984.81-1.929" transform="translate(-318.443 -151.335)" fill="#3076b6"/>
              <path id="Trazado_716518" data-name="Trazado 716518" d="M318.44,223.958c0-1.607,1.421-3.33,4.417-5.272,5.523-3.581,25.479-15.224,33.213-19.506a.077.077,0,0,1,.064-.064c5.953-3.613,9.534-28.172,13.655-41.236a23.571,23.571,0,0,1,.862-2.4l.077-.174c.077-.174.154-.354.238-.534l.116-.264h0a12.511,12.511,0,0,1,2.752-3.973,5.94,5.94,0,0,1,1.344-.952c.643-.373,2.077-1.157,2.43-1.363,4.044-2.417,9.341.482,15.951,4.1,4.108,2.257,7.618,4.931,9.753,9.92h0a29.1,29.1,0,0,1,2.044,9c.585,6.892-1.749,29.195-3.15,39.172h0c-2.025,16.664-4.5,16.716-8.126,19.487-6.211,4.8-24.071,14.2-29.972,16.523-10.692,4.211-19.435-2.276-25.954-5.5A151.4,151.4,0,0,1,320.9,230.7c-1.627-1.189-2.469-2.385-2.456-3.645C318.453,226.536,318.44,224.485,318.44,223.958Z" transform="translate(-318.44 -147.328)" fill="#3076b6"/>
              <path id="Trazado_716519" data-name="Trazado 716519" d="M318.44,223.958c0-1.607,1.421-3.33,4.417-5.272,5.523-3.581,25.479-15.224,33.213-19.506a.077.077,0,0,1,.064-.064c5.953-3.613,9.534-28.172,13.655-41.236a23.571,23.571,0,0,1,.862-2.4l.077-.174c.077-.174.154-.354.238-.534l.116-.264h0a12.511,12.511,0,0,1,2.752-3.973,5.94,5.94,0,0,1,1.344-.952c.643-.373,2.077-1.157,2.43-1.363,4.044-2.417,9.341.482,15.951,4.1,4.108,2.257,7.618,4.931,9.753,9.92h0a29.1,29.1,0,0,1,2.044,9c.585,6.892-1.749,29.195-3.15,39.172h0c-2.025,16.664-4.5,16.716-8.126,19.487-6.211,4.8-24.071,14.2-29.972,16.523-10.692,4.211-19.435-2.276-25.954-5.5A151.4,151.4,0,0,1,320.9,230.7c-1.627-1.189-2.469-2.385-2.456-3.645C318.453,226.536,318.44,224.485,318.44,223.958Z" transform="translate(-318.44 -147.328)" fill="#fff" opacity="0.25"/>
              <path id="Trazado_716520" data-name="Trazado 716520" d="M338.171,265.3A150.883,150.883,0,0,1,320.9,255.07c-3.7-2.687-3.362-5.445,1.929-8.891C330.212,241.4,360.3,224.32,360.3,224.32s38.035,22.45,36.4,26.591-25.176,16.966-32.6,19.885C353.421,275.007,344.684,268.52,338.171,265.3Z" transform="translate(-318.44 -174.821)" fill="#3076b6"/>
              <path id="Trazado_716521" data-name="Trazado 716521" d="M338.171,265.3A150.883,150.883,0,0,1,320.9,255.07c-3.7-2.687-3.362-5.445,1.929-8.891C330.212,241.4,360.3,224.32,360.3,224.32s38.035,22.45,36.4,26.591-25.176,16.966-32.6,19.885C353.421,275.007,344.684,268.52,338.171,265.3Z" transform="translate(-318.44 -174.821)" fill="#fff" opacity="0.6"/>
              <path id="Trazado_716522" data-name="Trazado 716522" d="M406.7,149.58c4.005-2.1,9.206.759,15.642,4.282,4.128,2.263,7.638,4.938,9.772,9.952l2.719-1.575c-2.134-4.989-5.645-7.663-9.753-9.92-6.609-3.62-11.907-6.519-15.951-4.1C408.777,148.4,407.369,149.207,406.7,149.58Z" transform="translate(-349.957 -147.328)" fill="#3076b6"/>
              <path id="Trazado_716523" data-name="Trazado 716523" d="M406.7,149.58c4.005-2.1,9.206.759,15.642,4.282,4.128,2.263,7.638,4.938,9.772,9.952l2.719-1.575c-2.134-4.989-5.645-7.663-9.753-9.92-6.609-3.62-11.907-6.519-15.951-4.1C408.777,148.4,407.369,149.207,406.7,149.58Z" transform="translate(-349.957 -147.328)" fill="#fff" opacity="0.5"/>
              <path id="Trazado_716524" data-name="Trazado 716524" d="M377.07,199.977s3.857,1.286,17.719,8.069c5.677,2.784,9.412,5.6,14.729,8.943,7.831,4.925,7.233,8.583,7.233,8.583,3.857-3.215,7.766-40.619,6.815-51.941a28.475,28.475,0,0,0-2.231-9.419c-.1-.219-.212-.437-.321-.643s-.148-.3-.231-.45a2.3,2.3,0,0,0-.116-.206,16.709,16.709,0,0,0-.984-1.575c-.084-.129-.174-.251-.257-.366l-.276-.36c-.084-.116-.18-.231-.276-.347l-.238-.276a16.8,16.8,0,0,0-1.408-1.459,4.6,4.6,0,0,0-.366-.341,23.484,23.484,0,0,0-2.482-1.877c-.129-.1-.264-.18-.4-.264l-.54-.341c-.154-.09-.3-.186-.456-.27-.405-.238-.81-.469-1.222-.694-4.918-2.694-9.116-5-12.614-5a6.506,6.506,0,0,0-4.372,1.665c-2.572,2.276-3.96,7.072-4.05,7.348C386.6,171.8,383.023,196.364,377.07,199.977Z" transform="translate(-339.376 -148.189)" fill="#3076b6"/>
              <path id="Trazado_716525" data-name="Trazado 716525" d="M377.07,199.977s3.857,1.286,17.719,8.069c5.677,2.784,9.412,5.6,14.729,8.943,7.831,4.925,7.233,8.583,7.233,8.583,3.857-3.215,7.766-40.619,6.815-51.941a28.475,28.475,0,0,0-2.231-9.419c-.1-.219-.212-.437-.321-.643s-.148-.3-.231-.45a2.3,2.3,0,0,0-.116-.206,16.709,16.709,0,0,0-.984-1.575c-.084-.129-.174-.251-.257-.366l-.276-.36c-.084-.116-.18-.231-.276-.347l-.238-.276a16.8,16.8,0,0,0-1.408-1.459,4.6,4.6,0,0,0-.366-.341,23.484,23.484,0,0,0-2.482-1.877c-.129-.1-.264-.18-.4-.264l-.54-.341c-.154-.09-.3-.186-.456-.27-.405-.238-.81-.469-1.222-.694-4.918-2.694-9.116-5-12.614-5a6.506,6.506,0,0,0-4.372,1.665c-2.572,2.276-3.96,7.072-4.05,7.348C386.6,171.8,383.023,196.364,377.07,199.977Z" transform="translate(-339.376 -148.189)" fill="#fff" opacity="0.4"/>
            </g>
          </g>
          <g id="freepik--Bottom--inject-13" transform="translate(8.656 89.923)">
            <path id="Trazado_716526" data-name="Trazado 716526" d="M349.709,311.2c3.658-.5,6.808,2.417,7.111,3.356.405,1.286.276,3.825-1.2,6.995a21.936,21.936,0,0,0-1.588,9.959c.276,2.893,1.678,10.107-1.228,13.745s-9.387,6.815-11.707,1.858c-.759-1.627.739-7.265,1.408-11.373,1.318-8.191,2.314-16.33,2.314-16.33Z" transform="translate(-309.921 -246.907)" fill="#263238"/>
            <path id="Trazado_716527" data-name="Trazado 716527" d="M351.616,321.39a79.979,79.979,0,0,0-.919,12.016c.09,4.391-.829,7.284-2.34,9.245-1.665,2.173-5.85,3.395-5.368-1.132.334-3.157,2.572-18.452,2.572-18.452Z" transform="translate(-310.658 -250.567)" fill="#ffa8a7"/>
            <path id="Trazado_716528" data-name="Trazado 716528" d="M355.6,313.111c.174,2.707-1.286,9.894-4.9,15.918-3.575,5.915-8.808,12.858-9.8,17.082-.1-1.929.7-5.478,1.286-8.634l.039-.206.1-.546a1.713,1.713,0,0,1,.045-.251c.045-.231.084-.463.116-.688v-.045c.411-2.572.8-5.143,1.125-7.419.264-1.839.5-3.523.688-4.918.09-.694.174-1.286.244-1.858.039-.264.071-.514.1-.733.116-.894.18-1.4.18-1.4l4.873-8.21a7.027,7.027,0,0,1,.714-.051A8.03,8.03,0,0,1,355.6,313.111Z" transform="translate(-309.925 -246.91)" opacity="0.15"/>
            <path id="Trazado_716529" data-name="Trazado 716529" d="M325.519,229.727c11.637-8.686,24.823-18.5,24.823-18.5l37.353,2.25-36.8,27.529-15.854,10.73s-3.028-.238-1.17,4.5c.585,1.5,1.479,4.5,2.417,7.9l-7.355,20.277s-4.655-6.763-9.727-19.872c-5.143-13.27-5.465-17.641-4.938-20.277C314.969,240.81,316.011,236.8,325.519,229.727Z" transform="translate(-300.351 -211.23)" fill="#455a64"/>
            <path id="Trazado_716530" data-name="Trazado 716530" d="M334.17,240.63a95.515,95.515,0,0,0-8.576,7.406,34.929,34.929,0,0,0-3.716,4.173A6.667,6.667,0,0,0,320.7,254.5a18.7,18.7,0,0,0-.354,2.732,24.567,24.567,0,0,0,.424,5.51c.315,1.839.765,3.665,1.247,5.484,1,3.652,1.929,7.329,2.848,11.007-1.382-3.536-2.623-7.123-3.774-10.737a48.786,48.786,0,0,1-1.472-5.542,22.623,22.623,0,0,1-.469-5.786,19.793,19.793,0,0,1,.405-2.9A7.637,7.637,0,0,1,321,251.559a31.429,31.429,0,0,1,3.992-4.166,62.728,62.728,0,0,1,9.181-6.763Z" transform="translate(-302.149 -221.728)" fill="#37474f"/>
            <path id="Trazado_716531" data-name="Trazado 716531" d="M360.372,240.659c-.469.315-2.533,1.762-3.08,2.147-7.323,5.182-19.692,15.218-21.075,19.615a126.476,126.476,0,0,0-5.908,20.94s.231-6.821.489-13.5c.354-9.341,2.044-11.971,5.079-15.43,2.925-3.324,18.5-12.858,19.589-13.469-2.687-2.128-4.012-6.519-4.005-8.731C351.462,232.236,355.409,238.942,360.372,240.659Z" transform="translate(-306.145 -218.729)" fill="#37474f"/>
            <path id="Trazado_716532" data-name="Trazado 716532" d="M325.265,362.909c.951-.064,1.016,1.562,1.594,3.626a10.567,10.567,0,0,1,.309,6.191c-.778,2.617-4.905,3.144-6.931,6.622s-4.925,9.7-12.215,11.778-13.109.032-14.645-2.077-.444-4.282,4.108-7.316c4.828-3.215,6.191-4.172,6.191-4.172Z" transform="translate(-292.723 -265.392)" fill="#263238"/>
            <path id="Trazado_716533" data-name="Trazado 716533" d="M319.223,343.8a111.8,111.8,0,0,1-3.69,12.858,52.106,52.106,0,0,1-8.531,13.5c-.765.932-2.527,2.674-3.157,3.427a1.434,1.434,0,0,0,.2,2.2c1.652,1.5,8.5,1.717,12.273-1.247s7.085-9.129,9.335-11.5c.836-.887,1.627-1.794,2.372-2.758a4.783,4.783,0,0,0,1.106-3.086,13.674,13.674,0,0,1,.186-4.417,49.467,49.467,0,0,1,1.672-5.728Z" transform="translate(-296.543 -258.569)" fill="#ffa8a7"/>
            <path id="Trazado_716534" data-name="Trazado 716534" d="M390.978,214.66c4.089,12.479,3.215,19.172.945,24.527-1.884,4.462-5.407,9.1-15.571,14-9.644,4.642-18.644,9.56-21.042,10.685s-3.17,3.774-4.282,8.506a81.083,81.083,0,0,1-7.265,21.287c-5.143,10.068-6.564,13.045-6.564,13.045s-7,2.179-12.048-2.533c0,0,4.6-38.575,5.735-44.8.759-4.185,1.877-6.5,5.227-9.509,7.792-7,22.18-15.43,22.18-15.43s-1.074-12.723,1.414-19.737Z" transform="translate(-304.302 -212.455)" fill="#455a64"/>
            <path id="Trazado_716535" data-name="Trazado 716535" d="M331.51,310.265q.752-8.422,1.864-16.793c.746-5.587,1.549-11.154,2.662-16.716.141-.694.309-1.389.476-2.083l.309-1.054.379-1.029a16.6,16.6,0,0,1,2.186-3.774,31.123,31.123,0,0,1,6.236-5.863c2.269-1.7,4.661-3.215,7.033-4.712s4.758-3.015,7.168-4.5c-2.263,1.684-4.565,3.3-6.847,4.957s-4.6,3.215-6.783,4.976a32.145,32.145,0,0,0-5.9,5.786A16.117,16.117,0,0,0,338.306,273l-.347.952-.283.977c-.154.675-.315,1.35-.45,2.038-.579,2.732-1.048,5.5-1.517,8.274l-1.389,8.326Q332.969,301.939,331.51,310.265Z" transform="translate(-306.573 -226.41)" fill="#37474f"/>
          </g>
          <g id="freepik--Top--inject-13">
            <path id="Trazado_716536" data-name="Trazado 716536" d="M280.031,121.158a3.967,3.967,0,0,1,2.314.18,25.351,25.351,0,0,1,3.311,1.858c1.7.919,4.423,2.43,6.384,2.347.4,0,1.222-.18.681-.643a16.453,16.453,0,0,1-2.064-2.006,3.446,3.446,0,0,1-.8-2.668,1.144,1.144,0,0,1,.4-.746c.328-.244.559-.09.816.1a8.573,8.573,0,0,0,.874.534c.643.347,1.234.694,1.845,1.054,3.562,2.089,7.13,4.5,9.239,8.184.3.534,2.147,4.706,3.337,7.072.964,2.147,8.3,15.6,8.3,15.6l13.07-12.742c2.925-2.925,5.85-5.638,8.448-6.635,1.858-.714,4.43-1.672,4.43-1.672l-4.77,22.393s-13.81,10.383-15.783,11.81c-2.925,2.122-8.769,5.548-11.669,1.967-3.935-4.86-5.85-11.875-7.715-17.224s-2.816-8.6-3.857-10.441-2.784-1.974-4-2.353a18.741,18.741,0,0,1-4.8-2.1,17.211,17.211,0,0,1-3.69-2.72,5.432,5.432,0,0,1-1.427-1.71,15.307,15.307,0,0,0-.341-1.819,17.3,17.3,0,0,1-1.106-1.871,6.827,6.827,0,0,1-.116-1.7,2.86,2.86,0,0,0-1.222-2.012,2.649,2.649,0,0,1-.8-.939C279.093,121.6,279.517,121.3,280.031,121.158Z" transform="translate(-279.259 -88.499)" fill="#ffa8a7"/>
            <path id="Trazado_716537" data-name="Trazado 716537" d="M319.837,151.691l-1.819-3.041a9.277,9.277,0,0,1-3.71,4.352c-2.945,1.961-4.938,1.247-4.938,1.247l1.074,3.658s2.224.829,5.741-1.492S319.837,151.691,319.837,151.691Z" transform="translate(-290.012 -98.96)" fill="#3076b6"/>
            <path id="Trazado_716538" data-name="Trazado 716538" d="M354.334,134.94a19.725,19.725,0,0,0-11.99,5.143c-3.06,2.572-16.458,15.128-16.458,15.128l-6.326-9.734s-.366,2.687-4.044,4.822c-3.857,2.25-5.285,1.485-5.285,1.485s2.88,11.572,6.05,17.262,4.983,7.548,10.158,5.214S349.3,158.766,349.3,158.766Z" transform="translate(-290.319 -94.065)" fill="#263238"/>
            <path id="Trazado_716539" data-name="Trazado 716539" d="M302.6,131.63a12.7,12.7,0,0,0,4.378,5.51,5.255,5.255,0,0,1-3.26-1.665,4.931,4.931,0,0,1-1.119-3.845Z" transform="translate(-287.576 -92.883)" fill="#f28f8f"/>
            <path id="Trazado_716540" data-name="Trazado 716540" d="M334.58,165.737c2.212,3.857,2.906,8.769,2.443,11.289a13.214,13.214,0,0,0-1.009-12.627Z" transform="translate(-299.014 -104.584)"/>
            <g id="freepik--top--inject-13-2" data-name="freepik--top--inject-13" transform="translate(49.795)">
              <path id="Trazado_716541" data-name="Trazado 716541" d="M402.22,72.736a11.81,11.81,0,0,1,10.248-.392c4.455,2.167,5.349,4.61,5.9,9.779.829,7.766,1.44,10.1,2.417,11.842a6.545,6.545,0,0,0,3.954,3.144,4.539,4.539,0,0,1-4.4.328c.9,3.716,2.1,6.821,1.286,10.807a15.6,15.6,0,0,1-3.857,7.715c-1.691,1.684-4.179,2.263-6.249,3.247,1.318-3.086,1.987-5.985.894-9.374-1.2-3.735-3.857-6.866-5.079-10.634-1.729-5.214-3.684-10.6-4.3-16.073A98.948,98.948,0,0,1,402.22,72.736Z" transform="translate(-372.962 -71.361)" fill="#263238"/>
              <path id="Trazado_716542" data-name="Trazado 716542" d="M400.753,72.582c.469-.81,3.491-1.286,5.876.276s4.353,4.288,2.713,6.564C407.8,81.583,397.584,75.751,400.753,72.582Z" transform="translate(-372.222 -71.528)" fill="#3076b6"/>
              <path id="Trazado_716543" data-name="Trazado 716543" d="M394.764,136.541c4.5,1.768,4.97,1.929,4.97,1.929.939,2.456,5.1,9.206,4.005,15.8s-4.5,20.573-3.761,23.318,4.539,10.4,5.9,18.644a57.141,57.141,0,0,1-5.143,2.7s-1.524-9.547-4.05-12.935a120.858,120.858,0,0,1,0,12.312,39.018,39.018,0,0,1-23.177.559c-13.173-3.787-14.144-10.512-14.144-10.512s2.289-8.506,2.289-12.858-.791-11.335-.791-11.335-5.658-5.555-3.755-11.752c1.807-5.876,11.72-15.713,13.816-17.731a30.133,30.133,0,0,0,5.818-.463Z" transform="translate(-356.711 -93.807)" fill="#37474f"/>
              <path id="Trazado_716544" data-name="Trazado 716544" d="M396.224,136.406c-.643,3.215-1.929,4.005-5.574,8s-15.051,14.9-16.073,19.628c-.688-4.057-1.614-9.489-.546-14.24s3.671-11.052,7.76-14.26l14.1-.6Z" transform="translate(-362.722 -94.065)" fill="#3076b6"/>
              <g id="freepik--Head--inject-13" transform="translate(4.99 0.683)">
                <g id="freepik--head--inject-13-2" data-name="freepik--head--inject-13" transform="translate(3.057)">
                  <path id="Trazado_716545" data-name="Trazado 716545" d="M369.834,89.748c-3.407-12.562,8.171-18.985,19.692-16.954,3.793.643,8.692,2.835,9.213,8.242,5.015,1.575,7.426,8.281,4.327,15.43-2.244,5.2-6.731,7.786-8.763,10.981Z" transform="translate(-369.228 -72.424)" fill="#263238"/>
                  <path id="Trazado_716546" data-name="Trazado 716546" d="M399.2,96.814c-3.215-1.408-4.841,1.967-4.841,1.967-2.1,1.286-3.3-2.9-3.761-4.16-.8-2.212-1.562-5.362-4.012-6.275-1.819-.681-3.857,0-5.542.99a4.2,4.2,0,0,1-3.33.444c-1-.27-1.286-1.832-2.218-2.314-2.617-1.408-4.648,2.9-5.008,4.963a42.277,42.277,0,0,0-.6,8.358c.193,9.361,3.33,13.167,4.918,14.022s3.549,1.087,6.673.829l-.045,2.765a26.02,26.02,0,0,0-2.244,9.644,37.672,37.672,0,0,0,15.366-9.5v-12.55c.591,1.222,3.369,1.807,5.085-.392C401.84,102.729,402.284,98.164,399.2,96.814Z" transform="translate(-369.456 -77.696)" fill="#ffa8a7"/>
                  <path id="Trazado_716547" data-name="Trazado 716547" d="M387.332,117.84l-4.372,1.35a2.244,2.244,0,0,0,2.816,1.588A2.4,2.4,0,0,0,387.332,117.84Z" transform="translate(-374.132 -88.642)" fill="#b16668"/>
                  <path id="Trazado_716548" data-name="Trazado 716548" d="M387.9,119.4a2.514,2.514,0,0,0-2.533,1.929,2.128,2.128,0,0,0,1.286,0,2.359,2.359,0,0,0,1.607-1.89A2.064,2.064,0,0,0,387.9,119.4Z" transform="translate(-374.992 -89.198)" fill="#f28f8f"/>
                  <path id="Trazado_716549" data-name="Trazado 716549" d="M387.906,128.956c3.035-.463,8.57-1.929,9.489-4.436a4.79,4.79,0,0,1-2.205,3.812c-1.961,1.492-7.31,2.424-7.31,2.424Z" transform="translate(-375.889 -91.027)" fill="#f28f8f"/>
                </g>
                <path id="Trazado_716550" data-name="Trazado 716550" d="M372.61,95.49l3.118.932A1.562,1.562,0,0,0,374.7,94.4a1.717,1.717,0,0,0-2.089,1.087Z" transform="translate(-367.378 -80.249)" fill="#263238"/>
                <path id="Trazado_716551" data-name="Trazado 716551" d="M392.842,97.639,390,96.07a1.562,1.562,0,0,1,2.16-.688A1.71,1.71,0,0,1,392.842,97.639Z" transform="translate(-373.588 -80.553)" fill="#263238"/>
                <path id="Trazado_716552" data-name="Trazado 716552" d="M373.48,104.165a1.318,1.318,0,1,0,1.421-1.286,1.344,1.344,0,0,0-1.421,1.286Z" transform="translate(-367.689 -83.298)" fill="#263238"/>
                <path id="Trazado_716553" data-name="Trazado 716553" d="M389,105.285A1.324,1.324,0,1,0,390.427,104,1.363,1.363,0,0,0,389,105.285Z" transform="translate(-373.231 -83.699)" fill="#263238"/>
                <path id="Trazado_716554" data-name="Trazado 716554" d="M364.477,99.357a2.855,2.855,0,0,0,.643,1.4,1.234,1.234,0,0,1,.251.5,25.871,25.871,0,0,0,.919,3.716,4.43,4.43,0,0,0,3.992,2.822,5.349,5.349,0,0,0,1.344-.039h.1a3.658,3.658,0,0,0,1.087-.373l.064-.039.1-.051.116-.077a1.072,1.072,0,0,0,.1-.077.855.855,0,0,0,.122-.09l.109-.09c.071-.064.141-.135.206-.206a4.551,4.551,0,0,0,.861-1.35c.547-1.247.373-3.054,1.286-3.215h.238c1.286.09,1.164,2.038,1.929,3.472a5.182,5.182,0,0,0,4.7,3.054h.643a5.285,5.285,0,0,0,.643-.058l.206-.039.2-.045h.129a3.291,3.291,0,0,0,.746-.315,1.933,1.933,0,0,0,.244-.154,3.324,3.324,0,0,0,.431-.354,4.115,4.115,0,0,0,.816-1.286,21.676,21.676,0,0,0,.7-3.6,1.286,1.286,0,0,1,.206-.514,2.314,2.314,0,0,0,.6-1.286,1.241,1.241,0,0,0-.784-1.2l-.681-.122A21.194,21.194,0,0,0,380,99.447c-2.128.469-2.855,1.112-4.05,1.035s-1.845-.836-3.857-1.607a17.391,17.391,0,0,0-6.313-.643l-.643.032C364.812,98.264,364.426,98.772,364.477,99.357Zm14.073,2.1a1.736,1.736,0,0,1,.6-.463l.109-.051h.058l.3-.122.276-.1a7.277,7.277,0,0,1,.913-.231l.36-.071c.309-.045.643-.077.932-.1h.225a5.682,5.682,0,0,1,3.819.945c.476.45.3,2.347.116,3.3a.231.231,0,0,1,0,.071.323.323,0,0,1,0,.077,3.869,3.869,0,0,1-.084.386l-.058.238c-.039.129-.077.264-.129.4h0l-.058.135a1.339,1.339,0,0,1-.077.167.916.916,0,0,1-.051.116l-.071.122a1.367,1.367,0,0,1-.077.129l-.09.135a2.99,2.99,0,0,1-2.855,1.2,4.263,4.263,0,0,1-3.054-1.286h0a4.661,4.661,0,0,1-1.029-2.006C378.313,103.286,378.159,102.019,378.551,101.453Zm-12.112-1.659a1.524,1.524,0,0,1,.5-.289h.039a1.859,1.859,0,0,1,.225-.071l.135-.039h.328a3.49,3.49,0,0,1,.469-.051h1.1a8.132,8.132,0,0,1,.952.141,6.322,6.322,0,0,1,3.42,1.672,6.048,6.048,0,0,1-.013,3.645.2.2,0,0,1,0,.051.488.488,0,0,0,0,.071v.051a.122.122,0,0,1-.032.084l-.077.174-.077.148v.051l-.058.1-.058.09h0a3.01,3.01,0,0,1-3.035,1.228,3.793,3.793,0,0,1-1.543-.456,4.727,4.727,0,0,1-2.051-3.215C366.323,102.115,366.008,100.187,366.438,99.795Z" transform="translate(-364.473 -81.629)" fill="#37474f"/>
                <path id="Trazado_716555" data-name="Trazado 716555" d="M400.326,101.05l6.243,1.067a5.375,5.375,0,0,0-1.215,1.376l-5.053-.861Z" transform="translate(-377.266 -82.646)" fill="#37474f"/>
                <path id="Trazado_716556" data-name="Trazado 716556" d="M380.31,104.554l-.81,7.618L375,110.6l4.873-6.217a.99.99,0,0,1,.437.174Z" transform="translate(-368.232 -83.835)" fill="#f28f8f"/>
                <path id="Trazado_716557" data-name="Trazado 716557" d="M410.22,113.339a1.183,1.183,0,1,0,.344-.841A1.189,1.189,0,0,0,410.22,113.339Z" transform="translate(-380.809 -86.61)" fill="#fafafa"/>
              </g>
              <path id="Trazado_716558" data-name="Trazado 716558" d="M395.669,132.7v1.44a119.1,119.1,0,0,1-8.358,10.389c-5.529,6.1-10.254,10.743-11.952,14.973a44.918,44.918,0,0,0-2.36,9.483,23.729,23.729,0,0,1,8.21-12.138c4.005-3.215,10.479-5.67,11.7-7.715,1.151-1.929-1.164-4.6-1.164-4.6a27.086,27.086,0,0,0,6.352-3c2.411-1.749,2.469-5.529,2.469-5.529Z" transform="translate(-362.528 -93.265)" fill="#263238"/>
              <path id="Trazado_716559" data-name="Trazado 716559" d="M381.734,134.806a25.9,25.9,0,0,0-6.8,12.569c-1.022,5.433-1.472,17.789-1.472,17.789s-1.44-8.358-2.224-11.881-1.189-6.275,2.674-9.92c-.951-1.652-1.119-2.269.9-4.68a18,18,0,0,1,3.761-3.5l3.157-2.025Z" transform="translate(-361.715 -93.429)" fill="#263238"/>
            </g>
            <path id="Trazado_716560" data-name="Trazado 716560" d="M361.684,184.522c-2.154-.219-4.23-2.205-7-3.26s-5.143-1.087-7.072-1.858c-.784.444-.379,2.1.553,2.816,1.453,1.112,3.665,1.807,3.137,2.4-.778.874-3.767.27-4.674.084-2.8-.579-5.786-2.257-8.679-1.639a1.286,1.286,0,0,0-.8.437,1,1,0,0,0,.225,1.189,5.649,5.649,0,0,0,1.074.733,1.485,1.485,0,0,1,.739,1.022c.032.4-.206.784-.154,1.177a1.447,1.447,0,0,0,.334.681,4.757,4.757,0,0,0,1.041.958,7.425,7.425,0,0,1,.958.643,9.908,9.908,0,0,1,1.691,1.672c1.53,2.488,4.809,3.215,7.471,3.7,5.69.99,8.3-.206,11.656-.141s17.641-.373,24.977-.9c7.683-.546,8.615-1.974,10.782-9.309a210.28,210.28,0,0,0,5.754-26.173c1.215-9.213-3-14.2-9.727-16.838-1.594,1.408-5.1,8.043-6.648,20.252l-3.285,18.4S363.845,184.747,361.684,184.522Z" transform="translate(-299.894 -96.553)" fill="#ffa8a7"/>
            <path id="Trazado_716561" data-name="Trazado 716561" d="M381.825,206.77l-3.555.771a29.837,29.837,0,0,1,.643,5.535,19.286,19.286,0,0,1-.514,5.227l4.333.129S385.168,211.682,381.825,206.77Z" transform="translate(-314.615 -119.714)" fill="#3076b6"/>
            <path id="Trazado_716562" data-name="Trazado 716562" d="M408.668,140.81c4.14,1.459,7.181,3.035,9.29,6.358s2.52,7.438,1.627,14.337-5.143,23.582-6.32,27.4-1.929,4.68-5.979,5.388-24.939.9-24.939.9a16.647,16.647,0,0,0,.476-6.236,18.708,18.708,0,0,0-1.093-5.722l18-3.279s2.861-17.2,3.857-22.6A57.816,57.816,0,0,1,408.668,140.81Z" transform="translate(-315.851 -96.161)" fill="#263238"/>
            <path id="Trazado_716563" data-name="Trazado 716563" d="M409.78,200.909c2.488-.27,6.667,1.4,7.895,3.7-.514-2.424-3.086-5.085-7.638-5.073Z" transform="translate(-325.867 -117.133)"/>
          </g>
        </g>
      </g>
      <g id="freepik--character-1--inject-13" transform="translate(28.092 50.668)">
        <g id="freepik--character--inject-13-2" data-name="freepik--character--inject-13" transform="translate(0 0)">
          <g id="freepik--chair--inject-13-3" data-name="freepik--chair--inject-13" transform="translate(6.114 51.256)">
            <path id="Trazado_716564" data-name="Trazado 716564" d="M186.058,329.158,180.5,269.1l-5.143-.257,8.107,60.311h0a.7.7,0,0,0,.347.463,2.025,2.025,0,0,0,1.832.09.643.643,0,0,0,.405-.547Z" transform="translate(-95.033 -189.375)" fill="#263238"/>
            <path id="Trazado_716565" data-name="Trazado 716565" d="M180.483,269.1l-5.143-.257,1.517,9.972a20,20,0,0,0,3.047-1.4,3.138,3.138,0,0,0,1.363-1.164Z" transform="translate(-95.026 -189.375)" fill="#263238"/>
            <path id="Trazado_716566" data-name="Trazado 716566" d="M69.411,257.24H64.268L56,314.369h0a.643.643,0,0,0,.373.566,2.019,2.019,0,0,0,1.839,0,.7.7,0,0,0,.366-.444h0Z" transform="translate(-52.411 -185.233)" fill="#37474f"/>
            <path id="Trazado_716567" data-name="Trazado 716567" d="M67.726,257.24,65.72,271.114a21.536,21.536,0,0,0,4.07,2.488l3.092-16.362Z" transform="translate(-55.882 -185.233)" fill="#263238"/>
            <path id="Trazado_716568" data-name="Trazado 716568" d="M133.239,356.1l-4.1-60.941L124,294.89l6.654,61.2h0a.7.7,0,0,0,.347.463,2.025,2.025,0,0,0,1.832.09A.643.643,0,0,0,133.239,356.1Z" transform="translate(-76.693 -198.677)" fill="#37474f"/>
            <path id="Trazado_716569" data-name="Trazado 716569" d="M129.664,302.859l-.521-7.715L124,294.88l.9,8.319A9.826,9.826,0,0,0,129.664,302.859Z" transform="translate(-76.693 -198.674)" fill="#263238"/>
            <path id="Trazado_716570" data-name="Trazado 716570" d="M113.208,231.78h-5.143L99.81,290.028h0a.643.643,0,0,0,.379.566,2.019,2.019,0,0,0,1.839,0,.682.682,0,0,0,.366-.444h0Z" transform="translate(-68.055 -176.141)" fill="#263238"/>
            <g id="freepik--chair--inject-13-4" data-name="freepik--chair--inject-13">
              <path id="Trazado_716571" data-name="Trazado 716571" d="M52.573,164.3a29.092,29.092,0,0,0-2.064,9.059c-.585,6.937,1.762,29.42,3.176,39.475h0c2.038,16.793,4.545,16.825,8.184,19.634,6.262,4.841,24.263,14.318,30.217,16.658,10.775,4.243,19.583-2.3,26.154-5.542a151.8,151.8,0,0,0,17.4-10.287c1.639-1.2,2.488-2.4,2.475-3.671v-3.1c0-1.62-1.434-3.362-4.449-5.317-5.568-3.613-25.684-15.34-33.476-19.66a.077.077,0,0,0-.064-.064c-6-3.639-9.605-28.391-13.758-41.558-.09-.283-.18-.553-.27-.816s-.148-.418-.219-.611c-.264-.72-.527-1.376-.816-1.974" transform="translate(-50.417 -149.27)" fill="#3076b6"/>
              <path id="Trazado_716572" data-name="Trazado 716572" d="M138.127,222.472c0-1.62-1.434-3.362-4.449-5.317-5.568-3.613-25.684-15.34-33.476-19.66a.077.077,0,0,0-.064-.064c-6-3.639-9.605-28.391-13.758-41.558a24.918,24.918,0,0,0-.849-2.43c0-.058-.051-.116-.071-.174-.077-.174-.154-.354-.238-.534s-.077-.186-.122-.27h0a12.6,12.6,0,0,0-2.771-4.005,6,6,0,0,0-1.357-.952c-.643-.379-2.089-1.17-2.443-1.376-4.076-2.437-9.419.489-16.073,4.134-4.14,2.269-7.676,4.97-9.824,10h0a29.092,29.092,0,0,0-2.064,9.059c-.585,6.937,1.762,29.42,3.176,39.475h0c2.038,16.793,4.545,16.825,8.184,19.634,6.262,4.841,24.263,14.318,30.217,16.658,10.775,4.243,19.583-2.3,26.154-5.542a151.8,151.8,0,0,0,17.4-10.287c1.639-1.2,2.488-2.4,2.475-3.671C138.114,225.069,138.127,223,138.127,222.472Z" transform="translate(-50.439 -145.238)" fill="#3076b6"/>
              <path id="Trazado_716573" data-name="Trazado 716573" d="M138.127,222.472c0-1.62-1.434-3.362-4.449-5.317-5.568-3.613-25.684-15.34-33.476-19.66a.077.077,0,0,0-.064-.064c-6-3.639-9.605-28.391-13.758-41.558a24.918,24.918,0,0,0-.849-2.43c0-.058-.051-.116-.071-.174-.077-.174-.154-.354-.238-.534s-.077-.186-.122-.27h0a12.6,12.6,0,0,0-2.771-4.005,6,6,0,0,0-1.357-.952c-.643-.379-2.089-1.17-2.443-1.376-4.076-2.437-9.419.489-16.073,4.134-4.14,2.269-7.676,4.97-9.824,10h0a29.092,29.092,0,0,0-2.064,9.059c-.585,6.937,1.762,29.42,3.176,39.475h0c2.038,16.793,4.545,16.825,8.184,19.634,6.262,4.841,24.263,14.318,30.217,16.658,10.775,4.243,19.583-2.3,26.154-5.542a151.8,151.8,0,0,0,17.4-10.287c1.639-1.2,2.488-2.4,2.475-3.671C138.114,225.069,138.127,223,138.127,222.472Z" transform="translate(-50.439 -145.238)" fill="#fff" opacity="0.25"/>
              <path id="Trazado_716574" data-name="Trazado 716574" d="M123.081,264.12a152.363,152.363,0,0,0,17.436-10.332c3.735-2.713,3.388-5.484-1.967-8.962C131.118,240,100.8,222.8,100.8,222.8s-38.362,22.63-36.717,26.822,25.376,17.1,32.846,20.039C107.729,273.9,116.517,267.366,123.081,264.12Z" transform="translate(-55.278 -172.935)" fill="#3076b6"/>
              <path id="Trazado_716575" data-name="Trazado 716575" d="M123.081,264.12a152.363,152.363,0,0,0,17.436-10.332c3.735-2.713,3.388-5.484-1.967-8.962C131.118,240,100.8,222.8,100.8,222.8s-38.362,22.63-36.717,26.822,25.376,17.1,32.846,20.039C107.729,273.9,116.517,267.366,123.081,264.12Z" transform="translate(-55.278 -172.935)" fill="#fff" opacity="0.6"/>
              <path id="Trazado_716576" data-name="Trazado 716576" d="M82.116,147.519c-4.037-2.122-9.277.759-15.764,4.314-4.153,2.276-7.715,4.976-9.843,10.023l-2.739-1.582c2.147-5.028,5.683-7.715,9.824-10,6.661-3.645,12-6.571,16.073-4.134C80.026,146.374,81.441,147.139,82.116,147.519Z" transform="translate(-51.614 -145.241)" fill="#3076b6"/>
              <path id="Trazado_716577" data-name="Trazado 716577" d="M82.116,147.519c-4.037-2.122-9.277.759-15.764,4.314-4.153,2.276-7.715,4.976-9.843,10.023l-2.739-1.582c2.147-5.028,5.683-7.715,9.824-10,6.661-3.645,12-6.571,16.073-4.134C80.026,146.374,81.441,147.139,82.116,147.519Z" transform="translate(-51.614 -145.241)" fill="#fff" opacity="0.5"/>
              <path id="Trazado_716578" data-name="Trazado 716578" d="M87.858,156.734c-.09-.283-1.479-5.111-4.082-7.406a6.583,6.583,0,0,0-4.41-1.678c-3.523,0-7.753,2.327-12.71,5.04-.411.231-.823.463-1.228.7-.154.09-.309.18-.456.276l-.553.341-.4.264a23.89,23.89,0,0,0-2.5,1.929,4.682,4.682,0,0,0-.373.347,16.985,16.985,0,0,0-1.414,1.466c-.084.1-.167.186-.238.283l-.283.347c-.1.116-.18.238-.276.36s-.174.244-.257.373a16.91,16.91,0,0,0-1,1.582l-.116.212c-.084.148-.154.3-.231.45s-.219.444-.321.643a28.552,28.552,0,0,0-2.244,9.5c-.964,11.405,2.945,49.093,6.86,52.346,0,0-.6-3.69,7.291-8.654,5.362-3.369,9.123-6.2,14.845-9,13.945-6.847,17.854-8.133,17.854-8.133C95.618,194.653,92.011,169.9,87.858,156.734Z" transform="translate(-51.918 -146.099)" fill="#3076b6"/>
              <path id="Trazado_716579" data-name="Trazado 716579" d="M87.858,156.734c-.09-.283-1.479-5.111-4.082-7.406a6.583,6.583,0,0,0-4.41-1.678c-3.523,0-7.753,2.327-12.71,5.04-.411.231-.823.463-1.228.7-.154.09-.309.18-.456.276l-.553.341-.4.264a23.89,23.89,0,0,0-2.5,1.929,4.682,4.682,0,0,0-.373.347,16.985,16.985,0,0,0-1.414,1.466c-.084.1-.167.186-.238.283l-.283.347c-.1.116-.18.238-.276.36s-.174.244-.257.373a16.91,16.91,0,0,0-1,1.582l-.116.212c-.084.148-.154.3-.231.45s-.219.444-.321.643a28.552,28.552,0,0,0-2.244,9.5c-.964,11.405,2.945,49.093,6.86,52.346,0,0-.6-3.69,7.291-8.654,5.362-3.369,9.123-6.2,14.845-9,13.945-6.847,17.854-8.133,17.854-8.133C95.618,194.653,92.011,169.9,87.858,156.734Z" transform="translate(-51.918 -146.099)" fill="#fff" opacity="0.4"/>
            </g>
          </g>
          <g id="freepik--bottom--inject-13-2" data-name="freepik--bottom--inject-13" transform="translate(16.538 97.019)">
            <path id="Trazado_716580" data-name="Trazado 716580" d="M141.73,346.219l4.745.932.347-3.382-3.729.739Z" transform="translate(-93.448 -261.895)"/>
            <path id="Trazado_716581" data-name="Trazado 716581" d="M140.927,333s-1.7,2.411-2.218,3.176,1.324,5.3,1.929,6.217l1.363-1.71a16.605,16.605,0,0,1,.084,4.179c-.045,1.524-.534,4.166.354,6.718,1.286,3.78,4.758,7.419,8.866,10.164s7.156,3.215,8.911,3.028a3.284,3.284,0,0,0,3.157-2.263C163.731,361.256,140.927,333,140.927,333Z" transform="translate(-92.336 -258.05)" fill="#263238"/>
            <path id="Trazado_716582" data-name="Trazado 716582" d="M158.729,326.475l.952-1.427c.784.456-.418,2.623-.431,5.143A44.76,44.76,0,0,0,160.5,341.41c1.864,6.513,4.16,11.3,4.983,14.221,1.106,3.909-5.664,4.867-12.286.251-3.285-2.3-8.281-7.715-8.737-10.794s.431-6.841,0-9.149-2.469-5.574-2.224-7.869c.135-1.286,1.787-3.388,3.253-5.143,1.357-1.62,3.086-4.307,3.947-3.465l-.489.952c-.071,1.029.084,2.9,2.572,5.053C152.7,326.559,156.711,329.2,158.729,326.475Z" transform="translate(-93.622 -253.158)" fill="#37474f"/>
            <path id="Trazado_716583" data-name="Trazado 716583" d="M159.993,331.14c1.376.694,3.054,1.132,4.333.289h.045a3.922,3.922,0,0,0-.836,3.343c.341,2.192,1.845,17.095,1.845,17.095s-2.064-12.8-2.475-15.224c-.611-3.587-1.093-4.262-2.925-5.478Z" transform="translate(-99.965 -257.385)" opacity="0.15"/>
            <path id="Trazado_716584" data-name="Trazado 716584" d="M159.577,336.565a.5.5,0,1,1-.1-.677.5.5,0,0,1,.1.677Z" transform="translate(-99.51 -259.043)" opacity="0.15"/>
            <path id="Trazado_716585" data-name="Trazado 716585" d="M160.573,341.93a.493.493,0,1,1-.051-.694A.5.5,0,0,1,160.573,341.93Z" transform="translate(-99.863 -260.949)" opacity="0.15"/>
            <path id="Trazado_716586" data-name="Trazado 716586" d="M161.573,347.354a.5.5,0,0,1-.694.09.5.5,0,0,1,.643-.778.489.489,0,0,1,.051.688Z" transform="translate(-100.22 -262.888)" opacity="0.15"/>
            <path id="Trazado_716587" data-name="Trazado 716587" d="M162.569,352.785a.5.5,0,1,1-.084-.694A.5.5,0,0,1,162.569,352.785Z" transform="translate(-100.573 -264.829)" opacity="0.15"/>
            <path id="Trazado_716588" data-name="Trazado 716588" d="M163.567,358.208a.5.5,0,1,1-.084-.688.489.489,0,0,1,.084.688Z" transform="translate(-100.928 -266.767)" opacity="0.15"/>
            <path id="Trazado_716589" data-name="Trazado 716589" d="M159.224,336.444a.186.186,0,0,1-.077-.116.2.2,0,0,1,.148-.238,8.087,8.087,0,0,1,5.9,1.054h0a.2.2,0,0,1-.231.322,7.838,7.838,0,0,0-5.587-.99A.2.2,0,0,1,159.224,336.444Z" transform="translate(-99.666 -259.095)" fill="#263238"/>
            <path id="Trazado_716590" data-name="Trazado 716590" d="M160.234,341.863a.225.225,0,0,1-.077-.122.193.193,0,0,1,.148-.231,8.1,8.1,0,0,1,5.9,1.048h0a.206.206,0,0,1,.045.276.2.2,0,0,1-.276.045,7.854,7.854,0,0,0-5.587-.984.2.2,0,0,1-.154-.032Z" transform="translate(-100.026 -261.03)" fill="#263238"/>
            <path id="Trazado_716591" data-name="Trazado 716591" d="M161.225,347.3a.2.2,0,0,1,.077-.354,8.29,8.29,0,0,1,5.9,1.048h0a.186.186,0,0,1,.045.27.2.2,0,0,1-.276.051,7.874,7.874,0,0,0-5.587-.99A.2.2,0,0,1,161.225,347.3Z" transform="translate(-100.38 -262.977)" fill="#263238"/>
            <path id="Trazado_716592" data-name="Trazado 716592" d="M162.225,352.721a.219.219,0,0,1-.077-.116.206.206,0,0,1,.154-.238,8.27,8.27,0,0,1,5.9,1.054h0a.2.2,0,1,1-.231.321,7.854,7.854,0,0,0-5.587-.984.206.206,0,0,1-.161-.039Z" transform="translate(-100.738 -264.912)" fill="#263238"/>
            <path id="Trazado_716593" data-name="Trazado 716593" d="M163.234,358.143a.18.18,0,0,1-.077-.116.193.193,0,0,1,.148-.238,8.106,8.106,0,0,1,5.9,1.048h0a.2.2,0,0,1,.045.276.206.206,0,0,1-.276.051,7.822,7.822,0,0,0-5.58-.99.193.193,0,0,1-.161-.032Z" transform="translate(-101.097 -266.844)" fill="#263238"/>
            <path id="Trazado_716594" data-name="Trazado 716594" d="M177.46,396.8l4.565-2.083-1.749-3.067-2.7,2.88Z" transform="translate(-106.207 -278.993)"/>
            <path id="Trazado_716595" data-name="Trazado 716595" d="M169,387s0,3.06.039,4.025,4.327,3.671,5.375,4.1l.116-2.269a17.451,17.451,0,0,1,2.572,3.478c.881,1.286,2.057,3.857,4.346,5.458,3.395,2.4,8.5,3.395,13.63,3.215s7.972-1.62,9.348-2.829,1.755-2.533,1.286-3.806S169,387,169,387Z" transform="translate(-103.186 -277.332)" fill="#263238"/>
            <path id="Trazado_716596" data-name="Trazado 716596" d="M181.738,368.413l-.058-1.774c.939-.1,1.228,2.462,2.758,4.616a45.643,45.643,0,0,0,7.824,8.711c5.5,4.378,10.338,7.033,12.794,9,3.292,2.636-1.839,7.535-10.222,7.631-4.16.051-11.662-1.53-13.9-3.857s-3.761-6.043-5.542-7.715-5.452-3.215-6.628-5.3c-.643-1.151-.54-3.941-.36-6.313.161-2.179,0-5.5,1.241-5.31l.161,1.106c.559.907,1.819,2.392,5.2,2.726C176.691,372.123,181.68,371.936,181.738,368.413Z" transform="translate(-102.924 -270.061)" fill="#37474f"/>
            <path id="Trazado_716597" data-name="Trazado 716597" d="M182.919,373.417c1.582-.244,3.266-.887,3.857-2.372V371a4.05,4.05,0,0,0,1.286,3.324c1.614,1.646,11.881,13.321,11.881,13.321s-9.444-9.573-11.257-11.36c-2.681-2.662-3.491-2.938-5.786-2.861Z" transform="translate(-108.149 -271.619)" fill="#263238"/>
            <path id="Trazado_716598" data-name="Trazado 716598" d="M185.949,379.323a.508.508,0,0,1-.534.489.521.521,0,0,1-.5-.534.508.508,0,0,1,.534-.489A.521.521,0,0,1,185.949,379.323Z" transform="translate(-108.87 -274.4)" opacity="0.15"/>
            <path id="Trazado_716599" data-name="Trazado 716599" d="M190.072,383.3a.514.514,0,0,1-1.022-.045.5.5,0,0,1,.527-.489.521.521,0,0,1,.5.534Z" transform="translate(-110.345 -275.822)" opacity="0.15"/>
            <path id="Trazado_716600" data-name="Trazado 716600" d="M194.192,387.274a.511.511,0,0,1-1.022-.039.514.514,0,0,1,.527-.5.521.521,0,0,1,.5.534Z" transform="translate(-111.816 -277.24)" opacity="0.15"/>
            <path id="Trazado_716601" data-name="Trazado 716601" d="M198.309,391.253a.514.514,0,1,1-.489-.534.508.508,0,0,1,.489.534Z" transform="translate(-113.284 -278.66)" opacity="0.15"/>
            <path id="Trazado_716602" data-name="Trazado 716602" d="M202.429,395.224a.521.521,0,0,1-.534.5.514.514,0,1,1,.534-.5Z" transform="translate(-114.756 -280.079)" opacity="0.15"/>
            <path id="Trazado_716603" data-name="Trazado 716603" d="M185.6,378.232a.206.206,0,0,1-.154-.347,8.448,8.448,0,0,1,5.619-2.674h0a.206.206,0,1,1,0,.411,7.978,7.978,0,0,0-5.31,2.539.225.225,0,0,1-.154.071Z" transform="translate(-109.039 -273.122)" fill="#263238"/>
            <path id="Trazado_716604" data-name="Trazado 716604" d="M189.732,382.192a.2.2,0,0,1-.135-.341,8.413,8.413,0,0,1,5.619-2.681h0a.206.206,0,1,1,0,.411,8.152,8.152,0,0,0-5.31,2.54A.206.206,0,0,1,189.732,382.192Z" transform="translate(-110.519 -274.536)" fill="#263238"/>
            <path id="Trazado_716605" data-name="Trazado 716605" d="M193.892,386.182a.2.2,0,0,1-.135-.341,8.413,8.413,0,0,1,5.619-2.681h0a.206.206,0,1,1,0,.411,8.152,8.152,0,0,0-5.31,2.54A.206.206,0,0,1,193.892,386.182Z" transform="translate(-112.005 -275.961)" fill="#263238"/>
            <path id="Trazado_716606" data-name="Trazado 716606" d="M197.972,390.162a.212.212,0,0,1-.135-.058.206.206,0,0,1,0-.289,8.418,8.418,0,0,1,5.619-2.674h0a.206.206,0,1,1,0,.411,7.969,7.969,0,0,0-5.31,2.572.206.206,0,0,1-.174.039Z" transform="translate(-113.462 -277.382)" fill="#263238"/>
            <path id="Trazado_716607" data-name="Trazado 716607" d="M202.092,394.132a.2.2,0,0,1-.135-.341,8.413,8.413,0,0,1,5.619-2.681h0a.212.212,0,0,1,.2.206.206.206,0,0,1-.206.206,8.172,8.172,0,0,0-5.31,2.54A.206.206,0,0,1,202.092,394.132Z" transform="translate(-114.933 -278.8)" fill="#263238"/>
            <path id="Trazado_716608" data-name="Trazado 716608" d="M140.9,288.156c1.556-5.343,3.915-13.5,5.42-18.972,2.4-8.718,4.044-17.783,3.215-22.02-1.074-5.715-6.654-11.572-14.729-17.031-8.789-5.947-20.361-13.713-20.361-13.713l-47.659.643c.135,7.683-1.08,13.694,1.665,21,2.424,6.429,6.481,10.126,18.914,17.474,8.827,5.208,19.159,11.084,21.39,12.55,2.829,1.852,5.5,3.337,6.358,8.165.823,4.6,1.723,12.588,6.288,22.5,5.22,11.367,9.882,21.48,9.882,21.48s10.164,2.276,16.594-5.208C147.875,315.023,144.544,302,140.9,288.156Z" transform="translate(-66.63 -216.42)" fill="#455a64"/>
            <path id="Trazado_716609" data-name="Trazado 716609" d="M162.889,291.354c-3.433-12.98-6.918-25.826-7.985-28.609-2.282-5.908-25.523-23.691-26.244-24.263,0,0,4.674-2.527,7.432-9.612-.212,5.786-2.79,8.358-3.626,9.811,3.517,2.906,11.469,9.071,15.038,12.215,4.5,3.928,9.2,8.6,10.7,14.684C159.314,270.1,161.718,284.289,162.889,291.354Z" transform="translate(-88.781 -220.866)" fill="#37474f"/>
          </g>
          <g id="freepik--top--inject-13-3" data-name="freepik--top--inject-13">
            <path id="Trazado_716610" data-name="Trazado 716610" d="M174.89,149.756c6.641-5.722,8.551-7.31,9.2-9.271s.591-3.684.907-6.815.733-6.063.932-7.715c.206-1.742,1.286-2.276,2.572-.643,1.093,1.434.771,3.729.913,5.3.161,1.864,1.157,1.684,2.205.424s5.979-7.554,7.76-9.38,3.157-1.556,3.735-.733c.334.469-.585,1.569-2.739,4.443s-3.33,4.262-3.125,4.417,1.44-1.324,4.005-3.922c2.359-2.4,3.041-3.112,4.295-3.71,1.485-.707,2.3.791,1.543,1.762s-1.286,1.691-4.59,5.336c-2.3,2.533-2.443,2.887-2.257,3.073s1.286-.752,3.767-2.9c2.668-2.282,4.037-3.015,4.97-2.321a.945.945,0,0,1,.161,1.087,11.649,11.649,0,0,1-2.668,2.848c-1.672,1.427-2.205,1.974-3.047,2.707s-.958,1.048-.759,1.254,1.736-.714,4.86-3.144c1.112-.861,2.572.643.5,2.54-1.106,1.022-5.857,5.85-8.531,8.306-3,2.758-5.233,3.607-7.631,6.056-2.122,2.237-10.479,11.206-10.479,11.206Z" transform="translate(-88.751 -85.075)" fill="#b16668"/>
            <path id="Trazado_716611" data-name="Trazado 716611" d="M199.263,141.7a10.8,10.8,0,0,1-.643,10.062C201.565,150.193,202.413,144.786,199.263,141.7Z" transform="translate(-97.225 -92.719)" fill="#9a4a4d"/>
            <path id="Trazado_716612" data-name="Trazado 716612" d="M124.114,156.6,121.15,130.41c6.429.9,9.161,2.527,13.829,9,2.572,3.6,8.467,11.444,13.951,18.561l13.141-11.3s6.506,4.725,8.165,10.023c0,0-15.3,16.073-18.741,18.959-3.137,2.623-5.529,4.224-10.73-.688A237.191,237.191,0,0,1,124.114,156.6Z" transform="translate(-69.561 -88.687)" fill="#f0f0f0"/>
            <path id="Trazado_716613" data-name="Trazado 716613" d="M186.347,168.548a32.147,32.147,0,0,0-2.5-2.707,10.151,10.151,0,0,0-3.215-2.263c-.27-.1-.418.186-.193.36a29.851,29.851,0,0,1,5.253,5.015,21.315,21.315,0,0,1,1.89,2.694c.1.167.186.334.276.508l.54-.559A18.433,18.433,0,0,0,186.347,168.548Z" transform="translate(-90.693 -100.524)" fill="#e0e0e0"/>
            <path id="Trazado_716614" data-name="Trazado 716614" d="M161.257,172.5c-2.784,2.3-5.375,6.429-5.568,9.521a12.588,12.588,0,0,1,4.533-10.872Z" transform="translate(-81.888 -103.235)" fill="#e0e0e0"/>
            <g id="freepik--Chest--inject-13" transform="translate(11.009 40.604)">
              <path id="Trazado_716615" data-name="Trazado 716615" d="M60.422,137.144s-4.121,6.8-1.543,17.879c2.019,8.7,3.742,12,4.108,21.081.476,11.791.3,22.38.3,22.38,15.841,5.31,43.467-3.787,48.051-13.4,0,0-1.646-7.844-4.623-40.163a22.033,22.033,0,0,0-8.107-15.134l-8.152-.977-11.412-.141-6.513,2.507Z" transform="translate(-58.031 -128.67)" fill="#fafafa"/>
            </g>
            <g id="freepik--head--inject-13-3" data-name="freepik--head--inject-13" transform="translate(20.918)">
              <path id="Trazado_716616" data-name="Trazado 716616" d="M106.822,71.709c-2.437-4.1-6.519-6.526-13.591-6.159-8.576.444-13.032,4.623-13.643,8.126h0a6.088,6.088,0,0,0-3.215,3.067c-.816,1.549-1.4,4.391.8,12.5A32.788,32.788,0,0,0,81.035,98.2a3.986,3.986,0,0,0,2.327,1.864l-.154-6.236-.225-2.488s3.105-.244,3.176-8.8c0-1.157.122-2.1.077-2.88L107.678,81.1S109.266,75.811,106.822,71.709Z" transform="translate(-74.23 -65.513)" fill="#263238"/>
              <path id="Trazado_716617" data-name="Trazado 716617" d="M76.765,99.713c2.443,1.286,4.706-.977,4.706-.977l.469,12.858s.251,2.482,4.2,4.661c5.606,3.1,9.149,3.523,11.572,6.828,1.813-5.542,2.72-8.326-.861-12.53v-3.465a19.84,19.84,0,0,0,5.246-.521c3.407-.984,4.68-2.79,5.323-6.1.907-4.668.6-10.7-1.112-18.5a6.551,6.551,0,0,0-2.366-3.857c-3.78-2.855-9.4-.109-14.189,1.749-1.98.765-5.9.926-7.168.328,1.665,1.845,2.051,6.429,1.093,11.052-.334,1.594-.887,1.929-1.234,1.929-1.389-.039-1.929-1.749-2.784-2.668a3.6,3.6,0,0,0-5.606,1.286,5.921,5.921,0,0,0,2.713,7.934Z" transform="translate(-73.444 -69.569)" fill="#b16668"/>
              <path id="Trazado_716618" data-name="Trazado 716618" d="M102.165,119.746c-4.661-.264-7.966-1.074-9.759-2.456a16.5,16.5,0,0,1-3.986-4.97s.694,4.4,3.266,6.429,5.606,3.163,10.486,3.163Z" transform="translate(-78.792 -82.228)" fill="#9a4a4d"/>
              <path id="Trazado_716619" data-name="Trazado 716619" d="M103.468,89.946l-3.414.456a1.813,1.813,0,0,1,1.524-1.98,1.678,1.678,0,0,1,1.89,1.524Z" transform="translate(-82.943 -73.689)" fill="#263238"/>
              <path id="Trazado_716620" data-name="Trazado 716620" d="M101.67,96.056a1.4,1.4,0,1,0,1.35-1.447A1.4,1.4,0,0,0,101.67,96.056Z" transform="translate(-83.523 -75.903)" fill="#263238"/>
              <path id="Trazado_716621" data-name="Trazado 716621" d="M118,88.164l3.215,1.209a1.807,1.807,0,0,0-1.042-2.269A1.678,1.678,0,0,0,118,88.164Z" transform="translate(-89.355 -73.187)" fill="#263238"/>
              <path id="Trazado_716622" data-name="Trazado 716622" d="M120.774,94.653a1.4,1.4,0,1,1-1.357-1.453A1.4,1.4,0,0,1,120.774,94.653Z" transform="translate(-89.344 -75.4)" fill="#263238"/>
              <path id="Trazado_716623" data-name="Trazado 716623" d="M110.39,91.42l1.144,8.93,4.719-1.736a20.843,20.843,0,0,0-5.863-7.194Z" transform="translate(-86.637 -74.764)" fill="#9a4a4d"/>
              <path id="Trazado_716624" data-name="Trazado 716624" d="M106.7,109l4.751.861a2.372,2.372,0,0,1-2.752,2.025A2.533,2.533,0,0,1,106.7,109Z" transform="translate(-85.308 -81.042)" fill="#9a4a4d"/>
              <path id="Trazado_716625" data-name="Trazado 716625" d="M107.325,110.19a2.5,2.5,0,0,0-.585,0,2.494,2.494,0,0,0,1.987,2.109,2.218,2.218,0,0,0,.771,0A2.205,2.205,0,0,0,107.325,110.19Z" transform="translate(-85.334 -81.461)" fill="#f28f8f"/>
            </g>
            <g id="freepik--Tie--inject-13" transform="translate(25.519 37.863)">
              <path id="Trazado_716626" data-name="Trazado 716626" d="M113.533,142.661s1.832-4.153,1.729-5.728l-2.732-2.462-.36,6.609Z" transform="translate(-91.873 -128)" fill="#3076b6"/>
              <path id="Trazado_716627" data-name="Trazado 716627" d="M113.533,142.661s1.832-4.153,1.729-5.728l-2.732-2.462-.36,6.609Z" transform="translate(-91.873 -128)" opacity="0.2"/>
              <path id="Trazado_716628" data-name="Trazado 716628" d="M104.247,143.9,99.7,141.24l-3.472,2.681,6.918,2.964Z" transform="translate(-86.181 -130.418)" fill="#3076b6"/>
              <path id="Trazado_716629" data-name="Trazado 716629" d="M104.247,143.9,99.7,141.24l-3.472,2.681,6.918,2.964Z" transform="translate(-86.181 -130.418)" opacity="0.2"/>
              <path id="Trazado_716630" data-name="Trazado 716630" d="M110.193,181.145c-.6-14.041-.064-24.758-.553-28.153l2.372-.392c1.929,3.98,8.043,15.783,8.57,25.479.347,3.369-1.286,11.154-3.542,11.392S110.283,183.228,110.193,181.145Z" transform="translate(-90.97 -134.474)" fill="#3076b6"/>
              <path id="Trazado_716631" data-name="Trazado 716631" d="M110.193,181.145c-.6-14.041-.064-24.758-.553-28.153l2.372-.392c1.929,3.98,8.043,15.783,8.57,25.479.347,3.369-1.286,11.154-3.542,11.392S110.283,183.228,110.193,181.145Z" transform="translate(-90.97 -134.474)" fill="#fff" opacity="0.1"/>
              <path id="Trazado_716632" data-name="Trazado 716632" d="M112.257,153.131c-.1-.206-.174-.347-.244-.5h0l-2.372.392h0c.045.289.071.572.109,1.029A4.16,4.16,0,0,0,112.257,153.131Z" transform="translate(-90.97 -134.485)" opacity="0.2"/>
              <path id="Trazado_716633" data-name="Trazado 716633" d="M107.908,144.741a10.067,10.067,0,0,1,2.244-.251,5.509,5.509,0,0,1,1.427,1.749,8.255,8.255,0,0,1-.643,3.485,2.861,2.861,0,0,1-2.372.392,4.97,4.97,0,0,1-1.864-2.173,4.5,4.5,0,0,1,1.209-3.2Z" transform="translate(-89.919 -131.578)" fill="#3076b6"/>
              <path id="Trazado_716634" data-name="Trazado 716634" d="M107.908,144.741a10.067,10.067,0,0,1,2.244-.251,5.509,5.509,0,0,1,1.427,1.749,8.255,8.255,0,0,1-.643,3.485,2.861,2.861,0,0,1-2.372.392,4.97,4.97,0,0,1-1.864-2.173,4.5,4.5,0,0,1,1.209-3.2Z" transform="translate(-89.919 -131.578)" fill="#fff" opacity="0.1"/>
              <path id="Trazado_716635" data-name="Trazado 716635" d="M98.634,137.556c-.077,0-.167.193-.244.206-1.71-.791-1.993-1.08-2.43-.926-.816.289-2.572,3.857-2.99,5.04s-.334,1.132-1.929.206a27.362,27.362,0,0,1-7.348-6.275,18.876,18.876,0,0,1-3.092-6.153,21.343,21.343,0,0,0,1.794-2.668c.887-1.839.932-2.674,1.929-2.572l.045,1.241c.27,1.543,2.745,2.925,5.028,4.668s5.908,3.317,6.783,4.07A16.267,16.267,0,0,1,98.634,137.556Z" transform="translate(-80.6 -124.407)" fill="#e6e6e6"/>
              <path id="Trazado_716636" data-name="Trazado 716636" d="M117.011,139.007c-.206.643-2.52-4.185-3.5-4.018-.469.064-1.459,1.472-2.263,2.945H110.6a15.166,15.166,0,0,0,.791-3.857c.1-1.7-1.562-5.979-1.562-5.979v-1.929c.264,0,.855,0,1.189-.039.264.238.784,1.286,1.286,1.89,1.164,1.447,3.857,3.555,4.262,5.426a16.51,16.51,0,0,1,.444,5.561Z" transform="translate(-91.038 -125.022)" fill="#e6e6e6"/>
            </g>
            <path id="Trazado_716637" data-name="Trazado 716637" d="M57.162,139.67c-6.121,2.109-11,4.8-12.472,10.743s-2.79,20.226-3.575,28.828c-.643,7.374.219,13.906,2.424,16.716l14.144-8.673,3.78-23.485S63.469,146.1,57.162,139.67Z" transform="translate(-40.907 -91.994)" fill="#f0f0f0"/>
            <path id="Trazado_716638" data-name="Trazado 716638" d="M59.507,195.717c-1.009,1.974-2.372,2.893-5.355,4.886-2.784,1.858-6.05,3.71-7.361,7.233.064-3.086,1.485-4.822,4.9-7.483s8.5-5.973,8.5-5.973Z" transform="translate(-43.008 -111.53)" fill="#e0e0e0"/>
            <path id="Trazado_716639" data-name="Trazado 716639" d="M58.55,196.46c-1.009,1.974-2.372,2.893-5.355,4.886-2.784,1.858-6.05,3.71-7.361,7.233-1.157,3.105-2.514,5.754-1.151,7.676.939,1.324,5.265,1.588,9.194.726s6.114-3.7,9.682-7.143c3.06-2.951,4.217-4.16,4.217-4.16Z" transform="translate(-42.051 -112.273)" fill="#f0f0f0"/>
            <path id="Trazado_716640" data-name="Trazado 716640" d="M65.842,196.733c-1.678-1.1-2.224-2.462-4.5-3.215s-3.594-.431-6.018-1.1-4.327-.868-5.87,0-1.087,1.774.321,2.3,3.755,1.106,5.465,1.884,3.285,1.087,3.677,2.97a86.375,86.375,0,0,1,1.157,9.084c.244,3.215.154,5.915.456,6.2s1.691.167,2.16-1.768.212-8.564.212-8.564,1.53,4.32,2.417,7.329,1.472,5.336,1.7,5.973,2.289-.321,2.154-2.7-2.006-9.142-2.006-9.142,2.456,2.739,4.037,4.5,3.587,4.237,4.2,4.815,1.736-.906,1.029-2.674-4.005-5.786-4.005-5.786,3.465,2.385,4.025,2.572,2.025-.36,1.087-2.282c-.643-1.286-1.678-1.967-4.5-4.108s-3.028-3.215-3.992-4.282C67.783,197.369,67.063,197.536,65.842,196.733Z" transform="translate(-43.615 -110.623)" fill="#b16668"/>
            <path id="Trazado_716641" data-name="Trazado 716641" d="M67,202.065c2.482.54,4.5-.945,4.693-1.575C71.867,202.1,68.929,203.653,67,202.065Z" transform="translate(-50.225 -113.712)" fill="#9a4a4d"/>
            <path id="Trazado_716642" data-name="Trazado 716642" d="M89.6,214.79a1.061,1.061,0,0,1-1.453.193c-.643-.36-2.417-1.652-3.215-2.25S81.4,210,81.4,210l2.784,3.35s3.465,2.385,4.025,2.572A1.132,1.132,0,0,0,89.6,214.79Z" transform="translate(-55.367 -117.108)" fill="#9a4a4d"/>
          </g>
        </g>
      </g>
      <g id="freepik--Table--inject-13" transform="translate(99.682 144.287)">
        <g id="freepik--table--inject-13-2" data-name="freepik--table--inject-13">
          <g id="freepik--table--inject-13-3" data-name="freepik--table--inject-13" transform="translate(0 10.338)">
            <path id="Trazado_716643" data-name="Trazado 716643" d="M264.249,306.3l8.621,74.8h0a1,1,0,0,0,.566.778,3.035,3.035,0,0,0,2.745,0,1,1,0,0,0,.566-.778h0l-6.982-74.8a1.363,1.363,0,0,0-.8-1.119,4.288,4.288,0,0,0-3.857,0,1.363,1.363,0,0,0-.855,1.119Zm-95.729,74.8h0a.971.971,0,0,0,.566.778,3.022,3.022,0,0,0,2.739,0,.971.971,0,0,0,.566-.778h0l8.654-74.8a1.35,1.35,0,0,0-.8-1.119,4.288,4.288,0,0,0-3.857,0,1.344,1.344,0,0,0-.8,1.119Zm51.143-63.275.881,81.007h0a1.093,1.093,0,0,0,.643.849,3.35,3.35,0,0,0,3.009,0,1.074,1.074,0,0,0,.643-.849h0l.881-81.007a1.5,1.5,0,0,0-.881-1.234,4.725,4.725,0,0,0-4.256,0A1.5,1.5,0,0,0,219.663,317.831Z" transform="translate(-158.066 -254.891)" fill="#3076b6"/>
            <g id="Grupo_1004317" data-name="Grupo 1004317" transform="translate(10.454 49.837)" opacity="0.3">
              <path id="Trazado_716644" data-name="Trazado 716644" d="M264.249,306.3l8.621,74.8h0a1,1,0,0,0,.566.778,3.035,3.035,0,0,0,2.745,0,1,1,0,0,0,.566-.778h0l-6.982-74.8a1.363,1.363,0,0,0-.8-1.119,4.288,4.288,0,0,0-3.857,0,1.363,1.363,0,0,0-.855,1.119Zm-95.729,74.8h0a.971.971,0,0,0,.566.778,3.022,3.022,0,0,0,2.739,0,.971.971,0,0,0,.566-.778h0l8.654-74.8a1.35,1.35,0,0,0-.8-1.119,4.288,4.288,0,0,0-3.857,0,1.344,1.344,0,0,0-.8,1.119Zm51.143-63.275.881,81.007h0a1.093,1.093,0,0,0,.643.849,3.35,3.35,0,0,0,3.009,0,1.074,1.074,0,0,0,.643-.849h0l.881-81.007a1.5,1.5,0,0,0-.881-1.234,4.725,4.725,0,0,0-4.256,0A1.5,1.5,0,0,0,219.663,317.831Z" transform="translate(-168.52 -304.727)"/>
            </g>
            <g id="Grupo_1004318" data-name="Grupo 1004318" transform="translate(15.578 49.837)" opacity="0.15">
              <path id="Trazado_716645" data-name="Trazado 716645" d="M248.308,345.88l-.238-21.737a1.5,1.5,0,0,1,.881-1.234,4.725,4.725,0,0,1,4.256,0,1.5,1.5,0,0,1,.881,1.234l-.238,21.73C252.011,345.931,250.147,345.931,248.308,345.88Z" transform="translate(-202.051 -311.039)"/>
              <path id="Trazado_716646" data-name="Trazado 716646" d="M178.387,306.3a1.344,1.344,0,0,1,.8-1.119,4.288,4.288,0,0,1,3.857,0,1.35,1.35,0,0,1,.8,1.119l-2.636,23.029c-.405-.225-.816-.437-1.215-.643-1.215-.7-2.4-1.479-3.5-2.218Z" transform="translate(-176.49 -304.727)"/>
              <path id="Trazado_716647" data-name="Trazado 716647" d="M318.213,305.185a4.288,4.288,0,0,1,3.857,0,1.363,1.363,0,0,1,.8,1.119l1.89,20.187c-1.112.752-2.3,1.53-3.536,2.244-.386.219-.784.431-1.177.643L317.39,306.3a1.363,1.363,0,0,1,.823-1.119Z" transform="translate(-226.804 -304.727)"/>
            </g>
            <path id="Trazado_716648" data-name="Trazado 716648" d="M262.442,245.649c-25.2-14.549-66.065-14.549-91.293,0-12.6,7.271-18.889,16.806-18.889,26.359v1.852c0,9.534,6.288,19.069,18.889,26.359,25.2,14.555,66.065,14.555,91.293,0,12.6-7.278,18.889-16.812,18.882-26.359v-1.852C281.318,262.455,275.043,252.908,262.442,245.649Z" transform="translate(-152.26 -229.898)" fill="#3076b6"/>
            <path id="Trazado_716649" data-name="Trazado 716649" d="M262.442,245.649c-25.2-14.549-66.065-14.549-91.293,0-12.6,7.271-18.889,16.806-18.889,26.359v1.852c0,9.534,6.288,19.069,18.889,26.359,25.2,14.555,66.065,14.555,91.293,0,12.6-7.278,18.889-16.812,18.882-26.359v-1.852C281.318,262.455,275.043,252.908,262.442,245.649Z" transform="translate(-152.26 -229.898)" opacity="0.2"/>
            <path id="Trazado_716650" data-name="Trazado 716650" d="M262.522,238.127c-25.2-14.555-66.059-14.555-91.293,0-12.6,7.271-18.889,16.806-18.889,26.359v3.182c0,9.534,6.288,19.069,18.889,26.359,25.2,14.555,66.059,14.555,91.293,0,12.6-7.271,18.9-18.13,18.889-27.645v-1.852C281.417,254.932,275.123,245.4,262.522,238.127Z" transform="translate(-152.289 -227.21)" fill="#3076b6"/>
            <path id="Trazado_716651" data-name="Trazado 716651" d="M262.522,238.127c-25.2-14.555-66.059-14.555-91.293,0-12.6,7.271-18.889,16.806-18.889,26.359v3.182c0,9.534,6.288,19.069,18.889,26.359,25.2,14.555,66.059,14.555,91.293,0,12.6-7.271,18.9-18.13,18.889-27.645v-1.852C281.417,254.932,275.123,245.4,262.522,238.127Z" transform="translate(-152.289 -227.21)" fill="#fff" opacity="0.4"/>
            <path id="Trazado_716652" data-name="Trazado 716652" d="M262.522,238.127c-25.2-14.555-66.059-14.555-91.293,0-12.6,7.271-18.889,16.806-18.889,26.359v3.182c0,9.534,6.288,19.069,18.889,26.359,25.2,14.555,66.059,14.555,91.293,0,12.6-7.271,18.9-18.13,18.889-27.645v-1.852C281.417,254.932,275.123,245.4,262.522,238.127Z" transform="translate(-152.289 -227.21)" opacity="0.1"/>
            <ellipse id="Elipse_8440" data-name="Elipse 8440" cx="64.535" cy="37.257" rx="64.535" ry="37.257" transform="translate(0.071)" fill="#3076b6"/>
            <ellipse id="Elipse_8441" data-name="Elipse 8441" cx="64.535" cy="37.257" rx="64.535" ry="37.257" transform="translate(0.071)" fill="#fff" opacity="0.85"/>
          </g>
          <g id="freepik--Laptop--inject-13" transform="translate(41.712)">
            <g id="freepik--laptop--inject-13-2" data-name="freepik--laptop--inject-13" transform="translate(4.899 17.021)">
              <path id="Trazado_716653" data-name="Trazado 716653" d="M224.76,258.012l27.645-15.97a1.594,1.594,0,0,1,1.588,0l47.987,27.709a.354.354,0,0,1,0,.611l-27.922,16.124Z" transform="translate(-224.76 -239.114)" fill="#3076b6" opacity="0.2"/>
              <path id="Trazado_716654" data-name="Trazado 716654" d="M228,261.73v.643a2.572,2.572,0,0,0,1.286,2.218l44.7,25.8a2.508,2.508,0,0,0,1.286.341,2.572,2.572,0,0,0,1.286-.341l24.36-14.022a2.572,2.572,0,0,0,1.286-2.212V273.3h0a.315.315,0,0,1-.161.276L275.286,289Z" transform="translate(-225.917 -246.22)" fill="#37474f"/>
              <path id="Trazado_716655" data-name="Trazado 716655" d="M228,253.109l26.507-15.3a1.537,1.537,0,0,1,1.524,0l45.974,26.552a.341.341,0,0,1,0,.585l-26.751,15.43Z" transform="translate(-225.917 -237.606)" fill="#455a64"/>
              <path id="Trazado_716656" data-name="Trazado 716656" d="M278.593,282.677l14.3-8.242-41.8-24.135-14.369,8.2Z" transform="translate(-229.031 -242.139)" fill="#37474f"/>
              <path id="Trazado_716657" data-name="Trazado 716657" d="M236.72,258.5l.546.315,13.823-7.888,41.249,23.82.546-.315-41.8-24.135Z" transform="translate(-229.031 -242.139)" fill="#263238"/>
              <path id="Trazado_716658" data-name="Trazado 716658" d="M301.678,260.912l-.264.148-7.008,4.044-12.46-7.194-.257-.141,7.271-4.2Z" transform="translate(-245.089 -243.306)" fill="#263238"/>
              <path id="Trazado_716659" data-name="Trazado 716659" d="M301.557,261.224l-7.008,4.044-12.46-7.194,7.014-4.044Z" transform="translate(-245.232 -243.471)" fill="#37474f"/>
              <path id="Trazado_716660" data-name="Trazado 716660" d="M275.235,288.994v1.7a2.507,2.507,0,0,1-1.286-.341l-44.663-25.8A2.572,2.572,0,0,1,228,262.333v-.643Z" transform="translate(-225.917 -246.206)" fill="#263238"/>
            </g>
            <path id="Trazado_716661" data-name="Trazado 716661" d="M270.636,271.587a3.035,3.035,0,0,1-2.61-.206l-44.5-25.716a3.06,3.06,0,0,1-1.472-2.115l-4.867-29.021a2.532,2.532,0,0,1-.045-.5,3.041,3.041,0,0,1,.894-2.154l46.251,26.707a2.237,2.237,0,0,1,1.087,1.569Z" transform="translate(-217.14 -211.398)" fill="#37474f"/>
            <path id="Trazado_716662" data-name="Trazado 716662" d="M271.853,270.94l-.3.174a3.592,3.592,0,0,1-.418.206l-5.265-31.445a2.237,2.237,0,0,0-1.086-1.569L218.53,211.6a3.3,3.3,0,0,1,.643-.469l46.341,26.758a2.27,2.27,0,0,1,1.086,1.562Z" transform="translate(-217.636 -211.13)" fill="#455a64"/>
            <path id="Trazado_716663" data-name="Trazado 716663" d="M291.49,254.091l.72-.411a2.289,2.289,0,0,1,.424.964l5.272,31.5-.3.174a3.586,3.586,0,0,1-.418.206l-5.265-31.445a2.2,2.2,0,0,0-.431-.99Z" transform="translate(-243.69 -226.324)" fill="#263238"/>
            <path id="Trazado_716664" data-name="Trazado 716664" d="M257.01,259.415c-.328-1.929-2.34-4.5-4.5-5.786s-3.632-.643-3.3,1.286,2.334,4.533,4.5,5.786S257.331,261.375,257.01,259.415Z" transform="translate(-228.574 -226.067)" fill="#3076b6"/>
          </g>
          <g id="freepik--Coffee--inject-13" transform="translate(16.876 23.498)">
            <path id="freepik--shadow--inject-13-6" data-name="freepik--shadow--inject-13" d="M198.461,297.088c4.5,2.482,4.5,6.493,0,8.969s-11.81,2.475-16.317,0-4.5-6.487,0-8.969S193.954,294.612,198.461,297.088Z" transform="translate(-178.601 -264.659)" fill="#3076b6" opacity="0.4"/>
            <g id="freepik--coffee--inject-13-2" data-name="freepik--coffee--inject-13">
              <path id="Trazado_716665" data-name="Trazado 716665" d="M183.909,269.856a23.9,23.9,0,0,1,14.363.071c3.89,1.492,3.857,3.857,0,5.343s-10.338,1.421-14.363-.071S179.866,271.309,183.909,269.856Z" transform="translate(-179.357 -255.217)" fill="#263238"/>
              <path id="Trazado_716666" data-name="Trazado 716666" d="M180.58,262.55l20.682.553-1.768,27.427h0c-.122.874-.977,1.723-2.572,2.359a18.459,18.459,0,0,1-12.408-.321c-1.62-.714-2.456-1.607-2.533-2.488h0Z" transform="translate(-179.249 -252.989)" fill="#fafafa"/>
              <path id="Trazado_716667" data-name="Trazado 716667" d="M201.259,263.1l-.444,4.905a9.3,9.3,0,0,1-1.755.874c-4.5,1.723-11.9,1.537-16.478-.424-.2-.084-.36-.174-.54-.264a11.114,11.114,0,0,1-1.286-.759l-.186-4.886Z" transform="translate(-179.245 -252.989)" fill="#ebebeb"/>
              <path id="Trazado_716668" data-name="Trazado 716668" d="M178.51,260.683l.1-3.7,2.411.058c.328-.161.681-.309,1.074-.456,4.674-1.717,12.055-1.53,16.478.424a10.274,10.274,0,0,1,1,.508l2.347.064-.1,3.7h0c0,1.2-1.183,2.379-3.446,3.215-4.5,1.729-11.894,1.537-16.471-.418C179.6,263.12,178.477,261.885,178.51,260.683Z" transform="translate(-178.509 -250.441)" fill="#37474f"/>
              <path id="Trazado_716669" data-name="Trazado 716669" d="M182.216,252.166c4.68-1.723,12.055-1.53,16.478.418s4.352,4.938-.174,6.661-11.894,1.537-16.471-.424S177.542,253.883,182.216,252.166Z" transform="translate(-178.564 -248.861)" fill="#455a64"/>
              <path id="Trazado_716670" data-name="Trazado 716670" d="M181.95,254.875h0l.823-3.035,5.915.154a24.373,24.373,0,0,1,5.889.154l5.741.148.643,3.067h0c.341,1.119-.572,2.257-2.758,3.047a21.7,21.7,0,0,1-13.585-.347C182.438,257.157,181.558,255.974,181.95,254.875Z" transform="translate(-179.705 -249.165)" fill="#37474f"/>
              <path id="Trazado_716671" data-name="Trazado 716671" d="M185.895,248.477a20.978,20.978,0,0,1,12.472.315c3.35,1.35,3.3,3.407-.116,4.584a21,21,0,0,1-12.479-.321C182.295,251.7,182.359,249.647,185.895,248.477Z" transform="translate(-180.185 -247.679)" fill="#455a64"/>
              <path id="Trazado_716672" data-name="Trazado 716672" d="M185.1,251.4a1.035,1.035,0,0,0,.373.444,5.728,5.728,0,0,0,1.421.759,18.426,18.426,0,0,0,5.844,1.029,17.576,17.576,0,0,0,5.786-.727,4.828,4.828,0,0,0,1.408-.694c.3-.219.373-.386.379-.431s-.289-.643-1.723-1.2a17.52,17.52,0,0,0-5.748-1.022,18.291,18.291,0,0,0-5.9.726C185.486,250.767,185.106,251.288,185.1,251.4Z" transform="translate(-180.863 -248.343)" fill="#263238"/>
              <path id="Trazado_716673" data-name="Trazado 716673" d="M185.68,252.326a5.729,5.729,0,0,0,1.421.759,18.426,18.426,0,0,0,5.844,1.029,17.577,17.577,0,0,0,5.786-.727,4.828,4.828,0,0,0,1.408-.694,4.97,4.97,0,0,0-1.369-.759,17.455,17.455,0,0,0-5.748-1.022,18.1,18.1,0,0,0-5.889.727,5.349,5.349,0,0,0-1.453.688Z" transform="translate(-181.07 -248.828)" fill="#37474f"/>
              <g id="Grupo_1004319" data-name="Grupo 1004319" transform="translate(6.628 3.334)" opacity="0.5">
                <path id="Trazado_716674" data-name="Trazado 716674" d="M190.311,253.2a1.749,1.749,0,0,0-1.376-.3c-.264.135-.064.489.437.791a1.774,1.774,0,0,0,1.382.3C191.012,253.852,190.813,253.5,190.311,253.2Z" transform="translate(-188.819 -252.864)"/>
              </g>
              <path id="Trazado_716675" data-name="Trazado 716675" d="M200.564,283.555c0,.913-.926,1.819-2.771,2.5a22.352,22.352,0,0,1-13.5-.064c-1.89-.7-2.835-1.614-2.835-2.527l-.546-8.885c0,.964,1,1.929,3.015,2.687a23.908,23.908,0,0,0,14.363.071c1.929-.733,2.938-1.691,2.938-2.655Z" transform="translate(-179.366 -257.285)" fill="#455a64"/>
              <path id="Trazado_716676" data-name="Trazado 716676" d="M201.143,287.334a13.5,13.5,0,0,0,.817-1.5,4.5,4.5,0,0,1,2.347-2.032.3.3,0,0,1,.366.129,3.157,3.157,0,0,1-.874,3.51,3.215,3.215,0,0,1-3.517.855c-.058,0-.077-.141,0-.167A3.014,3.014,0,0,0,201.143,287.334Z" transform="translate(-186.266 -260.57)" fill="#263238"/>
              <path id="Trazado_716677" data-name="Trazado 716677" d="M203.1,282.948a4.894,4.894,0,0,0-1.479.894,4.378,4.378,0,0,0-1.074,1.44,4.282,4.282,0,0,1-1.357,1.762.276.276,0,0,1-.4-.064,3.038,3.038,0,0,1,.733-3.735,3.215,3.215,0,0,1,3.613-.81.283.283,0,0,1-.039.514Z" transform="translate(-185.62 -260.002)" fill="#263238"/>
            </g>
          </g>
        </g>
      </g>
      <g id="freepik--Briefcases--inject-13" transform="translate(27.361 212.325)">
        <g id="freepik--Briefcase--inject-13" transform="translate(213.909)">
          <path id="Trazado_716678" data-name="Trazado 716678" d="M401.264,342.348H398.93V331.663a8.6,8.6,0,0,1,3.947-6.834l12.492-7.2a3.137,3.137,0,0,1,5.034,2.97l-.212,10.846-2.334-.045.219-10.859c0-.572-.122-1.016-.354-1.151a1.357,1.357,0,0,0-1.183.244l-12.492,7.213a6.249,6.249,0,0,0-2.777,4.815Z" transform="translate(-381.931 -316.959)" fill="#37474f"/>
          <path id="Trazado_716679" data-name="Trazado 716679" d="M432.83,369.467l-2.5-46.026a4.031,4.031,0,0,0-1.813-2.951l-1.434-.829a1.234,1.234,0,0,0-1.286-.1h0l-48.1,27.774,6.622,50.989,48.083-27.742h0a1.144,1.144,0,0,0,.424-1.119Z" transform="translate(-374.35 -317.84)" fill="#37474f"/>
          <path id="Trazado_716680" data-name="Trazado 716680" d="M374.1,409.4l7.258,4.192c.939.546,1.659.1,1.594-.984l-2.495-46.026a4.07,4.07,0,0,0-1.819-2.951l-1.434-.829a1.107,1.107,0,0,0-1.807.984l-2.912,42.663A3.53,3.53,0,0,0,374.1,409.4Z" transform="translate(-372.49 -333.245)" fill="#263238"/>
          <path id="Trazado_716681" data-name="Trazado 716681" d="M413.248,407.659a.643.643,0,0,1-.643-.643l-1.286-21.563a.669.669,0,1,1,1.337-.051l1.286,21.563a.643.643,0,0,1-.643.694Z" transform="translate(-386.355 -341.169)" fill="#3076b6"/>
          <path id="Trazado_716682" data-name="Trazado 716682" d="M441.928,391.207a.643.643,0,0,1-.643-.643L440,369a.644.644,0,0,1,1.286-.077l1.286,21.563a.643.643,0,0,1-.643.694Z" transform="translate(-396.597 -335.299)" fill="#3076b6"/>
          <path id="Trazado_716683" data-name="Trazado 716683" d="M388.594,372.413a3.491,3.491,0,0,1-5.22-2.829l-.99-18.426a4.07,4.07,0,0,0-1.826-2.938l-1.427-.829a1.286,1.286,0,0,0-1.17-.161l47.948-27.684h0a1.17,1.17,0,0,1,1.286.09l1.447.829a4.076,4.076,0,0,1,1.813,2.951l.952,18.227a9.643,9.643,0,0,1-4.8,8.866Z" transform="translate(-374.443 -317.829)" fill="#455a64"/>
          <path id="Trazado_716684" data-name="Trazado 716684" d="M420.68,381.255l6.969-4.025.3,3.857-6.988,4.037Z" transform="translate(-389.698 -338.481)" fill="#3076b6"/>
        </g>
        <g id="freepik--briefcase--inject-13-2" data-name="freepik--briefcase--inject-13" transform="translate(0 5.695)">
          <path id="Trazado_716685" data-name="Trazado 716685" d="M98.532,355.335v38.427c0,1.864-1.286,2.938-2.925,3.89l-4.044,2.334a3.857,3.857,0,0,1-3.157.643,8.518,8.518,0,0,1-2.154-.881.212.212,0,0,1-.084-.045l-.219-.122-41.3-23.871a9.746,9.746,0,0,1-4.88-8.448V332.274a2.771,2.771,0,0,1,1.254-2.173l6.9-3.98a2.726,2.726,0,0,1,2.5,0l46.855,27.047a2.572,2.572,0,0,1,.887.932,2.623,2.623,0,0,1,.366,1.234Z" transform="translate(-39.77 -325.818)" fill="#37474f"/>
          <path id="Trazado_716686" data-name="Trazado 716686" d="M124.35,371.044v38.427c0,1.864-1.286,2.938-2.925,3.89l-4.044,2.334a3.857,3.857,0,0,1-3.157.643,8.516,8.516,0,0,1-2.154-.881h0c1.607.759,2.874-.084,2.874-1.987V377.223a3.857,3.857,0,0,0-.553-1.871l9.592-5.542A2.623,2.623,0,0,1,124.35,371.044Z" transform="translate(-65.588 -341.527)" fill="#263238"/>
          <path id="Trazado_716687" data-name="Trazado 716687" d="M89.133,365.075A4.211,4.211,0,0,0,87.2,361.79L42.952,336.221c-1.749-1.009-3.182-.18-3.182,1.839v32.756a9.766,9.766,0,0,0,4.88,8.448l41.307,23.852c1.749,1.009,3.215.186,3.215-1.839Z" transform="translate(-39.77 -329.379)" fill="#455a64"/>
          <path id="Trazado_716688" data-name="Trazado 716688" d="M48.593,328.29l46.932,27.369a4.41,4.41,0,0,1,2.179,3.793V399l-.72.411V359.452a3.684,3.684,0,0,0-1.819-3.176L47.86,328.7Z" transform="translate(-42.659 -326.7)" fill="#3076b6"/>
          <path id="Trazado_716689" data-name="Trazado 716689" d="M124.114,373.36a4.43,4.43,0,0,1,.585,2.186v39.545l-.72.411V375.546a3.657,3.657,0,0,0-.488-1.825Z" transform="translate(-69.666 -342.794)" opacity="0.2"/>
          <path id="Trazado_716690" data-name="Trazado 716690" d="M96.483,357.626a3.671,3.671,0,0,0-1.331-1.35L47.86,328.7l.714-.411,46.932,27.369a4.442,4.442,0,0,1,1.594,1.607" transform="translate(-42.659 -326.7)" opacity="0.2"/>
          <path id="Trazado_716691" data-name="Trazado 716691" d="M73.617,335.343V341.3l-2.327,1.344v-7.895c0-.411.283-.572.643-.373Z" transform="translate(-51.025 -328.842)" fill="#3076b6"/>
          <path id="Trazado_716692" data-name="Trazado 716692" d="M73.617,335.343V341.3l-2.327,1.344v-7.895c0-.411.283-.572.643-.373Z" transform="translate(-51.025 -328.842)" opacity="0.4"/>
          <path id="Trazado_716693" data-name="Trazado 716693" d="M89.147,339.051v9.644l-2.218,1.286-1.5-.862v-7.908a1.408,1.408,0,0,0-.643-1.1L73.46,333.554l-2.353-1.363c-.354-.2-.643-.039-.643.373v7.9L69,339.6V330a.791.791,0,0,1,0-.122,1.427,1.427,0,0,1,.643-.977l.945-.553a1.447,1.447,0,0,1,1.286,0L88.55,337.99A1.414,1.414,0,0,1,89.147,339.051Z" transform="translate(-50.206 -326.667)" fill="#3076b6"/>
          <path id="Trazado_716694" data-name="Trazado 716694" d="M86.929,341.086v9.644l-1.5-.861v-7.908a1.408,1.408,0,0,0-.643-1.1L73.46,334.3l-2.353-1.363c-.354-.2-.643-.039-.643.373v7.9L69,340.347v-9.6a.791.791,0,0,1,0-.122c.058-.315.315-.424.643-.244l16.716,9.644A1.434,1.434,0,0,1,86.929,341.086Z" transform="translate(-50.206 -327.416)" opacity="0.2"/>
        </g>
      </g>
      <g id="freepik--speech-bubbles--inject-13" transform="translate(92.425 23.941)">
        <g id="freepik--speech-bubble--inject-13" transform="translate(74.813)">
          <path id="freepik--speech-bubble--inject-13-2" data-name="freepik--speech-bubble--inject-13" d="M310.6,72.2l-.276-10.287s17.866-2.79,14.234-20.8c-2.07-10.287-13.141-18.4-40.291-17.018-30.86,1.569-28.687,21.788-24.611,28.224,6.577,10.4,23.215,12.318,42.882,10.929Z" transform="translate(-257.339 -23.941)" fill="#3076b6"/>
          <path id="Trazado_716695" data-name="Trazado 716695" d="M315.782,43.5h-31.11a.591.591,0,1,1,0-1.183h31.1a.591.591,0,1,1,0,1.183Z" transform="translate(-266.888 -30.504)" fill="#fff"/>
          <path id="Trazado_716696" data-name="Trazado 716696" d="M317.4,55h-38.51a.643.643,0,1,1,0-1.286H317.4a.643.643,0,1,1,0,1.286Z" transform="translate(-264.806 -34.571)" fill="#fff"/>
          <path id="Trazado_716697" data-name="Trazado 716697" d="M315.782,66.493h-31.11a.591.591,0,1,1,0-1.183h31.1a.591.591,0,1,1,0,1.183Z" transform="translate(-266.888 -38.713)" fill="#fff"/>
        </g>
        <g id="freepik--speech-bubble--inject-13-3" data-name="freepik--speech-bubble--inject-13" transform="translate(0 9.753)">
          <path id="freepik--speech-bubble--inject-13-4" data-name="freepik--speech-bubble--inject-13" d="M150.7,83.973l9.232-8.673a87.556,87.556,0,0,0,20.721.907c18.5-1.093,28.931-9.142,26.166-20.11-3.253-12.942-15.5-17.744-37.546-16.889-12.4.489-21.145,4.449-25.266,9.946-5.04,6.725-4.61,17.2,7.426,23.479Z" transform="translate(-140.972 -39.111)" fill="#455a64"/>
          <path id="Trazado_716698" data-name="Trazado 716698" d="M199.067,56.173H169.891a.591.591,0,0,1,0-1.183h29.175a.591.591,0,0,1,0,1.183Z" transform="translate(-151.088 -44.781)" fill="#fff"/>
          <path id="Trazado_716699" data-name="Trazado 716699" d="M200.684,67.676H164.1a.643.643,0,1,1,0-1.286h36.582a.643.643,0,1,1,0,1.286Z" transform="translate(-149.003 -48.852)" fill="#fff"/>
          <path id="Trazado_716700" data-name="Trazado 716700" d="M199.067,79.163H169.891a.591.591,0,0,1,0-1.183h29.175a.591.591,0,1,1,0,1.183Z" transform="translate(-151.088 -52.991)" fill="#fff"/>
        </g>
      </g>
    </g>
  </g>
</svg>
