<svg xmlns="http://www.w3.org/2000/svg" xmlns:xlink="http://www.w3.org/1999/xlink" width="360" height="361.919" viewBox="0 0 360 361.919">
  <defs>
    <clipPath id="clip-path">
      <path id="Trazado_717724" data-name="Trazado 717724" d="M78.395,285.94a145.069,145.069,0,0,0,290.132,0Z" transform="translate(-78.395 -285.94)" fill="none"/>
    </clipPath>
    <linearGradient id="linear-gradient" x1="-158.398" y1="-262.82" x2="-158.348" y2="-261.821" gradientUnits="objectBoundingBox">
      <stop offset="0" stop-color="#e0a295"/>
      <stop offset="1" stop-color="#e0a295" stop-opacity="0"/>
    </linearGradient>
    <linearGradient id="linear-gradient-2" x1="-211.076" y1="-230.599" x2="-211.009" y2="-229.725" xlink:href="#linear-gradient"/>
    <linearGradient id="linear-gradient-3" x1="-944.14" y1="0.162" x2="-944.032" y2="0.765" gradientUnits="objectBoundingBox">
      <stop offset="0" stop-color="#a66948"/>
      <stop offset="1" stop-color="#a66948" stop-opacity="0"/>
    </linearGradient>
  </defs>
  <g id="Grupo_1004695" data-name="Grupo 1004695" transform="translate(-25.033 -39.067)">
    <path id="Trazado_717700" data-name="Trazado 717700" d="M252.613,294.591c19.756,1.841,40.126-2.345,58.116-10.715,8.942-4.16,17.7-10.593,20.564-20.029,1.348-4.436,1.274-9.167,2.037-13.741,4.443-26.667,34.4-40.609,47.894-64.033,3.383-5.871,5.739-12.749,4.4-19.391-1.638-8.117-8.436-14.233-15.672-18.261s-15.252-6.595-22.218-11.072c-9.506-6.109-18.083-15.438-19.817-26.6-3.263-21.008-2.88-63.847-53.37-71.114-45.623-6.567-91.884,46.058-111.687,53.548-43.912,16.609-94.992,11.665-105.776,54.485-12.867,51.09,37.008,76.354,48.4,83.977s15.237,23.788,11.4,36.95C106.678,303.6,152.1,301.886,196.649,285.63S226.793,292.184,252.613,294.591Z" transform="translate(-4.434 0)" fill="#ceecff"/>
    <path id="Trazado_717701" data-name="Trazado 717701" d="M304.25,101.339H337.9s-.734-6.466-8.964-3.38c-5-11.021-14.4-8.817-17.781-2.2C306.307,94.138,304.25,101.339,304.25,101.339Z" transform="translate(-41.346 -7.578)" fill="#fff"/>
    <g id="Grupo_1004671" data-name="Grupo 1004671" transform="translate(222.271 131.149)">
      <path id="Trazado_717702" data-name="Trazado 717702" d="M256.554,148.055c9.114-2.73,24.195.008,27.586,18.61s7.539,23.371,7.539,23.371-10.854,3.321-25.719-15.637C257.851,164.056,256.554,148.055,256.554,148.055Z" transform="translate(-256.554 -147.154)" fill="#7aa651"/>
      <g id="Grupo_1004668" data-name="Grupo 1004668" transform="translate(1.402 0.774)">
        <path id="Trazado_717703" data-name="Trazado 717703" d="M290.563,192.253l.243,0a10.228,10.228,0,0,0,3.265-.711c.061.15.122.3.181.443a10.924,10.924,0,0,1-3.191.736,15.4,15.4,0,0,0,.906,3.851c-.179-.034-.36-.07-.547-.112a14.59,14.59,0,0,1-.848-3.96Z" transform="translate(-262.992 -154.501)" fill="#9bbe4f"/>
        <path id="Trazado_717704" data-name="Trazado 717704" d="M284.4,185.311l.049-.147.153-.015a37.442,37.442,0,0,0,6.217-1.472l.133.458a38.514,38.514,0,0,1-6.146,1.471,19.641,19.641,0,0,0-.279,7.4q-.257-.141-.519-.29A18.92,18.92,0,0,1,284.4,185.311Z" transform="translate(-261.994 -153.336)" fill="#9bbe4f"/>
        <path id="Trazado_717705" data-name="Trazado 717705" d="M279.375,177.214l.058-.071.089-.014c2.621-.423,6.7-1.561,8.309-2.024.032.155.066.315.1.468-1.625.467-5.612,1.578-8.241,2.012a16.6,16.6,0,0,0-3.5,8.979c-.147-.132-.294-.268-.442-.4A17.059,17.059,0,0,1,279.375,177.214Z" transform="translate(-260.798 -152.067)" fill="#9bbe4f"/>
        <path id="Trazado_717706" data-name="Trazado 717706" d="M274.566,167.435l.078-.013a94.4,94.4,0,0,0,10.134-2.3c.049.151.1.3.143.455A95,95,0,0,1,274.8,167.88c-4.548,4.709-6.055,8.7-6.463,10.039-.12-.149-.241-.3-.362-.455.534-1.631,2.147-5.445,6.537-9.973Z" transform="translate(-259.647 -150.588)" fill="#9bbe4f"/>
        <path id="Trazado_717707" data-name="Trazado 717707" d="M268.756,157.456l.083-.01a46.663,46.663,0,0,0,10.375-2.3c.112.127.224.252.333.383a46.178,46.178,0,0,1-10.566,2.382,33.141,33.141,0,0,0-6.844,9.826c-.088-.2-.177-.394-.262-.591a34.553,34.553,0,0,1,6.821-9.627Z" transform="translate(-258.744 -149.111)" fill="#9bbe4f"/>
        <path id="Trazado_717708" data-name="Trazado 717708" d="M262.587,150.727l.052-.048.068-.012a16.991,16.991,0,0,0,6.251-2.6c.2.055.4.109.6.17a17.437,17.437,0,0,1-6.7,2.891,22.924,22.924,0,0,0-4.491,5.979c-.057-.231-.114-.463-.168-.688A23.086,23.086,0,0,1,262.587,150.727Z" transform="translate(-258.2 -148.063)" fill="#9bbe4f"/>
      </g>
      <g id="Grupo_1004669" data-name="Grupo 1004669" transform="translate(0 0.84)" opacity="0.42" style="mix-blend-mode: multiply;isolation: isolate">
        <path id="Trazado_717709" data-name="Trazado 717709" d="M275.241,169.99c4.248,10.923,11.585,18.13,16.415,20.2-.528.147-11.205,2.838-25.7-15.643-8.109-10.342-9.406-26.344-9.406-26.344.071-.021.145-.039.216-.06C265.042,150.476,270.9,158.818,275.241,169.99Z" transform="translate(-256.554 -148.141)" fill="#5d8e5a"/>
      </g>
      <g id="Grupo_1004670" data-name="Grupo 1004670" transform="translate(0 0.84)">
        <path id="Trazado_717710" data-name="Trazado 717710" d="M256.554,148.2c.071-.021.145-.039.216-.06,8.271,2.335,14.127,10.677,18.471,21.849,4.248,10.923,11.585,18.13,16.415,20.2" transform="translate(-256.554 -148.141)" fill="none" stroke="#4e6756" stroke-miterlimit="10" stroke-width="1.119"/>
      </g>
    </g>
    <ellipse id="Elipse_8481" data-name="Elipse 8481" cx="74.59" cy="8.216" rx="74.59" ry="8.216" transform="translate(140.969 384.554)" fill="#ffa031" opacity="0.54"/>
    <g id="Grupo_1004675" data-name="Grupo 1004675" transform="translate(70.493 249.384)">
      <g id="Grupo_1004674" data-name="Grupo 1004674" transform="translate(0 0)" clip-path="url(#clip-path)">
        <g id="Grupo_1004673" data-name="Grupo 1004673" transform="translate(-60.053 -205.999)">
          <circle id="Elipse_8482" data-name="Elipse 8482" cx="145.038" cy="145.038" r="145.038" transform="translate(0 205.115) rotate(-45)" fill="#7fd6e6"/>
          <g id="Grupo_1004672" data-name="Grupo 1004672" transform="translate(79.686 60.05)">
            <path id="Trazado_717711" data-name="Trazado 717711" d="M300.037,128.44c1.971.979,4.518,1.453,5.438,3.453a3.319,3.319,0,0,1-1.84,4.337,2.542,2.542,0,0,0-1.017.463,1.71,1.71,0,0,0-.068,1.812c.9,2.27,2.581,4.232,3.051,6.627s-1.206,5.486-3.609,5.06a9.652,9.652,0,0,1-2.123-.908,5.876,5.876,0,0,0-7.461,2.891c-.594,1.349-.641,2.876-1.138,4.263s-1.729,2.733-3.19,2.554a6.527,6.527,0,0,1-1.659-.606c-3.2-1.328-6.955.227-9.493,2.59s-4.273,5.451-6.541,8.075c-1.533,1.774-4.1,3.421-6.053,2.125-1.522-1.011-1.624-3.21-1.258-5s1.033-3.651.473-5.391c-.889-2.767-4.45-3.929-5.466-6.651-.878-2.353.492-4.968,2.237-6.774s3.924-3.233,5.261-5.359c2.88-4.572.1-11.591-5.127-12.956a5.846,5.846,0,0,1-2.43-.9c-1.392-1.189-.647-3.677.935-4.6s3.549-.749,5.366-.519,3.763.464,5.394-.368a6.023,6.023,0,0,0,2.908-5.356c0-.2-.009-.4-.02-.592a144.759,144.759,0,0,1,25.12,6.348C295.871,125.138,298.311,127.582,300.037,128.44Z" transform="translate(-124.518 -114.931)" fill="#5fa76e"/>
            <path id="Trazado_717712" data-name="Trazado 717712" d="M233.816,114.806l0,.011c-2.878,4.173-12.073,3.515-15.5,7.8-2.806,3.513-.366,8.633,2.1,12.394l-5.108,2.3c-.22,3.755,5.512,5.36,6.107,9.075.6,3.743-4.3,5.911-8.085,5.639s-7.988-1.491-11.078.7a13.154,13.154,0,0,1,4.956-12.205,5.79,5.79,0,0,1-4.324-5.4c-.025-2.065,1.032-4.354-.135-6.059-1.585-2.316-5.365-.882-7.074,1.344s-2.859,5.189-5.468,6.228c-1.611.641-3.415.372-5.149.38a15.937,15.937,0,0,0-11.621,5.2c-1.263,1.4-2.32,3.073-3.964,4-1.66.938-3.716.994-5.346,1.983a5.553,5.553,0,0,0-.887,8.384c1.875-1.774,5.381-.706,6.374,1.676s-.264,5.3-2.435,6.7c1.8,2.97,6.119,3.62,9.257,2.134s5.232-4.561,6.639-7.735c.961-2.166,2.556-4.933,4.84-4.3l2.4,3.479c1.233-2.253,4.554-4.616,5.784-2.36.394.722.257,1.634.6,2.383.955,2.1,4.036,1.156,6.3.743a7.436,7.436,0,0,1,7.4,2.819,5.666,5.666,0,0,1-1.031,7.507c-.579.426-1.289.764-1.588,1.418-.924,2.025,2.721,3.063,3.6,5.108.94,2.189-2.025,4.341-4.347,3.807s-3.974-2.506-5.774-4.066c-3.052-2.649-7.373-4.324-11.175-2.951a3.556,3.556,0,0,0-1.84,1.284c-1.083,1.668.388,3.834,1.979,5.027s3.57,2.368,3.833,4.341c.41,3.074-3.623,4.759-6.713,4.5s-6.527-1.276-9.06.512c-3.255,2.3-3.977,8.548-7.941,8.14-.987-.1-1.873-.677-2.857-.8-3.022-.386-4.79,3.228-5.658,6.148s-2.833,6.5-5.819,5.891c-1.973-.4-3.439-2.644-5.433-2.363-1.444.2-2.328,1.646-3.006,2.937q-2.622,4.988-5.243,9.976l-4.406-11.429c-1.21,2.612-5.5,1.486-6.913-1.021s-1.264-5.607-2.316-8.288-4.542-4.91-6.711-3.018c-3.12,2.722,1.5,8.787-1.394,11.752-1,1.031-2.569,1.223-3.846,1.889-4.472,2.329-3.777,8.846-2.425,13.7q1.725,6.2,3.449,12.392a3.876,3.876,0,0,0,1.134,2.146c2.548,1.949,5.969-3.693,8.746-2.088,3.484,2.015-3.213,8.58.042,10.948,1.276.929,3.408.323,4.352,1.589,1.216,1.63-1.138,3.827-.76,5.825.324,1.711,2.409,2.4,3.423,3.817.992,1.385.876,3.369,1.961,4.682,2.881,3.488,8.554-1.818,12.87-.461,5.06,1.59,3.829,10.331,8.552,12.742,3.466,1.769,7.574-1.134,11.441-.717,4.531.487,7.216,5.141,9.372,9.157s5.5,8.467,10.038,8.054c3.323-.3,7.25-3.052,9.455-.549a10.48,10.48,0,0,1,1.345,2.98c1.4,3.251,5.1,4.681,8.121,6.515,3.492,2.114,6.52,5.313,7.519,9.271s-.467,8.662-4.032,10.65a6.416,6.416,0,0,0-2.523,1.744c-.586.91-.446,2.084-.566,3.159a6.475,6.475,0,0,1-6.2,5.566c-1.526,0-3.345-.447-4.359.693-.735.826-.617,2.069-.745,3.167-.367,3.15-2.965,5.506-5.388,7.551-5.422,4.576-9.544,11.457-16.266,13.729-8.881,3-8.025,4.352-7.874,7.8a16.893,16.893,0,0,0,6.108,12.454c1.572,1.246,3.628,2.936,2.836,4.778a3.31,3.31,0,0,1-2.768,1.644,8.424,8.424,0,0,1-8.115-4.042c-2.341-4.046-1.32-10.06-5.158-12.728-2.149-1.494-5.388-1.484-6.78-3.7a7.042,7.042,0,0,1-.669-4.017q.452-14.027.9-28.055c.076-2.356.129-4.826-.929-6.933-1.825-3.638-6.218-4.986-9.558-7.312a17.316,17.316,0,0,1-7.07-16.41c.382-2.542,1.291-5.349-.086-7.519-1.122-1.767-3.535-2.609-4.156-4.608-.58-1.867.735-3.813,2.281-5.009s3.409-2.022,4.669-3.517c3.173-3.764-.3-10.7-5.213-10.42a6.906,6.906,0,0,1-2.235.018c-2.49-.687-1.949-4.318-2.718-6.784-1.538-4.928-9.6-6.284-9.677-11.445-.035-2.195,1.429-4.8-.155-6.321-1.557-1.5-4.195-.008-6.27-.6-2.117-.606-2.987-3.161-3.018-5.362s.429-4.5-.377-6.545c-.894-2.268-3.117-3.68-4.691-5.543-2.757-3.26-3.422-7.844-3.042-12.1s1.676-8.367,2.389-12.577a65.932,65.932,0,0,0,.262-17.553,145.224,145.224,0,0,1,129.645-67.5c-.007.01-.014.02-.022.03Z" transform="translate(-101.44 -114.622)" fill="#5fa76e"/>
            <path id="Trazado_717713" data-name="Trazado 717713" d="M254.126,114.851c-1.567,5.848-11.714,3.065-15.5,7.8C242.053,118.366,251.249,119.024,254.126,114.851Z" transform="translate(-121.755 -114.656)" fill="#5fa76e"/>
            <path id="Trazado_717714" data-name="Trazado 717714" d="M390.065,310.971c-.527-.77-1.306-1.34-1.843-2.1-1.857-2.64-.222-6.221,1.263-9.087s2.624-6.819.2-8.953c-2.167-1.912-5.884-.636-7.367,1.844s-1.294,5.6-.758,8.441,1.376,5.7,1.038,8.567c-.758,6.42-7.045,10.867-8.811,17.086-.9,3.162-.55,6.531-.882,9.8s-1.629,6.8-4.578,8.254a32.755,32.755,0,0,1-4.581,1.313c-4.017,1.292-6.849,5.128-7.85,9.227-.45,1.848-.625,3.863-1.8,5.357-1.819,2.314-5.214,2.459-7.856,3.757-4.991,2.449-7.785,9.271-13.343,9.4a14.782,14.782,0,0,0-6.428,1.306c-12.48,6-11,2.593-17.194,2.139l-6.194-.455c-1.182-1.706.117-4.107,1.824-5.286s3.826-1.765,5.3-3.225c3.322-3.291,2.482-10.027,6.791-11.847,2.914-1.231,7,.572,9.043-1.844,2.388-2.828-1.3-7.8,1.05-10.666,1.577-1.923,4.8-1.431,6.682-3.063,3.55-3.086-1.116-9.057.383-13.515.4-1.189,1.251-2.263,1.261-3.517.023-2.983-4.373-3.771-7.03-2.417s-4.926,3.831-7.9,3.961c-6.382.279-8.461-9.6-14.582-11.428-4.022-1.2-9.74.956-11.7-2.757a5.812,5.812,0,0,1-.5-3.021,14.917,14.917,0,0,1,7.152-11.851c1.669-.991,3.8-2.033,3.887-3.971a6.569,6.569,0,0,0-.493-2.17A10.084,10.084,0,0,1,308.7,278.9c3.806-2.2,9.769-2.664,10.459-7.007.288-1.808-.6-3.756.122-5.44.646-1.513,2.358-2.246,3.956-2.638,4.842-1.189,10.009-.589,14.807-1.947,2.988-.846,5.733-2.426,8.736-3.217s6.566-.619,8.742,1.6c-1.407,1.27,1.154,3.289,3.006,2.887s3.95-1.557,5.449-.4c1.628,1.262.759,3.789.347,5.807-1.23,6.028,4.441,12.415,10.572,11.906a7.215,7.215,0,0,1,.343-5.75c2.544,1.142,4.151,3.662,6.314,5.423s5.8,2.533,7.462.29c2.345-3.171-1.958-8.3.494-11.389-2.861,1.441-6.836-1.058-6.777-4.261.02-1.066.4-2.112.322-3.175s-.916-2.216-1.969-2.05c-1.678.265-1.6,3.181-3.219,3.691-3.5-1.942-.5-7.779-2.584-11.2-.644-1.061-1.732-1.777-2.465-2.78-1.075-1.47-1.278-3.385-1.949-5.077s-2.255-3.355-4.038-2.984c-2.155.448-2.678,3.394-1.992,5.486s2.094,4.019,2.073,6.22-2.773,4.376-4.346,2.836a3.961,3.961,0,0,1-.837-1.55q-.686-1.9-1.372-3.8c-.986-2.736-2.074-5.618-4.357-7.419s-6.152-1.916-7.721.532c-1.119,1.746-.857,4.338-2.516,5.582-1.688,1.266-4.173.236-6.161.938-1.764.624-2.8,2.475-4.424,3.4-2.848,1.616-7.03-.785-7.073-4.059-.026-2.073,1.293-4.135.682-6.116a10.458,10.458,0,0,0-2.2-3.1c-1.391-1.758-2.015-4.473-.552-6.171,1.523-1.769,4.393-1.461,6.477-.411s3.91,2.685,6.177,3.244,5.248-.65,5.33-2.983c.1-2.772-3.829-4.718-3.181-7.415.4-1.667,2.389-2.416,4.1-2.416s3.455.467,5.121.06c4.242-1.035,5.215-6.595,4.946-10.953a3.61,3.61,0,0,1,.5-2.623c.841-.976,2.518-.692,3.437.21a8.547,8.547,0,0,1,1.729,3.414c1.211,3.427,3.536,6.952,7.12,7.563s7.423-3.852,5.134-6.676a4.23,4.23,0,0,1-.969-1.332c-.595-2.016,3.271-2.488,3.835-4.512.639-2.287-3.012-3.034-4.6-4.8-2.685-2.98.853-9.125-2.581-11.2-1.961-1.186-4.642.48-5.36,2.656s-.089,4.542.534,6.747a3.1,3.1,0,0,1,.1,2.06c-.671,1.533-3.053.97-4.26-.19s-2.338-2.79-4.012-2.765c-1.689.026-3.059,1.817-4.732,1.58a3.008,3.008,0,0,1-2.221-2.92c-.436-6.591,11.246-9.435,10.157-15.951-.585-3.5-4.884-6.907-2.714-9.715,1.6-2.071,5.088-.815,6.64,1.292s2.233,4.849,4.161,6.619a6.689,6.689,0,0,0,6.312,1.332,145.79,145.79,0,0,1,24.427,56.473l-1.328.366c-1.228.34-2.756,1.131-2.5,2.38.094.456.43.836.513,1.294a2.451,2.451,0,0,1-.893,1.933c-1.257,1.371-3.167,2.8-4.789,1.891-1.4-.784-1.775-3-3.351-3.3a2.3,2.3,0,0,0-2.408,1.94,6.69,6.69,0,0,0,.455,3.355,2.091,2.091,0,0,0,.384.795c.378.417,1.009.455,1.527.671,2.134.892,2.308,4.686,4.616,4.827,1.186.072,2.1-.957,2.954-1.784s2.2-1.546,3.157-.841c.988.728.767,2.467,1.8,3.129a2.31,2.31,0,0,0,2.162-.112,144.324,144.324,0,0,1-10.544,66.855,10.024,10.024,0,0,1,.4-4.995C390.584,316.185,391.587,313.2,390.065,310.971Z" transform="translate(-129.908 -123.352)" fill="#5fa76e"/>
            <path id="Trazado_717715" data-name="Trazado 717715" d="M352.292,218.853c2.915,2.99,6.56,2.463,3.946,4.531s-3.927-.588-7.744,2.559-6.54,1.481-3.743-2.722S349.394,215.881,352.292,218.853Z" transform="translate(-137.299 -129.883)" fill="#5fa76e"/>
            <path id="Trazado_717716" data-name="Trazado 717716" d="M342.623,201.2s5.3.814,5.236,4.1,1.1,4.286,1.1,4.286c.662,1.884-1.987,6.027-3.636,1.873s-.549-5.279-4.53-7.734S342.623,201.2,342.623,201.2Z" transform="translate(-136.676 -127.442)" fill="#5fa76e"/>
            <path id="Trazado_717717" data-name="Trazado 717717" d="M338.7,210.757c1.654,2.435,4.058,1.137,3.354,3.907-.748,2.945-.02,2.327-3.506,3.282s-4.508.759-3.548-3.744S337.044,208.322,338.7,210.757Z" transform="translate(-135.974 -128.682)" fill="#5fa76e"/>
            <path id="Trazado_717718" data-name="Trazado 717718" d="M314.449,169.856c2.287,3.815,4.628,4.088,6.941,3.857s2.268-.128,2.575,1.726c.71,4.3-2.046,5.879-7.419,2.945s-1.305-5.235-5.3-7.943S312.161,166.041,314.449,169.856Z" transform="translate(-132.283 -122.472)" fill="#5fa76e"/>
            <path id="Trazado_717719" data-name="Trazado 717719" d="M173.548,273.414c-7.408,1.655-4.021-5.417-9.067-4.583s-3.858-6.184-.492-5.066C169.533,265.607,180.957,271.759,173.548,273.414Z" transform="translate(-110.271 -136.689)" fill="#5fa76e"/>
            <path id="Trazado_717720" data-name="Trazado 717720" d="M149.748,259.6c-2.854-4.244-3.874-7.7-8.029-8.152s-2.978-2.792,1.074-1.712,7.65,6.315,10.892,8.886C156.39,260.765,152.6,263.843,149.748,259.6Z" transform="translate(-107.02 -134.588)" fill="#5fa76e"/>
            <path id="Trazado_717721" data-name="Trazado 717721" d="M131.837,247.888c-2.818-2.388.012-4.68,2-1.145C135.36,249.453,134.655,250.277,131.837,247.888Z" transform="translate(-105.765 -133.917)" fill="#5fa76e"/>
            <path id="Trazado_717722" data-name="Trazado 717722" d="M231.938,205.534c-6.9-1.47-4.022-5.417-7.939-4.1s-6.476-.118-2.575-2.952,5.193-3.114,8.922-1.672C236.9,199.347,238.834,207,231.938,205.534Z" transform="translate(-118.919 -126.667)" fill="#5fa76e"/>
          </g>
          <path id="Trazado_717723" data-name="Trazado 717723" d="M165.774,368.457c35.882,15.487,74.7,13.428,107.721-1.479,42.349-19.118,87.5-55.181,94.617-80.389a145.055,145.055,0,1,1-279.37-64.768A131.788,131.788,0,0,0,165.774,368.457Z" transform="translate(-18.34 -70.446)" fill="#7fd6e6" opacity="0.66" style="mix-blend-mode: multiply;isolation: isolate"/>
        </g>
      </g>
    </g>
    <ellipse id="Elipse_8483" data-name="Elipse 8483" cx="145.08" cy="7.817" rx="145.08" ry="7.817" transform="translate(70.479 241.583)" fill="#3c6c6c"/>
    <path id="Trazado_717725" data-name="Trazado 717725" d="M368.539,285.959c0,4.318-64.954,7.817-145.08,7.817s-145.081-3.5-145.081-7.817" transform="translate(-7.899 -36.559)" fill="none" stroke="#e3ebc4" stroke-miterlimit="10" stroke-width="2.397"/>
    <path id="Trazado_717726" data-name="Trazado 717726" d="M211.586,296.58s116.74,3.852,173.549-6.6C369.165,302.322,241.622,298.865,211.586,296.58Z" transform="translate(-27.624 -37.155)" fill="#d6e7df" opacity="0.75"/>
    <g id="Grupo_1004679" data-name="Grupo 1004679" transform="translate(106.201 98.482)">
      <path id="Trazado_717727" data-name="Trazado 717727" d="M236.487,142.337C231.054,122.7,208.9,98.457,171.294,113.5s-50.985,12.955-50.985,12.955,6.343,23.472,57.671,28.835C205.98,158.218,236.487,142.337,236.487,142.337Z" transform="translate(-120.309 -108.809)" fill="#a1c26a"/>
      <g id="Grupo_1004676" data-name="Grupo 1004676" transform="translate(5.486 0.415)">
        <path id="Trazado_717728" data-name="Trazado 717728" d="M136.172,135.551l-.269-.446a21.893,21.893,0,0,1-2.429-6.734c-.342.061-.684.122-1.01.176a23.444,23.444,0,0,0,2.3,6.628,33.018,33.018,0,0,1-8.017,2.745c.264.285.536.573.825.866a31.29,31.29,0,0,0,8.149-2.976Z" transform="translate(-126.748 -112.121)" fill="#c1d483"/>
        <path id="Trazado_717729" data-name="Trazado 717729" d="M154.573,137.725l.211-.255-.147-.3a80.38,80.38,0,0,1-4.414-12.956c-.335.1-.656.188-.984.282a82.47,82.47,0,0,0,4.335,12.826c-3.575,4.158-9.887,7.441-13.107,8.939q.547.307,1.117.612C145.094,145.2,151.106,141.923,154.573,137.725Z" transform="translate(-128.78 -111.506)" fill="#c1d483"/>
        <path id="Trazado_717730" data-name="Trazado 717730" d="M174.365,136l.062-.185-.076-.178c-2.221-5.238-4.8-13.929-5.8-17.378-.318.117-.646.24-.96.354,1,3.478,3.533,11.978,5.74,17.242a35.557,35.557,0,0,1-12.3,16.588c.406.115.821.228,1.237.341A36.528,36.528,0,0,0,174.365,136Z" transform="translate(-131.826 -110.624)" fill="#c1d483"/>
        <path id="Trazado_717731" data-name="Trazado 717731" d="M197.175,132.1l-.066-.154a201.92,201.92,0,0,1-7.367-21.01c-.329.083-.658.168-.989.257a203.731,203.731,0,0,0,7.349,20.992c-3.359,13.617-8.879,20.9-10.847,23.163.407.048.825.092,1.237.138,2.35-2.826,7.433-10.1,10.642-23.222Z" transform="translate(-135.412 -109.539)" fill="#c1d483"/>
        <path id="Trazado_717732" data-name="Trazado 717732" d="M221.984,131.07l-.078-.164a99.868,99.868,0,0,1-7.643-21.444c-.357-.057-.712-.118-1.074-.167.581,2.916,2.47,10.712,7.718,21.882-3.188,12.929-7.976,20.7-10.027,23.61.457-.066.917-.128,1.371-.2,2.332-3.494,6.722-11.2,9.691-23.343Z" transform="translate(-139.206 -109.296)" fill="#c1d483"/>
        <path id="Trazado_717733" data-name="Trazado 717733" d="M242.359,136.542l.027-.147-.056-.137a36.393,36.393,0,0,1-2.4-14.306c-.328-.3-.656-.6-1-.9a37.359,37.359,0,0,0,2.391,15.448,49.151,49.151,0,0,1-5.727,14.961c.485-.16.969-.32,1.44-.481A49.471,49.471,0,0,0,242.359,136.542Z" transform="translate(-142.867 -111.037)" fill="#c1d483"/>
      </g>
      <g id="Grupo_1004677" data-name="Grupo 1004677" transform="translate(0.014 17.696)" opacity="0.42" style="mix-blend-mode: multiply;isolation: isolate">
        <path id="Trazado_717734" data-name="Trazado 717734" d="M175.669,136.344c-24.655,4.742-46.089-.359-55.343-6.763.335,1.127,7.621,23.56,57.656,28.787,28,2.926,58.507-12.955,58.507-12.955-.042-.152-.094-.307-.138-.459C222.69,132.611,200.885,131.494,175.669,136.344Z" transform="translate(-120.326 -129.581)" fill="#669c63"/>
      </g>
      <g id="Grupo_1004678" data-name="Grupo 1004678" transform="translate(0.014 17.696)">
        <path id="Trazado_717735" data-name="Trazado 717735" d="M236.489,145.413c-.042-.152-.094-.307-.138-.459-13.661-12.343-35.466-13.46-60.682-8.61-24.655,4.742-46.089-.359-55.343-6.763" transform="translate(-120.326 -129.581)" fill="none" stroke="#4e6756" stroke-miterlimit="10" stroke-width="2.397"/>
      </g>
    </g>
    <g id="Grupo_1004683" data-name="Grupo 1004683" transform="translate(218.066 65.535)">
      <path id="Trazado_717736" data-name="Trazado 717736" d="M256.025,136.765c-7.193-12.595-8.322-35.937,18.139-47.383s32.115-19.247,32.115-19.247,8.671,14.977-14.366,43.584C279.346,129.326,256.025,136.765,256.025,136.765Z" transform="translate(-251.619 -70.135)" fill="#a1c26a"/>
      <g id="Grupo_1004680" data-name="Grupo 1004680" transform="translate(0.032 5.252)">
        <path id="Trazado_717737" data-name="Trazado 717737" d="M310.28,81.685l-.09-.36a15.575,15.575,0,0,0-2.182-4.6c.2-.142.4-.285.6-.422a16.687,16.687,0,0,1,2.193,4.486,23.5,23.5,0,0,0,5.407-2.671c.011.276.02.558.023.85a22.3,22.3,0,0,1-5.59,2.622Z" transform="translate(-260 -76.3)" fill="#c1d483"/>
        <path id="Trazado_717738" data-name="Trazado 717738" d="M301.885,92.345l-.235-.021-.076-.222a57.2,57.2,0,0,0-4.329-8.727c.217-.12.424-.238.636-.356a58.574,58.574,0,0,1,4.3,8.623c3.892.279,8.716-1.261,11.088-2.135q-.119.429-.251.871C310.414,91.308,305.743,92.7,301.885,92.345Z" transform="translate(-258.407 -77.295)" fill="#c1d483"/>
        <path id="Trazado_717739" data-name="Trazado 717739" d="M291.283,101.287l-.124-.061-.052-.128c-1.531-3.748-4.625-9.41-5.868-11.643.219-.1.446-.206.66-.308,1.253,2.252,4.277,7.793,5.827,11.548a25.307,25.307,0,0,0,14.545,2.11c-.147.263-.3.529-.449.8A25.992,25.992,0,0,1,291.283,101.287Z" transform="translate(-256.629 -78.202)" fill="#c1d483"/>
        <path id="Trazado_717740" data-name="Trazado 717740" d="M278.134,110.569l-.046-.111A144,144,0,0,0,271.175,96.2c.207-.124.414-.248.626-.37a144.967,144.967,0,0,1,6.913,14.24c8.561,5.134,15,6,17.137,6.141-.18.23-.367.463-.551.693-2.605-.231-8.828-1.312-17.063-6.274Z" transform="translate(-254.546 -79.192)" fill="#c1d483"/>
        <path id="Trazado_717741" data-name="Trazado 717741" d="M265.282,122.454l-.043-.121a71.062,71.062,0,0,0-6.994-14.616c.15-.209.3-.419.454-.626a70.362,70.362,0,0,1,7.179,14.873c8.126,4.876,14.451,6.354,16.951,6.78-.262.2-.524.4-.788.592a52.69,52.69,0,0,1-16.648-6.815Z" transform="translate(-252.632 -80.859)" fill="#c1d483"/>
        <path id="Trazado_717742" data-name="Trazado 717742" d="M257.807,135.577l-.089-.061-.041-.1a25.9,25.9,0,0,0-6.021-8.386c.012-.317.024-.635.045-.953a26.589,26.589,0,0,1,6.6,8.955,34.972,34.972,0,0,0,10.427,4.612c-.324.164-.647.328-.965.486A35.206,35.206,0,0,1,257.807,135.577Z" transform="translate(-251.656 -83.671)" fill="#c1d483"/>
      </g>
      <g id="Grupo_1004681" data-name="Grupo 1004681" transform="translate(4.244 0.032)" opacity="0.42" style="mix-blend-mode: multiply;isolation: isolate">
        <path id="Trazado_717743" data-name="Trazado 717743" d="M282.689,101.51c14.761-10.071,22.936-23.453,24.345-31.338.4.734,8.074,15.666-14.383,43.554-12.568,15.606-35.888,23.045-35.888,23.045-.055-.1-.107-.2-.163-.3C257.22,123.381,267.592,111.81,282.689,101.51Z" transform="translate(-256.6 -70.172)" fill="#669c63"/>
      </g>
      <g id="Grupo_1004682" data-name="Grupo 1004682" transform="translate(4.244 0.032)">
        <path id="Trazado_717744" data-name="Trazado 717744" d="M256.763,136.77c-.055-.1-.107-.2-.163-.3.62-13.09,10.992-24.661,26.089-34.96,14.761-10.071,22.936-23.453,24.345-31.338" transform="translate(-256.6 -70.172)" fill="none" stroke="#4e6756" stroke-miterlimit="10" stroke-width="1.706"/>
      </g>
    </g>
    <path id="Trazado_717745" data-name="Trazado 717745" d="M252.4,261.722s2.8-95.888,2.783-113.011c0-1.219,1.281-1.529,1.281.152,0,4.37.182,102.42,1.153,110.508C258.752,264.548,252.2,267.956,252.4,261.722Z" transform="translate(-33.668 -16.086)" fill="#3c6c6c"/>
    <path id="Trazado_717746" data-name="Trazado 717746" d="M244.782,254.784c-1.468,7.582-19.267,14.657-42.8,18.686-9.6,1.643-6.78,3.364,14.725,4.835,42.767,2.924,86.816-3.113,69.554-4.813-16.686-1.643-35.679-11.434-37.461-18.513C247.5,249.834,245.033,253.484,244.782,254.784Z" transform="translate(-25.425 -31.577)" fill="#3c6c6c"/>
    <path id="Trazado_717747" data-name="Trazado 717747" d="M215.529,257.172" transform="translate(-28.208 -32.296)" fill="#829eb6"/>
    <g id="Grupo_1004690" data-name="Grupo 1004690" transform="translate(119.583 144.307)">
      <path id="Trazado_717748" data-name="Trazado 717748" d="M221.525,276.289a65.467,65.467,0,0,0,7.594,1.5c2.385.176,2.473,2.031,2.3,2.208s-15.9.353-18.632-.089-.089-5.917-.089-5.917Z" transform="translate(-147.201 -179.094)" fill="#363b53"/>
      <path id="Trazado_717749" data-name="Trazado 717749" d="M151.646,274.577c-1.223-.129-2.253-1.931-4.313-.579s-5.344,6.245-9.4,7.082c-2.9.579-2.189,1.159,0,1.03s10.3-1.8,14.357-2.061S151.646,274.577,151.646,274.577Z" transform="translate(-136.017 -179.021)" fill="#363b53"/>
      <g id="Grupo_1004684" data-name="Grupo 1004684" transform="translate(52.945 39.069)">
        <path id="Trazado_717750" data-name="Trazado 717750" d="M207.613,227.633c1.9,4.077,7.054,9.124,9.541,11.22,4.991,4.208,8.357-1.924,5.363-5.187s-7.065-7.517-9.916-12.678C211.221,218.49,205.712,223.554,207.613,227.633Z" transform="translate(-199.505 -210.216)" fill="#d6a491"/>
        <path id="Trazado_717751" data-name="Trazado 717751" d="M199.275,218.137c-2.051-5.286-1.2-9.025,2.034-9.628s8.817,4.388,13.034,12.423c-2.675,8.172-9.616,6.774-9.616,6.774A55.675,55.675,0,0,1,199.275,218.137Z" transform="translate(-198.165 -208.459)" fill="#c0832c"/>
        <path id="Trazado_717752" data-name="Trazado 717752" d="M224.266,235.879c3.3,2.363,10.821,5.768,19.689,6.616,1.638.266,2.3,5.022-1.443,5.607s-15.194-.689-22.469-6.44C216.8,238.482,220.97,233.516,224.266,235.879Z" transform="translate(-201.231 -212.428)" fill="#d6a491"/>
        <path id="Trazado_717753" data-name="Trazado 717753" d="M247.089,242.734c1.2-.49,3.276-1.832,3.511-3.9s1.671-3.712,2.017-2.855c.4,1,.389,6.451-.637,8.978-1.5,3.691-1.85,3.037-5.621,3.213S247.089,242.734,247.089,242.734Z" transform="translate(-205.078 -212.5)" fill="#d6a491"/>
      </g>
      <path id="Trazado_717754" data-name="Trazado 717754" d="M223.761,239.554c.054,3.952-2.851,22.847-3.76,29.553-1.922,1.85-6.621,1.353-8.9.142-.789-1.865,1.785-21.084,2.645-23.953S223.761,239.554,223.761,239.554Z" transform="translate(-147.113 -173.994)" fill="#6588a1"/>
      <path id="Trazado_717755" data-name="Trazado 717755" d="M197.219,242.09c4.037-1.738,14.251-5.371,18.323-6.687,4.661-1.505,8.149,6.182.189,12.276-6.509,4.985-16.735,8.71-25.386,11.312S197.219,242.09,197.219,242.09Z" transform="translate(-143.673 -173.351)" fill="#6588a1"/>
      <path id="Trazado_717756" data-name="Trazado 717756" d="M194.91,242.578c.568,9.516,1.878,15.659-8.395,18.781-9.156,2.783-16.949.312-22.635-1.782-4.212-1.551-4.341-5.948-3.981-9.835C160.133,247.219,194.91,242.578,194.91,242.578Z" transform="translate(-139.534 -174.442)" fill="#829eb6"/>
      <path id="Trazado_717757" data-name="Trazado 717757" d="M204.157,201.8c-3.29-3.961-15.527-3.121-24.418,3.968-8.718,6.95-18.983,16.46-19.945,38.688,8,1.182,28.22,1.851,35.408-4.6-.792-14.619,3.024-19.032,8.954-27.837C206.165,209.035,207.563,205.9,204.157,201.8Z" transform="translate(-139.538 -168.055)" fill="#e4ba34"/>
      <path id="Trazado_717758" data-name="Trazado 717758" d="M189.412,269.995c-14,.07-31.494,2.379-35.132,2.59a5.083,5.083,0,0,0,2.379,8.538c28.974-.35,48.22,1.47,51.719-1.26s2.684-6.787-.49-8.468C205.509,270.135,189.412,269.995,189.412,269.995Z" transform="translate(-138.504 -178.502)" fill="#6588a1"/>
      <path id="Trazado_717759" data-name="Trazado 717759" d="M161.473,258.495c1.326,6.613,36.318,17.864,42.581,19.329,9.968,2.333,11.684-6.135,6.369-10.358-5.109-4.059-21.7-10.73-21.7-10.73S160.049,251.389,161.473,258.495Z" transform="translate(-139.779 -176.253)" fill="#829eb6"/>
      <path id="Trazado_717760" data-name="Trazado 717760" d="M201.459,231.648c2.054,4.68,7.855,10.584,10.666,13.051,5.645,4.952,9.8-1.839,6.441-5.643s-7.928-8.771-11.045-14.712C206.011,221.469,199.4,226.968,201.459,231.648Z" transform="translate(-145.649 -171.624)" fill="#eebdae"/>
      <path id="Trazado_717761" data-name="Trazado 717761" d="M192.4,220.6c-2.109-6.048-1-10.237,2.671-10.793s9.785,5.3,14.236,14.533c-3.338,9.124-11.121,7.276-11.121,7.276S194.072,225.382,192.4,220.6Z" transform="translate(-144.209 -169.584)" fill="#d99d33"/>
      <path id="Trazado_717762" data-name="Trazado 717762" d="M220.527,241.62c3.743,2.8,12.367,6.945,22.652,8.258,1.9.365,2.481,5.762-1.9,6.274s-17.652-1.386-25.894-8.17C211.741,244.262,216.785,238.82,220.527,241.62Z" transform="translate(-147.583 -174.186)" fill="#eebdae"/>
      <path id="Trazado_717763" data-name="Trazado 717763" d="M246.767,250.3c1.414-.505,3.881-1.936,4.236-4.26s2.087-4.124,2.458-3.143c.431,1.141.2,7.3-1.09,10.113-1.888,4.108-2.27,3.355-6.665,3.4S246.767,250.3,246.767,250.3Z" transform="translate(-152.006 -174.449)" fill="#eebdae"/>
      <g id="Grupo_1004689" data-name="Grupo 1004689" transform="translate(58.24 0)">
        <g id="Grupo_1004688" data-name="Grupo 1004688">
          <path id="Trazado_717764" data-name="Trazado 717764" d="M223.766,202.629s10.79-2.316,17.467-11.341c7.243-9.792,4.232-18.238-3.212-23.744-8.178-6.051-13.953-6.073-20.358-2.627-5.761,3.1-8.464,8.548-9.782,14.359C205.839,188.283,211.331,194.159,223.766,202.629Z" transform="translate(-204.836 -162.599)" fill="#381c14"/>
          <path id="Trazado_717765" data-name="Trazado 717765" d="M210.178,196.619s-3.173,2.354-5.34,4,3.886,9.794,6.787,7.781c1.529-1.062,3.905-2.8,3.905-2.8Z" transform="translate(-204.38 -167.637)" fill="#d69e8e"/>
          <path id="Trazado_717766" data-name="Trazado 717766" d="M238.962,193.1c-6.115,8.529-7.317,11.96-10.461,13.457-2.96,1.41-9.081,1.887-16.4-6.74-5.244-6.179-3.331-12.242-3.331-12.242a4.08,4.08,0,0,1-2.212-1.047,3.006,3.006,0,0,1-.129-4.1c1.773-2.143,3.3-2.077,4.339-1.7a3.169,3.169,0,0,1,1.842,2.893,56.064,56.064,0,0,1,4.4-5.367c2.075-2.124,4.272-4.339,16.043,3.053,2.908,1.827,6.729,4.462,7.712,6.245C241.675,189.209,240.606,190.808,238.962,193.1Z" transform="translate(-204.572 -164.615)" fill="#eebdae"/>
          <g id="Grupo_1004685" data-name="Grupo 1004685" transform="translate(23.779 30.908)">
            <path id="Trazado_717767" data-name="Trazado 717767" d="M232.51,198.879c2.7.4,3.006,2.942-.218,2.713" transform="translate(-232.292 -198.879)" fill="none" stroke="#936053" stroke-miterlimit="10" stroke-width="0.317"/>
          </g>
          <path id="Trazado_717768" data-name="Trazado 717768" d="M223.573,200c-.655.462-1.585,3.617,2.913,4.361" transform="translate(-207.14 -168.137)" fill="none" stroke="#936053" stroke-miterlimit="10" stroke-width="0.408"/>
          <g id="Grupo_1004686" data-name="Grupo 1004686" transform="translate(20.706 23.79)">
            <path id="Trazado_717769" data-name="Trazado 717769" d="M234.611,191.889c-.5,1.165-1.787,4.668-4.637,3.528s-.085-4.545-.085-4.545A35.917,35.917,0,0,1,234.611,191.889Z" transform="translate(-228.685 -190.576)" fill="url(#linear-gradient)"/>
            <path id="Trazado_717770" data-name="Trazado 717770" d="M234.312,191.339c-3.24-1.355-5.74-.826-3.76.175S236.449,192.233,234.312,191.339Z" transform="translate(-228.857 -190.524)" fill="#29444c"/>
            <path id="Trazado_717771" data-name="Trazado 717771" d="M231.416,196.909c.384-1.451-.8-2.018-1.973-1.065" transform="translate(-228.797 -191.242)" fill="none" stroke="#452f20" stroke-miterlimit="10" stroke-width="0.529"/>
          </g>
          <g id="Grupo_1004687" data-name="Grupo 1004687" transform="translate(26.545 27.078)">
            <path id="Trazado_717772" data-name="Trazado 717772" d="M238.771,194.439c-.787.606-3.581,2.84-2.18,4.841s4.057-1.558,4.057-1.558S239.394,195.369,238.771,194.439Z" transform="translate(-235.637 -194.391)" fill="url(#linear-gradient-2)"/>
            <path id="Trazado_717773" data-name="Trazado 717773" d="M239.716,194.692c1.754,1.924,1.9,4.389.418,2.5S238.8,193.688,239.716,194.692Z" transform="translate(-236.055 -194.383)" fill="#29444c"/>
            <path id="Trazado_717774" data-name="Trazado 717774" d="M237.218,200.231c.685-1.643-.737-2.365-1.679-1.375" transform="translate(-235.539 -194.979)" fill="none" stroke="#452f20" stroke-miterlimit="10" stroke-width="0.529"/>
          </g>
        </g>
        <path id="Trazado_717775" data-name="Trazado 717775" d="M226.274,165.086c7.343-6.257,20.7,2.534,20.7,2.534,9.8.743,3.432,4.214,3.432,4.214,14.349,4.1,1.538,10.485,1.538,10.485,4.335,2.881-2.826,3.8-2.826,3.8s-10.016-1.775-12.526-3.19-8.878-12.947-8.878-12.947Z" transform="translate(-207.622 -162.635)" fill="#381c14"/>
      </g>
    </g>
    <g id="Grupo_1004694" data-name="Grupo 1004694" transform="translate(224.153 118.182)">
      <path id="Trazado_717776" data-name="Trazado 717776" d="M366.6,140.4c5.259-6.136,14.256-11.981,21.822-5.886,4.723,3.8,6.959,9.392,1.992,22.833s-.439,26.006,5.551,28.636c-7.889,2.337-22.937,3.506-21.33-16.364s-.877-24.544-4.822-22.645C367.326,145.216,366.6,140.4,366.6,140.4Z" transform="translate(-274.731 -131.933)" fill="#3a6464"/>
      <path id="Trazado_717777" data-name="Trazado 717777" d="M374.5,278.086c.8.589,10.173,2.563,18.171,2.715,1.98.088,1.754-.848-.918-1.582a20.707,20.707,0,0,1-7.378-3.766c-2.885-2.013-4.26-3.536-5.234-3.557a36.2,36.2,0,0,0-4.07.55Z" transform="translate(-275.901 -152.659)" fill="#253e4b"/>
      <path id="Trazado_717778" data-name="Trazado 717778" d="M294.25,278.874c19.371.038,60.7-2.547,68.449-1.185,2.01.349,2.557-6.2.668-6.6s-25.047-3.993-35.223-5.8c-18.267-3.25-22.8-2.155-31.818,1.358S288.932,278.472,294.25,278.874Z" transform="translate(-263.376 -151.393)" fill="#5b798e"/>
      <path id="Trazado_717779" data-name="Trazado 717779" d="M328.936,192.611c-2.417,2.514-5.625,18.8-14.324,34.086-2.233,3.925,1.794,11.071,6.9,5.494,7.134-7.783,17.123-27.628,21.5-35.224C345.768,192.195,332.535,188.865,328.936,192.611Z" transform="translate(-266.94 -140.679)" fill="#d9b684"/>
      <path id="Trazado_717780" data-name="Trazado 717780" d="M369.124,153.524c2.6-.922,2.557-4.327,1.191-7.847-1.675-4.32-4.77-6.521-7.264-4.3C367.064,145.065,369.124,153.524,369.124,153.524Z" transform="translate(-274.206 -133.202)" fill="#ad545f"/>
      <path id="Trazado_717781" data-name="Trazado 717781" d="M374.146,281.634c.815.566,10.241,2.274,18.241,2.2,1.982.032,1.729-.9-.963-1.556a20.685,20.685,0,0,1-7.481-3.555c-2.941-1.931-4.359-3.414-5.333-3.407a36.155,36.155,0,0,0-4.053.665Z" transform="translate(-275.849 -153.165)" fill="#35586b"/>
      <path id="Trazado_717782" data-name="Trazado 717782" d="M293.976,284.607c19.364-.51,60.6-4.264,68.387-3.122,2.018.292,2.381-6.269.481-6.612s-25.151-3.282-35.374-4.8c-18.351-2.732-22.855-1.508-31.766,2.258S288.648,284.356,293.976,284.607Z" transform="translate(-263.315 -152.169)" fill="#6e90a9"/>
      <path id="Trazado_717783" data-name="Trazado 717783" d="M320.875,244.379c-9.767,5.557-26.271,13.135-34.126,18.626-6.274,4.386-1.476,14.883,4.768,12.389s35.3-13.666,35.3-13.666Z" transform="translate(-262.472 -148.584)" fill="#6e90a9"/>
      <path id="Trazado_717784" data-name="Trazado 717784" d="M343.755,273.626c-8.582,2.057-45.655,7.764-49.954,8.362s-8.711-8.63-2.134-12.718c9.5-5.906,34.928-18.367,34.928-18.367Z" transform="translate(-263.139 -149.55)" fill="#829eb6"/>
      <path id="Trazado_717785" data-name="Trazado 717785" d="M352.534,242.212c2.231,3.984,6.811,10.071,7.528,17.761s-5.089,14.278-16.969,11.985c-13.291-2.566-18.217-8.722-18.23-14.592-.011-4.87,2.163-14.46,2.163-14.46Z" transform="translate(-268.551 -148.263)" fill="#829eb6"/>
      <path id="Trazado_717786" data-name="Trazado 717786" d="M313.212,236.944c-1.876-2.406-4.036-7.246-5.4-9.775-1.538-2.856-.474-7.115,2.86-3.645,2.913,3.033,9.706,10.616,9.209,13.242C319.5,238.764,315.738,240.184,313.212,236.944Z" transform="translate(-265.924 -145.303)" fill="#dbbd98"/>
      <path id="Trazado_717787" data-name="Trazado 717787" d="M329.838,192.043a16.606,16.606,0,0,1-2.177,8.111c-1.716,2.768-4.847,7.32-5.341,9.694s1.879,7.517,2.472,10.188a89.083,89.083,0,0,1,1.6,14.635c0,4.649,25.325,4.132,25.759-.642,1.85-20.345,7.66-21.115,9.342-26.555s2.771-14.131-1.088-16.123C354.269,188.185,344.774,182.943,329.838,192.043Z" transform="translate(-268.164 -140.08)" fill="#da8e8b"/>
      <path id="Trazado_717788" data-name="Trazado 717788" d="M343.032,203.309c7.3,1,11.877-4.74,15.722-13.811a24.766,24.766,0,0,0-20.623-.57C334.946,194.951,335.727,202.305,343.032,203.309Z" transform="translate(-270.252 -140.081)" fill="#dbbd98"/>
      <g id="Grupo_1004692" data-name="Grupo 1004692" transform="translate(54.589 6.829)">
        <path id="Trazado_717789" data-name="Trazado 717789" d="M352.791,189.85c.935-.707,1.7-.624,2.478-1.457l2-19.575-8.214-.112-3.225,19.54C347.641,190.225,350.266,191.754,352.791,189.85Z" transform="translate(-326.244 -144.207)" fill="#dbbd98"/>
        <path id="Trazado_717790" data-name="Trazado 717790" d="M357.377,168.818,356,182.247a26.874,26.874,0,0,1-9.453,2.281l2.612-15.822Z" transform="translate(-326.351 -144.207)" fill="#c89673"/>
        <path id="Trazado_717791" data-name="Trazado 717791" d="M353.181,171.929c-2.521,5.435-16.265,9.059-20.87,6.641-2.232-1.172-3.116-3.861-4.074-7.264-1.608-5.716-1.979-13.354-.486-18.329,2.464-8.219,12.518-15.341,20.363-12.321S356.218,165.381,353.181,171.929Z" transform="translate(-323.428 -139.949)" fill="#dbbd98"/>
        <path id="Trazado_717792" data-name="Trazado 717792" d="M330.4,163.828c.016-.009.022-.011.041-.02l-.389-1.058a51,51,0,0,1-7.215,5.848c4.706,4.85,9.733.74,8.749-5.025a3.193,3.193,0,0,0-1.186.256C330.119,163.979,330.164,163.928,330.4,163.828Z" transform="translate(-322.84 -143.325)" fill="#dbbd98"/>
        <g id="Grupo_1004691" data-name="Grupo 1004691" transform="translate(4.836 16.433)">
          <path id="Trazado_717793" data-name="Trazado 717793" d="M328.9,159.442c-.294,1.063-1.267,4.905,1.746,5.579s2.777-4.175,2.777-4.175S330.274,159.775,328.9,159.442Z" transform="translate(-328.517 -159.269)" opacity="0.4" fill="url(#linear-gradient-3)"/>
          <path id="Trazado_717794" data-name="Trazado 717794" d="M329.695,159.255c3.3.36,5.445,2.305,2.433,1.782S327.971,159.068,329.695,159.255Z" transform="translate(-328.572 -159.238)" fill="#3a6464"/>
          <path id="Trazado_717795" data-name="Trazado 717795" d="M331.727,165.528c-.647-1.855-2.646-1.448-2.783.044" transform="translate(-328.58 -159.986)" fill="none" stroke="#452f20" stroke-miterlimit="10" stroke-width="0.626"/>
        </g>
      </g>
      <path id="Trazado_717796" data-name="Trazado 717796" d="M328.076,218.268c1.475.055,17.667,1.841,19.311,2.4s-7.712,1.53-12.021,1.246C331.819,221.677,326.5,218.208,328.076,218.268Z" transform="translate(-268.984 -144.717)" fill="#d47880"/>
      <path id="Trazado_717797" data-name="Trazado 717797" d="M329.088,148.465c5.492,8.288,13.324,10.987,15.117,10.941,2,8.938,3.286,13.707,8.786,15.223,3.782-1.286,6.423-5.654,8.243-9.209,1.449-2.828,5.514-13.372-1.3-22.693s-18.929-7.1-22.314-5.247a31.346,31.346,0,0,0-8.457,7.121c-2.479,2.736-4.146,5.041-5.225,4.256C327.323,152.732,329.088,148.465,329.088,148.465Z" transform="translate(-268.414 -132.51)" fill="#3a6464"/>
      <path id="Trazado_717798" data-name="Trazado 717798" d="M346.092,166.933c-.5,2.721.91,5.262,3.153,5.676s4.467-1.458,4.968-4.18-.91-5.262-3.153-5.676S346.594,164.211,346.092,166.933Z" transform="translate(-271.68 -136.488)" fill="#dbbd98"/>
      <path id="Trazado_717799" data-name="Trazado 717799" d="M346.566,159.441c3.645,4.6-3.718,10.576-2.308,17.883-1.346-2.756-1.228-4.867.423-8.869C347.3,162.107,346.566,159.441,346.566,159.441Z" transform="translate(-271.286 -136.007)" fill="#3a6464"/>
      <path id="Trazado_717800" data-name="Trazado 717800" d="M345.919,159.886c2.166,3.426-3.332,6.994-2.9,12.119-.722-1.993-.486-3.434.942-6.063C346.227,161.771,345.919,159.886,345.919,159.886Z" transform="translate(-271.181 -136.072)" fill="#3a6464"/>
      <path id="Trazado_717801" data-name="Trazado 717801" d="M335.332,173.486c.3,2.746-2.027,4.2-4.576,3.567" transform="translate(-269.423 -138.086)" fill="none" stroke="#6e3f3c" stroke-miterlimit="10" stroke-width="0.433"/>
      <path id="Trazado_717802" data-name="Trazado 717802" d="M360.7,261.582c-.063.487-5.365,5.215-5.365,5.215l-5.743,5.618.78,1.173,6.2-4.032-.344,6.7-.97,7.366,1.539.388,2.3-8.366-.441,8.593.767-.02,1.987-7.8.688,6.315,1.085-.349.466-5.856.151,3.4.765-.407.057-7.7-.183-8.5.69-2.548-2.69-2.908Z" transform="translate(-272.213 -150.581)" fill="#dbbd98"/>
      <path id="Trazado_717803" data-name="Trazado 717803" d="M377.4,233.531c-2.118,5.346-10.366,25.461-11.412,28.586-2.26.184-4.924-2.363-5.227-2.906,0,0,7.308-24.588,8.076-26.741.015-.043.029-.1.044-.144C371.836,226.73,378.507,229.155,377.4,233.531Z" transform="translate(-273.866 -146.317)" fill="#dbbd98"/>
      <path id="Trazado_717804" data-name="Trazado 717804" d="M367.382,192.517c7.453,2.339,8.922,18.932,9.3,21.489s1.414,10.282,1.469,12.186a6.262,6.262,0,0,1,0,1.295c-.49,4.537-7.426,4.772-8.259,1.763-.8-2.875-2.307-8.994-3.054-12.034C366.076,214.115,362.921,199.154,367.382,192.517Z" transform="translate(-274.501 -140.904)" fill="#dbbd98"/>
      <g id="Grupo_1004693" data-name="Grupo 1004693" transform="translate(0 72.342)">
        <path id="Trazado_717805" data-name="Trazado 717805" d="M275.518,246.124a10.015,10.015,0,0,1-12.108-3.775,16.682,16.682,0,0,0-4.128,2.527s4.717,8.86,17.055,3.663A5.436,5.436,0,0,0,275.518,246.124Z" transform="translate(-258.84 -220.625)" fill="#207583"/>
        <path id="Trazado_717806" data-name="Trazado 717806" d="M258.763,245.111a43.463,43.463,0,0,1,4.953-3.059" transform="translate(-258.763 -220.581)" fill="none" stroke="#16535d" stroke-linecap="round" stroke-miterlimit="10" stroke-width="1.083"/>
        <path id="Trazado_717807" data-name="Trazado 717807" d="M277.314,246.78a9.787,9.787,0,0,1-3.674.758,8.167,8.167,0,0,1-2.23,3.275,19.159,19.159,0,0,0,6.724-1.618A5.437,5.437,0,0,0,277.314,246.78Z" transform="translate(-260.636 -221.281)" fill="#1b626d"/>
        <path id="Trazado_717808" data-name="Trazado 717808" d="M272.246,228.6c1.546,5.359,3.971,13.3,6.348,18.343.555,1.18,1.46,2.94,4.394,2.415,3.429-.613,14.985-5.72,17.676-7.933,1.881-1.547,1.746-2.29.387-5.094-2.156-4.45-6.52-12.93-9.605-16.794-1.222-1.529-1.942-1.7-3.751-1.086a149.113,149.113,0,0,0-13.829,5.9C272.331,225.325,271.638,226.106,272.246,228.6Z" transform="translate(-260.727 -217.038)" fill="#207583"/>
        <path id="Trazado_717809" data-name="Trazado 717809" d="M302.776,237.965l-1.32-2.432,6.412-3.481-6.636-12.415-7.369,3.23-1.111-2.534,7.436-3.259.036-.015a2.7,2.7,0,0,1,3.415,1.211l6.705,12.546a2.7,2.7,0,0,1-1.087,3.629Z" transform="translate(-263.796 -216.849)" fill="#207583"/>
        <path id="Trazado_717810" data-name="Trazado 717810" d="M302.181,236.336c-2.156-4.45-6.52-12.93-9.605-16.794-1.03-1.289-1.711-1.6-2.98-1.306,4.942,6.862,9.8,25.86-9.932,28.58.02.043.041.089.06.132.556,1.18,1.46,2.94,4.394,2.415,3.429-.613,14.986-5.72,17.676-7.933C303.675,239.883,303.54,239.141,302.181,236.336Z" transform="translate(-261.858 -217.039)" fill="#1b626d"/>
      </g>
      <path id="Trazado_717811" data-name="Trazado 717811" d="M304.73,224a4.172,4.172,0,0,0,2.678-.817c-.365-.667-.583-1.1-.583-1.1s2.02-.7,3.481,2.114,2.164,4.654-.126,5.944-4.479,1.045-5.495-.713-2.321-5.533-.508-6.471C304.357,223.34,304.73,224,304.73,224Z" transform="translate(-265.354 -145.271)" fill="#dbbd98"/>
    </g>
    <path id="Trazado_717812" data-name="Trazado 717812" d="M186.557,63.93c-22.208,17.657-14.5,28.671,7.909,13.511S226.762,31.963,186.557,63.93Z" transform="translate(-21.952 -1.595)" fill="#ceecff"/>
    <circle id="Elipse_8484" data-name="Elipse 8484" cx="6.262" cy="6.262" r="6.262" transform="translate(128.727 86.722) rotate(-45)" fill="#ceecff"/>
    <ellipse id="Elipse_8485" data-name="Elipse 8485" cx="9.887" cy="24.057" rx="9.887" ry="24.057" transform="translate(315.315 58.379) rotate(-18.655)" fill="#ceecff"/>
    <path id="Trazado_717813" data-name="Trazado 717813" d="M25.033,186.161h86.088s-1.88-16.541-22.932-8.646C75.407,149.32,51.348,154.958,42.7,171.876,30.3,167.74,25.033,186.161,25.033,186.161Z" transform="translate(0 -17.578)" fill="#fff"/>
    <path id="Trazado_717814" data-name="Trazado 717814" d="M391.695,221.523c-.981-6.873,6.383-9.573,11.046-4.418,1.228-3.682,3.927-3.437,4.418-.737,6.136-8.836,22.092-10.554,24.3,2.7,3.927-3.682,7.855,2.454,7.855,2.454Z" transform="translate(-54.281 -25.227)" fill="#fff"/>
    <path id="Trazado_717815" data-name="Trazado 717815" d="M373.307,48.123a4.725,4.725,0,1,1-4.726-4.725A4.725,4.725,0,0,1,373.307,48.123Z" transform="translate(-50.172 -0.641)" fill="#ceecff"/>
    <path id="Trazado_717816" data-name="Trazado 717816" d="M413.042,244.987c-10.354,8.3-17.835,23.832-7.073,18.143S430.877,230.688,413.042,244.987Z" transform="translate(-55.63 -29.877)" fill="#ceecff"/>
    <path id="Trazado_717817" data-name="Trazado 717817" d="M55.79,235.948C72.845,262.89,94.35,256.464,81.5,237.183S35.963,204.626,55.79,235.948Z" transform="translate(-3.631 -26.379)" fill="#ceecff"/>
    <circle id="Elipse_8486" data-name="Elipse 8486" cx="2.966" cy="2.966" r="2.966" transform="translate(83.798 229.837)" fill="#e2eff0"/>
  </g>
</svg>
