<svg xmlns="http://www.w3.org/2000/svg" xmlns:xlink="http://www.w3.org/1999/xlink" width="400" height="467" viewBox="0 0 400 467">
  <defs>
    <clipPath id="clip-path">
      <path id="Trazado_717319" data-name="Trazado 717319" d="M221.933,158.637s10.246-11.75,25.194-11.75c0,0,.5-9.118,10.7-11.088S270,142.937,270,142.937s7.523-4,17.663,0S295.73,158.6,295.73,158.6s29.2-.948,34.213,4.4H198.71S201.358,156.455,221.933,158.637Z" transform="translate(-198.71 -135.519)" fill="none" stroke="#263238" stroke-linecap="round" stroke-linejoin="round" stroke-width="1"/>
    </clipPath>
    <clipPath id="clip-path-2">
      <path id="Trazado_717322" data-name="Trazado 717322" d="M313.76,67.569S305.583,58.2,293.667,58.2a9.985,9.985,0,0,0-8.531-8.847c-8.132-1.572-9.719,5.695-9.719,5.695s-6.018-3.19-14.082,0-6.439,12.5-6.439,12.5-23.32-.752-27.285,3.506H332.281S330.167,65.831,313.76,67.569Z" transform="translate(-227.61 -49.134)" fill="none" stroke="#263238" stroke-linecap="round" stroke-linejoin="round" stroke-width="1"/>
    </clipPath>
    <clipPath id="clip-path-3">
      <path id="Trazado_717325" data-name="Trazado 717325" d="M86.278,113.3s4.852-5.567,11.939-5.567a5.92,5.92,0,0,1,5.063-5.266,4.623,4.623,0,0,1,5.77,3.378,10.532,10.532,0,0,1,8.365,0c4.8,1.9,3.829,7.425,3.829,7.425s13.827-.451,16.2,2.084H75.28S76.529,112.261,86.278,113.3Z" transform="translate(-75.28 -102.334)" fill="none" stroke="#263238" stroke-linecap="round" stroke-linejoin="round" stroke-width="1"/>
    </clipPath>
    <clipPath id="clip-path-4">
      <path id="Trazado_717328" data-name="Trazado 717328" d="M185.1,284.31s4.852-5.567,11.939-5.567a5.913,5.913,0,0,1,5.063-5.266,4.641,4.641,0,0,1,5.777,3.37,10.532,10.532,0,0,1,8.365,0c4.8,1.888,3.829,7.425,3.829,7.425s13.827-.451,16.2,2.084H174.1S175.349,283.272,185.1,284.31Z" transform="translate(-174.1 -273.349)" fill="none" stroke="#263238" stroke-linecap="round" stroke-linejoin="round" stroke-width="1"/>
    </clipPath>
    <clipPath id="clip-path-5">
      <path id="Trazado_717345" data-name="Trazado 717345" d="M30.84,296.074a43.524,43.524,0,0,0,6.018,9.78c5.89,7.718,17.024,18.95,36.982,29.722,35.206,19.032,57.488,50.658,57.488,50.658l20.484-65.289s-9.11-.662-21.929-9.78c-8.749-6.146-19.183-16.241-29.609-32.656C74.487,237.954,47.51,229.16,47.51,229.16" transform="translate(-30.84 -229.16)" fill="#fff" stroke="#263238" stroke-linecap="round" stroke-linejoin="round" stroke-width="1"/>
    </clipPath>
    <clipPath id="clip-path-6">
      <path id="Trazado_717352" data-name="Trazado 717352" d="M425.767,288.069a43.524,43.524,0,0,1-6.018,9.78c-5.913,7.718-17.046,18.95-36.967,29.722-35.206,19.032-57.488,50.658-57.488,50.658L304.81,312.939s9.11-.662,21.929-9.78c8.711-6.184,19.138-16.257,29.572-32.671,25.788-40.555,52.772-49.349,52.772-49.349" transform="translate(-304.81 -221.14)" fill="#fff" stroke="#263238" stroke-linecap="round" stroke-linejoin="round" stroke-width="1"/>
    </clipPath>
    <clipPath id="clip-path-7">
      <path id="Trazado_717376" data-name="Trazado 717376" d="M253.794,234.082s-11.984-6.906-2.167-31.859,39.329-32.521,46-40.043C297.629,162.18,294.936,238.814,253.794,234.082Z" transform="translate(-247.763 -162.18)" fill="#ffa031" stroke="#263238" stroke-linecap="round" stroke-linejoin="round" stroke-width="1"/>
    </clipPath>
    <clipPath id="clip-path-8">
      <path id="Trazado_717384" data-name="Trazado 717384" d="M236.79,304.374s5.115-90.092,48.529-124.124c0,0-40.277,33.273-42.353,124.124Z" transform="translate(-236.79 -180.25)" fill="#ffa031" stroke="#263238" stroke-linecap="round" stroke-linejoin="round" stroke-width="1"/>
    </clipPath>
    <clipPath id="clip-path-9">
      <path id="Trazado_717388" data-name="Trazado 717388" d="M218.478,199.232s10.72-6.176,1.933-28.5-35.176-29.09-41.142-35.816C179.27,134.92,181.677,203.437,218.478,199.232Z" transform="translate(-179.27 -134.92)" fill="#ffa031" stroke="#263238" stroke-linecap="round" stroke-linejoin="round" stroke-width="1"/>
    </clipPath>
    <clipPath id="clip-path-10">
      <path id="Trazado_717396" data-name="Trazado 717396" d="M232.3,258.444s-2.783-76.927-41.608-107.394c0,0,37.38,33.484,37.929,119.648,0,0,1.219.241,1.873-1.745" transform="translate(-190.69 -151.05)" fill="#ffa031" stroke="#263238" stroke-linecap="round" stroke-linejoin="round" stroke-width="1"/>
    </clipPath>
  </defs>
  <g id="Grupo_1005688" data-name="Grupo 1005688" transform="translate(-2527 7251)">
    <g id="Grupo_1004473" data-name="Grupo 1004473" transform="translate(8157 411)">
      <rect id="Rectángulo_346921" data-name="Rectángulo 346921" width="400" height="467" rx="20" transform="translate(-5630 -7662)" fill="#ffa031"/>
      <g id="Environment-bro" transform="translate(-5624.368 -7649.375)">
        <g id="freepik--background-simple--inject-2" transform="translate(51.507 29.116)">
          <path id="Trazado_717315" data-name="Trazado 717315" d="M65.548,132.91s-20.973,54.163,8.5,108.7S164.23,324.964,212.819,349.6s99.044,12.638,123.019-27.714-8.907-69.156-8.952-126.7S335.5,122.415,304.318,73.8,196.7,14.427,138.894,50.483,65.548,132.91,65.548,132.91Z" transform="translate(-58.313 -29.116)" fill="#fff" opacity="0.7"/>
          <path id="Trazado_717316" data-name="Trazado 717316" d="M75.327,134.326c21.68-39.915,76.22-86.511,151.048-67.1s125.373,60.467,117.091,131.9-51.816,130.79-145.609,132.527S27.783,221.852,75.327,134.326Z" transform="translate(-58.922 -37.43)" fill="#ffa031"/>
          <path id="Trazado_717317" data-name="Trazado 717317" d="M75.327,134.326c21.68-39.915,76.22-86.511,151.048-67.1s125.373,60.467,117.091,131.9-51.816,130.79-145.609,132.527S27.783,221.852,75.327,134.326Z" transform="translate(-58.922 -37.43)" fill="#fff" opacity="0.7"/>
        </g>
        <g id="freepik--Clouds--inject-2" transform="translate(64.271 44.175)">
          <g id="Grupo_1004493" data-name="Grupo 1004493" transform="translate(92.853 64.985)" clip-path="url(#clip-path)">
            <path id="Trazado_717318" data-name="Trazado 717318" d="M221.933,158.637s10.246-11.75,25.194-11.75c0,0,.5-9.118,10.7-11.088S270,142.937,270,142.937s7.523-4,17.663,0S295.73,158.6,295.73,158.6s29.2-.948,34.213,4.4H198.71S201.358,156.455,221.933,158.637Z" transform="translate(-198.71 -135.519)" fill="none" stroke="#263238" stroke-linecap="round" stroke-linejoin="round" stroke-width="1" opacity="0.5"/>
          </g>
          <path id="Trazado_717320" data-name="Trazado 717320" d="M221.933,158.637s10.246-11.75,25.194-11.75c0,0,.5-9.118,10.7-11.088S270,142.937,270,142.937s7.523-4,17.663,0S295.73,158.6,295.73,158.6s29.2-.948,34.213,4.4H198.71S201.358,156.455,221.933,158.637Z" transform="translate(-105.857 -70.534)" fill="none" stroke="#263238" stroke-linecap="round" stroke-linejoin="round" stroke-width="1"/>
          <g id="Grupo_1004494" data-name="Grupo 1004494" transform="translate(114.593 0)" clip-path="url(#clip-path-2)">
            <path id="Trazado_717321" data-name="Trazado 717321" d="M313.76,67.569S305.583,58.2,293.667,58.2a9.985,9.985,0,0,0-8.531-8.847c-8.132-1.572-9.719,5.695-9.719,5.695s-6.018-3.19-14.082,0-6.439,12.5-6.439,12.5-23.32-.752-27.285,3.506H332.281S330.167,65.831,313.76,67.569Z" transform="translate(-227.61 -49.134)" fill="none" stroke="#263238" stroke-linecap="round" stroke-linejoin="round" stroke-width="1" opacity="0.5"/>
          </g>
          <path id="Trazado_717323" data-name="Trazado 717323" d="M313.76,67.569S305.583,58.2,293.667,58.2a9.985,9.985,0,0,0-8.531-8.847c-8.132-1.572-9.719,5.695-9.719,5.695s-6.018-3.19-14.082,0-6.439,12.5-6.439,12.5-23.32-.752-27.285,3.506H332.281S330.167,65.831,313.76,67.569Z" transform="translate(-113.017 -49.134)" fill="none" stroke="#263238" stroke-linecap="round" stroke-linejoin="round" stroke-width="1"/>
          <g id="Grupo_1004495" data-name="Grupo 1004495" transform="translate(0 40.021)" clip-path="url(#clip-path-3)">
            <path id="Trazado_717324" data-name="Trazado 717324" d="M86.278,113.3s4.852-5.567,11.939-5.567a5.92,5.92,0,0,1,5.063-5.266,4.623,4.623,0,0,1,5.77,3.378,10.532,10.532,0,0,1,8.365,0c4.8,1.9,3.829,7.425,3.829,7.425s13.827-.451,16.2,2.084H75.28S76.529,112.261,86.278,113.3Z" transform="translate(-75.28 -102.334)" fill="none" stroke="#263238" stroke-linecap="round" stroke-linejoin="round" stroke-width="1" opacity="0.5"/>
          </g>
          <path id="Trazado_717326" data-name="Trazado 717326" d="M86.278,113.3s4.852-5.567,11.939-5.567a5.92,5.92,0,0,1,5.063-5.266,4.623,4.623,0,0,1,5.77,3.378,10.532,10.532,0,0,1,8.365,0c4.8,1.9,3.829,7.425,3.829,7.425s13.827-.451,16.2,2.084H75.28S76.529,112.261,86.278,113.3Z" transform="translate(-75.28 -62.313)" fill="none" stroke="#263238" stroke-linecap="round" stroke-linejoin="round" stroke-width="1"/>
          <g id="Grupo_1004496" data-name="Grupo 1004496" transform="translate(74.339 168.67)" clip-path="url(#clip-path-4)">
            <path id="Trazado_717327" data-name="Trazado 717327" d="M185.1,284.31s4.852-5.567,11.939-5.567a5.913,5.913,0,0,1,5.063-5.266,4.641,4.641,0,0,1,5.777,3.37,10.532,10.532,0,0,1,8.365,0c4.8,1.888,3.829,7.425,3.829,7.425s13.827-.451,16.2,2.084H174.1S175.349,283.272,185.1,284.31Z" transform="translate(-174.1 -273.349)" fill="none" stroke="#263238" stroke-linecap="round" stroke-linejoin="round" stroke-width="1" opacity="0.5"/>
          </g>
          <path id="Trazado_717329" data-name="Trazado 717329" d="M185.1,284.31s4.852-5.567,11.939-5.567a5.913,5.913,0,0,1,5.063-5.266,4.641,4.641,0,0,1,5.777,3.37,10.532,10.532,0,0,1,8.365,0c4.8,1.888,3.829,7.425,3.829,7.425s13.827-.451,16.2,2.084H174.1S175.349,283.272,185.1,284.31Z" transform="translate(-99.761 -104.679)" fill="none" stroke="#263238" stroke-linecap="round" stroke-linejoin="round" stroke-width="1"/>
        </g>
        <g id="freepik--wind-turbines--inject-2" transform="translate(69.434 121.421)">
          <path id="Trazado_717330" data-name="Trazado 717330" d="M113.332,189.764l-.075-11.735a1.6,1.6,0,0,0-3.2,0v3.844" transform="translate(-89.06 -157.942)" fill="none" stroke="#263238" stroke-linecap="round" stroke-linejoin="round" stroke-width="1"/>
          <line id="Línea_2613" data-name="Línea 2613" x1="0.03" y2="4.311" transform="translate(20.88 34.959)" fill="none" stroke="#263238" stroke-linecap="round" stroke-linejoin="round" stroke-width="1"/>
          <line id="Línea_2614" data-name="Línea 2614" x1="0.594" y1="92.371" transform="translate(24.348 43.693)" fill="none" stroke="#263238" stroke-linecap="round" stroke-linejoin="round" stroke-width="1"/>
          <line id="Línea_2615" data-name="Línea 2615" x1="0.564" y2="88.678" transform="translate(20.263 47.387)" fill="none" stroke="#263238" stroke-linecap="round" stroke-linejoin="round" stroke-width="1"/>
          <path id="Trazado_717331" data-name="Trazado 717331" d="M145.226,191.825l-34.161-7.289-1.881,2.648-1.362-.143-14.451-34.6a1,1,0,0,0-1.881.677l9.99,33.476,3.227.369.512,1.226-22.9,29.767a1,1,0,0,0,1.5,1.3l24.118-25.276-1.279-3.009.85-1.1,37.41,3.942a1,1,0,0,0,.3-1.986Z" transform="translate(-82.144 -151.818)" fill="none" stroke="#263238" stroke-linecap="round" stroke-linejoin="round" stroke-width="1"/>
          <circle id="Elipse_8456" data-name="Elipse 8456" cx="0.978" cy="0.978" r="0.978" transform="translate(23.964 35.441)" fill="none" stroke="#263238" stroke-linecap="round" stroke-linejoin="round" stroke-width="1"/>
          <path id="Trazado_717332" data-name="Trazado 717332" d="M155.368,244.574l-.06-9.291a1.264,1.264,0,1,0-2.528,0v3.047" transform="translate(-99.643 -172.182)" fill="none" stroke="#263238" stroke-linecap="round" stroke-linejoin="round" stroke-width="1"/>
          <line id="Línea_2616" data-name="Línea 2616" x1="0.023" y2="3.4" transform="translate(53.04 74.875)" fill="none" stroke="#263238" stroke-linecap="round" stroke-linejoin="round" stroke-width="1"/>
          <line id="Línea_2617" data-name="Línea 2617" x1="0.466" y1="73.068" transform="translate(55.785 81.78)" fill="none" stroke="#263238" stroke-linecap="round" stroke-linejoin="round" stroke-width="1"/>
          <line id="Línea_2618" data-name="Línea 2618" x1="0.451" y2="70.149" transform="translate(52.551 84.699)" fill="none" stroke="#263238" stroke-linecap="round" stroke-linejoin="round" stroke-width="1"/>
          <path id="Trazado_717333" data-name="Trazado 717333" d="M180.6,246.249l-27.029-5.777-1.5,2.1-1.083-.113-11.427-27.383a.752.752,0,0,0-1.031-.429.8.8,0,0,0-.459.963l7.906,26.48,2.55.293.406.97L130.8,266.884a.792.792,0,1,0,1.2,1.031l19.07-20-1.008-2.362.67-.873,29.594,3.114a.752.752,0,0,0,.873-.7A.79.79,0,0,0,180.6,246.249Z" transform="translate(-94.15 -167.365)" fill="none" stroke="#263238" stroke-linecap="round" stroke-linejoin="round" stroke-width="1"/>
          <path id="Trazado_717334" data-name="Trazado 717334" d="M157.5,252.632a.752.752,0,1,1-.752-.752A.752.752,0,0,1,157.5,252.632Z" transform="translate(-100.44 -176.607)" fill="none" stroke="#263238" stroke-linecap="round" stroke-linejoin="round" stroke-width="1"/>
          <path id="Trazado_717335" data-name="Trazado 717335" d="M375.59,189.764l.075-11.735a1.6,1.6,0,0,1,3.2,0v3.844" transform="translate(-154.84 -157.942)" fill="none" stroke="#263238" stroke-linecap="round" stroke-linejoin="round" stroke-width="1"/>
          <line id="Línea_2619" data-name="Línea 2619" x2="0.03" y2="4.311" transform="translate(224.113 34.959)" fill="none" stroke="#263238" stroke-linecap="round" stroke-linejoin="round" stroke-width="1"/>
          <line id="Línea_2620" data-name="Línea 2620" y1="92.371" x2="0.594" transform="translate(220.081 43.693)" fill="none" stroke="#263238" stroke-linecap="round" stroke-linejoin="round" stroke-width="1"/>
          <line id="Línea_2621" data-name="Línea 2621" x2="0.564" y2="88.678" transform="translate(224.196 47.387)" fill="none" stroke="#263238" stroke-linecap="round" stroke-linejoin="round" stroke-width="1"/>
          <path id="Trazado_717336" data-name="Trazado 717336" d="M323.744,191.825l34.161-7.289,1.881,2.648,1.362-.143,14.451-34.6a1,1,0,0,1,1.881.677l-9.99,33.476-3.227.369-.512,1.226,22.922,29.752a1,1,0,0,1-1.5,1.3l-24.118-25.276,1.279-3.009-.85-1.1-37.41,3.942a1,1,0,0,1-.323-1.971Z" transform="translate(-141.803 -151.818)" fill="none" stroke="#263238" stroke-linecap="round" stroke-linejoin="round" stroke-width="1"/>
          <circle id="Elipse_8457" data-name="Elipse 8457" cx="0.978" cy="0.978" r="0.978" transform="translate(219.103 35.441)" fill="none" stroke="#263238" stroke-linecap="round" stroke-linejoin="round" stroke-width="1"/>
          <path id="Trazado_717337" data-name="Trazado 717337" d="M333.78,244.574l.06-9.291a1.264,1.264,0,1,1,2.528,0v3.047" transform="translate(-144.482 -172.182)" fill="none" stroke="#263238" stroke-linecap="round" stroke-linejoin="round" stroke-width="1"/>
          <line id="Línea_2622" data-name="Línea 2622" x2="0.023" y2="3.4" transform="translate(191.961 74.875)" fill="none" stroke="#263238" stroke-linecap="round" stroke-linejoin="round" stroke-width="1"/>
          <line id="Línea_2623" data-name="Línea 2623" y1="73.068" x2="0.466" transform="translate(188.771 81.78)" fill="none" stroke="#263238" stroke-linecap="round" stroke-linejoin="round" stroke-width="1"/>
          <line id="Línea_2624" data-name="Línea 2624" x2="0.451" y2="70.149" transform="translate(192.021 84.699)" fill="none" stroke="#263238" stroke-linecap="round" stroke-linejoin="round" stroke-width="1"/>
          <path id="Trazado_717338" data-name="Trazado 717338" d="M292.74,246.249l27.029-5.777,1.5,2.1,1.083-.113,11.427-27.383a.752.752,0,0,1,1.031-.429.805.805,0,0,1,.459.963l-7.906,26.48-2.55.293-.406.97,18.13,23.531a.792.792,0,0,1-1.2,1.031l-19.07-20,1.008-2.362-.67-.873L293.011,247.8a.752.752,0,0,1-.873-.7.79.79,0,0,1,.6-.85Z" transform="translate(-134.165 -167.365)" fill="none" stroke="#263238" stroke-linecap="round" stroke-linejoin="round" stroke-width="1"/>
          <path id="Trazado_717339" data-name="Trazado 717339" d="M332.05,252.632a.752.752,0,1,0,.752-.752A.752.752,0,0,0,332.05,252.632Z" transform="translate(-144.053 -176.607)" fill="none" stroke="#263238" stroke-linecap="round" stroke-linejoin="round" stroke-width="1"/>
        </g>
        <g id="freepik--Hands--inject-2" transform="translate(30.84 108.709)">
          <path id="Trazado_717340" data-name="Trazado 717340" d="M30.84,296.074a43.524,43.524,0,0,0,6.018,9.78c5.89,7.718,17.024,18.95,36.982,29.722,35.206,19.032,57.488,50.658,57.488,50.658l20.484-65.289s-9.11-.662-21.929-9.78c-8.749-6.146-19.183-16.241-29.609-32.656C74.487,237.954,47.51,229.16,47.51,229.16" transform="translate(-30.84 -158.266)" fill="#fff"/>
          <g id="Grupo_1004497" data-name="Grupo 1004497" transform="translate(0 70.894)" clip-path="url(#clip-path-5)">
            <path id="Trazado_717341" data-name="Trazado 717341" d="M38.81,331.11c5.913,7.718,17.046,18.95,37,29.722C111.02,379.865,133.3,411.49,133.3,411.49L153.787,346.2s-9.11-.662-21.929-9.779c-10.494-.286-32.25,6.838-43.361,17.573C88.46,354.009,62.792,340.995,38.81,331.11Z" transform="translate(-32.814 -254.416)" fill="#ffa031" opacity="0.4"/>
            <path id="Trazado_717342" data-name="Trazado 717342" d="M128.85,349.79s12.525,10.818,19.559,11.171" transform="translate(-55.12 -259.044)" fill="none" stroke="#263238" stroke-linecap="round" stroke-linejoin="round" stroke-width="1"/>
            <path id="Trazado_717343" data-name="Trazado 717343" d="M80,366.46c8.929,4.341,22.026,9.193,26.788,11.675" transform="translate(-43.018 -263.173)" fill="none" stroke="#263238" stroke-linecap="round" stroke-linejoin="round" stroke-width="1"/>
            <path id="Trazado_717344" data-name="Trazado 717344" d="M125.52,298.65a94.977,94.977,0,0,0,8.538,14.293" transform="translate(-54.295 -246.375)" fill="none" stroke="#263238" stroke-linecap="round" stroke-linejoin="round" stroke-width="1"/>
          </g>
          <path id="Trazado_717346" data-name="Trazado 717346" d="M30.84,296.074a43.524,43.524,0,0,0,6.018,9.78c5.89,7.718,17.024,18.95,36.982,29.722,35.206,19.032,57.488,50.658,57.488,50.658l20.484-65.289s-9.11-.662-21.929-9.78c-8.749-6.146-19.183-16.241-29.609-32.656C74.487,237.954,47.51,229.16,47.51,229.16" transform="translate(-30.84 -158.266)" fill="none" stroke="#263238" stroke-linecap="round" stroke-linejoin="round" stroke-width="1"/>
          <path id="Trazado_717347" data-name="Trazado 717347" d="M425.767,288.069a43.524,43.524,0,0,1-6.018,9.78c-5.913,7.718-17.046,18.95-36.967,29.722-35.206,19.032-57.488,50.658-57.488,50.658L304.81,312.939s9.11-.662,21.929-9.78c8.711-6.184,19.138-16.257,29.572-32.671,25.788-40.555,52.772-49.349,52.772-49.349" transform="translate(-98.711 -156.279)" fill="#fff"/>
          <g id="Grupo_1004498" data-name="Grupo 1004498" transform="translate(206.099 64.861)" clip-path="url(#clip-path-6)">
            <path id="Trazado_717348" data-name="Trazado 717348" d="M419.779,323.11c-5.913,7.718-17.046,18.95-36.967,29.722-35.206,19.032-57.488,50.658-57.488,50.658L304.84,338.2s9.11-.662,21.929-9.779c10.494-.286,29.173,4.559,38.539,19.559C365.307,347.988,395.8,332.995,419.779,323.11Z" transform="translate(-304.817 -246.401)" fill="#ffa031" opacity="0.4"/>
            <path id="Trazado_717349" data-name="Trazado 717349" d="M343.211,326.78s-6.116,9.937-21.921,16.174" transform="translate(-308.893 -247.31)" fill="none" stroke="#263238" stroke-linecap="round" stroke-linejoin="round" stroke-width="1"/>
            <path id="Trazado_717350" data-name="Trazado 717350" d="M405.972,360.53C402.21,362.1,386.623,367,383.05,369.5" transform="translate(-324.192 -255.671)" fill="none" stroke="#263238" stroke-linecap="round" stroke-linejoin="round" stroke-width="1"/>
            <path id="Trazado_717351" data-name="Trazado 717351" d="M373.56,289.907s3.558-12.789,8.771-20.537" transform="translate(-321.841 -233.088)" fill="none" stroke="#263238" stroke-linecap="round" stroke-linejoin="round" stroke-width="1"/>
          </g>
          <path id="Trazado_717353" data-name="Trazado 717353" d="M425.767,288.069a43.524,43.524,0,0,1-6.018,9.78c-5.913,7.718-17.046,18.95-36.967,29.722-35.206,19.032-57.488,50.658-57.488,50.658L304.81,312.939s9.11-.662,21.929-9.78c8.711-6.184,19.138-16.257,29.572-32.671,25.788-40.555,52.772-49.349,52.772-49.349" transform="translate(-98.711 -156.279)" fill="none" stroke="#263238" stroke-linecap="round" stroke-linejoin="round" stroke-width="1"/>
          <path id="Trazado_717354" data-name="Trazado 717354" d="M192.774,363.874l-21.989,2.64s-15.354,4.679-19.063,8.012-8.583,12.27-8.583,12.27-5.4,1.023-8.17,0a2.325,2.325,0,0,1-1.452-1.181,11.577,11.577,0,0,1-.752-2.618,34.252,34.252,0,0,1-.12-8.493s-3.611-5.161-3.761-7.274.617-10.825,2.8-13.263a2.09,2.09,0,0,1,.293-.286c2.407-1.926,16.144-8.034,16.144-8.034s3.092-4.642,10.652-6.018,23.877,3.438,23.877,3.438l2.37,4.86Z" transform="translate(-55.124 -185.571)" fill="#fff"/>
          <path id="Trazado_717355" data-name="Trazado 717355" d="M132.786,387.83a34.251,34.251,0,0,1-.12-8.493s-3.611-5.161-3.761-7.274.617-10.825,2.8-13.263c-2.528,5.04-2.024,12.721,1.5,10.276,4.3-3.009,8.726,3.114,8.726,3.114C137.247,374.62,133.816,382.9,132.786,387.83Z" transform="translate(-55.129 -190.382)" fill="#ffa031" opacity="0.4"/>
          <path id="Trazado_717356" data-name="Trazado 717356" d="M194.784,366.678l-21.989,2.64S157.442,374,153.733,377.33s-8.583,12.27-8.583,12.27-5.4,1.023-8.17,0c2.543-.752,6.229-3.611,6.928-7.44.993-5.446,10.163-10.351,9.817-14.571s-7.38-11.1-7.38-11.1c4.122-.9,7.839,1.67,7.839,1.67a23.644,23.644,0,0,0-5.6-4.92c8.072-.873,9.622,4.837,9.622,4.837,2.257.5,7.523-1.587,7.523-1.587A11.329,11.329,0,0,1,167.4,350.7l2.618,4.1c2.851,0,12.42-2.723,16.971-4.07Z" transform="translate(-57.134 -188.375)" fill="#ffa031" opacity="0.4"/>
          <path id="Trazado_717357" data-name="Trazado 717357" d="M133.514,385.655c1.181,2.746,9.614,1.159,9.614,1.159s4.882-8.944,8.591-12.277,19.063-8.019,19.063-8.019l21.989-2.633L182.638,343.1s-16.317-4.807-23.877-3.43-10.652,6.018-10.652,6.018-13.736,6.1-16.144,8.034-3.265,11.427-3.092,13.541,3.761,7.274,3.761,7.274S131.792,381.66,133.514,385.655Z" transform="translate(-55.12 -185.581)" fill="none" stroke="#263238" stroke-linecap="round" stroke-linejoin="round" stroke-width="1"/>
          <path id="Trazado_717358" data-name="Trazado 717358" d="M135.475,392.549s1.377-7.726,7.906-10.532c0,0,.685-4.6-1.031-6.725s-6.7,2-6.876,6.725S135.475,392.549,135.475,392.549Z" transform="translate(-56.742 -194.326)" fill="none" stroke="#263238" stroke-linecap="round" stroke-linejoin="round" stroke-width="1"/>
          <path id="Trazado_717359" data-name="Trazado 717359" d="M154.45,360.53s11.457,5.146,5.469,17.942" transform="translate(-61.462 -190.81)" fill="none" stroke="#263238" stroke-linecap="round" stroke-linejoin="round" stroke-width="1"/>
          <path id="Trazado_717360" data-name="Trazado 717360" d="M159.85,357.33s9.734,8.4,2.58,18.965" transform="translate(-62.8 -190.018)" fill="none" stroke="#263238" stroke-linecap="round" stroke-linejoin="round" stroke-width="1"/>
          <path id="Trazado_717361" data-name="Trazado 717361" d="M177.325,355.06a38.3,38.3,0,0,0,0,11.194" transform="translate(-67.027 -189.455)" fill="none" stroke="#263238" stroke-linecap="round" stroke-linejoin="round" stroke-width="1"/>
          <path id="Trazado_717362" data-name="Trazado 717362" d="M138.028,372.46s-2.061.985-3.438,6.139" transform="translate(-56.542 -193.766)" fill="none" stroke="#263238" stroke-linecap="round" stroke-linejoin="round" stroke-width="1"/>
          <path id="Trazado_717363" data-name="Trazado 717363" d="M135.4,360.53s-2.919.4-4.461,6.176" transform="translate(-55.638 -190.81)" fill="none" stroke="#263238" stroke-linecap="round" stroke-linejoin="round" stroke-width="1"/>
          <path id="Trazado_717364" data-name="Trazado 717364" d="M341.248,362.216A11.363,11.363,0,0,0,337.569,367s.451,5.868,0,7.41-3.716,4.468-6.3,2.836-3.9-7.643-10.584-10.246L278.9,350.36a26.217,26.217,0,0,1,5.025-5.334,40.933,40.933,0,0,1,10.208-6.169c10.863-4.642,24.073-7.56,30.535-5.5,3.626,1.166,8,5.221,11.367,9.215a33.006,33.006,0,0,1,5.213,7.786C342.617,354.144,343.67,360.666,341.248,362.216Z" transform="translate(-92.292 -183.913)" fill="#fff"/>
          <path id="Trazado_717365" data-name="Trazado 717365" d="M341.248,364.315a11.363,11.363,0,0,0-3.679,4.784s.451,5.868,0,7.41-3.716,4.468-6.3,2.836-3.9-7.643-10.584-10.246L278.9,352.459a26.217,26.217,0,0,1,5.025-5.334c5.725,0,13.263.542,19.439,3.1,0,0-.421-4.642,1.986-4.115,0,0-.609-4.694,1.986-4.927s1.986,1.5,1.986,1.5,0,4.732,2.1,5.687.865-5.574,4.9-6.485c0,0,.226,7.357,2.588,9.742,0,0-2.686,7.756.978,11.6s10.532,8.425,12.036,8.275-4.047-6.846-4.047-6.846.105-6.823,4.318-8.162,7.876,2.091,7.876,2.091a49,49,0,0,0-4-13.917,33.006,33.006,0,0,1,5.213,7.786C342.617,356.243,343.67,362.766,341.248,364.315Z" transform="translate(-92.292 -186.012)" fill="#ffa031" opacity="0.4"/>
          <path id="Trazado_717366" data-name="Trazado 717366" d="M278.89,350.36s4.371-6.868,15.241-11.5,24.073-7.56,30.535-5.5,15.2,13.225,16.55,17,2.407,10.306,0,11.856a11.358,11.358,0,0,0-3.671,4.777s.451,5.875,0,7.417-3.716,4.468-6.289,2.836-3.912-7.643-10.592-10.253" transform="translate(-92.29 -183.913)" fill="none" stroke="#263238" stroke-linecap="round" stroke-linejoin="round" stroke-width="1"/>
          <path id="Trazado_717367" data-name="Trazado 717367" d="M344,370.3s.519-6.7,3.761-6.357,5.71,7.387,5.943,15.369C353.7,379.315,350.161,372.364,344,370.3Z" transform="translate(-108.419 -191.653)" fill="none" stroke="#263238" stroke-linecap="round" stroke-linejoin="round" stroke-width="1"/>
          <path id="Trazado_717368" data-name="Trazado 717368" d="M329.521,369.935s-3.761-12.081,4.288-16.715" transform="translate(-104.615 -189)" fill="none" stroke="#263238" stroke-linecap="round" stroke-linejoin="round" stroke-width="1"/>
          <path id="Trazado_717369" data-name="Trazado 717369" d="M324.369,344.31s-3.114,10.366,0,16.174c0,0-7.357-5.522-12.939-3.122" transform="translate(-100.351 -186.792)" fill="none" stroke="#263238" stroke-linecap="round" stroke-linejoin="round" stroke-width="1"/>
          <path id="Trazado_717370" data-name="Trazado 717370" d="M319.074,357a25.868,25.868,0,0,1-.888-6.266c.173-2.227-2.806-4.815-1.663-7.56" transform="translate(-101.548 -186.51)" fill="none" stroke="#263238" stroke-linecap="round" stroke-linejoin="round" stroke-width="1"/>
          <path id="Trazado_717371" data-name="Trazado 717371" d="M314.05,349.79s2.46,5.6,3.98,6.492" transform="translate(-101 -188.15)" fill="none" stroke="#263238" stroke-linecap="round" stroke-linejoin="round" stroke-width="1"/>
          <path id="Trazado_717372" data-name="Trazado 717372" d="M321.29,367.17s3.1-1.369,5.529,0" transform="translate(-102.793 -192.305)" fill="none" stroke="#263238" stroke-linecap="round" stroke-linejoin="round" stroke-width="1"/>
          <path id="Trazado_717373" data-name="Trazado 717373" d="M353.1,354.109s4.98-.421,6.184,9.674" transform="translate(-110.674 -189.219)" fill="none" stroke="#263238" stroke-linecap="round" stroke-linejoin="round" stroke-width="1"/>
          <path id="Trazado_717374" data-name="Trazado 717374" d="M253.794,234.082s-11.984-6.906-2.167-31.859,39.329-32.521,46-40.043C297.629,162.18,294.936,238.814,253.794,234.082Z" transform="translate(-84.578 -141.673)" fill="#ffa031"/>
          <g id="Grupo_1004499" data-name="Grupo 1004499" transform="translate(163.184 20.507)" clip-path="url(#clip-path-7)">
            <path id="Trazado_717375" data-name="Trazado 717375" d="M292.4,171.7c-3.37,6.4-13.744,14.481-25.141,33.92a177.473,177.473,0,0,0-13.857,30.55c-1.813-1.339-9.148-8.109-3.6-26.329.218,6.47,2.513,10.1,2.513,10.1C251.6,194.78,292.4,171.7,292.4,171.7Z" transform="translate(-247.764 -164.538)" fill="rgba(0,0,0,0.7)" opacity="0.3"/>
          </g>
          <path id="Trazado_717377" data-name="Trazado 717377" d="M253.794,234.082s-11.984-6.906-2.167-31.859,39.329-32.521,46-40.043C297.629,162.18,294.936,238.814,253.794,234.082Z" transform="translate(-84.578 -141.673)" fill="none" stroke="#263238" stroke-linecap="round" stroke-linejoin="round" stroke-width="1"/>
          <path id="Trazado_717378" data-name="Trazado 717378" d="M257.117,216.79s-1.866,13.338,2.422,22.026l2.144-5.559s14.88-.4,22.613-9.922" transform="translate(-86.796 -155.202)" fill="none" stroke="#263238" stroke-linecap="round" stroke-linejoin="round" stroke-width="1"/>
          <path id="Trazado_717379" data-name="Trazado 717379" d="M267.462,201.76s-3.378,12.5-.993,21.229l.993-4.363s18.649-4.83,22.613-10.584" transform="translate(-89.001 -151.478)" fill="none" stroke="#263238" stroke-linecap="round" stroke-linejoin="round" stroke-width="1"/>
          <path id="Trazado_717380" data-name="Trazado 717380" d="M279.458,191s-4.514,9.321-4.408,17.061l2.2-3.761s15.753-3.009,18.536-7.936" transform="translate(-91.338 -148.813)" fill="none" stroke="#263238" stroke-linecap="round" stroke-linejoin="round" stroke-width="1"/>
          <path id="Trazado_717381" data-name="Trazado 717381" d="M291.012,180.3c-3.287,4.514-7.192,14.707-7.192,14.707l3.6-4.092s8.892-2.317,12.217-6.658" transform="translate(-93.511 -146.162)" fill="none" stroke="#263238" stroke-linecap="round" stroke-linejoin="round" stroke-width="1"/>
          <path id="Trazado_717382" data-name="Trazado 717382" d="M236.79,304.374s5.115-90.092,48.529-124.124c0,0-40.277,33.273-42.353,124.124Z" transform="translate(-81.86 -146.15)" fill="#ffa031"/>
          <g id="Grupo_1004500" data-name="Grupo 1004500" transform="translate(154.93 34.1)" clip-path="url(#clip-path-8)">
            <path id="Trazado_717383" data-name="Trazado 717383" d="M236.79,304.374s5.115-90.092,48.529-124.124c0,0-40.277,33.273-42.353,124.124Z" transform="translate(-236.79 -180.25)" fill="rgba(0,0,0,0.7)" opacity="0.3"/>
          </g>
          <path id="Trazado_717385" data-name="Trazado 717385" d="M236.79,304.374s5.115-90.092,48.529-124.124c0,0-40.277,33.273-42.353,124.124Z" transform="translate(-81.86 -146.15)" fill="none" stroke="#263238" stroke-linecap="round" stroke-linejoin="round" stroke-width="1"/>
          <path id="Trazado_717386" data-name="Trazado 717386" d="M218.478,199.232s10.72-6.176,1.933-28.5-35.176-29.09-41.142-35.816C179.27,134.92,181.677,203.437,218.478,199.232Z" transform="translate(-67.611 -134.92)" fill="#ffa031"/>
          <g id="Grupo_1004501" data-name="Grupo 1004501" transform="translate(111.659)" clip-path="url(#clip-path-9)">
            <path id="Trazado_717387" data-name="Trazado 717387" d="M221.678,172.5a23.628,23.628,0,0,0-1.693-3.483c-1.347-2.257,2.046,4.431,2.114,9.832a8.937,8.937,0,0,1-3.152,7.139c-.677-3.536-1.046-7.244-2.738-10.426-8.621-16.279-28.752-31.031-31.949-33.461.346.436,11.367,14.293,17.889,22.267,3.5,4.3,5.823,9.712,8.125,14.7,2.919,6.342,5.537,12.789,8.132,19.288.361.91.752,1.813,1.091,2.716,2.919-1.82,4.514-5.206,5.191-8.583,1.113-5.77-.211-11.735-2.054-17.3C222.34,174.275,222.031,173.379,221.678,172.5Z" transform="translate(-180.506 -136.699)" fill="rgba(0,0,0,0.7)" opacity="0.3"/>
          </g>
          <path id="Trazado_717389" data-name="Trazado 717389" d="M218.478,199.232s10.72-6.176,1.933-28.5-35.176-29.09-41.142-35.816C179.27,134.92,181.677,203.437,218.478,199.232Z" transform="translate(-67.611 -134.92)" fill="none" stroke="#263238" stroke-linecap="round" stroke-linejoin="round" stroke-width="1"/>
          <path id="Trazado_717390" data-name="Trazado 717390" d="M222.063,183.77s1.67,11.923-2.167,19.694l-1.918-4.973s-13.308-.354-20.229-8.869" transform="translate(-72.189 -147.022)" fill="none" stroke="#263238" stroke-linecap="round" stroke-linejoin="round" stroke-width="1"/>
          <path id="Trazado_717391" data-name="Trazado 717391" d="M213.739,170.32s3.009,11.179.888,18.987l-.888-3.9s-16.685-4.318-20.229-9.464" transform="translate(-71.138 -143.69)" fill="none" stroke="#263238" stroke-linecap="round" stroke-linejoin="round" stroke-width="1"/>
          <path id="Trazado_717392" data-name="Trazado 717392" d="M204.109,160.65s4.032,8.343,3.942,15.264l-1.971-3.378s-14.09-2.663-16.55-7.094" transform="translate(-70.152 -141.294)" fill="none" stroke="#263238" stroke-linecap="round" stroke-linejoin="round" stroke-width="1"/>
          <path id="Trazado_717393" data-name="Trazado 717393" d="M195.206,151.12c2.949,4.07,6.439,13.157,6.439,13.157l-3.242-3.656s-7.951-2.076-10.923-5.958" transform="translate(-69.644 -138.933)" fill="none" stroke="#263238" stroke-linecap="round" stroke-linejoin="round" stroke-width="1"/>
          <path id="Trazado_717394" data-name="Trazado 717394" d="M232.3,258.444s-2.783-76.927-41.608-107.394c0,0,37.38,33.484,37.929,119.648,0,0,1.219.241,1.873-1.745" transform="translate(-70.44 -138.916)" fill="#ffa031"/>
          <g id="Grupo_1004502" data-name="Grupo 1004502" transform="translate(120.25 12.134)" clip-path="url(#clip-path-10)">
            <path id="Trazado_717395" data-name="Trazado 717395" d="M232.3,258.444s-2.783-76.927-41.608-107.394c0,0,37.38,33.484,37.929,119.648,0,0,1.219.241,1.873-1.745" transform="translate(-190.69 -151.05)" fill="rgba(0,0,0,0.7)" opacity="0.3"/>
          </g>
          <path id="Trazado_717397" data-name="Trazado 717397" d="M232.3,258.444s-2.783-76.927-41.608-107.394c0,0,37.38,33.484,37.929,119.648,0,0,1.219.241,1.873-1.745" transform="translate(-70.44 -138.916)" fill="none" stroke="#263238" stroke-linecap="round" stroke-linejoin="round" stroke-width="1"/>
          <path id="Trazado_717398" data-name="Trazado 717398" d="M162.171,370.5s-2.588-2.046,0-8.44c1.986-4.9,8.448-4.657,8.8-9.78,2.648.331,4.762-1.422,6.131-3.566s2.475-4.717,4.762-5.845c.752-.346,1.5-.534,2.2-.9,2.716-1.444,3.656-5.349,6.59-6.236,1.73-.527,3.761.188,5.349-.617s2.37-3.009,4.092-3.761a16.557,16.557,0,0,1,2.257-.519c3.047-.8,5.01-4.514,8.162-4.431.91.038,1.888.406,2.7,0,.639-.316,1.023-1.046,1.685-1.3a3.2,3.2,0,0,1,1.723.068,9.1,9.1,0,0,0,5.266-.436c1.5-.685,1.851-2.678,2.768-3.129,3.648-1.8,7.741,5.206,9.855,6.958,1.234,1.031,2.625-1.6,4.228-1.542,1.459.06,2.2,2.317,3.649,2.136-.67.527-.286,1.693.451,2.121a6.123,6.123,0,0,0,2.49.474,14.8,14.8,0,0,1,5.755,2.37,2.323,2.323,0,0,1,.827.67c.218.331.263.752.489,1.076.474.67,1.572.752,1.926,1.459a5.041,5.041,0,0,1,.2,1.174c.233,1.113,1.55,1.617,2.686,1.7s2.355-.053,3.325.549a12.163,12.163,0,0,1,1.82,1.858c2.257,2.189,4.875,2.069,6.959,4.837,2.182,2.9,3.656,6.063,6.77,8.155,5.266,3.543,6.77,8.538,8.207,13.18s-18.972,16.2-60.182,19.153S161.63,373.631,162.171,370.5Z" transform="translate(-63.09 -181.095)" fill="#263238"/>
          <path id="Trazado_717399" data-name="Trazado 717399" d="M213.66,342.966c.918.241,2.257.181,2.37-.752a1.964,1.964,0,0,1,.045-.632c.241-.557,1.1-.128,1.693-.263.444-.105.715-.542,1.038-.858a2.407,2.407,0,0,1,3.077-.15c.519.421.865,1.068,1.459,1.369,1.113.557,2.941-.068,3.355,1.1" transform="translate(-76.13 -185.682)" fill="none" stroke="#fff" stroke-linecap="round" stroke-linejoin="round" stroke-width="1" opacity="0.4"/>
          <path id="Trazado_717400" data-name="Trazado 717400" d="M234.75,350.319a2.031,2.031,0,0,0,3.009-1.031c.083-.3.113-.654.369-.843.391-.278.918.1,1.4.143.955.1,1.5-1.016,2.129-1.73a3.2,3.2,0,0,1,5.446,1.211l5.672,1.5" transform="translate(-81.355 -187.159)" fill="none" stroke="#fff" stroke-linecap="round" stroke-linejoin="round" stroke-width="1" opacity="0.4"/>
          <path id="Trazado_717401" data-name="Trazado 717401" d="M247.65,334.938a9.1,9.1,0,0,1,3.009-.429,1.61,1.61,0,0,1,2.347-1.986,2.294,2.294,0,0,1,3.423.376l.226.948a12.435,12.435,0,0,1,4.055,2.257" transform="translate(-84.55 -183.724)" fill="none" stroke="#fff" stroke-linecap="round" stroke-linejoin="round" stroke-width="1" opacity="0.4"/>
          <path id="Trazado_717402" data-name="Trazado 717402" d="M268.58,344.3l1.5.444c-.248-.391.218-.873.677-.963a3.957,3.957,0,0,0,1.347-.233c.451-.271.587-.843.88-1.279s1.031-.685,1.279-.226c-.06-.481.474-.873.963-.858a2.6,2.6,0,0,1,1.332.587l3.852,2.678" transform="translate(-89.735 -186.019)" fill="none" stroke="#fff" stroke-linecap="round" stroke-linejoin="round" stroke-width="1" opacity="0.4"/>
          <path id="Trazado_717403" data-name="Trazado 717403" d="M144.863,387.969s4.356-7.7,10.08-12.27,9.847-10.449,14.887-16.678,12.367-14.128,16.031-14.76,11.908.549,12.826,8.087c0,0,5.6-6.77,13.451-2.031s3.949,13.7,3.949,13.7,2.859-1.143,4.634,0,6.831,61.769,6.831,61.769a60.252,60.252,0,0,0-8.486,2.814c-4.348,1.828-9.847,2.061-13.541,0,0,0-6.868,1.775-11.45,1.459s-16.949-.542-21.3-1.693a88.013,88.013,0,0,1-13.94-5.349,20.545,20.545,0,0,1-7.794-7.891c-1.369-2.783-3.889-3.694-7.786-8.388S144.863,387.969,144.863,387.969Z" transform="translate(-58.344 -186.744)" fill="#fff"/>
          <path id="Trazado_717404" data-name="Trazado 717404" d="M220.729,366.061c-1.715-1.1-4.438-.075-4.626,0a13.541,13.541,0,0,0,.752-2.648l-4.7,9.907s-7.274,9.464-9.877,13.706-.376,4.687-3.573,11.442-7.876,19.679-12.826,20.725-15.467-2.55-17.423-7.613,2.761-8.636,8.546-15.971,8.185-10.08,7.726-13.481,11.284-23.892,12.036-25.141c-.308.406-2.121,2.836-4.393,5.838a43.824,43.824,0,0,0,2.618-5.9l-10.825-4.559s-10.645,11.329-4.92,15.662c3.144,2.385,6.259,2.422,9.155,0-2.257,2.956-4.476,5.7-5.717,7.056-3.438,3.761-4.13,7.936-5.672,10.4s-7.666,12.713-12.947,16.415-8.4,4.717-12.706,2.4c-2.934-1.587-4.754-10.3-5.627-15.662-.549.865-.843,1.392-.843,1.392S139.393,404.1,143.29,408.8s6.409,5.6,7.778,8.388a20.7,20.7,0,0,0,7.771,7.876,89.1,89.1,0,0,0,13.977,5.356c4.348,1.136,16.715,1.369,21.3,1.685s11.45-1.459,11.45-1.459c3.664,2.061,9.155,1.836,13.541,0a63.019,63.019,0,0,1,7.726-2.625c.241-.308.466-.632.707-.955C226.912,420.059,222.391,367.137,220.729,366.061Z" transform="translate(-58.351 -188.789)" fill="#ffa031" opacity="0.4"/>
          <path id="Trazado_717405" data-name="Trazado 717405" d="M220.514,358.42s-10.908,12.631-3.385,18.145,15.67-5,16.023-13.7Z" transform="translate(-76.334 -190.288)" fill="#ffa031" opacity="0.4"/>
          <path id="Trazado_717406" data-name="Trazado 717406" d="M227.563,425.785l-.752.188a63,63,0,0,0-7.726,2.625c-4.356,1.836-9.847,2.061-13.541,0,0,0-6.868,1.783-11.45,1.459s-16.949-.549-21.3-1.685a89.109,89.109,0,0,1-13.962-5.356,20.7,20.7,0,0,1-7.786-7.9c-1.369-2.783-3.889-3.686-7.778-8.388s1.595-18.762,1.595-18.762.293-.527.843-1.392a45.484,45.484,0,0,1,9.238-10.878c5.725-4.589,9.847-10.449,14.887-16.678s12.367-14.128,16.031-14.76,11.908.549,12.826,8.087c0,0,5.6-6.77,13.451-2.031,5.138,3.122,5.266,8.034,4.7,11.043a13.542,13.542,0,0,1-.752,2.648c.188-.068,2.911-1.091,4.626,0s6.184,54,6.77,61C227.533,425.514,227.563,425.785,227.563,425.785Z" transform="translate(-58.347 -186.744)" fill="none" stroke="#263238" stroke-linecap="round" stroke-linejoin="round" stroke-width="1"/>
          <path id="Trazado_717407" data-name="Trazado 717407" d="M203.118,355.06c-2.52,2.046-16.264,27.984-18.807,31.076s-9.622,11.9-12.713,15.143a38.027,38.027,0,0,0-5.5,8.162,53.957,53.957,0,0,1-6.349,5.461" transform="translate(-62.775 -189.455)" fill="none" stroke="#263238" stroke-linecap="round" stroke-linejoin="round" stroke-width="1"/>
          <path id="Trazado_717408" data-name="Trazado 717408" d="M228.084,370.57a114.175,114.175,0,0,0-6.018,11.683c-2.257,5.319-8.7,18.89-11.389,24.073s-6.989,17-10.08,18.9-7.56,6.184-10.306,5.838" transform="translate(-70.341 -193.298)" fill="none" stroke="#263238" stroke-linecap="round" stroke-linejoin="round" stroke-width="1"/>
          <path id="Trazado_717409" data-name="Trazado 717409" d="M193.39,452.316s-.752-1.685,0-2.076" transform="translate(-71.026 -213.034)" fill="none" stroke="#263238" stroke-linecap="round" stroke-linejoin="round" stroke-width="1"/>
          <path id="Trazado_717410" data-name="Trazado 717410" d="M229.1,438.092s6.191-5.92,7.049-10.246,13.014-38.366,13.014-38.366" transform="translate(-79.955 -197.982)" fill="none" stroke="#263238" stroke-linecap="round" stroke-linejoin="round" stroke-width="1"/>
          <path id="Trazado_717411" data-name="Trazado 717411" d="M196.618,352.356s7.049-.459,10.825,4.559c0,0-5.672,14.12-12.54,10.532S196.618,352.356,196.618,352.356Z" transform="translate(-70.824 -188.783)" fill="#fff" stroke="#263238" stroke-linecap="round" stroke-linejoin="round" stroke-width="1"/>
          <path id="Trazado_717412" data-name="Trazado 717412" d="M220.952,358.419a20.446,20.446,0,0,1,12.638,4.446s-3.709,15.858-12.638,13.451S218.025,363.535,220.952,358.419Z" transform="translate(-76.772 -190.287)" fill="#fff" stroke="#263238" stroke-linecap="round" stroke-linejoin="round" stroke-width="1"/>
          <path id="Trazado_717413" data-name="Trazado 717413" d="M241.672,376.43s-3.957,5.958-3.438,10.306,6.349,3.543,6.349,3.543" transform="translate(-82.206 -194.749)" fill="none" stroke="#263238" stroke-linecap="round" stroke-linejoin="round" stroke-width="1"/>
          <path id="Trazado_717414" data-name="Trazado 717414" d="M203.54,396.37s4.86,3.6,9.561,4.551" transform="translate(-73.623 -199.689)" fill="none" stroke="#263238" stroke-linecap="round" stroke-linejoin="round" stroke-width="1"/>
          <path id="Trazado_717415" data-name="Trazado 717415" d="M149.43,405.05s.692,8.275,2.407,11.164,13.263,2.746,13.263,2.746" transform="translate(-60.218 -201.839)" fill="none" stroke="#263238" stroke-linecap="round" stroke-linejoin="round" stroke-width="1"/>
          <path id="Trazado_717416" data-name="Trazado 717416" d="M174.09,431.07a18.055,18.055,0,0,0,8.418,7.621c6.018,2.686,10.186,1.5,10.186,1.5" transform="translate(-66.327 -208.285)" fill="none" stroke="#263238" stroke-linecap="round" stroke-linejoin="round" stroke-width="1"/>
          <path id="Trazado_717417" data-name="Trazado 717417" d="M212.45,447.05s9.1,4.175,14.6.888" transform="translate(-75.83 -212.244)" fill="none" stroke="#263238" stroke-linecap="round" stroke-linejoin="round" stroke-width="1"/>
          <path id="Trazado_717418" data-name="Trazado 717418" d="M178.66,378.29s1.941,4.514,5.868,5.552" transform="translate(-67.46 -195.21)" fill="none" stroke="#263238" stroke-linecap="round" stroke-linejoin="round" stroke-width="1"/>
          <path id="Trazado_717419" data-name="Trazado 717419" d="M229.1,416.5a11.164,11.164,0,0,0,6.838,2.55" transform="translate(-79.955 -204.676)" fill="none" stroke="#263238" stroke-linecap="round" stroke-linejoin="round" stroke-width="1"/>
          <path id="Trazado_717420" data-name="Trazado 717420" d="M316.024,405.155s-5.5,9.96-11.337,12.713-10.652,1.723-14.082,3.761-9.275,3.092-17.174,4.469-15.858,3.092-21.5,2.061a19.914,19.914,0,0,1-5.6-1.971,41.052,41.052,0,0,1-10.186-7.959c-2.806-2.881-2.565-7.523-.677-10.652a6.341,6.341,0,0,1,3.942-3.122s-1.888-1.5-4.017-3.408c-2.309-2.061-4.882-4.6-5.589-6.214-1.384-3.092-1.038-8.583,3.761-13.4a13.864,13.864,0,0,1,10.645-4.115s-7.357-6.018-4.468-13.059c1.046-2.543,2.911-5.905,8.591-6.868,8.132-1.377,12.713,3.265,12.713,3.265s-1.286-8.064,6.913-9.78,26.074,11.337,29.519,13.059c2.475,1.234,6.357,4.062,10.005,6.312l.873.542c1.008.6,1.993,1.151,2.9,1.587,4.25,3.092,5.537,7.974,7.681,9.336a3.648,3.648,0,0,0,3.912-.211c.143.218.278.429.391.632C324.954,385.228,329.076,398.325,316.024,405.155Z" transform="translate(-79.955 -188.381)" fill="#fff"/>
          <path id="Trazado_717421" data-name="Trazado 717421" d="M318.088,411.283s-5.5,9.96-11.337,12.713-10.652,1.723-14.082,3.761-9.275,3.092-17.174,4.468-15.858,3.092-21.5,2.061a19.912,19.912,0,0,1-5.6-1.971c4.265-.323,7.523-2.46,9.027-5.665,1.888-3.972-3.724-4.273-5.07-1.76s-9.411,1.61-7.989,0-1.422-9.847-2.919-10.953c-.639-.489-2.257-.444-3.942-.233a6.342,6.342,0,0,1,3.942-3.122s-1.888-1.5-4.017-3.408L242.7,410.3s11.284,9.78,17.445,14.594,17.844,3.671,20.913,0-10.855-15.106-15.2-18.581c-4.213-3.355-6.071-8.975-6.176-9.321.369.346,11.766,11.382,18.054,18.747,6.424,7.523,13.12,5.266,20.394,1.873s3.2-13.1.88-15.406S286.44,391,284.831,388.3s-12.789-12.239-13.541-12.841c.752.5,13.127,8.508,14.9,10.532s6.417,5.266,13.308,10.186,12.119,10.63,17.212,0c3.5-7.312-2.9-15.444-7.229-19.815l.873.542c1.008.6,1.994,1.151,2.9,1.587,4.25,3.092,5.537,7.974,7.681,9.336a3.648,3.648,0,0,0,3.912-.211c.143.218.278.429.391.632C327.018,391.355,331.14,404.452,318.088,411.283Z" transform="translate(-82.019 -194.509)" fill="#ffa031" opacity="0.4"/>
          <path id="Trazado_717422" data-name="Trazado 717422" d="M252,378.04a16.55,16.55,0,0,1,11.164-9.78s8.418,5.838,8.418,10.645-3.242,8.531-9.26,6.673S252,378.04,252,378.04Z" transform="translate(-85.628 -192.725)" fill="#ffa031" opacity="0.4"/>
          <path id="Trazado_717423" data-name="Trazado 717423" d="M278.89,363.178a18.089,18.089,0,0,1,8.764-5.838s11.081,8.418,6.913,12.879S280.605,369.015,278.89,363.178Z" transform="translate(-92.29 -190.02)" fill="#ffa031" opacity="0.4"/>
          <path id="Trazado_717424" data-name="Trazado 717424" d="M236.79,406.368s4.243-6.635,10.479-8.418c0,0,12.886,7.274,6.357,13S238.34,409.46,236.79,406.368Z" transform="translate(-81.86 -200.081)" fill="#ffa031" opacity="0.4"/>
          <path id="Trazado_717425" data-name="Trazado 717425" d="M316.022,405.155s-5.5,9.96-11.337,12.713-10.652,1.723-14.083,3.761-9.275,3.092-17.174,4.469-15.858,3.092-21.5,2.061-10.961-4.988-15.8-9.93c-4.228-4.348-1.542-12.736,3.265-13.774,0,0-8.237-6.53-9.606-9.622s-1.038-8.583,3.761-13.4a13.864,13.864,0,0,1,10.645-4.115s-7.357-6.018-4.469-13.059c1.046-2.543,2.911-5.905,8.591-6.868,8.132-1.377,12.713,3.265,12.713,3.265s-1.286-8.064,6.913-9.78,26.089,11.337,29.534,13.059c2.671,1.339,7,4.514,10.878,6.853,1.008.6,1.993,1.151,2.9,1.587,4.25,3.092,5.537,7.974,7.681,9.336a3.649,3.649,0,0,0,3.912-.211c.143.218.278.429.391.632C324.951,385.228,329.074,398.325,316.022,405.155Z" transform="translate(-79.952 -188.381)" fill="none" stroke="#263238" stroke-linecap="round" stroke-linejoin="round" stroke-width="1"/>
          <path id="Trazado_717426" data-name="Trazado 717426" d="M271.58,364c1.151,2.648,11.6,12.036,16.114,14.79s17.1,16.49,20.763,18.31,6.868,7.56,11.216,8.937" transform="translate(-90.479 -191.67)" fill="none" stroke="#263238" stroke-linecap="round" stroke-linejoin="round" stroke-width="1"/>
          <path id="Trazado_717427" data-name="Trazado 717427" d="M249.21,386.1c6.3,5.266,13.4,14.2,16.828,16.715s11.224,11.224,14.662,15.572,5.725,7.327,19.236,9.163" transform="translate(-84.937 -197.145)" fill="none" stroke="#263238" stroke-linecap="round" stroke-linejoin="round" stroke-width="1"/>
          <path id="Trazado_717428" data-name="Trazado 717428" d="M318.541,423.54s-.91,8.275-13.541,9.847" transform="translate(-98.758 -206.42)" fill="none" stroke="#263238" stroke-linecap="round" stroke-linejoin="round" stroke-width="1"/>
          <path id="Trazado_717429" data-name="Trazado 717429" d="M341.242,391.92s3.43,9.817-5.732,13.481" transform="translate(-106.316 -198.587)" fill="none" stroke="#263238" stroke-linecap="round" stroke-linejoin="round" stroke-width="1"/>
          <path id="Trazado_717430" data-name="Trazado 717430" d="M242.82,422.17s8.884,7.44,12.51,9.5,8.44,7.56,12.1,8.7a13.737,13.737,0,0,0,7.327,0" transform="translate(-83.354 -206.081)" fill="none" stroke="#263238" stroke-linecap="round" stroke-linejoin="round" stroke-width="1"/>
          <path id="Trazado_717431" data-name="Trazado 717431" d="M296.686,435.81A13.789,13.789,0,0,1,293,439.865" transform="translate(-95.785 -209.46)" fill="none" stroke="#263238" stroke-linecap="round" stroke-linejoin="round" stroke-width="1"/>
          <path id="Trazado_717432" data-name="Trazado 717432" d="M249.21,376.25a16.5,16.5,0,0,1,11.164-9.779s8.418,5.838,8.418,10.652-3.25,8.523-9.268,6.665S249.21,376.25,249.21,376.25Z" transform="translate(-84.937 -192.282)" fill="#fff" stroke="#263238" stroke-linecap="round" stroke-linejoin="round" stroke-width="1"/>
          <path id="Trazado_717433" data-name="Trazado 717433" d="M277.06,362.075a18.132,18.132,0,0,1,8.764-5.845s11.088,8.418,6.913,12.886S278.783,367.875,277.06,362.075Z" transform="translate(-91.836 -189.745)" fill="#fff" stroke="#263238" stroke-linecap="round" stroke-linejoin="round" stroke-width="1"/>
          <path id="Trazado_717434" data-name="Trazado 717434" d="M235.28,404.788s4.235-6.643,10.479-8.418c0,0,12.879,7.274,6.357,13S236.83,407.88,235.28,404.788Z" transform="translate(-81.486 -199.689)" fill="#fff" stroke="#263238" stroke-linecap="round" stroke-linejoin="round" stroke-width="1"/>
          <path id="Trazado_717435" data-name="Trazado 717435" d="M239.3,434.008s5.973-1.211,7.44-6.658c0,0,6.108,4.717,2.588,8.388C244.152,441.147,239.3,434.008,239.3,434.008Z" transform="translate(-82.482 -207.364)" fill="#fff" stroke="#263238" stroke-linecap="round" stroke-linejoin="round" stroke-width="1"/>
          <path id="Trazado_717436" data-name="Trazado 717436" d="M308.8,386.285a7.839,7.839,0,0,0,3.949-5.665" transform="translate(-99.699 -195.787)" fill="none" stroke="#263238" stroke-linecap="round" stroke-linejoin="round" stroke-width="1"/>
          <path id="Trazado_717437" data-name="Trazado 717437" d="M291.571,396.37s-1.332,7.523-8.651,8.756" transform="translate(-93.288 -199.689)" fill="none" stroke="#263238" stroke-linecap="round" stroke-linejoin="round" stroke-width="1"/>
          <path id="Trazado_717438" data-name="Trazado 717438" d="M267.552,419.89s-3.009,4.356-7.432,5.612" transform="translate(-87.64 -205.516)" fill="none" stroke="#263238" stroke-linecap="round" stroke-linejoin="round" stroke-width="1"/>
          <path id="Trazado_717439" data-name="Trazado 717439" d="M271.97,445.52a11.683,11.683,0,0,1-4.95,4.077" transform="translate(-89.349 -211.865)" fill="none" stroke="#263238" stroke-linecap="round" stroke-linejoin="round" stroke-width="1"/>
          <path id="Trazado_717440" data-name="Trazado 717440" d="M280.532,447.05a3.867,3.867,0,0,1-.752,2.926" transform="translate(-92.51 -212.244)" fill="none" stroke="#263238" stroke-linecap="round" stroke-linejoin="round" stroke-width="1"/>
          <path id="Trazado_717441" data-name="Trazado 717441" d="M252.41,447.561a9.832,9.832,0,0,0,7.38-4.371" transform="translate(-85.73 -211.288)" fill="none" stroke="#263238" stroke-linecap="round" stroke-linejoin="round" stroke-width="1"/>
        </g>
      </g>
    </g>
  </g>
</svg>
