<svg xmlns="http://www.w3.org/2000/svg" xmlns:xlink="http://www.w3.org/1999/xlink" width="186.212" height="288" viewBox="0 0 186.212 288">
  <defs>
    <clipPath id="clip-path">
      <circle id="Elipse_8443" data-name="Elipse 8443" cx="93.097" cy="93.097" r="93.097" transform="translate(0 0)" fill="none"/>
    </clipPath>
  </defs>
  <g id="Grupo_1004442" data-name="Grupo 1004442" transform="translate(-130.166 -66.88)">
    <g id="Grupo_1004418" data-name="Grupo 1004418" transform="translate(130.166 66.88)">
      <g id="Grupo_1004403" data-name="Grupo 1004403" transform="translate(34.813)">
        <path id="Trazado_717042" data-name="Trazado 717042" d="M281.842,177.51a92.541,92.541,0,0,0-34.475-9.614l.17.189a31.337,31.337,0,0,0-3.385-.195l-3.231-.006-8.617-.017-3.23-.006q-1.454,0-2.87.125l.117-.13a92.336,92.336,0,0,0-36.252,10.391,24.077,24.077,0,0,0-12.3,21.625l.6,40.651,22.843,33.988a1.52,1.52,0,0,0,1.6,1.418l67.164.13a1.519,1.519,0,0,0,1.61-1.411l17.864-22.624,5.087-50.27C295.563,191.679,290.514,181.958,281.842,177.51Z" transform="translate(-177.77 -86.226)" fill="#f9bf3e"/>
        <g id="Grupo_1004402" data-name="Grupo 1004402" transform="translate(30.964)">
          <g id="Grupo_1004392" data-name="Grupo 1004392" transform="translate(3.164)">
            <path id="Trazado_717043" data-name="Trazado 717043" d="M262.448,83.679A14.583,14.583,0,0,0,237.381,71.5a12.1,12.1,0,0,0-15.862,16.628,10.917,10.917,0,0,0-1.491,5.487l-.042,21.657a10.988,10.988,0,0,0,10.967,11.01l26.923.053a10.988,10.988,0,0,0,11.01-10.967l.042-21.657A10.984,10.984,0,0,0,262.448,83.679Z" transform="translate(-219.986 -66.88)" fill="#373449"/>
          </g>
          <g id="Grupo_1004401" data-name="Grupo 1004401" transform="translate(0 23.533)">
            <g id="Grupo_1004393" data-name="Grupo 1004393">
              <path id="Trazado_717044" data-name="Trazado 717044" d="M264.637,113.773l-.867,0,.009-4.574a19.863,19.863,0,0,0-4.973-13.207,14.573,14.573,0,0,1-12.169,5.64,7.659,7.659,0,0,1-15.106-1.494,12.05,12.05,0,0,1-6.043-1.593,19.832,19.832,0,0,0-3.061,10.573l-.009,4.594c-3.526.2-6.338,3.584-6.346,7.745s2.791,7.551,6.315,7.769l-.007,3.749a19.917,19.917,0,0,0,9.732,17.155l-.036,18.647a11.6,11.6,0,1,0,23.207.045l.038-19.544a19.9,19.9,0,0,0,8.412-16.223l.007-3.728.866,0c3.687.006,6.682-3.469,6.691-7.765S268.323,113.78,264.637,113.773Z" transform="translate(-216.072 -95.99)" fill="#fbc4a9"/>
              <path id="Trazado_717045" data-name="Trazado 717045" d="M246.271,165.893a19.846,19.846,0,0,1-9.35-2.348l-.015,7.971,14.45-5.944a20.038,20.038,0,0,1-3.609.324Z" transform="translate(-220.064 -108.933)" fill="#ffa06e" opacity="0.58"/>
            </g>
            <g id="Grupo_1004400" data-name="Grupo 1004400" transform="translate(1.691 10.222)">
              <g id="Grupo_1004395" data-name="Grupo 1004395" transform="translate(10.629)">
                <g id="Grupo_1004394" data-name="Grupo 1004394">
                  <path id="Trazado_717046" data-name="Trazado 717046" d="M239.814,112.8a3.993,3.993,0,0,1-1.991.074c-.7-.087-1.414-.152-2.032-.183s-1.332-.038-2.041-.023a3.985,3.985,0,0,1-1.972-.275c-.52-.3-.7-1.087-.03-2.011a5.035,5.035,0,0,1,4.274-1.736,4.966,4.966,0,0,1,4.05,2.158C240.634,111.786,240.365,112.552,239.814,112.8Z" transform="translate(-231.312 -108.634)" fill="#373449"/>
                </g>
              </g>
              <g id="Grupo_1004397" data-name="Grupo 1004397" transform="translate(29.68 0.037)">
                <g id="Grupo_1004396" data-name="Grupo 1004396">
                  <path id="Trazado_717047" data-name="Trazado 717047" d="M255.443,112.826a4,4,0,0,0,1.991.082c.7-.084,1.414-.147,2.032-.175s1.333-.033,2.042-.015a3.992,3.992,0,0,0,1.973-.267c.521-.3.706-1.084.038-2.011a5.037,5.037,0,0,0-4.268-1.753,4.967,4.967,0,0,0-4.059,2.142C254.627,111.814,254.893,112.58,255.443,112.826Z" transform="translate(-254.878 -108.681)" fill="#373449"/>
                </g>
              </g>
              <path id="Trazado_717048" data-name="Trazado 717048" d="M251.133,155.648a.277.277,0,0,1-.241-.14,2.7,2.7,0,0,0-4.675-.009.279.279,0,1,1-.483-.281,3.258,3.258,0,0,1,5.641.011.279.279,0,0,1-.242.418Z" transform="translate(-223.439 -117.249)" fill="#ffa06e"/>
              <path id="Trazado_717049" data-name="Trazado 717049" d="M218.72,125.106a.557.557,0,0,1-.556-.559,4.018,4.018,0,0,1,4.031-4.34.558.558,0,0,1,0,1.116,2.913,2.913,0,0,0-2.915,3.226A.558.558,0,0,1,218.72,125.106Z" transform="translate(-218.164 -110.851)" fill="#ffa06e"/>
              <path id="Trazado_717050" data-name="Trazado 717050" d="M280.213,125.224a.558.558,0,0,1-.557-.559,2.932,2.932,0,0,0-2.9-3.238.558.558,0,0,1,0-1.116,4.019,4.019,0,0,1,4.015,4.356A.558.558,0,0,1,280.213,125.224Z" transform="translate(-229.283 -110.871)" fill="#ffa06e"/>
              <rect id="Rectángulo_347105" data-name="Rectángulo 347105" width="4.518" height="2.259" rx="1.13" transform="translate(15.501 14.777) rotate(-89.893)" fill="#373449"/>
              <path id="Rectángulo_347106" data-name="Rectángulo 347106" d="M1.13,0H3.389A1.129,1.129,0,0,1,4.518,1.129v0A1.129,1.129,0,0,1,3.389,2.259H1.13A1.13,1.13,0,0,1,0,1.13v0A1.13,1.13,0,0,1,1.13,0Z" transform="translate(32.442 14.81) rotate(-89.893)" fill="#373449"/>
              <path id="Trazado_717051" data-name="Trazado 717051" d="M254.682,146.793l-2.346,0a2.06,2.06,0,0,1-2.056-2.064l.01-5.483,12.938-3.208,0,2.25A8.526,8.526,0,0,1,254.682,146.793Z" transform="translate(-224.317 -113.884)" fill="#fff"/>
              <g id="Grupo_1004399" data-name="Grupo 1004399" transform="translate(4.64 4.274)">
                <g id="Grupo_1004398" data-name="Grupo 1004398">
                  <path id="Trazado_717052" data-name="Trazado 717052" d="M252.978,119.987a.4.4,0,0,1-.2-.054c-5.179-2.986-8.65-.091-8.685-.061a.4.4,0,0,1-.527-.614c.039-.032,3.946-3.3,9.616-.025a.4.4,0,0,1-.2.754Z" transform="translate(-227.644 -114.66)" fill="#fef4de"/>
                  <path id="Trazado_717053" data-name="Trazado 717053" d="M232.513,131.171a8.625,8.625,0,1,1,8.642-8.608A8.635,8.635,0,0,1,232.513,131.171Zm.032-16.441a7.817,7.817,0,1,0,7.8,7.832A7.826,7.826,0,0,0,232.545,114.729Z" transform="translate(-223.904 -113.921)" fill="#fef4de"/>
                  <path id="Trazado_717054" data-name="Trazado 717054" d="M262.833,131.23a8.625,8.625,0,1,1,8.643-8.608A8.635,8.635,0,0,1,262.833,131.23Zm.032-16.442a7.817,7.817,0,1,0,7.8,7.833A7.827,7.827,0,0,0,262.865,114.787Z" transform="translate(-229.713 -113.932)" fill="#fef4de"/>
                </g>
              </g>
              <path id="Trazado_717055" data-name="Trazado 717055" d="M251.067,132.3l-2.736,0a4.751,4.751,0,0,1-4.737-4.756,2.131,2.131,0,0,1,2.133-2.125c.933,0,2.257-3.5,2.948-6.751a.4.4,0,1,1,.791.168c-.263,1.234-1.678,7.4-3.741,7.391a1.322,1.322,0,0,0-1.323,1.318,3.942,3.942,0,0,0,3.93,3.946l2.736,0a.4.4,0,0,1,0,.808Z" transform="translate(-223.036 -110.495)" fill="#ffa06e"/>
            </g>
          </g>
        </g>
      </g>
      <g id="Grupo_1004414" data-name="Grupo 1004414" transform="translate(0 101.56)">
        <g id="Grupo_1004405" data-name="Grupo 1004405" transform="translate(0 0)">
          <g id="Grupo_1004404" data-name="Grupo 1004404">
            <circle id="Elipse_8442" data-name="Elipse 8442" cx="93.097" cy="93.097" r="93.097" fill="#74c1b9"/>
          </g>
        </g>
        <g id="Grupo_1004411" data-name="Grupo 1004411" transform="translate(0 0)">
          <g id="Grupo_1004410" data-name="Grupo 1004410" clip-path="url(#clip-path)">
            <g id="Grupo_1004409" data-name="Grupo 1004409" transform="translate(-27.026 -21.143)">
              <g id="Grupo_1004408" data-name="Grupo 1004408">
                <g id="Grupo_1004407" data-name="Grupo 1004407">
                  <g id="Grupo_1004406" data-name="Grupo 1004406">
                    <path id="Trazado_717056" data-name="Trazado 717056" d="M218.769,221.766l-34.506-.067-1.258,0v-.127a8.761,8.761,0,0,1,.033-17.353v-.191a18.9,18.9,0,0,0,17.422-21.716c-1.413-9.3-9.842-15.935-19.252-15.953,0,0-45.489,16.349-67.211,57.709-17.382,33.094-12.028,93.056-11.67,93.057l5.1.01,4.9.01h.064l20.882.041c4.767.009,9.282,3.58,9.273,8.348-.039,19.851-17.529-3.627-17.581,23.055-.013,6.569,6.467,11.354,13.036,11.367h.219c4.767.01,34.567,1.183,38.914.272a12.512,12.512,0,0,0-1.943-.2l1.975,0c6.568.013,12.444-4.779,13.08-11.316a12.579,12.579,0,0,0-12.491-13.836l-8.8-.018s-8.72.857-8.7-10.057c.009-4.456,4.646-7.557,9.1-7.549l12.209.024s1.2-.078,1.2-.119a8.777,8.777,0,0,0,7.621-8.668l0-2.515c.018-9-9.146-8.822-9.146-8.822l2.167,0c9.576.019,18.161-6.8,19.437-16.291a18.913,18.913,0,0,0-18.656-21.437l35.214.068a18.913,18.913,0,0,0,18.739-21.365C236.9,228.636,228.346,221.785,218.769,221.766Z" transform="translate(-101.275 -166.356)" fill="#fcd272"/>
                    <path id="Trazado_717057" data-name="Trazado 717057" d="M326.053,358.233A17.114,17.114,0,1,0,326.12,324l15.213.03a17.115,17.115,0,0,0,.066-34.229l-49.441-.1a17.114,17.114,0,0,0-.066,34.228l-15.213-.03a17.114,17.114,0,0,0-.067,34.228Z" transform="translate(-131.595 -189.989)" fill="#fcd272"/>
                    <path id="Trazado_717058" data-name="Trazado 717058" d="M306.936,245.223l18.754.036a11.386,11.386,0,0,0,.044-22.772l-18.754-.036a11.386,11.386,0,1,0-.044,22.772Z" transform="translate(-138.5 -177.103)" fill="#fcd272"/>
                  </g>
                </g>
              </g>
            </g>
          </g>
        </g>
        <g id="Grupo_1004413" data-name="Grupo 1004413" transform="translate(17.339 16.711)" opacity="0.21">
          <g id="Grupo_1004412" data-name="Grupo 1004412">
            <path id="Trazado_717059" data-name="Trazado 717059" d="M297.632,355.77a93.1,93.1,0,0,1-131.659-.255c-36.286-36.428,35.189,27.331,97.149-34.388,73.419-73.135-1.52-133.442,34.766-97.015A93.1,93.1,0,0,1,297.632,355.77Z" transform="translate(-156.155 -213.181)" fill="#373449"/>
          </g>
        </g>
      </g>
      <g id="Grupo_1004417" data-name="Grupo 1004417" transform="translate(10.091 95.607)">
        <g id="Grupo_1004415" data-name="Grupo 1004415" transform="translate(97.241 0.112)">
          <path id="Trazado_717060" data-name="Trazado 717060" d="M284.676,185.961a4.895,4.895,0,0,0-4.809-.09L269.814,191.3a4.453,4.453,0,1,0,4.369,7.759h0a8.37,8.37,0,0,1,9.125.428c3.615,2.594,8.884,5.881,13.181,6.6l3.294-15.065Z" transform="translate(-267.476 -185.284)" fill="#fbc4a9"/>
          <path id="Trazado_717061" data-name="Trazado 717061" d="M339,203.214c-3.3-2.316-27.543-14.508-27.543-14.508a3.619,3.619,0,0,0-5.042,2.517l-.083.384-3.294,15.065-1.3,5.96a3.618,3.618,0,0,0,1.857,3.978l9.383,4.909c6.416,3.357,17.992,12.429,26.247,2.272a17.427,17.427,0,0,0,3.775-9.31C343.348,210.828,342.923,205.965,339,203.214Z" transform="translate(-274.023 -185.877)" fill="#ffc947"/>
        </g>
        <g id="Grupo_1004416" data-name="Grupo 1004416">
          <path id="Trazado_717062" data-name="Trazado 717062" d="M222.733,191.206,212.7,185.743a4.9,4.9,0,0,0-4.809.07l-15.126,5L196,205.886c4.3-.7,9.581-3.966,13.206-6.546a8.37,8.37,0,0,1,9.126-.392h0a4.453,4.453,0,1,0,4.4-7.742Z" transform="translate(-155.921 -185.146)" fill="#fbc4a9"/>
          <path id="Trazado_717063" data-name="Trazado 717063" d="M183.951,191a3.618,3.618,0,0,0-5.032-2.536s-24.285,12.1-27.6,14.4c-3.935,2.736-4.378,7.6-4.04,11.251a17.433,17.433,0,0,0,3.738,9.324c8.215,10.188,19.826,1.162,26.256-2.171l9.4-4.872a3.618,3.618,0,0,0,1.872-3.971l-1.28-5.964-3.236-15.078Z" transform="translate(-147.189 -185.719)" fill="#ffc947"/>
        </g>
      </g>
    </g>
    <g id="Grupo_1004441" data-name="Grupo 1004441" transform="translate(139.296 197.841)">
      <g id="Grupo_1004419" data-name="Grupo 1004419" transform="translate(17.785)">
        <path id="Trazado_717064" data-name="Trazado 717064" d="M184.747,237.748a3.865,3.865,0,0,0-.342-5.5,4.307,4.307,0,0,0-3.932-1.082,4.362,4.362,0,0,0-7.635-.079,4.342,4.342,0,0,0-3.5,1.162,3.865,3.865,0,0,0-.341,5.5c.01.011.021.019.032.03a3.311,3.311,0,0,0,.3,4.7,3.75,3.75,0,0,0,2.48,1.023,5.489,5.489,0,0,0,.638.741,6.9,6.9,0,0,0,8.852,0c.105-.1.2-.207.3-.315a3.9,3.9,0,0,0,2.508-1.15,3.471,3.471,0,0,0,.307-4.724A3.61,3.61,0,0,0,184.747,237.748Z" transform="translate(-168 -228.877)" fill="#74c1b9"/>
        <path id="Trazado_717065" data-name="Trazado 717065" d="M180.571,240.667a.241.241,0,0,0-.333.027l-1.869,2.158v-1.909a.226.226,0,0,0,.133-.086l1.977-2.639a.224.224,0,0,0-.053-.32.241.241,0,0,0-.33.05l-1.728,2.306v-3.371a.233.233,0,0,0-.236-.23h-.008a.233.233,0,0,0-.236.23v3.371l-1.728-2.306a.241.241,0,0,0-.33-.05.224.224,0,0,0-.052.32l1.977,2.639a.231.231,0,0,0,.133.086v1.909l-1.869-2.158a.241.241,0,0,0-.333-.027.224.224,0,0,0-.028.323l2.23,2.576V255.3a.233.233,0,0,0,.236.23h.008a.233.233,0,0,0,.236-.23V243.565l2.231-2.576A.225.225,0,0,0,180.571,240.667Z" transform="translate(-169.456 -230.367)" fill="#373449"/>
      </g>
      <g id="Grupo_1004420" data-name="Grupo 1004420" transform="translate(37.187 122.491)">
        <path id="Trazado_717066" data-name="Trazado 717066" d="M200.4,384.845a1.938,1.938,0,0,0-.171-2.756,2.159,2.159,0,0,0-1.972-.542,2.186,2.186,0,0,0-3.827-.04,2.176,2.176,0,0,0-1.757.582,1.938,1.938,0,0,0-.171,2.756l.015.015a1.661,1.661,0,0,0,.152,2.355,1.883,1.883,0,0,0,1.243.513,2.8,2.8,0,0,0,.319.371,3.458,3.458,0,0,0,4.438,0c.053-.051.1-.1.15-.158a1.954,1.954,0,0,0,1.257-.577,1.739,1.739,0,0,0,.154-2.367A1.864,1.864,0,0,0,200.4,384.845Z" transform="translate(-192 -380.398)" fill="#74c1b9"/>
        <path id="Trazado_717067" data-name="Trazado 717067" d="M198.3,386.308a.12.12,0,0,0-.167.014L197.2,387.4v-.957a.119.119,0,0,0,.066-.043l.991-1.323a.112.112,0,0,0-.027-.16.12.12,0,0,0-.165.025L197.2,386.1v-1.69a.117.117,0,0,0-.119-.115h0a.116.116,0,0,0-.118.115v1.69l-.867-1.156a.12.12,0,0,0-.165-.025.112.112,0,0,0-.026.16l.991,1.323a.114.114,0,0,0,.066.043v.957l-.937-1.082a.121.121,0,0,0-.167-.014.112.112,0,0,0-.015.162l1.119,1.291v5.882a.116.116,0,0,0,.118.115h0a.117.117,0,0,0,.119-.115v-5.882l1.118-1.291A.112.112,0,0,0,198.3,386.308Z" transform="translate(-192.73 -381.145)" fill="#373449"/>
      </g>
      <g id="Grupo_1004421" data-name="Grupo 1004421" transform="translate(15.36 114.407)">
        <path id="Trazado_717068" data-name="Trazado 717068" d="M173.4,374.845a1.938,1.938,0,0,0-.171-2.756,2.159,2.159,0,0,0-1.972-.542,2.186,2.186,0,0,0-3.827-.04,2.176,2.176,0,0,0-1.757.582,1.938,1.938,0,0,0-.171,2.756l.015.015a1.661,1.661,0,0,0,.152,2.355,1.883,1.883,0,0,0,1.243.513,2.793,2.793,0,0,0,.319.371,3.458,3.458,0,0,0,4.438,0c.053-.051.1-.1.15-.158a1.954,1.954,0,0,0,1.257-.577,1.739,1.739,0,0,0,.154-2.367A1.868,1.868,0,0,0,173.4,374.845Z" transform="translate(-165 -370.398)" fill="#74c1b9"/>
        <path id="Trazado_717069" data-name="Trazado 717069" d="M171.3,376.308a.12.12,0,0,0-.167.014L170.2,377.4v-.957a.119.119,0,0,0,.066-.043l.991-1.323a.112.112,0,0,0-.027-.16.12.12,0,0,0-.165.025L170.2,376.1v-1.69a.117.117,0,0,0-.119-.115h0a.116.116,0,0,0-.118.115v1.69l-.867-1.156a.12.12,0,0,0-.165-.025.111.111,0,0,0-.026.16l.991,1.323a.114.114,0,0,0,.066.043v.957l-.937-1.082a.121.121,0,0,0-.167-.014.112.112,0,0,0-.015.162l1.119,1.291v5.882a.116.116,0,0,0,.118.115h0a.117.117,0,0,0,.119-.115v-5.882l1.118-1.291A.112.112,0,0,0,171.3,376.308Z" transform="translate(-165.73 -371.145)" fill="#373449"/>
      </g>
      <g id="Grupo_1004422" data-name="Grupo 1004422" transform="translate(151.981 80.033)">
        <path id="Trazado_717070" data-name="Trazado 717070" d="M350.747,336.748a3.865,3.865,0,0,0-.342-5.5,4.307,4.307,0,0,0-3.932-1.082,4.362,4.362,0,0,0-7.635-.079,4.341,4.341,0,0,0-3.5,1.162,3.865,3.865,0,0,0-.341,5.5c.01.01.021.019.031.03a3.311,3.311,0,0,0,.3,4.7,3.75,3.75,0,0,0,2.48,1.023,5.492,5.492,0,0,0,.638.741,6.9,6.9,0,0,0,8.852,0c.105-.1.2-.207.3-.315a3.9,3.9,0,0,0,2.508-1.15,3.471,3.471,0,0,0,.307-4.724A3.6,3.6,0,0,0,350.747,336.748Z" transform="translate(-334 -327.877)" fill="#74c1b9"/>
        <path id="Trazado_717071" data-name="Trazado 717071" d="M346.571,339.667a.241.241,0,0,0-.333.027l-1.869,2.158v-1.909a.23.23,0,0,0,.133-.086l1.977-2.639a.224.224,0,0,0-.053-.32.241.241,0,0,0-.33.05l-1.728,2.306v-3.371a.233.233,0,0,0-.236-.23h-.008a.233.233,0,0,0-.236.23v3.371l-1.728-2.306a.241.241,0,0,0-.33-.05.224.224,0,0,0-.052.32l1.977,2.639a.235.235,0,0,0,.133.086v1.909l-1.869-2.158a.241.241,0,0,0-.333-.027.224.224,0,0,0-.028.323l2.23,2.576V354.3a.233.233,0,0,0,.236.23h.008a.233.233,0,0,0,.236-.23V342.565l2.231-2.576A.225.225,0,0,0,346.571,339.667Z" transform="translate(-335.456 -329.367)" fill="#373449"/>
      </g>
      <g id="Grupo_1004423" data-name="Grupo 1004423" transform="translate(8.084 21.827)">
        <path id="Trazado_717072" data-name="Trazado 717072" d="M165.158,260.728a2.113,2.113,0,0,0-.187-3.006,2.359,2.359,0,0,0-2.15-.593,2.386,2.386,0,0,0-4.175-.043,2.372,2.372,0,0,0-1.917.635,2.113,2.113,0,0,0-.187,3.006l.017.017a1.81,1.81,0,0,0,.166,2.568,2.045,2.045,0,0,0,1.356.559,2.989,2.989,0,0,0,.349.406,3.773,3.773,0,0,0,4.841,0c.057-.056.112-.113.163-.172a2.139,2.139,0,0,0,1.372-.629,1.9,1.9,0,0,0,.168-2.584A1.866,1.866,0,0,0,165.158,260.728Z" transform="translate(-156 -255.878)" fill="#74c1b9"/>
        <path id="Trazado_717073" data-name="Trazado 717073" d="M162.875,262.325a.132.132,0,0,0-.183.015l-1.022,1.18v-1.044a.132.132,0,0,0,.073-.047l1.081-1.443a.123.123,0,0,0-.028-.175.131.131,0,0,0-.18.028l-.945,1.261v-1.843a.127.127,0,0,0-.129-.125h0a.127.127,0,0,0-.129.125V262.1l-.945-1.261a.131.131,0,0,0-.18-.028.123.123,0,0,0-.028.175l1.082,1.443a.127.127,0,0,0,.072.047v1.044l-1.022-1.18a.132.132,0,0,0-.182-.015.123.123,0,0,0-.016.177l1.22,1.408v6.416a.128.128,0,0,0,.129.125h0a.128.128,0,0,0,.129-.125V263.91l1.22-1.408A.123.123,0,0,0,162.875,262.325Z" transform="translate(-156.796 -256.693)" fill="#373449"/>
      </g>
      <g id="Grupo_1004424" data-name="Grupo 1004424" transform="translate(36.378 10.51)">
        <path id="Trazado_717074" data-name="Trazado 717074" d="M202.448,247.941a2.641,2.641,0,0,0-.233-3.757,2.946,2.946,0,0,0-2.689-.741,2.982,2.982,0,0,0-5.219-.054,2.968,2.968,0,0,0-2.4.795,2.641,2.641,0,0,0-.233,3.757l.021.021a2.264,2.264,0,0,0,.207,3.211,2.566,2.566,0,0,0,1.7.7,3.719,3.719,0,0,0,.436.507,4.716,4.716,0,0,0,6.052,0c.071-.07.139-.142.2-.215a2.674,2.674,0,0,0,1.715-.787,2.373,2.373,0,0,0,.21-3.229A2.419,2.419,0,0,0,202.448,247.941Z" transform="translate(-191 -241.877)" fill="#74c1b9"/>
        <path id="Trazado_717075" data-name="Trazado 717075" d="M199.593,249.937a.165.165,0,0,0-.227.019l-1.278,1.475v-1.306a.153.153,0,0,0,.091-.058l1.352-1.8a.154.154,0,0,0-.036-.219.164.164,0,0,0-.226.035l-1.181,1.576v-2.3a.159.159,0,0,0-.162-.157h0a.16.16,0,0,0-.162.157v2.3l-1.181-1.576a.164.164,0,0,0-.226-.035.154.154,0,0,0-.036.219l1.352,1.8a.158.158,0,0,0,.091.058v1.306l-1.277-1.475a.166.166,0,0,0-.228-.019.154.154,0,0,0-.019.221l1.525,1.761v8.02a.16.16,0,0,0,.162.157h0a.159.159,0,0,0,.162-.157v-8.02l1.525-1.761A.152.152,0,0,0,199.593,249.937Z" transform="translate(-191.996 -242.896)" fill="#373449"/>
      </g>
      <g id="Grupo_1004425" data-name="Grupo 1004425" transform="translate(137.43 90.542)">
        <path id="Trazado_717076" data-name="Trazado 717076" d="M327.448,346.942a2.642,2.642,0,0,0-.233-3.758,2.946,2.946,0,0,0-2.689-.74,2.982,2.982,0,0,0-5.219-.054,2.967,2.967,0,0,0-2.4.795,2.642,2.642,0,0,0-.233,3.758l.021.02a2.264,2.264,0,0,0,.207,3.211,2.566,2.566,0,0,0,1.7.7,3.7,3.7,0,0,0,.436.507,4.716,4.716,0,0,0,6.052,0c.071-.069.139-.141.2-.215a2.674,2.674,0,0,0,1.715-.787,2.373,2.373,0,0,0,.21-3.229A2.532,2.532,0,0,0,327.448,346.942Z" transform="translate(-316 -340.877)" fill="#74c1b9"/>
        <path id="Trazado_717077" data-name="Trazado 717077" d="M324.593,348.937a.164.164,0,0,0-.227.019l-1.278,1.475v-1.306a.157.157,0,0,0,.091-.058l1.352-1.8a.154.154,0,0,0-.036-.219.164.164,0,0,0-.226.035l-1.181,1.576v-2.3a.159.159,0,0,0-.162-.157h0a.16.16,0,0,0-.162.157v2.3l-1.181-1.576a.164.164,0,0,0-.226-.035.154.154,0,0,0-.036.219l1.352,1.8a.162.162,0,0,0,.091.058v1.306l-1.277-1.475a.165.165,0,0,0-.228-.019.154.154,0,0,0-.019.221l1.525,1.761v8.02a.16.16,0,0,0,.162.157h0a.159.159,0,0,0,.162-.157v-8.02l1.525-1.761A.152.152,0,0,0,324.593,348.937Z" transform="translate(-316.996 -341.896)" fill="#373449"/>
      </g>
      <g id="Grupo_1004426" data-name="Grupo 1004426" transform="translate(60.631 21.827)">
        <path id="Trazado_717078" data-name="Trazado 717078" d="M232.448,261.942a2.642,2.642,0,0,0-.233-3.757,2.946,2.946,0,0,0-2.689-.741,2.982,2.982,0,0,0-5.219-.054,2.968,2.968,0,0,0-2.4.795,2.642,2.642,0,0,0-.233,3.757l.021.02a2.264,2.264,0,0,0,.207,3.211,2.566,2.566,0,0,0,1.7.7,3.721,3.721,0,0,0,.436.507,4.716,4.716,0,0,0,6.052,0c.071-.07.139-.142.2-.215a2.674,2.674,0,0,0,1.715-.787,2.373,2.373,0,0,0,.21-3.229A2.519,2.519,0,0,0,232.448,261.942Z" transform="translate(-221 -255.878)" fill="#74c1b9"/>
        <path id="Trazado_717079" data-name="Trazado 717079" d="M229.593,263.937a.164.164,0,0,0-.227.019l-1.278,1.475v-1.306a.157.157,0,0,0,.091-.058l1.352-1.8a.154.154,0,0,0-.036-.219.164.164,0,0,0-.226.035l-1.181,1.576v-2.3a.159.159,0,0,0-.162-.157h0a.16.16,0,0,0-.162.157v2.3l-1.181-1.576a.164.164,0,0,0-.226-.035.154.154,0,0,0-.036.219l1.352,1.8a.162.162,0,0,0,.091.058v1.306l-1.277-1.475a.165.165,0,0,0-.228-.019.154.154,0,0,0-.019.221l1.525,1.761v8.02a.16.16,0,0,0,.162.157h0a.159.159,0,0,0,.162-.157v-8.02l1.525-1.761A.152.152,0,0,0,229.593,263.937Z" transform="translate(-221.996 -256.896)" fill="#373449"/>
      </g>
      <g id="Grupo_1004427" data-name="Grupo 1004427" transform="translate(5.659 94.584)">
        <path id="Trazado_717080" data-name="Trazado 717080" d="M164.448,351.942a2.642,2.642,0,0,0-.233-3.757,2.946,2.946,0,0,0-2.689-.741,2.982,2.982,0,0,0-5.219-.054,2.968,2.968,0,0,0-2.4.795,2.642,2.642,0,0,0-.233,3.757l.021.02a2.264,2.264,0,0,0,.207,3.211,2.566,2.566,0,0,0,1.7.7,3.713,3.713,0,0,0,.436.507,4.716,4.716,0,0,0,6.052,0c.071-.07.139-.142.2-.215a2.675,2.675,0,0,0,1.715-.787,2.373,2.373,0,0,0,.21-3.229A2.527,2.527,0,0,0,164.448,351.942Z" transform="translate(-153 -345.878)" fill="#74c1b9"/>
        <path id="Trazado_717081" data-name="Trazado 717081" d="M161.593,353.937a.164.164,0,0,0-.227.019l-1.278,1.475v-1.306a.157.157,0,0,0,.091-.058l1.352-1.8a.154.154,0,0,0-.036-.219.164.164,0,0,0-.226.035l-1.181,1.576v-2.3a.159.159,0,0,0-.162-.157h0a.16.16,0,0,0-.162.157v2.3l-1.181-1.576a.164.164,0,0,0-.226-.035.154.154,0,0,0-.036.219l1.352,1.8a.162.162,0,0,0,.091.058v1.306l-1.277-1.475a.165.165,0,0,0-.228-.019.154.154,0,0,0-.019.221l1.525,1.761v8.02a.16.16,0,0,0,.162.157h0a.159.159,0,0,0,.162-.157v-8.02l1.525-1.761A.152.152,0,0,0,161.593,353.937Z" transform="translate(-153.996 -346.896)" fill="#373449"/>
      </g>
      <g id="Grupo_1004428" data-name="Grupo 1004428" transform="translate(0 46.804)">
        <path id="Trazado_717082" data-name="Trazado 717082" d="M146,301.241h0c0-2.65,3.817-6.467,6.467-6.467h0A9.985,9.985,0,0,1,146,301.241Z" transform="translate(-146 -288.307)" fill="#fef4de"/>
        <path id="Trazado_717083" data-name="Trazado 717083" d="M154,293.241h0c0-2.65,3.817-6.467,6.467-6.467h0A9.985,9.985,0,0,1,154,293.241Z" transform="translate(-147.533 -286.774)" fill="#fef4de"/>
        <path id="Trazado_717084" data-name="Trazado 717084" d="M146,286.774h0c2.65,0,6.467,3.817,6.467,6.467h0A9.984,9.984,0,0,1,146,286.774Z" transform="translate(-146 -286.774)" fill="#fef4de"/>
        <path id="Trazado_717085" data-name="Trazado 717085" d="M154,294.774h0c2.65,0,6.467,3.817,6.467,6.467h0A9.984,9.984,0,0,1,154,294.774Z" transform="translate(-147.533 -288.307)" fill="#fef4de"/>
        <path id="Trazado_717086" data-name="Trazado 717086" d="M154.7,294.641a.835.835,0,1,1-.835-.834A.834.834,0,0,1,154.7,294.641Z" transform="translate(-147.347 -288.121)" fill="#74c1b9"/>
        <path id="Trazado_717087" data-name="Trazado 717087" d="M154.463,294.715a.522.522,0,1,1-.522-.522A.522.522,0,0,1,154.463,294.715Z" transform="translate(-147.421 -288.195)" fill="#4e968d"/>
        <path id="Trazado_717088" data-name="Trazado 717088" d="M153.308,295.776l-1.372,24.434h2.295l-.334-24.434Z" transform="translate(-147.137 -288.499)" fill="#373449"/>
      </g>
      <g id="Grupo_1004429" data-name="Grupo 1004429" transform="translate(31.528 45.996)">
        <path id="Trazado_717089" data-name="Trazado 717089" d="M185,300.241h0c0-2.65,3.817-6.467,6.467-6.467h0A9.985,9.985,0,0,1,185,300.241Z" transform="translate(-185 -287.307)" fill="#fef4de"/>
        <path id="Trazado_717090" data-name="Trazado 717090" d="M193,292.241h0c0-2.65,3.817-6.467,6.467-6.467h0A9.985,9.985,0,0,1,193,292.241Z" transform="translate(-186.533 -285.774)" fill="#fef4de"/>
        <path id="Trazado_717091" data-name="Trazado 717091" d="M185,285.774h0c2.65,0,6.467,3.817,6.467,6.467h0A9.984,9.984,0,0,1,185,285.774Z" transform="translate(-185 -285.774)" fill="#fef4de"/>
        <path id="Trazado_717092" data-name="Trazado 717092" d="M193,293.774h0c2.65,0,6.467,3.817,6.467,6.467h0A9.984,9.984,0,0,1,193,293.774Z" transform="translate(-186.533 -287.307)" fill="#fef4de"/>
        <path id="Trazado_717093" data-name="Trazado 717093" d="M193.7,293.641a.835.835,0,1,1-.835-.834A.834.834,0,0,1,193.7,293.641Z" transform="translate(-186.347 -287.121)" fill="#74c1b9"/>
        <path id="Trazado_717094" data-name="Trazado 717094" d="M193.463,293.715a.522.522,0,1,1-.522-.522A.522.522,0,0,1,193.463,293.715Z" transform="translate(-186.421 -287.195)" fill="#4e968d"/>
        <path id="Trazado_717095" data-name="Trazado 717095" d="M192.308,294.776l-1.372,24.434h2.295l-.334-24.434Z" transform="translate(-186.137 -287.499)" fill="#373449"/>
      </g>
      <g id="Grupo_1004430" data-name="Grupo 1004430" transform="translate(129.346 58.122)">
        <path id="Trazado_717096" data-name="Trazado 717096" d="M306,315.241h0c0-2.65,3.817-6.467,6.467-6.467h0A9.986,9.986,0,0,1,306,315.241Z" transform="translate(-306 -302.307)" fill="#fef4de"/>
        <path id="Trazado_717097" data-name="Trazado 717097" d="M314,307.241h0c0-2.65,3.817-6.467,6.467-6.467h0A9.986,9.986,0,0,1,314,307.241Z" transform="translate(-307.533 -300.774)" fill="#fef4de"/>
        <path id="Trazado_717098" data-name="Trazado 717098" d="M306,300.774h0c2.65,0,6.467,3.817,6.467,6.467h0A9.984,9.984,0,0,1,306,300.774Z" transform="translate(-306 -300.774)" fill="#fef4de"/>
        <path id="Trazado_717099" data-name="Trazado 717099" d="M314,308.774h0c2.65,0,6.467,3.817,6.467,6.467h0A9.984,9.984,0,0,1,314,308.774Z" transform="translate(-307.533 -302.307)" fill="#fef4de"/>
        <path id="Trazado_717100" data-name="Trazado 717100" d="M314.7,308.641a.835.835,0,1,1-.835-.834A.834.834,0,0,1,314.7,308.641Z" transform="translate(-307.347 -302.121)" fill="#74c1b9"/>
        <path id="Trazado_717101" data-name="Trazado 717101" d="M314.463,308.715a.522.522,0,1,1-.522-.522A.522.522,0,0,1,314.463,308.715Z" transform="translate(-307.421 -302.195)" fill="#4e968d"/>
        <path id="Trazado_717102" data-name="Trazado 717102" d="M313.308,309.776l-1.372,24.434h2.295l-.334-24.434Z" transform="translate(-307.137 -302.499)" fill="#373449"/>
      </g>
      <g id="Grupo_1004431" data-name="Grupo 1004431" transform="translate(147.939 47.613)">
        <path id="Trazado_717103" data-name="Trazado 717103" d="M329,302.241h0c0-2.65,3.817-6.467,6.467-6.467h0A9.985,9.985,0,0,1,329,302.241Z" transform="translate(-329 -289.307)" fill="#fef4de"/>
        <path id="Trazado_717104" data-name="Trazado 717104" d="M337,294.241h0c0-2.65,3.817-6.467,6.467-6.467h0A9.985,9.985,0,0,1,337,294.241Z" transform="translate(-330.533 -287.774)" fill="#fef4de"/>
        <path id="Trazado_717105" data-name="Trazado 717105" d="M329,287.774h0c2.65,0,6.467,3.817,6.467,6.467h0A9.984,9.984,0,0,1,329,287.774Z" transform="translate(-329 -287.774)" fill="#fef4de"/>
        <path id="Trazado_717106" data-name="Trazado 717106" d="M337,295.774h0c2.65,0,6.467,3.817,6.467,6.467h0A9.984,9.984,0,0,1,337,295.774Z" transform="translate(-330.533 -289.307)" fill="#fef4de"/>
        <path id="Trazado_717107" data-name="Trazado 717107" d="M337.7,295.641a.835.835,0,1,1-.835-.834A.834.834,0,0,1,337.7,295.641Z" transform="translate(-330.347 -289.121)" fill="#74c1b9"/>
        <path id="Trazado_717108" data-name="Trazado 717108" d="M337.463,295.715a.522.522,0,1,1-.522-.522A.522.522,0,0,1,337.463,295.715Z" transform="translate(-330.421 -289.195)" fill="#4e968d"/>
        <path id="Trazado_717109" data-name="Trazado 717109" d="M336.308,296.776l-1.372,24.434h2.295l-.334-24.434Z" transform="translate(-330.137 -289.499)" fill="#373449"/>
      </g>
      <g id="Grupo_1004432" data-name="Grupo 1004432" transform="translate(16.977 38.277)">
        <path id="Trazado_717110" data-name="Trazado 717110" d="M167,289.789h0c0-2.484,3.579-6.063,6.063-6.063h0A9.363,9.363,0,0,1,167,289.789Z" transform="translate(-167 -277.663)" fill="#fef4de"/>
        <path id="Trazado_717111" data-name="Trazado 717111" d="M174.5,282.289h0c0-2.484,3.579-6.063,6.063-6.063h0A9.363,9.363,0,0,1,174.5,282.289Z" transform="translate(-168.437 -276.226)" fill="#fef4de"/>
        <path id="Trazado_717112" data-name="Trazado 717112" d="M167,276.226h0c2.484,0,6.063,3.579,6.063,6.063h0A9.363,9.363,0,0,1,167,276.226Z" transform="translate(-167 -276.226)" fill="#fef4de"/>
        <path id="Trazado_717113" data-name="Trazado 717113" d="M174.5,283.726h0c2.484,0,6.063,3.579,6.063,6.063h0A9.363,9.363,0,0,1,174.5,283.726Z" transform="translate(-168.437 -277.663)" fill="#fef4de"/>
        <path id="Trazado_717114" data-name="Trazado 717114" d="M175.157,283.6a.782.782,0,1,1-.783-.783A.782.782,0,0,1,175.157,283.6Z" transform="translate(-168.263 -277.489)" fill="#74c1b9"/>
        <path id="Trazado_717115" data-name="Trazado 717115" d="M174.933,283.67a.489.489,0,1,1-.489-.488A.489.489,0,0,1,174.933,283.67Z" transform="translate(-168.333 -277.559)" fill="#4e968d"/>
        <path id="Trazado_717116" data-name="Trazado 717116" d="M173.851,284.665l-1.287,22.907h2.151l-.313-22.907Z" transform="translate(-168.066 -277.843)" fill="#373449"/>
      </g>
      <g id="Grupo_1004434" data-name="Grupo 1004434" transform="translate(22.231 21.926)">
        <g id="Grupo_1004433" data-name="Grupo 1004433">
          <rect id="Rectángulo_347107" data-name="Rectángulo 347107" width="10.97" height="8.02" transform="translate(0.459 4.107)" fill="#fef4de"/>
          <rect id="Rectángulo_347108" data-name="Rectángulo 347108" width="3.493" height="8.02" transform="translate(11.461 4.107)" fill="#fff"/>
          <path id="Trazado_717117" data-name="Trazado 717117" d="M176.444,256l-2.944,4.339h11.433L186.672,256Z" transform="translate(-173.5 -256)" fill="#e29805"/>
          <path id="Trazado_717118" data-name="Trazado 717118" d="M187.918,260.339h3.642L189.39,256l-1.7,4.339Z" transform="translate(-176.218 -256)" fill="#f9bf3e"/>
        </g>
        <rect id="Rectángulo_347109" data-name="Rectángulo 347109" width="3.797" height="5.114" transform="translate(3.603 7.012)" fill="#373449"/>
        <rect id="Rectángulo_347110" data-name="Rectángulo 347110" width="2.325" height="1.86" transform="translate(8.252 6.392)" fill="#373449"/>
      </g>
      <g id="Grupo_1004436" data-name="Grupo 1004436" transform="translate(5.255 70.431)">
        <g id="Grupo_1004435" data-name="Grupo 1004435">
          <rect id="Rectángulo_347111" data-name="Rectángulo 347111" width="13.895" height="10.158" transform="translate(0.581 5.202)" fill="#fef4de"/>
          <rect id="Rectángulo_347112" data-name="Rectángulo 347112" width="4.424" height="10.158" transform="translate(14.518 5.202)" fill="#fff"/>
          <path id="Trazado_717119" data-name="Trazado 717119" d="M156.23,316l-3.73,5.5h14.482l2.2-5.5Z" transform="translate(-152.5 -316)" fill="#e29805"/>
          <path id="Trazado_717120" data-name="Trazado 717120" d="M170.763,321.5h4.613l-2.748-5.5-2.159,5.5Z" transform="translate(-155.942 -316)" fill="#f9bf3e"/>
        </g>
        <rect id="Rectángulo_347113" data-name="Rectángulo 347113" width="4.809" height="6.478" transform="translate(4.564 8.882)" fill="#373449"/>
        <rect id="Rectángulo_347114" data-name="Rectángulo 347114" width="2.944" height="2.355" transform="translate(10.453 8.097)" fill="#373449"/>
      </g>
      <g id="Grupo_1004438" data-name="Grupo 1004438" transform="translate(109.54 91.45)">
        <g id="Grupo_1004437" data-name="Grupo 1004437">
          <rect id="Rectángulo_347115" data-name="Rectángulo 347115" width="13.895" height="10.158" transform="translate(0.581 5.202)" fill="#fef4de"/>
          <rect id="Rectángulo_347116" data-name="Rectángulo 347116" width="4.424" height="10.158" transform="translate(14.518 5.202)" fill="#fff"/>
          <path id="Trazado_717121" data-name="Trazado 717121" d="M285.23,342l-3.729,5.5h14.482l2.2-5.5Z" transform="translate(-281.5 -342)" fill="#e29805"/>
          <path id="Trazado_717122" data-name="Trazado 717122" d="M299.762,347.5h4.613l-2.748-5.5-2.159,5.5Z" transform="translate(-284.942 -342)" fill="#f9bf3e"/>
        </g>
        <rect id="Rectángulo_347117" data-name="Rectángulo 347117" width="4.809" height="6.478" transform="translate(4.564 8.882)" fill="#373449"/>
        <rect id="Rectángulo_347118" data-name="Rectángulo 347118" width="2.944" height="2.355" transform="translate(10.453 8.097)" fill="#373449"/>
      </g>
      <g id="Grupo_1004440" data-name="Grupo 1004440" transform="translate(49.717 11.417)">
        <g id="Grupo_1004439" data-name="Grupo 1004439">
          <rect id="Rectángulo_347119" data-name="Rectángulo 347119" width="9.507" height="6.95" transform="translate(0.397 3.559)" fill="#fef4de"/>
          <rect id="Rectángulo_347120" data-name="Rectángulo 347120" width="3.027" height="6.95" transform="translate(9.933 3.559)" fill="#fff"/>
          <path id="Trazado_717123" data-name="Trazado 717123" d="M210.052,243l-2.552,3.761h9.909L218.916,243Z" transform="translate(-207.5 -243)" fill="#e29805"/>
          <path id="Trazado_717124" data-name="Trazado 717124" d="M220,246.761h3.156L221.271,243l-1.477,3.761Z" transform="translate(-209.855 -243)" fill="#f9bf3e"/>
        </g>
        <rect id="Rectángulo_347121" data-name="Rectángulo 347121" width="3.29" height="4.432" transform="translate(3.123 6.077)" fill="#373449"/>
        <rect id="Rectángulo_347122" data-name="Rectángulo 347122" width="2.015" height="1.612" transform="translate(7.152 5.54)" fill="#373449"/>
      </g>
    </g>
  </g>
</svg>
