<svg xmlns="http://www.w3.org/2000/svg" xmlns:xlink="http://www.w3.org/1999/xlink" width="400" height="467" viewBox="0 0 400 467">
  <defs>
    <clipPath id="clip-path">
      <path id="Trazado_717170" data-name="Trazado 717170" d="M279.237,158.1v-4.644l-2.541-.2a10.416,10.416,0,0,0-1.146-2.765l1.654-1.938-3.274-3.282-1.947,1.654a10.338,10.338,0,0,0-2.757-1.146l-.207-2.541h-4.669l-.2,2.541a10.416,10.416,0,0,0-2.765,1.146l-1.938-1.654-3.282,3.282,1.654,1.938a10.415,10.415,0,0,0-1.146,2.765l-2.585.2V158.1l2.585.2a10.183,10.183,0,0,0,1.146,2.765l-1.654,1.947,3.282,3.274,1.938-1.654a10.415,10.415,0,0,0,2.765,1.146l.2,2.541h4.644l.207-2.541a10.338,10.338,0,0,0,2.757-1.146l1.947,1.654,3.274-3.274-1.628-1.947A10.338,10.338,0,0,0,276.7,158.3ZM266.7,160.263a4.454,4.454,0,1,1,3.158-1.3A4.463,4.463,0,0,1,266.7,160.263Z" transform="translate(-254.09 -143.24)" fill="#ffa031" stroke="#263238" stroke-linecap="round" stroke-linejoin="round" stroke-width="1"/>
    </clipPath>
    <clipPath id="clip-path-2">
      <path id="Trazado_717174" data-name="Trazado 717174" d="M255,177.526v-3.334l-1.826-.146a7.305,7.305,0,0,0-.861-1.981l1.189-1.4-2.352-2.361-1.4,1.189a7.34,7.34,0,0,0-1.99-.862l-.146-1.835h-3.3l-.146,1.835a7.34,7.34,0,0,0-1.99.862l-1.4-1.189-2.352,2.361,1.189,1.4a7.306,7.306,0,0,0-.862,1.981l-1.826.146v3.334l1.826.146a7.366,7.366,0,0,0,.861,1.99l-1.189,1.4,2.352,2.361,1.378-1.2a7.366,7.366,0,0,0,1.99.862l.146,1.826h3.334l.146-1.826a7.366,7.366,0,0,0,1.99-.861l1.4,1.2,2.352-2.361-1.189-1.4a7.365,7.365,0,0,0,.862-1.99Zm-9.011,1.508a3.213,3.213,0,1,1,3.2-3.2,3.213,3.213,0,0,1-3.2,3.2Z" transform="translate(-236.93 -166.8)" fill="#ffa031" stroke="#263238" stroke-linecap="round" stroke-linejoin="round" stroke-width="1"/>
    </clipPath>
    <clipPath id="clip-path-3">
      <path id="Trazado_717181" data-name="Trazado 717181" d="M367.735,268.739l-27.758,25.2c-13.026-11.088-8.83-27.784-8.83-27.784l9.976-7,12.061-8.46a45.661,45.661,0,0,1,11.036,7.375C367.347,261.132,369.5,264.87,367.735,268.739Z" transform="translate(-330.502 -250.69)" fill="#fff" stroke="#263238" stroke-linecap="round" stroke-linejoin="round" stroke-width="1"/>
    </clipPath>
    <clipPath id="clip-path-4">
      <path id="Trazado_717185" data-name="Trazado 717185" d="M359.012,259.231s-4.566-1.034-7.909-7.5-2.955-36.89-2.205-42.92,12.3-9.347,12.845-3.282c.086.922.439,2.731.965,5.169.689,3.127,1.654,7.288,2.688,11.889,3.446,15.412,7.754,35.822,4.816,39.448" transform="translate(-348.385 -202.316)" fill="#fff" stroke="#263238" stroke-linecap="round" stroke-linejoin="round" stroke-width="1"/>
    </clipPath>
    <clipPath id="clip-path-5">
      <path id="Trazado_717189" data-name="Trazado 717189" d="M393.645,158.019v.164c-.448,4.885-6.427,3.963-14.31,5.324-6.031,1.034-13.853,5.893-19.617,9.994-4.54,3.222-7.754,5.97-7.754,5.97s-6.616-4.4-12.6-16.644c0,0,21.641-13.586,24.165-30.394,1.99-13.181,21.09-.267,28.275,17.756C393.188,153.712,393.766,156.245,393.645,158.019Z" transform="translate(-339.37 -127.035)" fill="#fff" stroke="#263238" stroke-linecap="round" stroke-linejoin="round" stroke-width="1"/>
    </clipPath>
    <clipPath id="clip-path-6">
      <path id="Trazado_717195" data-name="Trazado 717195" d="M360.84,177.982s-13.293,10.037-16.11,9.942-6.685-.164-10.4-5.117a9.512,9.512,0,0,1-1.62-9.477,18.1,18.1,0,0,1,.741-1.792c.577-1.258,11.57-12.328,11.57-12.328l2.731.724s1.775,9.933,12.6,16.825Z" transform="translate(-332.097 -159.21)" fill="#ffa031" stroke="#263238" stroke-linecap="round" stroke-linejoin="round" stroke-width="1"/>
    </clipPath>
    <clipPath id="clip-path-7">
      <path id="Trazado_717201" data-name="Trazado 717201" d="M349.12,190.135s5.255,14.646,9.046,17.3,13.595-5.471,12.716-6.892-10.338-10.183-11.854-17.342C359.027,183.243,354.565,183.889,349.12,190.135Z" transform="translate(-349.12 -183.2)" fill="#ffa031" stroke="#263238" stroke-linecap="round" stroke-linejoin="round" stroke-width="1"/>
    </clipPath>
    <clipPath id="clip-path-8">
      <path id="Trazado_717214" data-name="Trazado 717214" d="M395.6,370.057c-1.422.965-4.144.956-7.6.319a78.234,78.234,0,0,1-10.9-3.067,290.4,290.4,0,0,1-28.275-12.061s.043-17.678,10.433-24.527c0,0,13.474,9.227,22.149,11.51C388.683,344.185,395.6,370.057,395.6,370.057Z" transform="translate(-348.83 -330.72)" fill="#fff" stroke="#263238" stroke-linecap="round" stroke-linejoin="round" stroke-width="1"/>
    </clipPath>
    <clipPath id="clip-path-9">
      <path id="Trazado_717220" data-name="Trazado 717220" d="M386.242,321.872v.276c-.043,2.533-.758,7.555-2.369,16.455-1.508,8.322-1.792,8.968-2.8,9.39-1.232.508-10.062,2.473-13.827,3.282l-.818.172c-.543.121-1.973-.629-1.878-1.172.448-2.748,3.515-27.568,4.747-28.43,1.869-1.223,13.956-2.378,15.3-2.007a3,3,0,0,1,1.645,2.033Z" transform="translate(-364.545 -319.768)" fill="#999" stroke="#263238" stroke-linecap="round" stroke-linejoin="round" stroke-width="1"/>
    </clipPath>
    <clipPath id="clip-path-10">
      <path id="Trazado_717234" data-name="Trazado 717234" d="M170.686,250.2s-.3,14.094-15.645,21.676l-26.56-37.588C126.611,224.121,147,220.33,147,220.33h0l9.614,12.121Z" transform="translate(-128.359 -220.33)" fill="#fff" stroke="#263238" stroke-linecap="round" stroke-linejoin="round" stroke-width="1"/>
    </clipPath>
    <clipPath id="clip-path-11">
      <path id="Trazado_717238" data-name="Trazado 717238" d="M128.431,229.025c-1.086-2.326,0-7.969,1.93-14.508,2.214-7.5,5.531-16.2,7.969-22.4,1.344-3.446,2.421-6.143,2.877-7.461,2.016-5.746,12.406.284,11.665,6.315s1.421,27.284-3.394,32.737S140,229.051,140,229.051" transform="translate(-128 -182.342)" fill="#fff" stroke="#263238" stroke-linecap="round" stroke-linejoin="round" stroke-width="1"/>
    </clipPath>
    <clipPath id="clip-path-12">
      <rect id="Rectángulo_347140" data-name="Rectángulo 347140" width="59.013" height="43.291" transform="translate(0 47.833) rotate(-54.15)" fill="#ffa031" stroke="#263238" stroke-linecap="round" stroke-linejoin="round" stroke-width="1"/>
    </clipPath>
    <clipPath id="clip-path-13">
      <path id="Trazado_717251" data-name="Trazado 717251" d="M145.186,356.287s-40.93,14.827-47.616,6.771a88.321,88.321,0,0,1,7.151-15.025c2.214-3.5,4.756-6.418,7.306-7.09A96.783,96.783,0,0,0,123.114,337c6.2-2.585,11.639-5.238,11.639-5.238C145.134,338.609,145.186,356.287,145.186,356.287Z" transform="translate(-97.57 -331.76)" fill="#fff" stroke="#263238" stroke-linecap="round" stroke-linejoin="round" stroke-width="1"/>
    </clipPath>
    <clipPath id="clip-path-14">
      <path id="Trazado_717255" data-name="Trazado 717255" d="M99.875,358.747c-9.632.431-10.243-22.244-5.4-55.921,0,0,7.426-14.74,10.855-14.939.922-.052,2.2-.078,3.558-.078,3.7,0,8.072.078,8.072.078s1.981,8.538,2,11.441c0,4.351-1.887,4.842-1.887,4.842.1,4.1-3.213,4.514-6.771,3.954a2.4,2.4,0,0,1-.25.517c-.474.793-1.723,2.266-4.859,2.662-.052,13.138,12.707,33.03,5.953,37.372" transform="translate(-91.508 -287.81)" fill="#fff" stroke="#263238" stroke-linecap="round" stroke-linejoin="round" stroke-width="1"/>
    </clipPath>
    <clipPath id="clip-path-15">
      <path id="Trazado_717263" data-name="Trazado 717263" d="M143.577,283.522c0,7.064-2.886,13.216-7.142,16.446H122.781c-4.308-3.231-7.151-9.382-7.151-16.446v-.862h27.887A5.794,5.794,0,0,1,143.577,283.522Z" transform="translate(-115.63 -282.66)" fill="#757575" stroke="#263238" stroke-linecap="round" stroke-linejoin="round" stroke-width="1"/>
    </clipPath>
    <clipPath id="clip-path-16">
      <path id="Trazado_717274" data-name="Trazado 717274" d="M205.411,391.992s-48.718,8.176-52.225,1.5a7.133,7.133,0,0,1-.706-2.378c-1.146-8.055,5.841-23.941,5.841-23.941,5.419-.517,11.1.861,15.654,2.585h0a45.729,45.729,0,0,1,9.089,4.359l-.362.793-.121.25,11.381.362,10.183.327h.233Z" transform="translate(-152.353 -367.062)" fill="#fff" stroke="#263238" stroke-linecap="round" stroke-linejoin="round" stroke-width="1"/>
    </clipPath>
    <clipPath id="clip-path-17">
      <path id="Trazado_717290" data-name="Trazado 717290" d="M286.35,391.992s48.718,8.176,52.225,1.5a7.133,7.133,0,0,0,.706-2.378c1.146-8.055-5.841-23.941-5.841-23.941-5.419-.517-11.1.861-15.654,2.585h0a45.729,45.729,0,0,0-9.08,4.368l.362.793.121.25-11.381.362-10.183.327h-.233Z" transform="translate(-286.35 -367.062)" fill="#fff" stroke="#263238" stroke-linecap="round" stroke-linejoin="round" stroke-width="1"/>
    </clipPath>
  </defs>
  <g id="Grupo_1005687" data-name="Grupo 1005687" transform="translate(-2107 7251)">
    <g id="Grupo_1004475" data-name="Grupo 1004475" transform="translate(8157 411)">
      <rect id="Rectángulo_346920" data-name="Rectángulo 346920" width="400" height="467" rx="20" transform="translate(-6050 -7662)" fill="#ffa031"/>
      <g id="Multitasking-bro" transform="translate(-6065.994 -7665.752)">
        <g id="freepik--background-simple--inject-2" transform="translate(30.994 52.617)">
          <path id="Trazado_717158" data-name="Trazado 717158" d="M181.048,58.116c97.9-25.4,130.157,41.783,170.579,107.043S434.048,311.744,364.4,362.806H74.075S31.688,352.046,31,294.953c-.526-42,41.447-47.7,55.18-112.117S131.219,71.039,181.048,58.116Z" transform="translate(-30.994 -52.617)" fill="#ffa031"/>
          <path id="Trazado_717159" data-name="Trazado 717159" d="M181.048,58.116c97.9-25.4,130.157,41.783,170.579,107.043S434.048,311.744,364.4,362.806H74.075S31.688,352.046,31,294.953c-.526-42,41.447-47.7,55.18-112.117S131.219,71.039,181.048,58.116Z" transform="translate(-30.994 -52.617)" fill="#fff" opacity="0.7"/>
        </g>
        <g id="freepik--Graphics--inject-2" transform="translate(53.039 201.486)">
          <path id="Trazado_717160" data-name="Trazado 717160" d="M409.52,295.93H387.026a1.086,1.086,0,0,0-1.086,1.086v6.892a1.077,1.077,0,0,0,1.085,1.077h1.465c-.543.956-1.37,2.5-1.163,2.5a34.69,34.69,0,0,0,3.67-2.5H409.52a1.085,1.085,0,0,0,1.085-1.077v-6.892A1.094,1.094,0,0,0,409.52,295.93Z" transform="translate(-102.196 -235.183)" fill="none" stroke="#263238" stroke-linecap="round" stroke-linejoin="round" stroke-width="1"/>
          <path id="Trazado_717161" data-name="Trazado 717161" d="M406.415,311.15H428.91A1.077,1.077,0,0,1,430,312.236v6.892a1.077,1.077,0,0,1-1.086,1.086h-1.465c.534.956,1.37,2.5,1.163,2.5a34.7,34.7,0,0,1-3.67-2.5H406.415a1.085,1.085,0,0,1-1.086-1.086v-6.892A1.086,1.086,0,0,1,406.415,311.15Z" transform="translate(-104.881 -237.291)" fill="none" stroke="#263238" stroke-linecap="round" stroke-linejoin="round" stroke-width="1"/>
          <path id="Trazado_717162" data-name="Trazado 717162" d="M406.415,279.49H428.91A1.077,1.077,0,0,1,430,280.576v6.892a1.077,1.077,0,0,1-1.086,1.077h-1.465c.534.956,1.37,2.5,1.163,2.5a34.7,34.7,0,0,1-3.67-2.5H406.415a1.085,1.085,0,0,1-1.086-1.077v-6.892A1.086,1.086,0,0,1,406.415,279.49Z" transform="translate(-104.881 -232.906)" fill="none" stroke="#263238" stroke-linecap="round" stroke-linejoin="round" stroke-width="1"/>
          <path id="Trazado_717163" data-name="Trazado 717163" d="M91.357,231.64a5.169,5.169,0,0,0-5.212-6.22c-3.084,0-5.807,5.169-5.807,5.169s-3.653-3.661-6.892-3.98-6.16,3.17-4.652,7.754c2.171,6.565,12.182,10.889,12.182,10.889S90.125,238.945,91.357,231.64Z" transform="translate(-58.217 -225.417)" fill="none" stroke="#263238" stroke-linecap="round" stroke-linejoin="round" stroke-width="1"/>
          <path id="Trazado_717164" data-name="Trazado 717164" d="M68.013,247.155a2.765,2.765,0,0,0-3.842-1.964c-1.5.646-1.783,3.7-1.783,3.7s-2.585-1.034-4.178-.534-2.361,2.809-.681,4.738c2.421,2.783,8.2,2.852,8.2,2.852S68.909,251.023,68.013,247.155Z" transform="translate(-56.583 -228.122)" fill="none" stroke="#263238" stroke-linecap="round" stroke-linejoin="round" stroke-width="1"/>
          <path id="Trazado_717165" data-name="Trazado 717165" d="M75.573,252.46c-8.615,8.882-2.981,21.253,6.1,21.1,10.278-.164,9.477-16.86,4.609-9.175s7.28,20.676,13.62,13.19" transform="translate(-58.621 -229.163)" fill="none" stroke="#263238" stroke-linecap="round" stroke-linejoin="round" stroke-width="1"/>
        </g>
        <g id="freepik--speech-bubble--inject-2" transform="translate(169.349 106.283)">
          <path id="Trazado_717166" data-name="Trazado 717166" d="M291.878,152.644c0-20.84-22.451-37.734-50.14-37.734S191.59,131.8,191.59,152.644c0,19.642,19.953,35.778,45.436,37.562l4.712,12.294,4.7-12.294C271.891,188.423,291.878,172.286,291.878,152.644Z" transform="translate(-191.59 -114.91)" fill="#fff" stroke="#263238" stroke-linecap="round" stroke-linejoin="round" stroke-width="1"/>
          <path id="Trazado_717167" data-name="Trazado 717167" d="M248.646,148.85V142.82l-3.291-.267a13.337,13.337,0,0,0-1.482-3.575l2.145-2.507-4.247-4.247-2.481,2.18a13.621,13.621,0,0,0-3.575-1.482l-.258-3.291h-6.031l-.258,3.291a13.621,13.621,0,0,0-3.575,1.482l-2.507-2.145-4.247,4.247,2.145,2.507a13.337,13.337,0,0,0-1.482,3.575l-3.291.267v6.031l3.291.258a13.337,13.337,0,0,0,1.482,3.575l-2.145,2.516,4.247,4.239,2.507-2.145a13.061,13.061,0,0,0,3.575,1.482l.258,3.291h6.031l.258-3.291a13.062,13.062,0,0,0,3.575-1.482l2.507,2.145,4.247-4.239-2.145-2.516a13.336,13.336,0,0,0,1.482-3.575ZM232.4,151.624a5.772,5.772,0,1,1,4.087-1.688,5.772,5.772,0,0,1-4.087,1.688Z" transform="translate(-195 -116.949)" fill="#ffa031" stroke="#263238" stroke-linecap="round" stroke-linejoin="round" stroke-width="1"/>
          <path id="Trazado_717168" data-name="Trazado 717168" d="M279.237,158.1v-4.644l-2.541-.2a10.416,10.416,0,0,0-1.146-2.765l1.654-1.938-3.274-3.282-1.947,1.654a10.338,10.338,0,0,0-2.757-1.146l-.207-2.541h-4.669l-.2,2.541a10.416,10.416,0,0,0-2.765,1.146l-1.938-1.654-3.282,3.282,1.654,1.938a10.415,10.415,0,0,0-1.146,2.765l-2.585.2V158.1l2.585.2a10.183,10.183,0,0,0,1.146,2.765l-1.654,1.947,3.282,3.274,1.938-1.654a10.415,10.415,0,0,0,2.765,1.146l.2,2.541h4.644l.207-2.541a10.338,10.338,0,0,0,2.757-1.146l1.947,1.654,3.274-3.274-1.628-1.947A10.338,10.338,0,0,0,276.7,158.3ZM266.7,160.263a4.454,4.454,0,1,1,3.158-1.3A4.463,4.463,0,0,1,266.7,160.263Z" transform="translate(-200.246 -118.833)" fill="#ffa031"/>
          <g id="Grupo_1004476" data-name="Grupo 1004476" transform="translate(53.844 24.407)" clip-path="url(#clip-path)">
            <path id="Trazado_717169" data-name="Trazado 717169" d="M279.237,158.1v-4.644l-2.541-.2a10.416,10.416,0,0,0-1.146-2.765l1.654-1.938-3.274-3.282-1.947,1.654a10.338,10.338,0,0,0-2.757-1.146l-.207-2.541h-4.669l-.2,2.541a10.416,10.416,0,0,0-2.765,1.146l-1.938-1.654-3.282,3.282,1.654,1.938a10.415,10.415,0,0,0-1.146,2.765l-2.585.2V158.1l2.585.2a10.183,10.183,0,0,0,1.146,2.765l-1.654,1.947,3.282,3.274,1.938-1.654a10.415,10.415,0,0,0,2.765,1.146l.2,2.541h4.644l.207-2.541a10.338,10.338,0,0,0,2.757-1.146l1.947,1.654,3.274-3.274-1.628-1.947A10.338,10.338,0,0,0,276.7,158.3ZM266.7,160.263a4.454,4.454,0,1,1,3.158-1.3A4.463,4.463,0,0,1,266.7,160.263Z" transform="translate(-254.09 -143.24)" fill="#fff" opacity="0.5"/>
          </g>
          <path id="Trazado_717171" data-name="Trazado 717171" d="M279.237,158.1v-4.644l-2.541-.2a10.416,10.416,0,0,0-1.146-2.765l1.654-1.938-3.274-3.282-1.947,1.654a10.338,10.338,0,0,0-2.757-1.146l-.207-2.541h-4.669l-.2,2.541a10.416,10.416,0,0,0-2.765,1.146l-1.938-1.654-3.282,3.282,1.654,1.938a10.415,10.415,0,0,0-1.146,2.765l-2.585.2V158.1l2.585.2a10.183,10.183,0,0,0,1.146,2.765l-1.654,1.947,3.282,3.274,1.938-1.654a10.415,10.415,0,0,0,2.765,1.146l.2,2.541h4.644l.207-2.541a10.338,10.338,0,0,0,2.757-1.146l1.947,1.654,3.274-3.274-1.628-1.947A10.338,10.338,0,0,0,276.7,158.3ZM266.7,160.263a4.454,4.454,0,1,1,3.158-1.3A4.463,4.463,0,0,1,266.7,160.263Z" transform="translate(-200.246 -118.833)" fill="none" stroke="#263238" stroke-linecap="round" stroke-linejoin="round" stroke-width="1"/>
          <path id="Trazado_717172" data-name="Trazado 717172" d="M255,177.526v-3.334l-1.826-.146a7.305,7.305,0,0,0-.861-1.981l1.189-1.4-2.352-2.361-1.4,1.189a7.34,7.34,0,0,0-1.99-.862l-.146-1.835h-3.3l-.146,1.835a7.34,7.34,0,0,0-1.99.862l-1.4-1.189-2.352,2.361,1.189,1.4a7.306,7.306,0,0,0-.862,1.981l-1.826.146v3.334l1.826.146a7.366,7.366,0,0,0,.861,1.99l-1.189,1.4,2.352,2.361,1.378-1.2a7.366,7.366,0,0,0,1.99.862l.146,1.826h3.334l.146-1.826a7.366,7.366,0,0,0,1.99-.861l1.4,1.2,2.352-2.361-1.189-1.4a7.365,7.365,0,0,0,.862-1.99Zm-9.011,1.508a3.213,3.213,0,1,1,3.2-3.2,3.213,3.213,0,0,1-3.2,3.2Z" transform="translate(-197.869 -122.096)" fill="#ffa031"/>
          <g id="Grupo_1004477" data-name="Grupo 1004477" transform="translate(39.061 44.704)" clip-path="url(#clip-path-2)">
            <path id="Trazado_717173" data-name="Trazado 717173" d="M255,177.526v-3.334l-1.826-.146a7.305,7.305,0,0,0-.861-1.981l1.189-1.4-2.352-2.361-1.4,1.189a7.34,7.34,0,0,0-1.99-.862l-.146-1.835h-3.3l-.146,1.835a7.34,7.34,0,0,0-1.99.862l-1.4-1.189-2.352,2.361,1.189,1.4a7.306,7.306,0,0,0-.862,1.981l-1.826.146v3.334l1.826.146a7.366,7.366,0,0,0,.861,1.99l-1.189,1.4,2.352,2.361,1.378-1.2a7.366,7.366,0,0,0,1.99.862l.146,1.826h3.334l.146-1.826a7.366,7.366,0,0,0,1.99-.861l1.4,1.2,2.352-2.361-1.189-1.4a7.365,7.365,0,0,0,.862-1.99Zm-9.011,1.508a3.213,3.213,0,1,1,3.2-3.2,3.213,3.213,0,0,1-3.2,3.2Z" transform="translate(-236.93 -166.8)" fill="#fff" opacity="0.7"/>
          </g>
          <path id="Trazado_717175" data-name="Trazado 717175" d="M255,177.526v-3.334l-1.826-.146a7.305,7.305,0,0,0-.861-1.981l1.189-1.4-2.352-2.361-1.4,1.189a7.34,7.34,0,0,0-1.99-.862l-.146-1.835h-3.3l-.146,1.835a7.34,7.34,0,0,0-1.99.862l-1.4-1.189-2.352,2.361,1.189,1.4a7.306,7.306,0,0,0-.862,1.981l-1.826.146v3.334l1.826.146a7.366,7.366,0,0,0,.861,1.99l-1.189,1.4,2.352,2.361,1.378-1.2a7.366,7.366,0,0,0,1.99.862l.146,1.826h3.334l.146-1.826a7.366,7.366,0,0,0,1.99-.861l1.4,1.2,2.352-2.361-1.189-1.4a7.365,7.365,0,0,0,.862-1.99Zm-9.011,1.508a3.213,3.213,0,1,1,3.2-3.2,3.213,3.213,0,0,1-3.2,3.2Z" transform="translate(-197.869 -122.096)" fill="none" stroke="#263238" stroke-linecap="round" stroke-linejoin="round" stroke-width="1"/>
        </g>
        <g id="freepik--Character--inject-2" transform="translate(82.686 94.299)">
          <path id="Trazado_717176" data-name="Trazado 717176" d="M332.812,299.221l-6.117,4.661c-9.528-3.67-8.917-4.5-18.031-5.815-4.721-.681-14.5-.4-22.718,0-7.426.379-13.586.862-13.586.862s18.169-18.092,23.166-20.737,26.939-12.061,27.629-12.371h0S339.7,284.282,332.812,299.221Z" transform="translate(-116.113 -123.826)" fill="#ffa031"/>
          <path id="Trazado_717177" data-name="Trazado 717177" d="M335,299.223l-6.117,4.661c-9.528-3.67-8.917-4.5-18.031-5.815-4.721-.681-14.5-.4-22.718,0,10.226-7.073,37.906-1.275,37.906-1.275s-4.308-5.453-4.618-16.507c-.327-10.64,3.644-14.189,3.946-14.447h0S341.888,284.285,335,299.223Z" transform="translate(-118.297 -123.829)" opacity="0.2"/>
          <path id="Trazado_717178" data-name="Trazado 717178" d="M272.36,298.986s18.169-18.092,23.166-20.737,27.646-12.38,27.646-12.38,16.532,18.419,9.64,33.358l-6.117,4.661" transform="translate(-116.113 -123.833)" fill="none" stroke="#263238" stroke-linecap="round" stroke-linejoin="round" stroke-width="1"/>
          <path id="Trazado_717179" data-name="Trazado 717179" d="M367.735,268.739l-27.758,25.2c-13.026-11.088-8.83-27.784-8.83-27.784l9.976-7,12.061-8.46a45.661,45.661,0,0,1,11.036,7.375C367.347,261.132,369.5,264.87,367.735,268.739Z" transform="translate(-124.165 -121.731)" fill="#fff"/>
          <g id="Grupo_1004478" data-name="Grupo 1004478" transform="translate(206.338 128.959)" clip-path="url(#clip-path-3)">
            <path id="Trazado_717180" data-name="Trazado 717180" d="M365.91,258.065a8.365,8.365,0,0,1-2.869,3.86c-8.977,7.435-16.317,1.809-20.211-2.774l12.061-8.46A45.659,45.659,0,0,1,365.91,258.065Z" transform="translate(-332.21 -250.69)" fill="#ffa031" opacity="0.2"/>
          </g>
          <path id="Trazado_717182" data-name="Trazado 717182" d="M367.735,268.739l-27.758,25.2c-13.026-11.088-8.83-27.784-8.83-27.784l9.976-7,12.061-8.46a45.661,45.661,0,0,1,11.036,7.375C367.347,261.132,369.5,264.87,367.735,268.739Z" transform="translate(-124.165 -121.731)" fill="none" stroke="#263238" stroke-linecap="round" stroke-linejoin="round" stroke-width="1"/>
          <path id="Trazado_717183" data-name="Trazado 717183" d="M359.012,259.231s-4.566-1.034-7.909-7.5-2.955-36.89-2.205-42.92,12.3-9.347,12.845-3.282c.086.922.439,2.731.965,5.169.689,3.127,1.654,7.288,2.688,11.889,3.446,15.412,7.754,35.822,4.816,39.448" transform="translate(-126.641 -115.031)" fill="#fff"/>
          <g id="Grupo_1004479" data-name="Grupo 1004479" transform="translate(221.743 87.285)" clip-path="url(#clip-path-4)">
            <path id="Trazado_717184" data-name="Trazado 717184" d="M366.727,223.939c-5.109-3.782-8.727-10.9-8.727-10.9l6.031-.991C364.728,215.177,365.693,219.338,366.727,223.939Z" transform="translate(-349.716 -203.664)" fill="#ffa031" opacity="0.2"/>
          </g>
          <path id="Trazado_717186" data-name="Trazado 717186" d="M359.012,259.231s-4.566-1.034-7.909-7.5-2.955-36.89-2.205-42.92,12.3-9.347,12.845-3.282c.086.922.439,2.731.965,5.169.689,3.127,1.654,7.288,2.688,11.889,3.446,15.412,7.754,35.822,4.816,39.448" transform="translate(-126.641 -115.031)" fill="none" stroke="#263238" stroke-linecap="round" stroke-linejoin="round" stroke-width="1"/>
          <path id="Trazado_717187" data-name="Trazado 717187" d="M393.645,158.019v.164c-.448,4.885-6.427,3.963-14.31,5.324-6.031,1.034-13.853,5.893-19.617,9.994-4.54,3.222-7.754,5.97-7.754,5.97s-6.616-4.4-12.6-16.644c0,0,21.641-13.586,24.165-30.394,1.99-13.181,21.09-.267,28.275,17.756C393.188,153.712,393.766,156.245,393.645,158.019Z" transform="translate(-125.393 -104.606)" fill="#fff"/>
          <g id="Grupo_1004480" data-name="Grupo 1004480" transform="translate(213.977 22.43)" clip-path="url(#clip-path-5)">
            <path id="Trazado_717188" data-name="Trazado 717188" d="M396.309,162.683c-.448,4.885-6.427,3.963-14.31,5.324-6.031,1.034-13.853,5.893-19.617,9.993-2.585-1.551-4.075-3.05-3.446-4.308,2.662-5.9,12.673-7.8,12.673-7.8s-.862-3.868.706-5.738,7.3,1.869,15.507,4.781C395.1,167.517,396.171,163.536,396.309,162.683Z" transform="translate(-342.06 -131.553)" opacity="0.15"/>
          </g>
          <path id="Trazado_717190" data-name="Trazado 717190" d="M393.645,158.019v.164c-.448,4.885-6.427,3.963-14.31,5.324-6.031,1.034-13.853,5.893-19.617,9.994-4.54,3.222-7.754,5.97-7.754,5.97s-6.616-4.4-12.6-16.644c0,0,21.641-13.586,24.165-30.394,1.99-13.181,21.09-.267,28.275,17.756C393.188,153.712,393.766,156.245,393.645,158.019Z" transform="translate(-125.393 -104.606)" fill="none" stroke="#263238" stroke-linecap="round" stroke-linejoin="round" stroke-width="1"/>
          <path id="Trazado_717191" data-name="Trazado 717191" d="M376.2,145.211c5.3-2,7.34-5.6,8.357-4.79s4.7,3.446,4.109,5.048-5.359,7.082-5.832,8.072" transform="translate(-130.494 -106.443)" fill="none" stroke="#263238" stroke-linecap="round" stroke-linejoin="round" stroke-width="1"/>
          <path id="Trazado_717192" data-name="Trazado 717192" d="M373.072,129.64c-2.852.267-2.473,7.754,4.514,17s13.888,13.44,16.946,12.389.939-5.074.939-5.074" transform="translate(-129.829 -104.966)" fill="none" stroke="#263238" stroke-linecap="round" stroke-linejoin="round" stroke-width="1"/>
          <path id="Trazado_717193" data-name="Trazado 717193" d="M360.84,177.982s-13.293,10.037-16.11,9.942-6.685-.164-10.4-5.117a9.512,9.512,0,0,1-1.62-9.477,18.1,18.1,0,0,1,.741-1.792c.577-1.258,11.57-12.328,11.57-12.328l2.731.724s1.775,9.933,12.6,16.825Z" transform="translate(-124.386 -109.062)" fill="#ffa031"/>
          <g id="Grupo_1004481" data-name="Grupo 1004481" transform="translate(207.711 50.148)" clip-path="url(#clip-path-6)">
            <path id="Trazado_717194" data-name="Trazado 717194" d="M360.84,178.1s-13.293,10.037-16.11,9.942-6.685-.164-10.4-5.117a9.512,9.512,0,0,1-1.62-9.477c.689,2.7,2.016,6.565,4.144,8.1,3.4,2.464,17.558-5.453,17.558-5.453s-7.857-9.675-6.659-16.041c0,0,1.775,9.933,12.6,16.825Z" transform="translate(-332.097 -159.326)" opacity="0.2"/>
          </g>
          <path id="Trazado_717196" data-name="Trazado 717196" d="M360.84,177.982s-13.293,10.037-16.11,9.942-6.685-.164-10.4-5.117a9.512,9.512,0,0,1-1.62-9.477,18.1,18.1,0,0,1,.741-1.792c.577-1.258,11.57-12.328,11.57-12.328l2.731.724s1.775,9.933,12.6,16.825Z" transform="translate(-124.386 -109.062)" fill="none" stroke="#263238" stroke-linecap="round" stroke-linejoin="round" stroke-width="1"/>
          <path id="Trazado_717197" data-name="Trazado 717197" d="M373.072,129.64c-2.852.267-2.473,7.754,4.514,17s13.888,13.44,16.946,12.389.939-5.074.939-5.074a37.355,37.355,0,0,0-8.693-15.171C378.81,130.278,373.072,129.64,373.072,129.64Z" transform="translate(-129.829 -104.966)" opacity="0.15"/>
          <path id="Trazado_717198" data-name="Trazado 717198" d="M375.11,199.06c-.31,3.825-10.519,17.756-17.11,14.74" transform="translate(-127.973 -114.58)" fill="#fff" stroke="#263238" stroke-linecap="round" stroke-linejoin="round" stroke-width="1"/>
          <path id="Trazado_717199" data-name="Trazado 717199" d="M349.12,190.135s5.255,14.646,9.046,17.3,13.595-5.471,12.716-6.892-10.338-10.183-11.854-17.342C359.027,183.243,354.565,183.889,349.12,190.135Z" transform="translate(-126.743 -112.384)" fill="#ffa031"/>
          <g id="Grupo_1004482" data-name="Grupo 1004482" transform="translate(222.377 70.816)" clip-path="url(#clip-path-7)">
            <path id="Trazado_717200" data-name="Trazado 717200" d="M349.12,190.135s5.255,14.646,9.046,17.3,13.595-5.471,12.716-6.892-10.338-10.183-11.854-17.342C359.027,183.243,354.565,183.889,349.12,190.135Z" transform="translate(-349.12 -183.2)" opacity="0.2"/>
          </g>
          <path id="Trazado_717202" data-name="Trazado 717202" d="M349.12,190.135s5.255,14.646,9.046,17.3,13.595-5.471,12.716-6.892-10.338-10.183-11.854-17.342C359.027,183.243,354.565,183.889,349.12,190.135Z" transform="translate(-126.743 -112.384)" fill="none" stroke="#263238" stroke-linecap="round" stroke-linejoin="round" stroke-width="1"/>
          <path id="Trazado_717203" data-name="Trazado 717203" d="M374.6,197.695c.862-3.015-1.292-2.205-.939-5.031s-1.473-2.826-2.05-5.755-2.378-2.636-3.446-5.048-3.687-1.447-6.237-.267-5.979,6.771-5.979,6.771c-.5,3.61,2.516,2.86,2.516,2.86-2.007,3.7,1.335,4.514,1.335,4.514-.181,3.98,2.223,3.446,2.223,3.446a2.042,2.042,0,0,0,1.723,2.162C364.893,201.589,373.707,200.727,374.6,197.695Z" transform="translate(-127.682 -111.992)" fill="#fff" stroke="#263238" stroke-linecap="round" stroke-linejoin="round" stroke-width="1"/>
          <path id="Trazado_717204" data-name="Trazado 717204" d="M358.91,192.079s4.868-5.169,6.358-5.729" transform="translate(-128.099 -112.82)" fill="none" stroke="#263238" stroke-linecap="round" stroke-linejoin="round" stroke-width="1"/>
          <path id="Trazado_717205" data-name="Trazado 717205" d="M360.46,197.415a20,20,0,0,1,7.814-4.945" transform="translate(-128.314 -113.668)" fill="none" stroke="#263238" stroke-linecap="round" stroke-linejoin="round" stroke-width="1"/>
          <path id="Trazado_717206" data-name="Trazado 717206" d="M363,201.7s6.461-3.179,7.418-3.446" transform="translate(-128.666 -114.468)" fill="none" stroke="#263238" stroke-linecap="round" stroke-linejoin="round" stroke-width="1"/>
          <path id="Trazado_717207" data-name="Trazado 717207" d="M351.939,211.17s-4.738-4.385-5.6-6.255-2.516-9.873-1.335-12.061,4.669-5.738,5.212-7.461,3.558,2.05.112,8.942c0,0,4.118,4.98,3.446,10.441" transform="translate(-126.116 -112.63)" fill="#fff" stroke="#263238" stroke-linecap="round" stroke-linejoin="round" stroke-width="1"/>
          <path id="Trazado_717208" data-name="Trazado 717208" d="M402.37,163v.164a.934.934,0,0,0,0-.164Z" transform="translate(-134.118 -109.586)" opacity="0.15"/>
          <path id="Trazado_717209" data-name="Trazado 717209" d="M340.383,355.547s-1.9.767-4.626-2.645c-5.169-6.5-12.966-22.1-18.092-29.576-2.188-3.2-8.236-6.358-14.775-9a195.56,195.56,0,0,0-21.4-6.97s27.517-1.723,34.5.4c6.031,1.809,27.465,14.06,33.6,17.583l1.637.948S352.142,339.264,340.383,355.547Z" transform="translate(-117.377 -129.487)" fill="#ffa031"/>
          <path id="Trazado_717210" data-name="Trazado 717210" d="M343.823,356.773s-1.9.767-4.626-2.645c-5.169-6.5-12.966-22.1-18.092-29.576-2.188-3.2-8.236-6.358-14.775-9,24.984,5.7,33.806,30.756,33.806,30.756s1.327-14.224,12.871-19.737l1.637.948S355.582,340.491,343.823,356.773Z" transform="translate(-120.817 -130.713)" opacity="0.2"/>
          <path id="Trazado_717211" data-name="Trazado 717211" d="M281.51,307.354s27.517-1.723,34.5.4,35.21,18.531,35.21,18.531.922,12.974-10.838,29.291" transform="translate(-117.38 -129.487)" fill="none" stroke="#263238" stroke-linecap="round" stroke-linejoin="round" stroke-width="1"/>
          <path id="Trazado_717212" data-name="Trazado 717212" d="M395.6,370.057c-1.422.965-4.144.956-7.6.319a78.234,78.234,0,0,1-10.9-3.067,290.4,290.4,0,0,1-28.275-12.061s.043-17.678,10.433-24.527c0,0,13.474,9.227,22.149,11.51C388.683,344.185,395.6,370.057,395.6,370.057Z" transform="translate(-126.703 -132.814)" fill="#fff"/>
          <g id="Grupo_1004483" data-name="Grupo 1004483" transform="translate(222.127 197.906)" clip-path="url(#clip-path-8)">
            <path id="Trazado_717213" data-name="Trazado 717213" d="M392.483,373.218a78.234,78.234,0,0,1-10.9-3.067c-1.938-8.951,3.7-18.9,3.7-18.9A41.051,41.051,0,0,0,392.483,373.218Z" transform="translate(-353.31 -333.563)" fill="#ffa031" opacity="0.2"/>
          </g>
          <path id="Trazado_717215" data-name="Trazado 717215" d="M395.6,370.057c-1.422.965-4.144.956-7.6.319a78.234,78.234,0,0,1-10.9-3.067,290.4,290.4,0,0,1-28.275-12.061s.043-17.678,10.433-24.527c0,0,13.474,9.227,22.149,11.51C388.683,344.185,395.6,370.057,395.6,370.057Z" transform="translate(-126.703 -132.814)" fill="none" stroke="#263238" stroke-linecap="round" stroke-linejoin="round" stroke-width="1"/>
          <path id="Trazado_717216" data-name="Trazado 717216" d="M388.433,369.34a28.922,28.922,0,0,1-1.783-6.97" transform="translate(-131.941 -137.197)" fill="#fff" stroke="#263238" stroke-linecap="round" stroke-linejoin="round" stroke-width="1"/>
          <path id="Trazado_717217" data-name="Trazado 717217" d="M388.73,335.8c3.825.6,7.34,8.839,9.709,11.768,0,0,6.746,3.145,7.9,6.117s5.746,14.844-3.377,17.282c-5.247,1.4-9.167,1.163-11.889-1.62" transform="translate(-132.229 -133.518)" fill="#fff" stroke="#263238" stroke-linecap="round" stroke-linejoin="round" stroke-width="1"/>
          <path id="Trazado_717218" data-name="Trazado 717218" d="M386.242,321.872v.276c-.043,2.533-.758,7.555-2.369,16.455-1.508,8.322-1.792,8.968-2.8,9.39-1.232.508-10.062,2.473-13.827,3.282l-.818.172c-.543.121-1.973-.629-1.878-1.172.448-2.748,3.515-27.568,4.747-28.43,1.869-1.223,13.956-2.378,15.3-2.007a3,3,0,0,1,1.645,2.033Z" transform="translate(-128.879 -131.297)" fill="#999"/>
          <g id="Grupo_1004484" data-name="Grupo 1004484" transform="translate(235.665 188.471)" clip-path="url(#clip-path-9)">
            <path id="Trazado_717219" data-name="Trazado 717219" d="M386.676,322.53c-.043,2.533-.758,7.555-2.369,16.455-1.508,8.322-1.792,8.968-2.8,9.39-1.232.508-10.062,2.473-13.827,3.282.457-3.592,1.835-13.629,4.678-27.379Z" transform="translate(-364.979 -320.151)" opacity="0.2"/>
          </g>
          <path id="Trazado_717221" data-name="Trazado 717221" d="M386.242,321.872v.276c-.043,2.533-.758,7.555-2.369,16.455-1.508,8.322-1.792,8.968-2.8,9.39-1.232.508-10.062,2.473-13.827,3.282l-.818.172c-.543.121-1.973-.629-1.878-1.172.448-2.748,3.515-27.568,4.747-28.43,1.869-1.223,13.956-2.378,15.3-2.007a3,3,0,0,1,1.645,2.033Z" transform="translate(-128.879 -131.297)" fill="none" stroke="#263238" stroke-linecap="round" stroke-linejoin="round" stroke-width="1"/>
          <path id="Trazado_717222" data-name="Trazado 717222" d="M367.48,349.905s4.015-23.4,4.376-24.837.724-.862,12.785-2.438" transform="translate(-129.286 -131.694)" fill="none" stroke="#263238" stroke-linecap="round" stroke-linejoin="round" stroke-width="1"/>
          <path id="Trazado_717223" data-name="Trazado 717223" d="M384.73,358.691s-6.246,2.231-5.815-1.577a3.5,3.5,0,0,1-1.439-2.585,7.753,7.753,0,0,1,1.008-3.3s-2.369,4.092-4.385,1.723c-.525-.62,1.62-5.066,1.62-5.066a1.938,1.938,0,0,1-2.912-1.034c-.284-.681,3.007-6.8,3.73-7.254,2.412-1.516,8.693-4.755,10.846-3.524s2.869,5.1,4.161,6.539.577,6.315,0,9.761" transform="translate(-130.021 -133.518)" fill="#fff" stroke="#263238" stroke-linecap="round" stroke-linejoin="round" stroke-width="1"/>
          <path id="Trazado_717224" data-name="Trazado 717224" d="M376.19,348.786a34.7,34.7,0,0,1,2.9-4.411c.646-.5,6.108-2.085,6.108-2.085" transform="translate(-130.492 -134.416)" fill="#fff" stroke="#263238" stroke-linecap="round" stroke-linejoin="round" stroke-width="1"/>
          <path id="Trazado_717225" data-name="Trazado 717225" d="M379.4,353.034c1.361-1.508,2.154-3.248,2.722-3.343s4.954-.75,5.316-.862" transform="translate(-130.937 -135.322)" fill="#fff" stroke="#263238" stroke-linecap="round" stroke-linejoin="round" stroke-width="1"/>
          <path id="Trazado_717226" data-name="Trazado 717226" d="M379.63,359.69c1.525-1.723,3.894-3.549,4.394-3.549s3.3-.362,3.446-.431" transform="translate(-130.969 -136.275)" fill="#fff" stroke="#263238" stroke-linecap="round" stroke-linejoin="round" stroke-width="1"/>
          <path id="Trazado_717227" data-name="Trazado 717227" d="M387.3,361.38a4.041,4.041,0,0,1-3.239.784" transform="translate(-131.582 -137.06)" fill="#fff" stroke="#263238" stroke-linecap="round" stroke-linejoin="round" stroke-width="1"/>
          <path id="Trazado_717228" data-name="Trazado 717228" d="M386.65,362.232s5.686,4.747,8.27-.862" transform="translate(-131.941 -137.059)" fill="#fff" stroke="#263238" stroke-linecap="round" stroke-linejoin="round" stroke-width="1"/>
          <path id="Trazado_717229" data-name="Trazado 717229" d="M215.565,296.576l-6.16-.164c-8.391-.207-22.787-.517-26.2-.3a39.261,39.261,0,0,0-12.44,3.317l-13.9-18.953c2.119-26.267,18.867-29.145,18.867-29.145s11.829,13.5,16.136,17.178S215.565,296.576,215.565,296.576Z" transform="translate(-100.118 -121.819)" fill="#ffa031"/>
          <path id="Trazado_717230" data-name="Trazado 717230" d="M209.4,296.413c-8.391-.207-22.787-.517-26.2-.3a39.261,39.261,0,0,0-12.44,3.317l-13.9-18.953c2.119-26.267,18.867-29.145,18.867-29.145s.982,16.084-11.863,27.043c0,0,3.963,11.131,12.613,13.336S202.056,292.105,209.4,296.413Z" transform="translate(-100.118 -121.819)" opacity="0.2"/>
          <path id="Trazado_717231" data-name="Trazado 717231" d="M215.565,296.576s-19.384-24.389-23.691-28.068-16.136-17.178-16.136-17.178-16.748,2.877-18.867,29.145l13.9,18.953" transform="translate(-100.118 -121.819)" fill="none" stroke="#263238" stroke-linecap="round" stroke-linejoin="round" stroke-width="1"/>
          <path id="Trazado_717232" data-name="Trazado 717232" d="M170.686,250.2s-.3,14.094-15.645,21.676l-26.56-37.588C126.611,224.121,147,220.33,147,220.33h0l9.614,12.121Z" transform="translate(-96.17 -117.526)" fill="#fff"/>
          <g id="Grupo_1004485" data-name="Grupo 1004485" transform="translate(32.189 102.804)" clip-path="url(#clip-path-10)">
            <path id="Trazado_717233" data-name="Trazado 717233" d="M158.123,232.471c-8.968,7.09-18.953-.56-18.953-.56l9.33-11.561Z" transform="translate(-129.857 -220.333)" fill="#ffa031" opacity="0.2"/>
          </g>
          <path id="Trazado_717235" data-name="Trazado 717235" d="M170.686,250.2s-.3,14.094-15.645,21.676l-26.56-37.588C126.611,224.121,147,220.33,147,220.33h0l9.614,12.121Z" transform="translate(-96.17 -117.526)" fill="none" stroke="#263238" stroke-linecap="round" stroke-linejoin="round" stroke-width="1"/>
          <path id="Trazado_717236" data-name="Trazado 717236" d="M128.431,229.025c-1.086-2.326,0-7.969,1.93-14.508,2.214-7.5,5.531-16.2,7.969-22.4,1.344-3.446,2.421-6.143,2.877-7.461,2.016-5.746,12.406.284,11.665,6.315s1.421,27.284-3.394,32.737S140,229.051,140,229.051" transform="translate(-96.12 -112.265)" fill="#fff"/>
          <g id="Grupo_1004486" data-name="Grupo 1004486" transform="translate(31.88 70.077)" clip-path="url(#clip-path-11)">
            <path id="Trazado_717237" data-name="Trazado 717237" d="M145.67,189.64s-3.894,23.261-7.633,24.613a36.906,36.906,0,0,1-7.3,1.275c2.214-7.5,5.531-16.2,7.969-22.4Z" transform="translate(-128.38 -183.352)" fill="#ffa031" opacity="0.2"/>
          </g>
          <path id="Trazado_717239" data-name="Trazado 717239" d="M128.431,229.025c-1.086-2.326,0-7.969,1.93-14.508,2.214-7.5,5.531-16.2,7.969-22.4,1.344-3.446,2.421-6.143,2.877-7.461,2.016-5.746,12.406.284,11.665,6.315s1.421,27.284-3.394,32.737S140,229.051,140,229.051" transform="translate(-96.12 -112.265)" fill="none" stroke="#263238" stroke-linecap="round" stroke-linejoin="round" stroke-width="1"/>
          <path id="Trazado_717240" data-name="Trazado 717240" d="M131.671,192.435a2.412,2.412,0,0,1-3.377.543L92,166.754a2.4,2.4,0,0,1-.543-3.369l35.5-49.106a2.421,2.421,0,0,1,3.377-.543l36.3,26.224a2.421,2.421,0,0,1,.551,3.377Z" transform="translate(-90.995 -102.7)" fill="#bfbfbf" stroke="#263238" stroke-miterlimit="10" stroke-width="1"/>
          <rect id="Rectángulo_347137" data-name="Rectángulo 347137" width="5.384" height="23.278" transform="translate(45.41 20.956) rotate(-54.15)" fill="#ffa031" stroke="#263238" stroke-linecap="round" stroke-linejoin="round" stroke-width="1"/>
          <rect id="Rectángulo_347138" data-name="Rectángulo 347138" width="59.013" height="43.291" transform="translate(3.491 61.872) rotate(-54.15)" fill="#ffa031"/>
          <g id="Grupo_1004487" data-name="Grupo 1004487" transform="translate(3.491 14.039)" clip-path="url(#clip-path-12)">
            <rect id="Rectángulo_347139" data-name="Rectángulo 347139" width="59.013" height="43.291" transform="translate(0 47.833) rotate(-54.15)" fill="#fff" opacity="0.7"/>
          </g>
          <rect id="Rectángulo_347141" data-name="Rectángulo 347141" width="59.013" height="43.291" transform="translate(3.491 61.872) rotate(-54.15)" fill="none" stroke="#263238" stroke-linecap="round" stroke-linejoin="round" stroke-width="1"/>
          <path id="Trazado_717241" data-name="Trazado 717241" d="M162.183,134.666l-1.913,2.653a.913.913,0,0,1-1.275.2l-4.781-3.446a1.9,1.9,0,0,0-2.955-2.137l-4.79-3.446a.9.9,0,0,1-.2-1.275l1.913-2.645a.922.922,0,0,1,1.275-.207l12.518,9.046A.913.913,0,0,1,162.183,134.666Z" transform="translate(-98.626 -104.212)" fill="none" stroke="#263238" stroke-linecap="round" stroke-linejoin="round" stroke-width="1"/>
          <path id="Trazado_717242" data-name="Trazado 717242" d="M152.9,192.02s5.479-3.446,6.677-5.074,4.308-9.227,3.575-11.57-3.5-6.513-3.7-8.3-3.885,1.344-1.8,8.753c0,0-4.98,4.127-5.35,9.614" transform="translate(-99.486 -110.082)" fill="#fff" stroke="#263238" stroke-linecap="round" stroke-linejoin="round" stroke-width="1"/>
          <path id="Trazado_717243" data-name="Trazado 717243" d="M145.821,157.345a11.777,11.777,0,1,1-3.449-8.336,11.785,11.785,0,0,1,3.449,8.336Z" transform="translate(-95.324 -107.171)" fill="#fff" stroke="#263238" stroke-linecap="round" stroke-linejoin="round" stroke-width="1"/>
          <path id="Trazado_717244" data-name="Trazado 717244" d="M129.13,154.33l1.439,8.271,13.172-3.575" transform="translate(-96.277 -108.386)" fill="#fff" stroke="#263238" stroke-linecap="round" stroke-linejoin="round" stroke-width="1"/>
          <path id="Trazado_717245" data-name="Trazado 717245" d="M208.939,308.355s-16.911,2.7-29.636,9.58a40.533,40.533,0,0,0-7.116,4.773c-5.919,5.074-11.088,15.585-15.507,23.915-3.773,7.1-6.625,9.925-6.625,9.925-11.751-16.283-10.838-29.291-10.838-29.291l.112-.06c1.913-1.12,28.292-16.429,35.1-18.471C181.423,306.657,208.939,308.355,208.939,308.355Z" transform="translate(-97.671 -129.626)" fill="#ffa031"/>
          <path id="Trazado_717246" data-name="Trazado 717246" d="M179.3,319.58a40.533,40.533,0,0,0-7.116,4.773c-5.919,5.074-11.088,15.585-15.507,23.915-3.773,7.1-6.625,9.925-6.625,9.925C138.3,341.91,139.217,328.9,139.217,328.9l.112-.06c.862-.4,7-2.429,15.085,13.095C154.423,341.971,160.014,323.715,179.3,319.58Z" transform="translate(-97.671 -131.271)" opacity="0.2"/>
          <path id="Trazado_717247" data-name="Trazado 717247" d="M118.912,286.8s-7.392-1.913-5.169,5.014,10.14,6.7,10.14,6.7" transform="translate(-94.088 -126.698)" fill="#fff" stroke="#263238" stroke-linecap="round" stroke-linejoin="round" stroke-width="1"/>
          <path id="Trazado_717248" data-name="Trazado 717248" d="M208.941,308.354s-27.517-1.723-34.5.4-35.21,18.531-35.21,18.531-.913,12.974,10.838,29.291" transform="translate(-97.673 -129.625)" fill="none" stroke="#263238" stroke-linecap="round" stroke-linejoin="round" stroke-width="1"/>
          <path id="Trazado_717249" data-name="Trazado 717249" d="M145.186,356.287s-40.93,14.827-47.616,6.771a88.321,88.321,0,0,1,7.151-15.025c2.214-3.5,4.756-6.418,7.306-7.09A96.783,96.783,0,0,0,123.114,337c6.2-2.585,11.639-5.238,11.639-5.238C145.134,338.609,145.186,356.287,145.186,356.287Z" transform="translate(-91.906 -132.958)" fill="#fff"/>
          <g id="Grupo_1004488" data-name="Grupo 1004488" transform="translate(5.664 198.802)" clip-path="url(#clip-path-13)">
            <path id="Trazado_717250" data-name="Trazado 717250" d="M124.263,337.84c-1.172,5.539-4.463,15.869-12.724,15.2a5.959,5.959,0,0,1-5.669-4.161c2.214-3.5,4.756-6.418,7.306-7.09a96.783,96.783,0,0,0,11.088-3.946Z" transform="translate(-98.719 -332.602)" fill="#ffa031" opacity="0.2"/>
          </g>
          <path id="Trazado_717252" data-name="Trazado 717252" d="M145.186,356.287s-40.93,14.827-47.616,6.771a88.321,88.321,0,0,1,7.151-15.025c2.214-3.5,4.756-6.418,7.306-7.09A96.783,96.783,0,0,0,123.114,337c6.2-2.585,11.639-5.238,11.639-5.238C145.134,338.609,145.186,356.287,145.186,356.287Z" transform="translate(-91.906 -132.958)" fill="none" stroke="#263238" stroke-linecap="round" stroke-linejoin="round" stroke-width="1"/>
          <path id="Trazado_717253" data-name="Trazado 717253" d="M99.875,358.747c-9.632.431-10.243-22.244-5.4-55.921,0,0,7.426-14.74,10.855-14.939.922-.052,2.2-.078,3.558-.078,3.7,0,8.072.078,8.072.078s1.981,8.538,2,11.441c0,4.351-1.887,4.842-1.887,4.842.1,4.1-3.213,4.514-6.771,3.954a2.4,2.4,0,0,1-.25.517c-.474.793-1.723,2.266-4.859,2.662-.052,13.138,12.707,33.03,5.953,37.372" transform="translate(-91.066 -126.871)" fill="#fff"/>
          <g id="Grupo_1004489" data-name="Grupo 1004489" transform="translate(0.442 160.939)" clip-path="url(#clip-path-14)">
            <path id="Trazado_717254" data-name="Trazado 717254" d="M121.747,299.328c0,4.351-1.887,4.842-1.887,4.842.1,4.1-3.213,4.514-6.771,3.954a2.4,2.4,0,0,1-.25.517l1.094-3.3a2.774,2.774,0,0,0,1.835.146c2.154-1.06,1.025-4.773,1.025-4.773a2.473,2.473,0,0,0,1.568-2.025c.336-1.723-3.446-2.843-3.446-2.843,1.18-1.973-1.447-3.86-1.447-3.86.939-1.413-.284-2.964-1.818-4.178,3.7,0,8.072.078,8.072.078S121.73,296.425,121.747,299.328Z" transform="translate(-94.298 -287.81)" fill="#ffa031" opacity="0.2"/>
          </g>
          <path id="Trazado_717256" data-name="Trazado 717256" d="M99.875,358.747c-9.632.431-10.243-22.244-5.4-55.921,0,0,7.426-14.74,10.855-14.939.922-.052,2.2-.078,3.558-.078,3.7,0,8.072.078,8.072.078s1.981,8.538,2,11.441c0,4.351-1.887,4.842-1.887,4.842.1,4.1-3.213,4.514-6.771,3.954a2.4,2.4,0,0,1-.25.517c-.474.793-1.723,2.266-4.859,2.662-.052,13.138,12.707,33.03,5.953,37.372" transform="translate(-91.066 -126.871)" fill="none" stroke="#263238" stroke-linecap="round" stroke-linejoin="round" stroke-width="1"/>
          <path id="Trazado_717257" data-name="Trazado 717257" d="M119.805,299.3c-1.189-2.188-2.335-.922-8.055-2.309a23.375,23.375,0,0,0,6.522-.31" transform="translate(-93.87 -128.1)" fill="none" stroke="#263238" stroke-linecap="round" stroke-linejoin="round" stroke-width="1"/>
          <path id="Trazado_717258" data-name="Trazado 717258" d="M111,292.11c.775.345,4.144.095,5.72,0" transform="translate(-93.766 -127.467)" fill="none" stroke="#263238" stroke-linecap="round" stroke-linejoin="round" stroke-width="1"/>
          <path id="Trazado_717259" data-name="Trazado 717259" d="M113.32,302.824c0-.164,4.816.241,5.6.81s1.275,2.705,1.275,2.705" transform="translate(-94.087 -128.946)" fill="none" stroke="#263238" stroke-linecap="round" stroke-linejoin="round" stroke-width="1"/>
          <path id="Trazado_717260" data-name="Trazado 717260" d="M117.022,308.16c-.362.327-2.86,0-2.86,0a7.753,7.753,0,0,1-.861,2.783" transform="translate(-94.084 -129.69)" fill="none" stroke="#263238" stroke-linecap="round" stroke-linejoin="round" stroke-width="1"/>
          <path id="Trazado_717261" data-name="Trazado 717261" d="M143.577,283.522c0,7.064-2.886,13.216-7.142,16.446H122.781c-4.308-3.231-7.151-9.382-7.151-16.446v-.862h27.887A5.794,5.794,0,0,1,143.577,283.522Z" transform="translate(-94.407 -126.158)" fill="#757575"/>
          <g id="Grupo_1004490" data-name="Grupo 1004490" transform="translate(21.223 156.502)" clip-path="url(#clip-path-15)">
            <path id="Trazado_717262" data-name="Trazado 717262" d="M133.119,299.158l-.06.81H122.781c-4.308-3.231-7.151-9.382-7.151-16.446v-.862h3.033C120.79,287.8,125.425,296.625,133.119,299.158Z" transform="translate(-115.63 -282.66)" opacity="0.2"/>
          </g>
          <path id="Trazado_717264" data-name="Trazado 717264" d="M143.577,283.522c0,7.064-2.886,13.216-7.142,16.446H122.781c-4.308-3.231-7.151-9.382-7.151-16.446v-.862h27.887A5.794,5.794,0,0,1,143.577,283.522Z" transform="translate(-94.407 -126.158)" fill="none" stroke="#263238" stroke-linecap="round" stroke-linejoin="round" stroke-width="1"/>
          <path id="Trazado_717265" data-name="Trazado 717265" d="M138.377,301.81H122.551l-.741,2.119h17.308Z" transform="translate(-95.263 -128.81)" fill="#757575" stroke="#263238" stroke-linecap="round" stroke-linejoin="round" stroke-width="1"/>
          <path id="Trazado_717266" data-name="Trazado 717266" d="M139.118,303.929l-.741-2.119H122.551l-.741,2.119" transform="translate(-95.263 -128.81)" opacity="0.2"/>
          <path id="Trazado_717267" data-name="Trazado 717267" d="M126.562,262.71c-2.4,4.127,4.04,8.012.861,13.672" transform="translate(-95.845 -123.395)" fill="none" stroke="#263238" stroke-linecap="round" stroke-linejoin="round" stroke-width="1"/>
          <path id="Trazado_717268" data-name="Trazado 717268" d="M131.352,262.71c-2.4,4.135,4.04,8.012.862,13.672" transform="translate(-96.508 -123.395)" fill="none" stroke="#263238" stroke-linecap="round" stroke-linejoin="round" stroke-width="1"/>
          <path id="Trazado_717269" data-name="Trazado 717269" d="M136.482,262.71c-2.4,4.135,4.04,8.012.862,13.672" transform="translate(-97.219 -123.395)" fill="none" stroke="#263238" stroke-linecap="round" stroke-linejoin="round" stroke-width="1"/>
          <path id="Trazado_717270" data-name="Trazado 717270" d="M301.115,329.784c-6.125-10.45-31.462-19.539-59.608-20.676h-.224l-2.765-.078h-2.809l-2.765.078H232.7c-28.137,1.12-53.465,10.217-59.591,20.676-6.539,11.157-16.222,29.11-16.222,29.11,5.428,8.787,26.276,9.968,26.276,9.968l1.111,23.64H289.95l1.111-23.64s20.849-1.18,26.276-9.968C317.337,358.894,307.654,340.94,301.115,329.784Z" transform="translate(-100.121 -129.81)" fill="#ffa031" stroke="#263238" stroke-linecap="round" stroke-linejoin="round" stroke-width="1"/>
          <path id="Trazado_717271" data-name="Trazado 717271" d="M205.411,391.992s-48.718,8.176-52.225,1.5a7.133,7.133,0,0,1-.706-2.378c-1.146-8.055,5.841-23.941,5.841-23.941,5.419-.517,11.1.861,15.654,2.585h0a45.729,45.729,0,0,1,9.089,4.359l-.362.793-.121.25,11.381.362,10.183.327h.233Z" transform="translate(-99.493 -137.847)" fill="#fff"/>
          <g id="Grupo_1004491" data-name="Grupo 1004491" transform="translate(52.86 229.215)" clip-path="url(#clip-path-16)">
            <path id="Trazado_717272" data-name="Trazado 717272" d="M185.108,375.339c-11.148.215-15.378,1.723-15.378,1.723a25.993,25.993,0,0,1,6.651-6.892h0a45.728,45.728,0,0,1,9.089,4.376Z" transform="translate(-154.759 -367.493)" fill="#ffa031" opacity="0.2"/>
            <path id="Trazado_717273" data-name="Trazado 717273" d="M205.431,393.287s-48.718,8.176-52.225,1.5a7.133,7.133,0,0,1-.706-2.378,11.9,11.9,0,0,0,3.765.862c6.375.224,38.527-3.748,38.527-3.748l-.81-12.7v-.414c3.084.155,6.479.388,10.209.741h.233Z" transform="translate(-152.373 -368.357)" fill="#ffa031" opacity="0.2"/>
          </g>
          <path id="Trazado_717275" data-name="Trazado 717275" d="M205.411,391.992s-48.718,8.176-52.225,1.5a7.133,7.133,0,0,1-.706-2.378c-1.146-8.055,5.841-23.941,5.841-23.941,5.419-.517,11.1.861,15.654,2.585h0a45.729,45.729,0,0,1,9.089,4.359l-.362.793-.121.25,11.381.362,10.183.327h.233Z" transform="translate(-99.493 -137.847)" fill="none" stroke="#263238" stroke-linecap="round" stroke-linejoin="round" stroke-width="1"/>
          <path id="Trazado_717276" data-name="Trazado 717276" d="M184.8,376.458s-11.51-.31-16.412,1.938" transform="translate(-101.714 -139.146)" fill="none" stroke="#263238" stroke-linecap="round" stroke-linejoin="round" stroke-width="1"/>
          <path id="Trazado_717277" data-name="Trazado 717277" d="M307.463,367.693s-4.514-20.866,4.23-30.963" transform="translate(-120.813 -133.646)" fill="none" stroke="#263238" stroke-linecap="round" stroke-linejoin="round" stroke-width="1"/>
          <path id="Trazado_717278" data-name="Trazado 717278" d="M315.415,348.79s-5.919,4.308-7,11.277" transform="translate(-121.107 -135.317)" fill="none" stroke="#263238" stroke-linecap="round" stroke-linejoin="round" stroke-width="1"/>
          <path id="Trazado_717279" data-name="Trazado 717279" d="M187.44,333.91a54.137,54.137,0,0,1,3.368,34.538" transform="translate(-104.352 -133.256)" fill="none" stroke="#263238" stroke-linecap="round" stroke-linejoin="round" stroke-width="1"/>
          <path id="Trazado_717280" data-name="Trazado 717280" d="M180.71,342.29s6.315,3.842,9.166,9.838" transform="translate(-103.42 -134.416)" fill="none" stroke="#263238" stroke-linecap="round" stroke-linejoin="round" stroke-width="1"/>
          <path id="Trazado_717281" data-name="Trazado 717281" d="M266.391,312s-9.339,23.838-37.131,10.915" transform="translate(-110.144 -130.222)" fill="none" stroke="#263238" stroke-linecap="round" stroke-linejoin="round" stroke-width="1"/>
          <path id="Trazado_717282" data-name="Trazado 717282" d="M321.216,330.76a22.27,22.27,0,0,0-8.736,11.26" transform="translate(-121.669 -132.82)" fill="none" stroke="#263238" stroke-linecap="round" stroke-linejoin="round" stroke-width="1"/>
          <path id="Trazado_717283" data-name="Trazado 717283" d="M177.38,330.76a18.781,18.781,0,0,1,7.452,8.538" transform="translate(-102.959 -132.82)" fill="none" stroke="#263238" stroke-linecap="round" stroke-linejoin="round" stroke-width="1"/>
          <path id="Trazado_717284" data-name="Trazado 717284" d="M225,311.1s3.093,12.69,20.857,12.983" transform="translate(-109.554 -130.097)" fill="none" stroke="#263238" stroke-linecap="round" stroke-linejoin="round" stroke-width="1"/>
          <path id="Trazado_717285" data-name="Trazado 717285" d="M283.1,326.17s-33.03,32.255-56.429,33.427" transform="translate(-109.785 -132.184)" fill="none" stroke="#263238" stroke-linecap="round" stroke-linejoin="round" stroke-width="1"/>
          <path id="Trazado_717286" data-name="Trazado 717286" d="M205.17,332.5s4.575,10.269,12.923,14.034" transform="translate(-106.808 -133.061)" fill="none" stroke="#263238" stroke-linecap="round" stroke-linejoin="round" stroke-width="1"/>
          <path id="Trazado_717287" data-name="Trazado 717287" d="M286.35,391.992s48.718,8.176,52.225,1.5a7.133,7.133,0,0,0,.706-2.378c1.146-8.055-5.841-23.941-5.841-23.941-5.419-.517-11.1.861-15.654,2.585h0a45.729,45.729,0,0,0-9.08,4.368l.362.793.121.25-11.381.362-10.183.327h-.233Z" transform="translate(-118.05 -137.847)" fill="#fff"/>
          <g id="Grupo_1004492" data-name="Grupo 1004492" transform="translate(168.3 229.215)" clip-path="url(#clip-path-17)">
            <path id="Trazado_717288" data-name="Trazado 717288" d="M312.653,375.339c11.148.215,15.378,1.723,15.378,1.723a25.993,25.993,0,0,0-6.651-6.892h0a45.728,45.728,0,0,0-9.08,4.368Z" transform="translate(-289.944 -367.493)" fill="#ffa031" opacity="0.2"/>
            <path id="Trazado_717289" data-name="Trazado 717289" d="M286.35,393.287s48.718,8.176,52.225,1.5a7.133,7.133,0,0,0,.706-2.378,11.9,11.9,0,0,1-3.765.862c-6.375.224-38.527-3.748-38.527-3.748l.81-12.7v-.414c-3.084.155-6.479.388-10.209.741h-.233Z" transform="translate(-286.35 -368.357)" fill="#ffa031" opacity="0.2"/>
          </g>
          <path id="Trazado_717291" data-name="Trazado 717291" d="M286.35,391.992s48.718,8.176,52.225,1.5a7.133,7.133,0,0,0,.706-2.378c1.146-8.055-5.841-23.941-5.841-23.941-5.419-.517-11.1.861-15.654,2.585h0a45.729,45.729,0,0,0-9.08,4.368l.362.793.121.25-11.381.362-10.183.327h-.233Z" transform="translate(-118.05 -137.847)" fill="none" stroke="#263238" stroke-linecap="round" stroke-linejoin="round" stroke-width="1"/>
          <path id="Trazado_717292" data-name="Trazado 717292" d="M312.85,376.458s11.51-.31,16.369,1.938" transform="translate(-121.72 -139.146)" fill="none" stroke="#263238" stroke-linecap="round" stroke-linejoin="round" stroke-width="1"/>
          <path id="Trazado_717293" data-name="Trazado 717293" d="M263.634,308.7a19.186,19.186,0,0,1-17.506,8.891c-10.019-.5-16.868-8.1-16.868-8.1,3.6-2.921,4.135-9.985,3.885-14.646v-.31c0-.3-.043-.6-.06-.861a39.254,39.254,0,0,0-.922-5.867l29.989,1.5a31.272,31.272,0,0,0-1.964,9.054,17.936,17.936,0,0,0,.233,4.058v.129C261.256,307,263.634,308.7,263.634,308.7Z" transform="translate(-110.144 -126.871)" fill="#fff" stroke="#263238" stroke-miterlimit="10" stroke-width="1"/>
          <path id="Trazado_717294" data-name="Trazado 717294" d="M191.35,391.33v3.2a1.826,1.826,0,0,0,1.826,1.826h96.541a1.826,1.826,0,0,0,1.826-1.826v-3.2Z" transform="translate(-104.894 -141.208)" fill="#757575" stroke="#263238" stroke-linecap="round" stroke-linejoin="round" stroke-width="1"/>
          <path id="Trazado_717295" data-name="Trazado 717295" d="M301.475,336.227l-12.414,46.453a3.351,3.351,0,0,1-1.947,2.119,2.68,2.68,0,0,1-1,.2H192.959a2.68,2.68,0,0,1-1-.2,3.351,3.351,0,0,1-1.947-2.119l-12.44-46.453a1.723,1.723,0,0,1,1.723-2.317H299.778a1.723,1.723,0,0,1,1.7,2.317Z" transform="translate(-102.971 -133.255)" fill="#bfbfbf" stroke="#263238" stroke-miterlimit="10" stroke-width="1"/>
          <path id="Trazado_717296" data-name="Trazado 717296" d="M299.767,339.05l-12.354,46.16a2.679,2.679,0,0,1-1,.2H193.285a2.679,2.679,0,0,1-1-.2l-12.363-46.142a1.723,1.723,0,0,1,1.723-2.317H298.079a1.723,1.723,0,0,1,1.689,2.3Z" transform="translate(-103.296 -133.649)" fill="#999" stroke="#263238" stroke-linecap="round" stroke-linejoin="round" stroke-width="1"/>
          <path id="Trazado_717297" data-name="Trazado 717297" d="M254.682,368.729c-2.757,0-4.988-1.654-4.988-3.687a2.86,2.86,0,0,1,.336-1.327,9.364,9.364,0,0,0-1.654-.155c-3.86,0-7,2.317-7,5.169s3.136,5.169,7,5.169,7-2.309,7-5.169h0C255.147,368.712,254.914,368.729,254.682,368.729Z" transform="translate(-111.822 -137.362)" fill="#bfbfbf" stroke="#263238" stroke-miterlimit="10" stroke-width="1"/>
          <path id="Trazado_717298" data-name="Trazado 717298" d="M262.6,289.3a31.274,31.274,0,0,0-1.964,9.055c-3.257,3.265-7.245,5.686-11.648,5-6.367-1-11.665-5.7-15.455-9.683a39.254,39.254,0,0,0-.922-5.867Z" transform="translate(-110.608 -126.87)" fill="#263238"/>
          <path id="Trazado_717299" data-name="Trazado 717299" d="M274.212,263.888s2.421-2.628,3.61-1.766a5.652,5.652,0,0,1,1.947,5.548c-.646,2.231-3.446,6.117-3.679,8.382s-1.671,4.842-3.265,3.343S274.212,263.888,274.212,263.888Z" transform="translate(-116.112 -123.29)" fill="#fff" stroke="#263238" stroke-miterlimit="10" stroke-width="1"/>
          <path id="Trazado_717300" data-name="Trazado 717300" d="M223.577,263.888s-2.421-2.628-3.61-1.766a5.652,5.652,0,0,0-1.947,5.548c.655,2.231,3.446,6.117,3.679,8.382s1.671,4.842,3.265,3.343S223.577,263.888,223.577,263.888Z" transform="translate(-108.57 -123.29)" fill="#fff" stroke="#263238" stroke-miterlimit="10" stroke-width="1"/>
          <path id="Trazado_717301" data-name="Trazado 717301" d="M245.461,228.94c30.411,0,23.183,40.491,17.583,53.508-1.964,4.575-12.147,10.562-17.075,10.562-4.583,0-15.059-7.159-16.92-11.449C223.389,268.492,216.471,228.94,245.461,228.94Z" transform="translate(-109.416 -118.719)" fill="#fff" stroke="#263238" stroke-miterlimit="10" stroke-width="1"/>
          <path id="Trazado_717302" data-name="Trazado 717302" d="M254.89,266.4s7.754-1.43,10.338,1.628" transform="translate(-113.693 -123.86)" fill="none" stroke="#263238" stroke-linecap="round" stroke-linejoin="round" stroke-width="1"/>
          <path id="Trazado_717303" data-name="Trazado 717303" d="M261.359,272.953c0,.939-.474,1.723-1.06,1.723s-1.06-.758-1.06-1.723.474-1.723,1.06-1.723S261.359,272.023,261.359,272.953Z" transform="translate(-114.296 -124.575)" fill="#263238"/>
          <path id="Trazado_717304" data-name="Trazado 717304" d="M242.448,266.437s-7.151-.637-10.338,1.628" transform="translate(-110.538 -123.9)" fill="none" stroke="#263238" stroke-linecap="round" stroke-linejoin="round" stroke-width="1"/>
          <path id="Trazado_717305" data-name="Trazado 717305" d="M237.3,272.953c0,.939.474,1.723,1.06,1.723s1.06-.758,1.06-1.723-.474-1.723-1.06-1.723S237.3,272.023,237.3,272.953Z" transform="translate(-111.257 -124.575)" fill="#263238"/>
          <path id="Trazado_717306" data-name="Trazado 717306" d="M257.622,238.765a38.44,38.44,0,0,1-23.433,0s-4.109-.233-5.729,1.826,0,8.434.431,11.027-3.558,4.394-3.024,10.95l-1.542,2.257s-4.308-10.545-3.213-19.617,6.806-12.6,6.806-12.6,2.585-7.84,17.919-7.754c16.489.069,18.161,8.994,18.161,8.994s11.2,7.452,2.912,31.755l-1.8-3.015a13.611,13.611,0,0,0-2.085-9.218c-1.439-2.1.862-8.426.319-11.665S257.622,238.765,257.622,238.765Z" transform="translate(-108.991 -118.153)" fill="#263238"/>
          <path id="Trazado_717307" data-name="Trazado 717307" d="M251.028,271.27s.457,6.892,1.8,9.546-3.351,3.076-5.359,1.516" transform="translate(-112.666 -124.581)" fill="none" stroke="#263238" stroke-linecap="round" stroke-linejoin="round" stroke-width="1"/>
          <path id="Trazado_717308" data-name="Trazado 717308" d="M242.71,290.55c0,1.051,3.446,2.378,6.892,2.378s5.979-1.43,5.471-1.956" transform="translate(-112.006 -127.251)" fill="none" stroke="#263238" stroke-linecap="round" stroke-linejoin="round" stroke-width="1"/>
          <path id="Trazado_717309" data-name="Trazado 717309" d="M266.621,243.157s-4.463,6.031-14.594,10.261v-2.895s-9.158,5.29-17.411,4.48l1.869-3.756s-6.961,7.366-12.845,7.082-7.59-33.539,22.089-33.539C269.851,224.79,266.621,243.157,266.621,243.157Z" transform="translate(-108.883 -118.144)" fill="#263238"/>
          <path id="Trazado_717310" data-name="Trazado 717310" d="M268.271,246.791a16.6,16.6,0,0,0,6.711,15.24s4.911-5.29,3.015-15.24-6.22-10.261-6.22-10.261Z" transform="translate(-115.53 -119.77)" fill="#263238"/>
          <path id="Trazado_717311" data-name="Trazado 717311" d="M261.675,232.5s-3.093,13.138-14.465,19.815" transform="translate(-112.63 -119.212)" fill="none" stroke="#fff" stroke-miterlimit="10" stroke-width="1" opacity="0.2"/>
          <path id="Trazado_717312" data-name="Trazado 717312" d="M251.778,232.5s-5.04,12.923-23.778,15.076" transform="translate(-109.969 -119.212)" fill="none" stroke="#fff" stroke-miterlimit="10" stroke-width="1" opacity="0.2"/>
          <path id="Trazado_717313" data-name="Trazado 717313" d="M268.445,238.11s.078,6.8-4.445,10.243" transform="translate(-114.955 -119.988)" fill="none" stroke="#fff" stroke-miterlimit="10" stroke-width="1" opacity="0.2"/>
          <line id="Línea_2607" data-name="Línea 2607" y1="16.593" x2="8.555" transform="translate(262.247)" fill="#fff" stroke="#263238" stroke-linecap="round" stroke-linejoin="round" stroke-width="1"/>
          <line id="Línea_2608" data-name="Línea 2608" y1="11.553" x2="19.246" transform="translate(270.802 14.043)" fill="#fff" stroke="#263238" stroke-linecap="round" stroke-linejoin="round" stroke-width="1"/>
          <line id="Línea_2609" data-name="Línea 2609" y1="1.06" x2="16.705" transform="translate(278.763 38.389)" fill="#fff" stroke="#263238" stroke-linecap="round" stroke-linejoin="round" stroke-width="1"/>
        </g>
        <g id="freepik--Table--inject-2" transform="translate(74.075 349.453)">
          <path id="Trazado_717314" data-name="Trazado 717314" d="M94.353,410.523H81V399.074a1.9,1.9,0,0,1,1.9-1.9H369.4a1.9,1.9,0,0,1,1.9,1.9v11.449" transform="translate(-81 -397.17)" fill="#fff" stroke="#263238" stroke-miterlimit="10" stroke-width="1"/>
          <line id="Línea_2610" data-name="Línea 2610" x1="119.147" transform="translate(155.675 13.353)" fill="none" stroke="#263238" stroke-miterlimit="10" stroke-width="1"/>
          <line id="Línea_2611" data-name="Línea 2611" x1="8.555" transform="translate(138.582 13.353)" fill="none" stroke="#263238" stroke-miterlimit="10" stroke-width="1"/>
          <line id="Línea_2612" data-name="Línea 2612" x1="62.882" transform="translate(20.245 13.353)" fill="none" stroke="#263238" stroke-miterlimit="10" stroke-width="1"/>
        </g>
      </g>
    </g>
  </g>
</svg>
