<svg xmlns="http://www.w3.org/2000/svg" width="400" height="314.447" viewBox="0 0 400 314.447">
  <g id="Grupo_1005686" data-name="Grupo 1005686" transform="translate(-915 -11964.025)">
    <path id="Rectángulo_347089" data-name="Rectángulo 347089" d="M165,0H400a0,0,0,0,1,0,0V180a0,0,0,0,1,0,0H0a0,0,0,0,1,0,0V165A165,165,0,0,1,165,0Z" transform="translate(915 12098.473)" fill="#afafaf"/>
    <g id="Grupo_1004385" data-name="Grupo 1004385" transform="translate(953.421 11937.237)">
      <g id="Floor" transform="translate(14.579 147.142)">
        <path id="Floor-2" data-name="Floor" d="M60.513,233.97c-61.246,35.36-61.245,92.692,0,128.053s160.55,35.36,221.8,0,61.245-92.692,0-128.053S121.76,198.609,60.513,233.97Z" transform="translate(-14.579 -207.449)" fill="#fafafa"/>
      </g>
      <g id="Shadows" transform="translate(40.141 233.96)">
        <ellipse id="Shadow" cx="46.609" cy="26.91" rx="46.609" ry="26.91" transform="translate(196.22 25.216)" fill="#e0e0e0"/>
        <path id="Shadow-2" data-name="Shadow" d="M171.806,338.28,53.83,406.356a1.3,1.3,0,0,0,0,2.455l15.709,9.047a4.7,4.7,0,0,0,4.252,0l117.977-68.076a1.3,1.3,0,0,0,0-2.456l-15.71-9.045A4.7,4.7,0,0,0,171.806,338.28Z" transform="translate(-52.95 -337.771)" fill="#e0e0e0"/>
      </g>
      <g id="Plants" transform="translate(15.551 238.235)">
        <g id="Plants-2" data-name="Plants" transform="translate(0 0)">
          <g id="Grupo_1004331" data-name="Grupo 1004331" transform="translate(13.567)">
            <g id="Grupo_1004328" data-name="Grupo 1004328">
              <path id="Trazado_716904" data-name="Trazado 716904" d="M54.632,413.617l7.426-4.291s4.42-18.365,2.659-34.889c-2.476-23.233-17.77-31.976-23.585-29.972s-7.5,8.764,2.123,22.6C48.931,375.231,55.906,392.236,54.632,413.617Z" transform="translate(-36.403 -344.188)" fill="#008b8a"/>
            </g>
            <g id="Grupo_1004329" data-name="Grupo 1004329" opacity="0.65">
              <path id="Trazado_716905" data-name="Trazado 716905" d="M54.632,413.617l7.426-4.291s4.42-18.365,2.659-34.889c-2.476-23.233-17.77-31.976-23.585-29.972s-7.5,8.764,2.123,22.6C48.931,375.231,55.906,392.236,54.632,413.617Z" transform="translate(-36.403 -344.188)" fill="#fff"/>
            </g>
            <g id="Grupo_1004330" data-name="Grupo 1004330" transform="translate(8.003 3.404)">
              <path id="Trazado_716906" data-name="Trazado 716906" d="M61.719,406.3a.648.648,0,0,1-.071-.009.514.514,0,0,1-.41-.6c4.07-21.429-3.416-45.51-12.685-55.53a.515.515,0,0,1,.757-.7c9.439,10.2,17.071,34.676,12.94,56.421A.515.515,0,0,1,61.719,406.3Z" transform="translate(-48.416 -349.297)" fill="#fff"/>
            </g>
          </g>
          <g id="Grupo_1004336" data-name="Grupo 1004336" transform="translate(0 21.687)">
            <g id="Grupo_1004332" data-name="Grupo 1004332">
              <path id="Trazado_716907" data-name="Trazado 716907" d="M29.144,435.274c-1.109.565-4.06-1.961-4.882-2.575a10.3,10.3,0,0,1-3.224-4.1,9.654,9.654,0,0,1-.564-5.834,22.816,22.816,0,0,1,.887-3.042l1.011-2.946a7.591,7.591,0,0,0,.59-2.993c-.159-2.058-1.9-3.581-3.488-4.9-1.755-1.458-3.563-3.357-3.429-5.817a8.669,8.669,0,0,1,2.428-5.044c1.252-1.431,2.715-2.677,3.858-4.2a6.055,6.055,0,0,0,1.432-3.762,6.326,6.326,0,0,0-.713-2.431,33.871,33.871,0,0,1-2.373-4.924c-.513-1.751-.319-3.888,1.087-5.052a5.646,5.646,0,0,1,4.288-.84,9.736,9.736,0,0,1,3.869,1.585c3.8,2.37,5.794,7.109,9.856,8.99a41.535,41.535,0,0,0,4.956,1.48,6.2,6.2,0,0,1,4,3.042c1.369,3.116-1.645,6.72-.737,10,.8,2.9,3.522,4.136,4.951,6.788a6.115,6.115,0,0,1,.54,3.775,17.935,17.935,0,0,1-1.895,6.237,56.232,56.232,0,0,1-3.751,5.767S29.314,435.188,29.144,435.274Z" transform="translate(-16.037 -376.742)" fill="#008b8a"/>
            </g>
            <g id="Grupo_1004333" data-name="Grupo 1004333" transform="translate(0 -0.141)" opacity="0.3">
              <path id="Trazado_716908" data-name="Trazado 716908" d="M29.144,435.274c-1.109.565-4.06-1.961-4.882-2.575a10.3,10.3,0,0,1-3.224-4.1,9.654,9.654,0,0,1-.564-5.834,22.816,22.816,0,0,1,.887-3.042l1.011-2.946a7.591,7.591,0,0,0,.59-2.993c-.159-2.058-1.9-3.581-3.488-4.9-1.755-1.458-3.563-3.357-3.429-5.817a8.669,8.669,0,0,1,2.428-5.044c1.252-1.431,2.715-2.677,3.858-4.2a6.055,6.055,0,0,0,1.432-3.762,6.326,6.326,0,0,0-.713-2.431,33.871,33.871,0,0,1-2.373-4.924c-.513-1.751-.319-3.888,1.087-5.052a5.646,5.646,0,0,1,4.288-.84,9.736,9.736,0,0,1,3.869,1.585c3.8,2.37,5.794,7.109,9.856,8.99a41.535,41.535,0,0,0,4.956,1.48,6.2,6.2,0,0,1,4,3.042c1.369,3.116-1.645,6.72-.737,10,.8,2.9,3.522,4.136,4.951,6.788a6.115,6.115,0,0,1,.54,3.775,17.935,17.935,0,0,1-1.895,6.237,56.232,56.232,0,0,1-3.751,5.767S29.314,435.188,29.144,435.274Z" transform="translate(-16.037 -376.742)" fill="#fff"/>
            </g>
            <g id="Grupo_1004334" data-name="Grupo 1004334" transform="translate(10.706 3.989)">
              <path id="Trazado_716909" data-name="Trazado 716909" d="M45.258,431.671h-.013a.49.49,0,0,1-.448-.53c1.778-19.275-6.247-41.057-12.552-47.586a.487.487,0,0,1,.7-.677c6.432,6.66,14.625,28.806,12.823,48.352A.489.489,0,0,1,45.258,431.671Z" transform="translate(-32.108 -382.729)" fill="#fff"/>
            </g>
            <g id="Grupo_1004335" data-name="Grupo 1004335" transform="translate(7.453 25.196)">
              <path id="Trazado_716910" data-name="Trazado 716910" d="M41.713,418.532a.474.474,0,0,1-.143-.029,65.405,65.405,0,0,0-13.9-2.967.488.488,0,0,1-.441-.53.474.474,0,0,1,.53-.441,66.561,66.561,0,0,1,14.148,3.022.487.487,0,0,1-.192.944Z" transform="translate(-27.225 -414.563)" fill="#fff"/>
            </g>
          </g>
        </g>
      </g>
      <g id="Clipboard" transform="translate(55.008 26.788)">
        <g id="Clipboard-2" data-name="Clipboard">
          <g id="Board">
            <g id="Window">
              <path id="Trazado_716911" data-name="Trazado 716911" d="M190.785,27.3,77.388,92.688a4.684,4.684,0,0,0-2.122,3.672v207.9a4.665,4.665,0,0,0,2.126,3.665l.431.246a4.711,4.711,0,0,0,4.246-.009l113.4-65.477a4.688,4.688,0,0,0,2.12-3.673V31.2a4.663,4.663,0,0,0-2.125-3.665l-.431-.246A4.714,4.714,0,0,0,190.785,27.3Z" transform="translate(-75.266 -26.788)" fill="#3076b6"/>
              <path id="Trazado_716912" data-name="Trazado 716912" d="M190.785,27.3,77.388,92.688a4.684,4.684,0,0,0-2.122,3.672v207.9a4.665,4.665,0,0,0,2.126,3.665l.431.246a4.711,4.711,0,0,0,4.246-.009l113.4-65.477a4.688,4.688,0,0,0,2.12-3.673V31.2a4.663,4.663,0,0,0-2.125-3.665l-.431-.246A4.714,4.714,0,0,0,190.785,27.3Z" transform="translate(-75.266 -26.788)" opacity="0.45"/>
              <path id="Trazado_716913" data-name="Trazado 716913" d="M199.934,240.812c0,1.864-1.308,3.052-2.931,3.984L85.225,309.33c-1.613.932-2.931.179-2.931-1.694V101.608h0a5.837,5.837,0,0,1,2.918-5.054L197,31.993a1.955,1.955,0,0,1,2.933,1.693h0Z" transform="translate(-77.612 -28.437)" fill="#3076b6"/>
              <path id="Trazado_716914" data-name="Trazado 716914" d="M199.934,240.812c0,1.864-1.308,3.052-2.931,3.984L85.225,309.33c-1.613.932-2.931.179-2.931-1.694V101.608h0a5.837,5.837,0,0,1,2.918-5.054L197,31.993a1.955,1.955,0,0,1,2.933,1.693h0Z" transform="translate(-77.611 -28.437)" opacity="0.3"/>
              <path id="Trazado_716915" data-name="Trazado 716915" d="M197.889,31.2v.832a1.959,1.959,0,0,0-2.939-1.689L83.165,94.908a5.678,5.678,0,0,0-2.13,2.13A.222.222,0,0,0,81,97.1l-4.838-2.795a4.356,4.356,0,0,1,1.526-1.616L191.084,27.3a4.712,4.712,0,0,1,4.245-.008l.43.247A4.657,4.657,0,0,1,197.889,31.2Z" transform="translate(-75.566 -26.788)" fill="#3076b6"/>
              <path id="Trazado_716916" data-name="Trazado 716916" d="M197.889,31.2v.832a1.959,1.959,0,0,0-2.939-1.689L83.165,94.908a5.678,5.678,0,0,0-2.13,2.13A.222.222,0,0,0,81,97.1l-4.838-2.795a4.356,4.356,0,0,1,1.526-1.616L191.084,27.3a4.712,4.712,0,0,1,4.245-.008l.43.247A4.657,4.657,0,0,1,197.889,31.2Z" transform="translate(-75.566 -26.788)" opacity="0.2"/>
            </g>
          </g>
          <path id="Shadow-3" data-name="Shadow" d="M198.768,239.334c0,1.921-1.348,3.144-3.018,4.1l-105.648,61c-1.661.961-3.019.185-3.019-1.745V119.531h0a6.012,6.012,0,0,1,3.006-5.206L195.747,53.3a2.014,2.014,0,0,1,3.021,1.744V239.334Z" transform="translate(-79.211 -35.547)" opacity="0.25"/>
          <g id="Form" transform="translate(9.676 20.072)">
            <g id="Paper">
              <path id="Trazado_716917" data-name="Trazado 716917" d="M90.692,117.909,195.954,57.137a1.991,1.991,0,0,1,1.8,0l1.016.586a1.991,1.991,0,0,1,.9,1.56v184.01a1.991,1.991,0,0,1-.9,1.561L93.511,305.626a1.988,1.988,0,0,1-1.8,0l-1.017-.588a1.991,1.991,0,0,1-.9-1.56V119.47A1.992,1.992,0,0,1,90.692,117.909Z" transform="translate(-89.791 -56.919)" fill="#f5f5f5"/>
              <path id="Trazado_716918" data-name="Trazado 716918" d="M93.3,336.625a1.671,1.671,0,0,1-.333.09l-.173.021a2.393,2.393,0,0,1-.548-.021,1.684,1.684,0,0,1-.333-.09,1.874,1.874,0,0,1-.2-.1l-1.013-.583a1.991,1.991,0,0,1-.9-1.56V150.376a1.775,1.775,0,0,1,.264-.888l2.816,1.623a1.9,1.9,0,0,0-.263.888V336.007C92.611,336.5,92.9,336.743,93.3,336.625Z" transform="translate(-89.792 -87.819)" fill="#e0e0e0"/>
              <g id="Grupo_1004339" data-name="Grupo 1004339">
                <g id="Grupo_1004337" data-name="Grupo 1004337" transform="translate(0 0.002)">
                  <path id="Trazado_716919" data-name="Trazado 716919" d="M198.772,57.722l-1.015-.586a1.992,1.992,0,0,0-1.8,0L90.692,117.909a1.992,1.992,0,0,0-.9,1.561v11.363l2.819,1.637L199.672,70.658V59.283A1.991,1.991,0,0,0,198.772,57.722Z" transform="translate(-89.791 -56.921)" fill="#3076b6"/>
                  <path id="Trazado_716920" data-name="Trazado 716920" d="M198.772,57.722l-1.015-.586a1.992,1.992,0,0,0-1.8,0L90.692,117.909a1.992,1.992,0,0,0-.9,1.561v11.363l2.819,1.637L199.672,70.658V59.283A1.991,1.991,0,0,0,198.772,57.722Z" transform="translate(-89.791 -56.921)" fill="#fff" opacity="0.4"/>
                </g>
                <g id="Grupo_1004338" data-name="Grupo 1004338" transform="translate(0.266)">
                  <path id="Trazado_716921" data-name="Trazado 716921" d="M199.773,59.009c-.111-.367-.458-.485-.867-.249L93.644,119.533a1.813,1.813,0,0,0-.638.673l-2.816-1.623a1.755,1.755,0,0,1,.638-.673L196.09,57.137a1.956,1.956,0,0,1,1.8,0l1.02.583A2,2,0,0,1,199.773,59.009Z" transform="translate(-90.19 -56.918)" fill="#3076b6"/>
                  <path id="Trazado_716922" data-name="Trazado 716922" d="M199.773,59.009c-.111-.367-.458-.485-.867-.249L93.644,119.533a1.813,1.813,0,0,0-.638.673l-2.816-1.623a1.755,1.755,0,0,1,.638-.673L196.09,57.137a1.956,1.956,0,0,1,1.8,0l1.02.583A2,2,0,0,1,199.773,59.009Z" transform="translate(-90.19 -56.918)" fill="#fff" opacity="0.6"/>
                </g>
                <path id="Trazado_716923" data-name="Trazado 716923" d="M89.794,150.371v11.372l2.817,1.625V151.994a1.9,1.9,0,0,1,.263-.888l-2.816-1.623A1.775,1.775,0,0,0,89.794,150.371Z" transform="translate(-89.792 -87.818)" fill="#3076b6"/>
              </g>
            </g>
          </g>
          <g id="Clip" transform="translate(31.059 24.892)">
            <g id="Shadow-4" data-name="Shadow" opacity="0.25">
              <path id="Trazado_716924" data-name="Trazado 716924" d="M186.038,67.16v9.049a7.75,7.75,0,0,1-3.549,6.142l-17.516,10.11a5.625,5.625,0,0,0-1.881,2.549,9.861,9.861,0,0,1-1.352,2.212,16.721,16.721,0,0,1-6.421,3.821,12.341,12.341,0,0,1-2.1.485c-.264.044-.558.081-.859.117-1.911.257-4.291.581-5.687,1.389l-20.5,11.829a3.581,3.581,0,0,1-1.785.536,2.388,2.388,0,0,1-1.2-.308,2.937,2.937,0,0,1-1.3-2.7v-9.049a7.732,7.732,0,0,1,3.548-6.142l6.885-3.975a.368.368,0,0,1,.1-.037.723.723,0,0,1,.72,1.241.224.224,0,0,1-.081.067l-6.885,3.974a6.344,6.344,0,0,0-2.814,4.872v9.049a1.234,1.234,0,0,0,2.079,1.2l20.5-11.837c1.646-.948,4.188-1.293,6.223-1.565.3-.037.588-.081.852-.118a11.328,11.328,0,0,0,1.867-.434,15.47,15.47,0,0,0,5.76-3.387,8.831,8.831,0,0,0,1.139-1.9,6.74,6.74,0,0,1,2.462-3.167l17.516-10.11a6.341,6.341,0,0,0,2.814-4.871V67.16a1.234,1.234,0,0,0-2.079-1.2l-5.966,3.446a6.2,6.2,0,0,0-.749-1.264l5.981-3.454a2.655,2.655,0,0,1,4.284,2.469Z" transform="translate(-121.888 -64.153)"/>
            </g>
            <g id="Clip-2" data-name="Clip" transform="translate(0.738 0.644)">
              <g id="Grupo_1004340" data-name="Grupo 1004340" transform="translate(8.323 2.353)">
                <path id="Trazado_716925" data-name="Trazado 716925" d="M178.179,68.828h0a1.823,1.823,0,0,1,1.849.177,5.754,5.754,0,0,1,2.6,4.509,1.821,1.821,0,0,1-.772,1.689h0L140.3,99.2l-3.681-6.377Z" transform="translate(-135.868 -68.651)" fill="#37474f"/>
                <path id="Trazado_716926" data-name="Trazado 716926" d="M138.685,96.149l43.406-25.065a5.332,5.332,0,0,0-1.849-1.958,2.692,2.692,0,0,0-.251-.115L137.262,93.685Z" transform="translate(-136.082 -68.771)" fill="#455a64"/>
                <path id="Trazado_716927" data-name="Trazado 716927" d="M138.093,105.027c-1.438-.83-2.6-.157-2.6,1.5a5.754,5.754,0,0,0,2.6,4.509c1.438.83,2.6.157,2.6-1.5A5.755,5.755,0,0,0,138.093,105.027Z" transform="translate(-135.49 -80.675)" fill="#263238"/>
              </g>
              <g id="Grupo_1004341" data-name="Grupo 1004341">
                <path id="Trazado_716928" data-name="Trazado 716928" d="M187.146,68.126v9.049a7.75,7.75,0,0,1-3.549,6.142L166.081,93.427a5.621,5.621,0,0,0-1.881,2.549,9.841,9.841,0,0,1-1.352,2.211,16.712,16.712,0,0,1-6.421,3.821,12.34,12.34,0,0,1-2.1.485c-.264.045-.558.081-.859.118-1.911.257-4.291.58-5.687,1.388l-20.5,11.829a3.581,3.581,0,0,1-1.785.536,2.381,2.381,0,0,1-1.2-.308,2.937,2.937,0,0,1-1.3-2.7v-9.049a7.73,7.73,0,0,1,3.548-6.142l6.885-3.975a.367.367,0,0,1,.1-.037.723.723,0,0,1,.72,1.242.229.229,0,0,1-.081.066l-6.885,3.975a6.341,6.341,0,0,0-2.814,4.871v9.049a1.234,1.234,0,0,0,2.079,1.2l20.5-11.837c1.646-.947,4.188-1.293,6.223-1.565.3-.037.588-.081.852-.117a11.4,11.4,0,0,0,1.867-.434,15.462,15.462,0,0,0,5.76-3.388,8.814,8.814,0,0,0,1.139-1.9,6.735,6.735,0,0,1,2.462-3.166l17.516-10.11a6.344,6.344,0,0,0,2.814-4.872V68.126a1.234,1.234,0,0,0-2.079-1.2l-5.966,3.446a6.217,6.217,0,0,0-.749-1.264l5.981-3.453a2.655,2.655,0,0,1,4.284,2.469Z" transform="translate(-122.996 -65.119)" fill="#455a64"/>
              </g>
            </g>
          </g>
          <g id="Title" transform="translate(27.449 55.901)">
            <path id="Trazado_716929" data-name="Trazado 716929" d="M120.744,166.683c.116-.067.2-.075.259-.027a.593.593,0,0,1,.153.28l2.657,7.607a.368.368,0,0,1,.011.094.7.7,0,0,1-.087.326.552.552,0,0,1-.206.234l-.781.451q-.217.125-.3.052a.37.37,0,0,1-.119-.17l-.466-1.335-3.428,1.979-.466,1.874a1.451,1.451,0,0,1-.119.307.74.74,0,0,1-.3.3l-.781.451a.175.175,0,0,1-.206,0,.263.263,0,0,1-.087-.225.605.605,0,0,1,.01-.107l2.657-10.674a2.085,2.085,0,0,1,.153-.456.636.636,0,0,1,.26-.272Zm.6,6-1.192-3.432-1.194,4.809Z" transform="translate(-116.47 -129.369)" fill="#455a64"/>
            <path id="Trazado_716930" data-name="Trazado 716930" d="M131.962,160.344a3.657,3.657,0,0,1,1.394-.522,1.377,1.377,0,0,1,.987.232,1.835,1.835,0,0,1,.608.908,5.544,5.544,0,0,1,.255,1.5q.042,1.046,0,2.14a9.412,9.412,0,0,1-.255,1.8,7.109,7.109,0,0,1-.6,1.607,6.124,6.124,0,0,1-.97,1.362,5.927,5.927,0,0,1-1.362,1.069l-2.734,1.578a.173.173,0,0,1-.205,0,.261.261,0,0,1-.087-.224v-9.343a.7.7,0,0,1,.087-.324.56.56,0,0,1,.205-.234Zm1.779,2.965a2.863,2.863,0,0,0-.135-.783,1.032,1.032,0,0,0-.336-.5.8.8,0,0,0-.56-.14,2.039,2.039,0,0,0-.8.3l-1.454.839v6.507l1.508-.871a3.243,3.243,0,0,0,.771-.61,3.624,3.624,0,0,0,.542-.769,3.83,3.83,0,0,0,.331-.885,4.983,4.983,0,0,0,.135-.945Q133.785,164.355,133.741,163.309Z" transform="translate(-120.649 -127.094)" fill="#455a64"/>
            <path id="Trazado_716931" data-name="Trazado 716931" d="M142.561,160.771l1.823-7.951a1.571,1.571,0,0,1,.113-.3.593.593,0,0,1,.244-.264l.825-.476a.174.174,0,0,1,.205,0,.264.264,0,0,1,.087.225v.051a.592.592,0,0,1-.021.105l-2.429,10.5a2.1,2.1,0,0,1-.153.457.649.649,0,0,1-.26.273l-.869.5c-.116.066-.2.075-.26.026a.591.591,0,0,1-.152-.28l-2.43-7.694a.311.311,0,0,1-.021-.081V155.8a.692.692,0,0,1,.087-.324.555.555,0,0,1,.206-.235l.825-.477c.109-.062.189-.067.244-.016a.406.406,0,0,1,.114.173Z" transform="translate(-124.079 -124.4)" fill="#455a64"/>
            <path id="Trazado_716932" data-name="Trazado 716932" d="M153.273,147.9c.115-.067.2-.075.26-.026a.587.587,0,0,1,.152.279l2.657,7.607a.339.339,0,0,1,.011.095.7.7,0,0,1-.086.324.577.577,0,0,1-.207.235l-.781.45c-.145.084-.244.1-.3.053a.369.369,0,0,1-.119-.17l-.466-1.336-3.428,1.98-.467,1.874a1.417,1.417,0,0,1-.119.306.733.733,0,0,1-.3.3l-.781.451a.173.173,0,0,1-.205,0A.262.262,0,0,1,149,160.1a.5.5,0,0,1,.011-.108l2.657-10.674a2.1,2.1,0,0,1,.152-.457.646.646,0,0,1,.26-.273Zm.6,6-1.194-3.432-1.193,4.811Z" transform="translate(-127.329 -123.099)" fill="#455a64"/>
            <path id="Trazado_716933" data-name="Trazado 716933" d="M166.443,150.025c-.123.071-.217.081-.282.033a1.088,1.088,0,0,1-.141-.121l-3.037-4.264v5.96a.7.7,0,0,1-.087.324.56.56,0,0,1-.207.235l-.878.508a.176.176,0,0,1-.207,0,.264.264,0,0,1-.087-.224v-9.342a.7.7,0,0,1,.087-.325.559.559,0,0,1,.207-.235l.759-.438q.184-.106.281-.032a1.1,1.1,0,0,1,.141.121l3.037,4.263V140.53a.7.7,0,0,1,.087-.324.551.551,0,0,1,.207-.235l.878-.508a.176.176,0,0,1,.207,0,.266.266,0,0,1,.087.225v9.343a.7.7,0,0,1-.087.324.564.564,0,0,1-.207.235Z" transform="translate(-131.508 -120.29)" fill="#455a64"/>
            <path id="Trazado_716934" data-name="Trazado 716934" d="M177.781,133.363a.172.172,0,0,1,.205,0,.264.264,0,0,1,.087.225v1.027a.7.7,0,0,1-.087.325.553.553,0,0,1-.205.234l-1.953,1.129v7.924a.7.7,0,0,1-.087.326.561.561,0,0,1-.206.235l-.879.507a.174.174,0,0,1-.207,0,.264.264,0,0,1-.086-.225v-7.925l-1.953,1.127a.174.174,0,0,1-.206,0,.26.26,0,0,1-.087-.224v-1.027a.69.69,0,0,1,.087-.324.558.558,0,0,1,.206-.235Z" transform="translate(-135.046 -118.253)" fill="#455a64"/>
            <path id="Trazado_716935" data-name="Trazado 716935" d="M184.744,129.733c.115-.067.2-.075.26-.027a.6.6,0,0,1,.152.28l2.657,7.606a.345.345,0,0,1,.011.095.694.694,0,0,1-.087.326.556.556,0,0,1-.206.235l-.781.451q-.216.125-.3.052a.365.365,0,0,1-.119-.17l-.466-1.336-3.428,1.979-.467,1.873a1.462,1.462,0,0,1-.119.308.74.74,0,0,1-.3.3l-.781.451a.174.174,0,0,1-.205,0,.263.263,0,0,1-.087-.226.5.5,0,0,1,.011-.107l2.657-10.674a2.077,2.077,0,0,1,.153-.456.641.641,0,0,1,.26-.273Zm.6,6-1.194-3.432-1.193,4.809Z" transform="translate(-137.834 -117.034)" fill="#455a64"/>
            <path id="Trazado_716936" data-name="Trazado 716936" d="M192.343,129.037a7.7,7.7,0,0,1,.238-1.721,6.916,6.916,0,0,1,.63-1.592,6.548,6.548,0,0,1,1.013-1.381,6.284,6.284,0,0,1,1.406-1.094,3.673,3.673,0,0,1,1.556-.572,1.578,1.578,0,0,1,.976.217,1.306,1.306,0,0,1,.51.646,2.65,2.65,0,0,1,.169.72.59.59,0,0,1-.081.329.609.609,0,0,1-.212.23l-.879.507a.193.193,0,0,1-.19.03.24.24,0,0,1-.1-.106,2.162,2.162,0,0,0-.113-.189.694.694,0,0,0-.294-.235,1.092,1.092,0,0,0-.526-.073,2.008,2.008,0,0,0-.813.3,3.467,3.467,0,0,0-1.3,1.337,4.015,4.015,0,0,0-.52,1.869c-.016.375-.023.771-.023,1.19s.007.809.023,1.167q.032,1.182.52,1.443a1.353,1.353,0,0,0,1.3-.211,4.2,4.2,0,0,0,.737-.541,3.294,3.294,0,0,0,.58-.711,3.486,3.486,0,0,0,.379-.905,4.341,4.341,0,0,0,.135-1.128v-.115l-1.322.765a.177.177,0,0,1-.207,0,.268.268,0,0,1-.087-.225v-1.027a.7.7,0,0,1,.087-.324.568.568,0,0,1,.207-.235l2.494-1.44a.177.177,0,0,1,.207,0,.265.265,0,0,1,.087.225v1.591a7.264,7.264,0,0,1-.207,1.717,6.756,6.756,0,0,1-.618,1.615,6.651,6.651,0,0,1-1.031,1.419,6.334,6.334,0,0,1-1.442,1.13,3.743,3.743,0,0,1-1.432.537,1.417,1.417,0,0,1-1.008-.228,1.783,1.783,0,0,1-.614-.9,4.9,4.9,0,0,1-.234-1.464c-.006-.179-.012-.378-.015-.6s-.006-.445-.006-.677,0-.458.006-.683S192.337,129.224,192.343,129.037Z" transform="translate(-141.791 -114.697)" fill="#455a64"/>
            <path id="Trazado_716937" data-name="Trazado 716937" d="M209.343,123.656a.174.174,0,0,1,.206,0,.265.265,0,0,1,.087.225V124.9a.7.7,0,0,1-.087.326.561.561,0,0,1-.206.235l-4.762,2.749a.174.174,0,0,1-.206,0,.263.263,0,0,1-.087-.223v-9.343a.7.7,0,0,1,.087-.324.57.57,0,0,1,.206-.236l4.676-2.7a.171.171,0,0,1,.205,0,.265.265,0,0,1,.087.224v1.028a.7.7,0,0,1-.087.324.557.557,0,0,1-.205.235l-3.5,2.023v2.3l3.264-1.885a.178.178,0,0,1,.207,0,.265.265,0,0,1,.087.225v1.027a.7.7,0,0,1-.087.325.544.544,0,0,1-.207.233l-3.264,1.885v2.4Z" transform="translate(-145.785 -112.254)" fill="#455a64"/>
            <path id="Trazado_716938" data-name="Trazado 716938" d="M216.7,111.193a3.378,3.378,0,0,1,1.28-.478,1.686,1.686,0,0,1,.922.119,1.2,1.2,0,0,1,.559.537,1.852,1.852,0,0,1,.211.767.574.574,0,0,1-.081.329.593.593,0,0,1-.211.231l-.759.439c-.123.071-.215.093-.276.065a.4.4,0,0,1-.168-.155.753.753,0,0,0-.493-.344,1.526,1.526,0,0,0-.983.3,3.331,3.331,0,0,0-.537.39,2.954,2.954,0,0,0-.444.488,2.33,2.33,0,0,0-.3.541,1.524,1.524,0,0,0-.109.555.865.865,0,0,0,.1.482.412.412,0,0,0,.347.161,2.374,2.374,0,0,0,.645-.09q.4-.1,1-.272a4.86,4.86,0,0,1,1.122-.208,1.355,1.355,0,0,1,.771.163,1.088,1.088,0,0,1,.444.56,2.735,2.735,0,0,1,.147.972,4.362,4.362,0,0,1-.217,1.332,5.548,5.548,0,0,1-.618,1.311,6.78,6.78,0,0,1-2.3,2.189,4.157,4.157,0,0,1-1.16.474,1.976,1.976,0,0,1-.981,0,1.223,1.223,0,0,1-.689-.49,1.872,1.872,0,0,1-.292-.989.572.572,0,0,1,.081-.329.611.611,0,0,1,.211-.23l.76-.439a.392.392,0,0,1,.282-.076.287.287,0,0,1,.162.167,1.412,1.412,0,0,0,.185.269.505.505,0,0,0,.292.164,1.085,1.085,0,0,0,.461-.027,2.721,2.721,0,0,0,.688-.3,5.3,5.3,0,0,0,.63-.428,3.379,3.379,0,0,0,.531-.524,2.865,2.865,0,0,0,.368-.589,1.5,1.5,0,0,0,.141-.638.518.518,0,0,0-.152-.434.652.652,0,0,0-.462-.081,4.7,4.7,0,0,0-.763.167q-.457.135-1.053.276a3.716,3.716,0,0,1-.949.135,1.118,1.118,0,0,1-.672-.2,1.137,1.137,0,0,1-.4-.589,3.428,3.428,0,0,1-.13-1.045,4.313,4.313,0,0,1,.216-1.326,5.811,5.811,0,0,1,.6-1.284,6.4,6.4,0,0,1,.906-1.138A5.412,5.412,0,0,1,216.7,111.193Z" transform="translate(-148.905 -110.7)" fill="#455a64"/>
          </g>
          <g id="Grupo_1004362" data-name="Grupo 1004362" transform="translate(19.972 58.617)">
            <g id="Grupo_1004361" data-name="Grupo 1004361" transform="translate(0 109.074)">
              <g id="Image">
                <path id="Trazado_716975" data-name="Trazado 716975" d="M106.011,336.4,206.055,278.61c.422-.243.764-.046.764.442v23.873a1.69,1.69,0,0,1-.765,1.324L106.011,362.034c-.422.244-.765.047-.765-.441V337.72A1.689,1.689,0,0,1,106.011,336.4Z" transform="translate(-105.246 -278.506)" opacity="0.2"/>
                <g id="Grupo_1004358" data-name="Grupo 1004358" transform="translate(2.454 1.743)">
                  <path id="Trazado_716976" data-name="Trazado 716976" d="M212.595,282.644a.994.994,0,0,0-.9.125l-98.885,57.116a2.991,2.991,0,0,0-1.346,2.338v22.636a.975.975,0,0,0,.368.861c-.23-.15-2.269-1.3-2.518-1.453a.956.956,0,0,1-.386-.866V340.764a2.98,2.98,0,0,1,1.352-2.338L209.16,281.3a.955.955,0,0,1,.966-.087C210.344,281.348,212.114,282.351,212.595,282.644Z" transform="translate(-108.929 -281.122)" fill="#3076b6"/>
                  <path id="Trazado_716977" data-name="Trazado 716977" d="M212.794,282.644c-.48-.293-2.25-1.3-2.469-1.428a.955.955,0,0,0-.966.087L110.48,338.426a2.769,2.769,0,0,0-.955,1.005l2.534,1.463a2.765,2.765,0,0,1,.952-1.009L211.9,282.769A.994.994,0,0,1,212.794,282.644Z" transform="translate(-109.128 -281.122)" fill="#fff" opacity="0.2"/>
                  <g id="Grupo_1004357" data-name="Grupo 1004357" transform="translate(2.534 1.462)">
                    <path id="Trazado_716978" data-name="Trazado 716978" d="M114.083,340.618,212.965,283.5c.745-.43,1.35-.081,1.35.779v22.637a2.983,2.983,0,0,1-1.35,2.338l-98.882,57.117c-.745.431-1.35.082-1.35-.779V342.956A2.983,2.983,0,0,1,114.083,340.618Z" transform="translate(-112.733 -283.317)" fill="#fafafa"/>
                  </g>
                  <path id="Trazado_716979" data-name="Trazado 716979" d="M111.86,370.112l-2.534-1.463a2.762,2.762,0,0,0-.4,1.332v22.637a.955.955,0,0,0,.386.866c.249.15,2.288,1.3,2.518,1.453a.975.975,0,0,1-.368-.861V371.44A2.762,2.762,0,0,1,111.86,370.112Z" transform="translate(-108.929 -310.34)" fill="#3076b6"/>
                  <path id="Trazado_716980" data-name="Trazado 716980" d="M111.86,370.112l-2.534-1.463a2.762,2.762,0,0,0-.4,1.332v22.637a.955.955,0,0,0,.386.866c.249.15,2.288,1.3,2.518,1.453a.975.975,0,0,1-.368-.861V371.44A2.762,2.762,0,0,1,111.86,370.112Z" transform="translate(-108.929 -310.34)" opacity="0.15"/>
                </g>
                <path id="Trazado_716981" data-name="Trazado 716981" d="M213.567,283.941c.12,0,.123.306.123.34v22.637a2.369,2.369,0,0,1-1.038,1.8l-98.882,57.117a.612.612,0,0,1-.291.1c-.12,0-.123-.306-.123-.34V342.956a2.369,2.369,0,0,1,1.038-1.8l98.882-57.117a.616.616,0,0,1,.291-.1m0-.624a1.221,1.221,0,0,0-.6.185l-98.882,57.117a2.983,2.983,0,0,0-1.35,2.338v22.638c0,.61.3.963.747.963a1.226,1.226,0,0,0,.6-.184l98.882-57.117a2.983,2.983,0,0,0,1.35-2.338V284.281c0-.611-.3-.964-.747-.964Z" transform="translate(-107.745 -280.112)" fill="#3076b6"/>
              </g>
              <g id="Grupo_1004360" data-name="Grupo 1004360" transform="translate(8.998 56.69)">
                <g id="Grupo_1004359" data-name="Grupo 1004359">
                  <path id="Trazado_716982" data-name="Trazado 716982" d="M133.793,365.463c1.344.776,2.174,2.439,2.174,4.807a16.411,16.411,0,0,1-7.424,12.859c-2.051,1.184-3.906,1.3-5.25.52l-2.368-1.366c-1.343-.775-2.174-2.44-2.174-4.806a16.41,16.41,0,0,1,7.424-12.859c2.051-1.184,3.907-1.3,5.25-.52Z" transform="translate(-118.753 -363.602)" fill="#3076b6"/>
                  <path id="Trazado_716983" data-name="Trazado 716983" d="M133.793,365.463c1.344.776,2.174,2.439,2.174,4.807a16.411,16.411,0,0,1-7.424,12.859c-2.051,1.184-3.906,1.3-5.25.52l-2.368-1.366c-1.343-.775-2.174-2.44-2.174-4.806a16.41,16.41,0,0,1,7.424-12.859c2.051-1.184,3.907-1.3,5.25-.52Z" transform="translate(-118.753 -363.602)" opacity="0.2"/>
                  <path id="Trazado_716984" data-name="Trazado 716984" d="M129.73,383.813c-2.051,1.184-3.907,1.3-5.25.52s-2.174-2.439-2.174-4.807a16.41,16.41,0,0,1,7.424-12.859c2.05-1.183,3.906-1.3,5.25-.52s2.174,2.439,2.174,4.807A16.411,16.411,0,0,1,129.73,383.813Z" transform="translate(-119.939 -364.287)" fill="#3076b6"/>
                </g>
                <path id="Trazado_716985" data-name="Trazado 716985" d="M135.017,373.484l-3.144,1.815v-4.192c0-.589-.358-.859-.8-.6a1.914,1.914,0,0,0-.8,1.528v4.192l-3.144,1.815a1.913,1.913,0,0,0-.8,1.528c0,.588.358.859.8.6l3.144-1.815v4.192c0,.589.358.859.8.6a1.913,1.913,0,0,0,.8-1.528v-4.192l3.144-1.815a1.913,1.913,0,0,0,.8-1.528C135.816,373.5,135.459,373.23,135.017,373.484Z" transform="translate(-121.282 -365.874)" fill="#fafafa"/>
              </g>
              <path id="Trazado_716986" data-name="Trazado 716986" d="M151.432,340.945l69.627-40.216a3.977,3.977,0,0,0,1.661-3.174c0-1.223-.743-1.785-1.661-1.256l-69.627,40.215a3.978,3.978,0,0,0-1.661,3.174C149.771,340.912,150.514,341.474,151.432,340.945Zm69.627-35.32-69.627,40.215a3.979,3.979,0,0,0-1.661,3.175c0,1.223.743,1.785,1.661,1.256l69.627-40.215a3.979,3.979,0,0,0,1.661-3.174h0C222.721,305.657,221.977,305.095,221.059,305.624Z" transform="translate(-120.109 -284.379)" fill="#e0e0e0"/>
            </g>
            <g id="Grupo_1004386" data-name="Grupo 1004386" transform="translate(0 74.074)">
              <g id="Image-2" data-name="Image">
                <path id="Trazado_716975-2" data-name="Trazado 716975" d="M106.011,336.4,206.055,278.61c.422-.243.764-.046.764.442v23.873a1.69,1.69,0,0,1-.765,1.324L106.011,362.034c-.422.244-.765.047-.765-.441V337.72A1.689,1.689,0,0,1,106.011,336.4Z" transform="translate(-105.246 -278.506)" opacity="0.2"/>
                <g id="Grupo_1004358-2" data-name="Grupo 1004358" transform="translate(2.454 1.743)">
                  <path id="Trazado_716976-2" data-name="Trazado 716976" d="M212.595,282.644a.994.994,0,0,0-.9.125l-98.885,57.116a2.991,2.991,0,0,0-1.346,2.338v22.636a.975.975,0,0,0,.368.861c-.23-.15-2.269-1.3-2.518-1.453a.956.956,0,0,1-.386-.866V340.764a2.98,2.98,0,0,1,1.352-2.338L209.16,281.3a.955.955,0,0,1,.966-.087C210.344,281.348,212.114,282.351,212.595,282.644Z" transform="translate(-108.929 -281.122)" fill="#3076b6"/>
                  <path id="Trazado_716977-2" data-name="Trazado 716977" d="M212.794,282.644c-.48-.293-2.25-1.3-2.469-1.428a.955.955,0,0,0-.966.087L110.48,338.426a2.769,2.769,0,0,0-.955,1.005l2.534,1.463a2.765,2.765,0,0,1,.952-1.009L211.9,282.769A.994.994,0,0,1,212.794,282.644Z" transform="translate(-109.128 -281.122)" fill="#fff" opacity="0.2"/>
                  <g id="Grupo_1004357-2" data-name="Grupo 1004357" transform="translate(2.534 1.462)">
                    <path id="Trazado_716978-2" data-name="Trazado 716978" d="M114.083,340.618,212.965,283.5c.745-.43,1.35-.081,1.35.779v22.637a2.983,2.983,0,0,1-1.35,2.338l-98.882,57.117c-.745.431-1.35.082-1.35-.779V342.956A2.983,2.983,0,0,1,114.083,340.618Z" transform="translate(-112.733 -283.317)" fill="#fafafa"/>
                  </g>
                  <path id="Trazado_716979-2" data-name="Trazado 716979" d="M111.86,370.112l-2.534-1.463a2.762,2.762,0,0,0-.4,1.332v22.637a.955.955,0,0,0,.386.866c.249.15,2.288,1.3,2.518,1.453a.975.975,0,0,1-.368-.861V371.44A2.762,2.762,0,0,1,111.86,370.112Z" transform="translate(-108.929 -310.34)" fill="#3076b6"/>
                  <path id="Trazado_716980-2" data-name="Trazado 716980" d="M111.86,370.112l-2.534-1.463a2.762,2.762,0,0,0-.4,1.332v22.637a.955.955,0,0,0,.386.866c.249.15,2.288,1.3,2.518,1.453a.975.975,0,0,1-.368-.861V371.44A2.762,2.762,0,0,1,111.86,370.112Z" transform="translate(-108.929 -310.34)" opacity="0.15"/>
                </g>
                <path id="Trazado_716981-2" data-name="Trazado 716981" d="M213.567,283.941c.12,0,.123.306.123.34v22.637a2.369,2.369,0,0,1-1.038,1.8l-98.882,57.117a.612.612,0,0,1-.291.1c-.12,0-.123-.306-.123-.34V342.956a2.369,2.369,0,0,1,1.038-1.8l98.882-57.117a.616.616,0,0,1,.291-.1m0-.624a1.221,1.221,0,0,0-.6.185l-98.882,57.117a2.983,2.983,0,0,0-1.35,2.338v22.638c0,.61.3.963.747.963a1.226,1.226,0,0,0,.6-.184l98.882-57.117a2.983,2.983,0,0,0,1.35-2.338V284.281c0-.611-.3-.964-.747-.964Z" transform="translate(-107.745 -280.112)" fill="#3076b6"/>
              </g>
              <g id="Grupo_1004360-2" data-name="Grupo 1004360" transform="translate(8.998 56.69)">
                <g id="Grupo_1004359-2" data-name="Grupo 1004359">
                  <path id="Trazado_716982-2" data-name="Trazado 716982" d="M133.793,365.463c1.344.776,2.174,2.439,2.174,4.807a16.411,16.411,0,0,1-7.424,12.859c-2.051,1.184-3.906,1.3-5.25.52l-2.368-1.366c-1.343-.775-2.174-2.44-2.174-4.806a16.41,16.41,0,0,1,7.424-12.859c2.051-1.184,3.907-1.3,5.25-.52Z" transform="translate(-118.753 -363.602)" fill="#3076b6"/>
                  <path id="Trazado_716983-2" data-name="Trazado 716983" d="M133.793,365.463c1.344.776,2.174,2.439,2.174,4.807a16.411,16.411,0,0,1-7.424,12.859c-2.051,1.184-3.906,1.3-5.25.52l-2.368-1.366c-1.343-.775-2.174-2.44-2.174-4.806a16.41,16.41,0,0,1,7.424-12.859c2.051-1.184,3.907-1.3,5.25-.52Z" transform="translate(-118.753 -363.602)" opacity="0.2"/>
                  <path id="Trazado_716984-2" data-name="Trazado 716984" d="M129.73,383.813c-2.051,1.184-3.907,1.3-5.25.52s-2.174-2.439-2.174-4.807a16.41,16.41,0,0,1,7.424-12.859c2.05-1.183,3.906-1.3,5.25-.52s2.174,2.439,2.174,4.807A16.411,16.411,0,0,1,129.73,383.813Z" transform="translate(-119.939 -364.287)" fill="#3076b6"/>
                </g>
                <path id="Trazado_716985-2" data-name="Trazado 716985" d="M135.017,373.484l-3.144,1.815v-4.192c0-.589-.358-.859-.8-.6a1.914,1.914,0,0,0-.8,1.528v4.192l-3.144,1.815a1.913,1.913,0,0,0-.8,1.528c0,.588.358.859.8.6l3.144-1.815v4.192c0,.589.358.859.8.6a1.913,1.913,0,0,0,.8-1.528v-4.192l3.144-1.815a1.913,1.913,0,0,0,.8-1.528C135.816,373.5,135.459,373.23,135.017,373.484Z" transform="translate(-121.282 -365.874)" fill="#fafafa"/>
              </g>
              <path id="Trazado_716986-2" data-name="Trazado 716986" d="M151.432,340.945l69.627-40.216a3.977,3.977,0,0,0,1.661-3.174c0-1.223-.743-1.785-1.661-1.256l-69.627,40.215a3.978,3.978,0,0,0-1.661,3.174C149.771,340.912,150.514,341.474,151.432,340.945Zm69.627-35.32-69.627,40.215a3.979,3.979,0,0,0-1.661,3.175c0,1.223.743,1.785,1.661,1.256l69.627-40.215a3.979,3.979,0,0,0,1.661-3.174h0C222.721,305.657,221.977,305.095,221.059,305.624Z" transform="translate(-120.109 -284.379)" fill="#e0e0e0"/>
            </g>
            <g id="Grupo_1004387" data-name="Grupo 1004387" transform="translate(0 38.074)">
              <g id="Image-3" data-name="Image">
                <path id="Trazado_716975-3" data-name="Trazado 716975" d="M106.011,336.4,206.055,278.61c.422-.243.764-.046.764.442v23.873a1.69,1.69,0,0,1-.765,1.324L106.011,362.034c-.422.244-.765.047-.765-.441V337.72A1.689,1.689,0,0,1,106.011,336.4Z" transform="translate(-105.246 -278.506)" opacity="0.2"/>
                <g id="Grupo_1004358-3" data-name="Grupo 1004358" transform="translate(2.454 1.743)">
                  <path id="Trazado_716976-3" data-name="Trazado 716976" d="M212.595,282.644a.994.994,0,0,0-.9.125l-98.885,57.116a2.991,2.991,0,0,0-1.346,2.338v22.636a.975.975,0,0,0,.368.861c-.23-.15-2.269-1.3-2.518-1.453a.956.956,0,0,1-.386-.866V340.764a2.98,2.98,0,0,1,1.352-2.338L209.16,281.3a.955.955,0,0,1,.966-.087C210.344,281.348,212.114,282.351,212.595,282.644Z" transform="translate(-108.929 -281.122)" fill="#3076b6"/>
                  <path id="Trazado_716977-3" data-name="Trazado 716977" d="M212.794,282.644c-.48-.293-2.25-1.3-2.469-1.428a.955.955,0,0,0-.966.087L110.48,338.426a2.769,2.769,0,0,0-.955,1.005l2.534,1.463a2.765,2.765,0,0,1,.952-1.009L211.9,282.769A.994.994,0,0,1,212.794,282.644Z" transform="translate(-109.128 -281.122)" fill="#fff" opacity="0.2"/>
                  <g id="Grupo_1004357-3" data-name="Grupo 1004357" transform="translate(2.534 1.462)">
                    <path id="Trazado_716978-3" data-name="Trazado 716978" d="M114.083,340.618,212.965,283.5c.745-.43,1.35-.081,1.35.779v22.637a2.983,2.983,0,0,1-1.35,2.338l-98.882,57.117c-.745.431-1.35.082-1.35-.779V342.956A2.983,2.983,0,0,1,114.083,340.618Z" transform="translate(-112.733 -283.317)" fill="#fafafa"/>
                  </g>
                  <path id="Trazado_716979-3" data-name="Trazado 716979" d="M111.86,370.112l-2.534-1.463a2.762,2.762,0,0,0-.4,1.332v22.637a.955.955,0,0,0,.386.866c.249.15,2.288,1.3,2.518,1.453a.975.975,0,0,1-.368-.861V371.44A2.762,2.762,0,0,1,111.86,370.112Z" transform="translate(-108.929 -310.34)" fill="#3076b6"/>
                  <path id="Trazado_716980-3" data-name="Trazado 716980" d="M111.86,370.112l-2.534-1.463a2.762,2.762,0,0,0-.4,1.332v22.637a.955.955,0,0,0,.386.866c.249.15,2.288,1.3,2.518,1.453a.975.975,0,0,1-.368-.861V371.44A2.762,2.762,0,0,1,111.86,370.112Z" transform="translate(-108.929 -310.34)" opacity="0.15"/>
                </g>
                <path id="Trazado_716981-3" data-name="Trazado 716981" d="M213.567,283.941c.12,0,.123.306.123.34v22.637a2.369,2.369,0,0,1-1.038,1.8l-98.882,57.117a.612.612,0,0,1-.291.1c-.12,0-.123-.306-.123-.34V342.956a2.369,2.369,0,0,1,1.038-1.8l98.882-57.117a.616.616,0,0,1,.291-.1m0-.624a1.221,1.221,0,0,0-.6.185l-98.882,57.117a2.983,2.983,0,0,0-1.35,2.338v22.638c0,.61.3.963.747.963a1.226,1.226,0,0,0,.6-.184l98.882-57.117a2.983,2.983,0,0,0,1.35-2.338V284.281c0-.611-.3-.964-.747-.964Z" transform="translate(-107.745 -280.112)" fill="#3076b6"/>
              </g>
              <g id="Grupo_1004360-3" data-name="Grupo 1004360" transform="translate(8.998 56.69)">
                <g id="Grupo_1004359-3" data-name="Grupo 1004359">
                  <path id="Trazado_716982-3" data-name="Trazado 716982" d="M133.793,365.463c1.344.776,2.174,2.439,2.174,4.807a16.411,16.411,0,0,1-7.424,12.859c-2.051,1.184-3.906,1.3-5.25.52l-2.368-1.366c-1.343-.775-2.174-2.44-2.174-4.806a16.41,16.41,0,0,1,7.424-12.859c2.051-1.184,3.907-1.3,5.25-.52Z" transform="translate(-118.753 -363.602)" fill="#3076b6"/>
                  <path id="Trazado_716983-3" data-name="Trazado 716983" d="M133.793,365.463c1.344.776,2.174,2.439,2.174,4.807a16.411,16.411,0,0,1-7.424,12.859c-2.051,1.184-3.906,1.3-5.25.52l-2.368-1.366c-1.343-.775-2.174-2.44-2.174-4.806a16.41,16.41,0,0,1,7.424-12.859c2.051-1.184,3.907-1.3,5.25-.52Z" transform="translate(-118.753 -363.602)" opacity="0.2"/>
                  <path id="Trazado_716984-3" data-name="Trazado 716984" d="M129.73,383.813c-2.051,1.184-3.907,1.3-5.25.52s-2.174-2.439-2.174-4.807a16.41,16.41,0,0,1,7.424-12.859c2.05-1.183,3.906-1.3,5.25-.52s2.174,2.439,2.174,4.807A16.411,16.411,0,0,1,129.73,383.813Z" transform="translate(-119.939 -364.287)" fill="#3076b6"/>
                </g>
                <path id="Trazado_716985-3" data-name="Trazado 716985" d="M135.017,373.484l-3.144,1.815v-4.192c0-.589-.358-.859-.8-.6a1.914,1.914,0,0,0-.8,1.528v4.192l-3.144,1.815a1.913,1.913,0,0,0-.8,1.528c0,.588.358.859.8.6l3.144-1.815v4.192c0,.589.358.859.8.6a1.913,1.913,0,0,0,.8-1.528v-4.192l3.144-1.815a1.913,1.913,0,0,0,.8-1.528C135.816,373.5,135.459,373.23,135.017,373.484Z" transform="translate(-121.282 -365.874)" fill="#fafafa"/>
              </g>
              <path id="Trazado_716986-3" data-name="Trazado 716986" d="M151.432,340.945l69.627-40.216a3.977,3.977,0,0,0,1.661-3.174c0-1.223-.743-1.785-1.661-1.256l-69.627,40.215a3.978,3.978,0,0,0-1.661,3.174C149.771,340.912,150.514,341.474,151.432,340.945Zm69.627-35.32-69.627,40.215a3.979,3.979,0,0,0-1.661,3.175c0,1.223.743,1.785,1.661,1.256l69.627-40.215a3.979,3.979,0,0,0,1.661-3.174h0C222.721,305.657,221.977,305.095,221.059,305.624Z" transform="translate(-120.109 -284.379)" fill="#e0e0e0"/>
            </g>
            <g id="Grupo_1004388" data-name="Grupo 1004388" transform="translate(0 1.074)">
              <g id="Image-4" data-name="Image">
                <path id="Trazado_716975-4" data-name="Trazado 716975" d="M106.011,336.4,206.055,278.61c.422-.243.764-.046.764.442v23.873a1.69,1.69,0,0,1-.765,1.324L106.011,362.034c-.422.244-.765.047-.765-.441V337.72A1.689,1.689,0,0,1,106.011,336.4Z" transform="translate(-105.246 -278.506)" opacity="0.2"/>
                <g id="Grupo_1004358-4" data-name="Grupo 1004358" transform="translate(2.454 1.743)">
                  <path id="Trazado_716976-4" data-name="Trazado 716976" d="M212.595,282.644a.994.994,0,0,0-.9.125l-98.885,57.116a2.991,2.991,0,0,0-1.346,2.338v22.636a.975.975,0,0,0,.368.861c-.23-.15-2.269-1.3-2.518-1.453a.956.956,0,0,1-.386-.866V340.764a2.98,2.98,0,0,1,1.352-2.338L209.16,281.3a.955.955,0,0,1,.966-.087C210.344,281.348,212.114,282.351,212.595,282.644Z" transform="translate(-108.929 -281.122)" fill="#3076b6"/>
                  <path id="Trazado_716977-4" data-name="Trazado 716977" d="M212.794,282.644c-.48-.293-2.25-1.3-2.469-1.428a.955.955,0,0,0-.966.087L110.48,338.426a2.769,2.769,0,0,0-.955,1.005l2.534,1.463a2.765,2.765,0,0,1,.952-1.009L211.9,282.769A.994.994,0,0,1,212.794,282.644Z" transform="translate(-109.128 -281.122)" fill="#fff" opacity="0.2"/>
                  <g id="Grupo_1004357-4" data-name="Grupo 1004357" transform="translate(2.534 1.462)">
                    <path id="Trazado_716978-4" data-name="Trazado 716978" d="M114.083,340.618,212.965,283.5c.745-.43,1.35-.081,1.35.779v22.637a2.983,2.983,0,0,1-1.35,2.338l-98.882,57.117c-.745.431-1.35.082-1.35-.779V342.956A2.983,2.983,0,0,1,114.083,340.618Z" transform="translate(-112.733 -283.317)" fill="#fafafa"/>
                  </g>
                  <path id="Trazado_716979-4" data-name="Trazado 716979" d="M111.86,370.112l-2.534-1.463a2.762,2.762,0,0,0-.4,1.332v22.637a.955.955,0,0,0,.386.866c.249.15,2.288,1.3,2.518,1.453a.975.975,0,0,1-.368-.861V371.44A2.762,2.762,0,0,1,111.86,370.112Z" transform="translate(-108.929 -310.34)" fill="#3076b6"/>
                  <path id="Trazado_716980-4" data-name="Trazado 716980" d="M111.86,370.112l-2.534-1.463a2.762,2.762,0,0,0-.4,1.332v22.637a.955.955,0,0,0,.386.866c.249.15,2.288,1.3,2.518,1.453a.975.975,0,0,1-.368-.861V371.44A2.762,2.762,0,0,1,111.86,370.112Z" transform="translate(-108.929 -310.34)" opacity="0.15"/>
                </g>
                <path id="Trazado_716981-4" data-name="Trazado 716981" d="M213.567,283.941c.12,0,.123.306.123.34v22.637a2.369,2.369,0,0,1-1.038,1.8l-98.882,57.117a.612.612,0,0,1-.291.1c-.12,0-.123-.306-.123-.34V342.956a2.369,2.369,0,0,1,1.038-1.8l98.882-57.117a.616.616,0,0,1,.291-.1m0-.624a1.221,1.221,0,0,0-.6.185l-98.882,57.117a2.983,2.983,0,0,0-1.35,2.338v22.638c0,.61.3.963.747.963a1.226,1.226,0,0,0,.6-.184l98.882-57.117a2.983,2.983,0,0,0,1.35-2.338V284.281c0-.611-.3-.964-.747-.964Z" transform="translate(-107.745 -280.112)" fill="#3076b6"/>
              </g>
              <g id="Grupo_1004360-4" data-name="Grupo 1004360" transform="translate(8.998 56.69)">
                <g id="Grupo_1004359-4" data-name="Grupo 1004359">
                  <path id="Trazado_716982-4" data-name="Trazado 716982" d="M133.793,365.463c1.344.776,2.174,2.439,2.174,4.807a16.411,16.411,0,0,1-7.424,12.859c-2.051,1.184-3.906,1.3-5.25.52l-2.368-1.366c-1.343-.775-2.174-2.44-2.174-4.806a16.41,16.41,0,0,1,7.424-12.859c2.051-1.184,3.907-1.3,5.25-.52Z" transform="translate(-118.753 -363.602)" fill="#3076b6"/>
                  <path id="Trazado_716983-4" data-name="Trazado 716983" d="M133.793,365.463c1.344.776,2.174,2.439,2.174,4.807a16.411,16.411,0,0,1-7.424,12.859c-2.051,1.184-3.906,1.3-5.25.52l-2.368-1.366c-1.343-.775-2.174-2.44-2.174-4.806a16.41,16.41,0,0,1,7.424-12.859c2.051-1.184,3.907-1.3,5.25-.52Z" transform="translate(-118.753 -363.602)" opacity="0.2"/>
                  <path id="Trazado_716984-4" data-name="Trazado 716984" d="M129.73,383.813c-2.051,1.184-3.907,1.3-5.25.52s-2.174-2.439-2.174-4.807a16.41,16.41,0,0,1,7.424-12.859c2.05-1.183,3.906-1.3,5.25-.52s2.174,2.439,2.174,4.807A16.411,16.411,0,0,1,129.73,383.813Z" transform="translate(-119.939 -364.287)" fill="#3076b6"/>
                </g>
                <path id="Trazado_716985-4" data-name="Trazado 716985" d="M135.017,373.484l-3.144,1.815v-4.192c0-.589-.358-.859-.8-.6a1.914,1.914,0,0,0-.8,1.528v4.192l-3.144,1.815a1.913,1.913,0,0,0-.8,1.528c0,.588.358.859.8.6l3.144-1.815v4.192c0,.589.358.859.8.6a1.913,1.913,0,0,0,.8-1.528v-4.192l3.144-1.815a1.913,1.913,0,0,0,.8-1.528C135.816,373.5,135.459,373.23,135.017,373.484Z" transform="translate(-121.282 -365.874)" fill="#fafafa"/>
              </g>
              <path id="Trazado_716986-4" data-name="Trazado 716986" d="M151.432,340.945l69.627-40.216a3.977,3.977,0,0,0,1.661-3.174c0-1.223-.743-1.785-1.661-1.256l-69.627,40.215a3.978,3.978,0,0,0-1.661,3.174C149.771,340.912,150.514,341.474,151.432,340.945Zm69.627-35.32-69.627,40.215a3.979,3.979,0,0,0-1.661,3.175c0,1.223.743,1.785,1.661,1.256l69.627-40.215a3.979,3.979,0,0,0,1.661-3.174h0C222.721,305.657,221.977,305.095,221.059,305.624Z" transform="translate(-120.109 -284.379)" fill="#e0e0e0"/>
            </g>
          </g>
        </g>
      </g>
      <g id="Arrows" transform="translate(194.021 165.616)">
        <g id="Arrows-2" data-name="Arrows">
          <g id="Arrow">
            <path id="Trazado_716987" data-name="Trazado 716987" d="M288.923,333.679l4.545,2.624,7.48-4.319V247.26l4.987-2.879-8.555-6.577-4.545-2.624-8.9,16.654,4.545,2.624.442-.255Z" transform="translate(-283.936 -235.181)" fill="#3076b6"/>
            <path id="Trazado_716988" data-name="Trazado 716988" d="M288.923,333.679l4.545,2.624,7.48-4.319V247.26l4.987-2.879-8.555-6.577-4.545-2.624-8.9,16.654,4.545,2.624.442-.255Z" transform="translate(-283.936 -235.181)" fill="#fff" opacity="0.8"/>
            <path id="Down_Arrow" data-name="Down Arrow" d="M295.744,337.617l7.48-4.319V248.575l4.987-2.879-8.555-6.577-8.9,16.654,4.987-2.879Z" transform="translate(-286.213 -236.495)" fill="#3076b6"/>
            <path id="Down_Arrow-2" data-name="Down Arrow" d="M295.744,337.617l7.48-4.319V248.575l4.987-2.879-8.555-6.577-8.9,16.654,4.987-2.879Z" transform="translate(-286.213 -236.495)" fill="#fff" opacity="0.7"/>
            <path id="Trazado_716989" data-name="Trazado 716989" d="M291.421,341.9l4.545,2.624V259.8l-4.544,2.624Z" transform="translate(-286.435 -243.398)" fill="#3076b6"/>
            <path id="Trazado_716990" data-name="Trazado 716990" d="M291.421,341.9l4.545,2.624V259.8l-4.544,2.624Z" transform="translate(-286.435 -243.398)" fill="#fff" opacity="0.5"/>
          </g>
          <g id="Arrow-2" data-name="Arrow" transform="translate(22.514 27.825)">
            <path id="Trazado_716991" data-name="Trazado 716991" d="M321.469,336.638l3.406,1.966,5.606-3.236V286l3.737-2.158-6.411-4.929-3.406-1.966-6.669,12.48,3.406,1.966.331-.191Z" transform="translate(-317.732 -276.948)" fill="#f5f5f5"/>
            <path id="Down_Arrow-3" data-name="Down Arrow" d="M326.581,339.589l5.605-3.236V286.986l3.737-2.158-6.411-4.929-6.669,12.48,3.737-2.158Z" transform="translate(-319.438 -277.933)" fill="#ebebeb"/>
            <path id="Trazado_716992" data-name="Trazado 716992" d="M323.341,342.8l3.406,1.966V295.395l-3.406,1.966Z" transform="translate(-319.604 -283.106)" fill="#e0e0e0"/>
          </g>
        </g>
      </g>
      <g id="Character" transform="translate(196.538 63.711)">
        <g id="Character-2" data-name="Character">
          <g id="Bottom" transform="translate(47.925 79.614)">
            <g id="Grupo_1004363" data-name="Grupo 1004363" transform="translate(0 1.933)">
              <path id="Trazado_716993" data-name="Trazado 716993" d="M431.685,374.673a9.146,9.146,0,0,1,5.078,3.021c1.821,2.417,5.816,9.635,6.617,10.446a5.9,5.9,0,0,1-1.9,1.907l-2.165-2.558c-.54-.464-1.424-1.62-1.433-.142s.147,2.859.3,5.725c.095,1.74.672,5.181-2.391,8.458-2.863,3.063-6.271,5.114-8.361,5.361-1.246.148-4.038-.169-3.847-2.643.1-1.313,1.775-6.256,2.04-8.65C425.9,393.112,431.685,374.673,431.685,374.673Z" transform="translate(-380.993 -261.387)" fill="#263238"/>
              <path id="Trazado_716994" data-name="Trazado 716994" d="M412.51,347.646c-.406-.54-1.673-2.8-2.284-3.847a142.54,142.54,0,0,1-6.252-15.043c-4.006-10.91-10.889-19.042-12.988-23.154a85.294,85.294,0,0,1-5.845-13.963l-8.911,5.66-11.558-.464c-.155,1.714.5,4.014,1.731,6.707h0l.034.07c.112.244.235.494.356.744,2.465,5.12,6.728,11.338,11.5,17.632l.115.152.169.223c4.6,6.086,9.661,12.284,14.081,17.654l.007-.127c4.749,5.75,8.592,10.416,9.948,12.747,3.963,6.813,3.353,13.387,3.3,16.976-.033,2.243,1.708,2.707,4.1.8a14.389,14.389,0,0,0,5.348-10.672C415.513,351.118,414.862,350.768,412.51,347.646Z" transform="translate(-361.321 -233.669)" fill="#ffbda7"/>
              <path id="Trazado_716995" data-name="Trazado 716995" d="M363.036,204.621c-.909,6.959-1.8,13.432-2.581,31.872-.655,15.5-1.334,23.806-.165,31.456.416,2.726,1.821,5.905,4.475,9.907,8.314,12.537,24.612,32.216,24.612,32.216s3.637-.119,7.995-3.811a12.857,12.857,0,0,0,4.331-8.751s-.466-2.885-7.343-14.45a62.988,62.988,0,0,1-7.9-24.178L390.2,209.3C379.769,210.419,367.955,208.582,363.036,204.621Z" transform="translate(-359.654 -204.621)" fill="#455a64"/>
              <path id="Trazado_716996" data-name="Trazado 716996" d="M402.419,313.97a12.857,12.857,0,0,0,4.331-8.751s-.466-2.885-7.343-14.45a62.994,62.994,0,0,1-7.9-24.179l2.861-37.96a144.1,144.1,0,0,0-19.585-.886c-.145,5.427,1.107,12.127,8.727,16.048,0,0-1.049,26.685-1.123,34.488-.057,5.953,1.819,21.077,2.713,27.921,5.177,6.571,9.325,11.579,9.325,11.579S398.061,317.662,402.419,313.97Z" transform="translate(-364.701 -212.33)" fill="#37474f"/>
            </g>
            <g id="Grupo_1004365" data-name="Grupo 1004365" transform="translate(12.245 64.989)">
              <g id="Grupo_1004364" data-name="Grupo 1004364">
                <path id="Trazado_716997" data-name="Trazado 716997" d="M401.894,398.3a10.049,10.049,0,0,1,2.613,5.7c.211,3.25-.37,12.114-.14,13.316a5.573,5.573,0,0,1-2.63.618l-.422-3.579c-.2-.735-.111-1.321-.924.011s-1.492,2.825-2.759,4.761c-1.005,1.536-2.422,5.162-6.776,6.341-4.069,1.1-8.76.576-10.648-.419-1.125-.594-3.141-1.53-1.634-3.657.8-1.129,5.318-5.673,6.843-7.684C387,411.613,401.894,398.3,401.894,398.3Z" transform="translate(-378.035 -332.33)" fill="#263238"/>
                <path id="Trazado_716998" data-name="Trazado 716998" d="M393.871,364.9c.386-8.479-6.758-47.445-4.21-65.624l22.78.222a98.472,98.472,0,0,0-2.7,16.048c-.479,4.946.865,16.323-1.717,28.535a164.609,164.609,0,0,0-2.949,17.264c-.06,1.308-.227,4.088-.179,4.814.272,4.2-.417,6.571-5.164,13.111a12.042,12.042,0,0,1-9.339,6.036c-3.04.33-4.248-1.105-3-3.116C389.393,378.97,393.485,373.376,393.871,364.9Z" transform="translate(-380.997 -299.274)" fill="#ffbda7"/>
                <path id="Trazado_716999" data-name="Trazado 716999" d="M418.843,323.7c-.09,1.925-.015,3.847.047,5.771s.1,3.851.108,5.78a91.919,91.919,0,0,1-.667,11.561c-.242,1.917-.6,3.818-.99,5.7l-1.169,5.635q-.576,2.821-1.083,5.657c-.346,1.889-.687,3.78-.911,5.691a111.233,111.233,0,0,1,1.552-11.443c.638-3.8,1.594-7.525,2.021-11.33.269-1.9.427-3.809.565-5.723s.176-3.835.234-5.756c.042-1.922.047-3.847.055-5.773C418.639,327.548,418.621,325.612,418.843,323.7Z" transform="translate(-390.1 -307.427)" fill="#f0997a"/>
              </g>
            </g>
            <g id="Grupo_1004366" data-name="Grupo 1004366" transform="translate(3.382 1.933)">
              <path id="Trazado_717000" data-name="Trazado 717000" d="M364.73,204.621s2.631,8.978,5.568,17.108c2.551,7.062,7.323,10.988,12.314,12.576,0,0-1.234,31.917-1.619,36.362s.855,20.514,1.927,31.088,1.4,14.194,1.4,14.194,2.221,2.351,8.359,2.376,8.049-2.621,8.049-2.621,3.718-12.3,3.757-21.905c.021-5.508-1.185-8.223-.241-13.695s8.122-29.886,9.239-41.423-.915-21.629-9.008-33.292C396.01,211.276,372.576,210.149,364.73,204.621Z" transform="translate(-364.73 -204.621)" fill="#455a64"/>
              <path id="Trazado_717001" data-name="Trazado 717001" d="M417.194,208.39c4.382,6.059,10.743,18.6,6.581,36.764-1.184,5.166-2.367,10.153-3.511,14.975-2.679,11.293-4.8,20.213-5.052,23.608a27.935,27.935,0,0,0,.346,5.717,49.312,49.312,0,0,1,.177,13.455c-.7,5.806-1.734,11.911-2.489,16.044q.388-.109.729-.23c.75-4.134,1.752-10.077,2.431-15.733a49.949,49.949,0,0,0-.178-13.62,27.468,27.468,0,0,1-.343-5.58c.254-3.343,2.365-12.24,5.036-23.5,1.145-4.823,2.328-9.812,3.512-14.979,4.192-18.3-2.153-30.984-6.6-37.186Q417.519,208.259,417.194,208.39Z" transform="translate(-380.925 -205.789)" fill="#37474f"/>
            </g>
            <path id="Trazado_717002" data-name="Trazado 717002" d="M364.4,201.72a58.772,58.772,0,0,0,21.077,4.5c12.861.141,18.964-3.877,18.964-3.877a8.783,8.783,0,0,0,1.235,4.114s-7.378,4.425-20.159,4.051a53.8,53.8,0,0,1-21.264-4.753A20.894,20.894,0,0,0,364.4,201.72Z" transform="translate(-361.19 -201.72)" fill="#37474f"/>
          </g>
          <g id="Top">
            <path id="Trazado_717003" data-name="Trazado 717003" d="M369.446,142.238c-5.328.961-7.869,2.62-11.873,9.043s-16.126,23.48-16.126,23.48,2.733,6.907,12.676,8.7c4.641-6.628,13.805-19.77,13.805-19.77Z" transform="translate(-305.651 -102.25)" fill="#3076b6"/>
            <path id="Trazado_717004" data-name="Trazado 717004" d="M369.446,142.238c-5.328.961-7.869,2.62-11.873,9.043s-16.126,23.48-16.126,23.48,2.733,6.907,12.676,8.7c4.641-6.628,13.805-19.77,13.805-19.77Z" transform="translate(-305.651 -102.25)" opacity="0.3"/>
            <path id="Trazado_717005" data-name="Trazado 717005" d="M405.746,179.807c0,1.379,3.509,8.31,5.421,15.782-11.5,14.819-45.54,6.733-48.031-1.607.536-9.911.993-34.943,3.164-39.47a33.485,33.485,0,0,1,10.428-12.419,62.4,62.4,0,0,1,7.263-.965,42.408,42.408,0,0,1,10.887.279c3.224.494,8.519,1.9,8.519,1.9,2.017,1.705,7.612,8.89,6.317,17.55C409.121,164.829,405.738,170.017,405.746,179.807Z" transform="translate(-312.891 -101.804)" fill="#fafafa"/>
            <path id="Trazado_717006" data-name="Trazado 717006" d="M410.134,140.9l-.046,1.22s-4.813,12.226-4.968,22.145,3.046,48.694,3.046,48.694,8.123-1.047,12.654-3.156l.312-9.384,2.109,8.525a8.909,8.909,0,0,0,4.14-2.891,58.063,58.063,0,0,0-4.14-19.449c-3.2-8.123-3.358-9.608-1.093-17.653s4.062-11.794,1.406-17.574a25.674,25.674,0,0,0-5.768-8.416Z" transform="translate(-326.904 -101.804)" fill="#3076b6"/>
            <path id="Trazado_717007" data-name="Trazado 717007" d="M381.8,140.9l-.044,1.432a101.544,101.544,0,0,0-8.365,9.969c-3.962,5.458-3.881,7.641-5.5,16.132s-2.211,36.8-2.211,36.8a41.523,41.523,0,0,1-4.824-1.626s1.011-16.677,1.375-22.388.889-18.811,1.739-22.571.606-4.609,3.841-9.016a40.423,40.423,0,0,1,8.115-7.844Z" transform="translate(-312.13 -101.804)" fill="#3076b6"/>
            <g id="Grupo_1004371" data-name="Grupo 1004371" transform="translate(0 28.787)">
              <path id="Trazado_717008" data-name="Trazado 717008" d="M381.249,209.413c-.316-.927-3.1-2.68-3.7-4.559-.357-1.113.376-2.726,1.562-1.619,2.484,2.322,4.309,2.647,5.941,3.8" transform="translate(-317.672 -151.274)" fill="#ffbda7"/>
              <g id="Like">
                <g id="Grupo_1004367" data-name="Grupo 1004367" transform="translate(0.246 0.245)">
                  <path id="Trazado_717009" data-name="Trazado 717009" d="M288.7,166.248c-.616,2.093,1.059,6.452,3.78,7.253a12.4,12.4,0,0,0-2.13,4.15c-.893,3.034,1.145,6.932,5.331,8.163l32.027,9.421,4.589,1.41,10.683-36.317-4.619-1.307s-4.974-15.564-5.2-17.9,3.325-11.3,3.817-12.979-7.277-4.642-11.574.689a25.649,25.649,0,0,0-6.182,16.377l-19.359-5.695c-4.086-1.2-6.868,2.073-7.546,4.376a6.826,6.826,0,0,0,1.477,6.575,5.63,5.63,0,0,0-5.473,4.3,6.34,6.34,0,0,0,2.986,7.246A7.665,7.665,0,0,0,288.7,166.248Z" transform="translate(-288.084 -125.791)" fill="#fafafa"/>
                </g>
                <path id="Trazado_717010" data-name="Trazado 717010" d="M352.582,128.139c.492-1.674-7.277-4.642-11.574.689a25.649,25.649,0,0,0-6.182,16.377l.243.334,3.443.972C341.431,127.774,348.894,127.154,352.582,128.139Z" transform="translate(-303.441 -125.546)" fill="#e0e0e0"/>
                <rect id="Rectángulo_347090" data-name="Rectángulo 347090" width="14.546" height="43.93" transform="translate(56.991 80.032) rotate(-163.609)" fill="#3076b6"/>
                <rect id="Rectángulo_347091" data-name="Rectángulo 347091" width="14.546" height="43.93" transform="translate(56.991 80.032) rotate(-163.609)" opacity="0.2"/>
                <path id="Trazado_717011" data-name="Trazado 717011" d="M291.309,168.758a7.66,7.66,0,0,0-2.611,4.236,3.093,3.093,0,0,0-.1.5c-.264,2.215,1.358,6.008,3.878,6.75a12.41,12.41,0,0,0-2.13,4.15,4.977,4.977,0,0,0-.179.934c-.284,2.855,1.743,6.122,5.511,7.229l6.43,1.892c-3.768-1.109-5.8-4.375-5.511-7.23a4.932,4.932,0,0,1,.179-.934,12.4,12.4,0,0,1,2.13-4.15c-2.52-.741-4.143-4.535-3.878-6.749a3.1,3.1,0,0,1,.1-.5,7.663,7.663,0,0,1,2.611-4.236,6.341,6.341,0,0,1-2.986-7.247.937.937,0,0,1,.035-.1,5.618,5.618,0,0,1,5.439-4.2,6.823,6.823,0,0,1-1.478-6.575c.039-.134.084-.27.14-.414.868-2.255,3.559-5.094,7.407-3.962l-6.431-1.892c-3.847-1.132-6.538,1.707-7.407,3.962-.055.143-.1.28-.14.414a6.826,6.826,0,0,0,1.478,6.575,5.618,5.618,0,0,0-5.439,4.2.944.944,0,0,0-.035.1A6.341,6.341,0,0,0,291.309,168.758Z" transform="translate(-287.838 -132.292)" fill="#e0e0e0"/>
                <path id="Trazado_717012" data-name="Trazado 717012" d="M327.511,195.354l-32.026-9.421a8.167,8.167,0,0,1-4.716-3.516,6.226,6.226,0,0,1-.787-4.962,12.947,12.947,0,0,1,1.957-3.956,6.087,6.087,0,0,1-2.955-3.156,6.679,6.679,0,0,1-.652-4.29,8.652,8.652,0,0,1,2.4-4.132,6.638,6.638,0,0,1-2.781-7.35,5.9,5.9,0,0,1,5.195-4.459,7.038,7.038,0,0,1-1.2-6.42,7.356,7.356,0,0,1,2.587-3.633,5.806,5.806,0,0,1,5.272-.913l19.048,5.6a25.836,25.836,0,0,1,6.225-16.2,8.863,8.863,0,0,1,10.659-2.233c1.033.541,1.528,1.187,1.355,1.773-.12.41-.419,1.243-.8,2.3-1.109,3.1-3.174,8.865-3.011,10.586.205,2.174,4.665,16.217,5.144,17.721l4.733,1.34-10.826,36.807ZM338.034,159.1l-.041-.129c-.2-.637-4.986-15.617-5.207-17.957-.173-1.833,1.838-7.448,3.04-10.8.374-1.047.671-1.874.787-2.27.091-.314-.352-.789-1.1-1.183a8.341,8.341,0,0,0-10.031,2.1,25.408,25.408,0,0,0-6.126,16.226l-.01.326-19.672-5.786a5.311,5.311,0,0,0-4.829.835,6.818,6.818,0,0,0-2.4,3.37,6.558,6.558,0,0,0,1.42,6.333l.416.451-.613-.027a5.322,5.322,0,0,0-5.22,4.122,6.1,6.1,0,0,0,2.863,6.954l.37.2-.352.232a7.546,7.546,0,0,0-2.505,4.1,6.17,6.17,0,0,0,.624,3.932,5.31,5.31,0,0,0,2.984,3.007l.373.11-.25.3a12.232,12.232,0,0,0-2.081,4.057,5.72,5.72,0,0,0,.734,4.555,7.663,7.663,0,0,0,4.426,3.294l32.03,9.421L332,196.206l10.538-35.827Z" transform="translate(-287.714 -125.424)" fill="#455a64"/>
                <rect id="Rectángulo_347092" data-name="Rectángulo 347092" width="14.546" height="21.965" transform="translate(56.991 80.032) rotate(-163.608)" opacity="0.2"/>
                <path id="Trazado_717013" data-name="Trazado 717013" d="M366.158,233.846a2.109,2.109,0,1,0-2.618,1.428A2.108,2.108,0,0,0,366.158,233.846Z" transform="translate(-312.521 -160.714)" fill="#f0f0f0"/>
              </g>
              <g id="Grupo_1004369" data-name="Grupo 1004369" transform="translate(49.353 12.808)">
                <g id="Grupo_1004368" data-name="Grupo 1004368">
                  <path id="Trazado_717014" data-name="Trazado 717014" d="M379.823,187.6c1.632,1.152,3.315,1.55,6.56,1.695,3.447.154,17.114-5.457,17.114-5.457l-2.518-18.176s-2.89-13.741,2.414-21.015c8.457,1.8,9.123,4.293,10.174,7.809.805,2.7,1.741,6.2,2.962,17.957,1.1,10.544,1.213,13.31,1.095,18.625-.1,4.591-3.767,6.066-10.132,7.545s-10.454,2.027-19.491,3.358c-4.346.64-6.805.345-10.577.261a13.726,13.726,0,0,1-4.22-.617,8.031,8.031,0,0,1-3.356-1.94,2.417,2.417,0,0,0-.527-.483,4.893,4.893,0,0,0-.649-.285,4.634,4.634,0,0,1-1.215-.574,7.19,7.19,0,0,1-.959-1.057,5.154,5.154,0,0,0-.43-.5,3.757,3.757,0,0,0-.556-.4,5.016,5.016,0,0,1-1.434-1.046.924.924,0,0,1-.155-.888s-.711-.288-.949-.4a5.023,5.023,0,0,1-.938-.573.5.5,0,0,1-.239-.344.469.469,0,0,1,.079-.238c.682-1.176,2.066-1.168,3.258-1.063,3.1.275,4.989,1.095,8.122,1.026,1.7-.037,2.168-.079,2.633-.406a.349.349,0,0,0,.131-.442" transform="translate(-361.797 -144.649)" fill="#ffbda7"/>
                  <path id="Trazado_717015" data-name="Trazado 717015" d="M424.306,202.108a35.529,35.529,0,0,1,6.847-2.568s-2.158-.849-7.019,1.329Z" transform="translate(-382.606 -162.918)" fill="#f0997a"/>
                  <path id="Trazado_717016" data-name="Trazado 717016" d="M365.155,216.553c.71.32,1.447.574,2.182.822s1.477.475,2.211.718c.367.115.731.253,1.113.356s.758.193,1.141.263c.764.151,1.532.272,2.307.346l-1.13-.282c-.376-.09-.753-.182-1.127-.281s-.748-.2-1.115-.31-.727-.246-1.1-.368q-1.112-.357-2.236-.655Z" transform="translate(-362.918 -168.652)" fill="#f0997a"/>
                  <path id="Trazado_717017" data-name="Trazado 717017" d="M368.1,219.76a9.4,9.4,0,0,0,1.576.911c.546.247,1.1.464,1.666.667s1.133.383,1.71.542a13.322,13.322,0,0,0,1.755.382c-.567-.193-1.124-.4-1.686-.6l-1.681-.6-1.679-.6C369.2,220.252,368.641,220.011,368.1,219.76Z" transform="translate(-363.9 -169.722)" fill="#f0997a"/>
                </g>
              </g>
              <g id="Grupo_1004370" data-name="Grupo 1004370" transform="translate(83.386 12.374)">
                <path id="Trazado_717018" data-name="Trazado 717018" d="M420.379,144c5.8,1.5,8.387,2.509,9.6,5.369s1.805,4.649,3.116,12.4A205.128,205.128,0,0,1,435.3,187.4c-.06,4.232.417,6.008-4.292,7.743s-15.378,3.284-15.378,3.284a19.149,19.149,0,0,0-.179-5.841,20.9,20.9,0,0,0-2.563-6.259l7.153-2.861s-2.5-16.213-2.861-19.074S415.833,150.073,420.379,144Z" transform="translate(-412.884 -143.998)" fill="#3076b6"/>
                <path id="Trazado_717019" data-name="Trazado 717019" d="M420.379,144c5.8,1.5,8.387,2.509,9.6,5.369s1.805,4.649,3.116,12.4A205.128,205.128,0,0,1,435.3,187.4c-.06,4.232.417,6.008-4.292,7.743s-15.378,3.284-15.378,3.284a19.149,19.149,0,0,0-.179-5.841,20.9,20.9,0,0,0-2.563-6.259l7.153-2.861s-2.5-16.213-2.861-19.074S415.833,150.073,420.379,144Z" transform="translate(-412.884 -143.998)" opacity="0.3"/>
              </g>
            </g>
            <g id="Grupo_1004382" data-name="Grupo 1004382" transform="translate(55.972)">
              <g id="Head">
                <path id="Trazado_717020" data-name="Trazado 717020" d="M376.847,104.742l-1.057-.326c-4.749-2.549-4.509-8.744-3.357-11.972,2.575-7.2,10.363-9.9,15.181-10.166,9.138-.5,13.6,1.861,14.544,6.594a5.2,5.2,0,0,1,3.967,2.29c2.247,3.06,4.92,13.719-6.926,24.961Z" transform="translate(-371.733 -82.212)" fill="#37474f"/>
                <g id="Grupo_1004381" data-name="Grupo 1004381" transform="translate(4.059 7.377)">
                  <g id="Grupo_1004372" data-name="Grupo 1004372" transform="translate(0 0.885)">
                    <path id="Trazado_717021" data-name="Trazado 717021" d="M403.435,116.688a4.211,4.211,0,0,0,3.886-1.759c2.117-2.523,2.225-5.01,1.129-6.62-.9-1.323-3.025-2.107-4.453-1.132-1.528,1.043-1.546,1.846-2.094,2.979-.563,1.162-2.841,1.124-3.563-3.328-.674-4.153-.484-8.516-2.6-10.319-3.159-2.694-7.11-1.764-8.261-.055a4.135,4.135,0,0,0-5.685-1.187c-2,1.176-3.506,4.37-3.914,12.314-.416,8.1,1.677,13.061,3.581,14.346,1.444.975,3.034,1.377,6.068,1.4l-.109,3.561s-4.1,7.752-3.823,14.669c0,0,1.676-1.152,9.2-7.734,5.014-4.384,8.179-7.148,8.179-7.148L401.4,115.5A2.588,2.588,0,0,0,403.435,116.688Z" transform="translate(-377.826 -94.615)" fill="#ffbda7"/>
                  </g>
                  <g id="Grupo_1004380" data-name="Grupo 1004380" transform="translate(2.081)">
                    <g id="Grupo_1004373" data-name="Grupo 1004373" transform="translate(0 7.755)">
                      <path id="Trazado_717022" data-name="Trazado 717022" d="M381.038,107.124l2.976-1.141a1.529,1.529,0,0,0-2.007-.951A1.674,1.674,0,0,0,381.038,107.124Z" transform="translate(-380.949 -104.927)" fill="#263238"/>
                    </g>
                    <g id="Grupo_1004374" data-name="Grupo 1004374" transform="translate(11.14 7.961)">
                      <path id="Trazado_717023" data-name="Trazado 717023" d="M397.671,106.066l2.948,1.716a1.637,1.637,0,0,0-.554-2.312A1.792,1.792,0,0,0,397.671,106.066Z" transform="translate(-397.671 -105.236)" fill="#263238"/>
                    </g>
                    <path id="Trazado_717024" data-name="Trazado 717024" d="M399.846,96.6c.716.907,1.237,1.819,1.129,5.074a16.235,16.235,0,0,0,.965,6.4c.795,1.649,1.619,2.63,3.376,2.937a6.45,6.45,0,0,0,3.171-.32c.623-.288,2.373-1.522,2.16-3.332a3.787,3.787,0,0,1-1.284.905,3.748,3.748,0,0,1-1.164.278,3.536,3.536,0,0,1-2.99-1.659c-1.181-1.75-1.1-4.11-1.464-6.117-.459-2.551-.9-5.444-3.2-6.708-2.721-1.494-7.635-.831-8.225,1.946A5.405,5.405,0,0,1,399.846,96.6Z" transform="translate(-384.743 -93.286)" fill="#37474f"/>
                    <g id="Grupo_1004375" data-name="Grupo 1004375" transform="translate(6.561 20.699)">
                      <path id="Trazado_717025" data-name="Trazado 717025" d="M395.249,124.357l-4.451,1.232a2.317,2.317,0,0,0,3.056,1.54A2.169,2.169,0,0,0,395.249,124.357Z" transform="translate(-390.798 -124.357)" fill="#b16668"/>
                      <path id="Trazado_717026" data-name="Trazado 717026" d="M393.476,127.6A2.424,2.424,0,0,1,396,125.551c.077,0,.148.024.223.035a2.039,2.039,0,0,1-1.473,1.939A2.628,2.628,0,0,1,393.476,127.6Z" transform="translate(-391.692 -124.754)" fill="#f0997a"/>
                    </g>
                    <g id="Grupo_1004376" data-name="Grupo 1004376" transform="translate(2.333 10.988)">
                      <path id="Trazado_717027" data-name="Trazado 717027" d="M389.69,109.781l-.939,7.929-4.3-1.674Z" transform="translate(-384.45 -109.781)" fill="#f0997a"/>
                    </g>
                    <g id="Grupo_1004377" data-name="Grupo 1004377" transform="translate(7.572 23.37)">
                      <path id="Trazado_717028" data-name="Trazado 717028" d="M392.365,134.589a28.271,28.271,0,0,0,8.555-1.933c.991-.434,2.316-2.26,3.391-4.29,0,0-.729,3.984-2.869,5.375-3.252,2.114-9.127,2.617-9.127,2.617Z" transform="translate(-392.315 -128.366)" fill="#f0997a"/>
                    </g>
                    <g id="Grupo_1004378" data-name="Grupo 1004378" transform="translate(0.17 11.381)">
                      <path id="Trazado_717029" data-name="Trazado 717029" d="M382.165,111.361c-.233.648.219.867.843,1.09s1.184.364,1.418-.284a1.2,1.2,0,1,0-2.262-.806Z" transform="translate(-381.504 -110.421)" fill="#263238"/>
                      <path id="Trazado_717030" data-name="Trazado 717030" d="M384.009,110.784a3.1,3.1,0,0,0-.9-.336,2.554,2.554,0,0,0-.929-.059,2.963,2.963,0,0,0-.951.267c-.021.01-.043.081-.006.077a8.458,8.458,0,0,1,.849-.074,4.361,4.361,0,0,1,1.041.137,4.406,4.406,0,0,1,1.176.454c.122.063.358.2.381.214s.065-.067.047-.1A2.073,2.073,0,0,0,384.009,110.784Z" transform="translate(-381.204 -110.37)" fill="#263238"/>
                    </g>
                    <g id="Grupo_1004379" data-name="Grupo 1004379" transform="translate(10.094 11.72)">
                      <path id="Trazado_717031" data-name="Trazado 717031" d="M399.179,111.935c.143.674-.334.83-.983.966s-1.223.2-1.366-.474a1.2,1.2,0,1,1,2.35-.492Z" transform="translate(-396.335 -110.898)" fill="#263238"/>
                      <path id="Trazado_717032" data-name="Trazado 717032" d="M396.893,111.1a3.1,3.1,0,0,1,.936-.211,2.559,2.559,0,0,1,.928.067,2.981,2.981,0,0,1,.907.394c.019.013.032.085-.005.076-.249-.061-.466-.13-.83-.188a4.9,4.9,0,0,0-2.278.284c-.129.046-.381.145-.406.161s-.055-.075-.034-.1A2.073,2.073,0,0,1,396.893,111.1Z" transform="translate(-396.101 -110.879)" fill="#263238"/>
                    </g>
                  </g>
                </g>
              </g>
            </g>
            <g id="Grupo_1004383" data-name="Grupo 1004383" transform="translate(19.454 85.986)">
              <path id="Trazado_717033" data-name="Trazado 717033" d="M319.4,220.227c-1.862-.012-1.966-.211-2.246-1.14a4.772,4.772,0,0,1,.671-4.306,9.853,9.853,0,0,1,2.273-2.5c.69-.347,1.514.974.81,2.606-1.11,2.571-.5,2.993-.5,2.993a34.441,34.441,0,0,1,1.573-3.218,25.463,25.463,0,0,1,2.845-2.887c.824-.825,2.16-.136,1.427,1.745l1.514-1.51c1.059-1.057,1.992-1,2.05.475a2.17,2.17,0,0,1-.38,1.378s.924-1.275,1.367-.993c1.27.806,1.016,1.825-.106,4.942-.955,2.654-.585,4.007.468,4.412l.681.2s-1.294.57-2.541,1.009a2.006,2.006,0,0,1-2.607-.518s-.991,1.422-1.921.878a5.517,5.517,0,0,1-1.613-1.689,1.889,1.889,0,0,1-2-.272,3.077,3.077,0,0,1-1.154-1.617Z" transform="translate(-316.916 -211.284)" fill="#ffbda7"/>
              <path id="Trazado_717034" data-name="Trazado 717034" d="M329.713,214.637a9.662,9.662,0,0,0-1.294,1.429,6.213,6.213,0,0,0-.615,1.849,22.519,22.519,0,0,0-.517,3.759,22.5,22.5,0,0,0,1.063-3.635,9.929,9.929,0,0,1,.452-1.765C329.062,215.755,329.443,215.211,329.713,214.637Z" transform="translate(-320.378 -212.403)" fill="#f0997a"/>
              <path id="Trazado_717035" data-name="Trazado 717035" d="M334.464,215.152a4.217,4.217,0,0,0-1.27,1.642,10.981,10.981,0,0,0-.657,1.965,19.533,19.533,0,0,0-.559,4.058,39.823,39.823,0,0,0,1.1-3.926A10.766,10.766,0,0,1,334.464,215.152Z" transform="translate(-321.944 -212.575)" fill="#f0997a"/>
            </g>
          </g>
        </g>
      </g>
      <g id="Speech_Bubble" data-name="Speech Bubble" transform="translate(202.714 40.114)">
        <g id="Speech_Bubble-2" data-name="Speech Bubble">
          <g id="Speech_Bubble-3" data-name="Speech Bubble">
            <path id="Trazado_717036" data-name="Trazado 717036" d="M331.511,54.281a19.067,19.067,0,0,1,6.1,12.657l.036,2.189a19.116,19.116,0,0,1-38.078,1.549l-.143-2.185a19.118,19.118,0,0,1,32.087-14.21Z" transform="translate(-297.799 -47.603)" fill="#fff"/>
            <path id="Trazado_717037" data-name="Trazado 717037" d="M302.445,53.5A20.752,20.752,0,0,0,330.462,83.92l6,2.352a1.206,1.206,0,0,0,1.521-1.656l-2.851-5.783A20.752,20.752,0,0,0,302.445,53.5Zm28.23-.051a19.07,19.07,0,0,1,6.12,12.646l.039,2.19A19.116,19.116,0,0,1,298.758,69.9l-.146-2.185a19.118,19.118,0,0,1,32.062-14.266Z" transform="translate(-296.985 -46.792)" fill="#455a64"/>
          </g>
          <g id="Check" transform="translate(8.309 11.08)">
            <path id="Trazado_717038" data-name="Trazado 717038" d="M319.042,84.914a2.932,2.932,0,0,1-2.142-.929l-6.651-7.1a2.934,2.934,0,0,1,4.284-4.011l4.32,4.612,10.22-12.944a2.934,2.934,0,0,1,4.606,3.635L321.345,83.8a2.933,2.933,0,0,1-2.179,1.113C319.125,84.913,319.083,84.914,319.042,84.914Z" transform="translate(-309.457 -63.423)" fill="#3076b6"/>
          </g>
        </g>
      </g>
      <g id="Icons" transform="translate(22.353 31.09)">
        <path id="Like-2" data-name="Like" d="M464.835,59.622a3.95,3.95,0,0,0-.888-1.242,2.859,2.859,0,0,0,.366-2.957,2.572,2.572,0,0,0-1.923-1.515,2.94,2.94,0,0,0-.153-2.214,2.767,2.767,0,0,0-3.628-1.386l-6.176,2.924a9.835,9.835,0,0,0-3.208-5.272,3.613,3.613,0,0,0-4.489-.225c-.717.532-.595,1.011-.51,1.193.069.144.226.434.43.8a18.98,18.98,0,0,1,1.658,3.524c.038.6-.494,4.34-.86,6.711a.475.475,0,0,0,.04.276l5.95,12.566a.474.474,0,0,0,.556.254.468.468,0,0,0,.075-.028l11.115-5.262a3.025,3.025,0,0,0,1.7-3.908,5.209,5.209,0,0,0-.726-1.121A3.182,3.182,0,0,0,464.835,59.622Zm-1.591,2.63a.476.476,0,0,0-.109.787,4.127,4.127,0,0,1,.9,1.232,2.109,2.109,0,0,1-1.246,2.644L452.1,71.975,446.414,59.97c.161-1.053.9-5.93.847-6.77a15.054,15.054,0,0,0-1.773-3.921c-.147-.268-.268-.491-.346-.641a2.289,2.289,0,0,1,1.164-.564,2.564,2.564,0,0,1,2.282.591,9.007,9.007,0,0,1,3.04,5.342.475.475,0,0,0,.669.34l6.718-3.18a1.812,1.812,0,0,1,2.364.935,2.036,2.036,0,0,1-.128,2.011.474.474,0,0,0,.49.727,1.582,1.582,0,0,1,1.714.992,1.856,1.856,0,0,1-.53,2.228.473.473,0,0,0-.181.426.479.479,0,0,0,.268.38,2.429,2.429,0,0,1,.965,1.164A2.133,2.133,0,0,1,463.244,62.253Zm-18.663-2.021a.469.469,0,0,0-.632-.226L439.107,62.3a.472.472,0,0,0-.244.268.483.483,0,0,0,.019.363l6.924,14.624a.475.475,0,0,0,.556.254.414.414,0,0,0,.075-.029l4.843-2.292a.474.474,0,0,0,.244-.268.483.483,0,0,0-.019-.363ZM446.46,76.72l-6.518-13.767,3.986-1.886,6.517,13.767Z" transform="translate(-163.976 -37.857)" fill="#e0e0e0"/>
        <path id="Like-3" data-name="Like" d="M27.833,155.288a4.132,4.132,0,0,0-.341,1.006,2.407,2.407,0,0,0,2.073,2.683l9.6,1.887a.349.349,0,0,0,.063.007.378.378,0,0,0,.38-.3l2.134-10.855a.379.379,0,0,0-.023-.221c-.745-1.757-1.887-4.54-1.975-5.008a15.1,15.1,0,0,1,.591-3.042c.084-.325.149-.58.174-.7.031-.157.031-.552-.626-.821a2.875,2.875,0,0,0-3.418,1.051,7.825,7.825,0,0,0-1.444,4.693l-5.335-1.048a2.2,2.2,0,0,0-2.528,1.777,2.34,2.34,0,0,0,.315,1.737,2.046,2.046,0,0,0-1.188,1.545,2.276,2.276,0,0,0,.86,2.209,3.134,3.134,0,0,0-.442,1.131A2.533,2.533,0,0,0,27.833,155.288Zm-.389-2.132a1.924,1.924,0,0,1,.516-1.086.382.382,0,0,0,.132-.346.375.375,0,0,0-.222-.293,1.475,1.475,0,0,1-.844-1.614,1.259,1.259,0,0,1,1.128-1.1.377.377,0,0,0,.236-.656,1.62,1.62,0,0,1-.491-1.526,1.442,1.442,0,0,1,1.641-1.183l5.8,1.141a.371.371,0,0,0,.321-.087.375.375,0,0,0,.129-.306,7.16,7.16,0,0,1,1.3-4.714,2.04,2.04,0,0,1,1.644-.9,1.824,1.824,0,0,1,1.009.208c-.031.131-.081.326-.142.562a11.984,11.984,0,0,0-.6,3.371c.125.658,1.647,4.276,1.977,5.056l-2.039,10.37-9.23-1.814a1.678,1.678,0,0,1-1.478-1.8,3.291,3.291,0,0,1,.45-1.125.378.378,0,0,0-.238-.586A1.7,1.7,0,0,1,27.444,153.156Zm12.517,9a.384.384,0,0,0,.057.284.377.377,0,0,0,.24.159l4.183.822a.349.349,0,0,0,.063.007.378.378,0,0,0,.38-.3l2.483-12.632a.377.377,0,0,0-.3-.444l-4.183-.822a.373.373,0,0,0-.443.3Zm.813-.224,2.337-11.891,3.442.676-2.337,11.892Z" transform="translate(-26.248 -68.79)" fill="#e0e0e0"/>
        <path id="Like-4" data-name="Like" d="M457.728,234.542a3.509,3.509,0,0,0-.462.766,2.024,2.024,0,0,0,1.219,2.578l7.548,3.284a.394.394,0,0,0,.051.017.318.318,0,0,0,.367-.182l3.713-8.534a.316.316,0,0,0,.021-.185c-.3-1.579-.731-4.072-.719-4.472a12.754,12.754,0,0,1,1.035-2.393c.128-.252.228-.45.27-.548.054-.123.125-.447-.366-.787a2.42,2.42,0,0,0-3,.246,6.586,6.586,0,0,0-2.034,3.6l-4.194-1.825a1.853,1.853,0,0,0-2.4,1,1.968,1.968,0,0,0-.055,1.484,1.724,1.724,0,0,0-1.255,1.055,1.915,1.915,0,0,0,.308,1.971,2.648,2.648,0,0,0-.568.849A2.131,2.131,0,0,0,457.728,234.542Zm.065-1.821a1.621,1.621,0,0,1,.621-.8.32.32,0,0,0,.171-.26.316.316,0,0,0-.129-.281,1.243,1.243,0,0,1-.4-1.479,1.06,1.06,0,0,1,1.126-.7.317.317,0,0,0,.312-.5,1.361,1.361,0,0,1-.129-1.342,1.213,1.213,0,0,1,1.562-.676l4.562,1.985a.317.317,0,0,0,.44-.241,6.032,6.032,0,0,1,1.921-3.639,1.713,1.713,0,0,1,1.514-.444,1.532,1.532,0,0,1,.791.352c-.049.1-.126.254-.218.436a10.075,10.075,0,0,0-1.1,2.661c-.017.564.582,3.811.711,4.511L466,240.461l-7.257-3.156a1.412,1.412,0,0,1-.891-1.743,2.761,2.761,0,0,1,.573-.843.32.32,0,0,0,.1-.286.316.316,0,0,0-.186-.238A1.427,1.427,0,0,1,457.793,232.721Zm8.661,9.654a.322.322,0,0,0,0,.244.316.316,0,0,0,.169.175l3.289,1.43a.281.281,0,0,0,.051.017.318.318,0,0,0,.367-.181l4.321-9.932a.324.324,0,0,0,0-.243.319.319,0,0,0-.169-.175l-3.289-1.431a.314.314,0,0,0-.418.165Zm.709-.037,4.067-9.349,2.707,1.176-4.067,9.35Z" transform="translate(-170.078 -96.815)" fill="#e0e0e0"/>
        <path id="Like-5" data-name="Like" d="M399.078,36.9a16.517,16.517,0,0,1,1.3-2.919c.169-.377-1.558-1.317-2.733-.2a6.064,6.064,0,0,0-1.965,3.64l-4.354-1.945a1.466,1.466,0,0,0-1.906.787,1.613,1.613,0,0,0,.139,1.587,1.33,1.33,0,0,0-1.418.835,1.5,1.5,0,0,0,.471,1.791,1.812,1.812,0,0,0-.745.909,1.638,1.638,0,0,0,.657,1.818,2.933,2.933,0,0,0-.63.9,1.653,1.653,0,0,0,.991,2.08l7.2,3.217,3.637-8.145S399.056,37.45,399.078,36.9Zm1.792,4.585-4.234,9.479,3.143,1.4,4.228-9.48ZM398.862,50.8a.614.614,0,1,1,.614-.614A.611.611,0,0,1,398.862,50.8Z" transform="translate(-146.936 -33.246)" fill="#ebebeb"/>
        <path id="Like-6" data-name="Like" d="M42.81,56.456l8.206,17.61L66.59,66.809a3.6,3.6,0,0,0,2.086-4.565,6.391,6.391,0,0,0-1.4-1.948c1.324-.616,1.841-2.964,1.366-3.982a3.948,3.948,0,0,0-1.654-1.955,3.263,3.263,0,0,0,.962-3.917,2.9,2.9,0,0,0-3.116-1.769,3.51,3.51,0,0,0,.246-3.459A3.191,3.191,0,0,0,60.9,43.567l-9.413,4.387a13.2,13.2,0,0,0-4.4-7.858c-2.6-2.383-6.323-.275-5.944.539s2.874,5.1,2.941,6.311S42.81,56.456,42.81,56.456Zm-9.258,3.7,9.539,20.494,6.8-3.161L40.334,56.993ZM43.677,75.9a1.337,1.337,0,1,1,1.358,1.315A1.331,1.331,0,0,1,43.677,75.9Z" transform="translate(-28.686 -35.165)" fill="#ebebeb"/>
        <g id="Check-2" data-name="Check" transform="translate(281.418 62.974)">
          <path id="Trazado_717039" data-name="Trazado 717039" d="M456.59,145.509a2.423,2.423,0,0,1-1.767-.766l-5.489-5.86a2.421,2.421,0,1,1,3.535-3.31l3.565,3.807,8.433-10.682a2.421,2.421,0,1,1,3.8,3l-10.177,12.891a2.418,2.418,0,0,1-1.8.919C456.658,145.508,456.624,145.509,456.59,145.509Z" transform="translate(-448.681 -127.775)" fill="#ebebeb"/>
        </g>
        <g id="Check-3" data-name="Check" transform="translate(2.169 123.323)">
          <path id="Trazado_717040" data-name="Trazado 717040" d="M37.414,236.1a2.423,2.423,0,0,1-1.767-.766l-5.489-5.86a2.422,2.422,0,0,1,3.535-3.31l3.564,3.806,8.433-10.682a2.421,2.421,0,1,1,3.8,3L39.314,235.176a2.418,2.418,0,0,1-1.8.919C37.482,236.1,37.448,236.1,37.414,236.1Z" transform="translate(-29.504 -218.364)" fill="#ebebeb"/>
        </g>
        <g id="Check-4" data-name="Check" transform="translate(63.852 2.28)">
          <g id="Grupo_1004384" data-name="Grupo 1004384">
            <path id="Trazado_717041" data-name="Trazado 717041" d="M131.7,58.09a3.3,3.3,0,0,1-2.4-1.04L122.981,50.3a3.288,3.288,0,1,1,4.8-4.5l3.707,3.959,9.353-11.846A3.288,3.288,0,0,1,146,41.995L134.282,56.84a3.276,3.276,0,0,1-2.442,1.247C131.8,58.09,131.749,58.09,131.7,58.09Zm-6.323-12.326a2.289,2.289,0,0,0-1.668,3.854l6.321,6.748a2.294,2.294,0,0,0,1.67.724l.093,0a2.285,2.285,0,0,0,1.7-.867l11.72-14.847a2.288,2.288,0,1,0-3.592-2.836L131.554,51.3l-4.5-4.807a2.273,2.273,0,0,0-1.6-.723Z" transform="translate(-122.095 -36.668)" fill="#e0e0e0"/>
          </g>
        </g>
      </g>
    </g>
  </g>
</svg>
