<svg xmlns="http://www.w3.org/2000/svg" width="294.533" height="267.516" viewBox="0 0 294.533 267.516">
  <g id="illustartion-1" transform="translate(-284.093 -135.021)">
    <path id="back" d="M578.579,282.984c-.693,38.294-9,75.7-23.9,108.741l-7.874,17.46-3.934,8.722-.11.245H329.405c-.042-.082-.083-.163-.127-.245q-1.456-2.84-2.933-5.654c-12.466-23.817-25.612-46.666-33.928-73.714C280.234,298.9,278.3,228.427,308.286,200.79c13.86-12.774,31.1-17.528,47.3-9.176,13.128,6.768,29.656,17.475,44.2,12.334,17.359-6.137,30.932-27.1,47.621-36.724,13.373-7.709,28.157-12.437,42.844-12.437a64.637,64.637,0,0,1,14.922,1.717s39.254,3.722,60.726,51.368C573.421,224.14,579.21,248.061,578.579,282.984Z" transform="translate(0 -16.473)" fill="#bbe5ff"/>
    <g id="gribble" transform="translate(310.53 199.591)">
      <path id="Trazado_718468" data-name="Trazado 718468" d="M460.686,533.1a5.755,5.755,0,1,0,5.755,5.755A5.755,5.755,0,0,0,460.686,533.1Zm0,8.057a2.3,2.3,0,1,1,2.3-2.3A2.3,2.3,0,0,1,460.686,541.156Z" transform="translate(-452.917 -531.372)" fill="#fff"/>
      <path id="Rectángulo_347181" data-name="Rectángulo 347181" d="M1.254,0h0A1.254,1.254,0,0,1,2.508,1.254V2.508a0,0,0,0,1,0,0H0a0,0,0,0,1,0,0V1.254A1.254,1.254,0,0,1,1.254,0Z" transform="translate(6.495 0)" fill="#fff"/>
      <path id="Trazado_718469" data-name="Trazado 718469" d="M457.532,534.781l-1.773,1.773-.89-.89a1.249,1.249,0,0,1,0-1.766l.007-.007a1.249,1.249,0,0,1,1.766,0Z" transform="translate(-452.56 -531.728)" fill="#fff"/>
      <path id="Rectángulo_347182" data-name="Rectángulo 347182" d="M1.254,0h0A1.254,1.254,0,0,1,2.508,1.254V2.508a0,0,0,0,1,0,0H0a0,0,0,0,1,0,0V1.254A1.254,1.254,0,0,1,1.254,0Z" transform="translate(0 8.797) rotate(-90)" fill="#fff"/>
      <path id="Trazado_718470" data-name="Trazado 718470" d="M454.886,584.7l1.773,1.773-.89.89a1.249,1.249,0,0,1-1.766,0l-.007-.007a1.249,1.249,0,0,1,0-1.766Z" transform="translate(-451.833 -574.382)" fill="#fff"/>
      <path id="Rectángulo_347183" data-name="Rectángulo 347183" d="M1.254,0h0A1.254,1.254,0,0,1,2.508,1.254V2.508a0,0,0,0,1,0,0H0a0,0,0,0,1,0,0V1.254A1.254,1.254,0,0,1,1.254,0Z" transform="translate(8.797 15.293) rotate(180)" fill="#fff"/>
      <path id="Trazado_718471" data-name="Trazado 718471" d="M504.807,587.348l1.773-1.773.89.89a1.249,1.249,0,0,1,0,1.767l-.007.007a1.249,1.249,0,0,1-1.767,0Z" transform="translate(-494.486 -575.109)" fill="#fff"/>
      <path id="Rectángulo_347184" data-name="Rectángulo 347184" d="M1.254,0h0A1.254,1.254,0,0,1,2.508,1.254V2.508a0,0,0,0,1,0,0H0a0,0,0,0,1,0,0V1.254A1.254,1.254,0,0,1,1.254,0Z" transform="translate(15.293 6.495) rotate(90)" fill="#fff"/>
      <path id="Trazado_718472" data-name="Trazado 718472" d="M507.453,537.427l-1.773-1.773.89-.89a1.249,1.249,0,0,1,1.766,0l.007.007a1.249,1.249,0,0,1,0,1.766Z" transform="translate(-495.214 -532.455)" fill="#fff"/>
    </g>
    <g id="gribble-2" data-name="gribble" transform="translate(292.181 288.658)">
      <path id="Trazado_718473" data-name="Trazado 718473" d="M348.613,1066.805a5.144,5.144,0,1,0,5.144,5.144A5.144,5.144,0,0,0,348.613,1066.805Zm0,7.2a2.058,2.058,0,1,1,2.058-2.058A2.058,2.058,0,0,1,348.613,1074.007Z" transform="translate(-341.669 -1065.262)" fill="#fff"/>
      <path id="Trazado_718474" data-name="Trazado 718474" d="M369.758,1059.78h-2.241v-1.121a1.121,1.121,0,0,1,1.121-1.121h0a1.121,1.121,0,0,1,1.121,1.121Z" transform="translate(-361.712 -1057.539)" fill="#fff"/>
      <path id="Trazado_718475" data-name="Trazado 718475" d="M345.8,1068.318l-1.585,1.585-.793-.792a1.121,1.121,0,0,1,0-1.585h0a1.121,1.121,0,0,1,1.585,0Z" transform="translate(-341.358 -1065.589)" fill="#fff"/>
      <path id="Trazado_718476" data-name="Trazado 718476" d="M334.9,1091.294v2.241h-1.121a1.121,1.121,0,0,1-1.121-1.121h0a1.121,1.121,0,0,1,1.121-1.121Z" transform="translate(-332.658 -1085.672)" fill="#fff"/>
      <path id="Trazado_718477" data-name="Trazado 718477" d="M343.437,1112.927l1.585,1.585-.792.792a1.121,1.121,0,0,1-1.585,0h0a1.12,1.12,0,0,1,0-1.585Z" transform="translate(-340.708 -1103.703)" fill="#fff"/>
      <path id="Rectángulo_347185" data-name="Rectángulo 347185" d="M1.121,0h0A1.121,1.121,0,0,1,2.241,1.121V2.241a0,0,0,0,1,0,0H0a0,0,0,0,1,0,0V1.121A1.121,1.121,0,0,1,1.121,0Z" transform="translate(7.863 13.668) rotate(180)" fill="#fff"/>
      <path id="Trazado_718478" data-name="Trazado 718478" d="M388.047,1115.293l1.585-1.585.793.792a1.121,1.121,0,0,1,0,1.585h0a1.121,1.121,0,0,1-1.585,0Z" transform="translate(-378.823 -1104.354)" fill="#fff"/>
      <path id="Trazado_718479" data-name="Trazado 718479" d="M401.273,1094.638V1092.4h1.121a1.121,1.121,0,0,1,1.121,1.121h0a1.12,1.12,0,0,1-1.121,1.12Z" transform="translate(-389.846 -1086.592)" fill="#fff"/>
      <path id="Trazado_718480" data-name="Trazado 718480" d="M390.412,1070.682l-1.585-1.585.792-.792a1.121,1.121,0,0,1,1.585,0h0a1.121,1.121,0,0,1,0,1.585Z" transform="translate(-379.473 -1066.239)" fill="#fff"/>
    </g>
    <g id="gribble-3" data-name="gribble" transform="translate(541.191 190.353)">
      <path id="Trazado_718481" data-name="Trazado 718481" d="M1843.8,476.53a5.144,5.144,0,1,0,5.144,5.144A5.144,5.144,0,0,0,1843.8,476.53Zm0,7.2a2.058,2.058,0,1,1,2.057-2.058A2.058,2.058,0,0,1,1843.8,483.732Z" transform="translate(-1836.858 -474.987)" fill="#fff"/>
      <path id="Rectángulo_347186" data-name="Rectángulo 347186" d="M1.121,0h0A1.121,1.121,0,0,1,2.241,1.121V2.241a0,0,0,0,1,0,0H0a0,0,0,0,1,0,0V1.121A1.121,1.121,0,0,1,1.121,0Z" transform="translate(5.805 0)" fill="#fff"/>
      <path id="Trazado_718482" data-name="Trazado 718482" d="M1840.992,478.043l-1.585,1.585-.792-.792a1.121,1.121,0,0,1,0-1.585h0a1.12,1.12,0,0,1,1.585,0Z" transform="translate(-1836.548 -475.314)" fill="#fff"/>
      <path id="Trazado_718483" data-name="Trazado 718483" d="M1830.089,501.019v2.241h-1.121a1.121,1.121,0,0,1-1.121-1.121h0a1.121,1.121,0,0,1,1.121-1.121Z" transform="translate(-1827.848 -495.397)" fill="#fff"/>
      <path id="Trazado_718484" data-name="Trazado 718484" d="M1838.627,522.653l1.585,1.585-.792.792a1.121,1.121,0,0,1-1.585,0h0a1.121,1.121,0,0,1,0-1.585Z" transform="translate(-1835.898 -513.428)" fill="#fff"/>
      <path id="Trazado_718485" data-name="Trazado 718485" d="M1861.6,535.878h2.241V537a1.121,1.121,0,0,1-1.121,1.121h0A1.121,1.121,0,0,1,1861.6,537Z" transform="translate(-1855.982 -524.451)" fill="#fff"/>
      <path id="Trazado_718486" data-name="Trazado 718486" d="M1883.237,525.018l1.585-1.585.793.792a1.121,1.121,0,0,1,0,1.585h0a1.121,1.121,0,0,1-1.585,0Z" transform="translate(-1874.013 -514.079)" fill="#fff"/>
      <path id="Trazado_718487" data-name="Trazado 718487" d="M1896.462,504.364v-2.241h1.121a1.12,1.12,0,0,1,1.121,1.121h0a1.12,1.12,0,0,1-1.121,1.121Z" transform="translate(-1885.035 -496.317)" fill="#fff"/>
      <path id="Trazado_718488" data-name="Trazado 718488" d="M1885.6,480.408l-1.585-1.585.792-.792a1.12,1.12,0,0,1,1.585,0h0a1.12,1.12,0,0,1,0,1.585Z" transform="translate(-1874.662 -475.964)" fill="#fff"/>
    </g>
    <g id="gribble-4" data-name="gribble" transform="translate(318.548 266.334)">
      <path id="Trazado_718489" data-name="Trazado 718489" d="M502.107,929.958a3.588,3.588,0,1,0,3.589,3.588A3.588,3.588,0,0,0,502.107,929.958Zm0,5.024a1.435,1.435,0,1,1,1.435-1.435A1.435,1.435,0,0,1,502.107,934.982Z" transform="translate(-497.263 -928.881)" fill="#fff"/>
      <path id="Trazado_718490" data-name="Trazado 718490" d="M516.859,925.057h-1.564v-.782a.782.782,0,0,1,.782-.782h0a.782.782,0,0,1,.782.782Z" transform="translate(-511.245 -923.493)" fill="#fff"/>
      <path id="Trazado_718491" data-name="Trazado 718491" d="M500.147,931.013l-1.105,1.106-.553-.553a.782.782,0,0,1,0-1.106h0a.782.782,0,0,1,1.106,0Z" transform="translate(-497.047 -929.109)" fill="#fff"/>
      <path id="Trazado_718492" data-name="Trazado 718492" d="M492.542,947.042v1.563h-.782a.782.782,0,0,1-.782-.782h0a.782.782,0,0,1,.782-.782Z" transform="translate(-490.978 -943.12)" fill="#fff"/>
      <path id="Trazado_718493" data-name="Trazado 718493" d="M498.5,962.133l1.105,1.106-.553.553a.782.782,0,0,1-1.106,0h0a.782.782,0,0,1,0-1.106Z" transform="translate(-496.593 -955.698)" fill="#fff"/>
      <path id="Trazado_718494" data-name="Trazado 718494" d="M514.526,971.359h1.563v.782a.782.782,0,0,1-.782.782h0a.782.782,0,0,1-.782-.782Z" transform="translate(-510.604 -963.387)" fill="#fff"/>
      <path id="Trazado_718495" data-name="Trazado 718495" d="M529.617,963.783l1.106-1.106.553.553a.782.782,0,0,1,0,1.106h0a.782.782,0,0,1-1.106,0Z" transform="translate(-523.182 -956.151)" fill="#fff"/>
      <path id="Rectángulo_347187" data-name="Rectángulo 347187" d="M.782,0h0a.782.782,0,0,1,.782.782v.782a0,0,0,0,1,0,0H0a0,0,0,0,1,0,0V.782A.782.782,0,0,1,.782,0Z" transform="translate(9.535 4.05) rotate(90)" fill="#fff"/>
      <path id="Trazado_718496" data-name="Trazado 718496" d="M531.267,932.663l-1.106-1.106.553-.553a.782.782,0,0,1,1.106,0h0a.782.782,0,0,1,0,1.106Z" transform="translate(-523.635 -929.562)" fill="#fff"/>
    </g>
    <g id="gribble-5" data-name="gribble" transform="translate(554.129 266.334)">
      <path id="Trazado_718497" data-name="Trazado 718497" d="M1916.661,929.958a3.588,3.588,0,1,0,3.588,3.588A3.589,3.589,0,0,0,1916.661,929.958Zm0,5.024a1.435,1.435,0,1,1,1.435-1.435A1.435,1.435,0,0,1,1916.661,934.982Z" transform="translate(-1911.816 -928.881)" fill="#fff"/>
      <path id="Rectángulo_347188" data-name="Rectángulo 347188" d="M.782,0h0a.782.782,0,0,1,.782.782v.782a0,0,0,0,1,0,0H0a0,0,0,0,1,0,0V.782A.782.782,0,0,1,.782,0Z" transform="translate(4.05)" fill="#fff"/>
      <path id="Trazado_718498" data-name="Trazado 718498" d="M1914.7,931.013l-1.106,1.106-.553-.553a.782.782,0,0,1,0-1.106h0a.782.782,0,0,1,1.106,0Z" transform="translate(-1911.599 -929.109)" fill="#fff"/>
      <path id="Trazado_718499" data-name="Trazado 718499" d="M1907.094,947.042v1.563h-.782a.782.782,0,0,1-.782-.782h0a.782.782,0,0,1,.782-.782Z" transform="translate(-1905.53 -943.12)" fill="#fff"/>
      <path id="Trazado_718500" data-name="Trazado 718500" d="M1913.05,962.133l1.106,1.106-.553.553a.782.782,0,0,1-1.105,0h0a.782.782,0,0,1,0-1.106Z" transform="translate(-1911.146 -955.698)" fill="#fff"/>
      <path id="Trazado_718501" data-name="Trazado 718501" d="M1929.078,971.359h1.564v.782a.782.782,0,0,1-.782.782h0a.782.782,0,0,1-.782-.782Z" transform="translate(-1925.156 -963.387)" fill="#fff"/>
      <path id="Trazado_718502" data-name="Trazado 718502" d="M1944.17,963.783l1.105-1.106.553.553a.782.782,0,0,1,0,1.106h0a.782.782,0,0,1-1.106,0Z" transform="translate(-1937.735 -956.151)" fill="#fff"/>
      <path id="Rectángulo_347189" data-name="Rectángulo 347189" d="M.782,0h0a.782.782,0,0,1,.782.782v.782a0,0,0,0,1,0,0H0a0,0,0,0,1,0,0V.782A.782.782,0,0,1,.782,0Z" transform="translate(9.535 4.05) rotate(90)" fill="#fff"/>
      <path id="Trazado_718503" data-name="Trazado 718503" d="M1945.82,932.663l-1.106-1.106.553-.553a.782.782,0,0,1,1.106,0h0a.782.782,0,0,1,0,1.106Z" transform="translate(-1938.188 -929.563)" fill="#fff"/>
    </g>
    <g id="gribble-6" data-name="gribble" transform="translate(456.287 145.976)">
      <path id="Trazado_718504" data-name="Trazado 718504" d="M1329.17,207.266a3.588,3.588,0,1,0,3.589,3.588A3.589,3.589,0,0,0,1329.17,207.266Zm0,5.024a1.435,1.435,0,1,1,1.435-1.435A1.435,1.435,0,0,1,1329.17,212.29Z" transform="translate(-1324.325 -206.189)" fill="#fff"/>
      <path id="Trazado_718505" data-name="Trazado 718505" d="M1343.921,202.365h-1.563v-.782a.782.782,0,0,1,.782-.782h0a.782.782,0,0,1,.782.782Z" transform="translate(-1338.307 -200.801)" fill="#fff"/>
      <path id="Trazado_718506" data-name="Trazado 718506" d="M1327.209,208.321l-1.106,1.106-.553-.553a.782.782,0,0,1,0-1.106h0a.782.782,0,0,1,1.105,0Z" transform="translate(-1324.109 -206.417)" fill="#fff"/>
      <path id="Trazado_718507" data-name="Trazado 718507" d="M1319.6,224.35v1.563h-.782a.782.782,0,0,1-.782-.782h0a.782.782,0,0,1,.782-.782Z" transform="translate(-1318.039 -220.428)" fill="#fff"/>
      <path id="Trazado_718508" data-name="Trazado 718508" d="M1325.558,239.441l1.106,1.106-.553.553a.782.782,0,0,1-1.105,0h0a.782.782,0,0,1,0-1.106Z" transform="translate(-1323.654 -233.006)" fill="#fff"/>
      <path id="Trazado_718509" data-name="Trazado 718509" d="M1341.587,248.667h1.564v.782a.782.782,0,0,1-.782.782h0a.782.782,0,0,1-.782-.782Z" transform="translate(-1337.665 -240.695)" fill="#fff"/>
      <path id="Trazado_718510" data-name="Trazado 718510" d="M1356.678,241.091l1.106-1.106.553.553a.782.782,0,0,1,0,1.106h0a.782.782,0,0,1-1.105,0Z" transform="translate(-1350.243 -233.459)" fill="#fff"/>
      <path id="Trazado_718511" data-name="Trazado 718511" d="M1365.905,226.683v-1.563h.782a.782.782,0,0,1,.782.782h0a.782.782,0,0,1-.782.782Z" transform="translate(-1357.934 -221.069)" fill="#fff"/>
      <path id="Trazado_718512" data-name="Trazado 718512" d="M1358.329,209.971l-1.106-1.105.553-.553a.782.782,0,0,1,1.106,0h0a.782.782,0,0,1,0,1.106Z" transform="translate(-1350.697 -206.87)" fill="#fff"/>
    </g>
    <g id="gribble-7" data-name="gribble" transform="translate(333.273 182.75)">
      <path id="Trazado_718513" data-name="Trazado 718513" d="M590.528,428.078a3.588,3.588,0,1,0,3.589,3.588A3.588,3.588,0,0,0,590.528,428.078Zm0,5.024a1.435,1.435,0,1,1,1.435-1.435A1.435,1.435,0,0,1,590.528,433.1Z" transform="translate(-585.684 -427.001)" fill="#fff"/>
      <path id="Trazado_718514" data-name="Trazado 718514" d="M605.279,423.177h-1.563V422.4a.782.782,0,0,1,.782-.782h0a.782.782,0,0,1,.782.782Z" transform="translate(-599.666 -421.614)" fill="#fff"/>
      <path id="Trazado_718515" data-name="Trazado 718515" d="M588.568,429.133l-1.106,1.105-.553-.553a.782.782,0,0,1,0-1.106h0a.782.782,0,0,1,1.106,0Z" transform="translate(-585.467 -427.229)" fill="#fff"/>
      <path id="Trazado_718516" data-name="Trazado 718516" d="M580.962,445.162v1.564h-.782a.782.782,0,0,1-.782-.782h0a.782.782,0,0,1,.782-.782Z" transform="translate(-579.398 -441.24)" fill="#fff"/>
      <path id="Trazado_718517" data-name="Trazado 718517" d="M586.918,460.253l1.106,1.106-.553.553a.782.782,0,0,1-1.106,0h0a.782.782,0,0,1,0-1.105Z" transform="translate(-585.014 -453.818)" fill="#fff"/>
      <path id="Trazado_718518" data-name="Trazado 718518" d="M602.946,469.479h1.564v.782a.782.782,0,0,1-.782.782h0a.782.782,0,0,1-.782-.782Z" transform="translate(-599.024 -461.508)" fill="#fff"/>
      <path id="Trazado_718519" data-name="Trazado 718519" d="M618.038,461.9l1.105-1.106.553.553a.782.782,0,0,1,0,1.106h0a.782.782,0,0,1-1.106,0Z" transform="translate(-611.603 -454.271)" fill="#fff"/>
      <path id="Trazado_718520" data-name="Trazado 718520" d="M627.264,447.495v-1.564h.782a.782.782,0,0,1,.782.782h0a.782.782,0,0,1-.782.782Z" transform="translate(-619.292 -441.881)" fill="#fff"/>
      <path id="Trazado_718521" data-name="Trazado 718521" d="M619.688,430.783l-1.106-1.106.553-.553a.782.782,0,0,1,1.106,0h0a.782.782,0,0,1,0,1.106Z" transform="translate(-612.056 -427.683)" fill="#fff"/>
    </g>
    <g id="gribble-8" data-name="gribble" transform="translate(530.5 165.784)">
      <path id="Trazado_718522" data-name="Trazado 718522" d="M1774.786,326.2a3.588,3.588,0,1,0,3.589,3.588A3.589,3.589,0,0,0,1774.786,326.2Zm0,5.024a1.435,1.435,0,1,1,1.435-1.435A1.435,1.435,0,0,1,1774.786,331.226Z" transform="translate(-1769.941 -325.125)" fill="#fff"/>
      <path id="Trazado_718523" data-name="Trazado 718523" d="M1789.537,321.3h-1.564v-.782a.782.782,0,0,1,.782-.782h0a.782.782,0,0,1,.782.782Z" transform="translate(-1783.923 -319.738)" fill="#fff"/>
      <path id="Trazado_718524" data-name="Trazado 718524" d="M1772.825,327.257l-1.105,1.106-.553-.553a.782.782,0,0,1,0-1.106h0a.782.782,0,0,1,1.106,0Z" transform="translate(-1769.725 -325.353)" fill="#fff"/>
      <path id="Trazado_718525" data-name="Trazado 718525" d="M1765.219,343.286v1.563h-.782a.782.782,0,0,1-.782-.782h0a.782.782,0,0,1,.782-.782Z" transform="translate(-1763.655 -339.364)" fill="#fff"/>
      <path id="Trazado_718526" data-name="Trazado 718526" d="M1771.175,358.377l1.106,1.106-.553.553a.782.782,0,0,1-1.106,0h0a.782.782,0,0,1,0-1.106Z" transform="translate(-1769.271 -351.942)" fill="#fff"/>
      <path id="Trazado_718527" data-name="Trazado 718527" d="M1787.2,367.6h1.564v.782a.782.782,0,0,1-.782.782h0a.782.782,0,0,1-.782-.782Z" transform="translate(-1783.281 -359.632)" fill="#fff"/>
      <path id="Trazado_718528" data-name="Trazado 718528" d="M1802.3,360.027l1.106-1.106.553.553a.782.782,0,0,1,0,1.106h0a.782.782,0,0,1-1.106,0Z" transform="translate(-1795.86 -352.395)" fill="#fff"/>
      <path id="Trazado_718529" data-name="Trazado 718529" d="M1811.521,345.619v-1.564h.782a.782.782,0,0,1,.782.782h0a.782.782,0,0,1-.782.782Z" transform="translate(-1803.55 -340.005)" fill="#fff"/>
      <path id="Trazado_718530" data-name="Trazado 718530" d="M1803.945,328.907l-1.106-1.105.553-.553a.782.782,0,0,1,1.106,0h0a.782.782,0,0,1,0,1.106Z" transform="translate(-1796.313 -325.807)" fill="#fff"/>
    </g>
    <g id="gribble-9" data-name="gribble" transform="translate(288.95 238.047)">
      <path id="Trazado_718531" data-name="Trazado 718531" d="M339.822,769.068a8.564,8.564,0,1,0,8.564,8.564A8.564,8.564,0,0,0,339.822,769.068Zm0,11.99a3.426,3.426,0,1,1,3.426-3.426A3.426,3.426,0,0,1,339.822,781.058Z" transform="translate(-328.261 -766.499)" fill="#fff"/>
      <path id="Rectángulo_347190" data-name="Rectángulo 347190" d="M1.866,0h0A1.866,1.866,0,0,1,3.731,1.866V3.731a0,0,0,0,1,0,0H0a0,0,0,0,1,0,0V1.866A1.866,1.866,0,0,1,1.866,0Z" transform="translate(9.665 0)" fill="#fff"/>
      <path id="Rectángulo_347191" data-name="Rectángulo 347191" d="M1.866,0h0A1.866,1.866,0,0,1,3.731,1.866V3.731a0,0,0,0,1,0,0H0a0,0,0,0,1,0,0V1.866A1.866,1.866,0,0,1,1.866,0Z" transform="matrix(0.707, -0.707, 0.707, 0.707, 2.121, 4.544)" fill="#fff"/>
      <path id="Rectángulo_347192" data-name="Rectángulo 347192" d="M1.866,0h0A1.866,1.866,0,0,1,3.731,1.866V3.731a0,0,0,0,1,0,0H0a0,0,0,0,1,0,0V1.866A1.866,1.866,0,0,1,1.866,0Z" transform="translate(0 13.091) rotate(-90)" fill="#fff"/>
      <path id="Rectángulo_347193" data-name="Rectángulo 347193" d="M1.866,0h0A1.866,1.866,0,0,1,3.731,1.866V3.731a0,0,0,0,1,0,0H0a0,0,0,0,1,0,0V1.866A1.866,1.866,0,0,1,1.866,0Z" transform="translate(4.544 20.634) rotate(-135)" fill="#fff"/>
      <path id="Rectángulo_347194" data-name="Rectángulo 347194" d="M1.866,0h0A1.866,1.866,0,0,1,3.731,1.866V3.731a0,0,0,0,1,0,0H0a0,0,0,0,1,0,0V1.866A1.866,1.866,0,0,1,1.866,0Z" transform="translate(13.091 22.756) rotate(180)" fill="#fff"/>
      <path id="Rectángulo_347195" data-name="Rectángulo 347195" d="M1.866,0h0A1.866,1.866,0,0,1,3.731,1.866V3.731a0,0,0,0,1,0,0H0a0,0,0,0,1,0,0V1.866A1.866,1.866,0,0,1,1.866,0Z" transform="translate(20.634 18.212) rotate(135)" fill="#fff"/>
      <path id="Rectángulo_347196" data-name="Rectángulo 347196" d="M1.866,0h0A1.866,1.866,0,0,1,3.731,1.866V3.731a0,0,0,0,1,0,0H0a0,0,0,0,1,0,0V1.866A1.866,1.866,0,0,1,1.866,0Z" transform="translate(22.756 9.665) rotate(90)" fill="#fff"/>
      <path id="Rectángulo_347197" data-name="Rectángulo 347197" d="M1.866,0h0A1.866,1.866,0,0,1,3.731,1.866V3.731a0,0,0,0,1,0,0H0a0,0,0,0,1,0,0V1.866A1.866,1.866,0,0,1,1.866,0Z" transform="translate(18.212 2.121) rotate(45)" fill="#fff"/>
    </g>
    <g id="gribble-10" data-name="gribble" transform="translate(538.815 291.047)">
      <path id="Trazado_718532" data-name="Trazado 718532" d="M1840.144,1087.308a8.564,8.564,0,1,0,8.564,8.564A8.564,8.564,0,0,0,1840.144,1087.308Zm0,11.989a3.426,3.426,0,1,1,3.426-3.426A3.426,3.426,0,0,1,1840.144,1099.3Z" transform="translate(-1828.583 -1084.739)" fill="#fff"/>
      <path id="Rectángulo_347198" data-name="Rectángulo 347198" d="M1.866,0h0A1.866,1.866,0,0,1,3.731,1.866V3.731a0,0,0,0,1,0,0H0a0,0,0,0,1,0,0V1.866A1.866,1.866,0,0,1,1.866,0Z" transform="translate(9.665)" fill="#fff"/>
      <path id="Rectángulo_347199" data-name="Rectángulo 347199" d="M1.866,0h0A1.866,1.866,0,0,1,3.731,1.866V3.731a0,0,0,0,1,0,0H0a0,0,0,0,1,0,0V1.866A1.866,1.866,0,0,1,1.866,0Z" transform="translate(2.121 4.544) rotate(-45)" fill="#fff"/>
      <path id="Rectángulo_347200" data-name="Rectángulo 347200" d="M1.866,0h0A1.866,1.866,0,0,1,3.731,1.866V3.731a0,0,0,0,1,0,0H0a0,0,0,0,1,0,0V1.866A1.866,1.866,0,0,1,1.866,0Z" transform="translate(0 13.091) rotate(-90)" fill="#fff"/>
      <path id="Rectángulo_347201" data-name="Rectángulo 347201" d="M1.866,0h0A1.866,1.866,0,0,1,3.731,1.866V3.731a0,0,0,0,1,0,0H0a0,0,0,0,1,0,0V1.866A1.866,1.866,0,0,1,1.866,0Z" transform="translate(4.544 20.634) rotate(-135)" fill="#fff"/>
      <path id="Rectángulo_347202" data-name="Rectángulo 347202" d="M1.866,0h0A1.866,1.866,0,0,1,3.731,1.866V3.731a0,0,0,0,1,0,0H0a0,0,0,0,1,0,0V1.866A1.866,1.866,0,0,1,1.866,0Z" transform="translate(13.091 22.756) rotate(180)" fill="#fff"/>
      <path id="Rectángulo_347203" data-name="Rectángulo 347203" d="M1.866,0h0A1.866,1.866,0,0,1,3.731,1.866V3.731a0,0,0,0,1,0,0H0a0,0,0,0,1,0,0V1.866A1.866,1.866,0,0,1,1.866,0Z" transform="translate(20.634 18.212) rotate(135)" fill="#fff"/>
      <path id="Rectángulo_347204" data-name="Rectángulo 347204" d="M1.866,0h0A1.866,1.866,0,0,1,3.731,1.866V3.731a0,0,0,0,1,0,0H0a0,0,0,0,1,0,0V1.866A1.866,1.866,0,0,1,1.866,0Z" transform="translate(22.756 9.665) rotate(90)" fill="#fff"/>
      <path id="Rectángulo_347205" data-name="Rectángulo 347205" d="M1.866,0h0A1.866,1.866,0,0,1,3.731,1.866V3.731a0,0,0,0,1,0,0H0a0,0,0,0,1,0,0V1.866A1.866,1.866,0,0,1,1.866,0Z" transform="translate(18.212 2.121) rotate(45)" fill="#fff"/>
    </g>
    <g id="leaves" transform="translate(471.35 229.272)">
      <g id="Grupo_1004975" data-name="Grupo 1004975" transform="translate(0)">
        <path id="Trazado_718533" data-name="Trazado 718533" d="M1558.842,868.2a.61.61,0,0,1-.808-.216c-6.846-11.059-14.2-17.522-19.169-21a36.388,36.388,0,0,0-9.144-4.906.61.61,0,1,1,.351-1.169,36.961,36.961,0,0,1,9.493,5.075c5.06,3.54,12.551,10.119,19.507,21.355a.61.61,0,0,1-.2.84Z" transform="translate(-1509.167 -817.578)" fill="#6d6d16"/>
        <g id="Grupo_1004970" data-name="Grupo 1004970" transform="translate(23.466)">
          <path id="Trazado_718534" data-name="Trazado 718534" d="M1559.417,713.945c-.115,7.137-4.685,12.848-4.685,12.848s-5.459-5.8-5.345-12.931,5.764-12.906,5.764-12.906S1559.534,706.81,1559.417,713.945Z" transform="translate(-1549.386 -700.956)" fill="#8d931b"/>
          <path id="Trazado_718535" data-name="Trazado 718535" d="M1576.75,760.637a.306.306,0,0,1-.443-.2,80.74,80.74,0,0,1-1.01-21.644.305.305,0,1,1,.608.056,80.093,80.093,0,0,0,1,21.46A.306.306,0,0,1,1576.75,760.637Z" transform="translate(-1570.723 -732.257)" fill="#6d6d16"/>
        </g>
        <g id="Grupo_1004971" data-name="Grupo 1004971" transform="translate(38.798 14.736)">
          <path id="Trazado_718536" data-name="Trazado 718536" d="M1651.481,802.43c-.116,7.135-4.683,12.848-4.683,12.848s-5.461-5.8-5.347-12.933,5.765-12.906,5.765-12.906S1651.6,795.3,1651.481,802.43Z" transform="translate(-1641.449 -789.439)" fill="#8d931b"/>
          <path id="Trazado_718537" data-name="Trazado 718537" d="M1668.813,849.121a.306.306,0,0,1-.444-.2,80.8,80.8,0,0,1-1.008-21.644.305.305,0,0,1,.608.056,80.145,80.145,0,0,0,1,21.461A.305.305,0,0,1,1668.813,849.121Z" transform="translate(-1662.787 -820.741)" fill="#6d6d16"/>
        </g>
        <g id="Grupo_1004972" data-name="Grupo 1004972" transform="translate(10.022 32.36)">
          <path id="Trazado_718538" data-name="Trazado 718538" d="M1481.284,895.294c7.121-.433,13.169,3.682,13.169,3.682s-5.359,5.892-12.483,6.329-13.311-4.754-13.311-4.754S1474.161,895.729,1481.284,895.294Z" transform="translate(-1468.659 -895.262)" fill="#8d931b"/>
          <path id="Trazado_718539" data-name="Trazado 718539" d="M1528.383,912.035a.309.309,0,0,1-.058.024,80.6,80.6,0,0,1-21.5,2.677.305.305,0,1,1,.009-.61,79.948,79.948,0,0,0,21.318-2.651.305.305,0,0,1,.232.561Z" transform="translate(-1500.217 -908.763)" fill="#6d6d16"/>
        </g>
        <g id="Grupo_1004973" data-name="Grupo 1004973" transform="translate(20.085 42.91)">
          <path id="Trazado_718540" data-name="Trazado 718540" d="M1542.249,958.64c7.126.418,12.635,5.228,12.635,5.228s-6.025,5.2-13.148,4.788-12.649-6.311-12.649-6.311S1535.126,958.217,1542.249,958.64Z" transform="translate(-1529.087 -958.609)" fill="#8d931b"/>
          <path id="Trazado_718541" data-name="Trazado 718541" d="M1588.419,986.29a.3.3,0,0,1-.094.032,80.545,80.545,0,0,1-21.667.084.305.305,0,1,1,.082-.6,79.893,79.893,0,0,0,21.482-.081.305.305,0,0,1,.2.57Z" transform="translate(-1560.181 -981.201)" fill="#6d6d16"/>
        </g>
        <g id="Grupo_1004974" data-name="Grupo 1004974" transform="translate(0 11.495)">
          <path id="Trazado_718542" data-name="Trazado 718542" d="M1421.9,772.729c6.165,3.6,8.907,10.377,8.907,10.377s-7.728,1.923-13.891-1.671-8.432-11.343-8.432-11.343S1415.734,769.137,1421.9,772.729Z" transform="translate(-1408.484 -769.976)" fill="#8d931b"/>
          <path id="Trazado_718543" data-name="Trazado 718543" d="M1458.125,803.026a.3.3,0,0,1-.235.023,80.712,80.712,0,0,1-19.365-9.714.305.305,0,1,1,.346-.5,80.063,80.063,0,0,0,19.2,9.634.305.305,0,0,1,.054.56Z" transform="translate(-1433.411 -788.98)" fill="#6d6d16"/>
        </g>
      </g>
    </g>
    <g id="phone" transform="translate(466.083 287.071)">
      <path id="Trazado_718544" data-name="Trazado 718544" d="M1406.114,1103.021a2.126,2.126,0,0,1-2.12,2.119h-25.015a2.126,2.126,0,0,1-2.12-2.119v-52.89a2.126,2.126,0,0,1,2.12-2.12h25.015a2.126,2.126,0,0,1,2.12,2.12Z" transform="translate(-1376.86 -1048.01)" fill="#542e28"/>
      <rect id="Rectángulo_347206" data-name="Rectángulo 347206" width="25.862" height="45.366" transform="translate(1.696 5.724)" fill="#a0c3e5"/>
      <path id="Trazado_718545" data-name="Trazado 718545" d="M1460.468,1367.976a.995.995,0,1,1,.995-.994A1,1,0,0,1,1460.468,1367.976Zm0-1.867a.872.872,0,1,0,.873.873A.873.873,0,0,0,1460.468,1366.109Z" transform="translate(-1445.715 -1313.031)" fill="#f4f3e6"/>
    </g>
    <g id="circle" transform="translate(324.535 138.819)">
      <g id="Grupo_1004976" data-name="Grupo 1004976" transform="translate(163.743 43.071)">
        <path id="Trazado_718546" data-name="Trazado 718546" d="M1549.521,557.9l-22.289-12.869a85.075,85.075,0,0,0-17.1-105.931l13.08-22.654A110.6,110.6,0,0,1,1549.521,557.9Z" transform="translate(-1510.132 -416.447)" fill="#7aa6e5"/>
        <path id="Trazado_718547" data-name="Trazado 718547" d="M1584.315,1148.121l-9.334-33.475,41.8,24.135Z" transform="translate(-1564.181 -998.367)" fill="#7aa6e5"/>
      </g>
      <g id="Grupo_1004981" data-name="Grupo 1004981" transform="translate(132.961 0)">
        <g id="Grupo_1004977" data-name="Grupo 1004977" transform="translate(37.079 1.979)">
          <path id="Trazado_718548" data-name="Trazado 718548" d="M1574.884,199.685h-9.763c-.123-2.094-.227-4.174-.313-6.2H1574c-.213-1.629-.4-3.2-.562-4.688h-8.794q-.038-1.291-.063-2.53h8.609c-.19-2.144-.3-4.041-.31-5.59H1554.5c-.01,1.549-.12,3.446-.31,5.59-.072.81-.155,1.655-.248,2.53-.158,1.487-.347,3.059-.561,4.688-.262,2-.562,4.082-.888,6.2-1.29,8.385-3.008,17.321-4.553,23.653h31.5C1577.892,217.006,1576.174,208.07,1574.884,199.685Zm-19.636-13.42h2.71c-.033.815-.072,1.659-.116,2.53h-2.793C1555.123,187.938,1555.19,187.094,1555.248,186.265Zm-1.482,13.42c.3-2.08.572-4.16.806-6.2h3c-.129,2.02-.276,4.107-.435,6.2Z" transform="translate(-1547.938 -178.849)" fill="#c1dff7"/>
          <rect id="Rectángulo_347207" data-name="Rectángulo 347207" width="19.055" height="1.826" transform="translate(6.223)" fill="#445c9e"/>
          <path id="Trazado_718549" data-name="Trazado 718549" d="M1596.784,257.58h-20.617c-.262,2-.562,4.082-.888,6.2h22.392C1597.345,261.662,1597.045,259.578,1596.784,257.58Z" transform="translate(-1570.726 -242.946)" fill="#ea5365"/>
          <path id="Trazado_718550" data-name="Trazado 718550" d="M1603.224,214.239h-19c-.072.81-.155,1.655-.248,2.53h19.494C1603.379,215.894,1603.3,215.049,1603.224,214.239Z" transform="translate(-1577.976 -206.823)" fill="#ea5365"/>
        </g>
        <g id="wind" transform="translate(5.877)">
          <path id="Trazado_718551" data-name="Trazado 718551" d="M1441.348,259.157v-3.315h-.305v3.315l-.565,30.636h1.435Z" transform="translate(-1427.173 -239.518)" fill="#fff"/>
          <path id="Trazado_718552" data-name="Trazado 718552" d="M1442.464,253.907a.387.387,0,1,1,.387.387A.387.387,0,0,1,1442.464,253.907Z" transform="translate(-1428.828 -237.583)" fill="#fff"/>
          <path id="Trazado_718553" data-name="Trazado 718553" d="M1440.66,157.824l-.824,13.8.739,2.137h.171l.739-2.137Z" transform="translate(-1426.638 -157.824)" fill="#fff"/>
          <path id="Trazado_718554" data-name="Trazado 718554" d="M1360.589,264.265l12.363-6.186,1.481-1.708-.008-.013-.07-.121-.008-.013-2.22.429Z" transform="translate(-1360.589 -239.835)" fill="#fff"/>
          <path id="Trazado_718555" data-name="Trazado 718555" d="M1459.24,263.654,1447.7,256.04l-2.22-.429-.008.013-.07.121-.008.013,1.481,1.708Z" transform="translate(-1431.271 -239.326)" fill="#fff"/>
        </g>
        <g id="Grupo_1004980" data-name="Grupo 1004980" transform="translate(0 29.643)">
          <rect id="Rectángulo_347208" data-name="Rectángulo 347208" width="24.938" height="46.679" transform="translate(0.856 1.272)" fill="#a0c3e5"/>
          <rect id="Rectángulo_347209" data-name="Rectángulo 347209" width="2.863" height="5.07" transform="translate(3.558 33.144)" fill="#445c9e"/>
          <rect id="Rectángulo_347210" data-name="Rectángulo 347210" width="2.863" height="5.07" transform="translate(8.004 33.144)" fill="#445c9e"/>
          <rect id="Rectángulo_347211" data-name="Rectángulo 347211" width="2.863" height="3.587" transform="translate(3.558 25.98)" fill="#445c9e"/>
          <rect id="Rectángulo_347212" data-name="Rectángulo 347212" width="2.863" height="3.587" transform="translate(8.004 25.98)" fill="#445c9e"/>
          <rect id="Rectángulo_347213" data-name="Rectángulo 347213" width="2.863" height="3.587" transform="translate(3.558 19.093)" fill="#445c9e"/>
          <rect id="Rectángulo_347214" data-name="Rectángulo 347214" width="2.863" height="3.587" transform="translate(8.004 19.093)" fill="#445c9e"/>
          <rect id="Rectángulo_347215" data-name="Rectángulo 347215" width="2.863" height="3.587" transform="translate(3.558 12.205)" fill="#445c9e"/>
          <rect id="Rectángulo_347216" data-name="Rectángulo 347216" width="2.863" height="3.587" transform="translate(8.004 12.205)" fill="#445c9e"/>
          <rect id="Rectángulo_347217" data-name="Rectángulo 347217" width="2.863" height="3.587" transform="translate(3.558 5.318)" fill="#445c9e"/>
          <rect id="Rectángulo_347218" data-name="Rectángulo 347218" width="2.863" height="3.587" transform="translate(8.004 5.318)" fill="#445c9e"/>
          <rect id="Rectángulo_347219" data-name="Rectángulo 347219" width="2.863" height="3.587" transform="translate(8.004 5.318)" fill="#445c9e"/>
          <path id="Trazado_718556" data-name="Trazado 718556" d="M1347.457,368.269h2.072v-.521h-2.863v3.587h.791Z" transform="translate(-1343.108 -362.431)" fill="#6380c1"/>
          <path id="Trazado_718557" data-name="Trazado 718557" d="M1374.148,368.269h2.072v-.521h-2.863v3.587h.791Z" transform="translate(-1365.353 -362.431)" fill="#6380c1"/>
          <path id="Trazado_718558" data-name="Trazado 718558" d="M1347.457,409.625h2.072V409.1h-2.863v3.587h.791Z" transform="translate(-1343.108 -396.899)" fill="#6380c1"/>
          <path id="Trazado_718559" data-name="Trazado 718559" d="M1374.148,409.625h2.072V409.1h-2.863v3.587h.791Z" transform="translate(-1365.353 -396.899)" fill="#6380c1"/>
          <path id="Trazado_718560" data-name="Trazado 718560" d="M1347.457,450.981h2.072v-.521h-2.863v3.587h.791Z" transform="translate(-1343.108 -431.368)" fill="#6380c1"/>
          <path id="Trazado_718561" data-name="Trazado 718561" d="M1374.148,450.981h2.072v-.521h-2.863v3.587h.791Z" transform="translate(-1365.353 -431.368)" fill="#6380c1"/>
          <path id="Trazado_718562" data-name="Trazado 718562" d="M1347.457,492.338h2.072v-.521h-2.863V495.4h.791Z" transform="translate(-1343.108 -465.836)" fill="#6380c1"/>
          <path id="Trazado_718563" data-name="Trazado 718563" d="M1374.148,492.338h2.072v-.521h-2.863V495.4h.791Z" transform="translate(-1365.353 -465.836)" fill="#6380c1"/>
          <path id="Trazado_718564" data-name="Trazado 718564" d="M1347.457,533.694h2.072v-.521h-2.863v5.345h.791Z" transform="translate(-1343.108 -500.305)" fill="#6380c1"/>
          <path id="Trazado_718565" data-name="Trazado 718565" d="M1374.148,533.694h2.072v-.521h-2.863v5.345h.791Z" transform="translate(-1365.353 -500.305)" fill="#6380c1"/>
          <rect id="Rectángulo_347220" data-name="Rectángulo 347220" width="2.863" height="5.07" transform="translate(15.719 33.144)" fill="#445c9e"/>
          <rect id="Rectángulo_347221" data-name="Rectángulo 347221" width="2.863" height="5.07" transform="translate(20.164 33.144)" fill="#445c9e"/>
          <rect id="Rectángulo_347222" data-name="Rectángulo 347222" width="2.863" height="3.587" transform="translate(15.719 25.98)" fill="#445c9e"/>
          <rect id="Rectángulo_347223" data-name="Rectángulo 347223" width="2.863" height="3.587" transform="translate(20.164 25.98)" fill="#445c9e"/>
          <rect id="Rectángulo_347224" data-name="Rectángulo 347224" width="2.863" height="3.587" transform="translate(15.719 19.093)" fill="#445c9e"/>
          <rect id="Rectángulo_347225" data-name="Rectángulo 347225" width="2.863" height="3.587" transform="translate(20.164 19.093)" fill="#445c9e"/>
          <rect id="Rectángulo_347226" data-name="Rectángulo 347226" width="2.863" height="3.587" transform="translate(15.719 12.205)" fill="#445c9e"/>
          <rect id="Rectángulo_347227" data-name="Rectángulo 347227" width="2.863" height="3.587" transform="translate(20.164 12.205)" fill="#445c9e"/>
          <rect id="Rectángulo_347228" data-name="Rectángulo 347228" width="2.863" height="3.587" transform="translate(15.719 5.318)" fill="#445c9e"/>
          <rect id="Rectángulo_347229" data-name="Rectángulo 347229" width="2.863" height="3.587" transform="translate(20.164 5.318)" fill="#445c9e"/>
          <rect id="Rectángulo_347230" data-name="Rectángulo 347230" width="2.863" height="3.587" transform="translate(20.164 5.318)" fill="#445c9e"/>
          <path id="Trazado_718566" data-name="Trazado 718566" d="M1420.477,368.269h2.072v-.521h-2.863v3.587h.791Z" transform="translate(-1403.966 -362.431)" fill="#6380c1"/>
          <path id="Trazado_718567" data-name="Trazado 718567" d="M1447.167,368.269h2.072v-.521h-2.863v3.587h.791Z" transform="translate(-1426.212 -362.431)" fill="#6380c1"/>
          <path id="Trazado_718568" data-name="Trazado 718568" d="M1420.477,409.625h2.072V409.1h-2.863v3.587h.791Z" transform="translate(-1403.966 -396.899)" fill="#6380c1"/>
          <path id="Trazado_718569" data-name="Trazado 718569" d="M1447.167,409.625h2.072V409.1h-2.863v3.587h.791Z" transform="translate(-1426.212 -396.899)" fill="#6380c1"/>
          <path id="Trazado_718570" data-name="Trazado 718570" d="M1420.477,450.981h2.072v-.521h-2.863v3.587h.791Z" transform="translate(-1403.966 -431.368)" fill="#6380c1"/>
          <path id="Trazado_718571" data-name="Trazado 718571" d="M1447.167,450.981h2.072v-.521h-2.863v3.587h.791Z" transform="translate(-1426.212 -431.368)" fill="#6380c1"/>
          <path id="Trazado_718572" data-name="Trazado 718572" d="M1420.477,492.338h2.072v-.521h-2.863V495.4h.791Z" transform="translate(-1403.966 -465.836)" fill="#6380c1"/>
          <path id="Trazado_718573" data-name="Trazado 718573" d="M1447.167,492.338h2.072v-.521h-2.863V495.4h.791Z" transform="translate(-1426.212 -465.836)" fill="#6380c1"/>
          <path id="Trazado_718574" data-name="Trazado 718574" d="M1420.477,533.694h2.072v-.521h-2.863v5.345h.791Z" transform="translate(-1403.966 -500.305)" fill="#6380c1"/>
          <path id="Trazado_718575" data-name="Trazado 718575" d="M1447.167,533.694h2.072v-.521h-2.863v5.345h.791Z" transform="translate(-1426.212 -500.305)" fill="#6380c1"/>
          <rect id="Rectángulo_347231" data-name="Rectángulo 347231" width="5.876" height="0.84" transform="translate(16.168 0.433)" fill="#a0c3e5"/>
          <rect id="Rectángulo_347232" data-name="Rectángulo 347232" width="1.8" height="1.272" transform="translate(22.866)" fill="#a0c3e5"/>
          <g id="Grupo_1004979" data-name="Grupo 1004979" transform="translate(24.602 8.722)">
            <rect id="Rectángulo_347233" data-name="Rectángulo 347233" width="52.194" height="37.448" transform="translate(0 1.781)" fill="#a0c3e5"/>
            <path id="Trazado_718576" data-name="Trazado 718576" d="M1510.494,389.967h4.982v-1.781h-9.3v1.781Z" transform="translate(-1500.655 -388.186)" fill="#a0c3e5"/>
            <path id="Trazado_718577" data-name="Trazado 718577" d="M1636.125,389.967h9.5v-1.781h-17.728v1.781Z" transform="translate(-1602.102 -388.186)" fill="#a0c3e5"/>
            <g id="Grupo_1004978" data-name="Grupo 1004978" transform="translate(0 5.402)">
              <rect id="Rectángulo_347234" data-name="Rectángulo 347234" width="4.26" height="3.202" transform="translate(12.119 22.237)" fill="#445c9e"/>
              <rect id="Rectángulo_347235" data-name="Rectángulo 347235" width="4.26" height="3.202" transform="translate(20.011 22.237)" fill="#445c9e"/>
              <rect id="Rectángulo_347236" data-name="Rectángulo 347236" width="4.26" height="2.956" transform="translate(27.923 6.577)" fill="#445c9e"/>
              <rect id="Rectángulo_347237" data-name="Rectángulo 347237" width="4.26" height="2.956" transform="translate(35.815 6.577)" fill="#445c9e"/>
              <rect id="Rectángulo_347238" data-name="Rectángulo 347238" width="4.26" height="2.956" transform="translate(43.706 6.577)" fill="#445c9e"/>
              <rect id="Rectángulo_347239" data-name="Rectángulo 347239" width="4.26" height="6.404" transform="translate(27.923 12.686)" fill="#445c9e"/>
              <rect id="Rectángulo_347240" data-name="Rectángulo 347240" width="4.26" height="6.404" transform="translate(35.815 12.686)" fill="#445c9e"/>
              <rect id="Rectángulo_347241" data-name="Rectángulo 347241" width="4.26" height="6.404" transform="translate(43.706 12.686)" fill="#445c9e"/>
              <rect id="Rectángulo_347242" data-name="Rectángulo 347242" width="4.26" height="3.202" transform="translate(27.923 22.237)" fill="#445c9e"/>
              <rect id="Rectángulo_347243" data-name="Rectángulo 347243" width="4.26" height="3.202" transform="translate(35.815 22.237)" fill="#445c9e"/>
              <rect id="Rectángulo_347244" data-name="Rectángulo 347244" width="4.26" height="3.202" transform="translate(43.706 22.237)" fill="#445c9e"/>
              <rect id="Rectángulo_347245" data-name="Rectángulo 347245" width="4.26" height="2.956" transform="translate(4.228 6.577)" fill="#445c9e"/>
              <rect id="Rectángulo_347246" data-name="Rectángulo 347246" width="4.26" height="2.956" transform="translate(12.119 6.577)" fill="#445c9e"/>
              <rect id="Rectángulo_347247" data-name="Rectángulo 347247" width="4.26" height="2.956" transform="translate(20.011 6.577)" fill="#445c9e"/>
              <rect id="Rectángulo_347248" data-name="Rectángulo 347248" width="4.26" height="6.404" transform="translate(4.228 12.686)" fill="#445c9e"/>
              <rect id="Rectángulo_347249" data-name="Rectángulo 347249" width="4.26" height="6.404" transform="translate(12.119 12.686)" fill="#445c9e"/>
              <rect id="Rectángulo_347250" data-name="Rectángulo 347250" width="4.26" height="6.404" transform="translate(20.011 12.686)" fill="#445c9e"/>
              <rect id="Rectángulo_347251" data-name="Rectángulo 347251" width="4.26" height="3.202" transform="translate(4.228 22.237)" fill="#445c9e"/>
              <path id="Trazado_718578" data-name="Trazado 718578" d="M1499.681,460.623h2.989v-.509h-4.26v2.956h1.271Z" transform="translate(-1494.182 -453.537)" fill="#6380c1"/>
              <rect id="Rectángulo_347252" data-name="Rectángulo 347252" width="52.174" height="2.956" fill="#445c9e"/>
              <path id="Trazado_718579" data-name="Trazado 718579" d="M1499.681,497.307h2.989V496.8h-4.26v6.4h1.271Z" transform="translate(-1494.182 -484.112)" fill="#6380c1"/>
              <path id="Trazado_718580" data-name="Trazado 718580" d="M1499.681,554.654h2.989v-.509h-4.26v3.2h1.271Z" transform="translate(-1494.182 -531.908)" fill="#6380c1"/>
              <path id="Trazado_718581" data-name="Trazado 718581" d="M1547.065,460.623h2.989v-.509h-4.26v2.956h1.272Z" transform="translate(-1533.674 -453.537)" fill="#6380c1"/>
              <path id="Trazado_718582" data-name="Trazado 718582" d="M1547.065,497.307h2.989V496.8h-4.26v6.4h1.272Z" transform="translate(-1533.674 -484.112)" fill="#6380c1"/>
              <path id="Trazado_718583" data-name="Trazado 718583" d="M1547.065,554.654h2.989v-.509h-4.26v3.2h1.272Z" transform="translate(-1533.674 -531.908)" fill="#6380c1"/>
              <path id="Trazado_718584" data-name="Trazado 718584" d="M1594.449,460.623h2.989v-.509h-4.26v2.956h1.271Z" transform="translate(-1573.167 -453.537)" fill="#6380c1"/>
              <path id="Trazado_718585" data-name="Trazado 718585" d="M1594.449,497.307h2.989V496.8h-4.26v6.4h1.271Z" transform="translate(-1573.167 -484.112)" fill="#6380c1"/>
              <path id="Trazado_718586" data-name="Trazado 718586" d="M1594.449,554.654h2.989v-.509h-4.26v3.2h1.271Z" transform="translate(-1573.167 -531.908)" fill="#6380c1"/>
              <path id="Trazado_718587" data-name="Trazado 718587" d="M1641.833,460.623h2.989v-.509h-4.26v2.956h1.271Z" transform="translate(-1612.659 -453.537)" fill="#6380c1"/>
              <path id="Trazado_718588" data-name="Trazado 718588" d="M1641.833,497.307h2.989V496.8h-4.26v6.4h1.271Z" transform="translate(-1612.659 -484.112)" fill="#6380c1"/>
              <path id="Trazado_718589" data-name="Trazado 718589" d="M1641.833,554.654h2.989v-.509h-4.26v3.2h1.271Z" transform="translate(-1612.659 -531.908)" fill="#6380c1"/>
              <path id="Trazado_718590" data-name="Trazado 718590" d="M1689.218,460.623h2.989v-.509h-4.26v2.956h1.272Z" transform="translate(-1652.152 -453.537)" fill="#6380c1"/>
              <path id="Trazado_718591" data-name="Trazado 718591" d="M1689.218,497.307h2.989V496.8h-4.26v6.4h1.272Z" transform="translate(-1652.152 -484.112)" fill="#6380c1"/>
              <path id="Trazado_718592" data-name="Trazado 718592" d="M1689.218,554.654h2.989v-.509h-4.26v3.2h1.272Z" transform="translate(-1652.152 -531.908)" fill="#6380c1"/>
              <path id="Trazado_718593" data-name="Trazado 718593" d="M1736.6,460.623h2.989v-.509h-4.26v2.956h1.271Z" transform="translate(-1691.645 -453.537)" fill="#6380c1"/>
              <path id="Trazado_718594" data-name="Trazado 718594" d="M1736.6,497.307h2.989V496.8h-4.26v6.4h1.271Z" transform="translate(-1691.645 -484.112)" fill="#6380c1"/>
              <path id="Trazado_718595" data-name="Trazado 718595" d="M1736.6,554.654h2.989v-.509h-4.26v3.2h1.271Z" transform="translate(-1691.645 -531.908)" fill="#6380c1"/>
              <rect id="Rectángulo_347253" data-name="Rectángulo 347253" width="0.457" height="2.956" transform="translate(2.384)" fill="#6380c1"/>
              <rect id="Rectángulo_347254" data-name="Rectángulo 347254" width="0.457" height="2.956" transform="translate(8.73)" fill="#6380c1"/>
              <rect id="Rectángulo_347255" data-name="Rectángulo 347255" width="0.457" height="2.956" transform="translate(15.076)" fill="#6380c1"/>
              <rect id="Rectángulo_347256" data-name="Rectángulo 347256" width="0.457" height="2.956" transform="translate(21.422)" fill="#6380c1"/>
              <rect id="Rectángulo_347257" data-name="Rectángulo 347257" width="0.457" height="2.956" transform="translate(27.769)" fill="#6380c1"/>
              <rect id="Rectángulo_347258" data-name="Rectángulo 347258" width="0.457" height="2.956" transform="translate(34.115)" fill="#6380c1"/>
              <rect id="Rectángulo_347259" data-name="Rectángulo 347259" width="0.457" height="2.956" transform="translate(40.461)" fill="#6380c1"/>
            </g>
          </g>
          <rect id="Rectángulo_347260" data-name="Rectángulo 347260" width="77.772" height="5.257" transform="translate(0 42.694)" fill="#445c9e"/>
        </g>
      </g>
      <g id="Grupo_1004982" data-name="Grupo 1004982" transform="translate(0 7.598)">
        <path id="Trazado_718596" data-name="Trazado 718596" d="M636.278,269.035v25.737a85.076,85.076,0,0,0-83.189,67.774H526.93a110.6,110.6,0,0,1,109.348-93.511Z" transform="translate(-526.93 -258.112)" fill="#ea5365"/>
        <path id="Trazado_718597" data-name="Trazado 718597" d="M1162.755,226.9l-24.323,24.821V203.448Z" transform="translate(-1036.592 -203.448)" fill="#ea5365"/>
      </g>
      <g id="Grupo_1004983" data-name="Grupo 1004983" transform="translate(7.8 160.269)">
        <path id="Trazado_718598" data-name="Trazado 718598" d="M608.025,1180.807l22.289-12.869A85.076,85.076,0,0,0,730.6,1206.095l13.08,22.655a110.6,110.6,0,0,1-135.658-47.943Z" transform="translate(-602.32 -1159.982)" fill="#60b65c"/>
        <path id="Trazado_718599" data-name="Trazado 718599" d="M581.913,1120.164l33.657,8.654-41.8,24.135Z" transform="translate(-573.768 -1120.164)" fill="#60b65c"/>
      </g>
    </g>
    <g id="grass" transform="translate(357.835 334.825)">
      <path id="Trazado_718600" data-name="Trazado 718600" d="M726.908,1353.689a6.493,6.493,0,0,0,.1.7h0a5.871,5.871,0,0,0,.974,2.27c2.086,2.912,6.755,4.683,6.221,8.224a6.3,6.3,0,0,1-1.672,2.989c-.138.164-.276.327-.414.493a6.392,6.392,0,0,0-1.544,2.7c-1.225,5.882,11.273,7.019,10.628,12.99-.14,1.28-.933,2.4-1.258,3.638-.024.091-.045.183-.063.276s-.037.205-.047.306c-.28,2.193,1.086,4.29,2.386,6.116l3.492,4.9c.481.674.968,1.357,1.477,2.023h34.023a67.986,67.986,0,0,1-2.887-7.38c-1.049-3.916-1.142-8.628-4.087-11.817a6.892,6.892,0,0,0-1.5-1.209v0c-.187-.113-.376-.219-.572-.318v0c-2.847-1.459-6.455-1.556-8.445-4.1-3.011-3.845.461-9.291-1.964-13.394l-.035-.057v0a5.446,5.446,0,0,0-.471-.661c-2.4-2.92-7.424-3.449-9.153-6.832-.041-.079-.081-.162-.118-.245a4.825,4.825,0,0,1-.205-.544c-.582-1.836-.154-3.888-.138-5.848.018-2.155-.891-4.724-3.009-5.125-2.039-.384-4.184,1.493-6.073.635-.079-.327-.16-.657-.245-.986v0c-.081-.322-.168-.645-.258-.966-.745-2.67-1.818-5.282-4.044-6.834a5.588,5.588,0,0,0-4.243-.757l-.012,0a5.592,5.592,0,0,0-.574.15l-.01,0a3.7,3.7,0,0,0-2.9,3.415,5.59,5.59,0,0,0,.38,1.875c.091.256.193.511.3.765h0c.773,1.836,1.8,3.606.665,5.06a6.819,6.819,0,0,1-1.875,1.344A6.693,6.693,0,0,0,726.908,1353.689Z" transform="translate(-726.879 -1334.753)" fill="#8d931b"/>
      <path id="Trazado_718601" data-name="Trazado 718601" d="M727.055,1354.312a6.492,6.492,0,0,0,.1.7h0a32.24,32.24,0,0,0,10.724,2.488l.047,0c2.2.169,4.691.359,5.978,2.051l.276-.211c1.144,1.834,2.271,3.715,3.234,5.647a83.3,83.3,0,0,1,3.324,8.053c.229.611.461,1.232.7,1.854a16.448,16.448,0,0,0-7.577-4.044c-1.719-.464-3.5-.773-5.219-1.073-1.449-.252-2.946-.513-4.393-.864q-.787-.19-1.568-.42c-.138.164-.276.327-.414.493.609.185,1.224.353,1.842.5,1.467.355,2.973.617,4.43.87,1.708.3,3.474.605,5.168,1.063,3.691,1,6.424,2.615,8.122,4.809l.095-.073c.312.795.629,1.589.962,2.37.759,1.775,1.611,3.539,2.5,5.284q.03.346.077.692l.258-.037c.674,1.313,1.362,2.613,2.043,3.894.645,1.213,1.292,2.433,1.926,3.662a25.635,25.635,0,0,0-11.659-3.559c-1.163-.063-2.35-.049-3.5-.036a38.838,38.838,0,0,1-4.44-.112c-.024.091-.045.183-.063.276s-.037.205-.047.306a38.778,38.778,0,0,0,4.559.122c1.136-.014,2.311-.027,3.455.036a25.042,25.042,0,0,1,12.213,3.985,67.656,67.656,0,0,1,3.851,8.9h.623c-.211-.643-.44-1.284-.68-1.918l.355-.189c-.489-.911-.233-2.118.783-3.693.759-1.181,1.629-2.342,2.467-3.464,2.033-2.721,4.135-5.533,4.939-8.885a14.109,14.109,0,0,0,.343-2.256v0c-.187-.112-.377-.219-.572-.317a13.869,13.869,0,0,1-.347,2.437c-.775,3.234-2.839,6-4.837,8.668-.846,1.132-1.719,2.3-2.49,3.5a5.862,5.862,0,0,0-1.118,3,117.529,117.529,0,0,0-5.241-10.73c-.775-1.459-1.56-2.94-2.321-4.437-.335-4.243,1.481-8.4,3.242-12.42.126-.29.25-.578.376-.865a36.139,36.139,0,0,0,2.291-6.7v0a5.453,5.453,0,0,0-.471-.661,34.06,34.06,0,0,1-2.362,7.124c-.126.286-.25.574-.377.862-1.613,3.687-3.271,7.479-3.33,11.4-.672-1.358-1.317-2.725-1.9-4.1-.767-1.794-1.461-3.659-2.134-5.462-.568-1.526-1.149-3.082-1.782-4.622l.126-.073c-.854-1.473-.475-3.381-.116-4.691a49.413,49.413,0,0,1,2.08-5.7c.215-.52.432-1.049.645-1.581-.042-.079-.081-.162-.118-.245a4.825,4.825,0,0,1-.2-.544c-.284.724-.58,1.439-.87,2.143a49.835,49.835,0,0,0-2.1,5.768,10.441,10.441,0,0,0-.422,2.66c-.189-.412-.382-.822-.584-1.229-1.254-2.518-2.782-4.941-4.257-7.284-1.274-2.019-2.571-4.079-3.7-6.221a5.5,5.5,0,0,1,.726-3.18l.12-.262c.562-1.226,1.128-2.465,1.629-3.719v0c-.081-.322-.168-.645-.258-.966-.56,1.5-1.238,2.977-1.909,4.44l-.118.262a9.014,9.014,0,0,0-.777,2.277c-.485-.986-.931-1.987-1.315-3.013-.509-1.357-.933-2.79-1.341-4.178a33.291,33.291,0,0,0-2.827-7.38l-.012,0-.574.15-.01,0a32.2,32.2,0,0,1,2.855,7.394c.014.045.028.091.041.138a18.372,18.372,0,0,0-3.411-1.481c-.657-.233-1.335-.473-1.976-.749l-.028-.012c.091.256.193.511.3.765h0c.5.2,1.008.377,1.5.554a14.709,14.709,0,0,1,3.869,1.8c.321,1.073.66,2.157,1.053,3.2a36.141,36.141,0,0,0,1.9,4.162,2.523,2.523,0,0,0,.1.351l.073-.028c1.108,2.068,2.362,4.056,3.591,6.006.138.219.276.44.416.661-1.5-1.183-3.675-1.355-5.631-1.5l-.047,0A31.119,31.119,0,0,1,727.055,1354.312Z" transform="translate(-727.026 -1335.375)" fill="#fff"/>
    </g>
    <g id="grass-2" data-name="grass" transform="translate(325.405 334.825)">
      <path id="Trazado_718602" data-name="Trazado 718602" d="M532.183,1353.689a6.447,6.447,0,0,0,.1.7h0a5.871,5.871,0,0,0,.974,2.27c2.086,2.912,6.755,4.683,6.221,8.224a6.3,6.3,0,0,1-1.672,2.989c-.138.164-.276.327-.414.493a6.393,6.393,0,0,0-1.544,2.7c-1.224,5.882,11.273,7.019,10.628,12.99-.14,1.28-.933,2.4-1.258,3.638-.024.091-.045.183-.063.276s-.037.205-.047.306c-.28,2.193,1.086,4.29,2.386,6.116l3.492,4.9c.481.674.968,1.357,1.477,2.023H586.49a68.012,68.012,0,0,1-2.887-7.38c-1.049-3.916-1.142-8.628-4.087-11.817a6.894,6.894,0,0,0-1.5-1.209v0c-.187-.113-.377-.219-.572-.318v0c-2.847-1.459-6.455-1.556-8.445-4.1-3.011-3.845.461-9.291-1.964-13.394l-.036-.057v0a5.445,5.445,0,0,0-.471-.661c-2.4-2.92-7.424-3.449-9.153-6.832-.042-.079-.081-.162-.118-.245a4.814,4.814,0,0,1-.205-.544c-.582-1.836-.154-3.888-.138-5.848.018-2.155-.891-4.724-3.009-5.125-2.039-.384-4.184,1.493-6.073.635-.079-.327-.16-.657-.245-.986v0c-.081-.322-.168-.645-.258-.966-.745-2.67-1.818-5.282-4.044-6.834a5.588,5.588,0,0,0-4.243-.757l-.012,0a5.588,5.588,0,0,0-.574.15l-.01,0a3.7,3.7,0,0,0-2.9,3.415,5.588,5.588,0,0,0,.381,1.875c.091.256.193.511.3.765h0c.773,1.836,1.8,3.606.664,5.06a6.817,6.817,0,0,1-1.875,1.344A6.692,6.692,0,0,0,532.183,1353.689Z" transform="translate(-532.154 -1334.753)" fill="#8d931b"/>
      <path id="Trazado_718603" data-name="Trazado 718603" d="M532.33,1354.312a6.447,6.447,0,0,0,.1.7h0a32.239,32.239,0,0,0,10.724,2.488l.047,0c2.2.169,4.691.359,5.978,2.051l.276-.211c1.144,1.834,2.271,3.715,3.234,5.647a83.333,83.333,0,0,1,3.325,8.053c.229.611.461,1.232.7,1.854a16.447,16.447,0,0,0-7.577-4.044c-1.719-.464-3.5-.773-5.219-1.073-1.449-.252-2.946-.513-4.393-.864q-.787-.19-1.568-.42c-.138.164-.276.327-.414.493.609.185,1.224.353,1.842.5,1.467.355,2.973.617,4.431.87,1.708.3,3.474.605,5.168,1.063,3.691,1,6.424,2.615,8.122,4.809l.095-.073c.312.795.629,1.589.962,2.37.759,1.775,1.611,3.539,2.5,5.284q.03.346.077.692l.258-.037c.674,1.313,1.362,2.613,2.043,3.894.645,1.213,1.292,2.433,1.926,3.662a25.635,25.635,0,0,0-11.659-3.559c-1.163-.063-2.35-.049-3.5-.036a38.84,38.84,0,0,1-4.44-.112c-.024.091-.045.183-.063.276s-.037.205-.047.306a38.779,38.779,0,0,0,4.559.122c1.136-.014,2.311-.027,3.455.036a25.042,25.042,0,0,1,12.213,3.985,67.656,67.656,0,0,1,3.851,8.9h.623c-.211-.643-.44-1.284-.68-1.918l.355-.189c-.489-.911-.233-2.118.783-3.693.759-1.181,1.629-2.342,2.467-3.464,2.033-2.721,4.135-5.533,4.939-8.885a14.117,14.117,0,0,0,.343-2.256v0c-.187-.112-.376-.219-.572-.317a13.863,13.863,0,0,1-.347,2.437c-.775,3.234-2.839,6-4.837,8.668-.846,1.132-1.719,2.3-2.49,3.5a5.862,5.862,0,0,0-1.118,3,117.53,117.53,0,0,0-5.241-10.73c-.775-1.459-1.56-2.94-2.321-4.437-.335-4.243,1.481-8.4,3.242-12.42.126-.29.25-.578.377-.865a36.143,36.143,0,0,0,2.291-6.7v0a5.454,5.454,0,0,0-.471-.661,34.06,34.06,0,0,1-2.362,7.124c-.126.286-.25.574-.377.862-1.613,3.687-3.271,7.479-3.33,11.4-.673-1.358-1.317-2.725-1.9-4.1-.767-1.794-1.461-3.659-2.134-5.462-.568-1.526-1.149-3.082-1.782-4.622l.126-.073c-.854-1.473-.475-3.381-.116-4.691a49.447,49.447,0,0,1,2.08-5.7c.215-.52.432-1.049.645-1.581-.041-.079-.081-.162-.118-.245a4.825,4.825,0,0,1-.205-.544c-.284.724-.58,1.439-.87,2.143a49.79,49.79,0,0,0-2.1,5.768,10.436,10.436,0,0,0-.422,2.66c-.189-.412-.382-.822-.584-1.229-1.254-2.518-2.782-4.941-4.257-7.284-1.274-2.019-2.571-4.079-3.7-6.221a5.5,5.5,0,0,1,.726-3.18l.12-.262c.562-1.226,1.128-2.465,1.629-3.719v0c-.081-.322-.168-.645-.258-.966-.56,1.5-1.238,2.977-1.909,4.44l-.118.262a9.012,9.012,0,0,0-.777,2.277c-.485-.986-.931-1.987-1.315-3.013-.509-1.357-.933-2.79-1.341-4.178a33.291,33.291,0,0,0-2.827-7.38l-.012,0-.574.15-.01,0a32.187,32.187,0,0,1,2.855,7.394c.014.045.028.091.042.138a18.368,18.368,0,0,0-3.411-1.481c-.657-.233-1.335-.473-1.976-.749l-.028-.012c.091.256.193.511.3.765h0c.5.2,1.008.377,1.5.554a14.711,14.711,0,0,1,3.869,1.8c.321,1.073.66,2.157,1.053,3.2a36.12,36.12,0,0,0,1.9,4.162,2.506,2.506,0,0,0,.1.351l.073-.028c1.108,2.068,2.362,4.056,3.591,6.006.138.219.276.44.416.661-1.5-1.183-3.675-1.355-5.631-1.5l-.047,0A31.119,31.119,0,0,1,532.33,1354.312Z" transform="translate(-532.301 -1335.375)" fill="#fff"/>
    </g>
    <g id="lamp" transform="translate(354.086 135.021)">
      <path id="Trazado_718604" data-name="Trazado 718604" d="M751.532,158.6a23.581,23.581,0,1,0-38.761,18.043,26.809,26.809,0,0,1,6.763,16.34H736.66a26.547,26.547,0,0,1,7.3-16.9c.095-.146.186-.29.277-.434A23.513,23.513,0,0,0,751.532,158.6Z" transform="translate(-704.371 -135.021)" fill="#f4d32f"/>
      <path id="Trazado_718605" data-name="Trazado 718605" d="M809.646,540.966a9.343,9.343,0,0,1-3.594,3.521,10.623,10.623,0,0,1-10.96.233l-.017-.008-.007,0a9.482,9.482,0,0,1-4-3.742L799.963,539v-.175l.4.087.4-.087V539Z" transform="translate(-776.632 -471.578)" fill="#542e28"/>
      <rect id="Rectángulo_347261" data-name="Rectángulo 347261" width="21.604" height="4.742" rx="2.371" transform="translate(12.924 57.963)" fill="#542e28"/>
      <rect id="Rectángulo_347262" data-name="Rectángulo 347262" width="21.604" height="4.742" rx="2.371" transform="translate(12.924 61.915)" fill="#542e28"/>
      <rect id="Rectángulo_347263" data-name="Rectángulo 347263" width="21.604" height="4.742" rx="2.371" transform="translate(12.924 65.867)" fill="#542e28"/>
      <path id="Trazado_718606" data-name="Trazado 718606" d="M810.437,556.363H792.917a.263.263,0,1,1,0-.527h17.521a.263.263,0,0,1,0,.527Z" transform="translate(-777.95 -485.753)" fill="#fff"/>
      <path id="Trazado_718607" data-name="Trazado 718607" d="M810.437,530.259H792.917a.263.263,0,1,1,0-.527h17.521a.263.263,0,0,1,0,.527Z" transform="translate(-777.95 -463.996)" fill="#fff"/>
      <path id="Trazado_718608" data-name="Trazado 718608" d="M810.437,507.716H792.917a.263.263,0,1,1,0-.527h17.521a.263.263,0,0,1,0,.527Z" transform="translate(-777.95 -445.208)" fill="#fff"/>
      <g id="Grupo_1004984" data-name="Grupo 1004984" transform="translate(15.175 21.151)">
        <path id="Trazado_718609" data-name="Trazado 718609" d="M799.944,299.1a.263.263,0,0,1-.263-.263v-31.3a4.648,4.648,0,0,1-3.275-1.069,2.857,2.857,0,0,1-.913-2.189,2.286,2.286,0,0,1,2.1-2.239,2.251,2.251,0,0,1,2.5,1.692,3.807,3.807,0,0,1,.114,1.262v2q.24-.013.5-.04H803.9a.263.263,0,1,1,0,.527h-3.148q-.28.029-.54.042v31.311A.263.263,0,0,1,799.944,299.1Zm-2.079-36.548a1.925,1.925,0,0,0-.215.012,1.774,1.774,0,0,0-1.63,1.735,2.3,2.3,0,0,0,.746,1.785,4.139,4.139,0,0,0,2.915.927v-2.03a.252.252,0,0,1,0-.03,3.287,3.287,0,0,0-.1-1.082A1.721,1.721,0,0,0,797.865,262.552Z" transform="translate(-795.49 -262.025)" fill="#1d1d1b"/>
        <path id="Trazado_718610" data-name="Trazado 718610" d="M848.594,299.1a.263.263,0,0,1-.263-.263V267.526q-.26-.013-.54-.042h-3.148a.263.263,0,1,1,0-.527h3.189q.26.027.5.04v-2a3.817,3.817,0,0,1,.114-1.262,2.251,2.251,0,0,1,2.5-1.692,2.286,2.286,0,0,1,2.1,2.239,2.857,2.857,0,0,1-.913,2.189,4.649,4.649,0,0,1-3.275,1.069v31.3A.263.263,0,0,1,848.594,299.1Zm2.079-36.548a1.721,1.721,0,0,0-1.719,1.316,3.3,3.3,0,0,0-.1,1.083.239.239,0,0,1,0,.03v2.03a4.138,4.138,0,0,0,2.915-.927,2.3,2.3,0,0,0,.746-1.785,1.774,1.774,0,0,0-1.63-1.735A1.921,1.921,0,0,0,850.674,262.552Z" transform="translate(-836.237 -262.025)" fill="#1d1d1b"/>
      </g>
    </g>
    <g id="garbage" transform="translate(315.682 237.483)">
      <g id="Grupo_1004985" data-name="Grupo 1004985" transform="translate(6.796 48.007)">
        <ellipse id="Elipse_8502" data-name="Elipse 8502" cx="3.698" cy="5.924" rx="3.698" ry="5.924" fill="#684038"/>
        <ellipse id="Elipse_8503" data-name="Elipse 8503" cx="3.382" cy="5.924" rx="3.382" ry="5.924" transform="translate(1.887)" fill="#542e28"/>
        <path id="Trazado_718611" data-name="Trazado 718611" d="M546.428,1048.16c0,2.76-1.233,5.18-2.638,5.18a1.289,1.289,0,0,1-.483-.1c1.193-.474,2.155-2.646,2.155-5.084s-.962-4.61-2.155-5.084a1.291,1.291,0,0,1,.483-.1C545.195,1042.98,546.428,1045.4,546.428,1048.16Z" transform="translate(-538.521 -1042.236)" fill="#684038"/>
      </g>
      <g id="Grupo_1004988" data-name="Grupo 1004988" transform="translate(0 0)">
        <g id="Grupo_1004986" data-name="Grupo 1004986" transform="translate(11.748)">
          <path id="Trazado_718612" data-name="Trazado 718612" d="M569.481,763.124a.3.3,0,0,1-.272-.418l2.4-5.449a1.224,1.224,0,0,0-1.12-1.718h-20.7a2.185,2.185,0,0,0-1.94,1.174l-2.982,5.693a.3.3,0,1,1-.527-.276l2.982-5.693a2.777,2.777,0,0,1,2.467-1.493h20.7a1.819,1.819,0,0,1,1.664,2.553l-2.4,5.449A.3.3,0,0,1,569.481,763.124Z" transform="translate(-544.311 -754.164)" fill="#684038"/>
          <path id="Trazado_718613" data-name="Trazado 718613" d="M606.55,750.257l-.025.015v-.015H590.985a2.362,2.362,0,0,0,0,2.156h15.541v-.025l.025.025A2.362,2.362,0,0,0,606.55,750.257Z" transform="translate(-582.991 -750.257)" fill="#684038"/>
        </g>
        <g id="Grupo_1004987" data-name="Grupo 1004987" transform="translate(0 7.995)">
          <path id="Trazado_718614" data-name="Trazado 718614" d="M514.523,846.6H486.5a2.617,2.617,0,0,1-2.612-2.462l-2.977-45.87h33.609Z" transform="translate(-479.724 -798.266)" fill="#969b34"/>
          <path id="Trazado_718615" data-name="Trazado 718615" d="M679.15,798.266V846.6h5.582a2.616,2.616,0,0,0,2.595-2.28l6.545-46.052Z" transform="translate(-644.946 -798.266)" fill="#7e8722"/>
          <rect id="Rectángulo_347264" data-name="Rectángulo 347264" width="49.819" height="1.487" transform="translate(0 0)" fill="#7e8722"/>
        </g>
      </g>
      <g id="Grupo_1004989" data-name="Grupo 1004989" transform="translate(35.424 48.007)">
        <ellipse id="Elipse_8504" data-name="Elipse 8504" cx="3.698" cy="5.924" rx="3.698" ry="5.924" fill="#684038"/>
        <ellipse id="Elipse_8505" data-name="Elipse 8505" cx="3.382" cy="5.924" rx="3.382" ry="5.924" transform="translate(1.887)" fill="#542e28"/>
        <path id="Trazado_718616" data-name="Trazado 718616" d="M718.328,1048.16c0,2.76-1.233,5.18-2.638,5.18a1.289,1.289,0,0,1-.483-.1c1.193-.474,2.155-2.646,2.155-5.084s-.962-4.61-2.155-5.084a1.291,1.291,0,0,1,.483-.1C717.1,1042.98,718.328,1045.4,718.328,1048.16Z" transform="translate(-710.422 -1042.236)" fill="#684038"/>
      </g>
      <g id="Grupo_1004996" data-name="Grupo 1004996" transform="translate(9.294 22.121)">
        <g id="Grupo_1004991" data-name="Grupo 1004991" transform="translate(2.368)">
          <path id="Trazado_718617" data-name="Trazado 718617" d="M543.791,893.6l3.222,1.648,3.42-4.821S547.459,886.606,543.791,893.6Z" transform="translate(-543.791 -888.334)" fill="#fff"/>
          <g id="Grupo_1004990" data-name="Grupo 1004990" transform="translate(4.756)">
            <path id="Trazado_718618" data-name="Trazado 718618" d="M579.476,886.311l-3.086,1.339c-1.561-3.073-3.275-3.763-4.043-3.941l4.133-.62a.728.728,0,0,1,.478.095A7.417,7.417,0,0,1,579.476,886.311Z" transform="translate(-572.347 -883.081)" fill="#fff"/>
            <path id="Trazado_718619" data-name="Trazado 718619" d="M589.891,900.556,595,898.084l-1.362,3.03Z" transform="translate(-586.97 -895.585)" fill="#fff"/>
          </g>
        </g>
        <g id="Grupo_1004993" data-name="Grupo 1004993" transform="translate(0 7.179)">
          <path id="Trazado_718620" data-name="Trazado 718620" d="M553.247,965.565l-.184-3.615-5.885-.552S545.36,965.883,553.247,965.565Z" transform="translate(-544.096 -955.535)" fill="#fff"/>
          <g id="Grupo_1004992" data-name="Grupo 1004992">
            <path id="Trazado_718621" data-name="Trazado 718621" d="M531.023,930.717l2.7,2c-1.881,2.889-1.622,4.718-1.391,5.472l-2.6-3.27a.726.726,0,0,1-.157-.461A7.416,7.416,0,0,1,531.023,930.717Z" transform="translate(-529.574 -929.963)" fill="#fff"/>
            <path id="Trazado_718622" data-name="Trazado 718622" d="M536.45,929.715l-4.7-3.192,3.3-.336Z" transform="translate(-531.39 -926.188)" fill="#fff"/>
          </g>
        </g>
        <g id="Grupo_1004995" data-name="Grupo 1004995" transform="translate(10.162 5.361)">
          <path id="Trazado_718623" data-name="Trazado 718623" d="M611.078,915.271l-3.038,1.966,2.465,5.372S615.3,921.942,611.078,915.271Z" transform="translate(-605.134 -915.271)" fill="#fff"/>
          <g id="Grupo_1004994" data-name="Grupo 1004994" transform="translate(0 6.436)">
            <path id="Trazado_718624" data-name="Trazado 718624" d="M601.172,958.789l.384-3.342c3.442.184,4.9-.955,5.434-1.531l-1.53,3.889a.727.727,0,0,1-.321.366A7.416,7.416,0,0,1,601.172,958.789Z" transform="translate(-599.41 -953.916)" fill="#fff"/>
            <path id="Trazado_718625" data-name="Trazado 718625" d="M592.949,956.071l-.416,5.664-1.943-2.694Z" transform="translate(-590.59 -955.712)" fill="#fff"/>
          </g>
        </g>
      </g>
    </g>
    <g id="woman" transform="translate(386.968 154.137)">
      <path id="Trazado_718626" data-name="Trazado 718626" d="M1021.427,301.1c-1.527.286-3.16.065-4.6.653a4.5,4.5,0,0,0-2.381,5.627c.315.783.87,1.583.633,2.393a2.5,2.5,0,0,1-1.457,1.352c-1.61.783-3.379,1.35-4.682,2.577s-1.944,3.43-.8,4.8c.406.486,1,.832,1.249,1.414.586,1.372-1.036,2.559-2.014,3.686a5.2,5.2,0,0,0,1.7,7.763c2.035.922,5.011.773,5.765,2.876.741,2.068-1.646,4.319-.875,6.376.459,1.225,1.836,1.793,3.069,2.228,2.392.842,4.973,1.693,7.413,1,1.989-.562,3.553-2.063,5.34-3.1a1.451,1.451,0,0,1,.932-.271c1.055.176.621,1.786.889,2.821a2.237,2.237,0,0,0,2.74,1.333,5.024,5.024,0,0,0,2.6-2.07,14.751,14.751,0,0,0,1.1-15.3,3.822,3.822,0,0,1-.633-1.758c.009-1.03.908-1.788,1.571-2.576a6.906,6.906,0,0,0,.281-8.273c-1.772-2.422-5.27-3.943-5.371-6.942-.062-1.83,1.277-3.472,1.3-5.3.024-2.215-1.96-4.043-4.1-4.6-1.658-.434-5.038-.657-6.52.355C1023.267,299.049,1023.586,300.692,1021.427,301.1Z" transform="translate(-988.894 -289.506)" fill="#1d1d1b"/>
      <g id="woman-2" data-name="woman" transform="translate(34.663 0)">
        <g id="Grupo_1005000" data-name="Grupo 1005000">
          <path id="Trazado_718627" data-name="Trazado 718627" d="M1110,309.766s-1.161,10.945,6.967,16.357l-1-16.16Z" transform="translate(-1109.945 -299.78)" fill="#1d1d1b"/>
          <path id="Trazado_718628" data-name="Trazado 718628" d="M1149.641,389.915a5.947,5.947,0,0,0,6.464-.649,7.433,7.433,0,0,0,2.473-7.378l-.078-.384-.033-.14-.911-4.21-.06-.261-.384-1.74-12.956-4.6.926,12.778A7.51,7.51,0,0,0,1149.641,389.915Z" transform="translate(-1138.459 -350.444)" fill="#7c443e"/>
          <path id="Trazado_718629" data-name="Trazado 718629" d="M1142.108,259.816s8.934,17.291-.092,20.28a11.583,11.583,0,0,1-2.5.528,13.652,13.652,0,0,1-14.279-9.257l-1.407-4.1a9.346,9.346,0,0,1,.359-6.966h0a9.287,9.287,0,0,1,8.645-5.415A11.662,11.662,0,0,1,1142.108,259.816Z" transform="translate(-1121.091 -254.04)" fill="#7c443e"/>
          <g id="Grupo_1004997" data-name="Grupo 1004997" transform="translate(11.656 8.761)">
            <path id="Trazado_718630" data-name="Trazado 718630" d="M1234.918,337.743a.326.326,0,0,1-.3-.462.655.655,0,0,0,.077-.33.837.837,0,0,0-.144-.325,7.253,7.253,0,0,0-.762-.939c-.19-.21-.386-.427-.567-.658a.326.326,0,0,1,.514-.4c.165.212.345.411.536.621a7.874,7.874,0,0,1,.828,1.025,1.408,1.408,0,0,1,.243.607,1.266,1.266,0,0,1-.133.672A.326.326,0,0,1,1234.918,337.743Z" transform="translate(-1224.294 -329.159)" fill="#1d1d1b"/>
            <path id="Trazado_718631" data-name="Trazado 718631" d="M1229.511,305.572a.326.326,0,0,1-.32-.391,3.68,3.68,0,0,1,2.588-2.754.326.326,0,0,1,.17.63,3.015,3.015,0,0,0-2.12,2.256A.326.326,0,0,1,1229.511,305.572Z" transform="translate(-1220.982 -302.415)" fill="#1d1d1b"/>
            <path id="Trazado_718632" data-name="Trazado 718632" d="M1180.258,321.373a.326.326,0,0,1-.267-.513,6.394,6.394,0,0,1,5.021-2.688.326.326,0,1,1,.014.652,5.731,5.731,0,0,0-4.5,2.41A.325.325,0,0,1,1180.258,321.373Z" transform="translate(-1179.932 -315.548)" fill="#1d1d1b"/>
          </g>
          <g id="Grupo_1004999" data-name="Grupo 1004999" transform="translate(0.898 14.412)">
            <ellipse id="Elipse_8506" data-name="Elipse 8506" cx="2.309" cy="3.258" rx="2.309" ry="3.258" transform="translate(0 2.543) rotate(-33.413)" fill="#7c443e"/>
            <g id="Grupo_1004998" data-name="Grupo 1004998" transform="translate(2.175 2.711)">
              <path id="Trazado_718633" data-name="Trazado 718633" d="M1131.534,355.123a.28.28,0,0,1-.24-.135,5.207,5.207,0,0,0-1.066-1.387,1.573,1.573,0,0,0-1.456-.355.28.28,0,0,1-.188-.527,2.109,2.109,0,0,1,2,.448,5.713,5.713,0,0,1,1.191,1.53.28.28,0,0,1-.239.425Z" transform="translate(-1128.399 -352.625)" fill="#1d1d1b"/>
            </g>
          </g>
          <path id="Trazado_718634" data-name="Trazado 718634" d="M1121.129,250.275c6.341-2.418,10.139,5.308,10.139,5.308a6.967,6.967,0,0,0-3.327-1.655,11.492,11.492,0,0,1-9.368,9.385s-.6,3.539.407,5.083c0,0-3.012-4.231-5.252-3.2l-2.583-1.92C1107.908,256.6,1114.72,250.358,1121.129,250.275Z" transform="translate(-1110.251 -249.806)" fill="#1d1d1b"/>
          <path id="Trazado_718635" data-name="Trazado 718635" d="M1192.348,336.885a.282.282,0,0,0,.229-.152c.746-1.444,1.85-1.009,1.974-.954a.283.283,0,0,0,.233-.516,2.084,2.084,0,0,0-2.71,1.21.283.283,0,0,0,.274.412Z" transform="translate(-1178.37 -320.912)" fill="#1d1d1b"/>
          <path id="Trazado_718636" data-name="Trazado 718636" d="M1235.814,321.975a.283.283,0,0,0,.231-.156.961.961,0,0,1,.557-.528,1.5,1.5,0,0,1,1,.114.283.283,0,0,0,.26-.5,2.069,2.069,0,0,0-1.437-.151,1.516,1.516,0,0,0-.892.816.283.283,0,0,0,.128.379A.28.28,0,0,0,1235.814,321.975Z" transform="translate(-1214.597 -308.874)" fill="#1d1d1b"/>
          <path id="Trazado_718637" data-name="Trazado 718637" d="M1214.32,373.046a4.136,4.136,0,0,1-2.554-.9.351.351,0,1,1,.425-.558,3.718,3.718,0,0,0,4.455,0,.351.351,0,0,1,.428.556A5,5,0,0,1,1214.32,373.046Z" transform="translate(-1194.694 -351.248)" fill="#1d1d1b"/>
        </g>
        <path id="Trazado_718638" data-name="Trazado 718638" d="M1150.456,444.359l2.227.781a6.061,6.061,0,0,1,3.445,3.071l5.054,10.4a6.694,6.694,0,0,1-1.239,7.609l-3.39,3.46a6.694,6.694,0,0,1-9.964-.448l-8.25-10.092a10.6,10.6,0,0,1-2.074-9.287h0a7.362,7.362,0,0,1,6.368-5.53l3.97-.419A8.839,8.839,0,0,1,1150.456,444.359Z" transform="translate(-1131.616 -411.543)" fill="#7c443e"/>
        <path id="Trazado_718639" data-name="Trazado 718639" d="M1266.048,477.411c.981.38,2.276-.041,4.074-1.811a14.46,14.46,0,0,1,1.948-1.811,9.4,9.4,0,0,1,1.751-.855c3.393-1.375,6.757-2.9,5.511-7.376-1.231-4.419-6.884-8.411-10.179-11.276-3.062-2.662-9.472-8.7-14.057-6.582l4.1,12.352,3.264,9.84C1263.389,472.7,1264.092,476.652,1266.048,477.411Z" transform="translate(-1230.922 -414.374)" fill="#fff"/>
      </g>
      <g id="Grupo_1005003" data-name="Grupo 1005003" transform="translate(14.006 130.021)">
        <g id="Grupo_1005001" data-name="Grupo 1005001">
          <path id="Trazado_718640" data-name="Trazado 718640" d="M1028.775,1033.147l-14.6-2.535a5.879,5.879,0,0,0-6.886,5.772c-.021,6.99.1,13.986-.5,20.954-.354,4.154-.707,8.447-2.476,12.162-1.756,3.692-4.049,6.947-4.781,11.073-1.539,8.67-1.181,17.506-.581,26.248.3,4.442.675,8.88.882,13.329.079,1.715.149,3.341.134,4.941l-.137.26-2.044,6.257,14.359,16.187,9.66-1.99-3.916-1.4-7.718-16.9a6.958,6.958,0,0,1-.265-5.16l.009-.027c1.316-3.782,2.622-7.563,3.84-11.378a171.234,171.234,0,0,0,5.906-23.3c.505-2.976,1.122-6.074,1.367-9.13a11.173,11.173,0,0,1,1.445-4.638l.919-1.617a16.241,16.241,0,0,0,1.93-5.535l7.528-27.108A5.156,5.156,0,0,0,1028.775,1033.147Z" transform="translate(-995.816 -1030.524)" fill="#7c443e"/>
          <path id="Trazado_718641" data-name="Trazado 718641" d="M1012.317,1619l-4.273-1.837-3.6-8.028-1.639.968a4.149,4.149,0,0,0-2.123,4.437l.941,4.941-8.205-9.124h0c.5-2.181.714-4.353-.635-6.137a29.888,29.888,0,0,1-2.851-4.292c-5.978,5.884-3.592,8.782-3.357,9.039l3.595,14.366,1.846-.013.385-11.224c5.05,4.245,9.06,11.172,9.06,11.172l12.873-.092.043-.2A3.532,3.532,0,0,0,1012.317,1619Z" transform="translate(-985.91 -1505.095)" fill="#1d1d1b"/>
        </g>
        <g id="Grupo_1005002" data-name="Grupo 1005002" transform="translate(30.634 0.325)">
          <path id="Trazado_718642" data-name="Trazado 718642" d="M1194.89,1033.7l-14.765-1.2a5.879,5.879,0,0,0-6.333,6.374c.614,6.963,1.368,13.919,1.409,20.912.025,4.169.063,8.476-1.362,12.337-1.413,3.836-3.4,7.286-3.756,11.462-.745,8.774.413,17.541,1.806,26.192.706,4.4,1.479,8.782,2.089,13.194.234,1.7.451,3.313.582,4.909l-.113.272-1.467,6.417,15.77,14.815,7.836-1.088-4.264-2.959-7.382-15.989a6.959,6.959,0,0,1-.733-5.115l.007-.028c.967-3.886,1.925-7.77,2.791-11.679a171.209,171.209,0,0,0,3.765-23.738c.233-3.01.566-6.151.532-9.216a11.179,11.179,0,0,1,1.018-4.75l.768-1.694a16.243,16.243,0,0,0,1.42-5.687l4.089-30.108C1199.143,1034.331,1197.929,1033.944,1194.89,1033.7Z" transform="translate(-1169.85 -1032.478)" fill="#7c443e"/>
          <path id="Trazado_718643" data-name="Trazado 718643" d="M1198.126,1619.817l-4.258-1.871-3.535-8.057-1.647.954a4.149,4.149,0,0,0-2.158,4.42l.9,4.948-8.132-9.189h0c.514-2.177.749-4.347-.586-6.142a29.871,29.871,0,0,1-2.816-4.314c-6.024,5.836-3.662,8.753-3.429,9.011l3.48,14.394,1.846,0,.475-11.22c5.016,4.285,8.971,11.244,8.971,11.244l12.873.011.045-.2A3.531,3.531,0,0,0,1198.126,1619.817Z" transform="translate(-1171.489 -1505.957)" fill="#1d1d1b"/>
        </g>
      </g>
      <path id="Trazado_718644" data-name="Trazado 718644" d="M1075.255,836.881l-4.642,1c-49.805,3.011-50.177-3.513-50.177-3.513l.136-3.173,2.173-50.6a36.164,36.164,0,0,1,5.327-17.4q.148-.241.3-.482l2.016-3.166,3.014-4.732,32.181-4.414,2.507,5.98,2.454,5.856,2.671,6.37a15.628,15.628,0,0,1,1.211,5.824l.763,57.594Z" transform="translate(-1000.681 -667.031)" fill="#37356d"/>
      <path id="Trazado_718645" data-name="Trazado 718645" d="M1095.1,484.471l-3.68,17.458,4.166,17.015c-19.821,5.021-46-8.635-46-8.635l5.331-8.38-5.986-33.241-2.255-7.728a10.523,10.523,0,0,1,7.651-13.2,32.746,32.746,0,0,1,9.155-.728s8.781,7.776,13.674.082l-.167-.117,1.174,0a9.606,9.606,0,0,1,7.33,3.371l10.156,11.909a14.214,14.214,0,0,1,2.465,14.288Z" transform="translate(-1022.198 -414.145)" fill="#37356d"/>
      <path id="Trazado_718646" data-name="Trazado 718646" d="M952.714,501.329l16.728-29.735s2.735-8.43-4.9-11.607a9.592,9.592,0,0,0-11.511,4.614c-2.52,4.7-12.8,24.124-15.572,33.221l1.085,7.276a5.108,5.108,0,0,0,8.991,2.5Z" transform="translate(-931.526 -424.553)" fill="#7c443e"/>
      <path id="Trazado_718647" data-name="Trazado 718647" d="M972.432,452.561a10.525,10.525,0,0,0-6.379,2.1c-1.931,1.353-2.895,3.087-4.5,4.688a34.639,34.639,0,0,1-5.21,3.735c-2.671,1.822-5.483,3.86-6.2,7.21-.518,2.418-.282,5.682,2.033,7.059,1.489.885,3.229.247,4.733.77,1.777.618,2.805,2.643,4.69,3.269.57.189,1.174.272,1.73.5a11.752,11.752,0,0,1,2.875,2.257,6.935,6.935,0,0,0,5.764,1.689,7.4,7.4,0,0,0,4.686-3.823,21.938,21.938,0,0,0,1.937-5.9c1.015-4.5,2.911-9.655,2-14.3a13.18,13.18,0,0,0-5.644-8.426A5.259,5.259,0,0,0,972.432,452.561Z" transform="translate(-941.904 -418.78)" fill="#fff"/>
      <path id="Trazado_718648" data-name="Trazado 718648" d="M1075.255,1241.238l-4.642,1c-49.805,3.011-50.177-3.513-50.177-3.513l.136-3.173c9.976,1.541,32.569,4.177,54.618.825Z" transform="translate(-1000.681 -1071.388)" fill="#fff"/>
      <path id="Trazado_718649" data-name="Trazado 718649" d="M1116.133,774.826a128.377,128.377,0,0,1-20.386-1.716.418.418,0,1,1,.137-.825c6.268,1.045,22.389,3.154,36.677.18a.418.418,0,0,1,.171.819A82.522,82.522,0,0,1,1116.133,774.826Z" transform="translate(-1063.158 -685.266)" fill="#fff"/>
      <g id="palm" transform="translate(0 67.922)">
        <path id="Trazado_718650" data-name="Trazado 718650" d="M932.142,666.5c-3.585-17.032-14.762-4.252-14.762-4.252-3.294,5.909-4.25,12.981-4.537,19.643-.339,7.869.827,15.688.7,23.544a2.173,2.173,0,0,0,1.956,2.2l2.7.27a2.173,2.173,0,0,0,2.35-1.749l.927-4.79Z" transform="translate(-910.954 -657.644)" fill="#7c443e"/>
        <g id="Grupo_1005005" data-name="Grupo 1005005" transform="translate(0 46.388)">
          <g id="Grupo_1005004" data-name="Grupo 1005004">
            <path id="Trazado_718651" data-name="Trazado 718651" d="M906.089,945.165l8.835,1.234.66-4.727a4.686,4.686,0,0,0-3.743-5.449h0a4.705,4.705,0,0,0-5.092,4.215Z" transform="translate(-905.377 -936.183)" fill="#7c443e"/>
            <path id="Trazado_718652" data-name="Trazado 718652" d="M911.422,959.613l-.563,4.031-.934,3.054a.823.823,0,0,1-.9.575h0a.823.823,0,0,1-.687-1.007l.715-2.986.1-3.527-.863,3.758-.981,3.331a.811.811,0,0,1-.89.574h0a.811.811,0,0,1-.682-.964l.729-3.589.2-3.237-.849,3.456-.66,3.041a.8.8,0,0,1-.9.626h0a.8.8,0,0,1-.686-.908l.448-3.206.3-3.336-.739,3.275-.513,2.2a.635.635,0,0,1-.679.488h0a.635.635,0,0,1-.571-.7l.308-2.862.432-3.092,2.376-4.521,3.25-1.506S911.823,956.742,911.422,959.613Z" transform="translate(-901.812 -949.844)" fill="#7c443e"/>
          </g>
          <path id="Trazado_718653" data-name="Trazado 718653" d="M943.794,946.183l1.124,1.88a12.074,12.074,0,0,1,1.613,5.064l.084.9a1.67,1.67,0,0,1-.026.489l-.4,1.979a.792.792,0,0,1-.87.693h0a.737.737,0,0,1-.549-.7l-.226-2.936a2.311,2.311,0,0,0-2.241-1.812c-2-.187-.769-4.465-.769-4.465S943.013,946.071,943.794,946.183Z" transform="translate(-934.606 -944.512)" fill="#7c443e"/>
        </g>
      </g>
      <path id="Trazado_718654" data-name="Trazado 718654" d="M1166.22,392.319a11.908,11.908,0,0,1-8.507-3.443.261.261,0,1,1,.366-.372,11.638,11.638,0,0,0,10.582,3.035.261.261,0,1,1,.138.5A10.956,10.956,0,0,1,1166.22,392.319Z" transform="translate(-1115.03 -365.343)" fill="#1d1d1b"/>
      <path id="Trazado_718655" data-name="Trazado 718655" d="M1230.579,352.481a3.506,3.506,0,0,1-.422-.026.326.326,0,0,1,.079-.647c1.165.143,1.529-.462,1.544-.488a.328.328,0,0,1,.442-.124.324.324,0,0,1,.13.436A1.936,1.936,0,0,1,1230.579,352.481Z" transform="translate(-1175.235 -334.276)" fill="#1d1d1b"/>
      <g id="Grupo_1005007" data-name="Grupo 1005007" transform="translate(55.844 41.758)">
        <path id="Trazado_718656" data-name="Trazado 718656" d="M1347.356,596.284l1.555,15.868c.284,3.8-.189,5-1.7,6.5-3.631,3.631-11.007,2.7-19.788-.253l.446-7.724h9.982l.976-14.5Z" transform="translate(-1312.389 -580.253)" fill="#7c443e"/>
        <path id="Trazado_718657" data-name="Trazado 718657" d="M1250.176,500.542l-13.046,30.372H1262.6l13.881-30.372Z" transform="translate(-1237.13 -500.542)" fill="#fff"/>
        <g id="Grupo_1005006" data-name="Grupo 1005006" transform="translate(26.842 6.358)">
          <path id="Trazado_718658" data-name="Trazado 718658" d="M1411.382,538.722l-6.47.422a1.2,1.2,0,0,0-1.12,1.195h0a1.2,1.2,0,0,0,1.068,1.19l6.436.7a1.7,1.7,0,0,0,1.869-1.377c.016-.087.028-.177.037-.267A1.711,1.711,0,0,0,1411.382,538.722Z" transform="translate(-1402.878 -538.719)" fill="#7c443e"/>
          <path id="Trazado_718659" data-name="Trazado 718659" d="M1410.469,556.991l-7.559.195a1.2,1.2,0,0,0-1.169,1.2h0a1.2,1.2,0,0,0,1.068,1.2l7.485.831a1.15,1.15,0,0,0,1-.386,1.977,1.977,0,0,0,.183-2.508A1.154,1.154,0,0,0,1410.469,556.991Z" transform="translate(-1401.168 -553.948)" fill="#7c443e"/>
          <path id="Trazado_718660" data-name="Trazado 718660" d="M1407.029,573.9l-7.559.195a1.2,1.2,0,0,0-1.169,1.2h0a1.2,1.2,0,0,0,1.068,1.2l7.485.831a1.149,1.149,0,0,0,1-.386,1.977,1.977,0,0,0,.183-2.508A1.154,1.154,0,0,0,1407.029,573.9Z" transform="translate(-1398.301 -568.045)" fill="#7c443e"/>
          <path id="Trazado_718661" data-name="Trazado 718661" d="M1407.7,590.265l-6.484.167a1.032,1.032,0,0,0-1,1.033h0a1.032,1.032,0,0,0,.916,1.027l6.421.713a.986.986,0,0,0,.858-.331,1.7,1.7,0,0,0,.158-2.151A.991.991,0,0,0,1407.7,590.265Z" transform="translate(-1399.895 -581.68)" fill="#7c443e"/>
        </g>
      </g>
    </g>
    <g id="machine" transform="translate(482.719 305.84)">
      <rect id="Rectángulo_347265" data-name="Rectángulo 347265" width="31.122" height="42.735" transform="translate(19.741 0.333)" fill="#6380c1"/>
      <rect id="Rectángulo_347266" data-name="Rectángulo 347266" width="31.121" height="42.735" transform="translate(1.974 0.333)" fill="#a0c3e5"/>
      <path id="Trazado_718662" data-name="Trazado 718662" d="M1486.936,1204.107a.333.333,0,0,1-.333-.333v-42.735a.333.333,0,0,1,.333-.333h31.121a.333.333,0,1,1,0,.666h-30.788v42.4A.333.333,0,0,1,1486.936,1204.107Z" transform="translate(-1484.962 -1160.706)" fill="#fff"/>
      <path id="Trazado_718663" data-name="Trazado 718663" d="M1520.679,1252.418a10.219,10.219,0,1,1,10.219,10.219A10.219,10.219,0,0,1,1520.679,1252.418Z" transform="translate(-1513.363 -1228.627)" fill="#fff"/>
      <path id="Trazado_718664" data-name="Trazado 718664" d="M1553.664,1268.1a7.09,7.09,0,1,1-3.135-5.878A7.083,7.083,0,0,1,1553.664,1268.1Z" transform="translate(-1529.045 -1244.315)" fill="#c1dff7"/>
      <path id="Trazado_718665" data-name="Trazado 718665" d="M1593.19,1274.137a3.775,3.775,0,1,1-3.135-5.878A7.083,7.083,0,0,1,1593.19,1274.137Z" transform="translate(-1568.571 -1250.347)" fill="#6380c1"/>
      <path id="Trazado_718666" data-name="Trazado 718666" d="M1509.912,1185.252h-5.2a.836.836,0,0,1-.836-.836v-1.486h6.875v1.486A.837.837,0,0,1,1509.912,1185.252Z" transform="translate(-1499.356 -1179.228)" fill="#fff"/>
      <path id="Trazado_718667" data-name="Trazado 718667" d="M1484.3,1182.344h-6.5a1.045,1.045,0,0,1-1.045-1.045v-1.858h8.593v1.858A1.045,1.045,0,0,1,1484.3,1182.344Z" transform="translate(-1476.749 -1176.321)" fill="#6380c1"/>
      <g id="Grupo_1005008" data-name="Grupo 1005008" transform="translate(16.641 1.53)">
        <path id="Trazado_718668" data-name="Trazado 718668" d="M1586.929,1181.946a1.625,1.625,0,1,1,1.625,1.625A1.625,1.625,0,0,1,1586.929,1181.946Z" transform="translate(-1585.22 -1178.584)" fill="#fff"/>
        <path id="Trazado_718669" data-name="Trazado 718669" d="M1577.678,1189.4h-.84a.168.168,0,1,1,0-.336h.84a.168.168,0,0,1,0,.336Z" transform="translate(-1576.669 -1185.874)" fill="#fff"/>
        <path id="Trazado_718670" data-name="Trazado 718670" d="M1610.984,1189.405h-.841a.168.168,0,0,1,0-.336h.841a.168.168,0,1,1,0,.336Z" transform="translate(-1604.429 -1185.875)" fill="#fff"/>
        <path id="Trazado_718671" data-name="Trazado 718671" d="M1606.007,1176.44a.168.168,0,0,1-.119-.287l.594-.594a.168.168,0,1,1,.237.238l-.594.594A.167.167,0,0,1,1606.007,1176.44Z" transform="translate(-1600.981 -1174.574)" fill="#fff"/>
        <path id="Trazado_718672" data-name="Trazado 718672" d="M1596.014,1171.068a.168.168,0,0,1-.168-.168v-.841a.168.168,0,0,1,.336,0v.841A.168.168,0,0,1,1596.014,1171.068Z" transform="translate(-1592.652 -1169.891)" fill="#fff"/>
        <path id="Trazado_718673" data-name="Trazado 718673" d="M1583.051,1176.437a.168.168,0,0,1-.119-.049l-.594-.594a.168.168,0,1,1,.238-.238l.594.595a.168.168,0,0,1-.119.287Z" transform="translate(-1581.353 -1174.571)" fill="#fff"/>
      </g>
      <g id="Grupo_1005009" data-name="Grupo 1005009" transform="translate(37.596 37.232)">
        <path id="Trazado_718674" data-name="Trazado 718674" d="M1710.738,1384.965h-7.9a.348.348,0,0,1,0-.7h7.9a.348.348,0,1,1,0,.7Z" transform="translate(-1702.493 -1384.268)" fill="#fff"/>
        <path id="Trazado_718675" data-name="Trazado 718675" d="M1710.738,1392.985h-7.9a.348.348,0,0,1,0-.7h7.9a.348.348,0,1,1,0,.7Z" transform="translate(-1702.493 -1390.952)" fill="#fff"/>
        <path id="Trazado_718676" data-name="Trazado 718676" d="M1710.738,1401h-7.9a.348.348,0,0,1,0-.7h7.9a.348.348,0,1,1,0,.7Z" transform="translate(-1702.493 -1397.633)" fill="#fff"/>
      </g>
      <g id="Grupo_1005010" data-name="Grupo 1005010" transform="translate(26.012 3.033)">
        <path id="Rectángulo_347267" data-name="Rectángulo 347267" d="M1.7,0H3.439a1.7,1.7,0,0,1,1.7,1.7v0a1.7,1.7,0,0,1-1.7,1.7H1.7A1.7,1.7,0,0,1,0,1.7v0A1.7,1.7,0,0,1,1.7,0Z" fill="#fff"/>
        <rect id="Rectángulo_347268" data-name="Rectángulo 347268" width="3.789" height="1.611" transform="translate(0.653 0.653)" fill="#6380c1"/>
      </g>
    </g>
    <g id="Grupo_1005011" data-name="Grupo 1005011" transform="translate(463.419 334.825)">
      <g id="grass-3" data-name="grass" transform="translate(0 0)">
        <path id="Trazado_718677" data-name="Trazado 718677" d="M1415.168,1353.689a6.447,6.447,0,0,1-.1.7h0a5.87,5.87,0,0,1-.974,2.27c-2.086,2.912-6.755,4.683-6.221,8.224a6.3,6.3,0,0,0,1.672,2.989c.138.164.276.327.414.493a6.392,6.392,0,0,1,1.544,2.7c1.225,5.882-11.272,7.019-10.628,12.99.14,1.28.933,2.4,1.258,3.638.024.091.045.183.063.276s.037.205.047.306c.28,2.193-1.086,4.29-2.386,6.116q-1.745,2.452-3.492,4.9c-.481.674-.968,1.357-1.477,2.023h-34.023a68.012,68.012,0,0,0,2.887-7.38c1.049-3.916,1.142-8.628,4.087-11.817a6.891,6.891,0,0,1,1.5-1.209v0c.187-.113.377-.219.572-.318v0c2.847-1.459,6.455-1.556,8.445-4.1,3.011-3.845-.462-9.291,1.964-13.394l.036-.057v0a5.478,5.478,0,0,1,.471-.661c2.4-2.92,7.424-3.449,9.153-6.832.042-.079.081-.162.118-.245a4.8,4.8,0,0,0,.205-.544c.582-1.836.154-3.888.138-5.848-.018-2.155.891-4.724,3.009-5.125,2.039-.384,4.184,1.493,6.073.635.079-.327.16-.657.245-.986v0c.081-.322.168-.645.258-.966.745-2.67,1.818-5.282,4.044-6.834a5.588,5.588,0,0,1,4.243-.757l.012,0a5.58,5.58,0,0,1,.574.15l.01,0a3.7,3.7,0,0,1,2.9,3.415,5.591,5.591,0,0,1-.381,1.875c-.091.256-.193.511-.3.765h0c-.773,1.836-1.8,3.606-.665,5.06a6.822,6.822,0,0,0,1.875,1.344A6.693,6.693,0,0,1,1415.168,1353.689Z" transform="translate(-1360.862 -1334.753)" fill="#8d931b"/>
        <path id="Trazado_718678" data-name="Trazado 718678" d="M1457.56,1354.312a6.477,6.477,0,0,1-.1.7h0a32.238,32.238,0,0,1-10.724,2.488l-.047,0c-2.2.169-4.691.359-5.978,2.051l-.276-.211c-1.144,1.834-2.271,3.715-3.234,5.647a83.3,83.3,0,0,0-3.325,8.053c-.229.611-.461,1.232-.7,1.854a16.446,16.446,0,0,1,7.578-4.044c1.719-.464,3.5-.773,5.219-1.073,1.449-.252,2.946-.513,4.393-.864q.787-.19,1.567-.42c.138.164.276.327.414.493-.609.185-1.224.353-1.842.5-1.467.355-2.973.617-4.43.87-1.708.3-3.474.605-5.168,1.063-3.691,1-6.424,2.615-8.122,4.809l-.095-.073c-.312.795-.629,1.589-.962,2.37-.759,1.775-1.611,3.539-2.5,5.284q-.029.346-.077.692l-.258-.037c-.674,1.313-1.363,2.613-2.043,3.894-.645,1.213-1.292,2.433-1.926,3.662a25.636,25.636,0,0,1,11.659-3.559c1.163-.063,2.35-.049,3.5-.036a38.835,38.835,0,0,0,4.44-.112c.024.091.046.183.063.276s.037.205.047.306a38.779,38.779,0,0,1-4.558.122c-1.136-.014-2.311-.027-3.455.036a25.042,25.042,0,0,0-12.213,3.985,67.673,67.673,0,0,0-3.851,8.9h-.623c.211-.643.44-1.284.68-1.918l-.355-.189c.489-.911.233-2.118-.783-3.693-.759-1.181-1.629-2.342-2.466-3.464-2.033-2.721-4.135-5.533-4.939-8.885a14.117,14.117,0,0,1-.343-2.256v0c.187-.112.377-.219.572-.317a13.857,13.857,0,0,0,.347,2.437c.775,3.234,2.839,6,4.837,8.668.846,1.132,1.719,2.3,2.49,3.5a5.863,5.863,0,0,1,1.118,3,117.561,117.561,0,0,1,5.241-10.73c.775-1.459,1.56-2.94,2.321-4.437.335-4.243-1.481-8.4-3.241-12.42-.126-.29-.25-.578-.377-.865a36.148,36.148,0,0,1-2.291-6.7v0a5.473,5.473,0,0,1,.471-.661,34.056,34.056,0,0,0,2.362,7.124c.126.286.25.574.377.862,1.613,3.687,3.271,7.479,3.33,11.4.672-1.358,1.317-2.725,1.9-4.1.767-1.794,1.461-3.659,2.134-5.462.568-1.526,1.149-3.082,1.782-4.622l-.126-.073c.854-1.473.475-3.381.116-4.691a49.47,49.47,0,0,0-2.08-5.7c-.215-.52-.432-1.049-.645-1.581.042-.079.081-.162.118-.245a4.8,4.8,0,0,0,.205-.544c.284.724.58,1.439.869,2.143a49.812,49.812,0,0,1,2.1,5.768,10.444,10.444,0,0,1,.422,2.66c.189-.412.382-.822.583-1.229,1.254-2.518,2.782-4.941,4.257-7.284,1.274-2.019,2.571-4.079,3.705-6.221a5.5,5.5,0,0,0-.726-3.18l-.12-.262c-.562-1.226-1.128-2.465-1.629-3.719v0c.081-.322.168-.645.258-.966.56,1.5,1.238,2.977,1.909,4.44l.118.262a9.014,9.014,0,0,1,.777,2.277c.485-.986.931-1.987,1.315-3.013.509-1.357.933-2.79,1.341-4.178a33.3,33.3,0,0,1,2.828-7.38l.012,0,.574.15.01,0a32.2,32.2,0,0,0-2.855,7.394c-.014.045-.027.091-.041.138a18.362,18.362,0,0,1,3.411-1.481c.656-.233,1.335-.473,1.975-.749l.028-.012c-.091.256-.193.511-.3.765h0c-.5.2-1.007.377-1.5.554a14.71,14.71,0,0,0-3.869,1.8c-.322,1.073-.66,2.157-1.053,3.2a36.121,36.121,0,0,1-1.9,4.162,2.514,2.514,0,0,1-.1.351l-.073-.028c-1.108,2.068-2.362,4.056-3.59,6.006-.138.219-.276.44-.416.661,1.5-1.183,3.675-1.355,5.631-1.5l.047,0A31.119,31.119,0,0,0,1457.56,1354.312Z" transform="translate(-1403.254 -1335.375)" fill="#fff"/>
      </g>
      <g id="grass-4" data-name="grass" transform="translate(32.43 0)">
        <path id="Trazado_718679" data-name="Trazado 718679" d="M1609.893,1353.689a6.477,6.477,0,0,1-.1.7h0a5.869,5.869,0,0,1-.974,2.27c-2.086,2.912-6.755,4.683-6.221,8.224a6.3,6.3,0,0,0,1.672,2.989c.138.164.276.327.414.493a6.393,6.393,0,0,1,1.544,2.7c1.224,5.882-11.273,7.019-10.628,12.99.14,1.28.932,2.4,1.258,3.638.024.091.045.183.063.276s.037.205.047.306c.28,2.193-1.086,4.29-2.386,6.116q-1.745,2.452-3.492,4.9c-.481.674-.968,1.357-1.477,2.023h-34.023a68.037,68.037,0,0,0,2.887-7.38c1.049-3.916,1.142-8.628,4.087-11.817a6.9,6.9,0,0,1,1.5-1.209v0c.187-.113.377-.219.572-.318v0c2.847-1.459,6.455-1.556,8.445-4.1,3.011-3.845-.462-9.291,1.964-13.394l.035-.057v0a5.452,5.452,0,0,1,.471-.661c2.4-2.92,7.424-3.449,9.153-6.832.042-.079.081-.162.118-.245a4.8,4.8,0,0,0,.205-.544c.582-1.836.154-3.888.138-5.848-.018-2.155.891-4.724,3.009-5.125,2.039-.384,4.184,1.493,6.073.635.079-.327.16-.657.245-.986v0c.081-.322.168-.645.258-.966.745-2.67,1.818-5.282,4.044-6.834a5.588,5.588,0,0,1,4.243-.757l.012,0a5.584,5.584,0,0,1,.574.15l.01,0a3.7,3.7,0,0,1,2.9,3.415,5.585,5.585,0,0,1-.381,1.875c-.091.256-.193.511-.3.765h0c-.773,1.836-1.8,3.606-.664,5.06a6.817,6.817,0,0,0,1.875,1.344A6.693,6.693,0,0,1,1609.893,1353.689Z" transform="translate(-1555.587 -1334.753)" fill="#8d931b"/>
        <path id="Trazado_718680" data-name="Trazado 718680" d="M1652.285,1354.312a6.507,6.507,0,0,1-.1.7h0a32.238,32.238,0,0,1-10.724,2.488l-.047,0c-2.2.169-4.691.359-5.978,2.051l-.276-.211c-1.144,1.834-2.271,3.715-3.234,5.647a83.3,83.3,0,0,0-3.324,8.053c-.229.611-.461,1.232-.7,1.854a16.447,16.447,0,0,1,7.577-4.044c1.719-.464,3.5-.773,5.219-1.073,1.449-.252,2.946-.513,4.393-.864q.787-.19,1.568-.42c.138.164.276.327.414.493-.609.185-1.224.353-1.842.5-1.467.355-2.974.617-4.431.87-1.708.3-3.474.605-5.168,1.063-3.691,1-6.424,2.615-8.122,4.809l-.094-.073c-.312.795-.629,1.589-.962,2.37-.759,1.775-1.611,3.539-2.5,5.284q-.029.346-.077.692l-.258-.037c-.675,1.313-1.363,2.613-2.043,3.894-.645,1.213-1.292,2.433-1.926,3.662a25.635,25.635,0,0,1,11.659-3.559c1.163-.063,2.35-.049,3.5-.036a38.838,38.838,0,0,0,4.44-.112c.024.091.045.183.063.276s.038.205.047.306a38.78,38.78,0,0,1-4.559.122c-1.136-.014-2.311-.027-3.455.036a25.042,25.042,0,0,0-12.213,3.985,67.656,67.656,0,0,0-3.851,8.9h-.623c.211-.643.44-1.284.68-1.918l-.355-.189c.489-.911.233-2.118-.783-3.693-.759-1.181-1.629-2.342-2.467-3.464-2.033-2.721-4.135-5.533-4.939-8.885a14.117,14.117,0,0,1-.343-2.256v0c.187-.112.377-.219.572-.317a13.869,13.869,0,0,0,.347,2.437c.775,3.234,2.839,6,4.837,8.668.846,1.132,1.719,2.3,2.49,3.5a5.863,5.863,0,0,1,1.118,3,117.561,117.561,0,0,1,5.241-10.73c.775-1.459,1.56-2.94,2.321-4.437.335-4.243-1.481-8.4-3.241-12.42-.126-.29-.25-.578-.377-.865a36.157,36.157,0,0,1-2.291-6.7v0a5.448,5.448,0,0,1,.471-.661,34.063,34.063,0,0,0,2.362,7.124c.126.286.25.574.377.862,1.613,3.687,3.271,7.479,3.33,11.4.672-1.358,1.317-2.725,1.9-4.1.767-1.794,1.461-3.659,2.134-5.462.568-1.526,1.15-3.082,1.782-4.622l-.126-.073c.854-1.473.475-3.381.116-4.691a49.447,49.447,0,0,0-2.08-5.7c-.215-.52-.432-1.049-.645-1.581.041-.079.081-.162.118-.245a4.78,4.78,0,0,0,.205-.544c.284.724.58,1.439.869,2.143a49.767,49.767,0,0,1,2.1,5.768,10.434,10.434,0,0,1,.422,2.66c.189-.412.382-.822.584-1.229,1.254-2.518,2.782-4.941,4.257-7.284,1.274-2.019,2.571-4.079,3.7-6.221a5.5,5.5,0,0,0-.726-3.18l-.12-.262c-.562-1.226-1.128-2.465-1.629-3.719v0c.081-.322.168-.645.258-.966.56,1.5,1.238,2.977,1.909,4.44l.118.262a9.009,9.009,0,0,1,.777,2.277c.485-.986.931-1.987,1.315-3.013.509-1.357.933-2.79,1.341-4.178a33.291,33.291,0,0,1,2.827-7.38l.012,0,.574.15.01,0a32.182,32.182,0,0,0-2.855,7.394c-.014.045-.028.091-.041.138a18.368,18.368,0,0,1,3.411-1.481c.657-.233,1.335-.473,1.976-.749l.028-.012c-.091.256-.193.511-.3.765h0c-.5.2-1.007.377-1.5.554a14.709,14.709,0,0,0-3.869,1.8c-.321,1.073-.661,2.157-1.053,3.2a36.1,36.1,0,0,1-1.9,4.162,2.481,2.481,0,0,1-.1.351l-.073-.028c-1.108,2.068-2.362,4.056-3.591,6.006-.138.219-.276.44-.416.661,1.5-1.183,3.675-1.355,5.631-1.5l.047,0A31.119,31.119,0,0,0,1652.285,1354.312Z" transform="translate(-1597.979 -1335.375)" fill="#fff"/>
      </g>
    </g>
  </g>
</svg>
