<svg xmlns="http://www.w3.org/2000/svg" width="400" height="467" viewBox="0 0 400 467">
  <g id="Grupo_1005689" data-name="Grupo 1005689" transform="translate(-2947 7251)">
    <g id="Grupo_1004474" data-name="Grupo 1004474" transform="translate(8157 411)">
      <rect id="Rectángulo_346922" data-name="Rectángulo 346922" width="400" height="467" rx="20" transform="translate(-5210 -7662)" fill="#ffa031"/>
      <g id="International_Day_of_families-bro" data-name="International Day of families-bro" transform="translate(-5204 -7634.323)">
        <g id="freepik--background-simple--inject-2" transform="translate(23.755 39.285)">
          <path id="Trazado_717442" data-name="Trazado 717442" d="M304.606,330.145a87.91,87.91,0,0,0,28.369-29.986C375.379,226.4,365.8,117.543,284.138,70.88c-37.746-21.566-92.08-35.216-132.867-13.064C118.184,75.784,97.9,109.605,81.129,140.385c-10.557,19.355-19.244,40.186-32.234,58.3-16.862,23.487-35.416,54.853-16.684,82.139,25.527,37.167,73.741,54.156,117.466,65.284,47.434,12.122,100.767,13.843,144.581-9.8Q299.576,333.461,304.606,330.145Z" transform="translate(-24.366 -46.511)" fill="#ffa031"/>
          <path id="Trazado_717443" data-name="Trazado 717443" d="M304.606,330.145a87.91,87.91,0,0,0,28.369-29.986C375.379,226.4,365.8,117.543,284.138,70.88c-37.746-21.566-92.08-35.216-132.867-13.064C118.184,75.784,97.9,109.605,81.129,140.385c-10.557,19.355-19.244,40.186-32.234,58.3-16.862,23.487-35.416,54.853-16.684,82.139,25.527,37.167,73.741,54.156,117.466,65.284,47.434,12.122,100.767,13.843,144.581-9.8Q299.576,333.461,304.606,330.145Z" transform="translate(-24.366 -46.511)" fill="#fff" opacity="0.7"/>
        </g>
        <g id="freepik--Floor--inject-2" transform="translate(22 344.552)">
          <line id="Línea_2625" data-name="Línea 2625" x2="344.964" fill="none" stroke="#263238" stroke-linecap="round" stroke-linejoin="round" stroke-width="1"/>
        </g>
        <g id="freepik--Frame--inject-2" transform="translate(23.644 43.949)">
          <rect id="Rectángulo_347142" data-name="Rectángulo 347142" width="323.45" height="229.234" transform="translate(0 16.929) rotate(-3)" fill="none" stroke="#263238" stroke-miterlimit="10" stroke-width="1"/>
          <rect id="Rectángulo_347143" data-name="Rectángulo 347143" width="301.195" height="209.946" transform="translate(11.617 25.978) rotate(-3)" fill="none" stroke="#263238" stroke-miterlimit="10" stroke-width="1"/>
        </g>
        <g id="freepik--Hearts--inject-2" transform="translate(23.467 18.52)">
          <path id="Trazado_717444" data-name="Trazado 717444" d="M381.664,53.33a9.273,9.273,0,0,1-2.723,6.573l-2.463,2.463L363.325,75.519,350.194,62.366,347.731,59.9a9.3,9.3,0,1,1,13.153-13.161l2.441,2.456,2.448-2.456a9.3,9.3,0,0,1,15.876,6.588Z" transform="translate(-106.848 -25.103)" fill="#ffa031" stroke="#263238" stroke-linecap="round" stroke-linejoin="round" stroke-width="1"/>
          <path id="Trazado_717445" data-name="Trazado 717445" d="M121.476,124.339a6.187,6.187,0,0,1-1.818,4.392l-1.64,1.647-8.791,8.784-8.784-8.784L98.8,128.73a6.211,6.211,0,1,1,8.784-8.784l1.647,1.647,1.647-1.647a6.209,6.209,0,0,1,10.6,4.392Z" transform="translate(-42.822 -44.233)" fill="#ffa031" stroke="#263238" stroke-linecap="round" stroke-linejoin="round" stroke-width="1"/>
          <path id="Trazado_717446" data-name="Trazado 717446" d="M455.476,288.339a6.187,6.187,0,0,1-1.818,4.392l-1.647,1.647-8.784,8.784-8.784-8.784L432.8,292.73a6.211,6.211,0,1,1,8.784-8.784l1.647,1.647,1.647-1.647a6.209,6.209,0,0,1,10.6,4.392Z" transform="translate(-129.041 -86.568)" fill="#ffa031" stroke="#263238" stroke-linecap="round" stroke-linejoin="round" stroke-width="1"/>
          <path id="Trazado_717447" data-name="Trazado 717447" d="M48.476,242.339a6.187,6.187,0,0,1-1.818,4.392l-1.64,1.647-8.791,8.784-8.784-8.784L25.8,246.73a6.211,6.211,0,0,1,8.784-8.784l1.647,1.647,1.647-1.647a6.209,6.209,0,0,1,10.6,4.392Z" transform="translate(-23.978 -74.693)" fill="#ffa031" stroke="#263238" stroke-linecap="round" stroke-linejoin="round" stroke-width="1"/>
          <path id="Trazado_717448" data-name="Trazado 717448" d="M223.1,23.7a5.119,5.119,0,0,1-1.484,3.635L220.255,28.7l-7.292,7.241L205.7,28.676l-1.365-1.365a5.144,5.144,0,0,1,7.263-7.285l1.365,1.365,1.358-1.365a5.141,5.141,0,0,1,8.776,3.635Z" transform="translate(-70.146 -18.52)" fill="#ffa031" stroke="#263238" stroke-linecap="round" stroke-linejoin="round" stroke-width="1"/>
          <path id="Trazado_717449" data-name="Trazado 717449" d="M258.6,394.27a5.149,5.149,0,0,1-1.484,3.635l-1.358,1.365-7.27,7.263-7.27-7.263-1.372-1.335a5.144,5.144,0,0,1,7.263-7.285l1.365,1.35,1.358-1.365a5.134,5.134,0,0,1,8.769,3.635Z" transform="translate(-79.313 -114.189)" fill="#ffa031" stroke="#263238" stroke-linecap="round" stroke-linejoin="round" stroke-width="1"/>
        </g>
        <g id="freepik--Plants--inject-2" transform="translate(25.399 283.422)">
          <path id="Trazado_717450" data-name="Trazado 717450" d="M464.218,398.114s.875-2.1.913-2.226c.445-1.617.341-5.008-1.231-6.031a2.226,2.226,0,0,0-3.168.95,4.643,4.643,0,0,0,.312,3.895A15.984,15.984,0,0,0,464.218,398.114Z" transform="translate(-138.573 -379.196)" fill="#263238"/>
          <path id="Trazado_717451" data-name="Trazado 717451" d="M420.256,392.476a16.35,16.35,0,0,0,4.54,1.1s-.423-2.226-.475-2.367c-.519-1.6-2.47-4.362-4.347-4.347a2.226,2.226,0,0,0-2.122,2.537A4.629,4.629,0,0,0,420.256,392.476Z" transform="translate(-127.579 -378.506)" fill="#263238"/>
          <path id="Trazado_717452" data-name="Trazado 717452" d="M419.816,399.184a15.5,15.5,0,0,0,4.622-.134,39.239,39.239,0,0,0,1.15,5.119c.282.979.594,1.959.92,2.967-.215-.423-.408-.8-.445-.853-.927-1.395-3.539-3.546-5.349-3.042a2.226,2.226,0,0,0-1.372,3,4.618,4.618,0,0,0,3.131,2.337,14.705,14.705,0,0,0,4.5-.111c.133.371.26.742.386,1.12.631,1.788,1.269,3.576,1.84,5.341.2.623.378,1.246.556,1.87-.193-.378-.363-.7-.393-.742-.927-1.395-3.539-3.546-5.341-3.042a2.226,2.226,0,0,0-1.38,3,4.64,4.64,0,0,0,3.131,2.337,14.348,14.348,0,0,0,4.377-.1c.163.645.326,1.283.453,1.914.082.43.185.838.237,1.276s.126.861.193,1.283c.089.823.185,1.669.252,2.47.044.556.089,1.091.126,1.625-.193-.623-.6-1.832-.645-1.929-.7-1.484-2.967-4.051-4.822-3.821a2.226,2.226,0,0,0-1.818,2.767,4.731,4.731,0,0,0,2.745,2.774,14.966,14.966,0,0,0,4.57.571c.059.89.111,1.751.148,2.567.133,2.826.141,5.193.119,6.825l1.261.163V436.6c0-1.669-.067-4.051-.267-6.9-.059-.905-.141-1.862-.237-2.849a23.806,23.806,0,0,0,2.7-.875,16.211,16.211,0,0,0,3.405,2.871c-.438.742-.868,1.521-1.291,2.226-1.447,2.426-2.737,4.392-3.665,5.757l1.387.178c.868-1.365,2-3.19,3.242-5.378.445-.786.912-1.632,1.372-2.508a15.214,15.214,0,0,0,4.51.935,4.631,4.631,0,0,0,3.494-1.743,2.226,2.226,0,0,0-.823-3.2c-1.691-.823-4.644.838-5.8,2.047-.067.074-.742.935-1.128,1.484.193-.364.378-.7.564-1.076.386-.742.742-1.484,1.128-2.27.178-.393.349-.786.527-1.187s.326-.831.5-1.246c.371-.979.7-1.988,1-3.012a14.754,14.754,0,0,0,4.192,1.55,4.633,4.633,0,0,0,3.709-1.2,2.225,2.225,0,0,0-.334-3.286c-1.543-1.068-4.711.126-6.039,1.15-.089.067-.957.905-1.424,1.38.178-.623.356-1.232.519-1.862.467-1.818.883-3.709,1.306-5.519.126-.564.26-1.128.393-1.691A15.623,15.623,0,0,0,450.233,412a4.6,4.6,0,0,0,3.709-1.194,2.226,2.226,0,0,0-.334-3.286c-1.543-1.068-4.711.126-6.046,1.15-.1.074-1.35,1.283-1.654,1.61.3-1.239.6-2.478.95-3.709a39.475,39.475,0,0,1,1.706-4.778,16.012,16.012,0,0,0,4.355,1.632,4.6,4.6,0,0,0,3.709-1.2,2.225,2.225,0,0,0-.334-3.286c-1.55-1.068-4.718.126-6.046,1.15-.089.067-1.039.987-1.484,1.439l-.089-.059a28.248,28.248,0,0,1,2.552-4.451c.527-.742,1.076-1.484,1.632-2.166a14.78,14.78,0,0,0,4.058,2.04,4.571,4.571,0,0,0,3.828-.779,2.226,2.226,0,0,0,0-3.309c-1.424-1.224-4.7-.386-6.135.482-.082.052-.816.616-1.35,1.039.252-.3.512-.623.742-.905.927-1.076,1.847-2,2.663-2.812.475-.46.905-.868,1.313-1.239a14.83,14.83,0,0,0,4.525-.067,4.6,4.6,0,0,0,3.042-2.456,2.226,2.226,0,0,0-1.484-2.967c-1.825-.438-4.355,1.818-5.193,3.249-.074.126-1.031,2.226-.994,2.226h.037c-.4.356-.823.742-1.283,1.165-.838.794-1.78,1.706-2.737,2.76a41.732,41.732,0,0,0-2.923,3.561,29.324,29.324,0,0,0-2.671,4.407v.052c.082-.542.252-2.07.252-2.188,0-1.677-.994-4.919-2.782-5.49a2.225,2.225,0,0,0-2.812,1.751,4.774,4.774,0,0,0,1.328,3.709,15.308,15.308,0,0,0,3.932,2.441,40.627,40.627,0,0,0-1.87,4.9c-.3.972-.586,1.966-.846,2.967.052-.475.1-.9.1-.957,0-1.677-.994-4.911-2.782-5.482A2.226,2.226,0,0,0,440,404.688a4.774,4.774,0,0,0,1.328,3.709,13.93,13.93,0,0,0,3.813,2.381c-.1.386-.2.742-.3,1.15-.46,1.84-.912,3.709-1.417,5.467-.171.631-.371,1.246-.564,1.862.044-.415.082-.742.082-.823,0-1.677-.994-4.919-2.782-5.49a2.226,2.226,0,0,0-2.8,1.743,4.747,4.747,0,0,0,1.328,3.709,13.065,13.065,0,0,0,3.709,2.329c-.215.631-.43,1.254-.675,1.847-.171.408-.312.8-.5,1.2l-.549,1.172c-.378.742-.742,1.484-1.15,2.226-.267.5-.527.957-.794,1.432.185-.631.512-1.862.534-1.966a8.7,8.7,0,0,0-.616-4.31,2.748,2.748,0,0,0,0-.5,2.226,2.226,0,0,0-2.456-2.226c-1.862.252-3.405,3.264-3.709,4.911,0,.1-.1,1.172-.126,1.855-.044-.4-.074-.794-.126-1.209-.082-.816-.193-1.632-.312-2.515-.067-.423-.141-.846-.215-1.276s-.185-.875-.274-1.313c-.23-1.024-.512-2.04-.823-3.064a14.67,14.67,0,0,0,4.355-1.024,4.614,4.614,0,0,0,2.441-3.049,2.226,2.226,0,0,0-2.092-2.559c-1.877,0-3.858,2.708-4.407,4.288,0,.1-.3,1.283-.43,1.936-.185-.616-.371-1.224-.586-1.84-.616-1.773-1.291-3.546-1.958-5.319-.208-.549-.4-1.091-.6-1.632a14.76,14.76,0,0,0,4.5-1.039,4.667,4.667,0,0,0,2.448-3.049,2.226,2.226,0,0,0-2.092-2.567c-1.877,0-3.865,2.708-4.407,4.3-.045.119-.415,1.825-.49,2.263-.438-1.2-.868-2.4-1.239-3.6a37.842,37.842,0,0,1-1.217-4.926,15.22,15.22,0,0,0,4.533-1.039,4.635,4.635,0,0,0,2.441-3.049,2.226,2.226,0,0,0-2.092-2.567c-1.877,0-3.858,2.708-4.4,4.3-.037.1-.326,1.4-.453,2.018h-.1a28.658,28.658,0,0,1-.312-5.1c0-.935.082-1.832.163-2.7a14.694,14.694,0,0,0,4.518-.542,4.614,4.614,0,0,0,2.76-2.76,2.226,2.226,0,0,0-1.8-2.775c-1.862-.245-4.132,2.226-4.852,3.784-.037.082-.341.964-.549,1.61.044-.393.082-.8.133-1.172.178-1.41.43-2.685.668-3.821.141-.638.274-1.217.408-1.758a13.667,13.667,0,0,0,3.709-2.545,4.887,4.887,0,0,0,1.18-3.709,2.226,2.226,0,0,0-2.871-1.639c-1.766.645-2.626,3.924-2.567,5.594,0,.148.356,2.4.386,2.389h.037c-.141.519-.282,1.076-.43,1.684-.26,1.128-.542,2.4-.742,3.813a39.323,39.323,0,0,0-.475,4.577,28.981,28.981,0,0,0,.2,5.149.178.178,0,0,0,0,.059c-.237-.5-.935-1.87-1-1.966-.927-1.395-3.539-3.554-5.349-3.042a2.226,2.226,0,0,0-1.38,3A5.273,5.273,0,0,0,419.816,399.184Z" transform="translate(-127.214 -375.599)" fill="#263238"/>
          <path id="Trazado_717453" data-name="Trazado 717453" d="M420.256,392.476a16.35,16.35,0,0,0,4.54,1.1s-.423-2.226-.475-2.367c-.519-1.6-2.47-4.362-4.347-4.347a2.226,2.226,0,0,0-2.122,2.537A4.629,4.629,0,0,0,420.256,392.476Z" transform="translate(-127.579 -378.506)" fill="#263238" opacity="0.3"/>
          <path id="Trazado_717454" data-name="Trazado 717454" d="M464.218,398.114s.875-2.1.913-2.226c.445-1.617.341-5.008-1.231-6.031a2.226,2.226,0,0,0-3.168.95,4.643,4.643,0,0,0,.312,3.895A15.984,15.984,0,0,0,464.218,398.114Z" transform="translate(-138.573 -379.196)" fill="#263238" opacity="0.3"/>
          <path id="Trazado_717455" data-name="Trazado 717455" d="M419.816,399.184a15.5,15.5,0,0,0,4.622-.134,39.239,39.239,0,0,0,1.15,5.119c.282.979.594,1.959.92,2.967-.215-.423-.408-.8-.445-.853-.927-1.395-3.539-3.546-5.349-3.042a2.226,2.226,0,0,0-1.372,3,4.618,4.618,0,0,0,3.131,2.337,14.705,14.705,0,0,0,4.5-.111c.133.371.26.742.386,1.12.631,1.788,1.269,3.576,1.84,5.341.2.623.378,1.246.556,1.87-.193-.378-.363-.7-.393-.742-.927-1.395-3.539-3.546-5.341-3.042a2.226,2.226,0,0,0-1.38,3,4.64,4.64,0,0,0,3.131,2.337,14.348,14.348,0,0,0,4.377-.1c.163.645.326,1.283.453,1.914.082.43.185.838.237,1.276s.126.861.193,1.283c.089.823.185,1.669.252,2.47.044.556.089,1.091.126,1.625-.193-.623-.6-1.832-.645-1.929-.7-1.484-2.967-4.051-4.822-3.821a2.226,2.226,0,0,0-1.818,2.767,4.731,4.731,0,0,0,2.745,2.774,14.966,14.966,0,0,0,4.57.571c.059.89.111,1.751.148,2.567.133,2.826.141,5.193.119,6.825l1.261.163V436.6c0-1.669-.067-4.051-.267-6.9-.059-.905-.141-1.862-.237-2.849a23.806,23.806,0,0,0,2.7-.875,16.211,16.211,0,0,0,3.405,2.871c-.438.742-.868,1.521-1.291,2.226-1.447,2.426-2.737,4.392-3.665,5.757l1.387.178c.868-1.365,2-3.19,3.242-5.378.445-.786.912-1.632,1.372-2.508a15.214,15.214,0,0,0,4.51.935,4.631,4.631,0,0,0,3.494-1.743,2.226,2.226,0,0,0-.823-3.2c-1.691-.823-4.644.838-5.8,2.047-.067.074-.742.935-1.128,1.484.193-.364.378-.7.564-1.076.386-.742.742-1.484,1.128-2.27.178-.393.349-.786.527-1.187s.326-.831.5-1.246c.371-.979.7-1.988,1-3.012a14.754,14.754,0,0,0,4.192,1.55,4.633,4.633,0,0,0,3.709-1.2,2.225,2.225,0,0,0-.334-3.286c-1.543-1.068-4.711.126-6.039,1.15-.089.067-.957.905-1.424,1.38.178-.623.356-1.232.519-1.862.467-1.818.883-3.709,1.306-5.519.126-.564.26-1.128.393-1.691A15.623,15.623,0,0,0,450.233,412a4.6,4.6,0,0,0,3.709-1.194,2.226,2.226,0,0,0-.334-3.286c-1.543-1.068-4.711.126-6.046,1.15-.1.074-1.35,1.283-1.654,1.61.3-1.239.6-2.478.95-3.709a39.475,39.475,0,0,1,1.706-4.778,16.012,16.012,0,0,0,4.355,1.632,4.6,4.6,0,0,0,3.709-1.2,2.225,2.225,0,0,0-.334-3.286c-1.55-1.068-4.718.126-6.046,1.15-.089.067-1.039.987-1.484,1.439l-.089-.059a28.248,28.248,0,0,1,2.552-4.451c.527-.742,1.076-1.484,1.632-2.166a14.78,14.78,0,0,0,4.058,2.04,4.571,4.571,0,0,0,3.828-.779,2.226,2.226,0,0,0,0-3.309c-1.424-1.224-4.7-.386-6.135.482-.082.052-.816.616-1.35,1.039.252-.3.512-.623.742-.905.927-1.076,1.847-2,2.663-2.812.475-.46.905-.868,1.313-1.239a14.83,14.83,0,0,0,4.525-.067,4.6,4.6,0,0,0,3.042-2.456,2.226,2.226,0,0,0-1.484-2.967c-1.825-.438-4.355,1.818-5.193,3.249-.074.126-1.031,2.226-.994,2.226h.037c-.4.356-.823.742-1.283,1.165-.838.794-1.78,1.706-2.737,2.76a41.732,41.732,0,0,0-2.923,3.561,29.324,29.324,0,0,0-2.671,4.407v.052c.082-.542.252-2.07.252-2.188,0-1.677-.994-4.919-2.782-5.49a2.225,2.225,0,0,0-2.812,1.751,4.774,4.774,0,0,0,1.328,3.709,15.308,15.308,0,0,0,3.932,2.441,40.627,40.627,0,0,0-1.87,4.9c-.3.972-.586,1.966-.846,2.967.052-.475.1-.9.1-.957,0-1.677-.994-4.911-2.782-5.482A2.226,2.226,0,0,0,440,404.688a4.774,4.774,0,0,0,1.328,3.709,13.93,13.93,0,0,0,3.813,2.381c-.1.386-.2.742-.3,1.15-.46,1.84-.912,3.709-1.417,5.467-.171.631-.371,1.246-.564,1.862.044-.415.082-.742.082-.823,0-1.677-.994-4.919-2.782-5.49a2.226,2.226,0,0,0-2.8,1.743,4.747,4.747,0,0,0,1.328,3.709,13.065,13.065,0,0,0,3.709,2.329c-.215.631-.43,1.254-.675,1.847-.171.408-.312.8-.5,1.2l-.549,1.172c-.378.742-.742,1.484-1.15,2.226-.267.5-.527.957-.794,1.432.185-.631.512-1.862.534-1.966a8.7,8.7,0,0,0-.616-4.31,2.748,2.748,0,0,0,0-.5,2.226,2.226,0,0,0-2.456-2.226c-1.862.252-3.405,3.264-3.709,4.911,0,.1-.1,1.172-.126,1.855-.044-.4-.074-.794-.126-1.209-.082-.816-.193-1.632-.312-2.515-.067-.423-.141-.846-.215-1.276s-.185-.875-.274-1.313c-.23-1.024-.512-2.04-.823-3.064a14.67,14.67,0,0,0,4.355-1.024,4.614,4.614,0,0,0,2.441-3.049,2.226,2.226,0,0,0-2.092-2.559c-1.877,0-3.858,2.708-4.407,4.288,0,.1-.3,1.283-.43,1.936-.185-.616-.371-1.224-.586-1.84-.616-1.773-1.291-3.546-1.958-5.319-.208-.549-.4-1.091-.6-1.632a14.76,14.76,0,0,0,4.5-1.039,4.667,4.667,0,0,0,2.448-3.049,2.226,2.226,0,0,0-2.092-2.567c-1.877,0-3.865,2.708-4.407,4.3-.045.119-.415,1.825-.49,2.263-.438-1.2-.868-2.4-1.239-3.6a37.842,37.842,0,0,1-1.217-4.926,15.22,15.22,0,0,0,4.533-1.039,4.635,4.635,0,0,0,2.441-3.049,2.226,2.226,0,0,0-2.092-2.567c-1.877,0-3.858,2.708-4.4,4.3-.037.1-.326,1.4-.453,2.018h-.1a28.658,28.658,0,0,1-.312-5.1c0-.935.082-1.832.163-2.7a14.694,14.694,0,0,0,4.518-.542,4.614,4.614,0,0,0,2.76-2.76,2.226,2.226,0,0,0-1.8-2.775c-1.862-.245-4.132,2.226-4.852,3.784-.037.082-.341.964-.549,1.61.044-.393.082-.8.133-1.172.178-1.41.43-2.685.668-3.821.141-.638.274-1.217.408-1.758a13.667,13.667,0,0,0,3.709-2.545,4.887,4.887,0,0,0,1.18-3.709,2.226,2.226,0,0,0-2.871-1.639c-1.766.645-2.626,3.924-2.567,5.594,0,.148.356,2.4.386,2.389h.037c-.141.519-.282,1.076-.43,1.684-.26,1.128-.542,2.4-.742,3.813a39.323,39.323,0,0,0-.475,4.577,28.981,28.981,0,0,0,.2,5.149.178.178,0,0,0,0,.059c-.237-.5-.935-1.87-1-1.966-.927-1.395-3.539-3.554-5.349-3.042a2.226,2.226,0,0,0-1.38,3A5.273,5.273,0,0,0,419.816,399.184Z" transform="translate(-127.214 -375.599)" fill="#263238" opacity="0.3"/>
          <path id="Trazado_717456" data-name="Trazado 717456" d="M40.577,408.472s-.742-1.721-.742-1.84c-.364-1.328-.282-4.11,1.009-4.948a1.825,1.825,0,0,1,2.6.742,3.806,3.806,0,0,1-.252,3.2A12.758,12.758,0,0,1,40.577,408.472Z" transform="translate(-29.954 -382.261)" fill="#263238"/>
          <path id="Trazado_717457" data-name="Trazado 717457" d="M76.119,403.844a13.169,13.169,0,0,1-3.709.905s.349-1.832.386-1.951c.438-1.306,2.04-3.576,3.576-3.568a1.825,1.825,0,0,1,1.721,2.055A3.791,3.791,0,0,1,76.119,403.844Z" transform="translate(-38.412 -381.699)" fill="#263238"/>
          <path id="Trazado_717458" data-name="Trazado 717458" d="M64.356,409.326a12.774,12.774,0,0,1-3.8-.1,32.529,32.529,0,0,1-.942,4.206c-.23.8-.49,1.61-.742,2.411.178-.349.334-.66.364-.7.742-1.15,2.908-2.915,4.392-2.5a1.832,1.832,0,0,1,1.1,2.47,3.828,3.828,0,0,1-2.574,1.914,12.137,12.137,0,0,1-3.709-.089c-.111.3-.215.616-.319.92-.519,1.484-1.039,2.967-1.484,4.392-.171.512-.312,1.016-.46,1.528l.319-.6c.742-1.15,2.908-2.923,4.392-2.5a1.818,1.818,0,0,1,1.135,2.47,3.828,3.828,0,0,1-2.574,1.914,11.647,11.647,0,0,1-3.591-.082c-.134.527-.274,1.061-.378,1.573-.067.356-.148.69-.193,1.053l-.156,1.053c-.074.675-.156,1.365-.208,2.025-.045.46-.074.9-.1,1.335.156-.512.49-1.484.527-1.588.579-1.246,2.433-3.324,3.962-3.131a1.825,1.825,0,0,1,1.484,2.27,3.8,3.8,0,0,1-2.226,2.285,12.664,12.664,0,0,1-3.709.467c-.052.742-.1,1.439-.126,2.107-.111,2.315-.111,4.251-.1,5.608l-1.039.134v-.119c0-1.372.059-3.331.223-5.675.045-.742.119-1.528.193-2.344a19.3,19.3,0,0,1-2.226-.742,13.45,13.45,0,0,1-2.8,2.359c.356.631.742,1.246,1.061,1.825,1.187,2,2.226,3.613,3.012,4.733l-1.142.141c-.742-1.113-1.647-2.611-2.663-4.414-.364-.645-.742-1.343-1.128-2.062a11.92,11.92,0,0,1-3.709.742,3.821,3.821,0,0,1-2.878-1.432,1.832,1.832,0,0,1,.682-2.634c1.387-.675,3.813.69,4.763,1.691.059.052.593.742.927,1.209-.156-.289-.312-.579-.467-.883-.312-.6-.6-1.209-.92-1.862l-.438-.979c-.148-.319-.267-.675-.408-1.024-.3-.8-.571-1.632-.823-2.47a11.914,11.914,0,0,1-3.442,1.269,3.813,3.813,0,0,1-3.056-.979,1.818,1.818,0,0,1,.274-2.7c1.269-.875,3.873.1,4.963.942.067.052.786.742,1.172,1.128-.148-.5-.3-1.009-.43-1.528-.386-1.484-.742-3.012-1.068-4.533-.111-.46-.223-.927-.326-1.387a12.959,12.959,0,0,1-3.561,1.328,3.8,3.8,0,0,1-3.056-.979,1.825,1.825,0,0,1,.267-2.7c1.276-.875,3.88.1,4.97.942.082.067,1.105,1.061,1.358,1.328-.245-1.024-.49-2.04-.742-3.027a31.808,31.808,0,0,0-1.469-3.85,12.889,12.889,0,0,1-3.576,1.335,3.8,3.8,0,0,1-3.056-.979,1.818,1.818,0,0,1,.274-2.7c1.269-.875,3.873.1,4.963.942.067.059.853.816,1.217,1.18l.074-.045a23.518,23.518,0,0,0-2.092-3.635c-.438-.638-.89-1.217-1.343-1.78a12.2,12.2,0,0,1-3.338,1.677,3.813,3.813,0,0,1-3.145-.638,1.825,1.825,0,0,1,0-2.715c1.165-1.009,3.858-.319,5.037.393.059.037.668.5,1.105.853-.208-.252-.415-.512-.623-.742a23.045,23.045,0,0,0-2.226-2.315c-.386-.378-.742-.7-1.076-1.016a12.345,12.345,0,0,1-3.709-.052,3.806,3.806,0,0,1-2.493-2.018,1.825,1.825,0,0,1,1.224-2.426c1.484-.356,3.576,1.484,4.3,2.678.059.1.846,1.8.816,1.8h0c.334.289.683.6,1.061.957a29.654,29.654,0,0,1,2.226,2.27,29.416,29.416,0,0,1,2.4,2.923,23.855,23.855,0,0,1,2.226,3.613v.052c-.067-.453-.208-1.706-.208-1.8,0-1.38.816-4.036,2.285-4.51a1.825,1.825,0,0,1,2.307,1.439,3.828,3.828,0,0,1-1.113,3.034,12.426,12.426,0,0,1-3.227,2,32.551,32.551,0,0,1,1.536,4.028c.252.8.475,1.61.7,2.433-.045-.393-.082-.742-.082-.786,0-1.38.816-4.036,2.285-4.51a1.832,1.832,0,0,1,2.307,1.439,3.828,3.828,0,0,1-1.091,3.019,12.1,12.1,0,0,1-3.131,1.959l.245.942c.378,1.484.742,3.027,1.157,4.5.148.519.312,1.024.467,1.528a4.866,4.866,0,0,0-.067-.682c0-1.372.816-4.036,2.285-4.5a1.825,1.825,0,0,1,2.278,1.41,3.821,3.821,0,0,1-1.091,3.019,11.647,11.647,0,0,1-3.042,1.921c.178.512.356,1.024.556,1.484.141.334.252.66.415.987s.3.645.453.964c.312.6.631,1.224.95,1.8.215.408.43.786.645,1.172-.148-.512-.423-1.528-.438-1.617a7.166,7.166,0,0,1,.5-3.539,2.419,2.419,0,0,1,0-.4,1.825,1.825,0,0,1,2.018-1.818c1.528.2,2.8,2.678,3.042,4.028,0,.082.074.964.1,1.528a9.191,9.191,0,0,1,.1-.994c.074-.675.163-1.343.26-2.062l.178-1.053c.052-.356.148-.742.223-1.083.193-.838.423-1.677.683-2.515a11.826,11.826,0,0,1-3.576-.838,3.828,3.828,0,0,1-1.981-2.478,1.818,1.818,0,0,1,1.721-2.1c1.543,0,3.168,2.226,3.62,3.524,0,.082.237,1.053.349,1.588.156-.5.312-1.009.482-1.484.5-1.484,1.061-2.915,1.61-4.37.171-.445.334-.89.5-1.343a12.012,12.012,0,0,1-3.709-.853,3.813,3.813,0,0,1-2.025-2.537,1.832,1.832,0,0,1,1.721-2.107c1.543,0,3.168,2.226,3.62,3.524,0,.1.341,1.484.4,1.855.364-.979.742-1.966,1.016-2.967a30.718,30.718,0,0,0,1-4.013,12.469,12.469,0,0,1-3.709-.853,3.828,3.828,0,0,1-2.01-2.507,1.832,1.832,0,0,1,1.721-2.107c1.543,0,3.175,2.226,3.62,3.531,0,.082.267,1.15.364,1.662h.1a23.191,23.191,0,0,0,.252-4.184c0-.742-.067-1.484-.134-2.226a12.559,12.559,0,0,1-3.709-.445,3.835,3.835,0,0,1-2.27-2.27,1.825,1.825,0,0,1,1.484-2.277c1.528-.2,3.4,1.862,3.984,3.108,0,.067.282.786.46,1.32a6.978,6.978,0,0,0-.111-.964c-.148-1.157-.356-2.226-.549-3.138-.119-.527-.23-1-.341-1.439a12.337,12.337,0,0,1-3.071-2.092,3.843,3.843,0,0,1-.964-3.064,1.825,1.825,0,0,1,2.329-1.343c1.484.527,2.159,3.22,2.107,4.592,0,.126-.289,1.973-.319,1.959h0c.119.43.237.883.356,1.38.215.927.445,1.981.623,3.138a31.4,31.4,0,0,1,.386,3.761,24.125,24.125,0,0,1-.163,4.229s0,0,0,.052c.193-.408.742-1.536.823-1.617.742-1.15,2.908-2.915,4.392-2.5a1.825,1.825,0,0,1,1.113,2.448A3.813,3.813,0,0,1,64.356,409.326Z" transform="translate(-26.581 -379.287)" fill="#263238"/>
          <path id="Trazado_717459" data-name="Trazado 717459" d="M76.119,403.844a13.169,13.169,0,0,1-3.709.905s.349-1.832.386-1.951c.438-1.306,2.04-3.576,3.576-3.568a1.825,1.825,0,0,1,1.721,2.055A3.791,3.791,0,0,1,76.119,403.844Z" transform="translate(-38.412 -381.699)" fill="#263238" opacity="0.3"/>
          <path id="Trazado_717460" data-name="Trazado 717460" d="M40.577,408.472s-.742-1.721-.742-1.84c-.364-1.328-.282-4.11,1.009-4.948a1.825,1.825,0,0,1,2.6.742,3.806,3.806,0,0,1-.252,3.2A12.758,12.758,0,0,1,40.577,408.472Z" transform="translate(-29.954 -382.261)" fill="#263238" opacity="0.3"/>
          <path id="Trazado_717461" data-name="Trazado 717461" d="M64.356,409.326a12.774,12.774,0,0,1-3.8-.1,32.529,32.529,0,0,1-.942,4.206c-.23.8-.49,1.61-.742,2.411.178-.349.334-.66.364-.7.742-1.15,2.908-2.915,4.392-2.5a1.832,1.832,0,0,1,1.1,2.47,3.828,3.828,0,0,1-2.574,1.914,12.137,12.137,0,0,1-3.709-.089c-.111.3-.215.616-.319.92-.519,1.484-1.039,2.967-1.484,4.392-.171.512-.312,1.016-.46,1.528l.319-.6c.742-1.15,2.908-2.923,4.392-2.5a1.818,1.818,0,0,1,1.135,2.47,3.828,3.828,0,0,1-2.574,1.914,11.647,11.647,0,0,1-3.591-.082c-.134.527-.274,1.061-.378,1.573-.067.356-.148.69-.193,1.053l-.156,1.053c-.074.675-.156,1.365-.208,2.025-.045.46-.074.9-.1,1.335.156-.512.49-1.484.527-1.588.579-1.246,2.433-3.324,3.962-3.131a1.825,1.825,0,0,1,1.484,2.27,3.8,3.8,0,0,1-2.226,2.285,12.664,12.664,0,0,1-3.709.467c-.052.742-.1,1.439-.126,2.107-.111,2.315-.111,4.251-.1,5.608l-1.039.134v-.119c0-1.372.059-3.331.223-5.675.045-.742.119-1.528.193-2.344a19.3,19.3,0,0,1-2.226-.742,13.45,13.45,0,0,1-2.8,2.359c.356.631.742,1.246,1.061,1.825,1.187,2,2.226,3.613,3.012,4.733l-1.142.141c-.742-1.113-1.647-2.611-2.663-4.414-.364-.645-.742-1.343-1.128-2.062a11.92,11.92,0,0,1-3.709.742,3.821,3.821,0,0,1-2.878-1.432,1.832,1.832,0,0,1,.682-2.634c1.387-.675,3.813.69,4.763,1.691.059.052.593.742.927,1.209-.156-.289-.312-.579-.467-.883-.312-.6-.6-1.209-.92-1.862l-.438-.979c-.148-.319-.267-.675-.408-1.024-.3-.8-.571-1.632-.823-2.47a11.914,11.914,0,0,1-3.442,1.269,3.813,3.813,0,0,1-3.056-.979,1.818,1.818,0,0,1,.274-2.7c1.269-.875,3.873.1,4.963.942.067.052.786.742,1.172,1.128-.148-.5-.3-1.009-.43-1.528-.386-1.484-.742-3.012-1.068-4.533-.111-.46-.223-.927-.326-1.387a12.959,12.959,0,0,1-3.561,1.328,3.8,3.8,0,0,1-3.056-.979,1.825,1.825,0,0,1,.267-2.7c1.276-.875,3.88.1,4.97.942.082.067,1.105,1.061,1.358,1.328-.245-1.024-.49-2.04-.742-3.027a31.808,31.808,0,0,0-1.469-3.85,12.889,12.889,0,0,1-3.576,1.335,3.8,3.8,0,0,1-3.056-.979,1.818,1.818,0,0,1,.274-2.7c1.269-.875,3.873.1,4.963.942.067.059.853.816,1.217,1.18l.074-.045a23.518,23.518,0,0,0-2.092-3.635c-.438-.638-.89-1.217-1.343-1.78a12.2,12.2,0,0,1-3.338,1.677,3.813,3.813,0,0,1-3.145-.638,1.825,1.825,0,0,1,0-2.715c1.165-1.009,3.858-.319,5.037.393.059.037.668.5,1.105.853-.208-.252-.415-.512-.623-.742a23.045,23.045,0,0,0-2.226-2.315c-.386-.378-.742-.7-1.076-1.016a12.345,12.345,0,0,1-3.709-.052,3.806,3.806,0,0,1-2.493-2.018,1.825,1.825,0,0,1,1.224-2.426c1.484-.356,3.576,1.484,4.3,2.678.059.1.846,1.8.816,1.8h0c.334.289.683.6,1.061.957a29.654,29.654,0,0,1,2.226,2.27,29.416,29.416,0,0,1,2.4,2.923,23.855,23.855,0,0,1,2.226,3.613v.052c-.067-.453-.208-1.706-.208-1.8,0-1.38.816-4.036,2.285-4.51a1.825,1.825,0,0,1,2.307,1.439,3.828,3.828,0,0,1-1.113,3.034,12.426,12.426,0,0,1-3.227,2,32.551,32.551,0,0,1,1.536,4.028c.252.8.475,1.61.7,2.433-.045-.393-.082-.742-.082-.786,0-1.38.816-4.036,2.285-4.51a1.832,1.832,0,0,1,2.307,1.439,3.828,3.828,0,0,1-1.091,3.019,12.1,12.1,0,0,1-3.131,1.959l.245.942c.378,1.484.742,3.027,1.157,4.5.148.519.312,1.024.467,1.528a4.866,4.866,0,0,0-.067-.682c0-1.372.816-4.036,2.285-4.5a1.825,1.825,0,0,1,2.278,1.41,3.821,3.821,0,0,1-1.091,3.019,11.647,11.647,0,0,1-3.042,1.921c.178.512.356,1.024.556,1.484.141.334.252.66.415.987s.3.645.453.964c.312.6.631,1.224.95,1.8.215.408.43.786.645,1.172-.148-.512-.423-1.528-.438-1.617a7.166,7.166,0,0,1,.5-3.539,2.419,2.419,0,0,1,0-.4,1.825,1.825,0,0,1,2.018-1.818c1.528.2,2.8,2.678,3.042,4.028,0,.082.074.964.1,1.528a9.191,9.191,0,0,1,.1-.994c.074-.675.163-1.343.26-2.062l.178-1.053c.052-.356.148-.742.223-1.083.193-.838.423-1.677.683-2.515a11.826,11.826,0,0,1-3.576-.838,3.828,3.828,0,0,1-1.981-2.478,1.818,1.818,0,0,1,1.721-2.1c1.543,0,3.168,2.226,3.62,3.524,0,.082.237,1.053.349,1.588.156-.5.312-1.009.482-1.484.5-1.484,1.061-2.915,1.61-4.37.171-.445.334-.89.5-1.343a12.012,12.012,0,0,1-3.709-.853,3.813,3.813,0,0,1-2.025-2.537,1.832,1.832,0,0,1,1.721-2.107c1.543,0,3.168,2.226,3.62,3.524,0,.1.341,1.484.4,1.855.364-.979.742-1.966,1.016-2.967a30.718,30.718,0,0,0,1-4.013,12.469,12.469,0,0,1-3.709-.853,3.828,3.828,0,0,1-2.01-2.507,1.832,1.832,0,0,1,1.721-2.107c1.543,0,3.175,2.226,3.62,3.531,0,.082.267,1.15.364,1.662h.1a23.191,23.191,0,0,0,.252-4.184c0-.742-.067-1.484-.134-2.226a12.559,12.559,0,0,1-3.709-.445,3.835,3.835,0,0,1-2.27-2.27,1.825,1.825,0,0,1,1.484-2.277c1.528-.2,3.4,1.862,3.984,3.108,0,.067.282.786.46,1.32a6.978,6.978,0,0,0-.111-.964c-.148-1.157-.356-2.226-.549-3.138-.119-.527-.23-1-.341-1.439a12.337,12.337,0,0,1-3.071-2.092,3.843,3.843,0,0,1-.964-3.064,1.825,1.825,0,0,1,2.329-1.343c1.484.527,2.159,3.22,2.107,4.592,0,.126-.289,1.973-.319,1.959h0c.119.43.237.883.356,1.38.215.927.445,1.981.623,3.138a31.4,31.4,0,0,1,.386,3.761,24.125,24.125,0,0,1-.163,4.229s0,0,0,.052c.193-.408.742-1.536.823-1.617.742-1.15,2.908-2.915,4.392-2.5a1.825,1.825,0,0,1,1.113,2.448A3.813,3.813,0,0,1,64.356,409.326Z" transform="translate(-26.581 -379.287)" fill="#263238" opacity="0.3"/>
        </g>
        <g id="freepik--character-3--inject-2" transform="translate(193.355 80.394)">
          <ellipse id="Elipse_8458" data-name="Elipse 8458" cx="6.677" cy="7.048" rx="6.677" ry="7.048" transform="translate(13.554 16.934)" fill="#263238" stroke="#263238" stroke-linecap="round" stroke-linejoin="round" stroke-width="1"/>
          <path id="Trazado_717462" data-name="Trazado 717462" d="M278.747,354.55s.245,22.256,2.715,34.867,4.948,28.191,4.948,28.191-2.47,9.644-3.212,10.134-5.69,3.465-4.206,4.7,15.824,0,15.824,0a6.213,6.213,0,0,0,1.239-5.193c-.5-3.457-.245-15.089-.245-15.089s1.484-40.55,1.484-46.737V352.814L278.25,351.33Z" transform="translate(-259.503 -166.306)" fill="#fff" stroke="#263238" stroke-linecap="round" stroke-linejoin="round" stroke-width="1"/>
          <path id="Trazado_717463" data-name="Trazado 717463" d="M296.217,450.8a79.34,79.34,0,0,1-.312-8.249c-.838,2.634-2.552,7.2-4.637,8.249-2.967,1.484-7.908.49-7.908.49-.742.5-5.69,3.465-4.206,4.7s15.824,0,15.824,0A6.213,6.213,0,0,0,296.217,450.8Z" transform="translate(-259.665 -189.854)" fill="#263238" stroke="#263238" stroke-linecap="round" stroke-linejoin="round" stroke-width="1"/>
          <path id="Trazado_717464" data-name="Trazado 717464" d="M329.126,354.55s-.245,22.256-2.715,34.867-4.948,28.191-4.948,28.191,2.47,9.644,3.212,10.134,5.69,3.465,4.206,4.7-15.824,0-15.824,0a6.213,6.213,0,0,1-1.239-5.193c.5-3.457.245-15.089.245-15.089s-1.484-40.55-1.484-46.737V352.814l19.044-1.484Z" transform="translate(-267.849 -166.306)" fill="#fff" stroke="#263238" stroke-linecap="round" stroke-linejoin="round" stroke-width="1"/>
          <path id="Trazado_717465" data-name="Trazado 717465" d="M312.219,450.8a79.331,79.331,0,0,0,.312-8.249c.838,2.634,2.552,7.2,4.637,8.249,2.967,1.484,7.908.49,7.908.49.742.5,5.69,3.465,4.206,4.7s-15.824,0-15.824,0A6.213,6.213,0,0,1,312.219,450.8Z" transform="translate(-268.249 -189.854)" fill="#263238" stroke="#263238" stroke-linecap="round" stroke-linejoin="round" stroke-width="1"/>
          <path id="Trazado_717466" data-name="Trazado 717466" d="M270.74,239s-7.419,19.288-9.644,33.881-9.4,42.776-7.916,44.756,5.69,2.47,5.69,2.47l-.252,3.962s8.16,3.457,16.076,3.709,14.34-1.981,18.791-.994,18.057,1.981,21.514,0,7.419-3.709,7.671-4.7a15.648,15.648,0,0,0,0-3.465l3.709-1.728s-.994-25.72-3.465-40.557-6.18-27.2-7.916-31.648-8.16-5.445-8.16-5.445Z" transform="translate(-252.98 -137.309)" fill="#263238" stroke="#263238" stroke-linecap="round" stroke-linejoin="round" stroke-width="1"/>
          <line id="Línea_2626" data-name="Línea 2626" y1="25.965" x2="1.973" transform="translate(5.89 156.833)" fill="none" stroke="#263238" stroke-linecap="round" stroke-linejoin="round" stroke-width="1"/>
          <line id="Línea_2627" data-name="Línea 2627" x1="4.451" y1="33.873" transform="translate(65.239 147.441)" fill="none" stroke="#263238" stroke-linecap="round" stroke-linejoin="round" stroke-width="1"/>
          <path id="Trazado_717467" data-name="Trazado 717467" d="M284.552,152.25l-1.113,10.571s-20.958,8.531-21.7,9.644,12.8,46,12.8,46,6.677,4.822,18.732,4.637,18.917-6.306,18.917-6.306,7.6-44.326,6.306-46.923-20.772-8.16-20.772-8.16l-.371-7.975Z" transform="translate(-255.234 -114.915)" fill="#ffa031" stroke="#263238" stroke-linecap="round" stroke-linejoin="round" stroke-width="1"/>
          <path id="Trazado_717468" data-name="Trazado 717468" d="M297.022,187.219l12.411-24.281c-3.16-1-5.549-1.684-5.549-1.684l-.371-7.975-14.362-2.789.453,11.87s-1.639.668-4.013,1.654Z" transform="translate(-261.398 -114.461)" fill="#fff" stroke="#263238" stroke-linecap="round" stroke-linejoin="round" stroke-width="1"/>
          <path id="Trazado_717469" data-name="Trazado 717469" d="M304.99,158.432l-.237-5.193L290.39,150.45l.111,2.967c1.588,2.062,5.341,6.588,8.331,7.419C300.835,161.422,303.187,159.975,304.99,158.432Z" transform="translate(-262.637 -114.451)" fill="#263238" stroke="#263238" stroke-linecap="round" stroke-linejoin="round" stroke-width="1"/>
          <path id="Trazado_717470" data-name="Trazado 717470" d="M282.829,128.131s-.1-.252-.275-.6c-.6-1.231-2.055-3.709-3.064-1.254a6.469,6.469,0,0,0,1.484,7.048,2.619,2.619,0,0,0,2.967.742,73.385,73.385,0,0,0,6.306,9.273c2.782,3.153,8.16,3.709,10.386,1.3s4.9-4.214,6.009-10.149c.252-1.328.2-3.947.378-5.445a78.006,78.006,0,0,0,.475-13.895c-.371-3.895-2.782-9.644-7.233-12.055s-13.168-1.113-17.248,4.08-5.193,10.757-3.524,13.353a24.481,24.481,0,0,1,2.226,4.08Z" transform="translate(-259.631 -101.924)" fill="#fff" stroke="#263238" stroke-linecap="round" stroke-linejoin="round" stroke-width="1"/>
          <path id="Trazado_717471" data-name="Trazado 717471" d="M280.3,133.676l2.93,2.567s-.1-.252-.274-.6C282.429,134.573,281.257,132.555,280.3,133.676Z" transform="translate(-260.032 -110.036)" fill="#fff" stroke="#263238" stroke-linecap="round" stroke-linejoin="round" stroke-width="1"/>
          <path id="Trazado_717472" data-name="Trazado 717472" d="M300.262,103.093c-4.451-2.411-13.168-1.113-17.248,4.08s-5.193,10.757-3.524,13.353a24.481,24.481,0,0,1,2.226,4.08l1.113,3.524s0-4.637.742-6.491,4.08-10.571,13.353-10.757,9.088,8.717,10.015,10.942a3.5,3.5,0,0,0,.593.927,58.492,58.492,0,0,0-.037-7.6C307.125,111.254,304.714,105.5,300.262,103.093Z" transform="translate(-259.631 -101.924)" fill="#263238" stroke="#263238" stroke-linecap="round" stroke-linejoin="round" stroke-width="1"/>
          <path id="Trazado_717473" data-name="Trazado 717473" d="M306.968,133.75s-.371,3.709.371,4.08,2.411.556,2.04,1.855-2.04,1.669-2.04,1.669" transform="translate(-266.893 -110.14)" fill="none" stroke="#263238" stroke-linecap="round" stroke-linejoin="round" stroke-width="1"/>
          <path id="Trazado_717474" data-name="Trazado 717474" d="M297.75,146.25s1.3,2.782,6.677,2.6" transform="translate(-264.537 -113.366)" fill="none" stroke="#263238" stroke-linecap="round" stroke-linejoin="round" stroke-width="1"/>
          <path id="Trazado_717475" data-name="Trazado 717475" d="M292.25,136.062a5.675,5.675,0,0,1,5.193.185" transform="translate(-263.117 -110.597)" fill="none" stroke="#263238" stroke-linecap="round" stroke-linejoin="round" stroke-width="1"/>
          <path id="Trazado_717476" data-name="Trazado 717476" d="M308.75,136.1s2.782-1.3,4.451.556" transform="translate(-267.377 -110.631)" fill="none" stroke="#263238" stroke-linecap="round" stroke-linejoin="round" stroke-width="1"/>
          <path id="Trazado_717477" data-name="Trazado 717477" d="M291.75,129.878a5.3,5.3,0,0,1,6.862-.927" transform="translate(-262.988 -108.679)" fill="none" stroke="#263238" stroke-linecap="round" stroke-linejoin="round" stroke-width="1"/>
          <path id="Trazado_717478" data-name="Trazado 717478" d="M308.25,129.838s3.709-2.782,5.935.185" transform="translate(-267.247 -108.824)" fill="none" stroke="#263238" stroke-linecap="round" stroke-linejoin="round" stroke-width="1"/>
          <path id="Trazado_717479" data-name="Trazado 717479" d="M265.981,176.75s-7.048,2.04-7.233,3.153,4.451,35.053,4.451,35.053-2.411,2.226-1.484,3.524,2.967,3.895,2.967,3.895a2.7,2.7,0,0,0,.742,2.782c1.3,1.113,5.008,15.208,8.717,21.885a81.222,81.222,0,0,0,8.346,12.055s2.6,4.822,4.451,6.12,3.153,2.411,4.266,1.855,2.226-5.008,2.411-7.79-5.749-6.306-6.491-6.677a18.815,18.815,0,0,1-2.6-2.226s-5.008-10.571-5.935-15.764-3.338-13.168-3.338-13.168a23.6,23.6,0,0,0,1.3-3.895c0-.742-2.04-2.6-2.04-3.338V208.65l-1.669-19.288" transform="translate(-254.468 -121.24)" fill="#ffa031" stroke="#263238" stroke-linecap="round" stroke-linejoin="round" stroke-width="1"/>
          <path id="Trazado_717480" data-name="Trazado 717480" d="M290.035,269.923a18.815,18.815,0,0,1-2.6-2.226s-5.008-10.571-5.935-15.764c-.408-2.278-1.1-5.089-1.751-7.53a9.629,9.629,0,0,0-9.733,1.832c1.773,4.919,4.4,13.353,7.033,18.124a81.22,81.22,0,0,0,8.346,12.055s2.6,4.822,4.451,6.12,3.153,2.411,4.266,1.855,2.226-5.008,2.411-7.79S290.777,270.294,290.035,269.923Z" transform="translate(-257.379 -138.557)" fill="#fff" stroke="#263238" stroke-linecap="round" stroke-linejoin="round" stroke-width="1"/>
          <path id="Trazado_717481" data-name="Trazado 717481" d="M269,235.746s4.637-3.153,7.79-1.855" transform="translate(-257.115 -135.909)" fill="none" stroke="#263238" stroke-linecap="round" stroke-linejoin="round" stroke-width="1"/>
          <path id="Trazado_717482" data-name="Trazado 717482" d="M265,233s5.935-4.266,9.644-2.411" transform="translate(-256.083 -135.017)" fill="none" stroke="#263238" stroke-linecap="round" stroke-linejoin="round" stroke-width="1"/>
          <path id="Trazado_717483" data-name="Trazado 717483" d="M320.634,189.2l-1.484,25.78s-2.967,4.08-2.6,5.193a8.828,8.828,0,0,1,.371,2.411l-1.669,2.04L304.87,252.258s-4.451,3.153-4.637,3.895-1.855,5.749-1.855,6.862-.371,1.113.927,1.113,2.782-4.08,2.782-4.08l-.556,4.822a23.639,23.639,0,0,1-3.338.742c-.742,0,1.113,2.6,4.08,2.226s4.822-1.669,5.749-4.637,2.226-11.87,2.226-11.87S327.5,228.7,329.166,225.922s2.226-5.378,2.04-6.677a7.463,7.463,0,0,1,.371-3.895c.556-1.855.742-3.524.371-4.08s.742-18.732.185-25.038-2.226-9.459-4.266-10.942a15.507,15.507,0,0,0-5.564-2.04" transform="translate(-264.609 -120.336)" fill="#ffa031" stroke="#263238" stroke-linecap="round" stroke-linejoin="round" stroke-width="1"/>
          <path id="Trazado_717484" data-name="Trazado 717484" d="M315.063,243.061,304.84,270.25s-4.451,3.153-4.637,3.895-1.855,5.749-1.855,6.862-.371,1.113.927,1.113,2.782-4.08,2.782-4.08l-.556,4.822a23.64,23.64,0,0,1-3.338.742c-.742,0,1.113,2.6,4.08,2.226s4.822-1.669,5.749-4.637,2.226-11.87,2.226-11.87,10.883-14.273,16.195-21.514C323.364,242.817,317.852,242.735,315.063,243.061Z" transform="translate(-264.601 -138.329)" fill="#fff" stroke="#263238" stroke-linecap="round" stroke-linejoin="round" stroke-width="1"/>
          <path id="Trazado_717485" data-name="Trazado 717485" d="M326.25,237.637s5.193-2.782,8.9.742" transform="translate(-271.894 -136.688)" fill="none" stroke="#263238" stroke-linecap="round" stroke-linejoin="round" stroke-width="1"/>
          <path id="Trazado_717486" data-name="Trazado 717486" d="M335.467,232.721s-5.378-.742-8.717,2.226" transform="translate(-272.023 -135.667)" fill="none" stroke="#263238" stroke-linecap="round" stroke-linejoin="round" stroke-width="1"/>
        </g>
        <g id="freepik--character-4--inject-2" transform="translate(253.017 91.885)">
          <path id="Trazado_717487" data-name="Trazado 717487" d="M351.694,416.67l-1.484,20.52s-6.922,6.677-8.405,7.671-7.916,1.729-6.922,3.709,5.193,1.729,5.193,1.729h19.288a9.184,9.184,0,0,0,.742-5.438c-.5-3.22-.994-9.155-.994-9.155l3.709-18.546Z" transform="translate(-333.758 -194.664)" fill="#fff" stroke="#263238" stroke-linecap="round" stroke-linejoin="round" stroke-width="1"/>
          <path id="Trazado_717488" data-name="Trazado 717488" d="M340.077,456.91h19.288a9.184,9.184,0,0,0,.742-5.438c-.126-.786-.245-1.736-.356-2.723h-7.315s-.49-2.47-.742-5.193c-.119-1.313-.742-1.409-1.38-1.172l-.1,1.417s-6.922,6.677-8.405,7.671-7.916,1.729-6.922,3.709S340.077,456.91,340.077,456.91Z" transform="translate(-333.758 -201.275)" fill="#fff" stroke="#263238" stroke-linecap="round" stroke-linejoin="round" stroke-width="1"/>
          <path id="Trazado_717489" data-name="Trazado 717489" d="M404.92,418l2.47,26.952s1.239,7.419,2.723,7.671,7.419,1.232,8.405-1.981-3.954-13.109-3.954-13.109L416.538,418Z" transform="translate(-351.864 -195.007)" fill="#fff" stroke="#263238" stroke-linecap="round" stroke-linejoin="round" stroke-width="1"/>
          <path id="Trazado_717490" data-name="Trazado 717490" d="M408.09,451.386s1.239,7.419,2.723,7.671,7.419,1.231,8.405-1.981-3.954-13.109-3.954-13.109-2.478-1.973-3.709-.49a13.353,13.353,0,0,0-1.981,3.709l-1.944-.809Z" transform="translate(-352.564 -201.441)" fill="#fff" stroke="#263238" stroke-linecap="round" stroke-linejoin="round" stroke-width="1"/>
          <path id="Trazado_717491" data-name="Trazado 717491" d="M355.062,276a185.968,185.968,0,0,0-1.484,24.978c0,15.082,1.239,77.4,1.239,77.4l14.34-.5,7.671-67.257,1.729,2.47L388.7,377.879s3.709,1.981,6.18,1.981,9.644-2.226,9.644-2.226-.987-74.186-.742-78.392-1.239-16.566-1.239-16.566-6.922,1.981-18.791.245-18.791-4.2-20.772-5.193S355.062,276,355.062,276Z" transform="translate(-338.609 -158.351)" fill="#263238" stroke="#263238" stroke-linecap="round" stroke-linejoin="round" stroke-width="1"/>
          <line id="Línea_2628" data-name="Línea 2628" y1="4.08" x2="10.015" transform="translate(34.383 148.807)" fill="none" stroke="gray" stroke-linecap="round" stroke-linejoin="round" stroke-width="1"/>
          <path id="Trazado_717492" data-name="Trazado 717492" d="M361.072,287a28.856,28.856,0,0,1-4.822,10.757" transform="translate(-339.3 -161.19)" fill="none" stroke="gray" stroke-linecap="round" stroke-linejoin="round" stroke-width="1"/>
          <path id="Trazado_717493" data-name="Trazado 717493" d="M409.75,291.5a20.142,20.142,0,0,0,6.677,9.273" transform="translate(-353.111 -162.352)" fill="none" stroke="gray" stroke-linecap="round" stroke-linejoin="round" stroke-width="1"/>
          <path id="Trazado_717494" data-name="Trazado 717494" d="M378.777,172.73s-23.087,7.151-23.688,8.643-19.748,36.945-18.413,37.991,13.947.289,14.54,0,5.809-13.554,5.809-13.554-.3,14-.3,15.037,0,8.16-2.678,13.561-4.622,15.787-4.622,16.974v1.936s15.794,10.119,27.857,8.487a135.587,135.587,0,0,0,21.6-4.77s-.445-9.229-1.64-13.554-3.709-18.316-3.709-19.808,1.936-4.318,2.085-4.77,6.855-23.68,6.855-23.68l5.66,19.066,9.681-1.484s-3.131-29.489-5.067-31.158-25.171-7.745-25.171-7.745Z" transform="translate(-334.231 -131.693)" fill="#fff"/>
          <path id="Trazado_717495" data-name="Trazado 717495" d="M351.218,234.723a11.223,11.223,0,0,0,1.254-2.463H337.293c-.564,1.417-.809,2.315-.616,2.47C338.02,235.776,350.624,235.035,351.218,234.723Z" transform="translate(-334.231 -147.06)" fill="#ffa031"/>
          <path id="Trazado_717496" data-name="Trazado 717496" d="M360.487,252.38a21.148,21.148,0,0,1-1.053,2.582,35.732,35.732,0,0,0-1.973,5.119H401.7c-.49-2.315-1.031-5.1-1.484-7.7Z" transform="translate(-339.613 -152.254)" fill="#ffa031"/>
          <path id="Trazado_717497" data-name="Trazado 717497" d="M402.376,272.5h-47.65a38.848,38.848,0,0,0-.786,4.629v1.936s.7.453,1.907,1.135h47.383C403.044,278.116,402.777,275.1,402.376,272.5Z" transform="translate(-338.704 -157.447)" fill="#ffa031"/>
          <path id="Trazado_717498" data-name="Trazado 717498" d="M403.135,232.26H363.742c-.044,2.033-.074,3.628-.074,3.947s0,1.855-.178,3.761h37.056c-.052-.438-.089-.742-.089-.927,0-1.484,1.936-4.318,2.085-4.77C402.571,234.2,402.794,233.44,403.135,232.26Z" transform="translate(-341.169 -147.06)" fill="#ffa031"/>
          <path id="Trazado_717499" data-name="Trazado 717499" d="M399.672,219.85c.742-2.567,1.528-5.3,2.226-7.7H345.813c-1.365,2.678-2.693,5.319-3.843,7.7h14.9c.883-2.181,1.543-3.872,1.543-3.872s0,1.654-.082,3.872Z" transform="translate(-335.614 -141.869)" fill="#ffa031"/>
          <path id="Trazado_717500" data-name="Trazado 717500" d="M386.209,172.73s-14.5,4.5-20.809,7.1h50.194c-7.315-2.411-20.6-5.935-20.6-5.935Z" transform="translate(-341.662 -131.693)" fill="#ffa031"/>
          <path id="Trazado_717501" data-name="Trazado 717501" d="M356.181,192c-1.15,2.226-2.545,4.852-4.021,7.7h67.39c-.4-2.8-.831-5.49-1.246-7.7Z" transform="translate(-338.245 -136.667)" fill="#ffa031"/>
          <path id="Trazado_717502" data-name="Trazado 717502" d="M428.07,212.15l2.285,7.7H441.06c-.223-1.973-.542-4.7-.92-7.7Z" transform="translate(-357.84 -141.869)" fill="#ffa031"/>
          <path id="Trazado_717503" data-name="Trazado 717503" d="M378.777,172.73s-23.087,7.151-23.688,8.643-19.748,36.945-18.413,37.991,13.947.289,14.54,0,5.809-13.554,5.809-13.554-.3,14-.3,15.037,0,8.16-2.678,13.561-4.622,15.787-4.622,16.974v1.936s15.794,10.119,27.857,8.487a135.587,135.587,0,0,0,21.6-4.77s-.445-9.229-1.64-13.554-3.709-18.316-3.709-19.808,1.936-4.318,2.085-4.77,6.855-23.68,6.855-23.68l5.66,19.066,9.681-1.484s-3.131-29.489-5.067-31.158-25.171-7.745-25.171-7.745Z" transform="translate(-334.231 -131.693)" fill="none" stroke="#263238" stroke-linecap="round" stroke-linejoin="round" stroke-width="1"/>
          <path id="Trazado_717504" data-name="Trazado 717504" d="M394.867,158.28l-3.427,12.063,4.169,13.7,8.487-12.063,3.724-6.7Z" transform="translate(-348.384 -127.962)" fill="#fff" stroke="#263238" stroke-linecap="round" stroke-linejoin="round" stroke-width="1"/>
          <path id="Trazado_717505" data-name="Trazado 717505" d="M395.009,160.71l-1.039,3.657.393,2.1a16.67,16.67,0,0,0,4.288,6.61,11.016,11.016,0,0,0,4.288,2.114l1.818-2.582,3.346-6.024Z" transform="translate(-349.038 -128.59)" fill="#263238" stroke="#263238" stroke-linecap="round" stroke-linejoin="round" stroke-width="1"/>
          <path id="Trazado_717506" data-name="Trazado 717506" d="M393.566,136.143a25.5,25.5,0,0,1-.942-6.907c-.156-4.681.786-8.954,2.359-8.16s1.254,3.294,1.254,3.294a10.6,10.6,0,0,1,9.422-6.907c7.382-.467,5.334,2.515,5.334,2.515s11.781-.942,15.861,4.08,3.294,9.889,2.226,9.889h-2.352s3.613,10.527.942,12.567-7.537-5.193-7.537-5.193-.631,2.515-1.884,3.145a15.193,15.193,0,0,1-2.359.935s-4.867-1.41-7.374-3.294-6.439-7.537-6.439-7.537-4.236,5.193-5.809,5.809a23.419,23.419,0,0,0-2.671,1.261Z" transform="translate(-348.686 -117.413)" fill="#263238" stroke="#263238" stroke-linecap="round" stroke-linejoin="round" stroke-width="1"/>
          <path id="Trazado_717507" data-name="Trazado 717507" d="M394.02,143.527s0-5.994-2.085-3.91-2.864,5.735-1.558,7.56l1.3,1.825,1.306,1.046s-1.046,4.689,0,7.56,2.864,6.773,7.3,6.254,8.16-2.574,9.971-6.224,5.646-9.444,5.646-9.444-6.514-.26-10.163-5.475-4.451-8.339-4.451-8.339S397.67,141.969,394.02,143.527Z" transform="translate(-347.945 -121.793)" fill="#fff" stroke="#263238" stroke-linecap="round" stroke-linejoin="round" stroke-width="1"/>
          <path id="Trazado_717508" data-name="Trazado 717508" d="M399.62,151.12A3.709,3.709,0,0,0,403.7,153" transform="translate(-350.496 -126.114)" fill="none" stroke="#263238" stroke-linecap="round" stroke-linejoin="round" stroke-width="1"/>
          <path id="Trazado_717509" data-name="Trazado 717509" d="M410.62,156a3.65,3.65,0,0,0,4.711,2.359" transform="translate(-353.336 -127.374)" fill="none" stroke="#263238" stroke-linecap="round" stroke-linejoin="round" stroke-width="1"/>
          <path id="Trazado_717510" data-name="Trazado 717510" d="M402.16,161.49s.467,1.729,3.45,1.105" transform="translate(-351.152 -128.791)" fill="none" stroke="#263238" stroke-linecap="round" stroke-linejoin="round" stroke-width="1"/>
          <path id="Trazado_717511" data-name="Trazado 717511" d="M399.4,162.55s.319,3.457,5.816,3.457" transform="translate(-350.439 -129.065)" fill="none" stroke="#263238" stroke-linecap="round" stroke-linejoin="round" stroke-width="1"/>
          <path id="Trazado_717512" data-name="Trazado 717512" d="M401.1,147.735a5.193,5.193,0,0,1,4.392,1.884" transform="translate(-350.878 -125.237)" fill="none" stroke="#263238" stroke-linecap="round" stroke-linejoin="round" stroke-width="1"/>
          <path id="Trazado_717513" data-name="Trazado 717513" d="M412.31,153.237s2.515-.312,4.4,2.967" transform="translate(-353.772 -126.659)" fill="none" stroke="#263238" stroke-linecap="round" stroke-linejoin="round" stroke-width="1"/>
          <path id="Trazado_717514" data-name="Trazado 717514" d="M392.151,147.24s-2.389,0-2.537,1.039a175.494,175.494,0,0,0,1.194,23.383c1.194,7.893,2.678,15.943,3.123,16.091s13.561-23.087,14.155-23.984" transform="translate(-347.901 -125.113)" fill="none" stroke="#263238" stroke-linecap="round" stroke-linejoin="round" stroke-width="1"/>
          <path id="Trazado_717515" data-name="Trazado 717515" d="M362.63,207.261l2.085,21.3,8.487-.445-1.788-21.455Z" transform="translate(-340.947 -140.451)" fill="#263238" stroke="#263238" stroke-miterlimit="10" stroke-width="1"/>
          <path id="Trazado_717516" data-name="Trazado 717516" d="M351.584,228.782l1.639-9.533,2.53-4.318.148,3.709s7.745-5.193,7.893-4.021-5.66,5.809-5.66,5.809v1.335s5.364-2.967,5.935-3.123,2.092-1.484,1.944-.148-2.092,2.53-2.834,3.123-3.872,2.537-3.872,2.537,5.935-3.279,5.935-2.226-1.484,2.389-1.936,2.834-1.936,2.53-2.826,3.576-7.152,3.272-7.152,3.272-15.03,6.246-17.679,6.855-2.878-6.1-1.091-8.331,3.472-2.545,5.853-3.138S351.584,228.782,351.584,228.782Z" transform="translate(-333.403 -142.462)" fill="#fff" stroke="#263238" stroke-miterlimit="10" stroke-width="1"/>
          <path id="Trazado_717517" data-name="Trazado 717517" d="M373.57,227.195s.89,7.3,2.967,10.72,7.745,5.067,10.423,2.389,4.184-8.657,4.036-16.076S389.8,201.89,389.8,201.89" transform="translate(-343.771 -139.22)" fill="none" stroke="#263238" stroke-linecap="round" stroke-linejoin="round" stroke-width="1"/>
          <path id="Trazado_717518" data-name="Trazado 717518" d="M352.92,406.67l.987,10.134h16.566l.5-9.889Z" transform="translate(-338.441 -192.082)" fill="#fff" stroke="#263238" stroke-linecap="round" stroke-linejoin="round" stroke-width="1"/>
          <path id="Trazado_717519" data-name="Trazado 717519" d="M398.92,408.569l1.231,8.405,17.063.252.5-9.9Z" transform="translate(-350.315 -192.253)" fill="#fff" stroke="#263238" stroke-linecap="round" stroke-linejoin="round" stroke-width="1"/>
          <path id="Trazado_717520" data-name="Trazado 717520" d="M417.41,157.1l-1.194,5.067s-6.4,3.709-6.677,5.364,14.444,37.531,15.787,39.912,2.967,6.41,7,5.512,5.66-6.677,4.318-9.385-22.2-34.126-22.2-34.126l8.346-7.6s.148-6.855-.148-8.346-.453-2.085-.453-2.085S418.3,156.212,417.41,157.1Z" transform="translate(-353.055 -126.192)" fill="#fff" stroke="#263238" stroke-linecap="round" stroke-linejoin="round" stroke-width="1"/>
          <path id="Trazado_717521" data-name="Trazado 717521" d="M421.173,157.98v6.469l-1.313,2.226" transform="translate(-355.721 -127.885)" fill="none" stroke="#263238" stroke-linecap="round" stroke-linejoin="round" stroke-width="1"/>
          <path id="Trazado_717522" data-name="Trazado 717522" d="M423.788,155.14s.2,6.862.2,7.671a4.948,4.948,0,0,1-.809,2.018" transform="translate(-356.578 -127.152)" fill="none" stroke="#263238" stroke-linecap="round" stroke-linejoin="round" stroke-width="1"/>
          <path id="Trazado_717523" data-name="Trazado 717523" d="M425.414,153.35s.6,7.782.6,8.591a2.968,2.968,0,0,1-.7,1.617" transform="translate(-357.128 -126.69)" fill="none" stroke="#263238" stroke-linecap="round" stroke-linejoin="round" stroke-width="1"/>
        </g>
        <g id="freepik--character-2--inject-2" transform="translate(84.082 66.788)">
          <path id="Trazado_717524" data-name="Trazado 717524" d="M228.84,439.33l4.266,6.246s13.991,7.715,14.533,7.893.542,1.617-.356,1.8-4.132.534-4.132.534H213.736s-.742-2.864-1.083-4.451.542-6.818.542-6.818l.178-4.666Z" transform="translate(-133.277 -175.416)" fill="#fff" stroke="#263238" stroke-linecap="round" stroke-linejoin="round" stroke-width="1"/>
          <path id="Trazado_717525" data-name="Trazado 717525" d="M170.327,253.066l.987,29.177,4.206,97.184-1.729,5.193,2.47,7.916s2.967-2.967,6.677-1.239a22.627,22.627,0,0,1,5.935,3.954,37.225,37.225,0,0,0,1.981-4.2,17.263,17.263,0,0,0,.742-5.445c0-.742,3.457-4.2,3.457-5.438s-2.967-6.432-2.967-6.432l4.7-92.235,5.438,97.428s-1.484,1.736-1.484,2.478,1.981,12.612,1.981,12.612.245.245,3.212.245,6.922-.742,8.16-1.981a7.159,7.159,0,0,1,3.709-1.484l.5-5.438-.994-3.954,3.22-59.846V261.226l.245-9.155-50.943-.742Z" transform="translate(-122.243 -126.885)" fill="#263238" stroke="#263238" stroke-linecap="round" stroke-linejoin="round" stroke-width="1"/>
          <path id="Trazado_717526" data-name="Trazado 717526" d="M168.11,152l-18.057,9.644-10.876,41.047L124.83,224.7l5.193,4.206,19.288-18.8,5.445-6.922L156.73,215.8s-3.709,8.9-1.729,10.631a16.98,16.98,0,0,0,4.7,2.723h49.46a31.679,31.679,0,0,0,.987-4.451c0-.987-1.231-9.4-1.231-9.4L209.654,198l2.715,15.334,2.478,26.952,7.419-.245,1.484-36.106-10.386-42.286-20.772-8.657Z" transform="translate(-110.627 -101.244)" fill="#fff" stroke="#263238" stroke-linecap="round" stroke-linejoin="round" stroke-width="1"/>
          <path id="Trazado_717527" data-name="Trazado 717527" d="M186.862,142.685l-3.524.371L180,149.362l2.411,15.394,11.313-7.975,11.313,8.346,3.895-15.95L204.3,142.5Z" transform="translate(-124.868 -98.792)" fill="#fff" stroke="#263238" stroke-linecap="round" stroke-linejoin="round" stroke-width="1"/>
          <path id="Trazado_717528" data-name="Trazado 717528" d="M187.556,134.935,187,144.394l9.273,11.128,8.346-11.5-.742-9.273S194.233,137.346,187.556,134.935Z" transform="translate(-126.675 -96.791)" fill="#fff" stroke="#263238" stroke-linecap="round" stroke-linejoin="round" stroke-width="1"/>
          <path id="Trazado_717529" data-name="Trazado 717529" d="M204.311,138.348l-.289-3.6s-9.644,2.6-16.321.185l-.141,2.389c1.41,2.6,4.629,7.7,8.331,8.02C199.014,145.611,202.286,141.479,204.311,138.348Z" transform="translate(-126.82 -96.791)" fill="#263238" stroke="#263238" stroke-linecap="round" stroke-linejoin="round" stroke-width="1"/>
          <path id="Trazado_717530" data-name="Trazado 717530" d="M180.749,114.256s-1.3-2.782-2.04-.556,2.226,6.862,2.226,6.862l.556-6.12Z" transform="translate(-124.504 -91.135)" fill="#fff" stroke="#263238" stroke-linecap="round" stroke-linejoin="round" stroke-width="1"/>
          <path id="Trazado_717531" data-name="Trazado 717531" d="M214.582,114.256s1.3-2.782,2.04-.556-2.226,6.862-2.226,6.862l-.556-6.12Z" transform="translate(-133.604 -91.135)" fill="#fff" stroke="#263238" stroke-linecap="round" stroke-linejoin="round" stroke-width="1"/>
          <path id="Trazado_717532" data-name="Trazado 717532" d="M203.338,109.857s.371.185.927-1.113.927-8.717.927-8.717,3.709-5.564,1.669-9.459-8.9-5.564-13.91-6.677-12.612.927-15.023,3.709-4.822,6.12-3.338,7.975a31.589,31.589,0,0,0,4.822,4.266s-.556,5.749.185,6.862l.742,1.113.927-7.6a65.548,65.548,0,0,0,10.386-2.04c3.895-1.3,5.749-1.855,5.749-1.855s1.669,3.153,2.967,4.08a9.006,9.006,0,0,1,1.855,1.669Z" transform="translate(-123.355 -83.583)" fill="#263238" stroke="#263238" stroke-linecap="round" stroke-linejoin="round" stroke-width="1"/>
          <path id="Trazado_717533" data-name="Trazado 717533" d="M182.529,102s-1.3,16.135-.185,18.546,5.749,11.313,12.983,10.571,10.015-7.975,10.386-12.241-.371-15.764-.371-15.764-3.524-1.484-3.895-2.967a20.5,20.5,0,0,1-.371-3.895S190.133,102.927,182.529,102Z" transform="translate(-125.357 -86.853)" fill="#fff" stroke="#263238" stroke-linecap="round" stroke-linejoin="round" stroke-width="1"/>
          <path id="Trazado_717534" data-name="Trazado 717534" d="M195.709,122.75a10.764,10.764,0,0,0-5.378,2.226c-2.6,2.04-4.08,2.226-4.08,2.226s3.338,4.08,8.346,4.08,8.16-2.411,8.717-4.08l.556-1.669a17.879,17.879,0,0,1-5.378-1.484,14.7,14.7,0,0,0-2.782-1.3Z" transform="translate(-126.482 -93.694)" fill="#263238" stroke="#263238" stroke-linecap="round" stroke-linejoin="round" stroke-width="1"/>
          <path id="Trazado_717535" data-name="Trazado 717535" d="M196.443,117.5s-.371,4.08,0,4.822,3.153,2.226,3.524.556a24.665,24.665,0,0,0,0-5.378" transform="translate(-129.07 -92.338)" fill="#fff" stroke="#263238" stroke-linecap="round" stroke-linejoin="round" stroke-width="1"/>
          <ellipse id="Elipse_8459" data-name="Elipse 8459" cx="1.024" cy="1.298" rx="1.024" ry="1.298" transform="translate(62.179 22.38)" fill="#263238"/>
          <ellipse id="Elipse_8460" data-name="Elipse 8460" cx="1.024" cy="1.298" rx="1.024" ry="1.298" transform="translate(73.211 22.38)" fill="#263238"/>
          <path id="Trazado_717536" data-name="Trazado 717536" d="M186.75,110.121s.927-2.967,5.564-1.3" transform="translate(-126.611 -89.967)" fill="none" stroke="#263238" stroke-linecap="round" stroke-linejoin="round" stroke-width="1"/>
          <path id="Trazado_717537" data-name="Trazado 717537" d="M201.5,108.443s2.6-2.411,5.749.742" transform="translate(-130.419 -89.773)" fill="none" stroke="#263238" stroke-linecap="round" stroke-linejoin="round" stroke-width="1"/>
          <path id="Trazado_717538" data-name="Trazado 717538" d="M159.05,183.33l3.709,27.946L155.83,191" transform="translate(-118.629 -109.332)" fill="none" stroke="#263238" stroke-linecap="round" stroke-linejoin="round" stroke-width="1"/>
          <line id="Línea_2629" data-name="Línea 2629" x2="2.47" y2="52.182" transform="translate(69.598 61.387)" fill="none" stroke="#263238" stroke-linecap="round" stroke-linejoin="round" stroke-width="1"/>
          <line id="Línea_2630" data-name="Línea 2630" y1="24.978" x2="0.245" transform="translate(99.027 71.773)" fill="none" stroke="#263238" stroke-linecap="round" stroke-linejoin="round" stroke-width="1"/>
          <line id="Línea_2631" data-name="Línea 2631" y1="6.18" x2="9.889" transform="translate(70.34 149.178)" fill="none" stroke="gray" stroke-linecap="round" stroke-linejoin="round" stroke-width="1"/>
          <path id="Trazado_717539" data-name="Trazado 717539" d="M176.874,439.439l-2.151,6.818s-5.022,8.071-4.844,8.791,19.911,0,19.911,0,1.439,0,1.261-3.049a90.151,90.151,0,0,0-1.439-9.147s-2.151-5.564-6.276-6.462S176.874,438.364,176.874,439.439Z" transform="translate(-122.255 -174.613)" fill="#fff" stroke="#263238" stroke-linecap="round" stroke-linejoin="round" stroke-width="1"/>
          <path id="Trazado_717540" data-name="Trazado 717540" d="M255.905,286.31l-1.439,9.117-.816-.408Z" transform="translate(-143.881 -135.915)" fill="none" stroke="#263238" stroke-linecap="round" stroke-linejoin="round" stroke-width="1"/>
          <path id="Trazado_717541" data-name="Trazado 717541" d="M245.579,270.928,243.88,279l.742,8.331,1.217.134.46-5.876.861,9.37,3.628.69s2.418-7.945,2.6-9.325-.386-11.6-.386-11.6Z" transform="translate(-141.359 -131.891)" fill="#fff" stroke="#263238" stroke-linecap="round" stroke-linejoin="round" stroke-width="1"/>
          <line id="Línea_2632" data-name="Línea 2632" y1="10.03" x2="1.358" transform="translate(106.787 148.933)" fill="none" stroke="#263238" stroke-linecap="round" stroke-linejoin="round" stroke-width="1"/>
          <line id="Línea_2633" data-name="Línea 2633" y1="9.629" x2="2.441" transform="translate(107.87 149.742)" fill="none" stroke="#263238" stroke-linecap="round" stroke-linejoin="round" stroke-width="1"/>
          <path id="Trazado_717542" data-name="Trazado 717542" d="M119.888,250s-5.935,2.723-7.419,3.212-1.973,2.226-3.709,3.464-3.954,2.723-2.715,3.212a5.8,5.8,0,0,0,2.715.252l2.226-2.723-3.954,8.657-.245,3.212,2.967,1.239,6.922-3.709,8.405-12.612Z" transform="translate(-105.685 -126.542)" fill="#fff" stroke="#263238" stroke-linecap="round" stroke-linejoin="round" stroke-width="1"/>
          <path id="Trazado_717543" data-name="Trazado 717543" d="M112.83,259.192s2.908,2.441,4.711,1.929,3.22-4.251,3.22-4.251" transform="translate(-107.529 -128.315)" fill="#fff" stroke="#263238" stroke-linecap="round" stroke-linejoin="round" stroke-width="1"/>
          <line id="Línea_2634" data-name="Línea 2634" y1="6.054" x2="4.125" transform="translate(1.384 135.38)" fill="#fff" stroke="#263238" stroke-linecap="round" stroke-linejoin="round" stroke-width="1"/>
          <line id="Línea_2635" data-name="Línea 2635" y1="6.825" x2="4.763" transform="translate(2.549 136.277)" fill="#fff" stroke="#263238" stroke-linecap="round" stroke-linejoin="round" stroke-width="1"/>
          <line id="Línea_2636" data-name="Línea 2636" y1="6.677" x2="5.557" transform="translate(4.069 137.308)" fill="#fff" stroke="#263238" stroke-linecap="round" stroke-linejoin="round" stroke-width="1"/>
        </g>
        <g id="freepik--character-1--inject-2" transform="translate(38.1 154.471)">
          <path id="Trazado_717544" data-name="Trazado 717544" d="M131.168,438.263a23.338,23.338,0,0,0,1.484,3.895c.742,1.3,1.855,5.749,3.338,6.491s2.04,2.967,2.04,4.451-.371,1.855-1.3,1.855H118.185s-.185-2.411-.185-4.637.371-5.749.371-6.677v-5.935a79.154,79.154,0,0,1,8.346-.556C130.612,437.15,131.168,438.263,131.168,438.263Z" transform="translate(-62.881 -262.537)" fill="#fff" stroke="#263238" stroke-linecap="round" stroke-linejoin="round" stroke-width="1"/>
          <path id="Trazado_717545" data-name="Trazado 717545" d="M89.354,437.835l-3.338,8.531s-4.266,4.08-4.266,5.749.927,2.411,1.484,2.411h18.917a16.2,16.2,0,0,0,.185-5.935c-.556-2.782-1.669-7.048-1.669-7.048l-7.419-3.895Z" transform="translate(-53.524 -262.666)" fill="#fff" stroke="#263238" stroke-linecap="round" stroke-linejoin="round" stroke-width="1"/>
          <path id="Trazado_717546" data-name="Trazado 717546" d="M87.25,337.15,90.774,402.8s-2.411,4.08-1.855,5.193a33.385,33.385,0,0,1,1.3,5.008l6.862,4.08s4.822-.742,5.008-1.484.742-4.822.927-7.419-.927-5.008-.742-7.6,4.08-52.857,4.08-52.857l1.3-.371,2.782,60.091a13.88,13.88,0,0,0-.927,2.967c-.185,1.3,1.669,3.895,1.669,3.895s0,2.226,1.113,2.6a5.753,5.753,0,0,0,4.266-1.113c.742-.742.371-2.967,2.04-3.338s5.008,1.3,5.008,1.3a49.215,49.215,0,0,0,0-5.378c-.185-1.669-2.04-4.266-2.04-4.266l2.411-48.406-.742-18.546Z" transform="translate(-54.943 -236.723)" fill="#263238" stroke="#263238" stroke-linecap="round" stroke-linejoin="round" stroke-width="1"/>
          <path id="Trazado_717547" data-name="Trazado 717547" d="M146.442,296.4l-1.484,35.609s1.484,8.531,1.484,9.088-.742,4.266-2.04,5.378a1.232,1.232,0,0,1-2.04-.371l.371-2.04-.927-4.451-1.3,5.008s-1.669.185-1.3-2.04.185-6.12.556-7.419a14.014,14.014,0,0,0,.371-3.153s-3.709-19.1-3.709-19.659S135.5,297.7,135.5,297.7Z" transform="translate(-67.399 -226.203)" fill="#fff" stroke="#263238" stroke-linecap="round" stroke-linejoin="round" stroke-width="1"/>
          <circle id="Elipse_8461" data-name="Elipse 8461" cx="14.006" cy="14.006" r="14.006" transform="translate(4.672 74.455)" fill="#fff" stroke="#263238" stroke-linecap="round" stroke-linejoin="round" stroke-width="1"/>
          <path id="Trazado_717548" data-name="Trazado 717548" d="M56.164,283.65s-6.12,7.6-6.491,8.531-6.491,21.514-5.935,23.554,2.782,6.491,3.338,7.975,6.677,4.637,8.717,4.637a7.658,7.658,0,0,0,3.709-1.595.994.994,0,0,0-.111-1.7A21.17,21.17,0,0,1,57.1,323.71c-1.3-.927-2.411-1.855-2.411-1.855s2.6,2.04,2.782.556-1.484-2.6-2.04-3.709a20.29,20.29,0,0,0-3.709-4.08l-2.226-1.484s-.742-5.935.927-8.717a14.518,14.518,0,0,1,3.887-4.266l3.709-5.564,3.524-2.967Z" transform="translate(-43.702 -222.912)" fill="#fff" stroke="#263238" stroke-linecap="round" stroke-linejoin="round" stroke-width="1"/>
          <line id="Línea_2637" data-name="Línea 2637" x1="4.822" y1="2.597" transform="translate(6.156 96.347)" fill="#fff" stroke="#263238" stroke-linecap="round" stroke-linejoin="round" stroke-width="1"/>
          <path id="Trazado_717549" data-name="Trazado 717549" d="M93.166,248.084,74.99,254.39,57,275.162l8.346,10.757L77.958,277.2l.371,38.206a75.276,75.276,0,0,0,17.8,3.709c9.644.742,20.03-3.709,20.03-3.709l1.484-26.521,12.8-3.895s-8.9-24.667-10.571-27.634-16.506-8.346-16.506-8.346S97.246,247.342,93.166,248.084Z" transform="translate(-47.135 -213.682)" fill="#ffa031" stroke="#263238" stroke-linecap="round" stroke-linejoin="round" stroke-width="1"/>
          <line id="Línea_2638" data-name="Línea 2638" y1="25.223" x2="0.556" transform="translate(70.512 49.981)" fill="#fff" stroke="#263238" stroke-linecap="round" stroke-linejoin="round" stroke-width="1"/>
          <line id="Línea_2639" data-name="Línea 2639" x1="2.04" y1="10.942" transform="translate(28.783 52.577)" fill="#fff" stroke="#263238" stroke-linecap="round" stroke-linejoin="round" stroke-width="1"/>
          <path id="Trazado_717550" data-name="Trazado 717550" d="M104.25,238.4s.556,8.16.371,9.644.742,6.677,4.451,7.233,7.233-6.12,7.6-6.677-.371-5.564-.371-5.564Z" transform="translate(-59.332 -211.231)" fill="#fff" stroke="#263238" stroke-linecap="round" stroke-linejoin="round" stroke-width="1"/>
          <path id="Trazado_717551" data-name="Trazado 717551" d="M116.78,247.747a44.032,44.032,0,0,0-.475-4.711L104.25,238.4s.074,1.091.156,2.545a15.453,15.453,0,0,0,6.922,5.193,41.807,41.807,0,0,0,5.453,1.61Z" transform="translate(-59.332 -211.231)" fill="#263238" stroke="#263238" stroke-linecap="round" stroke-linejoin="round" stroke-width="1"/>
          <path id="Trazado_717552" data-name="Trazado 717552" d="M117.511,207.989s-2.04-4.637-9.273-5.935-15.208,2.04-17.99,8.717,3.338,13.539,3.338,13.539,6.306,6.12,7.6,7.419,2.967,3.153,6.306,3.524,8.346.927,10.2,0,2.6-4.451,2.967-5.193,1.855-6.491.742-9.273a12.115,12.115,0,0,0-2.782-4.266S118.809,211.142,117.511,207.989Z" transform="translate(-55.53 -201.778)" fill="#fff" stroke="#263238" stroke-linecap="round" stroke-linejoin="round" stroke-width="1"/>
          <path id="Trazado_717553" data-name="Trazado 717553" d="M116.769,209.472a8.341,8.341,0,0,0,.905-1.046c-.052-.148-.1-.3-.163-.438,0,0-2.04-4.637-9.273-5.935s-15.208,2.04-17.99,8.717,3.338,13.539,3.338,13.539l2.159,2.114a3.012,3.012,0,0,1,.994-.987c1.3-.742,2.782,1.855,2.782,1.855a2.352,2.352,0,0,0,1.484-1.3c.556-1.113-1.855-4.637-1.855-4.637a13.153,13.153,0,0,1,2.6-3.524c1.855-1.855,5.008-7.419,5.008-7.419l.371,2.782a8.5,8.5,0,0,0,2.967-1.113c.927-.742,2.6-2.226,2.6-2.226l-.371,2.967a27.923,27.923,0,0,0,4.451-3.353Z" transform="translate(-55.53 -201.778)" fill="#263238" stroke="#263238" stroke-linecap="round" stroke-linejoin="round" stroke-width="1"/>
          <path id="Trazado_717554" data-name="Trazado 717554" d="M126.75,228.15s3.153,2.411,2.226,3.524a3.138,3.138,0,0,1-2.226,1.113" transform="translate(-65.14 -208.585)" fill="none" stroke="#263238" stroke-linecap="round" stroke-linejoin="round" stroke-width="1"/>
          <path id="Trazado_717555" data-name="Trazado 717555" d="M119.5,237.65a4.815,4.815,0,0,0,5.378.742" transform="translate(-63.268 -211.038)" fill="none" stroke="#263238" stroke-linecap="round" stroke-linejoin="round" stroke-width="1"/>
          <path id="Trazado_717556" data-name="Trazado 717556" d="M118.348,228.06c.111.7-.208,1.343-.742,1.424s-1.009-.43-1.113-1.142.208-1.343.742-1.424S118.229,227.347,118.348,228.06Z" transform="translate(-62.487 -208.265)" fill="#263238"/>
          <path id="Trazado_717557" data-name="Trazado 717557" d="M127.348,224.6c.111.7-.208,1.343-.742,1.424s-1.009-.43-1.113-1.142.208-1.343.742-1.424S127.229,223.857,127.348,224.6Z" transform="translate(-64.81 -207.372)" fill="#263238"/>
          <path id="Trazado_717558" data-name="Trazado 717558" d="M114,224.876a3.873,3.873,0,0,1,3.524-2.226" transform="translate(-61.849 -207.166)" fill="none" stroke="#263238" stroke-linecap="round" stroke-linejoin="round" stroke-width="1"/>
          <path id="Trazado_717559" data-name="Trazado 717559" d="M124.25,220.879s1.855-1.669,2.967-1.484" transform="translate(-64.495 -206.322)" fill="none" stroke="#263238" stroke-linecap="round" stroke-linejoin="round" stroke-width="1"/>
          <path id="Trazado_717560" data-name="Trazado 717560" d="M103.278,234.715s-2.411-5.193-5.008-4.822-2.782,4.451-.556,6.677a4.894,4.894,0,0,0,5.193.927" transform="translate(-57.247 -209.031)" fill="#fff" stroke="#263238" stroke-linecap="round" stroke-linejoin="round" stroke-width="1"/>
        </g>
      </g>
    </g>
  </g>
</svg>
