<svg xmlns="http://www.w3.org/2000/svg" xmlns:xlink="http://www.w3.org/1999/xlink" width="505" height="239" viewBox="0 0 505 239">
  <defs>
    <clipPath id="clip-path">
      <rect id="Rect치ngulo_347177" data-name="Rect치ngulo 347177" width="358" height="239" transform="translate(-0.001 -0.333)" fill="none"/>
    </clipPath>
  </defs>
  <g id="Grupo_1005671" data-name="Grupo 1005671" transform="translate(-180 -7383)">
    <path id="Rect치ngulo_346856" data-name="Rect치ngulo 346856" d="M0,0H324A181,181,0,0,1,505,181v10a0,0,0,0,1,0,0H0a0,0,0,0,1,0,0V0A0,0,0,0,1,0,0Z" transform="translate(180 7431)" fill="#ffa031" opacity="0.2"/>
    <g id="Grupo_1004839" data-name="Grupo 1004839" transform="translate(84.667 7265.333)">
      <g id="Grupo_1004838" data-name="Grupo 1004838" transform="translate(169.333 118)" clip-path="url(#clip-path)">
        <g id="Grupo_1004837" data-name="Grupo 1004837" transform="translate(18.28 7.269)">
          <g id="Grupo_1004754" data-name="Grupo 1004754" transform="translate(174.922 74.968)">
            <path id="Trazado_717899" data-name="Trazado 717899" d="M575.289,475.758c-.423,2.158.3,4.908,2.666,5.585a6.179,6.179,0,0,0,3.6-.338,12.042,12.042,0,0,0,3.766-1.862,6.931,6.931,0,0,0,1.777-1.735,11.046,11.046,0,0,0,.888-1.9c-.169-.127,5.078-10.325,4.95-10.494" transform="translate(-574.654 -381.608)" fill="#499096"/>
            <path id="Trazado_717900" data-name="Trazado 717900" d="M618.053,597.912c.253-2.411,3.047-26.023,3.047-27.419s20.056,1.143,28.435-.127,19.295-2.793,19.295-2.793,8,3.555,8.5,9.775,1.65,17.01,1.65,18.279S618.053,597.912,618.053,597.912Z" transform="translate(-597.066 -435.214)" fill="#66613b"/>
            <path id="Trazado_717901" data-name="Trazado 717901" d="M650.5,384.8c.38,3.808,6.221,11.3,9.775,11.3s6.283-7.616,5.4-14.344S650.5,384.8,650.5,384.8Z" transform="translate(-614.023 -336.858)" fill="#ffa387"/>
            <path id="Trazado_717902" data-name="Trazado 717902" d="M719.959,572.046a53.982,53.982,0,0,1-2.623,4.782s3.217,10.579,12.356,7.616c.846-2.2-.021-5.353-.021-5.353S726.644,570.057,719.959,572.046Z" transform="translate(-648.958 -437.402)" fill="#ff9b7d"/>
            <g id="Grupo_1004729" data-name="Grupo 1004729" transform="translate(23.771 125.491)">
              <path id="Trazado_717903" data-name="Trazado 717903" d="M623.957,557.069c-.063,1.524-.19,5.649.191,5.9s15.55,2.729,27.419,1.079,19.422-2.792,20.628-3.364.571-6.918.444-7.489C671.941,552.881,662.611,558.4,623.957,557.069Z" transform="translate(-623.885 -553.184)" fill="#4f3d35" fill-rule="evenodd"/>
            </g>
            <path id="Trazado_717904" data-name="Trazado 717904" d="M664.724,560.132c.133,1.763.729,7.837,1,7.967s9.819-.13,13.334-1.371c.995-1.5-.53-7.575-.53-7.575s-2.256-.2-2.389.261.663,6.009.332,6.27-8.16.915-8.558.979-.929-6.792-.929-6.792Z" transform="translate(-621.459 -430.791)" fill="#db8363" fill-rule="evenodd"/>
            <path id="Trazado_717905" data-name="Trazado 717905" d="M648.269,560.749c-.169,1.861-.254,8.039-.254,8.039s2.116.593,2.285-.084-.254-7.955-.254-7.955Z" transform="translate(-612.726 -431.647)" fill="#66613b"/>
            <path id="Trazado_717906" data-name="Trazado 717906" d="M705.457,556.207c.17,1.184.338,8.293.592,8.209s2.031-.085,2.116-.423-.254-8.209-.254-8.209Z" transform="translate(-642.749 -429.052)" fill="#66613b"/>
            <path id="Trazado_717907" data-name="Trazado 717907" d="M580.728,404.539c2.285-4.951,3.3-12.568,9.266-14.6s14.345-3.175,17.391-2.793,2.666.762,3.174,1.523,1.9,3.046,4.063,3.808,3.05.158,3.808,2.952c.6,2.221.539,2.539.952,2.792.762-.381-.317-2.7,2.1-3.84a7.266,7.266,0,0,0,4.189-6.854c.381-1.523,4.569-.507,4.95,1.523l.127,1.143c2.158.761,7.235,1.015,10.789,5.331s6.982,10.409,8.251,23.23A107.3,107.3,0,0,0,656,447.064c2.92,8.252,8.632,27.292,2.158,31.1-1.015,3.936-2.031,6.728-2.665,6.348s-1.778-9.013-10.409-9.14c.381-2.792,1.229-4.247.721-8.944-8.759,2.412-8.719,2.979-26.744,4.121-5.106.324-18.787.634-20.437.127s-6.474-.889-6.347-8.124,3.279-38.675,2.454-39.182c-8.632,3.385-20.141,1.313-20.648-.084Z" transform="translate(-574.085 -340.727)" fill="#499096"/>
            <path id="Trazado_717908" data-name="Trazado 717908" d="M642.12,316.5a11.739,11.739,0,0,0-3.894,10.536c.635,4.7,1.355,10.917,1.609,12.187s19.3,3.427,20.057-2.412c4.443,1.523,5.331-5.078,2.411-6.6a73,73,0,0,1-2.666-10.663S646.944,313.069,642.12,316.5Z" transform="translate(-607.55 -303.461)" fill="#ffa387"/>
            <path id="Trazado_717909" data-name="Trazado 717909" d="M635.442,319.271c-.678,1.947-.509,5.586-.678,10.579s2.149,8.465,7,9.519c7.3,1.587,14.035,1.136,15.106-5.649a36.991,36.991,0,0,0-.275-14.28s.931-2.031,2.031-2.031,1-1.853,1.206-2.984c.381-2.094.444-4.422,1.46-4.76s3.852-.889,3.767-4.274-2.285-3.13-3.47-3.723.676-3.3-.762-5.077-3.3-.762-5.332-.593-.423-1.946-.93-3.808-3.893-3.215-8.039.169-5.67,2.792-8.209,2.877-4.486,3.3-3.893,5.839-.931,3.553-2.116,5.077-.634,5.522,2.412,5.861c.508-2.285.8-5.861,4.7-8.4,2.878,3.047,7.681,4.422,9.711,2.813s2.03-1.894,3.152-.359c.4.55,1.228,1.608,2.243,1.692-.571,6.221,1.4,6,1.016,10.727-1.27.635-1.968,1.269-3.343,4.337-.493,1.1-1.015-.592-2.878-1.692s-3.638-2.623-6.6-.762-3.3,2.962-4.232,2.37S636.119,319.187,635.442,319.271Z" transform="translate(-604.214 -290.284)" fill="#db6844"/>
            <path id="Trazado_717910" data-name="Trazado 717910" d="M667.6,340.383c-1.139-.186-1.729,1.9-.288,2.19C668.885,342.891,668.763,340.574,667.6,340.383Z" transform="translate(-622.366 -316.463)"/>
            <path id="Trazado_717911" data-name="Trazado 717911" d="M648.319,341.115c-1.14-.187-1.73,1.9-.289,2.19C649.6,343.623,649.482,341.305,648.319,341.115Z" transform="translate(-612.289 -316.846)"/>
            <g id="Grupo_1004730" data-name="Grupo 1004730" transform="translate(38.481 24.323)">
              <path id="Trazado_717912" data-name="Trazado 717912" d="M655.806,341.41c-.226.793-.485,1.576-.727,2.364a4.915,4.915,0,0,0-.366,1.881c.109.906,1.842,1,2.465.944.3-.029.307-.506,0-.477a4.048,4.048,0,0,1-1.53-.207c-.764-.218-.311-1.247-.207-1.681.217-.911.569-1.8.826-2.7a.239.239,0,0,0-.461-.126Z" transform="translate(-654.701 -341.241)"/>
            </g>
            <g id="Grupo_1004731" data-name="Grupo 1004731" transform="translate(37.852 31.71)">
              <path id="Trazado_717913" data-name="Trazado 717913" d="M653.783,358.074a19.9,19.9,0,0,1,3.235-.754,4.418,4.418,0,0,1,.778-.126c.887-.074.845.926.883,1.411a3.979,3.979,0,0,1-.322,1.947,2.278,2.278,0,0,1-3.18,1.07c-1.211-.692-1.166-2.527-1.315-3.714-.038-.3-.516-.305-.477,0,.2,1.59.224,3.368,1.781,4.257,1.251.715,2.7-.086,3.454-1.114a3.9,3.9,0,0,0,.074-4.042c-.343-.419-1.085-.288-1.531-.21a17.565,17.565,0,0,0-3.508.815c-.282.113-.159.575.127.46Z" transform="translate(-653.383 -356.716)"/>
            </g>
            <g id="Grupo_1004732" data-name="Grupo 1004732" transform="translate(38.569 34.313)">
              <path id="Trazado_717914" data-name="Trazado 717914" d="M655.228,363.883a7.949,7.949,0,0,1,4.386-1.237.239.239,0,0,0,0-.477,8.275,8.275,0,0,0-4.626,1.3c-.243.183-.006.6.241.412Z" transform="translate(-654.886 -362.169)"/>
            </g>
            <path id="Trazado_717915" data-name="Trazado 717915" d="M643.173,330.461c-.431.229-.77.627-1.208.847-.721.364-.79-.51-.7-.985a3.468,3.468,0,0,1,.771-1.551,2.52,2.52,0,0,1,1.555-.919,3.292,3.292,0,0,1,2.313.376c1.045.889-.658,1.321-1.285,1.581C644.133,330.012,643.643,330.212,643.173,330.461Z" transform="translate(-609.182 -309.898)" fill="#db6844"/>
            <path id="Trazado_717916" data-name="Trazado 717916" d="M665,329.4a14.111,14.111,0,0,1,2.927.826c.285.127.857.38,1.015-.063.436-1.418-1.473-2.629-2.629-2.8-.855-.128-2.106-.028-2.569.868-.31.6,0,.9.583,1.029C664.549,329.311,664.774,329.357,665,329.4Z" transform="translate(-620.882 -309.641)" fill="#db6844"/>
            <g id="Grupo_1004733" data-name="Grupo 1004733" transform="translate(33.066 12.577)">
              <path id="Trazado_717917" data-name="Trazado 717917" d="M643.655,317.193c1.045-.248,2.839,1.163,3.737,1.768a12.418,12.418,0,0,0,3.191,1.831,6,6,0,0,0,5.512-.824c.474-.392,1.061-1.285,1.672-.369a5.311,5.311,0,0,0,.957,1.054,4.082,4.082,0,0,0,2.415,1.08c1.5.095,3.179-1.017,3.128-2.611-.01-.307-.487-.308-.477,0,.042,1.33-1.223,2-2.385,2.127-1.277.141-2.537-.928-3.226-1.891-.2-.273-.557-.953-1-.847-.8.19-1.225,1.02-1.884,1.469-2.026,1.381-4.968.458-6.767-.8-.988-.688-2.132-1.252-3.05-2.02a1.847,1.847,0,0,0-1.946-.431c-.3.071-.172.532.127.46Z" transform="translate(-643.357 -316.631)"/>
            </g>
            <g id="Grupo_1004734" data-name="Grupo 1004734" transform="translate(31.328 46.64)">
              <path id="Trazado_717918" data-name="Trazado 717918" d="M639.871,388.156c-.627,1.672.783,3.344,1.651,4.682,1.217,1.877,2.423,3.759,3.705,5.592.623.892,1.659,2.071,2.874,1.395,1.539-.856,2.114-2.989,3.806-3.506.294-.09.169-.551-.126-.461a4.266,4.266,0,0,0-2.15,1.835c-.587.807-1.406,2.015-2.611,1.783-.826-.159-1.426-1.35-1.86-1.974-.956-1.375-1.836-2.8-2.757-4.194-.86-1.306-2.685-3.391-2.071-5.026.108-.289-.353-.412-.461-.127Z" transform="translate(-639.715 -387.994)"/>
            </g>
            <g id="Grupo_1004735" data-name="Grupo 1004735" transform="translate(20.696 48.587)">
              <path id="Trazado_717919" data-name="Trazado 717919" d="M617.465,392.438a29.181,29.181,0,0,1,1.48,5.945,36.521,36.521,0,0,1,.518,7.137.239.239,0,0,0,.477,0,42.4,42.4,0,0,0-.461-6.847,27.523,27.523,0,0,0-1.6-6.475c-.123-.282-.534-.039-.412.241Z" transform="translate(-617.442 -392.073)"/>
            </g>
            <g id="Grupo_1004736" data-name="Grupo 1004736" transform="translate(44.879 57.152)">
              <path id="Trazado_717920" data-name="Trazado 717920" d="M668.211,410.472a12.063,12.063,0,0,0,2.088,1.1c.973.408.75,2.374.777,3.261.01.307.487.308.477,0-.019-.628-.045-1.26-.082-1.888-.019-.319.075-1.034-.178-1.327-.289-.336-.7-.408-1.064-.654-.556-.375-1.228-.526-1.778-.907-.253-.176-.492.238-.241.412Z" transform="translate(-668.105 -410.017)"/>
            </g>
            <g id="Grupo_1004737" data-name="Grupo 1004737" transform="translate(46.705 49.237)">
              <path id="Trazado_717921" data-name="Trazado 717921" d="M672.379,400.576c.555-.931,1.289-2.168,2.481-1.157a20.389,20.389,0,0,1,1.783,1.477c.551.584,1.36,1.332,2.175.691a6.746,6.746,0,0,0,1.933-3.152,17.473,17.473,0,0,0,1.054-4.77c.016-.308-.462-.306-.477,0a18.65,18.65,0,0,1-1.037,4.643,7.927,7.927,0,0,1-1.349,2.52c-.88,1.111-1.869-.2-2.462-.768-.557-.529-1.665-1.664-2.486-1.664-.987,0-1.6,1.225-2.026,1.94a.239.239,0,0,0,.412.241Z" transform="translate(-671.931 -393.434)"/>
            </g>
            <g id="Grupo_1004738" data-name="Grupo 1004738" transform="translate(49.166 73.987)">
              <path id="Trazado_717922" data-name="Trazado 717922" d="M677.62,445.456a25.187,25.187,0,0,0-.391,6.223,49.336,49.336,0,0,0,0,6.885c.307,2.263.892,4.489,1.316,6.732a37.173,37.173,0,0,1,.718,7.3c-.014,2.329-.19,4.635-.03,6.963.159,2.286.159,4.56.159,6.851,0,3.98,1.345,8.783-1.707,12.005-.211.223.126.561.338.338,2.63-2.776,2.136-6.528,1.9-10.038-.147-2.181-.033-4.382-.058-6.567-.028-2.484-.275-4.921-.185-7.413a37.719,37.719,0,0,0-.106-6.563c-.338-2.4-.9-4.805-1.424-7.171a31.04,31.04,0,0,1-.47-7.951c.079-2.476-.221-5.041.405-7.464a.239.239,0,0,0-.461-.126Z" transform="translate(-677.086 -445.286)"/>
            </g>
            <g id="Grupo_1004739" data-name="Grupo 1004739" transform="translate(67.542 76.785)">
              <path id="Trazado_717923" data-name="Trazado 717923" d="M716.774,451.375c-.2,2.117-.658,4.191-.931,6.3a41.719,41.719,0,0,0-.234,6.391,59.077,59.077,0,0,0,1.643,12.238c.969,4.071,2.646,7.985,2.927,12.2.136,2.038.277,4.054.277,6.1a10.2,10.2,0,0,1-.487,3.38,8.153,8.153,0,0,0-.528,2.142c-.02.308.457.306.477,0a14.983,14.983,0,0,1,.742-2.792,10.757,10.757,0,0,0,.273-2.73c0-2.048-.192-4.055-.277-6.1-.163-3.941-1.758-7.666-2.727-11.443a59.9,59.9,0,0,1-1.843-12.993,39.165,39.165,0,0,1,.289-6.77c.28-1.976.685-3.929.876-5.918.029-.306-.449-.3-.477,0Z" transform="translate(-715.584 -451.146)"/>
            </g>
            <g id="Grupo_1004740" data-name="Grupo 1004740" transform="translate(72.883 128.961)">
              <path id="Trazado_717924" data-name="Trazado 717924" d="M727.071,560.994c1.847-.436,4.021,1.3,5.483,2.216a11.749,11.749,0,0,1,2.324,2.123,11.468,11.468,0,0,1,1.994,2.576c.135.277.547.035.412-.241a13.843,13.843,0,0,0-4.824-5.079c-1.51-.945-3.61-2.505-5.516-2.056-.3.071-.172.531.127.461Z" transform="translate(-726.773 -560.454)"/>
            </g>
            <g id="Grupo_1004741" data-name="Grupo 1004741" transform="translate(72.285 106.772)">
              <path id="Trazado_717925" data-name="Trazado 717925" d="M725.99,523.414a19.583,19.583,0,0,1,2.46-4.849,23.573,23.573,0,0,1,3.065-4.185c.214-.221-.123-.559-.337-.337a24.418,24.418,0,0,0-3.139,4.282,19.937,19.937,0,0,0-2.508,4.963.239.239,0,0,0,.461.127Z" transform="translate(-725.519 -513.969)"/>
            </g>
            <g id="Grupo_1004742" data-name="Grupo 1004742" transform="translate(73.129 107.538)">
              <path id="Trazado_717926" data-name="Trazado 717926" d="M727.761,520.275a25.407,25.407,0,0,1,2.43-4.344c.15-.269-.263-.51-.412-.241a25.837,25.837,0,0,0-2.478,4.458c-.093.294.367.419.461.127Z" transform="translate(-727.288 -515.573)"/>
            </g>
            <g id="Grupo_1004743" data-name="Grupo 1004743" transform="translate(44.988 59.936)">
              <path id="Trazado_717927" data-name="Trazado 717927" d="M669.08,417.361a.769.769,0,0,1-.182-.936c.175-.317.635.1.741.287a.732.732,0,0,1-.021.693c-.153.274-.461.248-.707.124-.274-.138-.516.274-.24.412a.988.988,0,0,0,1.332-.252,1.2,1.2,0,0,0-.045-1.361c-.32-.429-1.067-.726-1.436-.194a1.233,1.233,0,0,0,.319,1.639c.251.179.489-.235.241-.412Z" transform="translate(-668.333 -415.849)"/>
            </g>
            <g id="Grupo_1004744" data-name="Grupo 1004744" transform="translate(45.882 79.94)">
              <path id="Trazado_717928" data-name="Trazado 717928" d="M670.991,459.575c-.192-.366-.41-.634-.177-1.041a.524.524,0,0,1,.849-.139.769.769,0,0,1,.248.8c-.1.336-.767.346-1.041.352a.239.239,0,0,0,0,.477c.518-.01,1.247-.081,1.471-.629a1.231,1.231,0,0,0-.4-1.386.971.971,0,0,0-1.389.094,1.193,1.193,0,0,0-.341.751,2.3,2.3,0,0,0,.372.966c.143.273.555.031.412-.241Z" transform="translate(-670.206 -457.756)"/>
            </g>
            <g id="Grupo_1004745" data-name="Grupo 1004745" transform="translate(46.972 95.122)">
              <path id="Trazado_717929" data-name="Trazado 717929" d="M673.2,491.6a1.118,1.118,0,0,1,.164-1.515c.361-.25.659.382.72.635a.486.486,0,0,1-.373.628c-.224.078-.551.081-.563-.22s-.49-.308-.477,0c.023.6.54.813,1.07.707a1.2,1.2,0,0,0,.65-.377.956.956,0,0,0,.154-.864c-.108-.567-.68-1.24-1.313-.973a1.37,1.37,0,0,0-.668.875,1.535,1.535,0,0,0,.224,1.345c.163.26.577.021.412-.241Z" transform="translate(-672.491 -489.562)"/>
            </g>
            <g id="Grupo_1004746" data-name="Grupo 1004746" transform="translate(46.922 112.582)">
              <path id="Trazado_717930" data-name="Trazado 717930" d="M673.061,527.645a.733.733,0,0,1-.124-.793.577.577,0,0,1,.48-.235.629.629,0,0,1,.685.608.882.882,0,0,1-.412.773c-.335.208-.63-.078-.8-.353s-.574-.022-.412.241a1.073,1.073,0,0,0,1.413.547,1.341,1.341,0,0,0,.671-1.369,1.115,1.115,0,0,0-1.327-.9,1,1,0,0,0-.736.5,1.175,1.175,0,0,0,.149,1.225c.166.258.579.019.412-.241Z" transform="translate(-672.385 -526.14)"/>
            </g>
            <g id="Grupo_1004747" data-name="Grupo 1004747" transform="translate(22.52 137.079)">
              <path id="Trazado_717931" data-name="Trazado 717931" d="M621.388,593.7c3.022,1.368,5.974-1.315,7.435-3.767a12.14,12.14,0,0,0,1.42-5.316,62.711,62.711,0,0,0-.054-6.928c-.011-.306-.488-.308-.477,0,.125,3.374.444,7.031-.556,10.3-.864,2.823-4.217,6.8-7.527,5.3-.278-.126-.521.285-.241.412Z" transform="translate(-621.264 -577.461)"/>
            </g>
            <g id="Grupo_1004748" data-name="Grupo 1004748" transform="translate(31.149 137.331)">
              <path id="Trazado_717932" data-name="Trazado 717932" d="M640.5,578.286a20.378,20.378,0,0,1,.53,6.325,21.5,21.5,0,0,1-1.673,6.686c-.111.288.351.411.461.127a24.7,24.7,0,0,0,1.652-6.375,19.236,19.236,0,0,0-.509-6.89.239.239,0,0,0-.461.126Z" transform="translate(-639.341 -577.989)"/>
            </g>
            <g id="Grupo_1004749" data-name="Grupo 1004749" transform="translate(66.954 135.177)">
              <path id="Trazado_717933" data-name="Trazado 717933" d="M714.353,573.705a17.023,17.023,0,0,0,1.723,5.093,14.734,14.734,0,0,0,3.318,5.043A9.242,9.242,0,0,0,724,585.873a5.577,5.577,0,0,0,4.422-.536c.247-.179.009-.593-.241-.412-1.31.947-2.934.7-4.425.418a8.514,8.514,0,0,1-4.574-2.373,14.011,14.011,0,0,1-2.519-4.02,16.866,16.866,0,0,1-1.832-5.243c-.029-.3-.506-.306-.477,0Z" transform="translate(-714.351 -573.476)"/>
            </g>
            <g id="Grupo_1004750" data-name="Grupo 1004750" transform="translate(65.874 137.332)">
              <path id="Trazado_717934" data-name="Trazado 717934" d="M712.1,578.287a19.932,19.932,0,0,0,4.061,8.356,8.947,8.947,0,0,0,3.313,2.015,10.06,10.06,0,0,0,4.789,1.038c.3-.027.307-.5,0-.477A10.824,10.824,0,0,1,716.23,586c-2-2.259-2.875-5.005-3.669-7.842a.239.239,0,0,0-.461.127Z" transform="translate(-712.09 -577.991)"/>
            </g>
            <g id="Grupo_1004751" data-name="Grupo 1004751" transform="translate(48.728 137.46)">
              <path id="Trazado_717935" data-name="Trazado 717935" d="M676.18,578.49c-.133,4.506.964,8.944,1.231,13.424.063,1.053-.457,2.682.785,3.182,1.02.411,2.893-1,3.533-1.648.216-.22-.121-.557-.337-.338a7.59,7.59,0,0,1-1.65,1.127c-1.047.612-1.89.074-1.872-1.117a33.6,33.6,0,0,0-.35-4.784,63.9,63.9,0,0,1-.862-9.846.239.239,0,0,0-.477,0Z" transform="translate(-676.169 -578.259)"/>
            </g>
            <g id="Grupo_1004752" data-name="Grupo 1004752" transform="translate(53.816 138.095)">
              <path id="Trazado_717936" data-name="Trazado 717936" d="M686.829,579.819c.056,4.508.963,9.065.508,13.582-.031.307.446.3.477,0,.455-4.516-.452-9.074-.508-13.582a.239.239,0,0,0-.477,0Z" transform="translate(-686.829 -579.589)"/>
            </g>
            <g id="Grupo_1004753" data-name="Grupo 1004753" transform="translate(41.309 84.525)">
              <path id="Trazado_717937" data-name="Trazado 717937" d="M661.037,474.236c1.7-1.592,4.081-2.411,6.189-3.321,2.371-1.023,4.759-2.006,7.091-3.116.278-.132.036-.543-.241-.412-2.333,1.11-4.718,2.1-7.091,3.115-2.157.925-4.547,1.769-6.286,3.4-.225.21.113.547.337.337Z" transform="translate(-660.625 -467.362)"/>
            </g>
          </g>
          <g id="Grupo_1004772" data-name="Grupo 1004772" transform="translate(121.216 81.357)">
            <path id="Trazado_717938" data-name="Trazado 717938" d="M573.815,581.177c-.085,2.877-.254,13.834.507,14.64a4.9,4.9,0,0,0,3.215,1.609c1.185,0,4.571-1.44,5.5-6.686s-1.016-5.416-1.608-7.7a47.786,47.786,0,0,1-.931-4.739l-6.77.169Z" transform="translate(-520.194 -447.209)" fill="#ff9b7d"/>
            <path id="Trazado_717939" data-name="Trazado 717939" d="M574.9,578.57a23.384,23.384,0,0,1,6.982,1.332c.571.127.19-2.031.063-3.046s-6.133-4.112-6.959-2.906S574.9,578.57,574.9,578.57Z" transform="translate(-520.648 -444.792)" fill="#d0d4d6"/>
            <g id="Grupo_1004755" data-name="Grupo 1004755" transform="translate(54.275 138.238)">
              <path id="Trazado_717940" data-name="Trazado 717940" d="M575.281,593.573c.362,2.079.491,4.1,1.043,6.151.284,1.058.516,2.372,1.519,3,.927.585,1.792-.642,2.027-1.366.619-1.907-.938-3.728-.13-5.694.117-.285-.345-.408-.461-.127a5.169,5.169,0,0,0-.063,3.3,7.986,7.986,0,0,1,.269,1.833,1.736,1.736,0,0,1-1,1.674c-.494.2-.868-.458-1.048-.765a13.494,13.494,0,0,1-1.072-3.628c-.352-1.488-.365-3.01-.625-4.509-.053-.3-.513-.174-.461.126Z" transform="translate(-575.277 -593.273)"/>
            </g>
            <g id="Grupo_1004756" data-name="Grupo 1004756" transform="translate(55.977 147.195)">
              <path id="Trazado_717941" data-name="Trazado 717941" d="M579.845,614.79c-.889-.529-.4-1.738-.326-2.523.031-.306-.447-.3-.477,0s-.145.567-.176.866a3.7,3.7,0,0,0,.01.874,1.524,1.524,0,0,0,.73,1.195.239.239,0,0,0,.241-.412Z" transform="translate(-578.843 -612.038)"/>
            </g>
            <path id="Trazado_717942" data-name="Trazado 717942" d="M468.508,575.058l50.607.508s-.846-17.6-2.2-24.542-8.124-18.279-8.97-17.941-32.158,22.172-41.3,22.68C467.493,564.056,468.508,575.058,468.508,575.058Z" transform="translate(-464.225 -423.572)" fill="#123042"/>
            <path id="Trazado_717943" data-name="Trazado 717943" d="M496.944,356.916a107.249,107.249,0,0,0-.815-14.821c-4.079.681-5.948-5.594-4.35-7.749,1.948-2.629,4.079,1.043,4.079,1.043.951-.136-.137-9.2,3.4-12.056a14.558,14.558,0,0,1,15.228-1.36c5.71,2.719,6.118,6.39,5.846,9.654s-1.5,2.719-1.088,8.158-2.719,10.6-8.022,11.964c.137,4.215.7,9.676.3,10.9S502.111,362.9,496.944,356.916Z" transform="translate(-477.063 -312.442)" fill="#ff9b7d"/>
            <path id="Trazado_717944" data-name="Trazado 717944" d="M493.5,324.893c1.087-.543,3.127.545,3.331,2.243s.884,1.428,1.9,1.292.544-3.2.34-4.011a3.009,3.009,0,0,1,1.564-2.719c.951-.476,2.107-.476,1.223-3.943s-1.088-3.128.339-4.283,8.634-2.787,13.393-.068,4.441,4.351,6.821,3.331,3.376-4.351.725-5.71-3.331-1.5-2.175-2.855,1.427-4.759-1.9-4.486-9.381,3.058-11.964,2.651-6.866-1.292-7.478,4.758C495.338,311.909,492.211,312.045,493.5,324.893Z" transform="translate(-478.108 -303.669)" fill="#944a2f" fill-rule="evenodd"/>
            <path id="Trazado_717945" data-name="Trazado 717945" d="M524.922,345.345c-1.032-.2-1.712,2.1-.407,2.413C525.941,348.1,525.976,345.548,524.922,345.345Z" transform="translate(-494.096 -325.445)"/>
            <path id="Trazado_717946" data-name="Trazado 717946" d="M543.578,347.124c-1.032-.2-1.711,2.1-.407,2.413C544.6,349.877,544.632,347.327,543.578,347.124Z" transform="translate(-503.846 -326.375)"/>
            <path id="Trazado_717947" data-name="Trazado 717947" d="M518.7,334.733a3.657,3.657,0,0,1,3.852-3.217c2.42.1,3.373,1.989,2.164,2.078a7.987,7.987,0,0,0-4.473.984C518.64,335.415,518.92,335.172,518.7,334.733Z" transform="translate(-491.432 -318.222)" fill="#944a2f" fill-rule="evenodd"/>
            <path id="Trazado_717948" data-name="Trazado 717948" d="M541.677,335.185c.034.442,1.495.271,2.583,1.257s1.326,1.733,1.564,1.326a3.38,3.38,0,0,0-1.428-3.433A1.788,1.788,0,0,0,541.677,335.185Z" transform="translate(-503.441 -319.534)" fill="#944a2f" fill-rule="evenodd"/>
            <g id="Grupo_1004757" data-name="Grupo 1004757" transform="translate(35.084 17.018)">
              <path id="Trazado_717949" data-name="Trazado 717949" d="M535.981,339.552c-.069,1.645-.464,3.689.123,5.26a2.492,2.492,0,0,0,.875,1.074c1.766,1.247-.594,2.54-1.742,2.92-.291.1-.166.557.127.46.72-.238,3.73-1.731,2.818-2.952-.715-.958-1.726-1.2-1.822-2.6a37.755,37.755,0,0,1,.1-4.157c.013-.308-.464-.306-.477,0Z" transform="translate(-535.073 -339.321)"/>
            </g>
            <g id="Grupo_1004758" data-name="Grupo 1004758" transform="translate(31.233 27.451)">
              <path id="Trazado_717950" data-name="Trazado 717950" d="M527.158,361.616a6.1,6.1,0,0,0,2.461.478c1.128.066,2.2.348,3.3.473l-.206-.359c-.5,1.166-1.133,2.807-2.172,3.6-1,.77-2.02-.851-2.382-1.5a6.209,6.209,0,0,1-.677-2.831.239.239,0,0,0-.477,0c.017,1.479.727,4.495,2.531,4.9,1.97.442,3.005-2.561,3.59-3.929a.243.243,0,0,0-.206-.359c-.712-.08-1.4-.3-2.125-.382a10,10,0,0,1-3.4-.5c-.275-.135-.517.277-.241.412Z" transform="translate(-527.006 -361.177)"/>
            </g>
            <g id="Grupo_1004759" data-name="Grupo 1004759" transform="translate(31.687 29.385)">
              <path id="Trazado_717951" data-name="Trazado 717951" d="M528.182,365.737a3.852,3.852,0,0,1,2.215.438c.587.291.719.91,1.081,1.381.185.242.6,0,.412-.24s-.252-.56-.445-.8a3.6,3.6,0,0,0-.807-.757,3.85,3.85,0,0,0-2.456-.5c-.3.04-.3.518,0,.477Z" transform="translate(-527.956 -365.229)"/>
            </g>
            <g id="Grupo_1004760" data-name="Grupo 1004760" transform="translate(23.287 31.416)">
              <path id="Trazado_717952" data-name="Trazado 717952" d="M510.383,369.848c.989,2.082,2,4.473,3.949,5.848a9.634,9.634,0,0,0,7.1,2.012c.3-.056.174-.516-.127-.461-2.449.45-5.087-.686-7.008-2.181-1.685-1.312-2.608-3.584-3.5-5.459-.132-.279-.544-.036-.412.241Z" transform="translate(-510.358 -369.484)"/>
            </g>
            <g id="Grupo_1004761" data-name="Grupo 1004761" transform="translate(18.087 28.46)">
              <path id="Trazado_717953" data-name="Trazado 717953" d="M499.7,364.691a2.059,2.059,0,0,0,1.051-.236,5.4,5.4,0,0,0,.839-.759c.227-.209-.112-.546-.337-.337s-.414.418-.637.61a1.381,1.381,0,0,1-.916.246.239.239,0,0,0,0,.477Z" transform="translate(-499.465 -363.292)"/>
            </g>
            <path id="Trazado_717954" data-name="Trazado 717954" d="M463.487,490.788c5.416,4.739,17.942,6.6,23.7,6.094s13.752-1.016,18.49-19.973c5.189,19.327,7.912,18.788,9.267,18.788s1.133-7.655,1.133-7.655a14.024,14.024,0,0,1,7.2,1.909c1.016-2.2-.824-13.719-2.009-18.627s-4.061-11.509-4.907-22.68-3.134-23.792-6.688-29.378-9.894-12.938-10.74-12.769c-.063.571.27,5.578-.239,6.762s-34.526-.329-35.373,3.395S459.764,472.508,463.487,490.788Z" transform="translate(-461.573 -357.412)" fill="#215e75"/>
            <g id="Grupo_1004762" data-name="Grupo 1004762" transform="translate(7.672 87.108)">
              <path id="Trazado_717955" data-name="Trazado 717955" d="M477.7,489.6c2.556,3.039,5.72,6.187,10.005,5.864a14.816,14.816,0,0,0,6.255-2.349,60.911,60.911,0,0,0,8.62-6.562c.233-.2-.106-.538-.337-.337a67.833,67.833,0,0,1-8,6.164,15.7,15.7,0,0,1-6.339,2.587c-4.207.516-7.393-2.76-9.869-5.7-.2-.236-.534.1-.337.337Z" transform="translate(-477.645 -486.157)"/>
            </g>
            <path id="Trazado_717956" data-name="Trazado 717956" d="M494.5,390.4c0-.635,3.463-5.643,4-4.981,4.146,5.078,7.88,10.184,14.367,11.155,1.087-.612.128-6.81.256-7.828,1.358.679,5.575,10.716,3.37,13.388C515.591,403.129,496.222,398.645,494.5,390.4Z" transform="translate(-478.783 -346.363)" fill="#d0d4d6"/>
            <g id="Grupo_1004763" data-name="Grupo 1004763" transform="translate(33.657 50.873)">
              <path id="Trazado_717957" data-name="Trazado 717957" d="M532.56,412.754a4.1,4.1,0,0,1,.445-2.147l-.326.086a3.952,3.952,0,0,1,1.163,1.537,8.3,8.3,0,0,0,.818,1.647c.2.237.533-.1.337-.337a11.472,11.472,0,0,1-.9-1.857,3.907,3.907,0,0,0-1.173-1.4.241.241,0,0,0-.326.086,4.561,4.561,0,0,0-.51,2.388.239.239,0,0,0,.477,0Z" transform="translate(-532.083 -410.246)"/>
            </g>
            <path id="Trazado_717958" data-name="Trazado 717958" d="M541.286,473.78c.761,2.031,3.7,8.928,3.957,10.282,1.184-2.454,2.454-9.881,1.777-12.758S541.286,473.78,541.286,473.78Z" transform="translate(-503.236 -390.842)" fill="#d0d4d6"/>
            <g id="Grupo_1004764" data-name="Grupo 1004764" transform="translate(41.251 85.621)">
              <path id="Trazado_717959" data-name="Trazado 717959" d="M550.231,483.216c-.377,2.247-.872,4.473-1.337,6.7a30.159,30.159,0,0,0-.888,4.933,52.882,52.882,0,0,0,.626,7.652c.582,5.215,1.261,10.423,1.98,15.621.042.3.5.174.461-.127-.7-5.077-1.361-10.162-1.937-15.254a69.417,69.417,0,0,1-.657-7.71,23.771,23.771,0,0,1,.806-4.655c.484-2.341,1.011-4.677,1.407-7.035.05-.3-.41-.43-.461-.127Z" transform="translate(-547.993 -483.043)"/>
            </g>
            <g id="Grupo_1004765" data-name="Grupo 1004765" transform="translate(42.647 83.337)">
              <path id="Trazado_717960" data-name="Trazado 717960" d="M554.933,478.429a28.3,28.3,0,0,1-1.657,5.6c-.729,1.651-1.681,3.186-2.342,4.87-.112.286.349.41.461.126.695-1.771,1.693-3.4,2.462-5.135a27.143,27.143,0,0,0,1.537-5.338c.063-.3-.4-.428-.461-.127Z" transform="translate(-550.917 -478.257)"/>
            </g>
            <g id="Grupo_1004766" data-name="Grupo 1004766" transform="translate(32.444 82.439)">
              <path id="Trazado_717961" data-name="Trazado 717961" d="M529.654,476.826c1.858,1.189,3.166,3.5,4.375,5.284,1.318,1.94,2.549,3.939,3.79,5.928.163.26.576.021.412-.241-1.352-2.168-2.7-4.338-4.143-6.446-1.154-1.685-2.433-3.811-4.193-4.938-.26-.167-.5.247-.241.412Z" transform="translate(-529.542 -476.376)"/>
            </g>
            <g id="Grupo_1004767" data-name="Grupo 1004767" transform="translate(48.148 85.37)">
              <path id="Trazado_717962" data-name="Trazado 717962" d="M562.469,482.747c-.229,7.12.981,14.208,2.248,21.188,1.462,8.054,3.1,16.08,3.878,24.239.029.3.506.306.477,0-.749-7.911-2.3-15.706-3.739-23.514-1.328-7.216-2.624-14.546-2.387-21.912.01-.308-.467-.307-.477,0Z" transform="translate(-562.441 -482.516)"/>
            </g>
            <g id="Grupo_1004768" data-name="Grupo 1004768" transform="translate(8.055 102.182)">
              <path id="Trazado_717963" data-name="Trazado 717963" d="M480.368,517.812c-1.508.484-1.758,2.482-1.861,3.825-.078,1.013-.228,3.322.7,4.064a9.572,9.572,0,0,0,3.629,1.221c2.038.482,4.113.843,6.189,1.119a27.092,27.092,0,0,0,5.458.348,3.738,3.738,0,0,0,3.1-2.536,9.965,9.965,0,0,0,.967-5.016c-.093-.852-.729-.886-1.452-1.035-3.068-.636-6.206-1.009-9.314-1.4-1.622-.2-3.248-.388-4.878-.528a9.08,9.08,0,0,0-2.537-.065c-.3.063-.173.523.127.46a12.049,12.049,0,0,1,3.378.171c1.973.19,3.941.436,5.906.7,1.934.256,3.865.535,5.789.862.711.121,2.422.08,2.519.972a9.388,9.388,0,0,1-1.489,5.673c-1.044,1.593-2.943,1.343-4.6,1.231a43.264,43.264,0,0,1-11.777-2.2c-1.2-.444-1.191-1.625-1.248-2.793-.064-1.317-.053-4.106,1.526-4.613C480.787,518.178,480.662,517.717,480.368,517.812Z" transform="translate(-478.448 -517.738)"/>
            </g>
            <g id="Grupo_1004769" data-name="Grupo 1004769" transform="translate(43.862 97.046)">
              <path id="Trazado_717964" data-name="Trazado 717964" d="M554.459,506.978c-1.155-.012-1.4,2.445-.231,2.58,1.283.148,1.451-2.409.294-2.571-.3-.042-.431.418-.127.461.608.085.566,1.64-.106,1.641-.537,0-.421-1.638.17-1.632A.239.239,0,0,0,554.459,506.978Z" transform="translate(-553.463 -506.978)"/>
            </g>
            <g id="Grupo_1004770" data-name="Grupo 1004770" transform="translate(37.453 144.65)">
              <path id="Trazado_717965" data-name="Trazado 717965" d="M540.5,615.066a28.694,28.694,0,0,1,3.085-8,.239.239,0,0,0-.412-.241,29.064,29.064,0,0,0-3.134,8.118c-.069.3.39.427.46.127Z" transform="translate(-540.036 -606.707)"/>
            </g>
            <g id="Grupo_1004771" data-name="Grupo 1004771" transform="translate(39.156 146.484)">
              <path id="Trazado_717966" data-name="Trazado 717966" d="M544.021,612.355a6.623,6.623,0,0,1,2.16-.829q.83-.266,1.669-.505a.239.239,0,0,0-.126-.461q-1,.286-1.981.606a6.155,6.155,0,0,0-2.059.852c-.235.2.1.536.337.338Z" transform="translate(-543.604 -610.549)"/>
            </g>
          </g>
          <g id="Grupo_1004775" data-name="Grupo 1004775" transform="translate(164.814 152.746)">
            <path id="Trazado_717967" data-name="Trazado 717967" d="M555.7,454.24c3.174.317,6.475.825,9.9.317s9.71-2.031,15.106-.952,9.14,2.539,12.441,3.237,2.983,1.65,2.729,2.412a1.7,1.7,0,0,1-1.206.952c-.761,2.729-2.983,2.6-6.411.253-4.633,0-5.2-1.777-7.108-.444s-10.473,3.174-13.265,4.126-9.965,2.666-13.646-.381S555.7,454.24,555.7,454.24Z" transform="translate(-552.909 -453.227)" fill="#ffbda8"/>
            <g id="Grupo_1004773" data-name="Grupo 1004773" transform="translate(28.644 2.547)">
              <path id="Trazado_717968" data-name="Trazado 717968" d="M613.083,459.036c.9.282,1.764.669,2.666.952a14.918,14.918,0,0,0,3.046.263c1.059.1,4.3-.153,3.38,1.9-.521,1.166-2.547.931-3.57.923a.239.239,0,0,0,0,.477c1.071.009,2.666.179,3.533-.641a1.61,1.61,0,0,0,.285-2.29c-.692-.916-2.27-.811-3.263-.831a17.81,17.81,0,0,1-3.284-.262c-.911-.193-1.777-.674-2.666-.952-.295-.092-.42.368-.127.461Z" transform="translate(-612.917 -458.564)"/>
            </g>
            <g id="Grupo_1004774" data-name="Grupo 1004774" transform="translate(38.107 5.652)">
              <path id="Trazado_717969" data-name="Trazado 717969" d="M632.9,465.546c1.092.424,4.561,1.763,4.991-.167.066-.3-.394-.428-.461-.127-.306,1.375-3.593.148-4.4-.167-.287-.111-.411.35-.127.461Z" transform="translate(-632.742 -465.068)"/>
            </g>
          </g>
          <g id="Grupo_1004784" data-name="Grupo 1004784" transform="translate(66.521 115.035)">
            <path id="Trazado_717970" data-name="Trazado 717970" d="M364.075,553.757c3.893-1.184,33.344-2.539,47.053,5.924,2.369,10.832,3.045,25.9,3.216,27.589s-52.3-.169-52.3-.169Z" transform="translate(-354.858 -467.6)" fill="#33221f" fill-rule="evenodd"/>
            <g id="Grupo_1004776" data-name="Grupo 1004776" transform="translate(39.148 89.269)">
              <path id="Trazado_717971" data-name="Trazado 717971" d="M429,561.471c.012,6.26.314,12.529.508,18.786a.242.242,0,0,0,.359.206q1.2-.56,2.358-1.207c.46-.258,1.487-.7,1.581-1.321a27.886,27.886,0,0,0-.008-4.762c-.092-3.733-.232-7.465-.386-11.2-.012-.306-.49-.308-.477,0q.212,5.138.362,10.277c.048,1.726.118,3.459.068,5.184-.023.781-.753,1.043-1.381,1.405-.764.441-1.559.834-2.358,1.206l.359.206c-.194-6.257-.5-12.526-.508-18.786a.239.239,0,0,0-.477,0Z" transform="translate(-429.003 -561.24)"/>
            </g>
            <path id="Trazado_717972" data-name="Trazado 717972" d="M350.621,381.508c2.37-4.062,7.955-7.447,10.663-7.277s31.651,10.325,33.682,14.387,37.87,17.475,47.518,19.506c7.109,1.694,6.644,2.666,6.982,3.513-.444,1.629-.55,11.087-2.92,13.117-1.4,1.269-7.4.424-7.4.424-5.924,1.692-14.894,3.215-33.85-2.2,1.184,13.371,3.808,34.569-.762,37.447-.677,3.554-.592,6.05-1.1,6.727-16.587-7.277-31.82-7.785-46.037-4.231-7.278-11.678-11-40.113-10.324-52.807A276.473,276.473,0,0,1,350.621,381.508Z" transform="translate(-346.989 -374.224)" fill="#dead85"/>
            <g id="Grupo_1004777" data-name="Grupo 1004777" transform="translate(91.961 36.972)">
              <path id="Trazado_717973" data-name="Trazado 717973" d="M542.559,451.908c-.54,4.53-.833,9.1-2.887,13.272-.136.275.276.517.412.241,2.094-4.251,2.4-8.894,2.952-13.512.037-.3-.441-.3-.477,0Z" transform="translate(-539.645 -451.68)"/>
            </g>
            <g id="Grupo_1004778" data-name="Grupo 1004778" transform="translate(12.771 29.382)">
              <path id="Trazado_717974" data-name="Trazado 717974" d="M373.855,436.229c3.437,2.146,7.131,3.822,10.663,5.8q5.54,3.1,11.359,5.633a139.6,139.6,0,0,0,23.333,7.721c.3.071.426-.389.127-.461a141.34,141.34,0,0,1-23.621-7.848c-3.742-1.632-7.4-3.461-10.957-5.457-3.53-1.98-7.226-3.651-10.663-5.8-.262-.163-.5.25-.241.412Z" transform="translate(-373.743 -435.779)"/>
            </g>
            <g id="Grupo_1004779" data-name="Grupo 1004779" transform="translate(13.002 79.079)">
              <path id="Trazado_717975" data-name="Trazado 717975" d="M374.526,541.4c14.68-2.736,30.063.153,43.611,6.069.279.122.522-.289.241-.412-13.674-5.972-29.162-8.878-43.979-6.117-.3.056-.174.516.127.461Z" transform="translate(-374.227 -539.893)"/>
            </g>
            <g id="Grupo_1004780" data-name="Grupo 1004780" transform="translate(38.547 110.978)">
              <path id="Trazado_717976" data-name="Trazado 717976" d="M428.314,619.262c-.024-2.191-.112-4.378-.089-6.57a25.44,25.44,0,0,1,.207-3.7c.171-1.081,1.781-1.452,2.684-1.841.282-.122.039-.533-.241-.412-.751.323-2.482.766-2.777,1.611a11.551,11.551,0,0,0-.334,3.4c-.068,2.506.045,5.008.073,7.513a.239.239,0,0,0,.477,0Z" transform="translate(-427.743 -606.721)"/>
            </g>
            <g id="Grupo_1004781" data-name="Grupo 1004781" transform="translate(31.323 78.136)">
              <path id="Trazado_717977" data-name="Trazado 717977" d="M412.783,538.382a60.445,60.445,0,0,0,7.737.491,48.53,48.53,0,0,1,8.851,1.371c.3.07.427-.39.127-.461a55.663,55.663,0,0,0-7.623-1.3c-2.988-.269-6-.047-8.964-.564-.3-.053-.43.408-.127.461Z" transform="translate(-412.61 -537.917)"/>
            </g>
            <g id="Grupo_1004782" data-name="Grupo 1004782" transform="translate(13.089 37.829)">
              <path id="Trazado_717978" data-name="Trazado 717978" d="M378.853,453.649q-1.369,9.622-2.762,19.24c-.424,2.941-1.1,5.927-1.284,8.891-.1,1.574-.157,3.144-.3,4.715a12.384,12.384,0,0,0,.141,4.012c.07.3.53.172.46-.127a13.159,13.159,0,0,1-.088-4.27c.134-1.442.194-2.884.268-4.33.082-1.62.457-3.237.7-4.839s.467-3.211.694-4.816c.868-6.118,1.765-12.231,2.634-18.349.043-.3-.417-.431-.46-.126Z" transform="translate(-374.409 -453.476)"/>
            </g>
            <g id="Grupo_1004783" data-name="Grupo 1004783" transform="translate(14.476 35.469)">
              <path id="Trazado_717979" data-name="Trazado 717979" d="M390.124,451.936c-4.121-1.336-8.513-1.694-12.525-3.385-.283-.119-.406.343-.127.461,4.012,1.691,8.4,2.049,12.524,3.385.294.1.419-.366.127-.461Z" transform="translate(-377.315 -448.531)"/>
            </g>
          </g>
          <g id="Grupo_1004786" data-name="Grupo 1004786" transform="translate(116.459 118.423)">
            <path id="Trazado_717980" data-name="Trazado 717980" d="M451.607,395.446c2.485,2.924,36.431,14.569,47.715,17.656,2.031,5.755,7.105,4.425,12.869,4.024s14.322-5.488,14.322-5.488-14.273-3.834-19.449-5.39-31.476-14.351-44.821-24.926C460.022,382.465,451.607,395.446,451.607,395.446Z" transform="translate(-451.607 -381.322)" fill="#b06043" fill-rule="evenodd"/>
            <g id="Grupo_1004785" data-name="Grupo 1004785" transform="translate(51.054 31.908)">
              <path id="Trazado_717981" data-name="Trazado 717981" d="M558.62,448.589a5.213,5.213,0,0,0,2.6,2.239,23.363,23.363,0,0,0,5.193.83c.307.023.305-.455,0-.477a27.5,27.5,0,0,1-4.428-.653,3.81,3.81,0,0,1-1.912-.86,13.3,13.3,0,0,1-1.116-1.417c-.19-.242-.525.1-.337.337Z" transform="translate(-558.564 -448.168)"/>
            </g>
          </g>
          <g id="Grupo_1004790" data-name="Grupo 1004790" transform="translate(167.951 138.868)">
            <path id="Trazado_717982" data-name="Trazado 717982" d="M572.315,425.368a13.118,13.118,0,0,1,6.422.138c5.141,1.65,6.689,2.723,8.06,3.046,2.824.667,3.269,1.777,2.539,2.538,2.094,1.9.063,3.491-2.106,3.037-.825.571-4.062-.063-5.014-1.08-.762,1.206-2.666.128-5.2-.825s-6.654-2.592-7.162-2.909S568.824,426.32,572.315,425.368Z" transform="translate(-564.71 -424.61)" fill="#ff9b7d"/>
            <path id="Trazado_717983" data-name="Trazado 717983" d="M561.717,427.57c.762-.762,6.961-4.242,7.85-2.656-2.284.508-3.777,2-3.3,4.349A11.337,11.337,0,0,1,561.717,427.57Z" transform="translate(-560.65 -424.337)" fill="#d0d4d6"/>
            <g id="Grupo_1004787" data-name="Grupo 1004787" transform="translate(10.043 3.56)">
              <path id="Trazado_717984" data-name="Trazado 717984" d="M580.686,432.085l3.5,1.219c1.3.452,4.276,1.322,3.4,3.318-.123.279.288.522.412.241a2.261,2.261,0,0,0-1-2.843,10.111,10.111,0,0,0-2.682-1.175l-3.5-1.219c-.291-.1-.416.36-.126.46Z" transform="translate(-580.522 -431.611)"/>
            </g>
            <g id="Grupo_1004788" data-name="Grupo 1004788" transform="translate(13.584 2.807)">
              <path id="Trazado_717985" data-name="Trazado 717985" d="M588.06,430.475a40.329,40.329,0,0,1,4.962,2.749c1.054.743,5.056,1.3,3.912,3.124-.165.261.249.5.412.241,1.034-1.644-.527-2.281-1.858-2.815a19.224,19.224,0,0,1-3.344-1.711c-1.23-.787-2.55-1.334-3.844-2-.273-.141-.515.271-.241.412Z" transform="translate(-587.939 -430.034)"/>
            </g>
            <g id="Grupo_1004789" data-name="Grupo 1004789" transform="translate(15.814 2.377)">
              <path id="Trazado_717986" data-name="Trazado 717986" d="M602.351,435.331c.609-1.808-1.132-2.387-2.565-2.752a12.844,12.844,0,0,1-3.373-1.709c-1.095-.659-2.285-1.167-3.439-1.712-.276-.131-.519.281-.241.412,1.685.8,3.293,1.64,4.891,2.6,1.2.722,4.914,1.112,4.266,3.035-.1.292.363.417.461.126Z" transform="translate(-592.611 -429.133)"/>
            </g>
            <path id="Trazado_717987" data-name="Trazado 717987" d="M559.481,427.112c.285-.191,3.516-2.565,5.109-2.92a1.205,1.205,0,0,1,1.3.444,4.71,4.71,0,0,0-3.2,3.808C561.29,427.968,559.481,427.112,559.481,427.112Z" transform="translate(-559.481 -424.153)" fill="#215e75"/>
          </g>
          <g id="Grupo_1004797" data-name="Grupo 1004797" transform="translate(86.253 64.326)">
            <path id="Trazado_717988" data-name="Trazado 717988" d="M391.071,292.228c-1.016-7.954,4.147-19,13.456-19.676s19.168,2.623,20.691,7.532,1.862,10.325-.508,14.725.084,9.987-8.209,16.757C412.488,314.842,394.625,304.415,391.071,292.228Z" transform="translate(-389.695 -270.329)" fill="#ffbda8"/>
            <path id="Trazado_717989" data-name="Trazado 717989" d="M392.775,272a10.081,10.081,0,0,1,6.412-3.838c1.278-.137,2.517.256,3.793.207,2.375-.091,4.335-.412,6.779-.38a23.732,23.732,0,0,1,10.917,2.476,15.132,15.132,0,0,1,5.522,4.189,6.685,6.685,0,0,1,1.052,3.662c.087,2.255-2.222,2.532-3.9,2.519a17.979,17.979,0,0,1-8.146-2.386,39.5,39.5,0,0,0-4.167-2.292c-1.477-.625-2.777-1.175-4.2-.318-1.892,1.142-2.056,2.935-2.664,4.817-.376,1.166-.579,2.752-1.312,3.731-.633.844-1.811,1.256-1.93,2.4s.718,4.343-.976,4.684c-1.826.368-2.178-2.674-3.165-3.52a2.306,2.306,0,0,0-3.028-.1c-2.158,1.524-1.4,5.078-1.4,5.078s-.126,2.92-3.935-5.078a7.4,7.4,0,0,1,.039-2.437c.029-.843.077-1.685.159-2.525a24.807,24.807,0,0,1,.926-4.871A17.78,17.78,0,0,1,392.775,272Z" transform="translate(-388.327 -267.99)" fill="#967a72"/>
            <path id="Trazado_717990" data-name="Trazado 717990" d="M436.885,312.27c-1.045-.587-2.608,1.66-1.308,2.464C437,315.615,437.951,312.87,436.885,312.27Z" transform="translate(-412.765 -291.083)"/>
            <path id="Trazado_717991" data-name="Trazado 717991" d="M455.69,319.046c-.885-.506-2.242,1.5-1.144,2.191C455.747,322,456.592,319.564,455.69,319.046Z" transform="translate(-422.723 -294.633)"/>
            <g id="Grupo_1004791" data-name="Grupo 1004791" transform="translate(28.381 19.852)">
              <path id="Trazado_717992" data-name="Trazado 717992" d="M449.445,309.7c-.6,1.042-1.51,3.017-.8,4.183.548.9,1.046,1.768,1.508,2.713a3.307,3.307,0,0,1,.373,1.945c-.162,1.175-1.682,1.225-2.513,1.218a.239.239,0,0,0,0,.477,3.057,3.057,0,0,0,2.438-.673,2.043,2.043,0,0,0,.539-1.979,10.224,10.224,0,0,0-1.306-2.975,2.9,2.9,0,0,1-.67-2.521,8.256,8.256,0,0,1,.84-2.147.239.239,0,0,0-.412-.241Z" transform="translate(-447.785 -309.58)"/>
            </g>
            <g id="Grupo_1004792" data-name="Grupo 1004792" transform="translate(24.547 28.729)">
              <path id="Trazado_717993" data-name="Trazado 717993" d="M439.766,328.407c-.03,1.584-.122,3.01,1.1,4.194a2.893,2.893,0,0,0,3.568.2c.262-.16.022-.573-.241-.412a2.466,2.466,0,0,1-3.458-.671c-.7-.984-.515-2.189-.494-3.316a.239.239,0,0,0-.477,0Z" transform="translate(-439.752 -328.177)"/>
            </g>
            <path id="Trazado_717994" data-name="Trazado 717994" d="M432.145,297.822c1.539.3,3.306-.269,4.854-.347.708-.037,1.647.286,2.209-.237a1.342,1.342,0,0,0,.152-1.723,3.389,3.389,0,0,0-2.384-.919,5.505,5.505,0,0,0-3.1.648C433.619,295.391,431.577,297.711,432.145,297.822Z" transform="translate(-411.177 -281.888)" fill="#967a72"/>
            <path id="Trazado_717995" data-name="Trazado 717995" d="M458.814,303.186a2.489,2.489,0,0,0,.45.555,9.6,9.6,0,0,1,2.071,3.762c.161.588.982-.9,1-.992a5.475,5.475,0,0,0-.152-2.6c-.19-.68-.538-1.616-1.259-1.9a1.8,1.8,0,0,0-1.753.479C458.828,302.821,458.745,303.006,458.814,303.186Z" transform="translate(-425.157 -285.73)" fill="#967a72"/>
            <g id="Grupo_1004793" data-name="Grupo 1004793" transform="translate(18.949 17.726)">
              <path id="Trazado_717996" data-name="Trazado 717996" d="M429.7,305.6c2.179.031,4.347.124,6.233,1.287A1.94,1.94,0,0,1,437,309.022a5.254,5.254,0,0,1-1.546,3.505c-1.59,1.585-4.991,1.7-6.241-.407-.932-1.57-1.086-5.128.406-6.418.233-.2-.106-.537-.337-.337-1.632,1.411-1.482,4.875-.64,6.659,1.033,2.188,3.977,2.623,6,1.658a5.21,5.21,0,0,0,2.79-4.256c.036-.358.329-1.5.052-1.776a7.48,7.48,0,0,0-3.05-2.049,17.321,17.321,0,0,0-4.735-.475.239.239,0,0,0,0,.477Z" transform="translate(-428.026 -305.126)"/>
            </g>
            <g id="Grupo_1004794" data-name="Grupo 1004794" transform="translate(27.994 21.873)">
              <path id="Trazado_717997" data-name="Trazado 717997" d="M447.431,314.341c.221-.307,2.09.932,2.5.964.307.024.305-.453,0-.477-.742-.057-2.247-1.652-2.914-.728-.18.251.233.488.412.241Z" transform="translate(-446.975 -313.813)"/>
            </g>
            <g id="Grupo_1004795" data-name="Grupo 1004795" transform="translate(30.02 21.888)">
              <path id="Trazado_717998" data-name="Trazado 717998" d="M451.683,317.221c.22-1.263.974-3.1,2.56-2.846a4.172,4.172,0,0,1,3.284,3.18c.182,2.083-2.311,5.576-4.5,3.727-.233-.2-.573.138-.337.337,2.6,2.2,5.733-1.733,5.282-4.353-.3-1.741-2.22-3.127-3.885-3.4-1.69-.274-2.641,1.92-2.868,3.225-.052.3.408.43.46.127Z" transform="translate(-451.218 -313.846)"/>
            </g>
            <g id="Grupo_1004796" data-name="Grupo 1004796" transform="translate(8.804 19.448)">
              <path id="Trazado_717999" data-name="Trazado 717999" d="M407,309.774a39.585,39.585,0,0,0,4.738-.279,40.176,40.176,0,0,1,5.417-.229.239.239,0,0,0,0-.477,25.619,25.619,0,0,0-4.6.1,33.123,33.123,0,0,1-5.559.41.239.239,0,0,0,0,.477Z" transform="translate(-406.771 -308.733)"/>
            </g>
            <path id="Trazado_718000" data-name="Trazado 718000" d="M430.165,304.2c-.677.3-1.185.8-.8,1.1s5.754-.8,8.717,2.749c.381.423.636-.593.466-1.058S436.343,303.565,430.165,304.2Z" transform="translate(-409.706 -286.87)" fill="#4d3733" fill-rule="evenodd"/>
            <path id="Trazado_718001" data-name="Trazado 718001" d="M453.65,314.365A7.744,7.744,0,0,1,459.225,318c.434.325.657-.656.337-1.407a6.545,6.545,0,0,0-4.751-2.983C453.663,313.434,453.519,314.242,453.65,314.365Z" transform="translate(-422.448 -291.821)" fill="#4d3733" fill-rule="evenodd"/>
          </g>
          <g id="Grupo_1004812" data-name="Grupo 1004812">
            <path id="Trazado_718002" data-name="Trazado 718002" d="M272.809,225.5a35.591,35.591,0,0,0,2.2-16.079c-.677-7.108-9.14-16.417.677-29.111s33.649-10.614,39.775,3.723c3.978,9.31-3.216,13.709.169,17.433s5.755,4.57-.169,6.263c-2.032.169-1.524,2.707-3.386,6.262s-5.246,7.787-11.509,7.448S272.809,225.5,272.809,225.5Z" transform="translate(-240.737 -153.451)" fill="#b06043" fill-rule="evenodd"/>
            <path id="Trazado_718003" data-name="Trazado 718003" d="M242.652,176.845c-2.2,3.554-.424,15.656,6.77,9.732-3.046,8.547,5.586,9.055,9.056,4.992-1.608,7.024,5.077,6.856,7.954.339.847-1.015,1.439,3.808,4.232,2.37s3.47-5.754,3.723-5.924c.781.966,2.029,2.663,3.465,1.991a5.925,5.925,0,0,0,1.806-2.082c.176-.264,1.121-2.585.667-2.776.979.412,1.525,1.467,2.863.858,1.3-.591,1.592-2.736,1.608-3.98a14.2,14.2,0,0,0-.995-4.845,9.366,9.366,0,0,1-.529-4.712c.2-.659,1.627-1.678,1.524-2.4.422,2.962.846,3.978,3.216,3.131,1.843-.659,4-2.053,5.7-9.707,2.866-.26,6.544-.874,8.753-2.881.851-.773,1.87-2.172,1.617-3.42-.147-.731-1.9-2.633-2.764-1.714.892-.954,3.126-1.348,3.372-2.84.31-1.872-2.348-2.329-3.716-2.58,3.317-1.926-.769-5.311-2.948-5.545a7.115,7.115,0,0,0-3.467.442c.569-.805,2.3-2.861.358-4.106-.811-.519-3.171-.359-3.748.49,1.4-2.089,2.073-3.48-.849-4.548-2.97-1.086-7.233-.372-9.455,1.981,1.151-2.171,1.206-5.186-1.763-5.807s-7.087,2.4-9.088,4.319c.807-1.074,1.327-3.211-.458-3.842-1.881-.664-4.173.952-5.295,2.231a32.864,32.864,0,0,0-4.021,6.209c-.916,1.712-.85,2.753-2.5,1.632a8.151,8.151,0,0,0-4.928-1.711c-1.568.082-3.7.832-4.552,2.247-1.13,1.874.443,4.222,1.76,5.539-4.824,1.015-10.156,5.331-9.817,8.547a5.835,5.835,0,0,0,3.3,4.485c-5.078,1.692-6.178,7.364-6.093,10.325S240.705,178.2,242.652,176.845Z" transform="translate(-223.189 -133.228)" fill="#733924" fill-rule="evenodd"/>
            <path id="Trazado_718004" data-name="Trazado 718004" d="M210.334,553.626c1.777-4.569,1.777-15.487-1.27-23.865s-2.285-24.627,12.695-46.206c21.072-2.538,56.107-.254,56.107-.254,3.809,18.787,7.617,28.22,7.617,45.7s-1.269,26.4-1.269,26.4Z" transform="translate(-207.629 -315.706)" fill="#0d3d63"/>
            <g id="Grupo_1004798" data-name="Grupo 1004798" transform="translate(11.382 166.759)">
              <path id="Trazado_718005" data-name="Trazado 718005" d="M239.939,482.707a66.919,66.919,0,0,0-2.7,7.033,129.683,129.683,0,0,0-3.683,12.843,75.815,75.815,0,0,0-2.054,14.351c-.142,4.046.181,8.3,1.908,12.02a32.013,32.013,0,0,0,7.264,10.06q.425.392.874.756c.3.246.041-.185.061.033q.106,1.194.213,2.389.65,7.3,1.3,14.6c.027.3.5.307.477,0l-1.5-16.827c-.053-.587-.525-.781-.969-1.179a30.294,30.294,0,0,1-4.485-5.132,24.778,24.778,0,0,1-4.662-13.676c-.325-7.6,1.365-15.291,3.38-22.572a89.469,89.469,0,0,1,4.986-14.458c.131-.276-.28-.519-.412-.241Z" transform="translate(-231.473 -482.584)"/>
            </g>
            <g id="Grupo_1004799" data-name="Grupo 1004799" transform="translate(21.511 219.914)">
              <path id="Trazado_718006" data-name="Trazado 718006" d="M252.994,598.13l22.341-3.724c.3-.051.174-.51-.126-.461l-22.342,3.724c-.3.051-.174.51.127.461Z" transform="translate(-252.694 -593.942)"/>
            </g>
            <g id="Grupo_1004800" data-name="Grupo 1004800" transform="translate(18.296 181.906)">
              <path id="Trazado_718007" data-name="Trazado 718007" d="M248.841,515.089a49.575,49.575,0,0,0-2.878,16.36,23.705,23.705,0,0,0,2.385,10.421,17.864,17.864,0,0,0,8.552,7.959,24.57,24.57,0,0,0,3.142,1.178c.908.279,2.229-.91,3-1.355q3.624-2.1,7.14-4.389a20.008,20.008,0,0,0,3.88-2.777c.5-.54.432-2.026.5-2.707.737-7.392.7-14.9.793-22.322q.011-.983.02-1.965a.244.244,0,0,0-.239-.239,114.63,114.63,0,0,0-26.065-.339c-.3.036-.305.514,0,.477a114.637,114.637,0,0,1,26.065.339l-.239-.239c-.046,6.292-.163,12.59-.455,18.875-.082,1.749-.18,3.5-.341,5.243-.083.892.006,2.25-.731,2.862a49.281,49.281,0,0,1-5.291,3.569c-2.381,1.5-4.8,2.951-7.254,4.325-.943.526-2.781-.544-3.682-.948a19.853,19.853,0,0,1-3.051-1.725,16.606,16.606,0,0,1-4.417-4.5,21.372,21.372,0,0,1-3.2-10.861,46.9,46.9,0,0,1,2.786-16.974l.046-.138C249.4,514.924,248.938,514.8,248.841,515.089Z" transform="translate(-245.959 -514.316)"/>
            </g>
            <g id="Grupo_1004801" data-name="Grupo 1004801" transform="translate(2.381 183.689)">
              <path id="Trazado_718008" data-name="Trazado 718008" d="M215.227,518.53l4.739.169-.239-.239q-1.016,8.2-1.915,16.4c-.348,3.2-.707,6.408-.908,9.623a9.307,9.307,0,0,1-1.168,4.895,8.351,8.351,0,0,1-3,2.724c-.272.144-.031.556.241.412a8.142,8.142,0,0,0,4.359-7.134c.1-3.086.49-6.177.816-9.245.626-5.9,1.321-11.791,2.052-17.678.017-.132-.121-.234-.239-.239l-4.739-.169c-.308-.011-.307.466,0,.477Z" transform="translate(-212.618 -518.053)"/>
            </g>
            <g id="Grupo_1004802" data-name="Grupo 1004802" transform="translate(55.533 166.428)">
              <path id="Trazado_718009" data-name="Trazado 718009" d="M323.972,482.191c.888,5.073,1.442,10.224,2.023,15.338,1.114,9.806,1.954,19.653,2.314,29.518.336,9.219.442,18.7-1.29,27.8-.057.3.4.429.46.127,1.76-9.25,1.636-18.868,1.3-28.238-.358-9.842-1.219-19.668-2.33-29.452-.577-5.073-1.131-10.183-2.012-15.215-.053-.3-.513-.174-.46.127Z" transform="translate(-323.968 -481.891)"/>
            </g>
            <g id="Grupo_1004803" data-name="Grupo 1004803" transform="translate(57.735 166.596)">
              <path id="Trazado_718010" data-name="Trazado 718010" d="M328.584,482.544c.8,5.078,1.809,10.118,2.555,15.208a262.277,262.277,0,0,1,2.848,30.8c.24,8.713-.011,17.622-2.019,26.139-.071.3.389.426.46.127,2.369-10.05,2.364-20.619,1.858-30.876a282.869,282.869,0,0,0-3.13-29.257c-.634-4.1-1.469-8.167-2.112-12.265-.048-.3-.507-.174-.46.127Z" transform="translate(-328.581 -482.244)"/>
            </g>
            <g id="Grupo_1004804" data-name="Grupo 1004804" transform="translate(61.63 179.782)">
              <path id="Trazado_718011" data-name="Trazado 718011" d="M336.972,521.7c6.228.079,10.149-5.981,11.221-11.533.057-.3-.387-.428-.461-.126,0,.008,0,.019,0,.027-.057.3.4.429.46.127,0-.009,0-.018.005-.027l-.461-.126c-1.03,5.335-4.749,11.259-10.76,11.182a.239.239,0,0,0,0,.477Z" transform="translate(-336.741 -509.866)"/>
            </g>
            <g id="Grupo_1004805" data-name="Grupo 1004805" transform="translate(62.132 185.915)">
              <path id="Trazado_718012" data-name="Trazado 718012" d="M337.967,531.453A10.5,10.5,0,0,0,344.2,530.2a11.283,11.283,0,0,0,5.875-7.192.239.239,0,0,0-.46-.127,10.9,10.9,0,0,1-5.434,6.792,9.933,9.933,0,0,1-6.09,1.315c-.3-.054-.429.405-.126.461Z" transform="translate(-337.794 -522.716)"/>
            </g>
            <path id="Trazado_718013" data-name="Trazado 718013" d="M237.187,471.358c-.338-2.2,1.524-10.325,2.032-10.493s34.358-4.063,53.484,0c1.354,1.184.592,10.239.592,10.239A511.009,511.009,0,0,0,237.187,471.358Z" transform="translate(-223.057 -303.509)" fill="#ede3cc"/>
            <path id="Trazado_718014" data-name="Trazado 718014" d="M233.107,358.518c-6.094-2.878-9.141-4.57-6.94-14.387s9.817-55.345,24.034-73.287c7.109-4.232,21.834-9.308,29.958-7.108s15.91,10.662,20.818,16.924,12.356,11.849,19.8,15.91,20.649,11.34,17.264,19.126c-3.384,6.432-9.308,15.063-9.308,15.063-10.495,3.047-32.159-6.6-41.468-15.233,4.063,21.834,11.34,39.436-.676,42.991C283.375,358.179,255.956,356.655,233.107,358.518Z" transform="translate(-216.944 -201.162)" fill="#ede3cc"/>
            <path id="Trazado_718015" data-name="Trazado 718015" d="M255.189,305.3c4.4-15.247,7.961-27.46,10.344-34.141-1.13.434-2.222.887-3.256,1.349-2.748,6.381-11.206,25.025-13.225,36.3-1.843,10.3-6.77,29.2-9.139,38.337s1.735,11.636,4.612,14.851H249.6c-4.57-7.277-4.232-14.386-1.863-25.557S250.45,321.714,255.189,305.3Z" transform="translate(-224.133 -205.318)" fill="#ded1b4"/>
            <path id="Trazado_718016" data-name="Trazado 718016" d="M293.9,310.889c-.846,7.785-4.739,33.512-6.77,42.652a167.856,167.856,0,0,0-3.216,24.372l-4.93.148c-1.523-5.416,2.053-21.982,4.084-34s6.939-38.082,7.785-41.806Z" transform="translate(-244.729 -221.574)" fill="#ded1b4"/>
            <path id="Trazado_718017" data-name="Trazado 718017" d="M327.5,350.642c.508,6.77,6.094,42.483-2.538,51.115l-4.4-.339s1.862-2.708,3.046-12.016,0-38.252,0-42.822Z" transform="translate(-266.654 -244.74)" fill="#ded1b4"/>
            <path id="Trazado_718018" data-name="Trazado 718018" d="M441.827,386.916c1.184,1.524,3.213,3.677,5.82,3.859,1.133.079,9.582-13.506,10.089-14.86s-4.02-5.077-6.369-5.268" transform="translate(-330.036 -257.319)" fill="#ede3cc"/>
            <path id="Trazado_718019" data-name="Trazado 718019" d="M354.427,227.258c-1.507-.144-2.666,3.034-.846,3.554C354.765,231.151,356.2,227.428,354.427,227.258Z" transform="translate(-283.427 -182.372)"/>
            <g id="Grupo_1004806" data-name="Grupo 1004806" transform="translate(68.903 36.777)">
              <path id="Trazado_718020" data-name="Trazado 718020" d="M352.383,212.46a6.268,6.268,0,0,1,4.57-1.707.239.239,0,0,0,0-.477,6.745,6.745,0,0,0-4.907,1.847c-.21.225.127.563.337.337Z" transform="translate(-351.979 -210.275)"/>
            </g>
            <g id="Grupo_1004807" data-name="Grupo 1004807" transform="translate(68.307 53.71)">
              <path id="Trazado_718021" data-name="Trazado 718021" d="M350.73,245.981c.055,2.209,1.452,4.709,3.878,4.809.308.012.306-.465,0-.477-2.156-.089-3.352-2.4-3.4-4.332a.239.239,0,0,0-.477,0Z" transform="translate(-350.73 -245.75)"/>
            </g>
            <g id="Grupo_1004808" data-name="Grupo 1004808" transform="translate(53.189 32.744)">
              <path id="Trazado_718022" data-name="Trazado 718022" d="M319.365,201.984a2.782,2.782,0,0,0,.107,2.735,3.212,3.212,0,0,0,2.323.867l-.23-.3a2.574,2.574,0,0,0,1.958,3.259c1.634.492,3.122-.7,4.111-1.842.2-.232-.136-.571-.337-.337a5.01,5.01,0,0,1-2.4,1.72,2.749,2.749,0,0,1-1.832-.212,2,2,0,0,1-1.035-2.462.243.243,0,0,0-.23-.3,3.16,3.16,0,0,1-1.819-.538c-.7-.562-.442-1.769-.152-2.461.119-.284-.343-.406-.46-.126Z" transform="translate(-319.059 -201.826)"/>
            </g>
            <path id="Trazado_718023" data-name="Trazado 718023" d="M373.493,333.2c-4.231-3.893-20.649-7.108-36.558-17.941s-29.789-31.481-31.99-36.051c0,0-1.037,4.062-.507,6.432,2.708,7.108,9.648,16.587,22.342,28.434s35.544,22.849,45.022,21.833c0,0,.092.031.24.072.493-.751,1.045-1.6,1.632-2.519C373.615,333.375,373.559,333.292,373.493,333.2Z" transform="translate(-258.149 -209.528)" fill="#ded1b4"/>
            <path id="Trazado_718024" data-name="Trazado 718024" d="M383.028,315.62c-2.257-2.983-7.452-6.823-16.1-10.666a64.717,64.717,0,0,1-25.049-19.633c-6.6-8.8-19.3-18.787-26.065-21.157-.077-.051-.154-.1-.23-.139-1.057.158-2.132.36-3.213.6a6.715,6.715,0,0,0-1.212,1.55c3.047,2.708,24.8,21.178,35.968,31.333s18.787,11.509,24.88,15.233a38.749,38.749,0,0,1,8.732,7.135c.752-1.279,1.47-2.553,2.1-3.749C382.914,315.956,382.97,315.788,383.028,315.62Z" transform="translate(-261.742 -201.591)" fill="#ded1b4"/>
            <g id="Grupo_1004809" data-name="Grupo 1004809" transform="translate(15.935 156.233)">
              <path id="Trazado_718025" data-name="Trazado 718025" d="M241.239,461.894c2.244-.28,4.534-.323,6.791-.423,4.432-.2,8.866-.315,13.3-.387,11.126-.18,22.294-.1,33.39.81.307.025.305-.453,0-.477-11.1-.906-22.263-.983-33.39-.81q-6.653.1-13.3.387c-2.257.1-4.547.143-6.791.423-.3.038-.305.516,0,.477Z" transform="translate(-241.011 -460.533)"/>
            </g>
            <g id="Grupo_1004810" data-name="Grupo 1004810" transform="translate(45.816 62.51)">
              <path id="Trazado_718026" data-name="Trazado 718026" d="M308.655,264.248c-4.1,3.678-5.288,9.707-5,14.977.5,9.208,5.426,17.67,11.218,24.578a87.439,87.439,0,0,0,13.079,12.4c.239.188.579-.147.337-.337-9.37-7.368-18.29-16.525-22.35-27.975-2.232-6.3-2.876-13.818.394-19.886a12.653,12.653,0,0,1,2.661-3.424c.23-.206-.109-.542-.337-.337Z" transform="translate(-303.613 -264.185)"/>
            </g>
            <g id="Grupo_1004811" data-name="Grupo 1004811" transform="translate(111.542 113.028)">
              <path id="Trazado_718027" data-name="Trazado 718027" d="M451.043,370.189c-.51,2.06-1.91,4-2.988,5.814-1.018,1.71-2.075,3.4-3.148,5.073-1.16,1.813-2.341,3.615-3.559,5.391-.175.255.239.493.412.241,1.279-1.865,2.517-3.761,3.736-5.666q1.619-2.53,3.157-5.11a22.024,22.024,0,0,0,2.85-5.615.239.239,0,0,0-.46-.127Z" transform="translate(-441.307 -370.019)"/>
            </g>
          </g>
          <g id="Grupo_1004818" data-name="Grupo 1004818" transform="translate(172.789 160.801)">
            <path id="Trazado_718028" data-name="Trazado 718028" d="M570.523,475.435c-1.778.635-.571,2.032.507,2.6s2.031-.063,2.983.952,3.808,1.841,6.093,1.27,3.047-1.016,5.141-.762,3.237.253,4.379-.571c2.6,2.221,3.491,2.095,4.57,1.142s-.952-3.491-2.285-4.95-2.665-5.141-5.776-5.014-6.156,1.713-7.553,2.031-4.316.762-5.014,1.079a1.4,1.4,0,0,0-.825.825C571.348,473.849,569.761,473.722,570.523,475.435Z" transform="translate(-569.617 -470.101)" fill="#ff9b7d"/>
            <g id="Grupo_1004813" data-name="Grupo 1004813" transform="translate(2.952 3.559)">
              <path id="Trazado_718029" data-name="Trazado 718029" d="M575.8,477.789a2.814,2.814,0,0,0,.917,1.988c.623.648,1.7.522,2.474.823.287.112.41-.35.126-.461-.529-.207-1.132-.247-1.683-.4a2.052,2.052,0,0,1-1.358-1.95.239.239,0,0,0-.477,0Z" transform="translate(-575.801 -477.558)"/>
            </g>
            <g id="Grupo_1004814" data-name="Grupo 1004814" transform="translate(0.666 4.908)">
              <path id="Trazado_718030" data-name="Trazado 718030" d="M571.045,480.74a3.14,3.14,0,0,0,1.708,1.506,13.232,13.232,0,0,1,1.859.635,2.765,2.765,0,0,0,1.083.346c.306.03.3-.447,0-.477a18.57,18.57,0,0,1-2.241-.8,2.848,2.848,0,0,1-2-1.447.239.239,0,0,0-.412.241Z" transform="translate(-571.012 -480.383)"/>
            </g>
            <g id="Grupo_1004815" data-name="Grupo 1004815" transform="translate(6.143 1.183)">
              <path id="Trazado_718031" data-name="Trazado 718031" d="M587.151,472.649a7.659,7.659,0,0,1-3.633,1.716,1.145,1.145,0,0,0-.977,1.51c.555,2.1,4,1.762,5.519,1.4.3-.071.173-.53-.126-.461a7.841,7.841,0,0,1-3.031.132,2.808,2.808,0,0,1-1.461-.541.943.943,0,0,1,.512-1.652,7.608,7.608,0,0,0,3.534-1.771c.221-.215-.117-.552-.337-.337Z" transform="translate(-582.487 -472.58)"/>
            </g>
            <g id="Grupo_1004816" data-name="Grupo 1004816" transform="translate(3.509 5.164)">
              <path id="Trazado_718032" data-name="Trazado 718032" d="M577.2,484.355a2.268,2.268,0,0,0,1.535-.534c.877-.691,2.26-.269,3.288-.4,1.88-.232,3.135-1.237,4.776-2.064.275-.138.033-.55-.241-.412-1.781.9-3.113,1.938-5.2,2.059a11.3,11.3,0,0,0-2.044-.022c-.776.193-1.258.877-2.114.892a.239.239,0,0,0,0,.477Z" transform="translate(-576.969 -480.921)"/>
            </g>
            <g id="Grupo_1004817" data-name="Grupo 1004817" transform="translate(18.368 6.543)">
              <path id="Trazado_718033" data-name="Trazado 718033" d="M608.153,484.23c.148.186.209.409.36.595.18.221.349.453.529.674.337.414.688.841,1.058,1.227.214.222.551-.116.337-.337-.375-.39-.684-.836-1.058-1.227s-.567-.863-.889-1.27c-.191-.241-.526.1-.337.338Z" transform="translate(-608.097 -483.809)"/>
            </g>
          </g>
          <g id="Grupo_1004836" data-name="Grupo 1004836" transform="translate(171.224 59.567)">
            <path id="Trazado_718034" data-name="Trazado 718034" d="M728.141,280.617c-3.216-.761-5.332-5.2-4.993-8.929s4.232-7.533,8.8-9.647,11.509-6.685,21.411-1.947S761.737,276,766.9,281s15.656,6.263,20.479,15.994-1.438,15.064,5.924,21.157,12.355,15.149,1.353,23.272-23.018,3.554-23.018,3.554-30.839-11.477-36.9-20.9c-5.331-8.293-3.3-11.085-1.946-13.624s-.338-4.909-1.946-7.532-.424-6.855,3.469-9.562" transform="translate(-648.279 -258.019)" fill="#734338"/>
            <path id="Trazado_718035" data-name="Trazado 718035" d="M749.429,315.122c.254-3.047-2.539-11.425-2.539-11.425-4.4,1.206-10.409-4.316-12.567-8s-1.105-6.067-2.285-8.759c-1.874-4.275-4.316-12.44,7.87-17.01,13.577-5.092,17.264,9.9,20.311,20.437s2.665,15.995,2.665,15.995Z" transform="translate(-652.134 -263.71)" fill="#ffab8f"/>
            <path id="Trazado_718036" data-name="Trazado 718036" d="M755.875,468.4c.169,2.708.677,6.939.677,6.939-.508,7.108-5.248,43.16-2.539,61.778,13.54,1.692,60.254.677,60.254.677-2.2-14.386-4.232-36.558-11-51.453s-9.309-19.126-9.309-19.126l-1.015-5.754S770.092,461.973,755.875,468.4Z" transform="translate(-663.995 -364.354)" fill="#0c1c24"/>
            <path id="Trazado_718037" data-name="Trazado 718037" d="M756.582,300.126c-1.106-.107-1.337,2.174.042,2.5C758.134,302.977,757.894,300.253,756.582,300.126Z" transform="translate(-665.296 -280.025)"/>
            <path id="Trazado_718038" data-name="Trazado 718038" d="M739.12,305.976c-1.106-.106-1.337,2.174.042,2.5C740.671,308.826,740.432,306.1,739.12,305.976Z" transform="translate(-656.168 -283.083)"/>
            <path id="Trazado_718039" data-name="Trazado 718039" d="M569,429.569c-1.874,1.337-2.962,2.454-1.608,3.215a2.46,2.46,0,0,0,2.539-.084c1.015,1.1,2.877.677,4.4-.423a4.567,4.567,0,0,0,4.993-.424c1.523-1.015,4.061-2.962,7.024-2.539s7.278,1.778,10.748-.084a26.372,26.372,0,0,1,12.609-3.469c5.248-.085,26.4-2.708,34.866-7.617.423-4.823-10.917-12.525-10.917-12.525-5.585,1.946-23.7,11.847-31.566,13.625s-19.04,3.894-24.88,6.348S569.6,429.145,569,429.569Z" transform="translate(-566.575 -335.165)" fill="#ffab8f"/>
            <g id="Grupo_1004819" data-name="Grupo 1004819" transform="translate(7.658 91.619)">
              <path id="Trazado_718040" data-name="Trazado 718040" d="M582.924,455.3c-.5-1.509,2.136-2.332,3.127-2.751,1.428-.6,2.643-1.6,4.111-2.117.288-.1.165-.562-.127-.461-1.854.649-3.528,1.835-5.325,2.644-1.089.491-2.718,1.4-2.247,2.812.1.29.558.166.461-.127Z" transform="translate(-582.38 -449.96)"/>
            </g>
            <g id="Grupo_1004820" data-name="Grupo 1004820" transform="translate(3.105 90.737)">
              <path id="Trazado_718041" data-name="Trazado 718041" d="M573.472,454.831c-.732-1.41,1.417-2.043,2.269-2.4.779-.327,1.515-.726,2.258-1.124,1.772-.95,3.142-2.208,5.148-2.727a.239.239,0,0,0-.127-.461c-2.5.648-4.443,2.391-6.713,3.543-1.229.623-4.3,1.375-3.246,3.409.142.274.554.032.412-.24Z" transform="translate(-572.843 -448.111)"/>
            </g>
            <path id="Trazado_718042" data-name="Trazado 718042" d="M746.588,268.569c.085,2.623.592,5.078,3.809,6.094s6.432,0,6.432,4.992.338,9.817,4.232,11.256,4.4,1.185,4.316,5.078,1.333,7.976,7.68,8.23-1.755-15.423-3.7-21.686S761.652,260.022,746.588,268.569Z" transform="translate(-660.549 -262.263)" fill="#734338"/>
            <path id="Trazado_718043" data-name="Trazado 718043" d="M705.319,373.05c-1.016-1.015,1.778-3.554,6.855-5.077.127-3.682,6.6-6.474,10.282-7.235s23.738-15.614,27.673-17.264,12.44-1.65,16.756,5.585,4.062,21.073,2.158,27.673,2.666,12.694,3.3,17.01-3.682,6.474-5.332,6.347-24.88,1.523-35.416,6.855c-2.793,1.016-8.632-4.063-8.124-12.44s-.888-11.171-.888-11.171-4.57,3.681-8.886,3.3C714.84,384.348,710.016,374.954,705.319,373.05Z" transform="translate(-638.871 -302.216)" fill="#db8363" fill-rule="evenodd"/>
            <g id="Grupo_1004821" data-name="Grupo 1004821" transform="translate(85.682 22.582)">
              <path id="Trazado_718044" data-name="Trazado 718044" d="M747.059,305.555c.132.984-.351,1.437-.941,2.122a1.424,1.424,0,0,0-.2,1.343c.233.811,1.815,1.409,2.563,1.386.307-.01.308-.487,0-.477a2.949,2.949,0,0,1-1.445-.518c-.93-.489-.8-1.232-.092-1.894a2,2,0,0,0,.591-1.962c-.041-.3-.518-.3-.477,0Z" transform="translate(-745.84 -305.328)"/>
            </g>
            <g id="Grupo_1004822" data-name="Grupo 1004822" transform="translate(88.1 14.714)">
              <path id="Trazado_718045" data-name="Trazado 718045" d="M751.193,289.511c1.229-.472,2.248.05,3.328.61.273.141.514-.27.241-.412-1.194-.62-2.337-1.18-3.7-.658-.284.109-.161.57.127.46Z" transform="translate(-750.905 -288.845)"/>
            </g>
            <g id="Grupo_1004823" data-name="Grupo 1004823" transform="translate(78.734 17.285)">
              <path id="Trazado_718046" data-name="Trazado 718046" d="M731.762,297a2.973,2.973,0,0,1,1.679-2.334c.275-.139.033-.551-.241-.412A3.413,3.413,0,0,0,731.284,297a.239.239,0,0,0,.477,0Z" transform="translate(-731.284 -294.231)"/>
            </g>
            <g id="Grupo_1004824" data-name="Grupo 1004824" transform="translate(86.734 27.138)">
              <path id="Trazado_718047" data-name="Trazado 718047" d="M748.4,317.562a11.406,11.406,0,0,1,2.934-.832c1.03-.267,1.843-1.062,2.849-1.387l-.3-.23c-.072,1.539.236,5.412-2.261,5-1.317-.215-2.056-2.138-3.093-2.883-.25-.18-.488.234-.241.412,1.221.877,2.386,3.728,4.347,2.884,1.945-.838,1.644-3.688,1.725-5.418a.24.24,0,0,0-.3-.23c-1.009.326-1.851,1.016-2.85,1.386a18.364,18.364,0,0,0-3.047.881.239.239,0,0,0,.241.412Z" transform="translate(-748.043 -314.873)"/>
            </g>
            <g id="Grupo_1004825" data-name="Grupo 1004825" transform="translate(89.73 29.585)">
              <path id="Trazado_718048" data-name="Trazado 718048" d="M754.8,322.934a5.561,5.561,0,0,1,2.217-2.48c.253-.172.015-.585-.241-.412a6.066,6.066,0,0,0-2.437,2.766c-.1.291.358.415.461.126Z" transform="translate(-754.32 -320)"/>
            </g>
            <g id="Grupo_1004826" data-name="Grupo 1004826" transform="translate(94.27 31.762)">
              <path id="Trazado_718049" data-name="Trazado 718049" d="M764.127,333.1a12.785,12.785,0,0,0,8.5-8.248c.094-.294-.367-.419-.461-.127A12.333,12.333,0,0,1,764,332.64a.239.239,0,0,0,.127.46Z" transform="translate(-763.831 -324.559)"/>
            </g>
            <g id="Grupo_1004827" data-name="Grupo 1004827" transform="translate(71.501 66.041)">
              <path id="Trazado_718050" data-name="Trazado 718050" d="M716.432,396.869c1.365-.2,2.668.708,3.808,1.33a11.06,11.06,0,0,1,2.855,2.19,11.923,11.923,0,0,1,3.359,6.828c.025.3.5.307.477,0a12.72,12.72,0,0,0-3.5-7.166,12.391,12.391,0,0,0-3.731-2.682,5.5,5.5,0,0,0-3.4-.961c-.3.046-.174.505.127.461Z" transform="translate(-716.132 -396.373)"/>
            </g>
            <g id="Grupo_1004828" data-name="Grupo 1004828" transform="translate(72.517 64.581)">
              <path id="Trazado_718051" data-name="Trazado 718051" d="M718.616,394.824c2.062-1.2,4.965-1.178,7.264-.822.3.046.43-.413.127-.461-2.434-.376-5.438-.4-7.631.871a.239.239,0,0,0,.241.412Z" transform="translate(-718.26 -393.316)"/>
            </g>
            <g id="Grupo_1004829" data-name="Grupo 1004829" transform="translate(78.516 54.899)">
              <path id="Trazado_718052" data-name="Trazado 718052" d="M731.193,402.248a17.993,17.993,0,0,0,2.877-1.533c.823-.552,1.516-1.246,2.384-1.746a17.914,17.914,0,0,1,3.422-1.267c1.2-.391,2.4-.775,3.6-1.159a81.84,81.84,0,0,0,13.214-5.118,59.28,59.28,0,0,0,11.139-7.052,30.669,30.669,0,0,0,4.5-4.757,54.737,54.737,0,0,0,3.722-6.226.239.239,0,0,0-.412-.241c-1.056,1.844-1.967,3.794-3.2,5.53a30.856,30.856,0,0,1-4.943,5.357,57.951,57.951,0,0,1-11.444,7.187,84.264,84.264,0,0,1-13.6,5.149,39.209,39.209,0,0,0-6.236,2.187,20.073,20.073,0,0,0-2.384,1.746,15.259,15.259,0,0,1-2.877,1.533c-.282.123-.039.534.241.412Z" transform="translate(-730.828 -373.031)"/>
            </g>
            <g id="Grupo_1004830" data-name="Grupo 1004830" transform="translate(116.196 59.219)">
              <path id="Trazado_718053" data-name="Trazado 718053" d="M816.977,382.194c-2.048,3.278-3.892,6.494-7.106,8.8-.248.178-.01.592.241.412,3.293-2.362,5.178-5.612,7.278-8.971.163-.262-.25-.5-.412-.241Z" transform="translate(-809.766 -382.082)"/>
            </g>
            <g id="Grupo_1004831" data-name="Grupo 1004831" transform="translate(93.766 102.494)">
              <path id="Trazado_718054" data-name="Trazado 718054" d="M763.068,480.875c1.325-.449,2.572-.987,3.929-1.356,1.517-.411,2.954-1.083,4.432-1.612a58.04,58.04,0,0,1,8.814-2.185c3.136-.6,6.239-1.253,9.423-1.542,3.048-.278,6.094-.844,9.152-.961.306-.011.308-.489,0-.477-2.927.112-5.81.705-8.729.926a82.037,82.037,0,0,0-9.077,1.426,88.994,88.994,0,0,0-9.323,2.224c-1.49.451-2.9,1.142-4.383,1.615-.7.225-1.43.369-2.135.59-.763.238-1.472.636-2.23.893-.29.1-.165.559.127.461Z" transform="translate(-762.776 -472.742)"/>
            </g>
            <g id="Grupo_1004832" data-name="Grupo 1004832" transform="translate(122.946 105.347)">
              <path id="Trazado_718055" data-name="Trazado 718055" d="M823.922,479.009a74.365,74.365,0,0,1,2.142,8.251c.28,1.244.82,2.428,1.185,3.653.413,1.39.792,2.788,1.229,4.171.849,2.693,1.786,5.357,2.578,8.067.82,2.8,1.427,5.671,2.047,8.523a89.482,89.482,0,0,1,1.625,8.968c.329,2.91.523,5.833.864,8.74.311,2.652.481,5.291.945,7.928.48,2.73.877,5.468,1.263,8.214.043.3.5.174.461-.127-.386-2.746-.763-5.488-1.263-8.214-.532-2.9-.707-5.817-1.036-8.738-.325-2.9-.518-5.811-.861-8.709-.327-2.763-.95-5.472-1.537-8.19-.616-2.854-1.244-5.715-2.047-8.523-.776-2.715-1.72-5.378-2.579-8.067-.4-1.251-.753-2.514-1.114-3.777-.391-1.363-.966-2.674-1.3-4.047-.669-2.755-1.2-5.571-2.142-8.252-.1-.288-.562-.164-.461.127Z" transform="translate(-823.908 -478.718)"/>
            </g>
            <g id="Grupo_1004833" data-name="Grupo 1004833" transform="translate(126.497 110.599)">
              <path id="Trazado_718056" data-name="Trazado 718056" d="M831.364,490.008c1.96,4.8,3.154,9.847,4.613,14.809,1.512,5.142,2.8,10.261,3.8,15.532,1.048,5.509,1.99,11.039,2.7,16.6.308,2.4.479,4.814.94,7.192.492,2.542,1.554,5.159,1.645,7.748.011.306.488.308.477,0-.078-2.229-.917-4.456-1.4-6.625-.611-2.746-.835-5.529-1.185-8.315-.684-5.45-1.615-10.867-2.631-16.264a111.507,111.507,0,0,0-3.763-15.573c-1.727-5.043-2.716-10.277-4.739-15.232-.115-.281-.577-.158-.461.126Z" transform="translate(-831.345 -489.722)"/>
            </g>
            <g id="Grupo_1004834" data-name="Grupo 1004834" transform="translate(0 93.875)">
              <path id="Trazado_718057" data-name="Trazado 718057" d="M567.928,455.542c-.713.572-1.8,1.351-1.555,2.4.222.951,1.75,1.088,2.495.987a2.542,2.542,0,0,0,.921-.362c-.369.223,1.12.628,1.2.64a3.858,3.858,0,0,0,1.809-.3,6.039,6.039,0,0,0,.749-.354,1.9,1.9,0,0,1,1.672.008c2.735.758,4.854-1.676,7.12-2.74,1.984-.931,3.884-.622,5.955-.242a20.452,20.452,0,0,0,5.637.416c.3-.029.306-.506,0-.477a28.55,28.55,0,0,1-7.406-.738,7.994,7.994,0,0,0-5.042.929c-1.71.865-3.138,2.446-5.153,2.517a4.922,4.922,0,0,1-1.756-.367c-.09-.031-.426-.262-.6-.146-1.18.8-2.879,1.6-4.111.46a.24.24,0,0,0-.289-.037,2.415,2.415,0,0,1-1.369.366,1.049,1.049,0,0,1-.863-1.822,7.591,7.591,0,0,1,.92-.8c.24-.193-.1-.528-.337-.338Z" transform="translate(-566.338 -454.686)"/>
            </g>
            <g id="Grupo_1004835" data-name="Grupo 1004835" transform="translate(118.396 39.995)">
              <path id="Trazado_718058" data-name="Trazado 718058" d="M814.536,342.284A58.762,58.762,0,0,1,820.951,345a24.714,24.714,0,0,1,4.948,3.877,9.364,9.364,0,0,1,3.043,5.277,24.2,24.2,0,0,0,1.192,5.033,7.564,7.564,0,0,0,2.764,3.164c.773.514,1.692.823,2.508,1.266a22.293,22.293,0,0,1,2.431,1.623,11.146,11.146,0,0,1,4.079,4.68c.853,2.1-.467,3.74-2.175,4.809-.261.162-.021.576.241.412a5.253,5.253,0,0,0,2.639-3.242c.317-1.447-.544-3.089-1.411-4.183a19.027,19.027,0,0,0-4.477-3.857c-2.019-1.346-4.229-1.88-5.659-3.986-1.251-1.843-1.315-4.12-1.751-6.233a9.229,9.229,0,0,0-2.794-4.826,28.963,28.963,0,0,0-4.963-4.013,41.226,41.226,0,0,0-6.9-2.974c-.288-.109-.411.352-.127.46Z" transform="translate(-814.375 -341.807)"/>
            </g>
          </g>
        </g>
      </g>
    </g>
  </g>
</svg>
