<svg xmlns="http://www.w3.org/2000/svg" width="315.848" height="315.517" viewBox="0 0 315.848 315.517">
  <g id="Grupo_1004728" data-name="Grupo 1004728" transform="translate(-37.923 -41.222)">
    <g id="Grupo_1004702" data-name="Grupo 1004702" transform="translate(37.923 99.049)">
      <g id="Grupo_1004698" data-name="Grupo 1004698">
        <g id="Grupo_1004696" data-name="Grupo 1004696" transform="translate(0 14.999)">
          <path id="Trazado_717818" data-name="Trazado 717818" d="M87.547,171.778l3.708-3.569A65.62,65.62,0,0,0,69.19,144.352l-3.1,1.889,1.171-3.013q-1.663-.923-3.342-1.66L59.181,146.4l1.525-6.067a22.338,22.338,0,0,0-10.433-1.09,13.983,13.983,0,0,0-8.313,4.518,15.278,15.278,0,0,0-3.691,7.336,18.135,18.135,0,0,0-.338,4.11,23.013,23.013,0,0,0,.564,4.352c1.318,5.909,4.872,12.264,9.94,18.217l5.822-1.975-2.831,5.264c1.247,1.271,2.56,2.527,3.934,3.73l2.539-2.475-.642,4.088q.824.678,1.673,1.334c10.176,7.85,19.507,10.677,26.32,11.512a31.965,31.965,0,0,0,11.091-.3s3.888-11.641-3.6-27.775Z" transform="translate(-37.923 -139.021)" fill="#ffd200"/>
        </g>
        <rect id="Rectángulo_347173" data-name="Rectángulo 347173" width="0.837" height="58.426" transform="translate(12.097 30.837) rotate(-46.929)" fill="#fff"/>
        <path id="Trazado_717819" data-name="Trazado 717819" d="M71.927,173.894c-2.227-3.44-4.166-12.072-4.247-12.438l.816-.182c.02.089,1.988,8.851,4.133,12.165Z" transform="translate(-45.522 -129.704)" fill="#fff"/>
        <path id="Trazado_717820" data-name="Trazado 717820" d="M68.918,186.371,68.6,185.6c3.339-1.362,9.783-.472,10.056-.433l-.116.828C78.476,185.982,72.048,185.1,68.918,186.371Z" transform="translate(-45.757 -135.722)" fill="#fff"/>
        <path id="Trazado_717821" data-name="Trazado 717821" d="M95.491,195.243c-1.908-4.423-.8-11.319-.75-11.61l.825.136c-.011.069-1.116,6.946.693,11.142Z" transform="translate(-52.338 -135.413)" fill="#fff"/>
        <g id="Grupo_1004697" data-name="Grupo 1004697" transform="translate(16.503)">
          <path id="Trazado_717822" data-name="Trazado 717822" d="M130.535,209.871s-9.062-25.182-7.93-49.595-6.041-42.744-17.747-41.319-21.9,45.6,22.655,93.558Z" transform="translate(-68.955 -118.879)" fill="#bce13e"/>
          <path id="Trazado_717823" data-name="Trazado 717823" d="M131.612,220.627l.911-.573c-.165-.261-16.45-26.507-17.081-55.458l-1.075.023C115,193.875,131.446,220.362,131.612,220.627Z" transform="translate(-73.946 -130.552)" fill="#fff"/>
          <path id="Trazado_717824" data-name="Trazado 717824" d="M119.623,234.539s-16.248-8.47-32.913-9.953-28.44-8.04-26.394-15.849,32.955-10.652,61.378,24Z" transform="translate(-60.086 -140.55)" fill="#91b31e"/>
          <path id="Trazado_717825" data-name="Trazado 717825" d="M126.575,236.272l.69-.826c-.164-.137-16.653-13.763-36.486-16.9l-.168,1.063C110.143,222.7,126.412,236.136,126.575,236.272Z" transform="translate(-67.88 -144.328)" fill="#fff"/>
        </g>
      </g>
      <g id="Grupo_1004701" data-name="Grupo 1004701" transform="translate(237.735)">
        <g id="Grupo_1004699" data-name="Grupo 1004699" transform="translate(18.687 14.999)">
          <path id="Trazado_717826" data-name="Trazado 717826" d="M392.076,171.778l-3.708-3.569a65.62,65.62,0,0,1,22.065-23.856l3.1,1.889-1.171-3.013q1.663-.923,3.342-1.66l4.741,4.832-1.525-6.067a22.338,22.338,0,0,1,10.433-1.09,13.987,13.987,0,0,1,8.313,4.518,15.291,15.291,0,0,1,3.691,7.336,18.139,18.139,0,0,1,.338,4.11,23.011,23.011,0,0,1-.564,4.352c-1.318,5.909-4.872,12.264-9.94,18.217l-5.822-1.975,2.831,5.264c-1.247,1.271-2.561,2.527-3.934,3.73l-2.539-2.475.643,4.088q-.824.678-1.672,1.334c-10.176,7.85-19.507,10.677-26.32,11.512a31.971,31.971,0,0,1-11.092-.3s-3.887-11.641,3.6-27.775Z" transform="translate(-382.273 -139.021)" fill="#ffd200"/>
        </g>
        <rect id="Rectángulo_347174" data-name="Rectángulo 347174" width="58.426" height="0.837" transform="translate(22.763 70.125) rotate(-43.071)" fill="#fff"/>
        <path id="Trazado_717827" data-name="Trazado 717827" d="M426.375,173.894c2.227-3.44,4.166-12.072,4.248-12.438l-.816-.182c-.02.089-1.988,8.851-4.133,12.165Z" transform="translate(-374.669 -129.704)" fill="#fff"/>
        <path id="Trazado_717828" data-name="Trazado 717828" d="M427.634,186.371l.316-.774c-3.339-1.362-9.783-.472-10.056-.433l.116.828C418.076,185.982,424.5,185.1,427.634,186.371Z" transform="translate(-372.682 -135.722)" fill="#fff"/>
        <path id="Trazado_717829" data-name="Trazado 717829" d="M403.863,195.243c1.908-4.423.8-11.319.75-11.61l-.825.136c.011.069,1.116,6.946-.693,11.142Z" transform="translate(-368.903 -135.413)" fill="#fff"/>
        <g id="Grupo_1004700" data-name="Grupo 1004700">
          <path id="Trazado_717830" data-name="Trazado 717830" d="M357.218,209.871s9.062-25.182,7.93-49.595,6.041-42.744,17.747-41.319,21.9,45.6-22.655,93.558Z" transform="translate(-357.189 -118.879)" fill="#bce13e"/>
          <path id="Trazado_717831" data-name="Trazado 717831" d="M362.162,220.627l-.911-.573c.165-.261,16.45-26.507,17.081-55.458l1.075.023C378.77,193.875,362.328,220.362,362.162,220.627Z" transform="translate(-358.219 -130.552)" fill="#fff"/>
          <path id="Trazado_717832" data-name="Trazado 717832" d="M359.251,234.539s16.247-8.47,32.913-9.953,28.44-8.04,26.394-15.849-32.955-10.652-61.378,24Z" transform="translate(-357.179 -140.55)" fill="#91b31e"/>
          <path id="Trazado_717833" data-name="Trazado 717833" d="M360.857,236.272l-.69-.826c.164-.137,16.653-13.763,36.486-16.9l.168,1.063C377.288,222.7,361.019,236.136,360.857,236.272Z" transform="translate(-357.942 -144.328)" fill="#fff"/>
        </g>
      </g>
    </g>
    <g id="Grupo_1004719" data-name="Grupo 1004719" transform="translate(50.817 41.222)">
      <g id="Grupo_1004704" data-name="Grupo 1004704" transform="translate(123.516 252.096)">
        <g id="Grupo_1004703" data-name="Grupo 1004703" transform="translate(0 4.029)">
          <path id="Trazado_717834" data-name="Trazado 717834" d="M254.417,426.153l9.72-40.98H221.108l10.5,41.258h.135c.654,1.048,5.461,1.863,11.3,1.863s10.648-.815,11.3-1.863h.007l0-.013a.454.454,0,0,0,.073-.232C254.427,426.175,254.418,426.165,254.417,426.153Z" transform="translate(-221.108 -385.173)" fill="#ff9a5c"/>
          <path id="Trazado_717835" data-name="Trazado 717835" d="M221.108,385.173l10.5,41.258h.135c.654,1.048,5.461,1.863,11.3,1.863.877,0,1.728-.02,2.547-.055L237.3,385.173Z" transform="translate(-221.108 -385.173)" fill="#e87c3c"/>
        </g>
        <ellipse id="Elipse_8487" data-name="Elipse 8487" cx="21.514" cy="4.156" rx="21.514" ry="4.156" transform="translate(0)" fill="#753519"/>
      </g>
      <g id="Grupo_1004705" data-name="Grupo 1004705" transform="translate(48.617 12.831)">
        <circle id="Elipse_8488" data-name="Elipse 8488" cx="96.413" cy="96.413" r="96.413" transform="translate(0)" fill="#1a6652"/>
        <path id="Trazado_717836" data-name="Trazado 717836" d="M236.334,223.339A86.193,86.193,0,0,1,193.675,62.256,96.423,96.423,0,1,0,309.6,182.551,86.122,86.122,0,0,1,236.334,223.339Z" transform="translate(-120.526 -59.424)" fill="#19614f"/>
        <path id="Trazado_717837" data-name="Trazado 717837" d="M246.49,85.186c-3.837-1.191-6.616-1.565-8.866-2.833s-4.5-2.206-6.22-2.135-5.293-.866-7.411,0-4.358,5.227-7.6,6.024-11.4-.923-13.674-2.379-2.923-4.367-2.269-5.822a12.263,12.263,0,0,0,.786-5c-.132-.951,3.309-2.818,4.5-4.068s2.317-5.323-.5-7.359A95.982,95.982,0,0,0,168.6,78.55a5.924,5.924,0,0,0,.876,2.27c.794,1.323-.48,2.117-.439,2.514s.75.351.131,1.1.011.618-.569,1.148a16.8,16.8,0,0,1-1.506,1.323c-.4.265-.265,1.059-1.059,1.985s-2.25,1.72-2.25,3.176-2.25,3.44-2.514,4.235-2.515,3.837-2.647,5.822a35.028,35.028,0,0,0,0,5.293,12.458,12.458,0,0,1-.1,3.97,30.9,30.9,0,0,0-.695,5.426c-.133,2.647.926,3.838,3.441,4.632s7.271,3.043,8.465,4.764,1.856,3.838,2.783,4.1,1.72,3.044,4.764,5.161,8.734,2.386,11.248,5.1,7.146,9.318,8.337,12.962,3.176,4.986,5.293,6.764,4.764,3.762,6.749,3.894,2.795-.7,2.721-1.408-2.588-2.827-2.985-3.355-1.191-4.1-2.382-6.617-1.323-2.617-.926-3.823,1.191-3.848,2.382-4.512,2.117-.179,2.912-1.348a3.855,3.855,0,0,0,1-2.556c-.074-.729-1.265-1.182-2.456-1.287s-1.588-1.163-3.176-1.428-3.838-.926-4.367-1.853a2.5,2.5,0,0,0-2.514-1.059c-.794.133-3.176.529-4.764-1.058s-1.72-4.632-1.984-6.22-.529-2.117-.133-3.309.4-2.124,2.25-2.981,4.9-1.526,6.749,0,5.558.334,6.352-.592,3.044-3.705,4.9-3.837,4.9,0,6.087-1.059,5.691-3.291,6.484-5.086,3.838-7,3.838-8.7,5.558-5.006,7.146-4.476,3.705-1.985,4.5-1.985,3.176.4,4.5-1.191,2.382-2.655,3.441-4.172S250.328,86.377,246.49,85.186Z" transform="translate(-130.048 -59.259)" fill="#108f6e"/>
        <path id="Trazado_717838" data-name="Trazado 717838" d="M260.02,244.095a70.049,70.049,0,0,0-8.253-4.39c-3.792-1.6-6.585-7.245-7.583-8.412s-1.8-11.343,0-13.138a43.486,43.486,0,0,0,5.094-7.183c1.491-2.395,2.09-3.991,1.491-4.988s-.6-6.663,0-7.622,3.591-2.754,4.988-2.555,5.786-1.028,7.582-.015,8.58,4.6,11.573,4.8,5.986,2.8,8.38,1.4,5.909.2,7.942,3.192,4.429,6.038,7.82,8.007,3.1,3.765,5.041,4.164,6.284,1.583,8.636,3.192,1.58,3.591-.361,5.986-4.357,6.185-5.943,8.58-1.008,5.986,0,6.983.21,5.188-1.186,6.385-4.39,3.192-5.587,5.387-1.082,3.823-3.833,4.8-8.937,3.775-12.728,4.673-6.983,1.11-9.578,3.3-2.959,8.131-5.4,9.15-9.764,5.6-12.557,5.306-2.789-.855-1.2-2.871,5.629-5.563,7.9-8.8-.722-6.36,1.274-7.67,2.344-5.2,2.967-6.347S266.963,247.9,260.02,244.095Z" transform="translate(-151.829 -93.418)" fill="#108f6e"/>
        <path id="Trazado_717839" data-name="Trazado 717839" d="M337.786,127.461c.4.813,2.527,1.744,4.123,2.542s3.1-.43,3.743-2.542,3.44-2.512,4.9-1.714a6.371,6.371,0,0,0,4.124.931c1.051-.262,3.088-1.046,3.14-1.066a96.669,96.669,0,0,0-27.852-37.64,20.773,20.773,0,0,1-2.823,3.2,9.957,9.957,0,0,0-2.609,3.719c-.451.931-1.781,4.921-1.25,6.65s.31,2.926,2.284,4.39,3.728,1.961,2.851,4.638-.212,5.539-1.144,6.968a4.8,4.8,0,0,0,1.144,6.085c2.182,1.862,4.976,1.463,5.641,1.6S337.386,126.647,337.786,127.461Z" transform="translate(-172.268 -65.99)" fill="#108f6e"/>
        <path id="Trazado_717840" data-name="Trazado 717840" d="M253.632,167.063a4.448,4.448,0,0,1-1.331,3.026c-1.33,1.2-2.66,3.326-1.33,3.592a28.761,28.761,0,0,1,4.789,1.06c.665.4,4.123,2.264,5.055,1.6s1.6-2.262,2.527-2.394,1.2-2.492,1.995-3.241,3.592-3.41,3.858-5.538.532-5.321,0-6.119-4.257-1.331-4.656-2.395-2.772-1.862-4.578-.8-2.606,3.459-2.871,5.188S253.5,164.037,253.632,167.063Z" transform="translate(-153.694 -83.195)" fill="#108f6e"/>
        <path id="Trazado_717841" data-name="Trazado 717841" d="M277.376,173.889a20.994,20.994,0,0,0-2.669,2.988c-1.1,1.566,1.884.781,2.669.938s.942,1.29,2.512.881a8.869,8.869,0,0,0,1.57-.41,11.945,11.945,0,0,1,3.3-.471c1.413-.156,1.135-1.183,1.9-2.083a1.589,1.589,0,0,0,0-2.47c-.8-.785-1.274,1.57-2.844,0s-1.518-2.919-2.957-2.244-1.066.911-1.723,1.5S277.376,173.889,277.376,173.889Z" transform="translate(-159.834 -87.15)" fill="#108f6e"/>
      </g>
      <path id="Trazado_717842" data-name="Trazado 717842" d="M274.744,237c-27.061-.552-53.144,19.975-56.39,41.3-3.247-21.328-29.33-41.855-56.39-41.3-20.319.415-33.381-9.449-35.9-11.523a96.44,96.44,0,0,0,184.579,0C308.125,227.55,295.063,237.414,274.744,237Z" transform="translate(-73.323 -88.27)" fill="#19614f" opacity="0.13" style="mix-blend-mode: multiply;isolation: isolate"/>
      <path id="Trazado_717843" data-name="Trazado 717843" d="M274.588,248.81c-27.061-.552-53.144,19.975-56.39,41.3-3.247-21.328-29.33-41.855-56.39-41.3-22.7.464-36.353-11.909-36.353-11.909,7.995,60.359,43.522,68.881,68.211,67.134a20.455,20.455,0,0,1,21.9,20.41v24.372h5.271V324.444a20.455,20.455,0,0,1,21.9-20.41c24.689,1.747,60.216-6.774,68.211-67.134C310.941,236.9,297.286,249.273,274.588,248.81Z" transform="translate(-73.168 -91.187)" fill="#bce13e"/>
      <path id="Trazado_717844" data-name="Trazado 717844" d="M244.7,312.875c20.628,1.483,48.867-4.189,62.274-41.325a57.849,57.849,0,0,1-30.322,7.72c-27.061-.552-53.144,19.975-56.391,41.3-3.247-21.328-29.33-41.855-56.39-41.3a57.857,57.857,0,0,1-30.322-7.719c13.407,37.135,41.646,42.807,62.274,41.325a20.47,20.47,0,0,1,21.8,20.5v24.293h0a5.549,5.549,0,0,0,5.053.1l.217-.1V333.371A20.47,20.47,0,0,1,244.7,312.875Z" transform="translate(-75.235 -100.035)" fill="#91b31e"/>
      <g id="Grupo_1004707" data-name="Grupo 1004707" transform="translate(220.099 2.448)">
        <circle id="Elipse_8489" data-name="Elipse 8489" cx="25.215" cy="25.215" r="25.215" transform="translate(0)" fill="#ffd200"/>
        <g id="Grupo_1004706" data-name="Grupo 1004706" transform="translate(10.035 7.666)">
          <path id="Trazado_717845" data-name="Trazado 717845" d="M380.413,87.059v.01C380.429,87.065,380.433,87.061,380.413,87.059Z" transform="translate(-368.404 -63.04)" fill="#1a6652"/>
          <path id="Trazado_717846" data-name="Trazado 717846" d="M376.262,82.5l-.024,0-.047.006-.039.005-.06.006-.06.007-.071.006-.071.007-.088.007-.087.007-.092.007-.109.007-.1.006-.122.007-.1.006-.14.006-.108,0-.146.006-.12,0-.158,0-.118,0-.185,0h-.4c-.206,0-.417,0-.631-.009l-.06,0-.254-.008-.114-.006-.206-.01-.122-.007-.2-.013-.126-.01-.189-.016-.132-.014L371.6,82.5l-.132-.017-.172-.023-.129-.02-.165-.028-.127-.023-.156-.032-.121-.027-.148-.036-.115-.031-.138-.041-.107-.035-.128-.046-.1-.039c-.039-.016-.077-.034-.115-.052s-.06-.028-.089-.042-.071-.039-.1-.06-.052-.03-.076-.045-.063-.045-.094-.068-.042-.031-.061-.047-.058-.055-.086-.083-.029-.028-.042-.042a.891.891,0,0,1-.1-.138.847.847,0,0,1-.09-.262,1.385,1.385,0,0,1-.012-.18c-.075-1.6,2.339-5.124,2.9-6.186l2.629,1.2-1.772-6.974L365.5,71.263l2.437,1.325-2.757,4.852A6.328,6.328,0,0,0,370.55,87h.173l5.518.066.054-4.573h0Z" transform="translate(-364.287 -58.46)" fill="#1a6652"/>
          <path id="Trazado_717847" data-name="Trazado 717847" d="M378.4,65.282l.009-.029.007-.022.016-.044.014-.037.023-.057.021-.052.028-.067c.01-.023.019-.047.031-.071l.029-.068c.013-.031.027-.062.041-.095l.033-.074.047-.1.039-.085.054-.118.041-.087c.021-.045.043-.093.066-.141l.038-.08.077-.158.04-.081.088-.176.036-.072.106-.207.027-.052c.138-.267.287-.544.446-.824l.017-.03.142-.246.042-.071.121-.2.056-.09.112-.181.063-.1.109-.169.068-.1c.035-.053.071-.1.106-.156.024-.035.048-.069.073-.1s.069-.1.105-.145.05-.068.075-.1.069-.092.1-.136.051-.065.077-.1.069-.086.1-.127l.078-.092c.034-.039.069-.077.1-.115l.079-.085c.034-.036.069-.071.1-.1l.079-.077c.034-.033.069-.063.1-.093l.077-.067c.035-.028.069-.054.1-.08s.051-.039.077-.057.068-.045.1-.066.05-.031.074-.045a1.162,1.162,0,0,1,.107-.051c.022-.01.045-.023.068-.031a.989.989,0,0,1,.116-.036c.018-.005.036-.013.055-.017a.937.937,0,0,1,.168-.021.856.856,0,0,1,.273.043,1.43,1.43,0,0,1,.164.074c1.451.684,3.431,4.468,4.106,5.46l-2.295,1.758,6.99,1.7,1.512-7.412-2.312,1.533-2.993-4.71a6.328,6.328,0,0,0-10.958.261l-.083.152h0l-2.644,4.843,4.014,2.192Z" transform="translate(-366.864 -54.803)" fill="#1a6652"/>
          <path id="Trazado_717848" data-name="Trazado 717848" d="M379.782,68.885l-.01,0C379.769,68.9,379.771,68.9,379.782,68.885Z" transform="translate(-368.24 -58.398)" fill="#1a6652"/>
          <path id="Trazado_717849" data-name="Trazado 717849" d="M399.971,79.174,397.2,74.2,393.2,76.431h0l0,0c.014.015.04.047.074.092l.01.014c.035.046.079.107.129.179l.018.026c.051.073.109.159.172.254l.028.042q.1.145.208.319l.031.048c.076.118.155.245.237.378l.03.049c.084.138.171.282.259.433l.022.038q.136.233.274.482l.005.008c.092.165.183.335.273.506l.023.043c.086.165.169.331.249.5l.033.067c.077.162.152.325.222.488l.034.075q.1.24.19.474l.029.079c.056.154.106.306.15.453l.02.071c.042.147.077.29.1.427,0,.02.007.04.01.06a3.089,3.089,0,0,1,.045.393c0,.015,0,.029,0,.043a1.694,1.694,0,0,1-.025.351l-.006.022a.964.964,0,0,1-.111.3.835.835,0,0,1-.182.209,1.332,1.332,0,0,1-.153.1c-1.355.86-5.607.519-6.8.562l-.264-2.88-5.169,5.006,5.465,5.231-.064-2.774,5.581-.022a6.329,6.329,0,0,0,5.621-9.41Z" transform="translate(-369.159 -59.757)" fill="#1a6652"/>
          <path id="Trazado_717850" data-name="Trazado 717850" d="M396.563,77.2l.009-.005C396.56,77.18,396.554,77.179,396.563,77.2Z" transform="translate(-372.527 -60.518)" fill="#1a6652"/>
        </g>
      </g>
      <g id="Grupo_1004710" data-name="Grupo 1004710" transform="translate(15.395)">
        <g id="Grupo_1004709" data-name="Grupo 1004709">
          <g id="Grupo_1004708" data-name="Grupo 1004708">
            <ellipse id="Elipse_8490" data-name="Elipse 8490" cx="25.215" cy="25.096" rx="25.215" ry="25.096" fill="#ffd200"/>
          </g>
        </g>
        <path id="Trazado_717851" data-name="Trazado 717851" d="M111.318,86.085H98.371V76.9H89.188V63.955h9.183V54.772h12.947v9.183H120.5V76.9h-9.184Zm-10.707-2.239h8.468V74.662h9.183V66.194h-9.183V57.011h-8.468v9.183H91.427v8.468h9.184Z" transform="translate(-79.302 -44.682)" fill="#1a6652"/>
      </g>
      <g id="Grupo_1004713" data-name="Grupo 1004713" transform="translate(0 154.216)">
        <g id="Grupo_1004711" data-name="Grupo 1004711">
          <ellipse id="Elipse_8491" data-name="Elipse 8491" cx="25.153" cy="25.033" rx="25.153" ry="25.033" fill="#ffd200"/>
        </g>
        <g id="Grupo_1004712" data-name="Grupo 1004712" transform="translate(14.005 8.154)">
          <rect id="Rectángulo_347175" data-name="Rectángulo 347175" width="9.8" height="1.336" transform="translate(5.276 29.535)" fill="#1a6652"/>
          <rect id="Rectángulo_347176" data-name="Rectángulo 347176" width="9.8" height="1.336" transform="translate(5.276 27.228)" fill="#1a6652"/>
          <path id="Trazado_717852" data-name="Trazado 717852" d="M81.245,302.03a2.084,2.084,0,0,0,2,1.531h5.619a2.086,2.086,0,0,0,2.005-1.531Z" transform="translate(-75.883 -270.188)" fill="#1a6652"/>
          <path id="Trazado_717853" data-name="Trazado 717853" d="M83.7,259.281a10.99,10.99,0,0,0-8.146,4.282c.873,1.608,2.594,3.606,5.948,5.726,5.98,3.781,3.876,10.457,3.876,10.457s-.429-2.9-6.671-3.7a9.8,9.8,0,0,1-4.662-1.648,11,11,0,0,0,2.044,3.241,8.445,8.445,0,0,1,2.3,5.665v.054a4.728,4.728,0,0,0,.524,2.163H89.523a4.726,4.726,0,0,0,.524-2.163v-.009a7.934,7.934,0,0,1,2.114-5.506A10.982,10.982,0,0,0,83.7,259.281Z" transform="translate(-74.045 -259.269)" fill="#1a6652"/>
        </g>
        <path id="Trazado_717854" data-name="Trazado 717854" d="M70.317,260.9a15.388,15.388,0,0,0,1.706,4.921,12.787,12.787,0,0,0,3.186,3.857,17.48,17.48,0,0,0,2.082,1.445,23.64,23.64,0,0,1,2.227,1.543,15.479,15.479,0,0,1,2.033,1.833,8.524,8.524,0,0,1,.868,1.083,2.6,2.6,0,0,1,.521,1.29,3.253,3.253,0,0,0-.926-.914c-.345-.264-.713-.5-1.075-.739l-1.108-.694-1.125-.672-2.261-1.34a15.9,15.9,0,0,1-2.265-1.633,11.553,11.553,0,0,1-3.194-4.581A10.843,10.843,0,0,1,70.317,260.9Z" transform="translate(-59.063 -251.532)" fill="#1a6652"/>
      </g>
      <g id="Grupo_1004718" data-name="Grupo 1004718" transform="translate(235.494 154.091)">
        <g id="Grupo_1004716" data-name="Grupo 1004716">
          <g id="Grupo_1004715" data-name="Grupo 1004715">
            <g id="Grupo_1004714" data-name="Grupo 1004714">
              <ellipse id="Elipse_8492" data-name="Elipse 8492" cx="25.215" cy="25.096" rx="25.215" ry="25.096" fill="#ffd200"/>
            </g>
          </g>
        </g>
        <g id="Grupo_1004717" data-name="Grupo 1004717" transform="translate(9.207 11.488)">
          <path id="Trazado_717855" data-name="Trazado 717855" d="M399.857,295.261l-.656-.476a49.555,49.555,0,0,1-7.521-7.076c-4.992-5.767-7.7-11.739-7.818-17.266l-.013-.591,8.784-6.274h14.449l8.783,6.274-.013.591c-.123,5.528-2.827,11.5-7.819,17.266a49.607,49.607,0,0,1-7.52,7.076Zm-13.738-24.284c.6,10.386,11,19.313,13.738,21.493,2.74-2.18,13.135-11.107,13.738-21.493l-7.229-5.164H393.348Z" transform="translate(-383.848 -263.579)" fill="#1a6652"/>
          <path id="Trazado_717856" data-name="Trazado 717856" d="M401.578,290.734c-3.449-3.029-9.867-9.535-10.99-16.858l5.315-3.8h11.348l5.316,3.8C411.444,281.2,405.026,287.7,401.578,290.734Z" transform="translate(-385.569 -265.239)" fill="#1a6652"/>
        </g>
      </g>
    </g>
    <path id="Trazado_717857" data-name="Trazado 717857" d="M356.082,445.767a15.336,15.336,0,0,1,2.885,4.324c1.121,2.579,2.285,6.178,3.189,7.064s2.6.174,2.893-1.293,1.471-12.587,1.092-15.584-.62-3.921-1.022-4.085a74.319,74.319,0,0,0-7.827-.157C355.769,436.12,352.577,441.65,356.082,445.767Z" transform="translate(-80.836 -100.805)" fill="#91b31e"/>
    <g id="Grupo_1004721" data-name="Grupo 1004721" transform="translate(215.935 225.513)">
      <path id="Trazado_717858" data-name="Trazado 717858" d="M292.434,358.291s5.3,16.706,4.84,17.412c-1.152,1.754-10.379,11.622-10.379,11.622l4.536,2.755s13.544-10.7,12.944-16.2l-6.481-17.11Z" transform="translate(-279.509 -306.088)" fill="#ff9a5c"/>
      <g id="Grupo_1004720" data-name="Grupo 1004720" transform="translate(0 70.855)">
        <path id="Trazado_717859" data-name="Trazado 717859" d="M314.034,397.748s-23.32-15.839-30.453-13.688-7.228,6.587-6.026,9.38,23.494,35.334,23.494,35.334l7.376-1.124-9.1-16.533a2.078,2.078,0,0,1,2.93-2.232l2.281,1.069,12.55-4Z" transform="translate(-276.977 -383.859)" fill="#0e1a34"/>
      </g>
      <path id="Trazado_717860" data-name="Trazado 717860" d="M329.111,305.28a10.7,10.7,0,0,0-6.915-6.531,7.9,7.9,0,0,0-14.38-4.562,10.843,10.843,0,0,0-2.714.239,10.937,10.937,0,1,0-7.343,15.923c2.459,4.526,7.4,7.945,12.411,6.4,2.791,3.6,8.09,3.965,12.589,2.305A10.727,10.727,0,0,0,329.111,305.28Z" transform="translate(-278.912 -288.708)" fill="#753519"/>
      <path id="Trazado_717861" data-name="Trazado 717861" d="M337.291,391.685s2.484,14.075-6.072,18.767-27.814,11.64-27.814,11.64l34.392,2.171-1.576,10.577s-49.988-.929-55.232-7.828,27.922-30.354,27.922-30.354Z" transform="translate(-277.858 -315.003)" fill="#0e1a34"/>
      <path id="Trazado_717862" data-name="Trazado 717862" d="M307.887,322.849s-8.8.4-11.306,7.933c-3.332,9.994.134,21.91,10.835,32.857,2.41,2.466,5.37,11.995,5.309,15.442,0,0,25.033-.372,28.38-4.973C341.1,374.108,332.942,329.242,307.887,322.849Z" transform="translate(-281.671 -297.426)" fill="#91b31e"/>
      <path id="Trazado_717863" data-name="Trazado 717863" d="M297.413,329.437s-6.533,5.818-5.97,24.67c0,0,5.845-.817,6.4-3.577Z" transform="translate(-280.662 -299.108)" fill="#91b31e"/>
      <path id="Trazado_717864" data-name="Trazado 717864" d="M326.661,353.645l-9.567,1.288s4.969,9.154,5.337,10.442-21.9,22.447-21.9,22.447-2.134,1.794-2.483,2.128v0a5.766,5.766,0,0,0-1.018,1.227,8.452,8.452,0,0,0-1.221,2.88c-.174.873.305,1.221.7,1.221s.916-.7.916-.7a2.853,2.853,0,0,0,0,1.265c.174.48,1.462-.306,1.789-1.091,0,0,.007,1.7.375,1.746s1.022-.437,1.153-1.571a10.789,10.789,0,0,0,3.16-2.268l.476-1.329c3.809-2.854,21.9-16.512,24.859-20.624C332.551,366.111,326.661,353.645,326.661,353.645Z" transform="translate(-281.777 -305.289)" fill="#ff9a5c"/>
      <path id="Trazado_717865" data-name="Trazado 717865" d="M290.593,310.445a13.854,13.854,0,0,1-.608-7.394c.888-3.609,5.962-4.807,9.712-1.681a15.011,15.011,0,0,1,4.262,5.244,1.552,1.552,0,0,1,1.847-.789c1.859.309,1.291,4.694-1.134,5.1a8.232,8.232,0,0,1-.809,3.035c1.268,2.739,1.047,3.729,1.047,3.729-.88,3.349-2.124,6.832-4.192,6.51s-.855-2.675-.718-3.761a.971.971,0,0,0-.736-1.217C294.229,320.787,290.593,310.445,290.593,310.445Z" transform="translate(-280.226 -291.482)" fill="#ff9a5c"/>
      <path id="Trazado_717866" data-name="Trazado 717866" d="M290.691,299.061s7.657,6.532,10.5,4.936C301.19,304,296.31,292.072,290.691,299.061Z" transform="translate(-280.478 -290.791)" fill="#753519"/>
      <path id="Trazado_717867" data-name="Trazado 717867" d="M308.441,405.571s-16.786,9.445-18.7,11.645" transform="translate(-280.236 -318.548)" fill="none" stroke="#fff" stroke-miterlimit="10" stroke-width="0.96"/>
      <path id="Trazado_717868" data-name="Trazado 717868" d="M312.182,322.849s15.093,3.375,20.889,21.037a15.079,15.079,0,0,1-14.352,3.864S314.671,332.246,312.182,322.849Z" transform="translate(-285.966 -297.426)" fill="#91b31e"/>
      <path id="Trazado_717869" data-name="Trazado 717869" d="M290.066,298.454s-1.5,9.952-4.694,10.61C285.372,309.064,281.241,296.858,290.066,298.454Z" transform="translate(-278.874 -291.16)" fill="#753519"/>
    </g>
    <g id="Grupo_1004727" data-name="Grupo 1004727" transform="translate(92.924 170.89)">
      <g id="Grupo_1004726" data-name="Grupo 1004726">
        <path id="Trazado_717870" data-name="Trazado 717870" d="M165.514,233.4c-7,7.654-18.06.468-12.955-8.562a5.323,5.323,0,0,1,.414-.69c6.313-8.06,4.6.837,11.34-6.162s22.756,1.174,15.636,10.26-12.524,3.064-12.524,3.064Z" transform="translate(-121.862 -215.354)" fill="#0e1a34"/>
        <g id="Grupo_1004724" data-name="Grupo 1004724" transform="translate(46.518 66.88)">
          <g id="Grupo_1004722" data-name="Grupo 1004722" transform="translate(13.899 21.707)">
            <path id="Trazado_717871" data-name="Trazado 717871" d="M193.116,343.257l-.2-4.03,31.654-.609.135,2.735Z" transform="translate(-192.917 -335.416)" fill="#ffd200"/>
            <path id="Trazado_717872" data-name="Trazado 717872" d="M231.969,340.042l-.108-2.185,5.566-3.54.43,8.7Z" transform="translate(-202.861 -334.318)" fill="#ffd200"/>
            <path id="Trazado_717873" data-name="Trazado 717873" d="M239.5,343.019c-.409.02-.836-1.91-.955-4.312s.117-4.365.526-4.385.836,1.91.955,4.312S239.913,343,239.5,343.019Z" transform="translate(-204.561 -334.319)" fill="#ec643b"/>
          </g>
          <g id="Grupo_1004723" data-name="Grupo 1004723">
            <path id="Trazado_717874" data-name="Trazado 717874" d="M180.366,321.586c-3.142-4.927-2.2-11.528,2.1-14.715s10.357-1.771,13.5,3.157l-1.3.963c-2.725-4.271-7.858-5.589-11.442-2.933s-4.284,8.292-1.559,12.565Z" transform="translate(-175.339 -305.168)" fill="#ec643b"/>
            <path id="Trazado_717875" data-name="Trazado 717875" d="M196.449,343.455a.462.462,0,0,0,.059-.048.5.5,0,0,0,.112-.231l14.73-24-14.314-12.964L174.6,323.234a.51.51,0,0,0-.219.136.541.541,0,0,0-.042.063l-.047.036.015.013c-.6,1.267,3.515,6.432,9.43,11.79s11.462,8.943,12.663,8.221l.015.013Z" transform="translate(-174.252 -305.433)" fill="#ffd200"/>
            <path id="Trazado_717876" data-name="Trazado 717876" d="M219.069,319.214c-.61.673-4.312-1.686-8.268-5.27s-6.669-7.034-6.059-7.708,4.312,1.686,8.268,5.269S219.679,318.54,219.069,319.214Z" transform="translate(-182.016 -305.411)" fill="#ec643b"/>
            <path id="Trazado_717877" data-name="Trazado 717877" d="M196.508,349.415a.5.5,0,0,0,.112-.231l9.909-16.148a24.851,24.851,0,0,1-30.906-1.952c-.479-.434-.93-.886-1.367-1.348-.083,1.593,3.9,6.481,9.485,11.543,5.915,5.358,11.462,8.943,12.663,8.221l.015.013.031-.051A.464.464,0,0,0,196.508,349.415Z" transform="translate(-174.253 -311.441)" fill="#fb0"/>
          </g>
          <path id="Trazado_717878" data-name="Trazado 717878" d="M198.575,316.663l3.71-2.949a.761.761,0,0,0,.038-1.2h0a1.128,1.128,0,0,0-1.407-.045l-3.475,2.761a.912.912,0,0,0-.045,1.39h0A.912.912,0,0,0,198.575,316.663Z" transform="translate(-180.085 -306.976)" fill="#fff"/>
          <path id="Trazado_717879" data-name="Trazado 717879" d="M189.166,320.135l-9.628,7.654a.945.945,0,0,0-.27,1.183.912.912,0,0,0,1.366.274l9.666-7.684a.911.911,0,0,0,.045-1.389h0A.911.911,0,0,0,189.166,320.135Z" transform="translate(-175.505 -308.939)" fill="#fff"/>
        </g>
        <path id="Trazado_717880" data-name="Trazado 717880" d="M166.655,436.907a10.618,10.618,0,0,0,2.395,2.684c1.533,1.2,3.741,2.6,4.178,3.364s-.336,1.774-1.369,1.713-8.687-1.2-10.628-1.976-2.518-1.1-2.559-1.394a51.27,51.27,0,0,1,1.255-5.27C160.248,435.023,164.507,433.845,166.655,436.907Z" transform="translate(-123.756 -271.424)" fill="#91b31e"/>
        <path id="Trazado_717881" data-name="Trazado 717881" d="M120.563,423.22a10.605,10.605,0,0,0,1.715,3.163c1.217,1.518,3.043,3.393,3.294,4.233s-.735,1.649-1.726,1.353-8.179-3.164-9.891-4.363-2.2-1.646-2.171-1.944a51.5,51.5,0,0,1,2.431-4.842C114.759,419.915,119.175,419.747,120.563,423.22Z" transform="translate(-111.783 -267.677)" fill="#91b31e"/>
        <path id="Trazado_717882" data-name="Trazado 717882" d="M138.253,327.059s-2.617,11.87.922,17.54,17.816,26.853,18.639,30.308-4.379,33.312-4.379,33.312l8.619.447s10.935-33.877,10.407-37.562c-1.85-12.9-9-32.8-7-44.644Z" transform="translate(-118.304 -243.725)" fill="#0e1a34"/>
        <path id="Trazado_717883" data-name="Trazado 717883" d="M151.52,252.021s4.847.478,6.018,1.451c9.078,7.542,10.587,31.292,8.914,56.83l-29.746-2.231S140.219,262.04,151.52,252.021Z" transform="translate(-118.148 -224.717)" fill="#108f6e"/>
        <path id="Trazado_717884" data-name="Trazado 717884" d="M134.329,353.125s2.571,12.511-3.736,23.979-16.566,26.877-16.566,26.877l7.358,1.512s20.776-23.122,25.073-33.609Z" transform="translate(-112.356 -250.533)" fill="#0e1a34"/>
        <g id="Grupo_1004725" data-name="Grupo 1004725" transform="translate(31.886 8.28)">
          <path id="Trazado_717885" data-name="Trazado 717885" d="M170.647,234.367c-.025.414-.853,5.569-3.224,8.166s-4.372,1.166-5.05,1.473-1,2.258-.941,3.638-2.082,2.859-4.221,1.436-1.354-8.511-1.354-8.511a8.517,8.517,0,0,1-.544-5.505s-1.176-2.574-.5-4.125,1.8-1.188,2.4-.109c0,0,2.4-4.948,6.3-4.3S170.961,229.1,170.647,234.367Z" transform="translate(-154.603 -226.473)" fill="#ff9a5c"/>
        </g>
        <path id="Trazado_717886" data-name="Trazado 717886" d="M167.647,301.94s-19.981-1.329-27.5-4.52-7.014-6.782-6.294-9.4,3.22-8.3,3.22-8.3l7.476,4.246-.013,1.569-.9,2.833s2.421,1.2,6.046,2.742,18.237,6.473,18.237,6.473S171.6,300.024,167.647,301.94Z" transform="translate(-117.32 -231.79)" fill="#ff9a5c"/>
        <path id="Trazado_717887" data-name="Trazado 717887" d="M179.906,307.265a12.67,12.67,0,0,0,3.973,2.263c.292,1.31,1.116,1.791,1.541,1.7s.223-2.087.223-2.087c.477.878,2.079,1.638,2.224,1.056a3.349,3.349,0,0,0-.155-1.479s.7.751,1.156.7.977-.515.666-1.513a9.911,9.911,0,0,0-1.781-3.216c-.7-.752-1.14-1.53-2.5-1.7a21.944,21.944,0,0,0-3.342.093,29.173,29.173,0,0,0-3.825.4Z" transform="translate(-128.714 -237.717)" fill="#ff9a5c"/>
        <path id="Trazado_717888" data-name="Trazado 717888" d="M180.761,303.669l-.086-.823s3.607-1.521,4.375-1.338,1.574,1.151,2.024,1.5S180.761,303.669,180.761,303.669Z" transform="translate(-129.375 -237.349)" fill="#ff9a5c"/>
        <path id="Trazado_717889" data-name="Trazado 717889" d="M150.516,251.527c-1.739-.069-11.147,1.995-15.373,21.97l11.591,3.135s1.649-12.76,4.085-24.835C150.847,251.656,150.674,251.533,150.516,251.527Z" transform="translate(-117.748 -224.59)" fill="#108f6e"/>
        <path id="Trazado_717890" data-name="Trazado 717890" d="M167.569,223.936a6.011,6.011,0,1,1-3.513-7.741A6.012,6.012,0,0,1,167.569,223.936Z" transform="translate(-123.056 -215.47)" fill="#0e1a34"/>
        <path id="Trazado_717891" data-name="Trazado 717891" d="M181.253,228.554a6.012,6.012,0,1,1-3.514-7.741A6.012,6.012,0,0,1,181.253,228.554Z" transform="translate(-126.55 -216.649)" fill="#0e1a34"/>
      </g>
      <path id="Trazado_717892" data-name="Trazado 717892" d="M145.162,353.523s8.768,19.541,10.734,21.694" transform="translate(-120.306 -250.635)" fill="none" stroke="#fff" stroke-miterlimit="10" stroke-width="0.96"/>
      <path id="Trazado_717893" data-name="Trazado 717893" d="M248.479,346.635c1.261,1.72.914,2.709.055,3.34s-1.908.664-3.169-1.057-1.4-5.171-1.4-5.171S247.218,344.915,248.479,346.635Z" transform="translate(-145.536 -248.139)" fill="#108f6e"/>
      <path id="Trazado_717894" data-name="Trazado 717894" d="M246.193,361.054c.217,1.611-.375,2.148-1.181,2.256s-1.52-.252-1.737-1.863a8.879,8.879,0,0,1,.95-3.973A8.878,8.878,0,0,1,246.193,361.054Z" transform="translate(-145.352 -251.644)" fill="#108f6e"/>
      <path id="Trazado_717895" data-name="Trazado 717895" d="M250.68,379c.217,1.612-.376,2.148-1.182,2.256s-1.519-.252-1.737-1.863a8.886,8.886,0,0,1,.951-3.973A8.888,8.888,0,0,1,250.68,379Z" transform="translate(-146.498 -256.226)" fill="#108f6e"/>
      <path id="Trazado_717896" data-name="Trazado 717896" d="M257.012,366.386c.337,2.5-.582,3.329-1.832,3.5s-2.355-.389-2.691-2.888,1.473-6.158,1.473-6.158S256.675,363.888,257.012,366.386Z" transform="translate(-147.701 -252.502)" fill="#108f6e"/>
    </g>
    <path id="Trazado_717897" data-name="Trazado 717897" d="M231.5,405.289l.022,0a1.064,1.064,0,0,0,.911-1.29l-1.667-7.438a1.076,1.076,0,0,0-2.1.471l1.667,7.435A1.064,1.064,0,0,0,231.5,405.289Z" transform="translate(-48.697 -90.519)" fill="#fff"/>
    <path id="Trazado_717898" data-name="Trazado 717898" d="M233.6,413.6l-.021,0a1.065,1.065,0,0,0-.911,1.29l3.419,15.251a1.076,1.076,0,0,0,2.1-.471l-3.418-15.249A1.065,1.065,0,0,0,233.6,413.6Z" transform="translate(-49.72 -95.084)" fill="#fff"/>
  </g>
</svg>
