<svg xmlns="http://www.w3.org/2000/svg" xmlns:xlink="http://www.w3.org/1999/xlink" width="304.242" height="280.204" viewBox="0 0 304.242 280.204">
  <defs>
    <linearGradient id="linear-gradient" x1="1.211" y1="0.058" x2="1.211" y2="0.964" gradientUnits="objectBoundingBox">
      <stop offset="0" stop-color="#0094d9"/>
      <stop offset="1" stop-color="#073447"/>
    </linearGradient>
    <linearGradient id="linear-gradient-2" x1="-4.451" y1="-1.069" x2="-4.451" y2="0.846" xlink:href="#linear-gradient"/>
    <linearGradient id="linear-gradient-3" x1="-1.909" y1="-0.116" x2="-1.909" y2="0.957" xlink:href="#linear-gradient"/>
    <linearGradient id="linear-gradient-4" x1="-0.401" y1="-0.212" x2="-0.401" y2="0.947" gradientUnits="objectBoundingBox">
      <stop offset="0" stop-color="#0094d9"/>
      <stop offset="0.183" stop-color="#0186c3"/>
      <stop offset="0.561" stop-color="#03628d"/>
      <stop offset="1" stop-color="#073447"/>
    </linearGradient>
    <linearGradient id="linear-gradient-5" x1="3.325" y1="-1.667" x2="3.325" y2="0.812" xlink:href="#linear-gradient"/>
  </defs>
  <g id="Grupo_1005421" data-name="Grupo 1005421" transform="translate(-43.439 -73.93)">
    <path id="Trazado_719394" data-name="Trazado 719394" d="M396.416,108.131a2.1,2.1,0,0,0-.005-2.128l-2.516-4.453-1.091,3.931-1.709-3.024,1.549-5.573,5.574,1.549,1.708,3.024L396,100.364l2.51,4.443a4.531,4.531,0,0,1-3.924,6.8h-4.768v-2.413h4.768A2.1,2.1,0,0,0,396.416,108.131Zm-22.425,1.207a4.484,4.484,0,0,0,3.924,2.266l5.1.048-2.912,2.857,3.472.032,4.129-4.052-4.052-4.128-3.473-.033,2.858,2.911-5.114-.048a2.118,2.118,0,0,1-1.846-3.177l2.384-4.13-2.089-1.206-2.384,4.129A4.486,4.486,0,0,0,373.991,109.338ZM386.249,90.52a2.1,2.1,0,0,1,1.835,1.06l2.384,4.13,2.089-1.207-2.384-4.13a4.531,4.531,0,0,0-7.848,0l-2.593,4.4-1.018-3.951-1.765,2.991,1.445,5.6,5.6-1.445,1.765-2.991-3.95,1.02,2.6-4.4A2.1,2.1,0,0,1,386.249,90.52Z" transform="translate(-110.075 -4.73)" fill="#7a5dde"/>
    <g id="Grupo_1005372" data-name="Grupo 1005372" transform="translate(121.642 97.212)">
      <g id="Grupo_1005370" data-name="Grupo 1005370" transform="translate(0)">
        <path id="Trazado_719395" data-name="Trazado 719395" d="M197.2,155.969c5.954-5.506,14.114-3.1,20.445,2.121a106.742,106.742,0,0,0-6.054-8.851c-6.06.98-16.847,1.568-22.635-.8a12.792,12.792,0,0,1-6.642-5.638c8.017-7.489,18.845-3.969,26.929,3.511a110.968,110.968,0,0,0-9.435-10.37c-9.343,1.617-21.736,2.382-26.59-5.754,10.863-10.627,27.3,5.656,16.117-3.361-4.106-3.258-3.357-2.6-8.525-3.433-8.67-1.557-17.189-4.709-20.019-13.005,8.252-4.333,17.063,1.216,22.65,8.983,5.4,7.244-1.682.629,6.764,7.437,11.955,9.644-7.653-3.875-4.034-17.554,11.4,2.057,15.93,15.185,14.123,26.383,27.717,27.807-6.906-.422,4.2-19.291,7.04,3,12.452,11.888,10.252,24.125-2.457,13.663-4.939,3.945,1.529,14.422,3.638,5.724,2.057,4.395,1.23-1.539-1.016-6.468-1.04-13.683,4.331-17.343,6.147,6.649,3.129,16.175-3.035,22.857.538.808.636,1.021,3.68,6.454,3.78,7.694-3.732-9.355,5.423-14.126,3.958,5.387.812,12.2-4.152,16.715a102.8,102.8,0,0,1,4.92,11.53c1.6,4.541,1.6,3.876.857,4.114a116.948,116.948,0,0,0-4.5-11.7c-2.716-6.063-.551-2.609-9.26-3.478-3.377-.314-6.523-1.44-8.087-4.467,4.834-3.514,10.885-1.013,15.02,3.129-.582-1.272-3.325-6.211-4.42-7.943C211.436,160.964,201.139,161.932,197.2,155.969Z" transform="translate(-160.794 -108.868)" fill="#3c9669"/>
      </g>
      <g id="Grupo_1005371" data-name="Grupo 1005371" transform="translate(109.366 17.953)">
        <path id="Trazado_719396" data-name="Trazado 719396" d="M339.265,146.893c4.182,5.514,2.936,13.229-.093,19.343,8.12-6.771,6.169-2.543,5.478-9.776-.9-9.679,2.558-19.944,11.506-20.281,2.557,8.939-1.807,17.18-8.4,23.61,11.784-7.627,8.161-2.8,9.375-9.676,1.441-8.258,6.331-15.806,14.281-14.046.54,13.555-14.787,18.093-5.29,14.251,5.912-2.341.957.35,5.732-4.17,5.8-5.649,13.3-7.232,18.073-1.082-5.836,11.594-17.9,3.782-22.274,5.29-9.315,3.223-4.189,1.653-1.355,1.606,5.393-.055,9.28,2.935,11.6,7.854-4.867,6.041-14.184-.189-21-4.75a89.166,89.166,0,0,0-10.226,6.131c8.981-4.509,18.052-2.68,23.031,6.742-4.732,5.208-13.585.156-20.238-3.744-4.871-2.851-2.771-3.087-7.155.2-10.15,7.858,5.8-5.61,14.5,8.923-2.678,2.356-7.084.474-10.262-1.139-10.166-5.23-5.732-6.809-11.738-1.239-4.2,4.321,5.482-4.7,12.552,4.573-2.929,3.159-10.429-.719-14.027-3.057-7.065,7-7.33,9.788-8.408,9,11.524-14.837,7.887-5.016,5-16.014-.8-3.118-.6-6.385,2.046-8.2,3.622,3.8,3.371,9.171,1.6,14.161.722-.782,3.777-3.631,4.932-4.6C334.9,160.153,332.652,150.491,339.265,146.893Z" transform="translate(-324.914 -135.809)" fill="#3c9669"/>
      </g>
    </g>
    <path id="Trazado_719397" data-name="Trazado 719397" d="M134.8,174.98c3.838.353,5.347.654,7.248-1.961a4.886,4.886,0,0,1,5.6-1.379c.8-1.3,2.747-1.946,4.572-1.735a3.277,3.277,0,0,0,2.948-1.06,8.783,8.783,0,0,1,7.138-2.993c3.858.137,7.224,2.65,7.164,5.349,4.566-1.132,6.3,3.578,14.564,2.633a8.246,8.246,0,0,1,3.741.574,25.372,25.372,0,0,0,9.6,1.671c-1.486.044-52.877-.031-64.186-.011-1.051,0-1.115-1.095-.066-1.142A12.418,12.418,0,0,1,134.8,174.98Z" transform="translate(-29.668 -30.665)" fill="#fff"/>
    <g id="Grupo_1005373" data-name="Grupo 1005373" transform="translate(88.759 243.505)">
      <path id="Trazado_719398" data-name="Trazado 719398" d="M211.248,365.351s-4.062-.662-7.5-5.52l41.52-1.162c6.142-.171,24.256-3.51,24.5-14.37s-24.475-14.651-33.512-10.152-27.826-.873-57.2-5.006-52.565,10.2-61.411,14.459-11.25,36.413,13.573,55.065l51.851-10.416Z" transform="translate(-111.449 -328.402)" fill="#ba4a2b"/>
      <path id="Trazado_719399" data-name="Trazado 719399" d="M301.37,336.546c6.644,1.863,11.985,5.394,11.87,10.471-.246,10.86-18.36,14.2-24.5,14.37l-41.52,1.162c-4.644-5.769-5.47-9.992-5.47-9.992l47.529-1.33C297.291,351,305.273,337.718,301.37,336.546Z" transform="translate(-154.919 -331.119)" fill="#903b22"/>
    </g>
    <g id="Grupo_1005388" data-name="Grupo 1005388" transform="translate(81.607 81.97)">
      <g id="Grupo_1005374" data-name="Grupo 1005374" transform="translate(0 0)">
        <circle id="Elipse_8526" data-name="Elipse 8526" cx="90.811" cy="90.811" r="90.811" transform="translate(0 128.427) rotate(-45)" fill="#073447"/>
        <path id="Trazado_719400" data-name="Trazado 719400" d="M186.212,232H157.179c-.005.419-.016.837-.016,1.257s.011.838.016,1.257h29.033a149.4,149.4,0,0,0,3.953,33.04,125.213,125.213,0,0,0,7.7,22.851,57.9,57.9,0,0,0-12.838,8.3q.913.879,1.847,1.733a58.025,58.025,0,0,1,12.076-7.7,89.289,89.289,0,0,0,18.647,26.123q2.919,1.037,5.925,1.879c-10.155-8.287-17.292-18.687-22.3-29.081,9.033-4.115,24.137-8.937,45.5-9.12V324.05c.418.006.837.016,1.257.016s.838-.01,1.257-.016V282.53c12.18.107,29.507,1.839,45.5,9.125-5.009,10.391-12.145,20.79-22.3,29.075q3-.838,5.914-1.875a89.525,89.525,0,0,0,18.669-26.123,57.572,57.572,0,0,1,12.065,7.7q.937-.852,1.847-1.732a57.9,57.9,0,0,0-12.826-8.29,123.716,123.716,0,0,0,7.682-22.858,149.423,149.423,0,0,0,3.954-33.04H338.77c.005-.419.016-.836.016-1.257s-.011-.838-.016-1.257H309.738a149.423,149.423,0,0,0-3.954-33.04,125.172,125.172,0,0,0-7.7-22.85,57.945,57.945,0,0,0,12.839-8.3q-.913-.879-1.848-1.734a57.983,57.983,0,0,1-12.075,7.7,89.3,89.3,0,0,0-18.647-26.124q-2.918-1.036-5.925-1.878c10.155,8.287,17.293,18.687,22.3,29.081-9.033,4.114-24.137,8.936-45.5,9.12V142.459c-.418-.006-.837-.016-1.257-.016s-.838.01-1.257.016v41.519c-12.171-.107-29.5-1.834-45.5-9.122,5.009-10.393,12.146-20.792,22.3-29.077q-3,.837-5.914,1.875a89.518,89.518,0,0,0-18.669,26.122,57.971,57.971,0,0,1-12.065-7.7q-.937.854-1.848,1.734a57.9,57.9,0,0,0,12.825,8.29,123.808,123.808,0,0,0-7.682,22.857A149.447,149.447,0,0,0,186.212,232Zm63.02,2.514h57.992a146.7,146.7,0,0,1-3.9,32.53,122.656,122.656,0,0,1-7.5,22.281c-10.122-4.617-25.4-9.135-46.586-9.309Zm0-48.016c21.182-.174,36.464-4.692,46.586-9.309a122.64,122.64,0,0,1,7.5,22.281,146.692,146.692,0,0,1,3.9,32.529H249.232Zm-60.506,48.016h57.992v45.5c-21.182.173-36.464,4.692-46.586,9.309a122.643,122.643,0,0,1-7.5-22.282A146.648,146.648,0,0,1,188.726,234.511Zm3.9-35.044a122.638,122.638,0,0,1,7.5-22.281c10.122,4.617,25.4,9.135,46.586,9.309V232H188.726A146.649,146.649,0,0,1,192.628,199.468Z" transform="translate(-119.548 -104.828)" fill="#0073a7"/>
        <path id="Trazado_719401" data-name="Trazado 719401" d="M160.571,225.037c-2.073,32.411,35.378,67.5,77.589,67.5,66.339,0,98.434-62.7,79.823-100.618a90.783,90.783,0,1,1-157.412,33.12Z" transform="translate(-119.548 -121.333)" fill="#0073a7" opacity="0.5" style="mix-blend-mode: multiply;isolation: isolate"/>
      </g>
      <g id="Grupo_1005387" data-name="Grupo 1005387" transform="translate(70.507 12.264)">
        <g id="Grupo_1005386" data-name="Grupo 1005386">
          <path id="Trazado_719402" data-name="Trazado 719402" d="M206.522,156.69c5.3-1.721,7.971-2.48,13.353-3.8-.953-3.9-1.429-5.847-2.383-9.746,5.3-1.321,10.731-2.41,16.13-3.236q4.024,25.555,8.047,51.109a145.138,145.138,0,0,0-22.281,5.268ZM317.447,130.2q-9.926-2.589-20.071-4.2L287.02,191.058a145.166,145.166,0,0,1,22.02,5.3l13.322-41c-4.236-1.377-6.37-2-10.661-3.119Q314.573,141.216,317.447,130.2Zm-59.815-8.269c-6.5.2-9.753.427-16.229,1.127q3.621,33.519,7.244,67.039a196.166,196.166,0,0,1,25.1-.526l4.888-74.26q-10.594-.7-21.223-.369C257.5,117.736,257.546,119.133,257.633,121.929Z" transform="translate(-206.522 -107.881)" fill="#073447"/>
          <g id="Grupo_1005385" data-name="Grupo 1005385" transform="translate(10.835)">
            <g id="Grupo_1005376" data-name="Grupo 1005376" transform="translate(6.419)">
              <path id="Trazado_719403" data-name="Trazado 719403" d="M238.135,120.922s2.013-6.732,8.457-7.848c.412-.051.619-.076,1.032-.125,6.523-.452,10.07,5.608,10.07,5.608,1.379.584,2.064.882,3.423,1.487q2.04,34.414,4.08,68.829A132.366,132.366,0,0,0,247.6,191q-6.222-33.908-12.445-67.817C236.335,122.271,236.932,121.818,238.135,120.922Z" transform="translate(-233.328 -107.244)" fill="#073447"/>
              <path id="Trazado_719404" data-name="Trazado 719404" d="M235.374,118.395s1.955-6.75,8.391-7.921c-.111-2.43-.164-3.644-.264-6.075.524,2.376.783,3.564,1.295,5.941,6.521-.509,10.12,5.52,10.12,5.52,1.384.572,2.072.864,3.436,1.457l4.676,68.79a132.48,132.48,0,0,0-17.581,2.281l-13.034-67.706C233.586,119.759,234.178,119.3,235.374,118.395Z" transform="translate(-232.413 -104.399)" fill="url(#linear-gradient)"/>
              <g id="Grupo_1005375" data-name="Grupo 1005375" transform="translate(6.14 16.434)">
                <path id="Trazado_719405" data-name="Trazado 719405" d="M253.378,129.327c1.057-.114,1.586-.167,2.644-.267.343,3.62.515,5.43.858,9.051-1.012.1-1.518.147-2.529.256Zm-4.658,9.726c1.009-.137,1.513-.2,2.524-.327l-1.113-9.023c-1.056.13-1.583.2-2.637.342Zm-5.614.844c1.006-.165,1.509-.245,2.516-.4-.546-3.6-.82-5.393-1.365-8.989-1.053.16-1.578.243-2.629.416C242.219,134.515,242.515,136.31,243.106,139.9Z" transform="translate(-241.627 -129.06)" fill="#81d5b0"/>
                <path id="Trazado_719406" data-name="Trazado 719406" d="M244.4,147.818c5.427-.894,8.154-1.247,13.618-1.766.143,1.507.214,2.26.357,3.768-5.36.508-8.036.855-13.36,1.733C244.773,150.059,244.65,149.312,244.4,147.818Zm1.539,9.336c5.17-.852,7.768-1.189,12.972-1.683-.143-1.507-.214-2.26-.357-3.768-5.308.5-7.958.846-13.231,1.716C245.573,154.913,245.7,155.66,245.943,157.154Zm.924,5.6c5.016-.826,7.535-1.153,12.585-1.632-.143-1.507-.215-2.26-.357-3.768-5.154.488-7.725.822-12.844,1.666C246.5,160.514,246.62,161.261,246.866,162.755Zm.924,5.6c4.861-.8,7.3-1.118,12.2-1.582-.143-1.507-.215-2.26-.357-3.768-5,.474-7.492.8-12.456,1.615C247.421,166.116,247.543,166.863,247.79,168.356Zm.924,5.6c4.707-.776,7.072-1.082,11.81-1.532-.143-1.507-.215-2.26-.358-3.768-4.842.459-7.259.772-12.068,1.565C248.344,171.718,248.467,172.464,248.713,173.958Zm.924,5.6c4.552-.75,6.839-1.046,11.422-1.481-.143-1.507-.215-2.26-.357-3.768-4.687.444-7.026.748-11.681,1.515C249.267,177.318,249.39,178.065,249.637,179.559Z" transform="translate(-242.553 -134.729)" fill="#0094d9"/>
              </g>
            </g>
            <g id="Grupo_1005377" data-name="Grupo 1005377" transform="translate(69.664 45.939)">
              <path id="Trazado_719407" data-name="Trazado 719407" d="M327.322,210.576c2.544.405,3.812.636,6.34,1.154q3.788-18.469,7.575-36.938c-3.185-.653-4.784-.944-7.989-1.454Q330.285,191.957,327.322,210.576Z" transform="translate(-327.322 -173.338)" fill="#073447"/>
              <path id="Trazado_719408" data-name="Trazado 719408" d="M336.629,212.412c4.589.936,6.872,1.5,11.392,2.809q5.25-18.108,10.5-36.215c-5.7-1.652-8.572-2.36-14.354-3.54Z" transform="translate(-330.427 -174.048)" fill="url(#linear-gradient-2)"/>
              <path id="Trazado_719409" data-name="Trazado 719409" d="M359.775,182.6c.546.147.82.223,1.365.374l-1.494,5.362c-.529-.148-.794-.221-1.323-.363C358.9,185.825,359.194,184.751,359.775,182.6ZM355.1,188.05c.529.133.793.2,1.321.338l1.4-5.387c-.545-.142-.818-.211-1.363-.349Zm.654,6.914c.508.135.762.2,1.268.343l1.473-5.368c-.524-.143-.786-.215-1.31-.354Zm-3.113.2c.506.125.76.189,1.265.318.55-2.157.826-3.235,1.377-5.392-.522-.133-.784-.2-1.307-.329Zm1.661,7.7c.483.131.724.2,1.207.331.6-2.145.9-3.217,1.493-5.362-.5-.139-.749-.208-1.249-.343Zm-2.532-.188c.483.123.724.185,1.207.311l1.409-5.384c-.5-.131-.749-.195-1.249-.322C352.59,199.433,352.316,200.512,351.77,202.67Z" transform="translate(-335.478 -176.429)" fill="#0094d9"/>
            </g>
            <g id="Grupo_1005379" data-name="Grupo 1005379" transform="translate(48.728 12.827)">
              <path id="Trazado_719410" data-name="Trazado 719410" d="M304.751,192.548c6.792.528,13.247,1.325,19.964,2.466q5.643-28.979,11.286-57.96a256.8,256.8,0,0,0-27.583-12.974Z" transform="translate(-298.856 -123.792)" fill="url(#linear-gradient-3)"/>
              <g id="Grupo_1005378" data-name="Grupo 1005378" transform="translate(6.874 14.334)">
                <path id="Trazado_719411" data-name="Trazado 719411" d="M307.766,174.773a243.483,243.483,0,0,1,24.515,3.04c.1-.5.145-.743.241-1.238a245.184,245.184,0,0,0-24.688-3.062C307.807,174.017,307.793,174.269,307.766,174.773Z" transform="translate(-306.736 -154.618)" fill="#81d5b0"/>
                <path id="Trazado_719412" data-name="Trazado 719412" d="M308.348,145.158a198.846,198.846,0,0,1,27.275,3.383l-.241,1.238a197.6,197.6,0,0,0-27.1-3.361Zm-.275,5.039a264.032,264.032,0,0,1,26.585,3.3c.1-.5.145-.743.241-1.238a265.929,265.929,0,0,0-26.758-3.319C308.115,149.441,308.1,149.693,308.074,150.2Zm-.206,3.779a258.664,258.664,0,0,1,26.067,3.233l.241-1.239a260.708,260.708,0,0,0-26.24-3.254C307.909,153.22,307.9,153.472,307.868,153.976Zm-.206,3.779a253.687,253.687,0,0,1,25.55,3.168c.1-.5.145-.743.241-1.238a255.533,255.533,0,0,0-25.723-3.19C307.7,157,307.689,157.251,307.662,157.755Zm-.206,3.779a248.482,248.482,0,0,1,25.033,3.1l.241-1.238a250.357,250.357,0,0,0-25.205-3.126Zm-.412,7.558a202.04,202.04,0,0,1,24,2.976l.241-1.239a240.127,240.127,0,0,0-24.171-3C307.085,168.336,307.072,168.588,307.044,169.092Zm-.206,3.779a171.752,171.752,0,0,1,23.481,2.911c.1-.5.145-.743.241-1.238a173.227,173.227,0,0,0-23.654-2.933C306.879,172.115,306.865,172.367,306.838,172.871Zm-.206,3.779A168.005,168.005,0,0,1,329.6,179.5l.241-1.238A169.355,169.355,0,0,0,306.7,175.39Zm-.206,3.779a164.263,164.263,0,0,1,22.446,2.783c.1-.5.145-.743.241-1.238a165.509,165.509,0,0,0-22.619-2.805C306.467,179.673,306.453,179.925,306.426,180.429Zm-.206,3.779a160.38,160.38,0,0,1,21.928,2.719l.241-1.239a161.747,161.747,0,0,0-22.1-2.741C306.261,183.452,306.247,183.7,306.22,184.208Z" transform="translate(-306.22 -145.158)" fill="#0094d9"/>
              </g>
              <path id="Trazado_719413" data-name="Trazado 719413" d="M295.9,192.208c2.415.031,3.622.072,6.035.2q1.867-34.232,3.733-68.464c-3.553-.194-5.332-.253-8.889-.3Q296.344,157.928,295.9,192.208Z" transform="translate(-295.905 -123.648)" fill="#073447"/>
            </g>
            <g id="Grupo_1005382" data-name="Grupo 1005382" transform="translate(30.539 23.178)">
              <g id="Grupo_1005380" data-name="Grupo 1005380">
                <path id="Trazado_719414" data-name="Trazado 719414" d="M273.017,200.166a132.309,132.309,0,0,1,16.278-.426q.8-26.791,1.61-53.584a198.807,198.807,0,0,0-22.294.582Q270.813,173.452,273.017,200.166Z" transform="translate(-268.61 -141.478)" fill="#073447"/>
                <path id="Trazado_719415" data-name="Trazado 719415" d="M275.34,144.117c5.249-.311,7.879-.379,13.136-.343.013-1.833.019-2.75.032-4.583-5.378-.037-8.068.033-13.439.351C275.178,141.372,275.232,142.287,275.34,144.117Z" transform="translate(-270.765 -139.181)" fill="#073447"/>
              </g>
              <path id="Trazado_719416" data-name="Trazado 719416" d="M274.827,144.107c-.084-1.609-.143-2.907-.233-4.582,5.371-.287,8.061-.341,13.438-.272-.021,1.668-.045,2.984-.067,4.588,1.467.019,2.933.049,4.4.1q-.937,26.788-1.873,53.576a132.256,132.256,0,0,0-16.275.346q-2.072-26.724-4.145-53.449C271.655,144.292,273.24,144.193,274.827,144.107Z" transform="translate(-269.097 -139.196)" fill="url(#linear-gradient-4)"/>
              <g id="Grupo_1005381" data-name="Grupo 1005381" transform="translate(3.518 7.914)">
                <path id="Trazado_719417" data-name="Trazado 719417" d="M276.175,186.168c-.077-1.164-.115-1.746-.191-2.91,2.368-.156,3.554-.212,5.926-.282.035,1.166.051,1.749.086,2.916C279.666,185.96,278.5,186.016,276.175,186.168Zm7.364,1.407c-.023-1.167-.035-1.75-.058-2.917,2.348-.047,3.522-.049,5.87-.01-.019,1.167-.029,1.75-.048,2.916C287,187.528,285.845,187.53,283.539,187.576Zm-7.713-6.718-.191-2.911c2.446-.161,3.67-.219,6.119-.291.035,1.166.051,1.749.086,2.915C279.433,180.643,278.229,180.7,275.826,180.858Zm7.607,1.4c-.023-1.167-.035-1.75-.058-2.917,2.425-.048,3.638-.05,6.063-.011-.019,1.167-.029,1.75-.048,2.917C287.008,182.2,285.816,182.207,283.433,182.254Zm-7.957-6.707c-.076-1.164-.115-1.747-.191-2.911,2.524-.166,3.786-.226,6.313-.3.035,1.166.051,1.749.086,2.915C279.2,175.325,277.958,175.384,275.477,175.547Zm7.851,1.386c-.023-1.167-.035-1.75-.059-2.917,2.5-.049,3.754-.052,6.256-.011-.019,1.167-.029,1.75-.047,2.917C287.018,176.882,285.788,176.884,283.328,176.933Zm-8.2-6.7-.191-2.91c2.6-.171,3.9-.233,6.505-.309.034,1.166.051,1.749.085,2.915C278.966,170.008,277.686,170.068,275.128,170.236Zm8.094,1.376c-.023-1.167-.035-1.75-.059-2.916,2.58-.051,3.87-.054,6.449-.011-.019,1.166-.029,1.75-.047,2.916C287.028,171.56,285.759,171.562,283.222,171.612Zm-8.443-6.686-.191-2.91c2.677-.176,4.018-.24,6.7-.319.034,1.166.051,1.749.085,2.915C278.733,164.69,277.414,164.753,274.779,164.926Zm8.337,1.365c-.023-1.166-.035-1.75-.059-2.916,2.657-.053,3.986-.055,6.642-.012-.019,1.167-.029,1.75-.048,2.917C287.038,166.237,285.73,166.239,283.116,166.291Zm-8.686-6.676-.191-2.911c2.754-.181,4.133-.247,6.891-.327.034,1.166.051,1.749.085,2.915C278.5,159.373,277.143,159.437,274.43,159.616Zm8.58,1.355c-.023-1.166-.035-1.75-.058-2.916,2.733-.055,4.1-.057,6.835-.012-.019,1.166-.029,1.75-.048,2.916C287.048,160.914,285.7,160.917,283.01,160.97Zm-8.929-6.665c-.077-1.164-.115-1.747-.191-2.911,2.831-.186,4.249-.253,7.084-.337.034,1.166.051,1.749.085,2.915C278.267,154.055,276.871,154.122,274.081,154.305Zm8.823,1.344c-.023-1.166-.035-1.749-.058-2.916,2.811-.056,4.217-.059,7.028-.013-.019,1.167-.029,1.75-.048,2.917C287.058,155.592,285.673,155.595,282.9,155.649Z" transform="translate(-273.89 -151.058)" fill="#0094d9"/>
              </g>
            </g>
            <g id="Grupo_1005384" data-name="Grupo 1005384" transform="translate(0 54.956)">
              <path id="Trazado_719418" data-name="Trazado 719418" d="M237.969,217.437c3.691-.9,5.549-1.292,9.279-1.949q-2.522-14.31-5.043-28.62c-4.477.789-6.707,1.257-11.139,2.34Q234.518,203.323,237.969,217.437Z" transform="translate(-225.545 -186.868)" fill="#073447"/>
              <path id="Trazado_719419" data-name="Trazado 719419" d="M230.6,219.182c3.668-1.026,5.515-1.477,9.227-2.257q-2.988-14.219-5.975-28.439c-4.456.936-6.674,1.478-11.077,2.709Q226.693,205.188,230.6,219.182Z" transform="translate(-222.781 -187.408)" fill="url(#linear-gradient-5)"/>
              <g id="Grupo_1005383" data-name="Grupo 1005383" transform="translate(2.238 2.382)">
                <path id="Trazado_719420" data-name="Trazado 719420" d="M226.139,192.932c1-.267,1.5-.4,2.5-.647.207.822.31,1.233.516,2.054-.988.248-1.481.376-2.467.639ZM233.083,199c.96-.225,1.44-.333,2.4-.543l-.451-2.07c-.975.213-1.461.323-2.433.55C232.793,197.758,232.89,198.17,233.083,199Z" transform="translate(-226.139 -191.057)" fill="#81d5b0"/>
                <path id="Trazado_719421" data-name="Trazado 719421" d="M231.711,191.01c1-.235,1.506-.348,2.512-.568.181.828.271,1.241.452,2.07-.994.217-1.49.329-2.481.56C232,192.247,231.9,191.835,231.711,191.01Zm1.1,4.717c.976-.228,1.464-.339,2.442-.552-.181-.828-.271-1.242-.452-2.07-.99.216-1.485.328-2.472.559C232.525,194.489,232.622,194.9,232.814,195.726ZM227.74,197c.97-.259,1.455-.385,2.428-.628-.206-.822-.309-1.233-.516-2.054-.985.247-1.476.375-2.458.636Zm.7,2.634c.954-.255,1.431-.378,2.388-.618l-.516-2.054c-.969.243-1.453.368-2.419.626Zm5.612,1.4c.944-.221,1.417-.327,2.363-.534-.181-.828-.271-1.242-.452-2.07-.959.209-1.437.318-2.394.541C233.766,199.8,233.863,200.209,234.056,201.034Zm-4.909,1.229c.938-.251,1.408-.373,2.349-.608-.207-.822-.309-1.233-.516-2.054-.954.239-1.429.363-2.38.616Zm5.53,1.425c.928-.217,1.393-.323,2.323-.525l-.452-2.07c-.943.206-1.413.313-2.354.532C234.387,202.451,234.484,202.863,234.677,203.688ZM229.85,204.9c.922-.247,1.384-.367,2.31-.6l-.516-2.054c-.938.235-1.405.357-2.34.606Zm5.448,1.445c.912-.213,1.369-.317,2.284-.516l-.452-2.07c-.927.2-1.389.307-2.314.523C235.008,205.1,235.1,205.517,235.3,206.342Zm-4.745,1.188c.906-.242,1.361-.36,2.27-.588-.207-.822-.31-1.233-.516-2.054-.922.231-1.382.351-2.3.6Z" transform="translate(-226.491 -190.442)" fill="#0094d9"/>
              </g>
            </g>
          </g>
        </g>
      </g>
    </g>
    <g id="Grupo_1005393" data-name="Grupo 1005393" transform="translate(43.439 224.769)">
      <g id="Grupo_1005389" data-name="Grupo 1005389" transform="translate(0 33.935)">
        <path id="Trazado_719422" data-name="Trazado 719422" d="M116.471,406.055c-15.5,0-73.032,40.586-73.032,40.586V376.588s31.475-16.065,51.52-25.377Z" transform="translate(-43.439 -351.211)" fill="#ba4a2b"/>
        <path id="Trazado_719423" data-name="Trazado 719423" d="M88.574,424.263a13.3,13.3,0,0,1,14.254,1.874A18.159,18.159,0,0,0,116.471,430c-15.5,0-73.032,40.586-73.032,40.586V445.24Z" transform="translate(-43.439 -375.156)" fill="#903b22"/>
      </g>
      <g id="Grupo_1005392" data-name="Grupo 1005392" transform="translate(49.826)">
        <g id="Grupo_1005390" data-name="Grupo 1005390" transform="translate(130.579 70.703)">
          <path id="Trazado_719424" data-name="Trazado 719424" d="M314.165,429.965s17.464,1.149,27.288,2.29c9.271,1.076,26.543-8.578,59.563-10.736a3.538,3.538,0,0,0,2.73-5.457h0a21.22,21.22,0,0,0-17.806-9.676H363.733Z" transform="translate(-314.165 -406.387)" fill="#ba4a2b"/>
          <path id="Trazado_719425" data-name="Trazado 719425" d="M337.025,422.591l34.066-16.2H393.3a21.2,21.2,0,0,1,8.984,2c-12.015-4.622-40.5,14.692-66.061,18.373Z" transform="translate(-321.523 -406.387)" fill="#903b22"/>
        </g>
        <g id="Grupo_1005391" data-name="Grupo 1005391" transform="translate(90.708 32.047)">
          <path id="Trazado_719426" data-name="Trazado 719426" d="M254.332,420.089c15.952-.446,32.928-10.242,66.255-14.5a16.753,16.753,0,0,0,8.973-4.056l51.612-45.616a4.022,4.022,0,0,0-1.8-6.942h0a25.754,25.754,0,0,0-20.584,4.281l-38.19,27.585-26.071.022Z" transform="translate(-254.332 -348.378)" fill="#ba4a2b"/>
          <path id="Trazado_719427" data-name="Trazado 719427" d="M282.918,424.874l47.213-27.782-26.07.022Z" transform="translate(-263.869 -364.63)" fill="#903b22"/>
        </g>
        <path id="Trazado_719428" data-name="Trazado 719428" d="M261.975,352.8l30.016-46.933a12.1,12.1,0,0,1,12.545-5.349h0a5.213,5.213,0,0,1,3.682,7.381l-26.045,53.949a21.415,21.415,0,0,1-7.149,8.333l-46.165,31.75a12.21,12.21,0,0,1-10.615,1.579c-13.639-4.327-47.8-14.851-56.6-14.6Z" transform="translate(-132.7 -300.287)" fill="#ba4a2b"/>
        <path id="Trazado_719429" data-name="Trazado 719429" d="M310.426,351.051,301,376.013a14.824,14.824,0,0,1-5.47,6.978l-23.921,16.445-.555-19.83h0l27.426-9.868Z" transform="translate(-169.201 -317.223)" fill="#903b22"/>
        <path id="Trazado_719430" data-name="Trazado 719430" d="M257.936,307.678a3.365,3.365,0,0,1,3.129,4.193c-1.537,6.027-4.577,17.59-7.35,26.024C249.8,349.8,245.9,359.82,243.208,364.849c-1.722,3.22-12.777,12.4-20.512,18.6a28.677,28.677,0,0,1-17.124,6.285l-65.145,1.823a18.57,18.57,0,0,1-14.046-5.729c-4.911-5.2-10.12-13.649-7.441-24.578,4.659-19.005,51.3-13.156,76.39,6.513l30.47-15.637,11.985-18.58,7.268-17.618a13.351,13.351,0,0,1,12.882-8.248Z" transform="translate(-118.211 -302.749)" fill="#ba4a2b"/>
      </g>
    </g>
    <path id="Trazado_719431" data-name="Trazado 719431" d="M113.138,290.416c1.132-.751,4.246-3.944,7.962-3.4,5.207.766,8.552,4.646,11.37-1.357.367-.782,1.893-6.019,7.041-4.783,2.276.547,4.194,2.369,5.618,4.5,2.717-13.172,18.058-14.756,25.036-7.42a13.288,13.288,0,0,0,9.205,4.479,6.959,6.959,0,0,1,3.662,1.118c3.14,2.041,5.74,7.494,9.794,6.538,1.915-.451,3.2-2.485,4.895-3.621,4.062-2.731,8.09.652,10.727,2.939,6.133,5.322,6.605-2.8,10.535,3.127-79.289.1-111.931.241-122.476.179C98.629,287.7,105.589,295.423,113.138,290.416Z" transform="translate(-17.704 -66.615)" fill="#fff"/>
    <path id="Trazado_719432" data-name="Trazado 719432" d="M299.878,225.7c8.075.743,11.25,1.376,15.25-4.126,2.76-3.8,8.108-4.314,11.775-2.9,1.687-2.737,5.78-4.094,9.619-3.65a6.889,6.889,0,0,0,6.2-2.23c2.819-3.808,8.83-6.519,15.019-6.3,8.118.289,15.2,5.576,15.075,11.254,9.607-2.381,13.26,7.528,30.643,5.54a17.337,17.337,0,0,1,7.871,1.208c7.335,2.7,11.9,3.329,20.191,3.514-3.127.093-111.255-.065-135.049-.022-2.211,0-2.346-2.3-.139-2.4A26.141,26.141,0,0,1,299.878,225.7Z" transform="translate(-83.841 -44.221)" fill="#fff"/>
    <g id="Grupo_1005405" data-name="Grupo 1005405" transform="translate(126.372 88.466)">
      <g id="Grupo_1005396" data-name="Grupo 1005396" transform="translate(137.456 49.586)">
        <g id="Grupo_1005394" data-name="Grupo 1005394" transform="translate(0 1.999)" opacity="0.5" style="mix-blend-mode: multiply;isolation: isolate">
          <path id="Trazado_719433" data-name="Trazado 719433" d="M374.166,187.935s9.749-25.488,30.929-9.521C405.095,178.414,398.114,199.667,374.166,187.935Z" transform="translate(-374.166 -173.156)" fill="#073447"/>
          <path id="Trazado_719434" data-name="Trazado 719434" d="M374.166,190.978c13.066-8,33.781-9.371,22.006-8.452C388.423,183.45,379.821,185.838,374.166,190.978Z" transform="translate(-374.166 -176.199)" fill="#073447"/>
        </g>
        <g id="Grupo_1005395" data-name="Grupo 1005395">
          <path id="Trazado_719435" data-name="Trazado 719435" d="M374.166,184.935s9.749-25.488,30.929-9.521C405.095,175.414,398.114,196.667,374.166,184.935Z" transform="translate(-374.166 -170.156)" fill="#81d5b0"/>
          <path id="Trazado_719436" data-name="Trazado 719436" d="M374.166,187.978c13.066-8,33.781-9.371,22.006-8.452C388.423,180.45,379.821,182.838,374.166,187.978Z" transform="translate(-374.166 -173.199)" fill="#3c9669"/>
        </g>
      </g>
      <g id="Grupo_1005399" data-name="Grupo 1005399" transform="translate(55.609 159.13)">
        <g id="Grupo_1005397" data-name="Grupo 1005397" transform="translate(0 1.999)" opacity="0.5" style="mix-blend-mode: multiply;isolation: isolate">
          <path id="Trazado_719437" data-name="Trazado 719437" d="M264.888,337.542s3.984,17.2-13.154,16.292C251.734,353.834,247.8,339.9,264.888,337.542Z" transform="translate(-251.342 -337.542)" fill="#073447"/>
          <path id="Trazado_719438" data-name="Trazado 719438" d="M266.393,337.542c-4.118,9.019-14.738,17.243-8.753,12.492C261.464,346.736,265.217,342.345,266.393,337.542Z" transform="translate(-252.847 -337.542)" fill="#073447"/>
        </g>
        <g id="Grupo_1005398" data-name="Grupo 1005398">
          <path id="Trazado_719439" data-name="Trazado 719439" d="M264.888,334.542s3.984,17.2-13.154,16.292C251.734,350.834,247.8,336.9,264.888,334.542Z" transform="translate(-251.342 -334.542)" fill="#81d5b0"/>
          <path id="Trazado_719440" data-name="Trazado 719440" d="M266.393,334.542c-4.118,9.019-14.738,17.243-8.753,12.492C261.464,343.736,265.217,339.345,266.393,334.542Z" transform="translate(-252.847 -334.542)" fill="#3c9669"/>
        </g>
      </g>
      <g id="Grupo_1005400" data-name="Grupo 1005400" transform="translate(110.109)">
        <path id="Trazado_719441" data-name="Trazado 719441" d="M334.155,109.831s-5.235-12.586,7.929-14.087C342.083,95.744,346.864,105.844,334.155,109.831Z" transform="translate(-333.127 -95.744)" fill="#3c9669"/>
        <path id="Trazado_719442" data-name="Trazado 719442" d="M334.669,110.917c1.98-7.393,9.013-15.014,5.065-10.631C337.244,103.286,334.95,107.11,334.669,110.917Z" transform="translate(-333.642 -96.83)" fill="#81d5b0"/>
      </g>
      <g id="Grupo_1005401" data-name="Grupo 1005401" transform="translate(0 35.195)">
        <path id="Trazado_719443" data-name="Trazado 719443" d="M172.946,164.715s-11.007-8.041-.533-16.156C172.413,148.559,181.741,154.71,172.946,164.715Z" transform="translate(-167.892 -148.559)" fill="#3c9669"/>
        <path id="Trazado_719444" data-name="Trazado 719444" d="M174.714,166.08c-2.144-7.347-.088-17.511-1.188-11.715C172.955,158.221,172.978,162.68,174.714,166.08Z" transform="translate(-169.66 -149.924)" fill="#81d5b0"/>
      </g>
      <g id="Grupo_1005404" data-name="Grupo 1005404" transform="translate(8.829 51.085)">
        <g id="Grupo_1005402" data-name="Grupo 1005402" transform="translate(0 1.999)" opacity="0.5" style="mix-blend-mode: multiply;isolation: isolate">
          <path id="Trazado_719445" data-name="Trazado 719445" d="M185.109,205.729s-14.266-23.263,11.3-30.324C196.41,175.4,209.006,193.892,185.109,205.729Z" transform="translate(-181.141 -175.405)" fill="#073447"/>
          <path id="Trazado_719446" data-name="Trazado 719446" d="M187.058,208.138c1.619-15.237,13.157-32.493,6.711-22.6C189.778,192.247,186.429,200.522,187.058,208.138Z" transform="translate(-183.09 -177.814)" fill="#073447"/>
        </g>
        <g id="Grupo_1005403" data-name="Grupo 1005403">
          <path id="Trazado_719447" data-name="Trazado 719447" d="M185.109,202.729s-14.266-23.263,11.3-30.324C196.41,172.4,209.006,190.892,185.109,202.729Z" transform="translate(-181.141 -172.405)" fill="#81d5b0"/>
          <path id="Trazado_719448" data-name="Trazado 719448" d="M187.058,205.138c1.619-15.237,13.157-32.493,6.711-22.6C189.778,189.247,186.429,197.522,187.058,205.138Z" transform="translate(-183.09 -174.814)" fill="#3c9669"/>
        </g>
      </g>
    </g>
    <g id="Grupo_1005408" data-name="Grupo 1005408" transform="translate(178.74 189.341)">
      <g id="Grupo_1005406" data-name="Grupo 1005406" transform="translate(0 2.666)" opacity="0.5" style="mix-blend-mode: multiply;isolation: isolate">
        <path id="Trazado_719449" data-name="Trazado 719449" d="M293.61,287.83c1.7-9.231-5.7-15.725-14.724-18.687a123.447,123.447,0,0,1,12.4.447c2.791,6.534,8.889,17.45,14.789,21.645a14.8,14.8,0,0,0,9.624,3.01c2.366-12.475-7.776-20.891-20.093-24.171a128.549,128.549,0,0,1,15.98,2.815c4.2,10.14,11.116,22.737,22.079,22.452,3.675-17.2-22.426-23.212-6.682-17.846,5.726,2,4.618,1.678,8.632,6.217,6.886,7.518,15.241,13.9,25.107,11.537-.866-10.753-11.746-15.938-22.8-16.6-10.429-.806.424,2.035-11.46-2.016-16.831-5.728,8.525,5.09,19.668-6.914-9.067-9.882-24.71-6.189-34.546,2.506-44.349-9.911,4.685,6.5,16.272-16.043-7.292-5.03-19.333-4.827-29.942,4.9-11.846,10.856-.8,7.272-15.054,7.427-7.849-.018-5.572.706.744-2.156,6.956-3.007,14.029-7.447,14.286-14.967-10.308-1.9-17.758,6.946-20.482,17.111-1.123-.027-1.393.008-8.59.392-9.865,1.063,11.46-2.136,10.463-14.044-7.719-.538-12.441,6.756-13.782,14.4a119.043,119.043,0,0,0-14.322,2.32c-5.432,1.243-4.784.829-4.555,1.707a135.285,135.285,0,0,1,14.23-2.837c7.613-1.094,2.893-1.075,9.131,6.907,2.4,3.109,5.444,5.49,9.374,5.147.447-6.9-5.744-11.275-12.353-12.758,1.6-.217,8.132-.59,10.5-.589C279.918,277,285.341,287.669,293.61,287.83Z" transform="translate(-246.478 -251.122)" fill="#073447"/>
      </g>
      <g id="Grupo_1005407" data-name="Grupo 1005407">
        <path id="Trazado_719450" data-name="Trazado 719450" d="M293.61,283.83c1.7-9.231-5.7-15.725-14.724-18.687a123.445,123.445,0,0,1,12.4.446c2.791,6.535,8.889,17.45,14.789,21.645a14.8,14.8,0,0,0,9.624,3.01c2.366-12.475-7.776-20.891-20.093-24.171a128.543,128.543,0,0,1,15.98,2.815c4.2,10.14,11.116,22.737,22.079,22.452,3.675-17.2-22.426-23.212-6.682-17.846,5.726,2,4.618,1.678,8.632,6.217,6.886,7.518,15.241,13.9,25.107,11.537-.866-10.753-11.746-15.938-22.8-16.6-10.429-.806.424,2.035-11.46-2.016-16.831-5.728,8.525,5.09,19.668-6.914-9.067-9.882-24.71-6.189-34.546,2.506-44.349-9.911,4.685,6.5,16.272-16.043-7.292-5.03-19.333-4.827-29.942,4.9-11.846,10.856-.8,7.272-15.054,7.427-7.849-.018-5.572.706.744-2.156,6.956-3.007,14.029-7.447,14.286-14.967-10.308-1.9-17.758,6.946-20.482,17.111-1.123-.027-1.393.008-8.59.392-9.865,1.063,11.46-2.136,10.463-14.044-7.719-.538-12.441,6.756-13.782,14.4a119.043,119.043,0,0,0-14.322,2.32c-5.432,1.243-4.784.829-4.555,1.707a135.3,135.3,0,0,1,14.23-2.837c7.613-1.094,2.893-1.075,9.131,6.907,2.4,3.109,5.444,5.49,9.374,5.147.447-6.9-5.744-11.275-12.353-12.758,1.6-.217,8.132-.59,10.5-.589C279.918,273,285.341,283.669,293.61,283.83Z" transform="translate(-246.478 -247.122)" fill="#3c9669"/>
      </g>
    </g>
    <path id="Trazado_719451" data-name="Trazado 719451" d="M332.767,258.984l-8.317,12.663c28.941-5.9,34.688-15.524,7.512-26.268,28.24,7.532,28.676,21.458-6.5,32.822l13.063,8.57-11.8,2.447L309.959,278.2l11.012-16.774Zm-149.69,22.792c-63.785-8.189-79.132-24.828-52.3-31.961l-4.871,7.214,7.278-1.413,6.907-10.236-10.236-6.906-7.278,1.413,7.691,5.186C105.723,252.424,99.845,275.452,183.077,281.776Z" transform="translate(-23.62 -54.895)" fill="#7a5dde"/>
    <g id="Grupo_1005411" data-name="Grupo 1005411" transform="translate(144.861 163.145)">
      <path id="Trazado_719452" data-name="Trazado 719452" d="M196.519,268.926c-2.723-28.106,13.313-48.361,30.719-55.8s42.511-7.364,73.248,2.143Z" transform="translate(-195.831 -207.81)" fill="#3c9669"/>
      <path id="Trazado_719453" data-name="Trazado 719453" d="M195.638,277.242c14.435-55.7,73.923-71.758,129.1-44.48,0,0-21.583,10.678-39.672,28.562C271,275.23,265.732,282.554,255.195,286.657,232.873,295.35,211.69,290.662,195.638,277.242Z" transform="translate(-195.638 -211.799)" fill="#0073a7" opacity="0.5" style="mix-blend-mode: multiply;isolation: isolate"/>
      <path id="Trazado_719454" data-name="Trazado 719454" d="M195.638,275.817c6.606-52.687,71.683-75.1,130.1-50.085,0,0-24.2,8.8-42.5,27.8C254.211,283.678,236.268,290.033,195.638,275.817Z" transform="translate(-195.638 -210.375)" fill="#81d5b0"/>
      <g id="Grupo_1005409" data-name="Grupo 1005409" transform="translate(0.689 0.003)">
        <path id="Trazado_719455" data-name="Trazado 719455" d="M297.01,214.185c-29.085-8.414-52.9-8.208-69.619-1.061-14.768,6.314-28.543,21.854-30.719,43.582.874-8.07,9.183-23.056,25.278-33.951C238.554,211.517,263.444,204.633,297.01,214.185Z" transform="translate(-196.672 -207.814)" fill="#81d5b0"/>
      </g>
      <g id="Grupo_1005410" data-name="Grupo 1005410" transform="translate(4.333 0.199)">
        <path id="Trazado_719456" data-name="Trazado 719456" d="M274.448,215.613c2.906-4.471,8.234-7.411,15.407-7.445-11.246-.827-17.358,7.291-17,8.352.47,1.4,3.263-2.079,15.881,1.362,17.431,4.891,36.971,18.765,44.52,14.356C323.51,236.877,294.668,211.51,274.448,215.613Z" transform="translate(-225.727 -208.109)" fill="#3c9669"/>
        <path id="Trazado_719457" data-name="Trazado 719457" d="M205.23,259.924c-2.356,1.624-2.372,4.087-1.783-2.581.522-6.2,2.137-12.808,5.816-17.787-7.763,9.134-8.1,27.741-6.061,24.378,10.975-18.124,50.7,26.406,68.88,10.37C254.694,287.756,219.653,249.712,205.23,259.924Z" transform="translate(-202.141 -218.601)" fill="#3c9669"/>
        <path id="Trazado_719458" data-name="Trazado 719458" d="M237.985,227.605c.38-6.505,3.377-13.537,9.932-15.741-6.9,1.783-10.433,8.981-10.994,15.712-.434,1.052-.577,1.218-.339,1.515a.587.587,0,0,0,.782.121c14.614-9.8,50.19,30.77,65.386,17.489C287.515,258.136,254.128,219.443,237.985,227.605Z" transform="translate(-213.594 -209.362)" fill="#3c9669"/>
      </g>
    </g>
    <g id="Grupo_1005414" data-name="Grupo 1005414" transform="translate(137.977 259.258)">
      <g id="Grupo_1005412" data-name="Grupo 1005412" transform="translate(0 1.999)" opacity="0.5" style="mix-blend-mode: multiply;isolation: isolate">
        <path id="Trazado_719459" data-name="Trazado 719459" d="M200.155,382.6c-27.029-20.124-11-35.589,0-23.021C211.155,347.009,227.183,362.474,200.155,382.6Z" transform="translate(-185.308 -355.042)" fill="#073447"/>
      </g>
      <g id="Grupo_1005413" data-name="Grupo 1005413" transform="translate(0)">
        <path id="Trazado_719460" data-name="Trazado 719460" d="M200.155,379.6c-27.029-20.124-11-35.589,0-23.021C211.155,344.009,227.183,359.474,200.155,379.6Z" transform="translate(-185.308 -352.042)" fill="#f27e7e"/>
      </g>
    </g>
    <path id="Trazado_719461" data-name="Trazado 719461" d="M159.751,91.236a7,7,0,1,1-7,7A7,7,0,0,1,159.751,91.236Zm-12.263,26.92c0,6.772,24.525,6.772,24.525,0a12.262,12.262,0,1,0-24.525,0Z" transform="translate(-34.713 -5.774)" fill="#fff"/>
    <g id="Grupo_1005417" data-name="Grupo 1005417" transform="translate(297.124 142.978)">
      <g id="Grupo_1005415" data-name="Grupo 1005415" transform="translate(0 1.999)" opacity="0.5" style="mix-blend-mode: multiply;isolation: isolate">
        <path id="Trazado_719462" data-name="Trazado 719462" d="M424.131,193.211a12.663,12.663,0,1,1,20.278,10.115,4.126,4.126,0,0,0-1.59,2.684l-.229,1.527a4.162,4.162,0,0,1-4.116,3.544h-3.359A4.162,4.162,0,0,1,431,207.537l-.229-1.527a4.141,4.141,0,0,0-1.6-2.691A12.636,12.636,0,0,1,424.131,193.211Z" transform="translate(-424.131 -180.547)" fill="#073447"/>
        <path id="Trazado_719463" data-name="Trazado 719463" d="M428.525,197.506a9.735,9.735,0,1,1,15.589,7.776,3.171,3.171,0,0,0-1.222,2.064l-.177,1.174a3.2,3.2,0,0,1-3.164,2.725h-2.582a3.2,3.2,0,0,1-3.164-2.725l-.177-1.174a3.182,3.182,0,0,0-1.228-2.068A9.715,9.715,0,0,1,428.525,197.506Z" transform="translate(-425.597 -182.957)" fill="#073447"/>
        <path id="Trazado_719464" data-name="Trazado 719464" d="M437.028,230.694h7.192a1.418,1.418,0,0,0,1.418-1.417h0a1.418,1.418,0,0,0-1.418-1.417h-7.192a1.418,1.418,0,0,0-1.418,1.417h0A1.418,1.418,0,0,0,437.028,230.694Z" transform="translate(-427.961 -196.331)" fill="#073447"/>
        <path id="Trazado_719465" data-name="Trazado 719465" d="M439.234,236.113h4.6l.9-2.51h-6.392Z" transform="translate(-428.871 -198.248)" fill="#073447"/>
      </g>
      <g id="Grupo_1005416" data-name="Grupo 1005416" transform="translate(0 0)">
        <path id="Trazado_719466" data-name="Trazado 719466" d="M424.131,190.211a12.663,12.663,0,1,1,20.278,10.115,4.126,4.126,0,0,0-1.59,2.684l-.229,1.527a4.162,4.162,0,0,1-4.116,3.544h-3.359A4.162,4.162,0,0,1,431,204.537l-.229-1.527a4.141,4.141,0,0,0-1.6-2.691A12.636,12.636,0,0,1,424.131,190.211Z" transform="translate(-424.131 -177.547)" fill="#fff"/>
        <path id="Trazado_719467" data-name="Trazado 719467" d="M428.525,194.506a9.735,9.735,0,1,1,15.589,7.776,3.171,3.171,0,0,0-1.222,2.064l-.177,1.174a3.2,3.2,0,0,1-3.164,2.725h-2.582a3.2,3.2,0,0,1-3.164-2.725l-.177-1.174a3.182,3.182,0,0,0-1.228-2.068A9.715,9.715,0,0,1,428.525,194.506Z" transform="translate(-425.597 -179.957)" fill="#efb626"/>
        <path id="Trazado_719468" data-name="Trazado 719468" d="M437.028,227.694h7.192a1.418,1.418,0,0,0,1.418-1.417h0a1.418,1.418,0,0,0-1.418-1.417h-7.192a1.418,1.418,0,0,0-1.418,1.417h0A1.418,1.418,0,0,0,437.028,227.694Z" transform="translate(-427.961 -193.331)" fill="#0094d9"/>
        <path id="Trazado_719469" data-name="Trazado 719469" d="M439.234,233.113h4.6l.9-2.51h-6.392Z" transform="translate(-428.871 -195.248)" fill="#0094d9"/>
      </g>
    </g>
    <g id="Grupo_1005420" data-name="Grupo 1005420" transform="translate(81.793 73.93)">
      <g id="Grupo_1005418" data-name="Grupo 1005418">
        <path id="Trazado_719470" data-name="Trazado 719470" d="M152.265,210.991q-1.331-.045-2.656-.183l-.012.131q1.331.106,2.666.119Z" transform="translate(-117.21 -119.595)" fill="#fff"/>
        <path id="Trazado_719471" data-name="Trazado 719471" d="M144.332,209.976q-1.309-.232-2.6-.555l-.061.255q1.3.294,2.628.494Z" transform="translate(-114.566 -119.133)" fill="#fff"/>
        <path id="Trazado_719472" data-name="Trazado 719472" d="M136.621,207.861q-1.263-.408-2.494-.906l-.133.336q1.248.485,2.53.879Z" transform="translate(-112.004 -118.31)" fill="#fff"/>
        <path id="Trazado_719473" data-name="Trazado 719473" d="M129.284,204.7q-1.189-.585-2.335-1.253l-.219.381q1.168.66,2.38,1.233Z" transform="translate(-109.581 -117.14)" fill="#fff"/>
        <path id="Trazado_719474" data-name="Trazado 719474" d="M122.476,200.538q-1.093-.749-2.133-1.568l-.312.4q1.058.826,2.178,1.567Z" transform="translate(-107.346 -115.646)" fill="#fff"/>
        <path id="Trazado_719475" data-name="Trazado 719475" d="M116.332,195.471q-.977-.893-1.887-1.855l-.389.37q.929.971,1.926,1.871Z" transform="translate(-105.352 -113.86)" fill="#fff"/>
        <path id="Trazado_719476" data-name="Trazado 719476" d="M111,189.572q-.834-1.027-1.586-2.114l-.467.325q.771,1.1,1.625,2.14Z" transform="translate(-103.647 -111.805)" fill="#fff"/>
        <path id="Trazado_719477" data-name="Trazado 719477" d="M106.642,182.937q-.661-1.144-1.222-2.34l-.542.256q.578,1.215,1.259,2.378Z" transform="translate(-102.29 -109.516)" fill="#fff"/>
        <path id="Trazado_719478" data-name="Trazado 719478" d="M103.48,175.69q-.456-1.238-.79-2.516l-.556.143q.334,1.306.795,2.574Z" transform="translate(-101.375 -107.04)" fill="#fff"/>
        <path id="Trazado_719479" data-name="Trazado 719479" d="M101.782,167.989a22.605,22.605,0,0,1-.239-2.622l-.548.016a23.255,23.255,0,0,0,.231,2.688Z" transform="translate(-100.995 -104.435)" fill="#fff"/>
        <path id="Trazado_719480" data-name="Trazado 719480" d="M101.666,160.065a19.354,19.354,0,0,1,.411-2.6l-.456-.109a19.949,19.949,0,0,0-.462,2.658Z" transform="translate(-101.05 -101.763)" fill="#fff"/>
        <path id="Trazado_719481" data-name="Trazado 719481" d="M103.492,152.455a18.225,18.225,0,0,1,1.124-2.382l-.336-.193a18.384,18.384,0,0,0-1.187,2.418Z" transform="translate(-101.695 -99.268)" fill="#fff"/>
        <path id="Trazado_719482" data-name="Trazado 719482" d="M107.459,145.832a14.947,14.947,0,0,1,1.825-1.9l-.195-.227a15.324,15.324,0,0,0-1.9,1.91Z" transform="translate(-103.063 -97.208)" fill="#fff"/>
        <path id="Trazado_719483" data-name="Trazado 719483" d="M113.475,141.048a15.258,15.258,0,0,1,2.384-1.136l-.085-.229a15.552,15.552,0,0,0-2.431,1.139Z" transform="translate(-105.115 -95.866)" fill="#fff"/>
        <path id="Trazado_719484" data-name="Trazado 719484" d="M120.912,138.667a18.03,18.03,0,0,1,2.627-.33l-.01-.209a18.246,18.246,0,0,0-2.662.317Z" transform="translate(-107.625 -95.348)" fill="#fff"/>
        <path id="Trazado_719485" data-name="Trazado 719485" d="M128.851,138.419a19.579,19.579,0,0,1,2.615.424l.053-.229a19.777,19.777,0,0,0-2.649-.406Z" transform="translate(-110.288 -95.374)" fill="#fff"/>
        <path id="Trazado_719486" data-name="Trazado 719486" d="M136.569,140.213a15.585,15.585,0,0,1,2.37,1.161l.145-.242a15.844,15.844,0,0,0-2.422-1.161Z" transform="translate(-112.863 -95.963)" fill="#fff"/>
        <path id="Trazado_719487" data-name="Trazado 719487" d="M143.255,144.363a7.069,7.069,0,0,1,1.513,2.106l.3-.136a7.368,7.368,0,0,0-1.6-2.188Z" transform="translate(-115.094 -97.355)" fill="#fff"/>
        <path id="Trazado_719488" data-name="Trazado 719488" d="M145.185,151.393a1.214,1.214,0,0,1-.586.955,1.862,1.862,0,0,1-1.181.115l-.063.372a2.223,2.223,0,0,0,1.419-.169,1.373,1.373,0,0,0,.536-.53,1.946,1.946,0,0,0,.225-.7Z" transform="translate(-115.127 -99.773)" fill="#fff"/>
        <path id="Trazado_719489" data-name="Trazado 719489" d="M138.751,150.611a14.422,14.422,0,0,1-2.04-1.648l-.3.316a14.756,14.756,0,0,0,2.119,1.673Z" transform="translate(-112.811 -98.962)" fill="#fff"/>
        <path id="Trazado_719490" data-name="Trazado 719490" d="M133.242,144.952a22.888,22.888,0,0,1-1.513-2.159l-.419.263a23.236,23.236,0,0,0,1.569,2.188Z" transform="translate(-111.109 -96.904)" fill="#fff"/>
        <path id="Trazado_719491" data-name="Trazado 719491" d="M129.274,138.1a25.7,25.7,0,0,1-1.014-2.434l-.52.189a26.206,26.206,0,0,0,1.063,2.473Z" transform="translate(-109.918 -94.527)" fill="#fff"/>
        <path id="Trazado_719492" data-name="Trazado 719492" d="M126.818,130.588c-.212-.853-.382-1.716-.515-2.585l-.6.092a26.716,26.716,0,0,0,.548,2.637Z" transform="translate(-109.239 -91.97)" fill="#fff"/>
        <path id="Trazado_719493" data-name="Trazado 719493" d="M125.855,122.739q-.075-1.316-.033-2.636l-.632-.019q-.035,1.346.047,2.692Z" transform="translate(-109.063 -89.328)" fill="#fff"/>
        <path id="Trazado_719494" data-name="Trazado 719494" d="M126.115,114.8q.152-1.31.408-2.607l-.647-.126q-.253,1.321-.4,2.66Z" transform="translate(-109.161 -86.652)" fill="#fff"/>
        <path id="Trazado_719495" data-name="Trazado 719495" d="M127.631,107.019q.349-1.274.784-2.523l-.649-.224q-.435,1.271-.784,2.571Z" transform="translate(-109.665 -84.052)" fill="#fff"/>
        <path id="Trazado_719496" data-name="Trazado 719496" d="M130.227,99.54c.366-.8.7-1.623,1.089-2.407l-.632-.313c-.406.806-.736,1.635-1.1,2.452Z" transform="translate(-110.532 -81.566)" fill="#fff"/>
        <path id="Trazado_719497" data-name="Trazado 719497" d="M133.806,92.545q.695-1.118,1.5-2.162l-.551-.425q-.826,1.069-1.541,2.216Z" transform="translate(-111.743 -79.277)" fill="#fff"/>
        <path id="Trazado_719498" data-name="Trazado 719498" d="M138.663,86.426a25.746,25.746,0,0,1,1.9-1.815l-.447-.52a26.578,26.578,0,0,0-1.956,1.86Z" transform="translate(-113.395 -77.32)" fill="#fff"/>
        <path id="Trazado_719499" data-name="Trazado 719499" d="M144.691,81.457q1.079-.754,2.229-1.4l-.33-.59q-1.178.657-2.288,1.429Z" transform="translate(-115.443 -75.778)" fill="#fff"/>
        <path id="Trazado_719500" data-name="Trazado 719500" d="M151.63,77.8c.8-.355,1.625-.668,2.456-.95l-.209-.628c-.854.28-1.693.6-2.517.964Z" transform="translate(-117.798 -74.695)" fill="#fff"/>
        <path id="Trazado_719501" data-name="Trazado 719501" d="M159.177,75.512q1.281-.311,2.588-.51l-.087-.6q-1.332.188-2.646.49Z" transform="translate(-120.357 -74.089)" fill="#fff"/>
        <path id="Trazado_719502" data-name="Trazado 719502" d="M167.053,74.555q1.318-.09,2.642-.072l.01-.544q-1.343-.032-2.687.043Z" transform="translate(-123.022 -73.93)" fill="#fff"/>
        <path id="Trazado_719503" data-name="Trazado 719503" d="M175,74.713q1.317.122,2.623.347l.085-.477q-1.32-.242-2.657-.381Z" transform="translate(-125.683 -74.02)" fill="#fff"/>
        <path id="Trazado_719504" data-name="Trazado 719504" d="M182.817,76.094q1.283.324,2.54.747l.138-.4q-1.266-.442-2.564-.786Z" transform="translate(-128.293 -74.505)" fill="#fff"/>
        <path id="Trazado_719505" data-name="Trazado 719505" d="M190.346,78.666q1.219.518,2.4,1.128l.17-.324q-1.183-.63-2.412-1.167Z" transform="translate(-130.804 -75.389)" fill="#fff"/>
        <path id="Trazado_719506" data-name="Trazado 719506" d="M197.4,82.363q1.127.7,2.2,1.484l.183-.246q-1.071-.8-2.2-1.523Z" transform="translate(-133.159 -76.648)" fill="#fff"/>
        <path id="Trazado_719507" data-name="Trazado 719507" d="M203.832,87.1q1.012.862,1.954,1.8l.142-.14Q205,87.8,204,86.909Z" transform="translate(-135.304 -78.26)" fill="#fff"/>
        <path id="Trazado_719508" data-name="Trazado 719508" d="M209.482,92.772q.868,1.008,1.657,2.081l.072-.051q-.769-1.092-1.619-2.122Z" transform="translate(-137.189 -80.185)" fill="#fff"/>
      </g>
      <g id="Grupo_1005419" data-name="Grupo 1005419" transform="translate(205.172 12.287)">
        <path id="Trazado_719509" data-name="Trazado 719509" d="M408.887,92.435l2.638.374.024-.171-2.655-.269Z" transform="translate(-408.887 -92.368)" fill="#fff"/>
        <path id="Trazado_719510" data-name="Trazado 719510" d="M416.775,93.611l2.6.577.08-.348-2.626-.5Z" transform="translate(-411.519 -92.692)" fill="#fff"/>
        <path id="Trazado_719511" data-name="Trazado 719511" d="M424.523,95.443l2.529.809.153-.457-2.569-.756Z" transform="translate(-414.103 -93.259)" fill="#fff"/>
        <path id="Trazado_719512" data-name="Trazado 719512" d="M432.049,98.005q1.231.493,2.433,1.053l.227-.493q-1.22-.555-2.47-1.041Z" transform="translate(-416.614 -94.088)" fill="#fff"/>
        <path id="Trazado_719513" data-name="Trazado 719513" d="M439.252,101.361q1.165.631,2.288,1.331l.313-.505q-1.146-.7-2.332-1.327Z" transform="translate(-419.017 -95.201)" fill="#fff"/>
        <path id="Trazado_719514" data-name="Trazado 719514" d="M446,105.563q1.081.765,2.106,1.6l.359-.434q-1.034-.859-2.125-1.643Z" transform="translate(-421.268 -96.612)" fill="#fff"/>
        <path id="Trazado_719515" data-name="Trazado 719515" d="M452.144,110.631q.967.9,1.863,1.879l.346-.309q-.883-1.012-1.844-1.952Z" transform="translate(-423.318 -98.334)" fill="#fff"/>
        <path id="Trazado_719516" data-name="Trazado 719516" d="M457.5,116.56q.811,1.047,1.529,2.164l.281-.175q-.695-1.147-1.492-2.229Z" transform="translate(-425.106 -100.359)" fill="#fff"/>
        <path id="Trazado_719517" data-name="Trazado 719517" d="M461.78,123.315a24.775,24.775,0,0,1,1.065,2.428l.224-.083a25.04,25.04,0,0,0-1.051-2.464Z" transform="translate(-426.533 -102.654)" fill="#fff"/>
        <path id="Trazado_719518" data-name="Trazado 719518" d="M464.549,130.795a16.619,16.619,0,0,1,.424,2.614l.211-.018a20.482,20.482,0,0,0-.428-2.645Z" transform="translate(-427.457 -105.172)" fill="#fff"/>
        <path id="Trazado_719519" data-name="Trazado 719519" d="M464.872,138.706a10.6,10.6,0,0,1-.574,2.566l.239.087a11.072,11.072,0,0,0,.566-2.63Z" transform="translate(-427.373 -107.828)" fill="#fff"/>
        <path id="Trazado_719520" data-name="Trazado 719520" d="M461.346,145.953a6.186,6.186,0,0,1-2.026,1.593l.163.323a6.529,6.529,0,0,0,2.1-1.721Z" transform="translate(-425.713 -110.245)" fill="#fff"/>
        <path id="Trazado_719521" data-name="Trazado 719521" d="M454.291,149.569a13.1,13.1,0,0,1-2.6.295l.011.468a13.517,13.517,0,0,0,2.682-.359Z" transform="translate(-423.167 -111.452)" fill="#fff"/>
        <path id="Trazado_719522" data-name="Trazado 719522" d="M446.419,149.341a15.013,15.013,0,0,1-2.524-.686l-.193.542a15.612,15.612,0,0,0,2.629.658Z" transform="translate(-420.502 -111.147)" fill="#fff"/>
        <path id="Trazado_719523" data-name="Trazado 719523" d="M439.145,146.284a15.533,15.533,0,0,1-2.163-1.46l-.4.5a16.147,16.147,0,0,0,2.265,1.5Z" transform="translate(-418.127 -109.869)" fill="#fff"/>
        <path id="Trazado_719524" data-name="Trazado 719524" d="M433.491,140.989a5.883,5.883,0,0,1-1.183-2.2l-.669.157a6.512,6.512,0,0,0,1.337,2.456Z" transform="translate(-416.478 -107.857)" fill="#fff"/>
        <path id="Trazado_719525" data-name="Trazado 719525" d="M433.543,135.6a1.73,1.73,0,0,1,1.086.017,3.834,3.834,0,0,1,.579.221l.6.268.3-.631-.617-.278a4.557,4.557,0,0,0-.664-.254,2.414,2.414,0,0,0-1.534,0Z" transform="translate(-417.028 -106.529)" fill="#fff"/>
        <path id="Trazado_719526" data-name="Trazado 719526" d="M440.516,138.349a16.706,16.706,0,0,1,2.086,1.568l.451-.506a17.277,17.277,0,0,0-2.166-1.64Z" transform="translate(-419.439 -107.516)" fill="#fff"/>
        <path id="Trazado_719527" data-name="Trazado 719527" d="M446.318,143.629a12.923,12.923,0,0,1,1.382,2.194l.563-.269a12.413,12.413,0,0,0-1.416-2.334Z" transform="translate(-421.375 -109.334)" fill="#fff"/>
        <path id="Trazado_719528" data-name="Trazado 719528" d="M449.7,150.729a10.906,10.906,0,0,1,.283,2.58l.512.011a11.427,11.427,0,0,0-.24-2.713Z" transform="translate(-422.504 -111.798)" fill="#fff"/>
        <path id="Trazado_719529" data-name="Trazado 719529" d="M449.114,158.529a9.844,9.844,0,0,1-.986,2.408l.345.2a10.252,10.252,0,0,0,1.081-2.491Z" transform="translate(-421.979 -114.441)" fill="#fff"/>
        <path id="Trazado_719530" data-name="Trazado 719530" d="M444.607,165.2a7.492,7.492,0,0,1-2.186,1.4l.1.259a7.392,7.392,0,0,0,2.314-1.4Z" transform="translate(-420.075 -116.665)" fill="#fff"/>
        <path id="Trazado_719531" data-name="Trazado 719531" d="M437.275,167.863a7.908,7.908,0,0,1-2.6-.432l-.023.065a8.041,8.041,0,0,0,2.62.54Z" transform="translate(-417.483 -117.411)" fill="#fff"/>
      </g>
    </g>
  </g>
</svg>
