<svg xmlns="http://www.w3.org/2000/svg" xmlns:xlink="http://www.w3.org/1999/xlink" width="357.5" height="242.243" viewBox="0 0 357.5 242.243">
  <defs>
    <clipPath id="clip-path">
      <path id="Trazado_719334" data-name="Trazado 719334" d="M247.386,268.337s0,72.762,82.706,70.83c76.4-1.784,77.3-73.689,77.3-73.689Z" transform="translate(-247.386 -265.479)" fill="none"/>
    </clipPath>
  </defs>
  <g id="Grupo_1005368" data-name="Grupo 1005368" transform="translate(-63.192 -32.447)">
    <g id="Grupo_1005287" data-name="Grupo 1005287" transform="translate(79.09 273.69)">
      <line id="Línea_2642" data-name="Línea 2642" x1="9.697" fill="none" stroke="#ccc" stroke-linecap="round" stroke-miterlimit="10" stroke-width="2"/>
      <line id="Línea_2643" data-name="Línea 2643" x1="84.255" transform="translate(13.491)" fill="none" stroke="#ccc" stroke-linecap="round" stroke-miterlimit="10" stroke-width="2"/>
      <line id="Línea_2644" data-name="Línea 2644" x1="7.455" transform="translate(103.175)" fill="none" stroke="#ccc" stroke-linecap="round" stroke-miterlimit="10" stroke-width="2"/>
      <line id="Línea_2645" data-name="Línea 2645" x1="133.982" transform="translate(114.368)" fill="none" stroke="#ccc" stroke-linecap="round" stroke-miterlimit="10" stroke-width="2"/>
      <line id="Línea_2646" data-name="Línea 2646" x1="61.333" transform="translate(252.341)" fill="none" stroke="#ccc" stroke-linecap="round" stroke-miterlimit="10" stroke-width="2"/>
      <line id="Línea_2647" data-name="Línea 2647" x1="7.401" transform="translate(318.435)" fill="none" stroke="#ccc" stroke-linecap="round" stroke-miterlimit="10" stroke-width="2"/>
    </g>
    <g id="Grupo_1005367" data-name="Grupo 1005367" transform="translate(63.192 32.447)">
      <g id="Grupo_1005288" data-name="Grupo 1005288" transform="translate(0 41.433)">
        <path id="Trazado_719283" data-name="Trazado 719283" d="M200.363,105.845c-17.7,2.808-34.16,10.736-45.783,24.616-11.229,13.409-18.978,29.686-35.474,37.567-14.018,6.7-30.821,8.123-42.9,18.589-11.969,10.366-14.853,27.406-11.986,42.358,5.9,30.748,35.981,51.51,66.507,51.132,8.645-.107,17.243-1.293,25.792-2.488a96.537,96.537,0,0,1,27.55-.411c17.96,2.58,34.81,9.8,52.123,14.875,16.836,4.935,34.128,7.635,51.357,3.079,16.686-4.412,31.719-13.351,47.07-20.954a159.051,159.051,0,0,1,25.515-10.5c8.52-2.506,17.364-3.646,25.922-6,7.767-2.135,15.169-5.426,21.027-11.08a46.183,46.183,0,0,0,12.1-20c4.641-15.739-2-35.058-11.865-47.69-14.743-18.878-39.37-25.828-62.249-27.984-8.986-.846-18.006-.564-26.993-1.272a106.546,106.546,0,0,1-22.232-3.99A90.13,90.13,0,0,1,266.6,130.234c-7.107-5.5-13.671-11.736-21.24-16.618a55.153,55.153,0,0,0-26.476-8.776,86.564,86.564,0,0,0-18.525,1.005c-.364.054-.209.607.153.553,11.323-1.7,23.087-1.8,33.939,2.282,8.4,3.163,15.51,8.647,22.362,14.317,7.048,5.832,14.07,11.69,22.087,16.171a91.654,91.654,0,0,0,33.854,10.566c8.453,1.025,16.933.806,25.417,1.285a154.509,154.509,0,0,1,24.359,3.181c11.521,2.523,22.869,6.72,32.468,13.694,12.614,9.163,20.185,22.476,23.786,37.433a39.952,39.952,0,0,1,.6,18.2,45.335,45.335,0,0,1-12.409,22.41c-12.908,12.713-31.95,12.572-48.286,17.615-32.035,9.888-59.73,35.8-94.939,33.356-34.76-2.414-66.149-25.111-101.693-20.622-16.143,2.039-32.531,5.386-48.589,1.106-14.942-3.982-28.931-11.956-38.192-24.575-9.8-13.36-14.268-31.361-9.858-47.553A36.679,36.679,0,0,1,79.4,184.826c6.373-4.573,13.922-7.129,21.32-9.508,7.077-2.276,14.273-4.4,20.871-7.9,7.125-3.77,12.809-9.3,17.776-15.584,5.222-6.606,9.7-13.77,15.046-20.281a67.171,67.171,0,0,1,20.743-17.009,82.034,82.034,0,0,1,25.359-8.149C200.88,106.341,200.725,105.788,200.363,105.845Z" transform="translate(-63.192 -104.695)" fill="#c9f2ed"/>
      </g>
      <path id="Trazado_719284" data-name="Trazado 719284" d="M205.52,114.26c-14.768,1.979-29.407,7.646-40.468,18-11.648,10.9-18.85,26.663-31.992,35.553-16.306,11.03-39.313,9.739-52.972,24.121-10.943,11.522-12.145,30.254-6.606,45.327,8.506,23.149,28.455,34.814,49.659,39.452,12.024,2.63,30.131-.067,42.354-1.488,35.941-4.177,67.209,19.653,103.332,21.119,32.805,1.331,61.025-23.558,92.993-31.409,14.395-3.535,30.333-3.926,42.026-13.332,10.648-8.567,17.805-23.611,14.951-37.234-3.775-18.014-14.022-54.64-88.771-56.378S266.341,106.108,205.52,114.26Z" transform="translate(-66.203 -66.96)" fill="#d9f0ff"/>
      <path id="Trazado_719285" data-name="Trazado 719285" d="M228.538,319.832a2.507,2.507,0,0,1,1.727-1.059c.933,0,1.91.775,2.71.3a1.869,1.869,0,0,0,.576-.645,15.237,15.237,0,0,1,1.161-1.762,2.921,2.921,0,0,1,1.757-1.085,3.209,3.209,0,0,1,2.7,1.3c.683.786,1.178,1.726,1.906,2.469a2.88,2.88,0,0,0,2.8.962c1.074-.348,1.844-1.626,2.964-1.481a2.008,2.008,0,0,1,1.349,1.048c.306.5.511,1.068.862,1.542.94,1.269,5.3,1.925,7.361,2.176h-34.9c.758,0,4.614-.578,5.279-1.177C227.573,321.712,228.005,320.43,228.538,319.832Z" transform="translate(-130.72 -153.2)" fill="#fff"/>
      <path id="Trazado_719286" data-name="Trazado 719286" d="M144.7,230.022a3.537,3.537,0,0,1,2.437-1.5c1.316,0,2.694,1.093,3.823.417a2.65,2.65,0,0,0,.813-.91,21.423,21.423,0,0,1,1.638-2.485,4.119,4.119,0,0,1,2.479-1.531,4.528,4.528,0,0,1,3.807,1.828c.964,1.108,1.663,2.434,2.69,3.484a4.065,4.065,0,0,0,3.953,1.357c1.515-.491,2.6-2.294,4.181-2.089a2.832,2.832,0,0,1,1.9,1.478c.432.711.721,1.507,1.216,2.175,1.327,1.79,7.482,2.715,10.385,3.07H134.79c1.07,0,6.51-.815,7.448-1.66C143.337,232.673,143.946,230.864,144.7,230.022Z" transform="translate(-93.73 -114.144)" fill="#fff"/>
      <path id="Trazado_719287" data-name="Trazado 719287" d="M453.99,220.543a4.457,4.457,0,0,1,3.072-1.884c1.659,0,3.4,1.378,4.82.526a3.327,3.327,0,0,0,1.025-1.147,27.031,27.031,0,0,1,2.066-3.132,5.19,5.19,0,0,1,3.124-1.929c1.833-.254,3.584.908,4.8,2.3s2.1,3.068,3.39,4.391,3.222,2.282,4.982,1.711c1.909-.619,3.28-2.893,5.27-2.634a3.574,3.574,0,0,1,2.4,1.864c.544.9.908,1.9,1.533,2.742,1.673,2.255,9.431,3.423,13.09,3.869H441.5c1.348,0,8.205-1.028,9.388-2.093C452.273,223.885,453.042,221.6,453.99,220.543Z" transform="translate(-224.548 -109.431)" fill="#fff"/>
      <path id="Trazado_719288" data-name="Trazado 719288" d="M199.994,161.712c.864-.969,1.886-1.951,3.184-1.953,1.72,0,3.52,1.428,5,.545a3.452,3.452,0,0,0,1.063-1.189,28,28,0,0,1,2.141-3.247,5.386,5.386,0,0,1,3.238-2c1.9-.263,3.715.941,4.974,2.389s2.173,3.18,3.514,4.551,3.34,2.366,5.165,1.774c1.979-.642,3.4-3,5.463-2.73a3.7,3.7,0,0,1,2.487,1.931c.564.928.942,1.969,1.589,2.842,1.734,2.338,9.775,3.548,13.568,4.01H187.048c1.4,0,8.505-1.066,9.731-2.169C198.214,165.177,199.011,162.813,199.994,161.712Z" transform="translate(-116.019 -84.221)" fill="#fff"/>
      <g id="Grupo_1005293" data-name="Grupo 1005293" transform="translate(35.146 51.712)">
        <g id="Grupo_1005291" data-name="Grupo 1005291" transform="translate(0 47.709)">
          <path id="Trazado_719289" data-name="Trazado 719289" d="M207.422,447.826s8,1.2,8.062,2.079-10.894.744-11.679.58a3.189,3.189,0,0,1,.339-2.66C204.993,446.757,207.422,447.826,207.422,447.826Z" transform="translate(-158.248 -308.833)" fill="#7e9196"/>
          <path id="Trazado_719290" data-name="Trazado 719290" d="M146.174,448.057s8.674,1.2,8.74,2.079-10.88.8-11.665.637a2.446,2.446,0,0,1,.418-2.241C144.517,447.463,146.174,448.057,146.174,448.057Z" transform="translate(-132.438 -309.064)" fill="#7e9196"/>
          <path id="Trazado_719291" data-name="Trazado 719291" d="M212.537,211.764c1.938-2.875,2.1-5.445,1.429-5.89-.934-.617-1.8,3.514-3.783,4.853-1.219.825-3.139-.224-3.178,1.123-.009.294,2.256.412,3.289,1.883A22.271,22.271,0,0,0,212.537,211.764Z" transform="translate(-159.677 -205.811)" fill="#ffceb8"/>
          <path id="Trazado_719292" data-name="Trazado 719292" d="M135.809,212.061c-1.938-2.875-2.1-5.445-1.43-5.89.934-.617,1.8,3.514,3.783,4.853,1.218.825,3.139-.224,3.178,1.123.009.294-2.256.412-3.289,1.883A22.331,22.331,0,0,1,135.809,212.061Z" transform="translate(-128.548 -205.938)" fill="#ffceb8"/>
          <path id="Trazado_719293" data-name="Trazado 719293" d="M177.337,216.191s-1.236.157-2.243,1.97c0,0,5.719,6.28,3.492,17-1.348,6.488-7.307,11.6-13.391,12.733-7.458,1.391-20.1.756-24.824.03-4.327-.666-9.212-7.772-9.507-15.627a26.861,26.861,0,0,1,3.116-13.967,5.087,5.087,0,0,0-2.243-1.969,34.58,34.58,0,0,0-6.978,15.795c-1.5,9.471,2.975,22.362,13.683,29.547,0,0,3.168,8.826,1.759,15.682a75.9,75.9,0,0,0,25.3,0s.12-10.777,1.492-16.092c0,0,14.5-7.7,17.559-20.563C188.3,225,177.337,216.191,177.337,216.191Z" transform="translate(-124.478 -210.238)" fill="#ffceb8"/>
          <path id="Trazado_719294" data-name="Trazado 719294" d="M143.749,393.637a7.211,7.211,0,0,0,5,0C159.758,366.076,160.6,329.5,160.6,329.5c15.085,24.862,17.392,64.6,17.392,64.6a3.13,3.13,0,0,0,3.7-.944c8.062-49.866-8.15-71.847-8.15-71.847-11.209-4.788-25.3,0-25.3,0s-4.914,4.346-4.913,14.877C143.331,348.65,149.514,360.47,143.749,393.637Z" transform="translate(-132.519 -254.168)" fill="#715eb5"/>
          <path id="Trazado_719295" data-name="Trazado 719295" d="M135.53,276.01a35.983,35.983,0,0,1,5.217-9.079,8.045,8.045,0,0,0,4.34,2.635c4.72.726,17.366,1.361,24.824-.03a16.354,16.354,0,0,0,4.528-1.588,43.26,43.26,0,0,1,5.262,9.2,44.866,44.866,0,0,1-7.992,5.782c-1.372,5.315-1.492,16.092-1.492,16.092a75.9,75.9,0,0,1-25.3,0c1.409-6.857-1.759-15.682-1.759-15.682A30.945,30.945,0,0,1,135.53,276.01Z" transform="translate(-129.192 -231.88)" fill="#ffde80"/>
          <path id="Trazado_719296" data-name="Trazado 719296" d="M173.775,264.121l1.344,6.079a4.414,4.414,0,0,1-4.251.588l-.135-6.784Z" transform="translate(-144.207 -230.632)" fill="#f2b49c"/>
          <path id="Trazado_719297" data-name="Trazado 719297" d="M162.975,249.36c6.927-1.631,6.172-6.012,7.708-4.507s3.972,10.364-.788,12.225c-1.754.686-4.455-.269-5.047-1.175-.944-.787-1.258-2.66-1.687-2.835s-1.254-.8-1.222-1.317c.039-.6.836-.7,1.15-.487A3.958,3.958,0,0,1,162.975,249.36Z" transform="translate(-140.456 -222.331)" fill="#ffceb8"/>
          <path id="Trazado_719298" data-name="Trazado 719298" d="M177.9,252.11a.5.5,0,1,0,.666.249A.5.5,0,0,0,177.9,252.11Z" transform="translate(-147.136 -225.539)" fill="#222221"/>
          <path id="Trazado_719299" data-name="Trazado 719299" d="M170.7,255.81a.5.5,0,1,0,.666.249A.5.5,0,0,0,170.7,255.81Z" transform="translate(-144.067 -227.117)" fill="#222221"/>
          <g id="Grupo_1005289" data-name="Grupo 1005289" transform="translate(29 27.813)">
            <path id="Trazado_719300" data-name="Trazado 719300" d="M175.868,255.541a7.219,7.219,0,0,1-.822-1.231,2.627,2.627,0,0,0,.647,1.4,1.269,1.269,0,0,0,.4.275.355.355,0,0,1,.128.079c.018.023.03.034,0,.081a1.722,1.722,0,0,1-.469.4,1.079,1.079,0,0,0,.619-.3.248.248,0,0,0,.021-.29.487.487,0,0,0-.2-.173A1.293,1.293,0,0,1,175.868,255.541Z" transform="translate(-175.046 -254.31)" fill="#e0ab96"/>
          </g>
          <g id="Grupo_1005290" data-name="Grupo 1005290" transform="translate(29.462 29.873)">
            <path id="Trazado_719301" data-name="Trazado 719301" d="M175.853,258.668a.912.912,0,0,0,.994.193.823.823,0,0,0,.458-.467.8.8,0,0,0,.03-.491A2.676,2.676,0,0,1,175.853,258.668Z" transform="translate(-175.853 -257.902)" fill="#fff"/>
          </g>
          <path id="Trazado_719302" data-name="Trazado 719302" d="M152,262.967c-.205-2.389-2.5-4.171-2.942-6.528A5.532,5.532,0,0,1,150,252.23c.736-1.016,1.882-1.945,1.8-3.2a4.174,4.174,0,0,0-.4-1.3,8.663,8.663,0,0,1-.759-3.924,7.572,7.572,0,0,1,3.861-5.753,9.381,9.381,0,0,1,5.435-1.242,6.721,6.721,0,0,1,4.393,1.926,4.485,4.485,0,0,1,1.173,3.814,3.918,3.918,0,0,0-.666-1.009c-1.535-1.5-.781,2.876-7.708,4.507a3.959,3.959,0,0,0,.115,1.9c-.315-.21-1.111-.115-1.15.487-.033.514.793,1.142,1.222,1.317s.743,2.048,1.686,2.835a1.36,1.36,0,0,0,.158.191,15.687,15.687,0,0,0-1.2,3.178c-.244,2.371-.2,2.288,1.636,6.611s1.294,10.937-3.029,11.135-8.333-2.892-8.333-2.892C150.921,269.377,152.3,266.495,152,262.967Z" transform="translate(-134.607 -219.022)" fill="#715eb5"/>
        </g>
        <g id="Grupo_1005292" data-name="Grupo 1005292" transform="translate(7.195)">
          <path id="Trazado_719303" data-name="Trazado 719303" d="M152.1,136.5c-.56-.9,9.715-13.675,13.224-13.872,4.086-.229,11.784,8.914,11.784,8.914s3.084-1.939,3.379-1.65-.4,9.878-1.807,10.873-10.348-2.53-10.5-3.01,2.53-2.461,2.53-2.461c-.5-1.568-4.546-4.551-4.546-4.551s-4.617,5.354-7.865,9.286C157.572,141.161,152.54,137.2,152.1,136.5Z" transform="translate(-143.445 -122.62)" fill="#c64934"/>
          <path id="Trazado_719304" data-name="Trazado 719304" d="M194.983,156.285c1.057-.022,6.777,15.344,5.15,18.46-1.894,3.628-13.688,5.563-13.688,5.563s.087,3.642-.311,3.748-8.283-5.4-8.417-7.117,7.47-7.6,7.958-7.478.82,3.433.82,3.433c1.6.374,6.237-1.578,6.237-1.578s-2.238-6.706-3.953-11.508C188.176,158.6,194.154,156.3,194.983,156.285Z" transform="translate(-154.38 -136.979)" fill="#c64934"/>
          <path id="Trazado_719305" data-name="Trazado 719305" d="M155.675,182.439c-.571.889-16.516-2.932-18.2-6.02-1.956-3.6,3.016-14.464,3.016-14.464s-3.072-1.958-2.937-2.348,9.1-3.865,10.6-3.017,2.14,10.436,1.77,10.776-3.307-1.235-3.307-1.235c-1.2,1.122-2.169,6.057-2.169,6.057s6.815,1.883,11.757,3.136C157.552,175.5,156.123,181.741,155.675,182.439Z" transform="translate(-137.024 -137.052)" fill="#c64934"/>
          <path id="Trazado_719306" data-name="Trazado 719306" d="M183.952,129.887c-.295-.288-3.379,1.65-3.379,1.65s-7.7-9.143-11.784-8.914c-1.846.1-5.562,3.687-8.59,7.193,1.353-1,3.584-1.873,4.667-1.7,3.117.639,9.312,7.172,9.312,7.172s-2.679,1.981-2.53,2.461,9.089,4,10.5,3.01S184.246,130.175,183.952,129.887Z" transform="translate(-146.908 -122.62)" fill="#ff7550"/>
          <path id="Trazado_719307" data-name="Trazado 719307" d="M186.135,189.56c.4-.106.311-3.748.311-3.748s11.794-1.935,13.688-5.563c.856-1.639-.322-6.666-1.784-11.061.167,1.674-.225,4.038-.928,4.879-2.144,2.351-10.927,4.331-10.927,4.331s-.331-3.316-.82-3.433-8.091,5.759-7.958,7.478S185.736,189.665,186.135,189.56Z" transform="translate(-154.38 -142.482)" fill="#ff7550"/>
          <path id="Trazado_719308" data-name="Trazado 719308" d="M137.559,159.606c-.135.391,2.937,2.348,2.937,2.348s-4.972,10.869-3.016,14.464c.883,1.625,5.712,3.451,10.176,4.688-1.483-.795-3.226-2.439-3.533-3.492-.755-3.09,2.5-11.485,2.5-11.485s2.937,1.574,3.307,1.235-.268-9.928-1.77-10.776S137.693,159.216,137.559,159.606Z" transform="translate(-137.024 -137.052)" fill="#ff7550"/>
        </g>
      </g>
      <g id="Grupo_1005302" data-name="Grupo 1005302" transform="translate(273.838 50.151)">
        <g id="Grupo_1005296" data-name="Grupo 1005296" transform="translate(15.793 33.554)">
          <g id="Grupo_1005294" data-name="Grupo 1005294" transform="translate(20.18)">
            <path id="Trazado_719309" data-name="Trazado 719309" d="M603.5,194.636s17.169,5.344,19.081-13.427a2.49,2.49,0,0,0-2.284-2.719C614.866,178.059,602.352,178.762,603.5,194.636Z" transform="translate(-603.422 -178.407)" fill="#99c96b"/>
            <path id="Trazado_719310" data-name="Trazado 719310" d="M612.739,189.211c1.753-1.307,3.318-2.391,4.543-3.144a90.354,90.354,0,0,1-8.025,7.371,35.406,35.406,0,0,1,4.776.385,38.6,38.6,0,0,1-5.706.381c-1.518,1.239-2.977,2.375-4.326,3.382-.3-.075-.473-.128-.473-.128-.016-.223-.02-.432-.031-.65,1.344-1.215,2.856-2.523,4.494-3.87,1.336-1.1,2.635-2.126,3.856-3.057a28.988,28.988,0,0,1,1.2-4.857A26.779,26.779,0,0,1,612.739,189.211Z" transform="translate(-603.454 -181.229)" fill="#7aa54e"/>
          </g>
          <g id="Grupo_1005295" data-name="Grupo 1005295">
            <path id="Trazado_719311" data-name="Trazado 719311" d="M587.328,194.636s-17.169,5.344-19.081-13.427a2.491,2.491,0,0,1,2.284-2.719C575.958,178.059,588.472,178.762,587.328,194.636Z" transform="translate(-568.234 -178.407)" fill="#99c96b"/>
            <path id="Trazado_719312" data-name="Trazado 719312" d="M582.088,189.211c-1.753-1.307-3.318-2.391-4.543-3.144a90.453,90.453,0,0,0,8.025,7.371,35.406,35.406,0,0,0-4.776.385,38.594,38.594,0,0,0,5.706.381c1.518,1.239,2.977,2.375,4.326,3.382.3-.075.473-.128.473-.128.016-.223.02-.432.031-.65-1.344-1.215-2.856-2.523-4.494-3.87-1.336-1.1-2.635-2.126-3.856-3.057a29.006,29.006,0,0,0-1.2-4.857A26.708,26.708,0,0,0,582.088,189.211Z" transform="translate(-572.205 -181.229)" fill="#7aa54e"/>
          </g>
        </g>
        <g id="Grupo_1005299" data-name="Grupo 1005299" transform="translate(0 46.459)">
          <path id="Trazado_719313" data-name="Trazado 719313" d="M557.347,447.683s-8.629,1.291-8.7,2.244,11.756.8,12.6.626c0,0,.716-1.477.087-2.423C560.522,446.9,557.347,447.683,557.347,447.683Z" transform="translate(-544.087 -306.06)" fill="#7e9196"/>
          <path id="Trazado_719314" data-name="Trazado 719314" d="M630.139,447.683s8.63,1.291,8.7,2.244-11.756.8-12.6.626c0,0-.715-1.477-.087-2.423C626.965,446.9,630.139,447.683,630.139,447.683Z" transform="translate(-577.033 -306.06)" fill="#7e9196"/>
          <path id="Trazado_719315" data-name="Trazado 719315" d="M571.9,324.857s-13.387,27.261-8.795,69.563a3.7,3.7,0,0,0,3.99.447s6.1-37.286,18.7-62.555c0,0,12.259,25.154,13.167,62.555a23.15,23.15,0,0,0,3.99-.447s7.417-43-3.018-69.563C599.933,324.857,584,319.691,571.9,324.857Z" transform="translate(-549.844 -252.797)" fill="#1b7ba5"/>
          <path id="Trazado_719316" data-name="Trazado 719316" d="M636.986,207.334c2.091-3.1,2.269-5.876,1.542-6.356-1.008-.666-1.946,3.792-4.082,5.238-1.315.89-3.387-.241-3.43,1.212-.009.317,2.434.444,3.549,2.032A24.183,24.183,0,0,0,636.986,207.334Z" transform="translate(-579.219 -200.91)" fill="#ffceb8"/>
          <path id="Trazado_719317" data-name="Trazado 719317" d="M550.686,212.715s1.334.17,2.421,2.126a21.864,21.864,0,0,0-4.475,18.8c1.454,7,7.784,13.415,14.451,13.01,8.114-.494,22.071-.231,26.788.032s9.877-7.206,10.99-16.133c1.119-8.968-4.818-16.317-4.818-16.317a4.651,4.651,0,0,1,2.421-2.125s9.408,8.989,10.233,19.3c.851,10.643-5.5,23.892-18.206,28.677,0,0,.737,12.053.295,17.655a87.265,87.265,0,0,1-28.033,0s-.295-13.085-.147-18.1c0,0-17.836-6.114-21.142-20C537.419,222.679,550.686,212.715,550.686,212.715Z" transform="translate(-540.695 -205.688)" fill="#fff"/>
          <path id="Trazado_719318" data-name="Trazado 719318" d="M556.681,208.387c-2.091-3.1-2.268-5.876-1.542-6.356,1.008-.666,1.946,3.792,4.082,5.237,1.315.89,3.387-.241,3.43,1.212.01.318-2.434.444-3.549,2.032A24.2,24.2,0,0,1,556.681,208.387Z" transform="translate(-546.69 -201.36)" fill="#ffceb8"/>
          <path id="Trazado_719319" data-name="Trazado 719319" d="M600.846,260.772l-1.521,6.88a5,5,0,0,0,4.81.666l.153-7.677Z" transform="translate(-565.702 -226.387)" fill="#f2b49c"/>
          <path id="Trazado_719320" data-name="Trazado 719320" d="M598.091,238.353s-1.539-3.658.395-6.1,7.314-3.484,8.793-2.338-2.185,2.288-2.185,2.288,5.822-.328,6.524.928-1,1.492-1,1.492a8.519,8.519,0,0,1,2.747,2.674,4.943,4.943,0,0,1-.809,4.871c-1.123,1.223-1.261-.07-1.261-.07a4.891,4.891,0,0,1-4.658,3.822Z" transform="translate(-564.928 -213.084)" fill="#1b7ba5"/>
          <path id="Trazado_719321" data-name="Trazado 719321" d="M607.887,244.406c-5.963-1.921-8.037-5.357-8.9-4.531-1.76,1.68-4.494,11.728.892,13.835,1.984.776,5.041-.3,5.711-1.33,1.068-.89,1.423-3.406,1.908-3.6s2.014-1.068,1.93-1.645a1.059,1.059,0,0,0-1.7-.754A3.2,3.2,0,0,0,607.887,244.406Z" transform="translate(-564.586 -217.476)" fill="#ffceb8"/>
          <path id="Trazado_719322" data-name="Trazado 719322" d="M599.027,247.921a.569.569,0,1,1-.754.283A.57.57,0,0,1,599.027,247.921Z" transform="translate(-565.232 -220.94)" fill="#222221"/>
          <path id="Trazado_719323" data-name="Trazado 719323" d="M607.172,252.108a.569.569,0,1,1-.754.283A.57.57,0,0,1,607.172,252.108Z" transform="translate(-568.705 -222.726)" fill="#222221"/>
          <g id="Grupo_1005297" data-name="Grupo 1005297" transform="translate(34.123 28.388)">
            <path id="Trazado_719324" data-name="Trazado 719324" d="M600.862,251.876a6.323,6.323,0,0,0,1-1.465c-.294.28-.7.773-1.179,1.3-.06.065-.12.126-.18.185s-.122.11-.194.185a.425.425,0,0,0-.11.3.4.4,0,0,0,.129.264,1.371,1.371,0,0,0,.724.306,2.1,2.1,0,0,1-.591-.424.2.2,0,0,1,.018-.292l.187-.159C600.733,252.008,600.8,251.944,600.862,251.876Z" transform="translate(-600.197 -250.411)" fill="#e0ab96"/>
          </g>
          <g id="Grupo_1005298" data-name="Grupo 1005298" transform="translate(33.557 30.718)">
            <path id="Trazado_719325" data-name="Trazado 719325" d="M600.918,255.342a1.034,1.034,0,0,1-1.126.219.929.929,0,0,1-.518-.529.906.906,0,0,1-.034-.556A3.03,3.03,0,0,0,600.918,255.342Z" transform="translate(-599.211 -254.475)" fill="#fff"/>
          </g>
        </g>
        <g id="Grupo_1005301" data-name="Grupo 1005301" transform="translate(22.63)">
          <path id="Trazado_719326" data-name="Trazado 719326" d="M592.765,119.9c7.388-.076,13.284,4.192,13.058,13.169-.265,10.522-7.763,9.88-8.59,13.813s-.319,4.525-.319,4.525a17.661,17.661,0,0,1-8.717-.221s.527-3.59-.618-5.013-7.872-5.2-7.4-13.483C580.542,126.359,583.29,120,592.765,119.9Z" transform="translate(-580.157 -119.897)" fill="#f7c94b"/>
          <g id="Grupo_1005300" data-name="Grupo 1005300" transform="translate(8.03 12.159)">
            <path id="Trazado_719327" data-name="Trazado 719327" d="M599.967,150.174a.3.3,0,0,1-.216-.5c.025-.027,2.433-2.624,2.879-5.1l-1.255-.106a.3.3,0,0,1-.267-.247l-.265-1.624-.834,2.419a.3.3,0,0,1-.279.2.32.32,0,0,1-.28-.2l-.62-1.844-.759,2.278a.293.293,0,0,1-.292.2.3.3,0,0,1-.275-.225l-.572-2.341c-.318,1.187-.568,1.228-.7,1.251-.236.04-1.024.159-1.449.223a13.909,13.909,0,0,0,2.183,4.908.3.3,0,0,1-.482.341c-.087-.123-2.131-3.034-2.319-5.476a.3.3,0,0,1,.251-.314s1.236-.186,1.652-.253a9,9,0,0,0,.564-2.04.294.294,0,0,1,.282-.241h.008a.3.3,0,0,1,.287.225l.631,2.583.714-2.143a.3.3,0,0,1,.28-.2h0a.294.294,0,0,1,.279.2l.626,1.858.933-2.707a.288.288,0,0,1,.3-.2.3.3,0,0,1,.266.247l.416,2.553,1.339.114a.293.293,0,0,1,.2.106.3.3,0,0,1,.065.221c-.314,2.76-2.967,5.621-3.079,5.741A.292.292,0,0,1,599.967,150.174Z" transform="translate(-594.16 -141.099)" fill="#d1a639"/>
          </g>
          <path id="Trazado_719328" data-name="Trazado 719328" d="M598.536,164.119s-2.45-8.7-1.47-9.737,4.654-.429,4.961,0-.612,7.226-1.409,10.1Z" transform="translate(-587.27 -134.361)" fill="#ffdf8f"/>
          <path id="Trazado_719329" data-name="Trazado 719329" d="M592.569,172.131c.475-.6,2.84-.877,5.168-.866,1.9.009,4.412.268,5.036,1.023s.473,3.837-.071,4.634c-.8,1.179-9.434,1.1-9.991-.117C591.864,174.955,592.569,172.131,592.569,172.131Z" transform="translate(-585.334 -141.806)" fill="#677d82"/>
        </g>
      </g>
      <g id="Grupo_1005366" data-name="Grupo 1005366" transform="translate(105.613)">
        <g id="Grupo_1005320" data-name="Grupo 1005320" transform="translate(0 119.614)">
          <g id="Grupo_1005306" data-name="Grupo 1005306" transform="translate(0.018 14.025)">
            <path id="Trazado_719330" data-name="Trazado 719330" d="M247.386,268.337s0,72.762,82.706,70.83c76.4-1.784,77.3-73.689,77.3-73.689Z" transform="translate(-247.386 -265.479)" fill="#57adc1"/>
            <g id="Grupo_1005305" data-name="Grupo 1005305">
              <g id="Grupo_1005304" data-name="Grupo 1005304" clip-path="url(#clip-path)">
                <g id="Grupo_1005303" data-name="Grupo 1005303" transform="translate(8.192 9.272)">
                  <path id="Trazado_719331" data-name="Trazado 719331" d="M390.107,285.512c.084,4.277-1.653,9.144,1.794,11.676a39.293,39.293,0,0,1,3.363,2.149,5.867,5.867,0,0,1,.741,7.288,7.908,7.908,0,0,1-6.832,3.367c-1.529-.037-3.2-.411-4.49.407a4.1,4.1,0,0,0-1.455,1.854,7.784,7.784,0,0,0-.2,5.742,5.405,5.405,0,0,1,.53,1.952c-.05,1.563-1.762,2.444-3.2,3.054s-3.1,1.694-2.9,3.245a2.794,2.794,0,0,0,.991,1.642c1.952,1.748,4.908,1.827,7.454,1.209s4.93-1.822,7.5-2.337a12.293,12.293,0,0,1,7.869.914,9.42,9.42,0,0,1,4.974,6.03s-19.731,29.765-79.939,13.974c-3.4-.892-4.079-5.751-5.514-8.964a9.668,9.668,0,0,1-.973-3.3,7.5,7.5,0,0,1,.832-3.655c1.888-3.94,5.917-6.557,10.165-7.579s8.713-.625,13.006.188c3.3.625,6.682,1.492,9.962.781a10.819,10.819,0,0,0,7.687-6.632,6.646,6.646,0,0,0,.388-3.86c-.272-1.133-.954-2.149-1.123-3.3-.406-2.761,2.291-5.1,5.01-5.727s5.584-.067,8.342-.491c11.01-1.691,8.781-6.035,8.225-8.775-1.236-6.095,7.837-10.2,1.868-14.525C384.173,281.837,390.005,280.382,390.107,285.512Z" transform="translate(-286.465 -281.646)" fill="#bcea94"/>
                  <path id="Trazado_719332" data-name="Trazado 719332" d="M491.809,335.38c-1.216.879-2.765-.794-3.408-2.082a18.459,18.459,0,0,1-2.086-9.746,13.315,13.315,0,0,1,4.456-8.955c4.724-4.053,12.231-4.348,16.683-8.662C507.454,305.935,502.188,327.879,491.809,335.38Z" transform="translate(-357.463 -292.006)" fill="#bcea94"/>
                  <path id="Trazado_719333" data-name="Trazado 719333" d="M262.8,291.057c-1.241,2.952-1.848,6.691.268,9.094A8.877,8.877,0,0,0,266.5,302.3a34.776,34.776,0,0,0,5.862,1.8c1.4.3,2.955.584,3.845,1.707,2.021,2.551-1.186,6.554.269,9.466,1.106,2.211,4.135,2.426,6.6,2.238,4.491-.343,9.161-1.09,12.791-3.756s5.821-7.774,3.873-11.835c-.77-1.605-2.1-2.917-2.7-4.591a11.778,11.778,0,0,1-.382-4.593Z" transform="translate(-261.671 -285.66)" fill="#bcea94"/>
                </g>
              </g>
            </g>
          </g>
          <path id="Trazado_719335" data-name="Trazado 719335" d="M247.373,260.273c1.026,8.124,40.975,17.639,82.669,17,49.027-.752,80.412-12.056,77.336-19.857-2.35-5.958-45.409-11.132-78.706-10.831S246.276,251.585,247.373,260.273Z" transform="translate(-247.354 -243.389)" fill="#99c96b"/>
          <g id="Grupo_1005308" data-name="Grupo 1005308" transform="translate(106.61)">
            <path id="Trazado_719336" data-name="Trazado 719336" d="M433.684,246.8s-.531-1.023-.283-1.145.991.491.991.491-.637-2.453,0-2.576,1.593,2.085,1.593,2.085.283-4.354.955-4.25,1.2,4.1,1.2,4.1.248-1.324.708-1.293.565,2.269.565,2.269.78-.767,1.24-.644,0,1.165,0,1.165" transform="translate(-433.289 -241.185)" fill="#99c96b"/>
            <g id="Grupo_1005307" data-name="Grupo 1005307">
              <path id="Trazado_719337" data-name="Trazado 719337" d="M436.324,241.6a10.239,10.239,0,0,0-.411,2.028c-.04.327-.073.647-.1.96a.382.382,0,0,0,0,.1v.047l-.041-.063a7.418,7.418,0,0,0-.408-.665,2.829,2.829,0,0,0-.513-.587.716.716,0,0,0-.421-.173.43.43,0,0,0-.265.083.569.569,0,0,0-.142.2,1.705,1.705,0,0,0-.081.725,5.79,5.79,0,0,0,.079.641c.032.194.081.424.116.566.021.093.072.233.083.314a2.613,2.613,0,0,0-.432-.258.753.753,0,0,0-.349-.089c-.137,0-.19.142-.173.25a2.986,2.986,0,0,0,.392.963,3.419,3.419,0,0,1-.3-.946c-.009-.071.028-.169.12-.151a.65.65,0,0,1,.248.093,5.175,5.175,0,0,1,.778.576c-.022-.184-.106-.486-.147-.747-.042-.235-.064-.4-.088-.606a2.829,2.829,0,0,1,.041-1.2c.042-.075.063-.1.115-.085.05-.006.134.05.209.109a2.573,2.573,0,0,1,.425.527,7.337,7.337,0,0,1,.369.643c.218.412.442.942.678,1.485q.032-.431.065-.876l.074-.832.113-.945a10.434,10.434,0,0,1,.4-1.925,1.163,1.163,0,0,1,.12-.249l.021-.029a.551.551,0,0,1,.1.132,2.219,2.219,0,0,1,.13.264,8.573,8.573,0,0,1,.36,1.192c.19.8.329,1.585.442,2.3l.174,1.107.2-1.1a4.237,4.237,0,0,1,.21-.755c.075-.219.249-.432.285-.4a.047.047,0,0,1,.039.021c.022.013.044.067.067.1a2.01,2.01,0,0,1,.1.279,5.662,5.662,0,0,1,.134.6q.05.3.085.579.038.393.073.758c.154-.153.3-.3.441-.412a2.968,2.968,0,0,1,.3-.225.779.779,0,0,1,.6-.17c.173.069.161.34.134.526a2.984,2.984,0,0,1-.15.572,2.805,2.805,0,0,0,.206-.561,1.11,1.11,0,0,0,.036-.325.347.347,0,0,0-.181-.314.876.876,0,0,0-.727.132,3.1,3.1,0,0,0-.314.2c-.061.043-.116.085-.165.126a.873.873,0,0,1-.007-.141l-.008-.19q-.019-.289-.056-.6a5.886,5.886,0,0,0-.113-.635,2.316,2.316,0,0,0-.112-.335.84.84,0,0,0-.113-.178.456.456,0,0,0-.243-.136l-.14.014a1.018,1.018,0,0,0-.127.059.775.775,0,0,0-.167.158,1.714,1.714,0,0,0-.212.366,4.408,4.408,0,0,0-.257.824l.377.01c-.092-.733-.214-1.521-.4-2.348a8.378,8.378,0,0,0-.369-1.263,2.413,2.413,0,0,0-.158-.325.711.711,0,0,0-.348-.334.385.385,0,0,0-.31.011.554.554,0,0,0-.218.192A1.617,1.617,0,0,0,436.324,241.6Z" transform="translate(-433.255 -241.022)" fill="#7ca550"/>
            </g>
          </g>
          <g id="Grupo_1005310" data-name="Grupo 1005310" transform="translate(8.668 11.286)">
            <path id="Trazado_719338" data-name="Trazado 719338" d="M262.9,266.481s-.531-1.023-.283-1.145.991.491.991.491-.637-2.453,0-2.575,1.593,2.085,1.593,2.085.283-4.354.956-4.25,1.2,4.1,1.2,4.1.248-1.324.708-1.293.565,2.269.565,2.269.781-.767,1.24-.644,0,1.165,0,1.165" transform="translate(-262.503 -260.864)" fill="#99c96b"/>
            <g id="Grupo_1005309" data-name="Grupo 1005309">
              <path id="Trazado_719339" data-name="Trazado 719339" d="M265.538,261.282a10.155,10.155,0,0,0-.411,2.027c-.041.327-.073.647-.1.96a.426.426,0,0,0-.005.1v.047l-.041-.063a7.318,7.318,0,0,0-.408-.665,2.828,2.828,0,0,0-.513-.587.718.718,0,0,0-.421-.173.427.427,0,0,0-.266.083.565.565,0,0,0-.142.2,1.723,1.723,0,0,0-.081.725,5.946,5.946,0,0,0,.079.641c.032.194.082.424.116.566.021.093.072.233.082.314a2.586,2.586,0,0,0-.432-.258.751.751,0,0,0-.349-.089c-.137,0-.189.143-.172.25a2.967,2.967,0,0,0,.392.963,3.4,3.4,0,0,1-.3-.946c-.009-.071.029-.169.12-.151a.65.65,0,0,1,.248.093,5.208,5.208,0,0,1,.778.576c-.022-.184-.106-.486-.147-.747-.042-.235-.064-.4-.088-.606a2.83,2.83,0,0,1,.041-1.2c.042-.075.063-.1.115-.085.051-.006.134.05.21.109a2.609,2.609,0,0,1,.425.527,7.332,7.332,0,0,1,.369.643c.218.412.442.942.678,1.485l.065-.875.075-.833.113-.944a10.437,10.437,0,0,1,.4-1.925,1.191,1.191,0,0,1,.12-.249l.022-.029a.586.586,0,0,1,.1.132,2.128,2.128,0,0,1,.13.264,8.494,8.494,0,0,1,.36,1.192c.19.8.33,1.585.442,2.3l.173,1.107.2-1.1a4.181,4.181,0,0,1,.21-.755c.074-.218.249-.432.284-.4a.048.048,0,0,1,.04.021c.022.013.043.067.067.1a2.042,2.042,0,0,1,.106.279,5.961,5.961,0,0,1,.134.6q.05.3.085.579.038.393.073.758c.154-.153.3-.3.441-.412a2.956,2.956,0,0,1,.3-.225.779.779,0,0,1,.6-.17c.173.069.161.34.134.526a3,3,0,0,1-.15.572,2.84,2.84,0,0,0,.206-.561,1.109,1.109,0,0,0,.036-.325.349.349,0,0,0-.181-.314.877.877,0,0,0-.728.132,3.008,3.008,0,0,0-.314.2q-.092.064-.165.126a.875.875,0,0,1-.006-.14l-.008-.19q-.02-.289-.056-.6a5.83,5.83,0,0,0-.114-.635,2.255,2.255,0,0,0-.112-.335.814.814,0,0,0-.114-.178.455.455,0,0,0-.242-.136l-.14.014a1.024,1.024,0,0,0-.127.059.777.777,0,0,0-.167.158,1.729,1.729,0,0,0-.213.366,4.439,4.439,0,0,0-.257.824l.377.01c-.092-.733-.213-1.521-.4-2.348a8.51,8.51,0,0,0-.369-1.263,2.488,2.488,0,0,0-.159-.325.709.709,0,0,0-.348-.334.385.385,0,0,0-.31.011.551.551,0,0,0-.218.192A1.6,1.6,0,0,0,265.538,261.282Z" transform="translate(-262.469 -260.701)" fill="#7ca550"/>
            </g>
          </g>
          <g id="Grupo_1005312" data-name="Grupo 1005312" transform="translate(31.072 3.323)">
            <path id="Trazado_719340" data-name="Trazado 719340" d="M302.186,252.524s-.738-2.329-.276-2.735,1.494,1.519,1.494,1.519.38-3.764,1.042-4.106.974,3.243.974,5.107" transform="translate(-301.63 -246.971)" fill="#99c96b"/>
            <g id="Grupo_1005311" data-name="Grupo 1005311">
              <path id="Trazado_719341" data-name="Trazado 719341" d="M303.428,248.828c-.08.4-.144.8-.2,1.185l-.038.289-.017.143c-.006.047,0,.016,0,.029l0,.047a.2.2,0,0,1-.042-.048l-.146-.205c-.059-.08-.118-.159-.181-.235a2.651,2.651,0,0,0-.413-.424.815.815,0,0,0-.285-.159.408.408,0,0,0-.392.073.749.749,0,0,0-.178.483,2.513,2.513,0,0,0,.017.42,6.017,6.017,0,0,0,.143.74,10.21,10.21,0,0,0,.394,1.2c-.08-.363-.162-.775-.231-1.236a6.961,6.961,0,0,1-.069-.725,1.072,1.072,0,0,1,.122-.661c.036-.034.141.01.265.12a2.43,2.43,0,0,1,.337.39c.055.073.106.15.158.228l.179.284c.176.278.387.688.594,1.071q.062-.533.127-1.084.047-.335.1-.68c.059-.381.125-.769.2-1.16a10.618,10.618,0,0,1,.265-1.061,2.621,2.621,0,0,1,.19-.459.572.572,0,0,1,.1-.136c.006-.014.011-.009.017-.009a.451.451,0,0,1,.083.119,1.523,1.523,0,0,1,.093.211,4.616,4.616,0,0,1,.141.466c.079.317.138.634.19.942.2,1.236.3,2.325.374,3.165a18.677,18.677,0,0,0-.048-3.209c-.033-.317-.077-.645-.144-.982a4.675,4.675,0,0,0-.133-.516,1.923,1.923,0,0,0-.108-.268.716.716,0,0,0-.234-.292.384.384,0,0,0-.462.014.83.83,0,0,0-.242.272,2.935,2.935,0,0,0-.239.543A9.64,9.64,0,0,0,303.428,248.828Z" transform="translate(-301.535 -246.817)" fill="#7ca550"/>
            </g>
          </g>
          <g id="Grupo_1005314" data-name="Grupo 1005314" transform="translate(46.23 15.3)">
            <path id="Trazado_719342" data-name="Trazado 719342" d="M332.169,274.939s.934-2.945.35-3.459-1.89,1.921-1.89,1.921-.48-4.76-1.317-5.193-1.232,4.1-1.232,6.459" transform="translate(-328.015 -267.905)" fill="#99c96b"/>
            <g id="Grupo_1005313" data-name="Grupo 1005313">
              <path id="Trazado_719343" data-name="Trazado 719343" d="M329.854,270.372c.1.494.182.985.256,1.467l.054.359q.037.274.073.543.082.7.161,1.372c.267-.494.521-.994.764-1.384.079-.125.157-.249.233-.372.066-.1.131-.2.2-.288a3.136,3.136,0,0,1,.424-.491.678.678,0,0,1,.208-.143.1.1,0,0,1,.114,0,.674.674,0,0,1,.131.351,3.177,3.177,0,0,1,.02.474c-.011.318-.046.625-.085.916-.085.583-.187,1.1-.286,1.563a12.771,12.771,0,0,0,.5-1.52,7.74,7.74,0,0,0,.184-.936,3.337,3.337,0,0,0,.023-.532.953.953,0,0,0-.228-.619c-.079-.036-.151-.108-.242-.114a.579.579,0,0,0-.259.016,1.056,1.056,0,0,0-.366.2,3.38,3.38,0,0,0-.526.537c-.08.1-.155.2-.229.3l-.11.154-.055.079-.012.015a.524.524,0,0,1-.041.041l0-.061v-.008l-.021-.168-.048-.366c-.068-.49-.149-.992-.249-1.5a13.065,13.065,0,0,0-.329-1.3,4.627,4.627,0,0,0-.241-.608,1.5,1.5,0,0,0-.172-.291,1.035,1.035,0,0,0-.309-.294.531.531,0,0,0-.478.007.671.671,0,0,0-.193.161.961.961,0,0,0-.1.145,2.565,2.565,0,0,0-.222.54,7.863,7.863,0,0,0-.217,1.013c-.1.656-.15,1.276-.182,1.858a22.743,22.743,0,0,0,.031,2.985c.072-.815.171-1.811.325-2.952.079-.57.17-1.177.3-1.8a8.291,8.291,0,0,1,.247-.937,2.1,2.1,0,0,1,.186-.415.419.419,0,0,1,.052-.069l.007,0a.024.024,0,0,1,.017,0c-.013.007.035.022.072.1a1,1,0,0,1,.115.21,4.347,4.347,0,0,1,.2.533C329.669,269.514,329.764,269.939,329.854,270.372Z" transform="translate(-327.967 -267.701)" fill="#7ca550"/>
            </g>
          </g>
          <g id="Grupo_1005316" data-name="Grupo 1005316" transform="translate(133.538 11.316)">
            <path id="Trazado_719344" data-name="Trazado 719344" d="M483.526,266.461s.738-2.329.276-2.735-1.495,1.519-1.495,1.519-.379-3.764-1.041-4.106-.974,3.242-.974,5.107" transform="translate(-480.245 -260.908)" fill="#99c96b"/>
            <g id="Grupo_1005315" data-name="Grupo 1005315">
              <path id="Trazado_719345" data-name="Trazado 719345" d="M481.711,262.854c.077.391.143.779.2,1.16l.1.68c.042.366.085.728.127,1.083.206-.384.417-.793.594-1.071l.178-.284c.052-.078.1-.155.158-.228a2.487,2.487,0,0,1,.337-.39c.125-.11.229-.154.266-.12a1.072,1.072,0,0,1,.122.661c-.009.252-.038.5-.069.725-.069.461-.151.873-.231,1.237a10.2,10.2,0,0,0,.393-1.2,6.007,6.007,0,0,0,.143-.741,2.5,2.5,0,0,0,.017-.42.746.746,0,0,0-.178-.483.407.407,0,0,0-.391-.073.824.824,0,0,0-.286.159,2.648,2.648,0,0,0-.413.424c-.063.076-.122.155-.181.235l-.146.205a.2.2,0,0,1-.041.048l0-.047c0-.013,0,.018,0-.029l-.018-.143-.038-.289c-.054-.388-.118-.783-.2-1.185a9.768,9.768,0,0,0-.287-1.113,2.911,2.911,0,0,0-.24-.542.827.827,0,0,0-.241-.272.384.384,0,0,0-.462-.014.712.712,0,0,0-.234.292,1.852,1.852,0,0,0-.108.268,4.548,4.548,0,0,0-.133.516c-.068.338-.111.665-.145.982a18.741,18.741,0,0,0-.048,3.209c.073-.84.174-1.929.375-3.165.052-.308.112-.625.19-.942a4.611,4.611,0,0,1,.141-.466,1.561,1.561,0,0,1,.093-.211.416.416,0,0,1,.083-.118c.006,0,.01-.005.017.009a.562.562,0,0,1,.1.136,2.646,2.646,0,0,1,.19.459A10.634,10.634,0,0,1,481.711,262.854Z" transform="translate(-480.21 -260.754)" fill="#7ca550"/>
            </g>
          </g>
          <g id="Grupo_1005318" data-name="Grupo 1005318" transform="translate(107.254 18.548)">
            <path id="Trazado_719346" data-name="Trazado 719346" d="M435.22,280.759s-.956-3.018-.358-3.544,1.936,1.969,1.936,1.969.492-4.877,1.35-5.321,1.262,4.2,1.262,6.617" transform="translate(-434.5 -273.565)" fill="#99c96b"/>
            <g id="Grupo_1005317" data-name="Grupo 1005317">
              <path id="Trazado_719347" data-name="Trazado 719347" d="M437.4,276.086c-.1.506-.186,1.009-.262,1.5q-.064.446-.125.881l-.165,1.4c-.267-.5-.541-1.027-.768-1.388l-.232-.368c-.068-.1-.135-.2-.205-.3a3.22,3.22,0,0,0-.436-.505c-.162-.143-.3-.2-.343-.155a1.388,1.388,0,0,0-.159.856,9.353,9.353,0,0,0,.09.94c.09.6.2,1.132.3,1.6a13.233,13.233,0,0,1-.51-1.56,7.792,7.792,0,0,1-.186-.96,3.3,3.3,0,0,1-.021-.544.969.969,0,0,1,.231-.626.527.527,0,0,1,.508-.095,1.055,1.055,0,0,1,.369.206,3.438,3.438,0,0,1,.536.549c.081.1.158.2.234.3l.189.267a.3.3,0,0,0,.054.062l0-.061c0-.017,0,.024,0-.037l.022-.185.05-.375c.07-.5.152-1.015.256-1.535a12.507,12.507,0,0,1,.372-1.441,3.768,3.768,0,0,1,.31-.7,1.078,1.078,0,0,1,.313-.353.5.5,0,0,1,.6-.018.929.929,0,0,1,.3.379,2.467,2.467,0,0,1,.139.347,6.061,6.061,0,0,1,.173.668c.087.438.143.862.186,1.273a24.221,24.221,0,0,1,.063,4.158c-.095-1.089-.225-2.5-.485-4.1-.068-.4-.145-.81-.247-1.22a5.967,5.967,0,0,0-.182-.6,2.03,2.03,0,0,0-.121-.274.567.567,0,0,0-.107-.153c-.009,0-.014-.006-.022.011a.735.735,0,0,0-.13.176,3.385,3.385,0,0,0-.247.6A13.779,13.779,0,0,0,437.4,276.086Z" transform="translate(-434.377 -273.365)" fill="#7ca550"/>
            </g>
          </g>
          <g id="Grupo_1005319" data-name="Grupo 1005319" transform="translate(0.019 14.025)">
            <path id="Trazado_719348" data-name="Trazado 719348" d="M328.5,284.166a289.08,289.08,0,0,1-47.88-3.523,157.282,157.282,0,0,1-19.544-4.308,56.29,56.29,0,0,1-8.131-3.042,19.709,19.709,0,0,1-3.4-2.029,5.212,5.212,0,0,1-2.149-2.926,5.277,5.277,0,0,0,1.981,3.129,19.374,19.374,0,0,0,3.334,2.282,52.934,52.934,0,0,0,8.066,3.515,138.622,138.622,0,0,0,19.546,5.08,259.073,259.073,0,0,0,96.349-.641,113.6,113.6,0,0,0,19.381-5.722,39.6,39.6,0,0,0,7.786-4.127,12.557,12.557,0,0,0,2.934-2.794,4.736,4.736,0,0,0,.807-1.757,3.051,3.051,0,0,0-.179-1.824,3.005,3.005,0,0,1,.049,1.793,4.566,4.566,0,0,1-.888,1.63,12.47,12.47,0,0,1-3.013,2.526,41.086,41.086,0,0,1-7.85,3.641,125.333,125.333,0,0,1-19.362,4.939A288.826,288.826,0,0,1,328.5,284.166Z" transform="translate(-247.387 -265.479)" fill="#ddefab"/>
          </g>
        </g>
        <g id="Grupo_1005365" data-name="Grupo 1005365" transform="translate(5.01)">
          <g id="Grupo_1005360" data-name="Grupo 1005360">
            <path id="Trazado_719349" data-name="Trazado 719349" d="M326.739,131.2s-13.013,10.844-26.207,6.326S293.3,124.7,273.965,120.9s-13.375-18.977-6.326-22.592,4.7-7.952-1.988-10.3-12.832-10.449-7.591-19.232,20.242-16.734,40.3-13.481,17.711-16.838,41.248-21.448c28.392-5.562,36.474,6.478,34.019,18.2-2.02,9.645-.209,8.893,6.039,10.053,7.141,1.326,8.142,8.4,8.259,11.634s10.321.578,12.167,9.862c1.3,6.559-4.786,6.987-4.537,9.84.334,3.842,12.235,2,10.629,11.359-1.861,10.855-23.126,10.717-29.555,18.162s-24.028,17.823-37.9,3.948Z" transform="translate(-256.09 -32.447)" fill="#99c96b"/>
            <path id="Trazado_719350" data-name="Trazado 719350" d="M357.088,215.239a74.1,74.1,0,0,0,25.922-.448s-4.672-39.855-4.223-42.844,12.106-15.691,12.853-16.289l-1.943-1.345s-10.312,7.621-11.284,7.621-1.592-4.311-1.293-5.133,8.773-11.753,8.773-11.753l-1.27-1.121s-10.69,9.744-13.757,9.489c-4.342-.36-10.582-7.1-10.582-7.1l-1.419.673s4.732,8.225,4.872,9.419-.4,6.579-.893,6.93-13.781-8.193-15.606-9.878l-2.036,1.193s15.1,16.568,16.148,18.393S356.985,214,357.088,215.239Z" transform="translate(-294.098 -79.995)" fill="#3e9360"/>
            <g id="Grupo_1005359" data-name="Grupo 1005359" transform="translate(18.106 20.206)">
              <g id="Grupo_1005322" data-name="Grupo 1005322" transform="translate(43.872 42.397)">
                <path id="Trazado_719351" data-name="Trazado 719351" d="M364.165,145.142a3.158,3.158,0,0,0,2.771,1.707,3.9,3.9,0,0,0,3.074-1.771,7.433,7.433,0,0,0,1.141-3.468" transform="translate(-364.165 -141.61)" fill="#99c96b"/>
                <g id="Grupo_1005321" data-name="Grupo 1005321">
                  <path id="Trazado_719352" data-name="Trazado 719352" d="M368.532,145.858a3.1,3.1,0,0,1-2.54.465,3.624,3.624,0,0,1-1.827-1.181,2.846,2.846,0,0,0,1.579,1.838,3.126,3.126,0,0,0,1.618.288,3.678,3.678,0,0,0,1.7-.6A4.674,4.674,0,0,0,370.965,144a6.059,6.059,0,0,0,.185-2.39,18.785,18.785,0,0,1-.84,2.139A5.193,5.193,0,0,1,368.532,145.858Z" transform="translate(-364.165 -141.61)" fill="#7aa54e"/>
                </g>
              </g>
              <g id="Grupo_1005324" data-name="Grupo 1005324" transform="translate(71.395 40.735)">
                <path id="Trazado_719353" data-name="Trazado 719353" d="M412.4,138.713a5.607,5.607,0,0,0,5.407,5.648" transform="translate(-412.261 -138.713)" fill="#99c96b"/>
                <g id="Grupo_1005323" data-name="Grupo 1005323">
                  <path id="Trazado_719354" data-name="Trazado 719354" d="M414.2,142.3a8.335,8.335,0,0,1-1.906-3.588,3.9,3.9,0,0,0-.034,1.945,4.91,4.91,0,0,0,3.5,3.652,3.893,3.893,0,0,0,1.945.05A8.334,8.334,0,0,1,414.2,142.3Z" transform="translate(-412.157 -138.713)" fill="#7aa54e"/>
                </g>
              </g>
              <g id="Grupo_1005326" data-name="Grupo 1005326" transform="translate(75.954 51.164)">
                <path id="Trazado_719355" data-name="Trazado 719355" d="M420.417,156.9a4.5,4.5,0,0,0,1.646,4.185,5.764,5.764,0,0,0,4.449,1.112,8.078,8.078,0,0,0,4.159-2.084" transform="translate(-420.212 -156.898)" fill="#99c96b"/>
                <g id="Grupo_1005325" data-name="Grupo 1005325">
                  <path id="Trazado_719356" data-name="Trazado 719356" d="M424.18,161.631a4.961,4.961,0,0,1-2.995-1.98,4.811,4.811,0,0,1-.874-2.753,3.929,3.929,0,0,0,.27,3.111,4.682,4.682,0,0,0,1.32,1.595,5.476,5.476,0,0,0,2.055.967,6.253,6.253,0,0,0,4.185-.5,6.894,6.894,0,0,0,2.425-1.962,12.276,12.276,0,0,1-2.69,1.312A6.794,6.794,0,0,1,424.18,161.631Z" transform="translate(-420.106 -156.898)" fill="#7aa54e"/>
                </g>
              </g>
              <g id="Grupo_1005328" data-name="Grupo 1005328" transform="translate(84.782 51.878)">
                <path id="Trazado_719357" data-name="Trazado 719357" d="M435.673,158.143a3.111,3.111,0,0,0,1.592,2.846,3.47,3.47,0,0,0,3.3-.034,3.927,3.927,0,0,0,1.909-2.728" transform="translate(-435.571 -158.143)" fill="#99c96b"/>
                <g id="Grupo_1005327" data-name="Grupo 1005327">
                  <path id="Trazado_719358" data-name="Trazado 719358" d="M438.84,160.907a3.076,3.076,0,0,1-2.286-.916,3.521,3.521,0,0,1-.952-1.847,2.723,2.723,0,0,0,.4,2.285,3.157,3.157,0,0,0,1.164,1.052,3.546,3.546,0,0,0,1.687.392,3.7,3.7,0,0,0,1.668-.428,3.6,3.6,0,0,0,1.172-1.009,3.377,3.377,0,0,0,.7-2.207,5.169,5.169,0,0,1-1.226,1.737A3.541,3.541,0,0,1,438.84,160.907Z" transform="translate(-435.5 -158.143)" fill="#7aa54e"/>
                </g>
              </g>
              <g id="Grupo_1005330" data-name="Grupo 1005330" transform="translate(65.991 37.306)">
                <path id="Trazado_719359" data-name="Trazado 719359" d="M402.735,132.9a5.728,5.728,0,0,0,5.43,3.439,6.531,6.531,0,0,0,5.441-3.605" transform="translate(-402.735 -132.733)" fill="#99c96b"/>
                <g id="Grupo_1005329" data-name="Grupo 1005329" transform="translate(0.001)">
                  <path id="Trazado_719360" data-name="Trazado 719360" d="M408.152,135.856a6.139,6.139,0,0,1-3.409-.95,6.435,6.435,0,0,1-2.007-2.005,4.651,4.651,0,0,0,1.59,2.57,5.744,5.744,0,0,0,3.862,1.351,6.076,6.076,0,0,0,3.775-1.555,5.539,5.539,0,0,0,1.644-2.532,8.629,8.629,0,0,1-2.076,1.979A6.659,6.659,0,0,1,408.152,135.856Z" transform="translate(-402.736 -132.733)" fill="#7aa54e"/>
                </g>
              </g>
              <g id="Grupo_1005332" data-name="Grupo 1005332" transform="translate(27.672 49.245)">
                <path id="Trazado_719361" data-name="Trazado 719361" d="M335.916,157.952a7.025,7.025,0,0,0,5.422,2.974,6.594,6.594,0,0,0,4.547-.971c1.911-1.391,2.446-4.055,2.174-6.4" transform="translate(-335.916 -153.551)" fill="#99c96b"/>
                <g id="Grupo_1005331" data-name="Grupo 1005331">
                  <path id="Trazado_719362" data-name="Trazado 719362" d="M343.921,160.313a9.515,9.515,0,0,1-4.855-.283,6.617,6.617,0,0,1-3.151-2.078,5.513,5.513,0,0,0,2.895,2.732,8.678,8.678,0,0,0,5.335.567,5.17,5.17,0,0,0,2.56-1.413,5.451,5.451,0,0,0,1.308-2.287,7.633,7.633,0,0,0,.045-4,10.6,10.6,0,0,1-.707,3.765,5.283,5.283,0,0,1-1.274,1.88A4.673,4.673,0,0,1,343.921,160.313Z" transform="translate(-335.916 -153.551)" fill="#7aa54e"/>
                </g>
              </g>
              <g id="Grupo_1005334" data-name="Grupo 1005334" transform="translate(25.023 51.549)">
                <path id="Trazado_719363" data-name="Trazado 719363" d="M331.324,157.943a2.472,2.472,0,0,0,1.754,1.715,3.363,3.363,0,0,0,2.5-.046,2.155,2.155,0,0,0,1.271-2.042" transform="translate(-331.309 -157.569)" fill="#99c96b"/>
                <g id="Grupo_1005333" data-name="Grupo 1005333">
                  <path id="Trazado_719364" data-name="Trazado 719364" d="M334.317,159.392a3.437,3.437,0,0,1-3-1.449,1.862,1.862,0,0,0,.742,1.6,3.569,3.569,0,0,0,2.259.812,3.04,3.04,0,0,0,1.286-.272,2.427,2.427,0,0,0,.938-.768,1.809,1.809,0,0,0,.3-1.748,2.317,2.317,0,0,1-.815,1.273A2.6,2.6,0,0,1,334.317,159.392Z" transform="translate(-331.297 -157.569)" fill="#7aa54e"/>
                </g>
              </g>
              <g id="Grupo_1005336" data-name="Grupo 1005336" transform="translate(34.993 23.997)">
                <path id="Trazado_719365" data-name="Trazado 719365" d="M348.681,109.525a5.245,5.245,0,0,0,1.6,2.562,9.893,9.893,0,0,0,14.756-1.181" transform="translate(-348.681 -109.525)" fill="#99c96b"/>
                <g id="Grupo_1005335" data-name="Grupo 1005335" transform="translate(0 0.001)">
                  <path id="Trazado_719366" data-name="Trazado 719366" d="M356.431,114.332a10.684,10.684,0,0,1-5.023-1.753,6.662,6.662,0,0,1-2.727-3.053,4.111,4.111,0,0,0,.678,1.835,7.855,7.855,0,0,0,1.63,1.782,9.754,9.754,0,0,0,5.365,2.152,9.473,9.473,0,0,0,5.626-1.333,8.67,8.67,0,0,0,3.055-3.055,11.917,11.917,0,0,1-3.388,2.437A10.282,10.282,0,0,1,356.431,114.332Z" transform="translate(-348.681 -109.526)" fill="#7aa54e"/>
                </g>
              </g>
              <g id="Grupo_1005338" data-name="Grupo 1005338" transform="translate(48.211 22.974)">
                <path id="Trazado_719367" data-name="Trazado 719367" d="M371.731,107.741a7.621,7.621,0,0,0,3.369,2.322,4,4,0,0,0,3.876-.776" transform="translate(-371.731 -107.741)" fill="#99c96b"/>
                <g id="Grupo_1005337" data-name="Grupo 1005337">
                  <path id="Trazado_719368" data-name="Trazado 719368" d="M375.234,109.6a15.677,15.677,0,0,1-3.5-1.858,5.284,5.284,0,0,0,1.085,1.5,5.228,5.228,0,0,0,2.144,1.285,4.113,4.113,0,0,0,2.548-.058,2.737,2.737,0,0,0,1.468-1.18,4.842,4.842,0,0,1-1.638.5A5.412,5.412,0,0,1,375.234,109.6Z" transform="translate(-371.731 -107.741)" fill="#7aa54e"/>
                </g>
              </g>
              <g id="Grupo_1005340" data-name="Grupo 1005340" transform="translate(64.015 1.806)">
                <path id="Trazado_719369" data-name="Trazado 719369" d="M399.349,70.831a8.774,8.774,0,0,0,3.567,6.859,11.918,11.918,0,0,0,7.54,2.229c3.564-.111,7.388-1.933,8.526-5.312" transform="translate(-399.315 -70.831)" fill="#99c96b"/>
                <g id="Grupo_1005339" data-name="Grupo 1005339">
                  <path id="Trazado_719370" data-name="Trazado 719370" d="M407.844,79.258a10.583,10.583,0,0,1-6.292-3.354,8.978,8.978,0,0,1-2.229-5.073,7.98,7.98,0,0,0,1.684,5.515,10.423,10.423,0,0,0,6.674,3.863,12.749,12.749,0,0,0,4.1.039,10.969,10.969,0,0,0,3.534-1.207,8.316,8.316,0,0,0,2.5-2.078,6.22,6.22,0,0,0,1.151-2.357,7.211,7.211,0,0,1-1.449,2.094,8.871,8.871,0,0,1-2.516,1.715,11.489,11.489,0,0,1-3.343.945A13.31,13.31,0,0,1,407.844,79.258Z" transform="translate(-399.289 -70.831)" fill="#7aa54e"/>
                </g>
              </g>
              <g id="Grupo_1005342" data-name="Grupo 1005342" transform="translate(80.243 1.806)">
                <path id="Trazado_719371" data-name="Trazado 719371" d="M427.586,70.831a7.048,7.048,0,0,0,3.471,4.026A4.166,4.166,0,0,0,436,73.817" transform="translate(-427.586 -70.831)" fill="#99c96b"/>
                <g id="Grupo_1005341" data-name="Grupo 1005341">
                  <path id="Trazado_719372" data-name="Trazado 719372" d="M431.245,74.412a6.891,6.891,0,0,1-2.262-1.731,17.53,17.53,0,0,1-1.4-1.85,5.994,5.994,0,0,0,.832,2.267,5.582,5.582,0,0,0,2.432,2.195,4.511,4.511,0,0,0,3.316.132A3.134,3.134,0,0,0,436,73.817a4.216,4.216,0,0,1-2.017.93A4.884,4.884,0,0,1,431.245,74.412Z" transform="translate(-427.586 -70.831)" fill="#7aa54e"/>
                </g>
              </g>
              <g id="Grupo_1005344" data-name="Grupo 1005344" transform="translate(4.832 60.773)">
                <path id="Trazado_719373" data-name="Trazado 719373" d="M296.089,174.655a4.52,4.52,0,0,0,8.3-1" transform="translate(-296.089 -173.654)" fill="#99c96b"/>
                <g id="Grupo_1005343" data-name="Grupo 1005343">
                  <path id="Trazado_719374" data-name="Trazado 719374" d="M300.519,176.46a4.909,4.909,0,0,1-2.659-.479,5.908,5.908,0,0,1-1.77-1.326,3.724,3.724,0,0,0,1.405,1.925,4.373,4.373,0,0,0,5.991-.722,3.721,3.721,0,0,0,.908-2.2,5.929,5.929,0,0,1-1.405,1.709A4.908,4.908,0,0,1,300.519,176.46Z" transform="translate(-296.089 -173.654)" fill="#7aa54e"/>
                </g>
              </g>
              <g id="Grupo_1005346" data-name="Grupo 1005346" transform="translate(3.894 17.729)">
                <path id="Trazado_719375" data-name="Trazado 719375" d="M294.453,98.92a7.005,7.005,0,0,0,4.08,5.2,7.8,7.8,0,0,0,6.662-.3,8.794,8.794,0,0,0,4.221-5.227" transform="translate(-294.453 -98.595)" fill="#99c96b"/>
                <g id="Grupo_1005345" data-name="Grupo 1005345" transform="translate(0.001)">
                  <path id="Trazado_719376" data-name="Trazado 719376" d="M301.875,104.239a7.617,7.617,0,0,1-2.836-.4,7.026,7.026,0,0,1-2.272-1.32,7.5,7.5,0,0,1-2.314-3.605,6.357,6.357,0,0,0,1.83,4.114,6.984,6.984,0,0,0,2.44,1.65,7.7,7.7,0,0,0,3.2.52,8.084,8.084,0,0,0,7.492-6.608,10.354,10.354,0,0,1-2.518,3.536,8.408,8.408,0,0,1-2.225,1.449A8.107,8.107,0,0,1,301.875,104.239Z" transform="translate(-294.454 -98.595)" fill="#7aa54e"/>
                </g>
              </g>
              <g id="Grupo_1005348" data-name="Grupo 1005348" transform="translate(0 16.26)">
                <path id="Trazado_719377" data-name="Trazado 719377" d="M287.663,96.421a7.651,7.651,0,0,0,3.83,1.589,3.343,3.343,0,0,0,3.378-1.976" transform="translate(-287.663 -96.034)" fill="#99c96b"/>
                <g id="Grupo_1005347" data-name="Grupo 1005347">
                  <path id="Trazado_719378" data-name="Trazado 719378" d="M291.512,97.527a15.627,15.627,0,0,1-3.849-1.106,5.8,5.8,0,0,0,1.391,1.249,5.009,5.009,0,0,0,2.4.821,3.689,3.689,0,0,0,2.488-.782,2.352,2.352,0,0,0,.924-1.675,3.451,3.451,0,0,1-1.309,1.088A4.341,4.341,0,0,1,291.512,97.527Z" transform="translate(-287.663 -96.034)" fill="#7aa54e"/>
                </g>
              </g>
              <g id="Grupo_1005350" data-name="Grupo 1005350" transform="translate(101.683 36.763)">
                <path id="Trazado_719379" data-name="Trazado 719379" d="M464.971,131.787a4.672,4.672,0,0,0,4.319,3.326,5.42,5.42,0,0,0,4.768-2.851" transform="translate(-464.971 -131.787)" fill="#99c96b"/>
                <g id="Grupo_1005349" data-name="Grupo 1005349">
                  <path id="Trazado_719380" data-name="Trazado 719380" d="M469.309,134.631a5.025,5.025,0,0,1-2.789-1,5.3,5.3,0,0,1-1.549-1.841,3.737,3.737,0,0,0,1.081,2.364,4.726,4.726,0,0,0,3.23,1.445,5.027,5.027,0,0,0,3.321-1.187,4.524,4.524,0,0,0,1.455-2.148,7.493,7.493,0,0,1-1.862,1.576A5.519,5.519,0,0,1,469.309,134.631Z" transform="translate(-464.971 -131.787)" fill="#7aa54e"/>
                </g>
              </g>
              <g id="Grupo_1005352" data-name="Grupo 1005352" transform="translate(99.604 35.348)">
                <path id="Trazado_719381" data-name="Trazado 719381" d="M461.346,129.319a3.359,3.359,0,0,0,5.866.7" transform="translate(-461.346 -129.319)" fill="#99c96b"/>
                <g id="Grupo_1005351" data-name="Grupo 1005351">
                  <path id="Trazado_719382" data-name="Trazado 719382" d="M464.127,130.937a4.522,4.522,0,0,1-2.781-1.618,2.515,2.515,0,0,0,.657,1.519,3.175,3.175,0,0,0,4.212.5,2.509,2.509,0,0,0,1-1.321A4.524,4.524,0,0,1,464.127,130.937Z" transform="translate(-461.346 -129.319)" fill="#7aa54e"/>
                </g>
              </g>
              <g id="Grupo_1005354" data-name="Grupo 1005354" transform="translate(62.088)">
                <path id="Trazado_719383" data-name="Trazado 719383" d="M395.937,67.681a2.873,2.873,0,0,0,5.32.516" transform="translate(-395.932 -67.681)" fill="#99c96b"/>
                <g id="Grupo_1005353" data-name="Grupo 1005353">
                  <path id="Trazado_719384" data-name="Trazado 719384" d="M398.464,69.268a3.289,3.289,0,0,1-1.527-.591,4.411,4.411,0,0,1-1-1,2.207,2.207,0,0,0,.515,1.5,2.8,2.8,0,0,0,4.012.389,2.207,2.207,0,0,0,.793-1.372,4.412,4.412,0,0,1-1.177.784A3.291,3.291,0,0,1,398.464,69.268Z" transform="translate(-395.929 -67.681)" fill="#7aa54e"/>
                </g>
              </g>
              <g id="Grupo_1005356" data-name="Grupo 1005356" transform="translate(10.771 59.006)">
                <path id="Trazado_719385" data-name="Trazado 719385" d="M306.444,170.572a4.744,4.744,0,0,0,6.964,1.233" transform="translate(-306.444 -170.572)" fill="#99c96b"/>
                <g id="Grupo_1005355" data-name="Grupo 1005355">
                  <path id="Trazado_719386" data-name="Trazado 719386" d="M309.735,172.271a6.983,6.983,0,0,1-3.291-1.7,3.328,3.328,0,0,0,.94,1.543,4.222,4.222,0,0,0,4.612.817,3.328,3.328,0,0,0,1.412-1.127A6.975,6.975,0,0,1,309.735,172.271Z" transform="translate(-306.444 -170.572)" fill="#7aa54e"/>
                </g>
              </g>
              <g id="Grupo_1005358" data-name="Grupo 1005358" transform="translate(99.061 60.19)">
                <path id="Trazado_719387" data-name="Trazado 719387" d="M460.4,172.636a6.923,6.923,0,0,0,4.321,2.109,4.89,4.89,0,0,0,4.3-1.9" transform="translate(-460.399 -172.636)" fill="#99c96b"/>
                <g id="Grupo_1005357" data-name="Grupo 1005357">
                  <path id="Trazado_719388" data-name="Trazado 719388" d="M464.751,174.264a10.094,10.094,0,0,1-4.352-1.628,5.21,5.21,0,0,0,1.5,1.589,5.59,5.59,0,0,0,2.781,1,4.859,4.859,0,0,0,2.9-.713,3.535,3.535,0,0,0,1.439-1.67,6.1,6.1,0,0,1-1.758,1.045A6.018,6.018,0,0,1,464.751,174.264Z" transform="translate(-460.399 -172.636)" fill="#7aa54e"/>
                </g>
              </g>
            </g>
          </g>
          <g id="Grupo_1005362" data-name="Grupo 1005362" transform="translate(61.928 127.292)">
            <path id="Trazado_719389" data-name="Trazado 719389" d="M374.829,263.765s1.137-2.145.758-2.332-1.517.751-1.517.751.976-3.755,0-3.943-2.438,3.191-2.438,3.191-.434-6.665-1.464-6.506-1.842,6.28-1.842,6.28-.38-2.027-1.084-1.98-.865,3.474-.865,3.474-1.195-1.173-1.9-.986,0,1.784,0,1.784" transform="translate(-364.114 -254.63)" fill="#99c96b"/>
            <g id="Grupo_1005361" data-name="Grupo 1005361">
              <path id="Trazado_719390" data-name="Trazado 719390" d="M370.512,255.771a19.537,19.537,0,0,1,.529,2.814c.06.465.112.922.158,1.37q.051.569.1,1.123.047.65.093,1.281c.344-.8.728-1.671.974-2.124.177-.345.365-.674.565-.982a4.021,4.021,0,0,1,.653-.813l.181-.132c.054-.011.12-.07.161-.054.1-.021.135.006.2.121a2.185,2.185,0,0,1,.132.9,8.78,8.78,0,0,1-.066.944q-.056.462-.133.9c-.062.378-.192.875-.25,1.2.287-.237.563-.467.8-.634.139-.1.2-.131.289-.187a2.3,2.3,0,0,1,.256-.135.7.7,0,0,1,.213-.065c.064-.013.146.014.155.085a.549.549,0,0,1,0,.2,2.428,2.428,0,0,1-.057.249,12.713,12.713,0,0,1-.678,1.718,10.91,10.91,0,0,0,.813-1.676,2.461,2.461,0,0,0,.076-.261.776.776,0,0,0,.014-.334c-.061-.256-.436-.181-.61-.107a2.585,2.585,0,0,0-.287.132c-.086.044-.208.117-.246.139-.109.066-.21.134-.3.2a1.741,1.741,0,0,1,.057-.223c.021-.08.042-.161.064-.244.067-.292.128-.595.181-.91a8.882,8.882,0,0,0,.111-.984,2.475,2.475,0,0,0-.141-1.1.619.619,0,0,0-.634-.381.9.9,0,0,0-.346.1c-.091.056-.18.116-.263.179a4.4,4.4,0,0,0-.767.895,11.639,11.639,0,0,0-.615,1.012l-.088.156-.022.034v-.08c0-.011,0,.011,0-.026l-.014-.169q-.061-.679-.145-1.388a19.011,19.011,0,0,0-.538-2.916,4.362,4.362,0,0,0-.2-.539,1.229,1.229,0,0,0-.427-.562.574.574,0,0,0-.5-.043.78.78,0,0,0-.335.242,2.437,2.437,0,0,0-.315.514,10.98,10.98,0,0,0-.63,2.006c-.3,1.316-.5,2.572-.646,3.741l.5-.013a5.512,5.512,0,0,0-.587-1.637,1.34,1.34,0,0,0-.315-.364.759.759,0,0,0-.253-.131.589.589,0,0,0-.33.017.776.776,0,0,0-.36.395,2.547,2.547,0,0,0-.147.393,8.865,8.865,0,0,0-.258,1.49c-.024.24-.042.475-.057.706l-.007.2a1.222,1.222,0,0,1-.009.174c-.077-.066-.152-.124-.257-.2a4.44,4.44,0,0,0-.489-.319,1.38,1.38,0,0,0-1.1-.224.515.515,0,0,0-.29.464,1.646,1.646,0,0,0,.048.5,4.342,4.342,0,0,0,.312.87,4.5,4.5,0,0,1-.237-.884,1.574,1.574,0,0,1-.011-.473.384.384,0,0,1,.233-.34,1.25,1.25,0,0,1,.931.271,4.451,4.451,0,0,1,.447.329c.2.159.426.379.653.606l.084-.953q.044-.339.089-.69a8.959,8.959,0,0,1,.3-1.412,2.159,2.159,0,0,1,.134-.323.422.422,0,0,1,.144-.18c.045-.041.236.1.346.31a5.189,5.189,0,0,1,.484,1.492l.278,1.4.22-1.415c.177-1.145.4-2.393.708-3.673a10.865,10.865,0,0,1,.607-1.884,1.9,1.9,0,0,1,.229-.376c.108-.109.071-.061.079-.071a.906.906,0,0,1,.181.291A3.793,3.793,0,0,1,370.512,255.771Z" transform="translate(-364.077 -254.411)" fill="#7ca550"/>
            </g>
          </g>
          <g id="Grupo_1005364" data-name="Grupo 1005364" transform="translate(81.677 129.579)">
            <path id="Trazado_719391" data-name="Trazado 719391" d="M399.337,265.454s-.907-2.863-.34-3.362,1.837,1.868,1.837,1.868.467-4.628,1.281-5.048,1.2,3.987,1.2,6.278" transform="translate(-398.64 -258.606)" fill="#99c96b"/>
            <g id="Grupo_1005363" data-name="Grupo 1005363">
              <path id="Trazado_719392" data-name="Trazado 719392" d="M400.83,260.889a17.66,17.66,0,0,0-.3,2.025.24.24,0,0,1-.04-.039l-.008-.008-.048-.068-.107-.15c-.073-.1-.146-.2-.224-.29a3.278,3.278,0,0,0-.514-.523,1.028,1.028,0,0,0-.36-.2.537.537,0,0,0-.257-.017.941.941,0,0,0-.233.115.93.93,0,0,0-.222.608,3.229,3.229,0,0,0,.023.518,7.448,7.448,0,0,0,.18.91,12.314,12.314,0,0,0,.492,1.476c-.1-.446-.193-.953-.275-1.519-.038-.283-.072-.581-.082-.889a3.137,3.137,0,0,1,.019-.46.652.652,0,0,1,.124-.336.093.093,0,0,1,.107,0,.662.662,0,0,1,.2.137,3.038,3.038,0,0,1,.411.477c.066.089.13.184.194.28l.094.147.142.231c.237.38.486.871.746,1.352q.077-.657.156-1.334.037-.274.074-.551l.053-.349c.073-.468.154-.946.249-1.426a13.175,13.175,0,0,1,.325-1.3,3.18,3.18,0,0,1,.231-.56.983.983,0,0,1,.107-.153c0-.007.01-.009.016-.006s-.01-.016.021.021a.827.827,0,0,1,.064.1,1.929,1.929,0,0,1,.114.256,5.579,5.579,0,0,1,.173.571c.1.388.171.778.236,1.156.251,1.517.38,2.856.477,3.888a22.451,22.451,0,0,0-.042-3.947c-.04-.39-.092-.794-.175-1.209a5.589,5.589,0,0,0-.163-.637,2.352,2.352,0,0,0-.133-.332,1.382,1.382,0,0,0-.1-.173.733.733,0,0,0-.206-.2.49.49,0,0,0-.569.018,1.014,1.014,0,0,0-.314.348,3.607,3.607,0,0,0-.3.67A11.761,11.761,0,0,0,400.83,260.889Z" transform="translate(-398.513 -258.399)" fill="#7ca550"/>
            </g>
          </g>
        </g>
      </g>
      <path id="Trazado_719393" data-name="Trazado 719393" d="M463.974,323.88a3.68,3.68,0,0,1,2.536-1.555c1.37,0,2.8,1.137,3.979.434a2.748,2.748,0,0,0,.846-.947,22.333,22.333,0,0,1,1.706-2.586,4.288,4.288,0,0,1,2.58-1.593,4.712,4.712,0,0,1,3.962,1.9c1,1.153,1.73,2.533,2.8,3.626a4.23,4.23,0,0,0,4.114,1.413c1.576-.512,2.708-2.388,4.351-2.175a2.948,2.948,0,0,1,1.981,1.539c.45.74.751,1.568,1.266,2.264,1.381,1.863,7.786,2.826,10.807,3.195H453.662c1.113,0,6.775-.849,7.751-1.728C462.556,326.64,463.191,324.757,463.974,323.88Z" transform="translate(-229.736 -154.072)" fill="#fff"/>
    </g>
  </g>
</svg>
