<svg xmlns="http://www.w3.org/2000/svg" xmlns:xlink="http://www.w3.org/1999/xlink" width="451.826" height="265.47" viewBox="0 0 451.826 265.47">
  <defs>
    <clipPath id="clip-path">
      <rect id="Rectángulo_347152" data-name="Rectángulo 347152" width="348" height="264" transform="translate(0 83.667)" fill="none"/>
    </clipPath>
    <linearGradient id="linear-gradient" x1="0.444" y1="0.833" x2="0.491" y2="0.286" gradientUnits="objectBoundingBox">
      <stop offset="0" stop-color="#945d4a"/>
      <stop offset="1" stop-color="#a7796a"/>
    </linearGradient>
    <linearGradient id="linear-gradient-2" x1="0.43" y1="0.637" x2="0.508" y2="0.303" gradientUnits="objectBoundingBox">
      <stop offset="0" stop-color="#e49f4a"/>
      <stop offset="1" stop-color="#ecbd83"/>
    </linearGradient>
    <linearGradient id="linear-gradient-3" x1="0.501" y1="0.206" x2="0.515" y2="0.567" gradientUnits="objectBoundingBox">
      <stop offset="0.275" stop-color="#fbc7b2"/>
      <stop offset="1" stop-color="#f9aa8c"/>
    </linearGradient>
    <linearGradient id="linear-gradient-4" x1="0.494" y1="1.487" x2="0.501" y2="0.407" gradientUnits="objectBoundingBox">
      <stop offset="0" stop-color="#573427"/>
      <stop offset="1" stop-color="#6a493e"/>
    </linearGradient>
    <linearGradient id="linear-gradient-5" x1="0.375" y1="0.845" x2="0.621" y2="0.26" gradientUnits="objectBoundingBox">
      <stop offset="0" stop-color="#f9ad7c"/>
      <stop offset="1" stop-color="#fbd8ad"/>
    </linearGradient>
  </defs>
  <g id="Grupo_1005690" data-name="Grupo 1005690" transform="translate(-285.675 -6812)">
    <rect id="BG" width="451.826" height="265.47" transform="translate(285.675 6812)" fill="#ff565f" opacity="0.949"/>
    <g id="Grupo_1004551" data-name="Grupo 1004551" transform="translate(337 6729.333)" clip-path="url(#clip-path)">
      <g id="Grupo_1004518" data-name="Grupo 1004518" transform="translate(12.631 210.79)">
        <g id="Grupo_1004515" data-name="Grupo 1004515">
          <g id="Grupo_1004514" data-name="Grupo 1004514">
            <g id="Layer0_0_FILL" data-name="Layer0 0 FILL">
              <path id="Trazado_717561" data-name="Trazado 717561" d="M60.92,376.65c-3.094,0-5.611-.047-7.482-.138a55.731,55.731,0,0,1-7.459-.837,7.6,7.6,0,0,1-2.268-.711,2.658,2.658,0,0,1-1.425-1.947,2.113,2.113,0,0,1,.37-1.415,1.979,1.979,0,0,1,1.195-.857,2.023,2.023,0,0,1,.561-.066,7.452,7.452,0,0,1,1.519.2,45.775,45.775,0,0,0,7.764.969c1.229.062,2.824.093,4.742.093q1.441,0,3.142-.023a36.4,36.4,0,0,0,3.707-.138q.625-.069,1.874-.243a13.161,13.161,0,0,1,1.6-.113c.117,0,.229,0,.338.007a3.446,3.446,0,0,1,2.036.768,1.9,1.9,0,0,1,.6,1.94,2.055,2.055,0,0,1-1.261,1.626,3.255,3.255,0,0,1-1.085.29l-1.158.035c-.181,0-1.181.129-2.975.381A39.248,39.248,0,0,1,60.92,376.65ZM50.768,356c-.49,0-.951-.35-1.37-1.041a16.662,16.662,0,0,1-1.084-2.133,15.588,15.588,0,0,0-1-2.214,9.587,9.587,0,0,0-1.816-2.02A6.388,6.388,0,0,0,42.563,348a8.7,8.7,0,0,0-3.593.821l-.371.168.191-.359a17.957,17.957,0,0,0,1.138-2.725c.092-.3.185-.59.278-.869l.051-.151.143.07a7.558,7.558,0,0,0,3.346.785,16.455,16.455,0,0,0,5.585-.9,10.031,10.031,0,0,0,3.363-1.886l.136-.119.081.161a1.941,1.941,0,0,0,1.763,1c.894.069,2.294.1,4.162.1,1.793-.022,2.92-1.373,3.445-4.128l.275.033c-.113,1.838.264,3.048,1.118,3.6a8.409,8.409,0,0,0,4.34.847,9.045,9.045,0,0,0,4.032-.607c.69-.422,1.62-1.8,2.762-4.08a.368.368,0,0,1,.131-.28l.271-.27-.035.382c-.2,2.25,0,3.833.6,4.705.576.866,1.888,1.407,3.9,1.61a10.193,10.193,0,0,0,1.129.068,3.368,3.368,0,0,0,2.849-1.056,6.942,6.942,0,0,0,.405-.677,9.687,9.687,0,0,0,.622-1.174,8.766,8.766,0,0,0,.414-.93,1.6,1.6,0,0,0,.135-.335l.277-1.049c.006.127,0,1.325,0,1.439q-.026.46-.07.91c-.023.53-.058,1.053-.1,1.564-.108,1.424-.278,2.026-.447,3.3l-.236,1.739L84,349.108a3.789,3.789,0,0,0-.705-.028,19.925,19.925,0,0,0-4.828.587,42.711,42.711,0,0,1-4.826.838,43.305,43.305,0,0,1-13.08-1.711,29.323,29.323,0,0,0-6.98-1.731,20.688,20.688,0,0,0-2.721.1c-.906.172-1.347.56-1.347,1.184a5.367,5.367,0,0,0,1.4,2.556,5.941,5.941,0,0,1,1.421,3.459,2.21,2.21,0,0,1-.157,1.008C51.969,355.786,51.494,356,50.768,356Z" transform="translate(-24.391 -314.139)" fill="#a26957"/>
              <path id="Trazado_717562" data-name="Trazado 717562" d="M26.36,321.854q.077.69.174,1.356a10.685,10.685,0,0,1-1.182-.313q-.329-.12-.626-.209c-.037-.013-.072-.025-.1-.035a12,12,0,0,0-2.642-.7q-1.182,0-2.607,6.258a63.945,63.945,0,0,0-.939,18.7l.313,3.685a7.182,7.182,0,0,0,2.156,2.468,4.513,4.513,0,0,0,.487.417,20.745,20.745,0,0,0,5.563,2.816q1.634.591,3.65,1.217a4.5,4.5,0,0,1,2.99,4.311.325.325,0,0,0,0,.209q-.756,4.549-3.2,37.826-2.642,35.671-2.642,45.51l45.092-1.564a537.651,537.651,0,0,1-4.033-57.747V373.726q.081-9.079.939-11.577a91.449,91.449,0,0,1,4.763-9.665q2.879-5.317,4.033-14.741a2.864,2.864,0,0,0-.626-.07,32.835,32.835,0,0,0-5.7.869,43.353,43.353,0,0,1-4.8.834,42.98,42.98,0,0,1-13.037-1.7,29.209,29.209,0,0,0-7.023-1.738,20.752,20.752,0,0,0-2.747.1q-1.46.279-1.46,1.321A5.426,5.426,0,0,0,44.578,340a5.783,5.783,0,0,1,1.391,3.372,2.128,2.128,0,0,1-.139.939q-.278.556-1.286.556-.66,0-1.252-.973-.1-.1-1.078-2.121a15.622,15.622,0,0,0-1.008-2.225,9.665,9.665,0,0,0-1.843-2.051,6.417,6.417,0,0,0-3.025-.626,8.8,8.8,0,0,0-3.65.834,18.152,18.152,0,0,0,1.147-2.747q.139-.452.278-.869a7.657,7.657,0,0,0,3.407.8,16.5,16.5,0,0,0,5.632-.9,10.11,10.11,0,0,0,3.407-1.912,2.087,2.087,0,0,0,1.877,1.078q1.356.1,4.172.1,2.782-.034,3.581-4.242-.174,2.851,1.182,3.72a8.488,8.488,0,0,0,4.415.869,9.105,9.105,0,0,0,4.1-.626q1.077-.66,2.816-4.137a.334.334,0,0,1,.1-.243q-.313,3.442.626,4.8.9,1.356,4,1.669,3.059.347,4.1-1.043a7.124,7.124,0,0,0,.417-.7,9.683,9.683,0,0,0,.626-1.182,8.938,8.938,0,0,0,.417-.939,1.614,1.614,0,0,0,.139-.348,5.89,5.89,0,0,0,.243-.556,2.605,2.605,0,0,0,.1-.382q.814-2.29,1.808-6.4a23.929,23.929,0,0,0,.9-6.814,6.144,6.144,0,0,0-1.843-3.859,8.464,8.464,0,0,0-5.215-1.808,11.8,11.8,0,0,0-2.573,0q-1.224.228-1.495.9.034-.417.035-.73a6.658,6.658,0,0,0-.035-.8,5.629,5.629,0,0,0-1.321-2.92q-1.426-1.7-6.328-2.4-4.972-.7-6.049.243a7.021,7.021,0,0,0-.591.556,4.971,4.971,0,0,0-.9,1.7,5,5,0,0,0-.521-1.738.588.588,0,0,1-.035-.07q-1.62-2.642-5.945-2.642-4.415,0-6.015.174a3.21,3.21,0,0,0-2.573,2.086q-.1.9-.174,1.808-.1,1.218-.139,2.468A2.341,2.341,0,0,0,39.4,307.6a7.092,7.092,0,0,0-3.616-.9,43.057,43.057,0,0,0-4.972,0q-4.519,0-4.728,5.876a59.821,59.821,0,0,0,.278,9.283m11.3,38.035a4.607,4.607,0,0,1,2.016.139,45.744,45.744,0,0,0,7.788.973q2.782.139,7.892.07a36.67,36.67,0,0,0,3.72-.139q.626-.07,1.877-.243a11.7,11.7,0,0,1,1.912-.1,3.276,3.276,0,0,1,1.947.73,1.765,1.765,0,0,1,.556,1.808,1.922,1.922,0,0,1-1.182,1.53,3.108,3.108,0,0,1-1.043.278L62,364.965q-.278,0-2.99.382a38.869,38.869,0,0,1-4.311.174q-4.659,0-7.475-.139a55.125,55.125,0,0,1-7.44-.834,7.421,7.421,0,0,1-2.225-.7A2.515,2.515,0,0,1,36.2,362.01a1.969,1.969,0,0,1,.348-1.321A1.839,1.839,0,0,1,37.659,359.889Z" transform="translate(-18.166 -303.15)" fill="url(#linear-gradient)"/>
            </g>
          </g>
        </g>
        <g id="Grupo_1004517" data-name="Grupo 1004517" transform="translate(8.993 4.659)">
          <g id="Grupo_1004516" data-name="Grupo 1004516">
            <g id="Layer0_0_MEMBER_0_1_STROKES" data-name="Layer0 0 MEMBER 0 1 STROKES">
              <path id="Trazado_717563" data-name="Trazado 717563" d="M32.595,344.79a.348.348,0,0,1-.245-.595l.207-.207c.27-.27.745-.791,1.411-1.549a25.367,25.367,0,0,0,1.886-2.158c.159-.227.316-.462.472-.708a17.93,17.93,0,0,0,1.119-2.682c.06-.2.122-.393.184-.584a11.036,11.036,0,0,1-2.279-1.622.347.347,0,1,1,.469-.513,10.211,10.211,0,0,0,2.386,1.648h0a7.34,7.34,0,0,0,3.253.763,16.235,16.235,0,0,0,5.514-.884,9.814,9.814,0,0,0,3.294-1.844,5.726,5.726,0,0,0,1.624-3.874c.259-3.171-.5-5.27-2.242-6.243-.731.167-1.826.471-3.256.9-.369.115-.753.232-1.149.348l-.01,0a32.128,32.128,0,0,1-8.225,1.193,33.55,33.55,0,0,1-5.622-.4.348.348,0,0,1-.283-.4.344.344,0,0,1,.4-.283,32.879,32.879,0,0,0,5.5.394,31.135,31.135,0,0,0,7.759-1.094,123.271,123.271,0,0,1-.7-12.673.348.348,0,0,1,.347-.348h0a.347.347,0,0,1,.348.348,122.485,122.485,0,0,0,.684,12.481c.252-.075.5-.152.743-.227,1.533-.465,2.688-.783,3.436-.946a.335.335,0,0,1,.234.031c2.1,1.085,3.014,3.433,2.724,6.978a6.572,6.572,0,0,1-1.644,4.132,1.863,1.863,0,0,0,1.463.673c.889.069,2.283.1,4.146.1,1.675-.021,2.736-1.314,3.238-3.954,0-.01,0-.019.007-.029a29.165,29.165,0,0,0,.267-3.439c.092-1.929.08-5.091-.035-9.4-.1-3.77-.257-6.424-.466-7.888a.348.348,0,0,1,.688-.1c.212,1.49.371,4.17.473,7.966.115,4.323.127,7.5.034,9.448a31.192,31.192,0,0,1-.28,3.544c-.1,1.741.242,2.878,1.024,3.379a8.213,8.213,0,0,0,4.228.814,8.88,8.88,0,0,0,3.927-.579c.443-.27,1.268-1.178,2.65-3.931a.673.673,0,0,1,.143-.33,31.308,31.308,0,0,0,1.972-9.6q.172-4.089.226-6.113A.339.339,0,0,1,75,314.4a.348.348,0,0,1,.338.357q-.054,2.027-.227,6.124a32.012,32.012,0,0,1-2.021,9.832c-.193,2.176,0,3.7.569,4.523.543.814,1.8,1.324,3.747,1.521,1.9.216,3.177-.089,3.79-.906.133-.195.274-.415.415-.649a.348.348,0,0,1,.6.36q-.222.368-.446.694c-.78,1.041-2.265,1.439-4.429,1.193-2.188-.221-3.578-.817-4.248-1.821a5.977,5.977,0,0,1-.763-3.379,8.58,8.58,0,0,1-2.312,3.065,9.264,9.264,0,0,1-4.284.677,8.707,8.707,0,0,1-4.6-.924A2.947,2.947,0,0,1,59.9,333.1a3.586,3.586,0,0,1-3.346,2.546c-1.885,0-3.3-.035-4.2-.106a2.553,2.553,0,0,1-1.933-.9,10.754,10.754,0,0,1-3.212,1.72,16.921,16.921,0,0,1-5.746.923,8,8,0,0,1-3.2-.668c-.051.161-.1.325-.154.492a20.67,20.67,0,0,1-.77,1.984,8.849,8.849,0,0,1,2.941-.521,6.9,6.9,0,0,1,3.2.665,4.173,4.173,0,0,1,.741.494q.651.613,1.423,1.457a.348.348,0,0,1-.513.47c-.5-.55-.966-1.024-1.373-1.407a3.37,3.37,0,0,0-.6-.4,6.22,6.22,0,0,0-2.881-.586,8.457,8.457,0,0,0-3.413.761q-.219.341-.439.655a25.28,25.28,0,0,1-1.943,2.229c-.678.772-1.149,1.288-1.434,1.572l-.209.209A.346.346,0,0,1,32.595,344.79Z" transform="translate(-31.1 -309.85)" fill="#914f3a"/>
            </g>
          </g>
        </g>
      </g>
      <g id="Grupo_1004524" data-name="Grupo 1004524" transform="translate(82.988 204.554)">
        <g id="Grupo_1004521" data-name="Grupo 1004521" transform="translate(3.737)">
          <g id="Grupo_1004519" data-name="Grupo 1004519">
            <g id="Layer0_1_FILL" data-name="Layer0 1 FILL">
              <path id="Trazado_717564" data-name="Trazado 717564" d="M131.705,324.733q-2.735,16.98-3.837,21.715a30.229,30.229,0,0,0-.531,6.654q0,.081.939,7.307.2,3.178-.082,17.43-.246,14.3-3.47,80.006l39.8,1.469q-11.551-73.433-11.634-82.169t-.286-12.817q-.286-4.123,7.47-12.858,6.45-1.184,9.838-5.388.081-.164,2.612-3.837,2.449-3.673,4.694-6.695a23.139,23.139,0,0,0,2.49-3.8,6.514,6.514,0,0,0,.163-1.878q-.081-1.1,2.408-6.245,2.409-5.144,2.327-6.123,0-.326-1.756-5.347a5.72,5.72,0,0,1-.286-3.429q1.1-3.469,1.1-3.51a.768.768,0,0,0-.734-.816h-2.041a7.629,7.629,0,0,0-3.47.775,7.354,7.354,0,0,0-1.021.653.514.514,0,0,0-.2.123,3.989,3.989,0,0,0-.776.734c-.071-.349-.138-.69-.2-1.02q-1.352-6.4-2.45-8.327a8.138,8.138,0,0,0-2-2.571,2.238,2.238,0,0,0-.286-.2c-.076-.043-.158-.083-.245-.122a4.594,4.594,0,0,0-2.082-.245,12.963,12.963,0,0,0-1.592.245,53.761,53.761,0,0,0-9.96,3.429,2.531,2.531,0,0,1-.408.163q-.593.311-1.224.612-5.837.49-10.654.694-4.09.139-5.061,4.613c-.012.056-.026.111-.041.163a14.3,14.3,0,0,0-.2,1.551,4.057,4.057,0,0,0-.98.163,1.882,1.882,0,0,0-1.307,1.062,11.1,11.1,0,0,0-.734,3.632q-.029.274-.082.531-.219,2.537-.245,4.367,0,.062,0,.081-.011,1.005.041,1.8l-.041.041q-.2.339-.408.694-1.654,2.721-3.551,6.695m42.737-2.45a16.008,16.008,0,0,0-2.694.449,3.521,3.521,0,0,0-1.837,1.837,7.98,7.98,0,0,0-.857,2.612q-.163,1.224-.286,2.694a8.191,8.191,0,0,1-.694,2.2,6.917,6.917,0,0,1-1.347,2,7.955,7.955,0,0,1-1.469,1.388,19.361,19.361,0,0,1-4.286,1.674q-2.735,1.184-2.694,3.347,0,1.388-2.163,3.8a7.42,7.42,0,0,1-4.653,2.776,10.631,10.631,0,0,1-1.592,1.388,10.631,10.631,0,0,0,1.592-1.388,8.7,8.7,0,0,0,2.082-3.306,12.091,12.091,0,0,0,.448-4.49q-.244-3.592-1.142-4.817a.633.633,0,0,1-.123-.163,2.171,2.171,0,0,1-.326-.857,4.41,4.41,0,0,1,.163-2.817,2.609,2.609,0,0,1,.163-.286,8.653,8.653,0,0,1-1.183.367,11.012,11.012,0,0,1-2.368.163,26.081,26.081,0,0,1-3.755-.408,23.242,23.242,0,0,1-3.551-.735,23.242,23.242,0,0,0,3.551.735,26.081,26.081,0,0,0,3.755.408,11.012,11.012,0,0,0,2.368-.163,8.653,8.653,0,0,0,1.183-.367.513.513,0,0,1,.123-.2,3.368,3.368,0,0,1,1.142-1.1,6.114,6.114,0,0,1-.612-.123q-3.347-.816-4.449-5.265,1.1,4.448,4.449,5.265a6.114,6.114,0,0,0,.612.123,4.659,4.659,0,0,0,1.224.081,5.711,5.711,0,0,0,1.388-.245,5.711,5.711,0,0,1-1.388.245,13.9,13.9,0,0,0,.449,2.531,4.254,4.254,0,0,0,.735,1.877,4.254,4.254,0,0,1-.735-1.877,13.9,13.9,0,0,1-.449-2.531,4.659,4.659,0,0,1-1.224-.081,3.368,3.368,0,0,0-1.142,1.1.513.513,0,0,0-.123.2,2.609,2.609,0,0,0-.163.286,4.41,4.41,0,0,0-.163,2.817,2.171,2.171,0,0,0,.326.857.633.633,0,0,0,.123.163,3.309,3.309,0,0,0,2.082.939,20.805,20.805,0,0,0,5.225,0,6.218,6.218,0,0,0,4.817-3.347,10.413,10.413,0,0,0,1.143-6.082v-.082q-.368-5.469-2.653-7.184a13.027,13.027,0,0,0-3.429-1.061q-2.613-.653-10.654-3.347-6.776-2.327-7.878-2.327-1.779,0-4.164,3.021,2.384-3.021,4.164-3.021,1.1,0,7.878,2.327,8.042,2.694,10.654,3.347a13.027,13.027,0,0,1,3.429,1.061q2.285,1.715,2.653,7.184,1.754-.448,2.694-3.714.245-.9.408-1.714a11.626,11.626,0,0,0,.245-2.939A17.248,17.248,0,0,0,167.585,310q-1.51-2.735-3.837-2.938-7.47-.776-8.083-.857-7.837-.695-14-.694h0q6.163,0,14,.694.612.081,8.083.857,2.326.2,3.837,2.938a17.248,17.248,0,0,1,1.877,7.511,11.626,11.626,0,0,1-.245,2.939,6.459,6.459,0,0,0,5.388-1.715,18.055,18.055,0,0,1-1.021-5.388,10.826,10.826,0,0,1,.531-4.449q-2.736-7.673-4.041-9.225t-6.49-1.551q-2.108,0-6.98.368,4.873-.368,6.98-.368,5.184,0,6.49,1.551t4.041,9.225a6.745,6.745,0,0,1,1.142-2.041,6.745,6.745,0,0,0-1.142,2.041,10.826,10.826,0,0,0-.531,4.449,18.055,18.055,0,0,0,1.021,5.388,8.352,8.352,0,0,0,.531,1.1,3.958,3.958,0,0,0,1.266,1.429,2.273,2.273,0,0,0,.816.286,2.273,2.273,0,0,1-.816-.286A3.658,3.658,0,0,1,174.443,322.284Z" transform="translate(-124.725 -294.182)" fill="url(#linear-gradient-2)"/>
              <path id="Trazado_717565" data-name="Trazado 717565" d="M162.916,357.616a8.593,8.593,0,0,0,2.048-3.253,12.007,12.007,0,0,0,.442-4.436c-.161-2.356-.536-3.952-1.116-4.744l.216-.175a3.194,3.194,0,0,0,2,.893,15.542,15.542,0,0,0,2.347.163,27.288,27.288,0,0,0,2.843-.163,6.112,6.112,0,0,0,4.711-3.278,10.324,10.324,0,0,0,1.124-6v-.2l.1-.026c1.113-.285,1.987-1.5,2.595-3.619.161-.591.3-1.165.405-1.7l.025-.126.127.015a7.809,7.809,0,0,0,.907.054,6.255,6.255,0,0,0,4.37-1.732l.149-.138.074.188a8.3,8.3,0,0,0,.522,1.084,3.854,3.854,0,0,0,1.218,1.38l.142.088-.112.124a3.813,3.813,0,0,1-2.031,1.063,16.117,16.117,0,0,0-2.678.444,3.406,3.406,0,0,0-1.761,1.771,7.875,7.875,0,0,0-.843,2.567c-.108.81-.2,1.715-.284,2.685a8.411,8.411,0,0,1-.706,2.251,7.1,7.1,0,0,1-1.369,2.033,8.024,8.024,0,0,1-1.5,1.413,19.552,19.552,0,0,1-4.321,1.69c-1.768.766-2.621,1.819-2.595,3.211,0,.973-.72,2.245-2.2,3.892a7.584,7.584,0,0,1-4.744,2.821l-.382.037Z" transform="translate(-136.278 -304.834)" fill="#e3a557"/>
            </g>
          </g>
          <g id="Grupo_1004520" data-name="Grupo 1004520" transform="translate(12.249 3.548)">
            <g id="Layer0_1_1_STROKES" data-name="Layer0 1 1 STROKES">
              <path id="Trazado_717566" data-name="Trazado 717566" d="M155.221,350.309a.347.347,0,0,1-.2-.63,12.1,12.1,0,0,0,1.565-1.327,8.678,8.678,0,0,0,1.982-3.2A11.8,11.8,0,0,0,159,340.8c-.156-2.295-.514-3.848-1.062-4.614a.974.974,0,0,1-.167-.232,2.447,2.447,0,0,1-.359-.955,5.023,5.023,0,0,1,.024-2.573c-.181.054-.337.095-.47.121a11.174,11.174,0,0,1-2.435.17,26.16,26.16,0,0,1-3.81-.413,23.568,23.568,0,0,1-3.606-.748.348.348,0,0,1,.22-.66,22.953,22.953,0,0,0,3.493.721,25.947,25.947,0,0,0,3.7.4,10.318,10.318,0,0,0,2.278-.152,7.706,7.706,0,0,0,1.018-.309.838.838,0,0,1,.131-.172,3.725,3.725,0,0,1,.563-.675c-2.283-.61-3.822-2.455-4.573-5.485a.348.348,0,1,1,.675-.167c.708,2.856,2.08,4.5,4.194,5.011.206.051.4.089.576.115l.039.007a4.264,4.264,0,0,0,1.115.073h.009a5.405,5.405,0,0,0,1.3-.23.348.348,0,0,1,.207.664,6.016,6.016,0,0,1-1.114.23,14.359,14.359,0,0,0,.407,2.125c.311,1.312.544,1.63.63,1.707a.347.347,0,1,1-.462.519c-.209-.186-.494-.588-.842-2.057a14.874,14.874,0,0,1-.428-2.253,5.051,5.051,0,0,1-.842-.074,3.132,3.132,0,0,0-.919.929.347.347,0,0,0-.081.12l-.008.023h0l-.006.013h0a.392.392,0,0,1-.025.044,2.328,2.328,0,0,0-.14.245,4.1,4.1,0,0,0-.135,2.585,1.872,1.872,0,0,0,.277.741.434.434,0,0,0,.076.107l.01.01.009.009a3,3,0,0,0,1.869.824,20.526,20.526,0,0,0,5.139,0,5.84,5.84,0,0,0,4.552-3.175,10.119,10.119,0,0,0,1.1-5.886V327.4c-.238-3.518-1.084-5.846-2.514-6.919a11.541,11.541,0,0,0-3.3-1c-1.749-.437-5.342-1.566-10.685-3.356-5.559-1.908-7.293-2.309-7.768-2.309-1.069,0-2.378.971-3.891,2.888a.348.348,0,1,1-.546-.43c1.675-2.122,3.126-3.153,4.437-3.153.779,0,3.393.767,7.991,2.346,5.323,1.784,8.9,2.906,10.625,3.338,2.706.631,3.327.935,3.565,1.13,1.545,1.158,2.448,3.443,2.744,6.965.851-.437,1.539-1.551,2.048-3.322.158-.579.293-1.149.4-1.685a11.344,11.344,0,0,0,.238-2.849,17,17,0,0,0-1.832-7.36c-.96-1.736-2.125-2.639-3.566-2.765-5.121-.532-7.693-.805-8.1-.859-5.171-.458-9.87-.691-13.955-.691q-.658,0-1.212.021a.364.364,0,0,1-.359-.335.347.347,0,0,1,.334-.36q.565-.021,1.237-.021c4.105,0,8.826.234,14.032.7.408.054,3.048.334,8.087.858,1.66.145,3.043,1.193,4.105,3.116A17.65,17.65,0,0,1,175.16,319a11.458,11.458,0,0,1-.181,2.649,6.011,6.011,0,0,0,4.568-1.5,19.035,19.035,0,0,1-.958-5.266,11.331,11.331,0,0,1,.508-4.472c-1.779-4.983-3.1-8.01-3.938-9-.8-.947-2.893-1.428-6.225-1.428-1.384,0-3.716.131-6.932.387a.347.347,0,1,1-.055-.693c3.234-.258,5.585-.389,6.987-.389,3.6,0,5.807.548,6.757,1.674.857,1.018,2.1,3.8,3.8,8.5a6.651,6.651,0,0,1,.849-1.293.347.347,0,1,1,.532.446,6.172,6.172,0,0,0-1.081,1.911l0,.011a10.517,10.517,0,0,0-.508,4.3,17.807,17.807,0,0,0,.994,5.275l0,.013a7.967,7.967,0,0,0,.505,1.049,3.562,3.562,0,0,0,1.164,1.306,1.765,1.765,0,0,0,.664.239.348.348,0,0,1-.095.689,2.445,2.445,0,0,1-.927-.332,4.22,4.22,0,0,1-1.408-1.552c-.126-.216-.246-.451-.362-.7a6.758,6.758,0,0,1-4.979,1.515c-.1.46-.216.94-.35,1.43-.614,2.135-1.511,3.434-2.671,3.874a10.638,10.638,0,0,1-1.2,6.09,6.572,6.572,0,0,1-5.075,3.514,21.218,21.218,0,0,1-5.319,0,5.07,5.07,0,0,1-1.167-.3,15.824,15.824,0,0,1,.628,3.808,12.475,12.475,0,0,1-.466,4.621,9.37,9.37,0,0,1-2.139,3.458l0,0a12.7,12.7,0,0,1-1.658,1.406A.342.342,0,0,1,155.221,350.309Z" transform="translate(-142.342 -299.284)" fill="#de9841"/>
            </g>
          </g>
        </g>
        <g id="Grupo_1004523" data-name="Grupo 1004523" transform="translate(0 88.911)">
          <g id="Grupo_1004522" data-name="Grupo 1004522">
            <g id="Layer0_2_FILL" data-name="Layer0 2 FILL">
              <path id="Trazado_717567" data-name="Trazado 717567" d="M127.759,425.806a3.825,3.825,0,0,0,1.182.7v-2.295q-1.925.717-1.182,1.6m28.439-.834a1.479,1.479,0,0,0-.765-1.008,2.332,2.332,0,0,0-1.113-.313l.313,2.538Q156.3,425.423,156.2,424.971Z" transform="translate(-121.849 -422.537)" fill="#e072d1"/>
              <path id="Trazado_717568" data-name="Trazado 717568" d="M154.778,423.475a1.479,1.479,0,0,1,.765,1.008q.1.452-1.565,1.217l-1.043.452q-3.41,1.3-12.794,1.286a52.715,52.715,0,0,1-8.553-.591,17.193,17.193,0,0,1-3.3-.834,3.824,3.824,0,0,1-1.182-.7q-.744-.883,1.182-1.6l.035-1.6a18.109,18.109,0,0,0-1.634,1.078,2.967,2.967,0,0,0-1.252,2.121,4.135,4.135,0,0,1-.035.417,1.267,1.267,0,0,0,.313.591q.991.946,4.589,1.634a51.767,51.767,0,0,0,9.665.8q10.561.016,14.393-1.669,2.978-1.32,2.886-2.607v-.035a.665.665,0,0,0-.035-.278,5.391,5.391,0,0,0-.869-1.078,4.449,4.449,0,0,0-2.816-1.043l.139,1.113A2.332,2.332,0,0,1,154.778,423.475Z" transform="translate(-121.193 -422.05)" fill="#ffbdf5"/>
              <path id="Trazado_717569" data-name="Trazado 717569" d="M152.517,428.157q-3.832,1.684-14.393,1.669a51.767,51.767,0,0,1-9.665-.8q-3.6-.688-4.589-1.634a1.267,1.267,0,0,1-.313-.591q-.661,20.082-1.391,31.707-.754,11.589-2.816,39.53h45.162q-7.476-55.007-9.109-72.488Q155.495,426.837,152.517,428.157Z" transform="translate(-119.35 -423.116)" fill="#f691e8"/>
            </g>
          </g>
        </g>
      </g>
      <g id="Grupo_1004531" data-name="Grupo 1004531" transform="translate(146.622 230.433)">
        <g id="Grupo_1004526" data-name="Grupo 1004526">
          <g id="Grupo_1004525" data-name="Grupo 1004525">
            <g id="Layer0_3_FILL" data-name="Layer0 3 FILL">
              <path id="Trazado_717570" data-name="Trazado 717570" d="M239.667,404.9a39.147,39.147,0,0,1-4.328-.175c-1.8-.252-2.8-.381-2.973-.381l-1.148-.035a3.272,3.272,0,0,1-1.1-.293,2.055,2.055,0,0,1-1.256-1.631,1.9,1.9,0,0,1,.6-1.934,3.432,3.432,0,0,1,2.026-.766c.118-.006.229-.008.347-.008a13.12,13.12,0,0,1,1.6.113q1.252.173,1.875.243a36.369,36.369,0,0,0,3.7.138q1.7.023,3.144.023c1.918,0,3.514-.031,4.741-.093a45.68,45.68,0,0,0,7.764-.969,7.47,7.47,0,0,1,1.519-.2,2.013,2.013,0,0,1,.567.068,1.97,1.97,0,0,1,1.189.856,2.112,2.112,0,0,1,.37,1.411,2.658,2.658,0,0,1-1.423,1.948,7.587,7.587,0,0,1-2.271.713,55.707,55.707,0,0,1-7.458.837C245.277,404.852,242.76,404.9,239.667,404.9Zm10.152-20.651c-.726,0-1.2-.213-1.411-.634a2.215,2.215,0,0,1-.154-1,5.935,5.935,0,0,1,1.419-3.456,5.375,5.375,0,0,0,1.4-2.559c0-.624-.441-1.012-1.347-1.184a20.688,20.688,0,0,0-2.721-.1,29.351,29.351,0,0,0-6.98,1.731,43.307,43.307,0,0,1-13.081,1.711,42.789,42.789,0,0,1-4.826-.837,32.9,32.9,0,0,0-5.674-.866c-.195,0,.5.834.286.9l-.757.471-.466-2.676c-.138-1.286-.129-1.371-.245-2.785l-.139-1.6c0-.31-.012-.607-.035-.9,0-.115-.011-1.458-.031-1.54l.259,1.154c.048.1.1.2.144.324.137.32.275.632.414.932.207.436.416.842.621,1.206.156.222.307.443.447.652a3.364,3.364,0,0,0,2.842,1.051,10.159,10.159,0,0,0,1.129-.068c2.012-.2,3.323-.745,3.9-1.608.606-.875.808-2.458.6-4.707l-.035-.382.271.27a.474.474,0,0,1,.145.342c1.127,2.222,2.057,3.595,2.75,4.018a9.048,9.048,0,0,0,4.029.606,8.409,8.409,0,0,0,4.34-.847c.855-.548,1.231-1.758,1.118-3.6l.275-.033c.524,2.755,1.651,4.106,3.447,4.128,1.866,0,3.266-.035,4.159-.1a1.943,1.943,0,0,0,1.764-1l.08-.161.136.119a10.046,10.046,0,0,0,3.361,1.885,16.462,16.462,0,0,0,5.587.9,7.558,7.558,0,0,0,3.346-.785l.143-.07.05.151c.094.278.186.57.28.873a18.1,18.1,0,0,0,1.136,2.721l.191.359-.37-.168a8.7,8.7,0,0,0-3.593-.821,6.556,6.556,0,0,0-3,.61,10.055,10.055,0,0,0-1.753,2,15.494,15.494,0,0,0-1,2.2,14.742,14.742,0,0,1-1.11,2.169C250.77,383.9,250.309,384.249,249.818,384.249Z" transform="translate(-212.142 -342.389)" fill="#f6a889"/>
              <path id="Trazado_717571" data-name="Trazado 717571" d="M229.663,333.347q-4.9.7-6.328,2.4a5.779,5.779,0,0,0-1.321,2.955q-.034.347-.035.765,0,.313.035.73-.278-.66-1.495-.869a10.193,10.193,0,0,0-2.573-.035,8.464,8.464,0,0,0-5.215,1.808,6.144,6.144,0,0,0-1.843,3.859,23.93,23.93,0,0,0,.9,6.814q1.009,4.1,1.773,6.432l.139.348q.1.313.209.591c.047.092.092.2.139.313q.209.487.417.939.313.66.626,1.217.243.347.452.661,1.043,1.39,4.1,1.043,3.095-.313,4-1.669.939-1.356.626-4.8a.334.334,0,0,1,.1.243q1.739,3.476,2.816,4.137a9.105,9.105,0,0,0,4.1.626,8.488,8.488,0,0,0,4.415-.869q1.356-.869,1.182-3.72.8,4.206,3.581,4.242,2.816,0,4.172-.1a2.087,2.087,0,0,0,1.877-1.078,10.11,10.11,0,0,0,3.407,1.912,16.5,16.5,0,0,0,5.632.9,7.656,7.656,0,0,0,3.407-.8q.139.417.278.869a18.151,18.151,0,0,0,1.147,2.747,8.8,8.8,0,0,0-3.65-.834,6.656,6.656,0,0,0-3.059.626,10.055,10.055,0,0,0-1.808,2.051,15.623,15.623,0,0,0-1.008,2.225q-.973,2.016-1.078,2.121-.591.973-1.252.973-1.009,0-1.286-.556a2.128,2.128,0,0,1-.139-.939,5.783,5.783,0,0,1,1.391-3.372,5.426,5.426,0,0,0,1.425-2.642q0-1.043-1.46-1.321a20.744,20.744,0,0,0-2.747-.1,29.209,29.209,0,0,0-7.023,1.738,42.98,42.98,0,0,1-13.037,1.7,43.356,43.356,0,0,1-4.8-.834,32.838,32.838,0,0,0-5.7-.869,2.3,2.3,0,0,0-.661.1q1.182,9.387,4.068,14.741a83.336,83.336,0,0,1,4.728,9.63q.9,2.5.973,11.577v12.342a537.651,537.651,0,0,1-4.033,57.747l45.092,1.564q0-9.839-2.642-45.51-2.433-33.272-3.2-37.826a.325.325,0,0,0,0-.209,4.5,4.5,0,0,1,2.99-4.311q2.016-.626,3.651-1.217a20.745,20.745,0,0,0,5.563-2.816,4.512,4.512,0,0,0,.487-.417,7.182,7.182,0,0,0,2.156-2.468l.313-3.685a63.945,63.945,0,0,0-.939-18.7q-1.426-6.258-2.608-6.258a12,12,0,0,0-2.642.7.274.274,0,0,0-.1.035l-.626.209a10.685,10.685,0,0,1-1.182.313q.1-.66.174-1.356a59.941,59.941,0,0,0,.278-9.283q-.209-5.875-4.728-5.876a43.058,43.058,0,0,0-4.972,0,7.085,7.085,0,0,0-3.616.9,2.37,2.37,0,0,0-1.078,2.086q-.034-1.252-.139-2.468-.07-.9-.174-1.808a3.21,3.21,0,0,0-2.573-2.086q-1.6-.174-6.015-.174-4.311,0-5.945,2.642a.1.1,0,0,1-.035.07,5,5,0,0,0-.522,1.738,3.968,3.968,0,0,0-.939-1.669,4.43,4.43,0,0,0-.556-.591q-1.077-.939-6.049-.243m23.746,54.931a4.607,4.607,0,0,1,2.016-.139,1.839,1.839,0,0,1,1.113.8,1.969,1.969,0,0,1,.348,1.321,2.515,2.515,0,0,1-1.356,1.843,7.421,7.421,0,0,1-2.225.7,55.124,55.124,0,0,1-7.44.834q-2.816.139-7.475.139a38.87,38.87,0,0,1-4.311-.174q-2.712-.383-2.99-.382l-1.147-.035a3.108,3.108,0,0,1-1.043-.278,1.922,1.922,0,0,1-1.182-1.53,1.765,1.765,0,0,1,.556-1.808,3.276,3.276,0,0,1,1.947-.73,11.7,11.7,0,0,1,1.912.1q1.252.174,1.877.243a36.659,36.659,0,0,0,3.72.139q5.111.07,7.892-.07A45.745,45.745,0,0,0,253.409,388.278Z" transform="translate(-210.865 -331.4)" fill="url(#linear-gradient-3)"/>
            </g>
          </g>
        </g>
        <g id="Grupo_1004528" data-name="Grupo 1004528" transform="translate(3.883 4.659)">
          <g id="Grupo_1004527" data-name="Grupo 1004527">
            <g id="Layer0_3_MEMBER_0_1_STROKES" data-name="Layer0 3 MEMBER 0 1 STROKES">
              <path id="Trazado_717572" data-name="Trazado 717572" d="M266.132,373.041a.343.343,0,0,1-.243-.1l-.211-.211c-.284-.284-.768-.815-1.441-1.581a24.933,24.933,0,0,1-1.937-2.222c-.145-.207-.291-.426-.437-.653a8.457,8.457,0,0,0-3.413-.761,4.635,4.635,0,0,0-3.506,1c-.385.364-.846.839-1.349,1.386a.347.347,0,1,1-.512-.47c.512-.56.987-1.045,1.407-1.443a5.311,5.311,0,0,1,3.959-1.173,8.852,8.852,0,0,1,2.941.522,20.449,20.449,0,0,1-.767-1.975q-.08-.259-.157-.5a8,8,0,0,1-3.2.668,16.938,16.938,0,0,1-5.75-.924,10.746,10.746,0,0,1-3.206-1.718,2.56,2.56,0,0,1-1.934.9c-.9.07-2.318.1-4.2.1a3.589,3.589,0,0,1-3.354-2.557,2.935,2.935,0,0,1-1.222,1.98,8.707,8.707,0,0,1-4.6.924,9.266,9.266,0,0,1-4.277-.673A8.559,8.559,0,0,1,226.4,360.5a5.978,5.978,0,0,1-.767,3.383c-.666,1-2.057,1.6-4.249,1.816-2.157.248-3.644-.152-4.415-1.18-.149-.223-.3-.44-.459-.67a.348.348,0,0,1,.57-.4q.246.35.456.667c.6.8,1.875,1.109,3.774.89,1.95-.2,3.209-.707,3.749-1.516.575-.83.766-2.352.573-4.528a32.025,32.025,0,0,1-2.022-9.831q-.173-4.105-.243-6.122a.349.349,0,0,1,.336-.36.353.353,0,0,1,.359.336q.07,2.015.243,6.116a31.317,31.317,0,0,0,1.973,9.6.666.666,0,0,1,.142.33c1.382,2.753,2.208,3.661,2.657,3.936a8.907,8.907,0,0,0,3.921.575,8.218,8.218,0,0,0,4.228-.814c.784-.5,1.129-1.648,1.022-3.4v0a29.572,29.572,0,0,1-.279-3.516c-.092-1.947-.081-5.126.035-9.447.092-3.8.246-6.478.455-7.966a.348.348,0,0,1,.688.1c-.206,1.462-.357,4.116-.448,7.887-.115,4.3-.127,7.466-.035,9.4a28,28,0,0,0,.269,3.447l0,.016c.5,2.644,1.564,3.938,3.244,3.959,1.859,0,3.253-.035,4.141-.1a1.868,1.868,0,0,0,1.465-.674,6.577,6.577,0,0,1-1.645-4.13c-.29-3.546.627-5.894,2.724-6.98a.346.346,0,0,1,.234-.031c.746.163,1.9.481,3.435.946.243.076.492.152.744.227a121.315,121.315,0,0,0,.684-12.481.348.348,0,1,1,.7,0,122.125,122.125,0,0,1-.7,12.673,31.123,31.123,0,0,0,7.759,1.094,34.307,34.307,0,0,0,5.506-.378.347.347,0,1,1,.114.686,34.982,34.982,0,0,1-5.62.387,32.153,32.153,0,0,1-8.221-1.192l-.024-.008c-.4-.117-.775-.232-1.141-.346-1.43-.433-2.523-.738-3.254-.9-1.747.973-2.5,3.072-2.242,6.245a5.725,5.725,0,0,0,1.62,3.868l.008.008a9.81,9.81,0,0,0,3.284,1.838,16.252,16.252,0,0,0,5.519.885,7.342,7.342,0,0,0,3.249-.761l.01,0a10.207,10.207,0,0,0,2.382-1.646.347.347,0,1,1,.468.513,11.014,11.014,0,0,1-2.279,1.622c.063.192.124.389.187.592a17.991,17.991,0,0,0,1.115,2.674c.157.246.314.481.471.706a25.055,25.055,0,0,0,1.881,2.151c.67.763,1.144,1.284,1.417,1.556l.207.207a.348.348,0,0,1-.244.6Z" transform="translate(-216.45 -338.1)" fill="#ee8054"/>
            </g>
          </g>
        </g>
        <g id="Grupo_1004530" data-name="Grupo 1004530" transform="translate(4.473 74.366)">
          <g id="Grupo_1004529" data-name="Grupo 1004529">
            <g id="Layer0_4_FILL" data-name="Layer0 4 FILL">
              <path id="Trazado_717573" data-name="Trazado 717573" d="M239.4,462.235q-11.735.6-17.8.9L217.3,507.362l55.38,1.877L267.494,460.7q-7.552.463-28.09,1.53m29.691-15.228q-.876-6.432-1.22-8.657-2.629.1-8.271.382-10.062.452-24.736.452-11.129,0-14.636-.139-.19,3.616-.533,11.925-.191,5.076-.3,7.266,1.343-.019,2.668-.035,16.064-.238,32.625-.591,6.97-.136,12.426-.521,1.557-.114,2.973-.243Q269.247,448.363,269.095,447.007Z" transform="translate(-217.298 -438.35)" fill="#a8ecff"/>
              <path id="Trazado_717574" data-name="Trazado 717574" d="M223.492,471.349q6.064-.3,17.8-.9,20.538-1.066,28.09-1.53L269,465.3q-5.456.386-12.426.521-16.561.353-32.625.591Z" transform="translate(-219.185 -446.561)" fill="#75d5ef"/>
            </g>
          </g>
        </g>
      </g>
      <g id="Grupo_1004540" data-name="Grupo 1004540" transform="translate(210.686 210.774)">
        <g id="Grupo_1004533" data-name="Grupo 1004533">
          <g id="Grupo_1004532" data-name="Grupo 1004532">
            <g id="Layer0_5_FILL" data-name="Layer0 5 FILL">
              <path id="Trazado_717575" data-name="Trazado 717575" d="M369.122,466.034c-8.118-.161-14.236-.3-18.184-.417-4.037-.14-13.594-.362-28.4-.66l-.14,0,0-.139c.185-8.884.618-16.538,1.288-22.75.692-6.177,1.475-15.5,2.329-27.7.184-1.783.43-7.956.729-18.351q.007-.284,0-.584l0-.142h.143c8.613-.029,17.768-.507,27.209-1.424,2.831-.278,5.754-.582,8.69-.9l.14-.015.013.14c.416,4.417,1.118,11.634,2.086,21.45q.626,6.572,1.113,11.438c.807,7.938,1.311,12.768,1.494,14.357.325,2.991.629,6.057.9,9.112.023.969.093,1.934.208,2.881.278,4.393.453,8.958.523,13.574l0,.144Zm-23.64-82.63a11.2,11.2,0,0,1-1.126-.046h0a1.208,1.208,0,0,1-.606-.157.77.77,0,0,1-.348-.642.821.821,0,0,1,.383-.607,1.216,1.216,0,0,1,.729-.158c.535.015,1.01.023,1.431.023a13.521,13.521,0,0,0,1.851-.091,3.89,3.89,0,0,1,.89-.14h.973l.857-.1a1.048,1.048,0,0,1,.926.405.621.621,0,0,1-.05.908,1.531,1.531,0,0,1-.775.284l-2.788.243C346.883,383.377,346.1,383.4,345.482,383.4Zm-1.214-2.5c-.407,0-.747-.006-1.015-.018-3.4-.11-5.46-.215-6.134-.314-1.485-.195-2.239-.721-2.239-1.563,0-.22.107-.518.616-.688l.706-.177,2.676,0c.888.023,2.223.094,3.972.209a72.835,72.835,0,0,0,10.194-.626c3.9-.561,4.5-.626,4.609-.626.642,0,1.01.1,1.156.3.048.072.1.209.1.706,0,.681-.739,1.2-2.261,1.594-.426.1-1.669.289-3.8.6a54.833,54.833,0,0,1-7.145.592Q344.878,380.908,344.268,380.908Zm2.943-24.12c-.743,0-1.367-.491-1.852-1.458-.876-1.773-1.613-3.294-2.192-4.523a9.769,9.769,0,0,0-2.692-2.269,20.423,20.423,0,0,0-6.461-2.487l0-.271a4.92,4.92,0,0,0,2.667-1.336l.065-.095.106.047a6.823,6.823,0,0,0,2.783.544q.389,0,.8-.034a20.828,20.828,0,0,0,4.105-.9,4.211,4.211,0,0,0,2.7-2.322l-.012-.118v-.248l.211.13a11.952,11.952,0,0,0,4.466,1.336,20.543,20.543,0,0,0,2.457.277,11.6,11.6,0,0,0,2.261-.855c.49-.209.951-.417,1.389-.625q.069-.83.169-1.6l.031-.245.193.154a4.433,4.433,0,0,0,1.079.64,10.847,10.847,0,0,0,1.308.129c.35.024.767.047,1.253.07l.278,0a16.876,16.876,0,0,0,3.1-.314c.426-.129.823-.241,1.18-.33.313-.652.629-1.389.941-2.191q.14-.384.317-.773c.225-.727.481-1.5.759-2.316l.31-1.241c.071-.253.14-.507.209-.767q.07-.276.174-.661l.165-1.6c.071.3.257,2.28.35,2.722.042.194.079.383.106.565.279,1.254.513,2.509.7,3.72.033.35.208,2.7.244,3.007-1.044,2.643-1.814,2.055-2.074,2.445-.512.709-1.623,1.137-3.3,1.278-1.154.093-2.468.14-3.9.14h-2.99a44.7,44.7,0,0,0-8.831,1.247c-3.552.905-5.353,2.007-5.353,3.272,0,.13.24.685,2.466,3.033a14.806,14.806,0,0,1,2.779,3.361l.022.08-.059.058A3.763,3.763,0,0,1,347.211,356.788Z" transform="translate(-308.909 -311.48)" fill="#603b2e"/>
              <path id="Trazado_717576" data-name="Trazado 717576" d="M315.2,310.444a28.436,28.436,0,0,0-.1,7.266l.035.035q.034.487.1.973a11.477,11.477,0,0,0,.278,1.286q-.681.1-1.286.174-2.809.526-3.442,1.217-1.877,2.086-4.311,9.839-.209.66-.452,1.391-.139.521-.278.973-2.086,6.884-2.747,10.256,1.286,4.555,6.64,9.8,5.424,5.285,8,8a36.271,36.271,0,0,1,2.573,4.728q.522,3.059,1.043,5.493c.068.25-.164,5.9-.418,15.78,8.654-.028,17.867-1.09,27.362-2.012,2.808-.275,5.869-.319,8.856-.647-.227-2.517-.531-4.408-.581-5.159q1.077-9.6,1.182-10.326a12.179,12.179,0,0,1,1.46-2.225,29.437,29.437,0,0,0,3.477-6.5q1.043-3.025,2.295-7.023,1.217-3.963,2.016-7.2-.522-4.381-2.051-15.089a3.076,3.076,0,0,1-.07-.591.418.418,0,0,1-.035-.278c-.02-.129-.044-.268-.07-.417a41.4,41.4,0,0,1-1.912,4.381q-.73,1.009-3.2,1.217-1.739.139-3.894.139h-2.99a44.67,44.67,0,0,0-8.866,1.252q-5.458,1.39-5.458,3.407,0,.487,2.5,3.129a15.134,15.134,0,0,1,2.747,3.3q-2.673,2.606-4.033-.1-1.323-2.676-2.19-4.52a9.808,9.808,0,0,0-2.747-2.329,20.485,20.485,0,0,0-6.5-2.5,5,5,0,0,0,2.747-1.391,7.37,7.37,0,0,0,3.65.521,20.916,20.916,0,0,0,4.137-.9,4.328,4.328,0,0,0,2.781-2.4v-.174a12.02,12.02,0,0,0,4.52,1.356,20.643,20.643,0,0,0,2.468.278,11.268,11.268,0,0,0,2.329-.869q.73-.313,1.391-.626a.1.1,0,0,1,.07-.035q.07-.869.174-1.669a4.538,4.538,0,0,0,1.113.661h.07a8.019,8.019,0,0,0,1.286.139q.522.034,1.252.07a16.514,16.514,0,0,0,3.407-.313q.7-.209,1.252-.348.487-1.009.973-2.26.139-.383.313-.765.347-1.113.765-2.329l.313-1.252q.1-.376.209-.765c.047-.186.1-.405.174-.661a1.727,1.727,0,0,1,.174-.522,3.147,3.147,0,0,0,.035-.348q.123-.5.278-1.043,1.912-8.135,1.286-9.561a15.094,15.094,0,0,0-8.379-2.955l-3.233.209q0-.522-.035-1.078.005-.69-.035-1.425-.869-1.147-3.477-1.46a45.154,45.154,0,0,0-5.319-.174,12.228,12.228,0,0,0-1.738.174.325.325,0,0,1-.209,0,1.089,1.089,0,0,0-.209.07.149.149,0,0,1-.139,0c-.113.024-.229.048-.348.07a3.337,3.337,0,0,0-.9.417q.034-.591.035-1.078.174-1.564-1.669-1.877-1.739-.1-3.442-.1a41.164,41.164,0,0,0-7.614.452q-.383.07-.7.139-1.426.347-1.286,2.121.045.5.07.869.07.8.07,1.078a11.974,11.974,0,0,0-1.217.1.663.663,0,0,0-.209-.035c-.106,0-.223,0-.348,0q-1.655.1-4.554.382-5.319.487-5.215,2.19m37.583,58.686a1.555,1.555,0,0,1,.07.626q0,.9-2.156,1.46-.626.139-3.79.591a54.438,54.438,0,0,1-7.127.591q-1.63.035-2.434,0-5.115-.165-6.119-.313-2.12-.278-2.121-1.425,0-.383.521-.556l.7-.174h2.642q1.321.034,3.963.209a72.725,72.725,0,0,0,10.221-.626q4.346-.626,4.589-.626.869,0,1.043.243M338.6,373.58a21.615,21.615,0,0,0,3.3-.07,3.856,3.856,0,0,1,.869-.139h.973l.869-.1a.907.907,0,0,1,.8.348.487.487,0,0,1-.035.73,1.415,1.415,0,0,1-.7.243l-2.781.243a24.793,24.793,0,0,1-3.442.035,1.1,1.1,0,0,1-.556-.139.629.629,0,0,1-.278-.521.677.677,0,0,1,.313-.487A1.117,1.117,0,0,1,338.6,373.58Z" transform="translate(-303 -303.126)" fill="url(#linear-gradient-4)"/>
            </g>
          </g>
        </g>
        <g id="Grupo_1004535" data-name="Grupo 1004535" transform="translate(13.246 3.806)">
          <g id="Grupo_1004534" data-name="Grupo 1004534">
            <g id="Layer0_5_MEMBER_0_1_STROKES" data-name="Layer0 5 MEMBER 0 1 STROKES">
              <path id="Trazado_717577" data-name="Trazado 717577" d="M343.188,344.41a.347.347,0,0,1-.273-.133,9.5,9.5,0,0,0-2.651-2.245,20.2,20.2,0,0,0-6.369-2.457.406.406,0,0,1-.06,0,39.149,39.149,0,0,0-4.445-.621l-5.435-.1a.348.348,0,0,1-.281-.543,4.158,4.158,0,0,0,.289-3.346,3.44,3.44,0,0,1-1.791-.61.348.348,0,0,1,.452-.529,3.092,3.092,0,0,0,1.644.474.432.432,0,0,1,.054.009,7.894,7.894,0,0,0,1.775.061,24.139,24.139,0,0,0,8.523-1.787.362.362,0,0,1,.122-.022.136.136,0,0,0,.065-.032.377.377,0,0,1,.093-.051h.007a21.659,21.659,0,0,0,2.012-.8c1.573-1.314,2.326-3.492,2.238-6.472-.1-3.524-.722-4.7-1.254-5.041q-2.09.236-3.851.439h0q-8.925.966-11.226,1.234a.354.354,0,0,1-.386-.305.349.349,0,0,1,.306-.386q2.255-.262,10.866-1.2c-.2-1.173-.3-1.805-.323-1.98l-.138-.968c-.419-2.644-.713-4.833-.871-6.5a.349.349,0,0,1,.313-.38.355.355,0,0,1,.38.314c.158,1.653.449,3.826.866,6.462l.14.979c.022.167.131.836.326,1.995q1.674-.193,3.637-.414a.344.344,0,0,1,.195.035c1.06.53,1.624,2.391,1.722,5.69.1,3.228-.754,5.6-2.525,7.058a.36.36,0,0,1-.074.046c-.563.262-1.171.51-1.811.74.269.96.741,2.471,1.4,4.5l.024.019a7.146,7.146,0,0,0,3.442.476,20.577,20.577,0,0,0,4.057-.889,3.97,3.97,0,0,0,2.542-2.142v-.1q-.034-1.774-.07-4.623a3.565,3.565,0,0,1,.038-.505c-.026-.638-.038-1.372-.038-2.141q-.034-2.986-.035-6.745c-.06-5.148-.084-9.162-.07-11.927a.373.373,0,0,1,.35-.346.348.348,0,0,1,.346.35c-.015,2.76.009,6.771.07,11.919q0,3.759.035,6.745c0,.765.012,1.491.035,2.183a4.038,4.038,0,0,0-.035.464q.032,2.69.065,4.423a12.31,12.31,0,0,0,4.224,1.213,20.358,20.358,0,0,0,2.389.273,11.207,11.207,0,0,0,2.208-.832c.456-.2.879-.385,1.282-.575q.066-.771.159-1.487l0-.015q.139-.835.278-1.635a7.661,7.661,0,0,1,.067-1.1q.242-2.075.417-3.814c.369-3.544.566-6.037.589-7.411.041-2.251.029-4.614-.035-7.026a.348.348,0,0,1,.339-.357.355.355,0,0,1,.357.339c.064,2.421.076,4.795.035,7.056-.023,1.393-.223,3.907-.593,7.47q-.174,1.74-.417,3.828a8.079,8.079,0,0,0-.067,1.072c-.086.519-.167,1-.248,1.485a4.184,4.184,0,0,0,.811.464c.028,0,.056,0,.067,0a7.533,7.533,0,0,0,1.228.132c.354.024.769.047,1.254.07a16.752,16.752,0,0,0,3.325-.307c.374-.114.738-.217,1.073-.3.3-.626.6-1.327.893-2.089.093-.257.2-.519.321-.783.218-.7.474-1.483.752-2.3l.3-1.223a.348.348,0,1,1,.674.168l-.313,1.252c-.285.836-.54,1.61-.77,2.349-.128.287-.228.534-.318.78-.329.846-.661,1.614-.987,2.292a.351.351,0,0,1-.229.186q-.55.136-1.236.343a16.9,16.9,0,0,1-3.513.328c-.5-.024-.919-.047-1.268-.07a8.451,8.451,0,0,1-1.307-.14.653.653,0,0,1-.157-.025,4.718,4.718,0,0,1-.705-.362q-.058.524-.1,1.076a.349.349,0,0,1-.227.3l-.04.022q-.668.316-1.4.631a11.62,11.62,0,0,1-2.388.888.266.266,0,0,1-.1.008,20.866,20.866,0,0,1-2.509-.283,13.562,13.562,0,0,1-4.239-1.176,4.706,4.706,0,0,1-2.894,2.381,21.416,21.416,0,0,1-4.206.92,7.942,7.942,0,0,1-3.587-.448,4.309,4.309,0,0,1-1.574.928,19.46,19.46,0,0,1,5.413,2.254,10.165,10.165,0,0,1,2.833,2.407.348.348,0,0,1-.273.563Zm-18.647-6.248,4.886.094a39.991,39.991,0,0,1,4.493.622,5.648,5.648,0,0,0,2.3-1.033v0c-.672-2.057-1.154-3.6-1.434-4.586a24.545,24.545,0,0,1-8.672,1.8,9.1,9.1,0,0,1-1.416-.008A5.126,5.126,0,0,1,324.541,338.162Z" transform="translate(-322.05 -308.6)" fill="#452318"/>
            </g>
          </g>
        </g>
        <g id="Grupo_1004537" data-name="Grupo 1004537" transform="translate(9.094 86.055)">
          <g id="Grupo_1004536" data-name="Grupo 1004536">
            <g id="Layer0_6_FILL" data-name="Layer0 6 FILL">
              <path id="Trazado_717578" data-name="Trazado 717578" d="M333.2,452.544c2.906.092,5.566,1.327,7.536,1.211,2.216-.139,6.339-.493,11.412-1.211,4.187-.6,7.422.179,10.574.179,2.181,0,3.525-3.708,4.841-2.827q-.352-1.775-.739-3.546-22.458,1.6-43.512,1.008-.7,3.195-1.329,6.4c1.578-1.711,3.562-1.065,5.751-1.3A52.249,52.249,0,0,1,333.2,452.544Z" transform="translate(-317.876 -432.817)" fill="#f8b036"/>
              <path id="Trazado_717579" data-name="Trazado 717579" d="M338.576,451.74q-2.955.174-7.314.035a42.757,42.757,0,0,0-5.429.035,8.775,8.775,0,0,0-5.652,2.92,240.3,240.3,0,0,0-3.989,51.907h56.661a368.247,368.247,0,0,0-7.092-55.766,9.29,9.29,0,0,0-5.246-1.321,78.447,78.447,0,0,0-11.007.9Q341.9,451.531,338.576,451.74Z" transform="translate(-316.079 -433.792)" fill="#ffbf52"/>
              <path id="Trazado_717580" data-name="Trazado 717580" d="M367.019,433.432q-.517-3.755-.96-6.4-3.657-.1-9.973-.139-18.653-.1-31.027,1.043a38.3,38.3,0,0,0-1.219,13.49q21.055.591,43.512-1.008A53.331,53.331,0,0,0,367.019,433.432Z" transform="translate(-318.407 -426.887)" fill="#ffdf70"/>
            </g>
          </g>
        </g>
        <g id="Grupo_1004539" data-name="Grupo 1004539" transform="translate(18.126 87.211)">
          <g id="Grupo_1004538" data-name="Grupo 1004538">
            <g id="Layer0_6_MEMBER_0_1_STROKES" data-name="Layer0 6 MEMBER 0 1 STROKES">
              <path id="Trazado_717581" data-name="Trazado 717581" d="M329.465,441.414a.347.347,0,0,1-.348-.335,69.167,69.167,0,0,1,.129-7.635.348.348,0,1,1,.694.051,68.123,68.123,0,0,0-.128,7.558.349.349,0,0,1-.335.361Zm9.751-.452a.347.347,0,0,1-.348-.334q-.055-1.426-.074-2.878a.348.348,0,0,1,.344-.352h0a.348.348,0,0,1,.348.344q.018,1.441.074,2.859a.347.347,0,0,1-.334.361Zm-4.894-.174a.348.348,0,0,1-.348-.337,109.946,109.946,0,0,1,.241-11.51.348.348,0,1,1,.694.052,108.9,108.9,0,0,0-.239,11.436.347.347,0,0,1-.337.358Zm9.972-.052a.347.347,0,0,1-.346-.316,60.71,60.71,0,0,1,.129-10.876.354.354,0,0,1,.378-.314.348.348,0,0,1,.314.378,60.015,60.015,0,0,0-.129,10.749.348.348,0,0,1-.315.378Zm10.4-.017a.348.348,0,0,1-.348-.34c-.1-4-.358-7.826-.773-11.37a.348.348,0,1,1,.691-.081c.417,3.566.679,7.413.777,11.435a.348.348,0,0,1-.339.356Zm4.986-.1a.348.348,0,0,1-.348-.332c-.1-2.336-.25-4.648-.442-6.869a.348.348,0,0,1,.693-.06c.193,2.232.342,4.553.444,6.9a.348.348,0,0,1-.333.362Zm-9.641-.035a.348.348,0,0,1-.347-.325c-.2-3.044-.431-5.97-.7-8.7a.348.348,0,0,1,.312-.38.358.358,0,0,1,.38.312c.269,2.735.505,5.669.7,8.72a.349.349,0,0,1-.325.37Zm14.886-.139a.347.347,0,0,1-.348-.335q-.038-1.087-.092-2.115a.347.347,0,0,1,.329-.365.341.341,0,0,1,.365.328q.055,1.035.093,2.128a.348.348,0,0,1-.336.359Zm-.186-3.494a.348.348,0,0,1-.346-.321l-.074-.992a.348.348,0,0,1,.694-.051l.074.99a.348.348,0,0,1-.321.373Zm-25.6-.226h-.009a.348.348,0,0,1-.339-.357q.01-.45.018-.9a.334.334,0,0,1,.353-.342.348.348,0,0,1,.342.353q-.007.454-.018.907A.348.348,0,0,1,339.142,436.72Zm25.356-2.295a.349.349,0,0,1-.345-.309,46.567,46.567,0,0,0-.824-5.072.347.347,0,1,1,.677-.154,47.186,47.186,0,0,1,.838,5.149.347.347,0,0,1-.307.384Zm-25.3-.487h-.01a.348.348,0,0,1-.337-.358c.044-1.517.124-3.078.24-4.639a.348.348,0,1,1,.694.052c-.115,1.551-.2,3.1-.238,4.608A.348.348,0,0,1,339.2,433.939Zm19.908-1.651a.349.349,0,0,1-.346-.315q-.14-1.5-.312-2.964a.347.347,0,0,1,.3-.386.339.339,0,0,1,.386.3q.172,1.469.315,2.98a.349.349,0,0,1-.314.379Zm-29.345-.261-.036,0a.348.348,0,0,1-.31-.382q.109-1.064.26-2.1a.348.348,0,0,1,.689.1q-.149,1.023-.258,2.072A.347.347,0,0,1,329.76,432.027Zm19.409-1.651a.349.349,0,0,1-.345-.309l-.129-1.129a.348.348,0,0,1,.691-.08l.13,1.131a.348.348,0,0,1-.307.385Z" transform="translate(-329.068 -428.55)" fill="#eea243"/>
            </g>
          </g>
        </g>
      </g>
      <g id="Grupo_1004548" data-name="Grupo 1004548" transform="translate(276.567 217.105)">
        <g id="Grupo_1004543" data-name="Grupo 1004543">
          <g id="Grupo_1004541" data-name="Grupo 1004541">
            <g id="Layer0_7_FILL" data-name="Layer0 7 FILL">
              <path id="Trazado_717582" data-name="Trazado 717582" d="M399.418,322.466a.744.744,0,0,0-.73.8q0,.034,1.112,3.511a5.7,5.7,0,0,1-.278,3.442q-1.773,5.006-1.773,5.319-.07,1.009,2.329,6.154,2.5,5.145,2.4,6.223a6.47,6.47,0,0,0,.174,1.877,22.959,22.959,0,0,0,2.5,3.79q2.225,3.025,4.693,6.71,2.538,3.685,2.608,3.824,3.372,4.206,9.839,5.389,7.753,8.761,7.475,12.864-.209,4.1-.313,12.829-.07,8.727-11.612,82.154l39.808-1.46q-3.233-65.709-3.511-79.963-.243-14.289-.07-17.488.939-7.2.939-7.3a29.444,29.444,0,0,0-.521-6.64q-1.113-4.728-3.824-21.729a70.5,70.5,0,0,0-3.546-6.675,5.151,5.151,0,0,0-.452-.7v-.035q.034-.8.035-1.773v-.07q-.034-1.877-.278-4.415a4.267,4.267,0,0,0-.035-.521,10.742,10.742,0,0,0-.765-3.651,1.822,1.822,0,0,0-1.286-1.043,3.5,3.5,0,0,0-.973-.174q-.1-.8-.209-1.564a.312.312,0,0,1-.035-.139q-1.009-4.485-5.076-4.624-4.832-.209-10.639-.7-.626-.279-1.286-.556a1.772,1.772,0,0,0-.417-.209,49.714,49.714,0,0,0-9.909-3.442,8.644,8.644,0,0,0-1.6-.243,5.052,5.052,0,0,0-2.086.243.894.894,0,0,0-.243.139,1.288,1.288,0,0,0-.313.243,7.8,7.8,0,0,0-1.947,2.5q-1.113,1.947-2.468,8.344a8.77,8.77,0,0,1-.209,1.008,4.613,4.613,0,0,0-.765-.73.439.439,0,0,0-.209-.1,6.113,6.113,0,0,0-1.043-.661,7.594,7.594,0,0,0-3.442-.765h-2.051m42.52,1.113q-.591-.034-1.252-.035-6.154,0-13.976.7-.626.1-8.1.869-2.329.209-3.824,2.92a17.138,17.138,0,0,0-1.877,7.51,10.5,10.5,0,0,0,.243,2.955q.174.8.417,1.7.939,3.268,2.677,3.72.383-5.458,2.642-7.162a12.492,12.492,0,0,1,3.442-1.078q2.608-.66,10.639-3.338,6.779-2.329,7.892-2.329,1.808,0,4.172,3.025-2.365-3.025-4.172-3.025-1.113,0-7.892,2.329-8.031,2.677-10.639,3.338a12.492,12.492,0,0,0-3.442,1.078q-2.26,1.7-2.642,7.162v.1a10.254,10.254,0,0,0,1.147,6.049,6.224,6.224,0,0,0,4.8,3.372,21.9,21.9,0,0,0,5.25,0,3.377,3.377,0,0,0,2.086-.939,1.608,1.608,0,0,0,.1-.174,2.636,2.636,0,0,0,.348-.869,4.538,4.538,0,0,0-.174-2.816,1.841,1.841,0,0,1-.174-.278.864.864,0,0,0-.1-.209,3.161,3.161,0,0,0-1.147-1.078,5.454,5.454,0,0,1-1.217.07,16.875,16.875,0,0,1-.452,2.538,4.333,4.333,0,0,1-.765,1.877,4.333,4.333,0,0,0,.765-1.877,16.875,16.875,0,0,0,.452-2.538,5.116,5.116,0,0,1-1.391-.243,5.116,5.116,0,0,0,1.391.243,5.454,5.454,0,0,0,1.217-.07c.186-.047.382-.092.591-.139q3.372-.8,4.45-5.25-1.077,4.45-4.45,5.25c-.209.047-.405.092-.591.139a3.161,3.161,0,0,1,1.147,1.078.864.864,0,0,1,.1.209q.764.278,1.182.382a13.038,13.038,0,0,0,2.364.139,27.265,27.265,0,0,0,3.755-.382,25.745,25.745,0,0,0,3.546-.73,25.745,25.745,0,0,1-3.546.73,27.265,27.265,0,0,1-3.755.382,13.038,13.038,0,0,1-2.364-.139q-.417-.1-1.182-.382a1.841,1.841,0,0,0,.174.278,4.538,4.538,0,0,1,.174,2.816,2.636,2.636,0,0,1-.348.869,1.608,1.608,0,0,1-.1.174q-.9,1.217-1.147,4.8a11.74,11.74,0,0,0,.452,4.485,8.912,8.912,0,0,0,2.016,3.372,18.424,18.424,0,0,0,1.634,1.321,18.424,18.424,0,0,1-1.634-1.321,7.783,7.783,0,0,1-4.589-2.816q-2.19-2.433-2.19-3.824.07-2.156-2.677-3.338a18.6,18.6,0,0,1-4.276-1.669,8.32,8.32,0,0,1-1.495-1.391,6.923,6.923,0,0,1-1.321-1.982,7.236,7.236,0,0,1-.7-2.225q-.139-1.46-.278-2.677a7.877,7.877,0,0,0-.869-2.608,3.379,3.379,0,0,0-1.843-1.843,14.981,14.981,0,0,0-2.677-.452,3.655,3.655,0,0,1-2.016-1.043,1.536,1.536,0,0,1-.765.313,1.536,1.536,0,0,0,.765-.313,3.466,3.466,0,0,0,1.321-1.425,9.258,9.258,0,0,0,.521-1.078,18.583,18.583,0,0,0,1.008-5.389,10.7,10.7,0,0,0-.521-4.45,6.619,6.619,0,0,0-1.147-2.016,6.619,6.619,0,0,1,1.147,2.016q2.746-7.684,4.033-9.248,1.321-1.53,6.5-1.53,2.12,0,6.919.417-4.8-.417-6.919-.417-5.181,0-6.5,1.53-1.286,1.564-4.033,9.248a10.7,10.7,0,0,1,.521,4.45,18.583,18.583,0,0,1-1.008,5.389,6.385,6.385,0,0,0,5.389,1.7,10.5,10.5,0,0,1-.243-2.955,17.138,17.138,0,0,1,1.877-7.51q1.495-2.712,3.824-2.92,7.475-.765,8.1-.869,7.822-.7,13.976-.7Q441.346,323.544,441.938,323.578Z" transform="translate(-397.747 -312.232)" fill="url(#linear-gradient-5)"/>
              <path id="Trazado_717583" data-name="Trazado 717583" d="M419.826,354.781v-.1q-1.739-.452-2.677-3.72-.243-.9-.417-1.7a6.385,6.385,0,0,1-5.389-1.7,9.263,9.263,0,0,1-.521,1.078,3.466,3.466,0,0,1-1.321,1.425,3.655,3.655,0,0,0,2.016,1.043,14.984,14.984,0,0,1,2.677.452,3.379,3.379,0,0,1,1.843,1.843,7.877,7.877,0,0,1,.869,2.607q.139,1.217.278,2.677a7.236,7.236,0,0,0,.7,2.225,6.922,6.922,0,0,0,1.321,1.982,8.318,8.318,0,0,0,1.495,1.391,18.6,18.6,0,0,0,4.276,1.669q2.746,1.182,2.677,3.338,0,1.39,2.19,3.824a7.783,7.783,0,0,0,4.589,2.816,8.911,8.911,0,0,1-2.016-3.372,11.738,11.738,0,0,1-.452-4.485q.243-3.581,1.147-4.8a3.377,3.377,0,0,1-2.086.939,21.9,21.9,0,0,1-5.25,0,6.224,6.224,0,0,1-4.8-3.372A10.253,10.253,0,0,1,419.826,354.781Z" transform="translate(-401.328 -322.992)" fill="#ffc47a"/>
            </g>
          </g>
          <g id="Grupo_1004542" data-name="Grupo 1004542" transform="translate(7.06 3.594)">
            <g id="Layer0_7_1_STROKES" data-name="Layer0 7 1 STROKES">
              <path id="Trazado_717584" data-name="Trazado 717584" d="M435.574,368.4a.345.345,0,0,1-.2-.065,18.874,18.874,0,0,1-1.662-1.343l-.013-.012-.015-.015a9.284,9.284,0,0,1-2.089-3.5,12.107,12.107,0,0,1-.468-4.614,15.553,15.553,0,0,1,.629-3.8,5.113,5.113,0,0,1-1.171.3,22.343,22.343,0,0,1-5.334,0,6.584,6.584,0,0,1-5.066-3.546,10.514,10.514,0,0,1-1.2-6.076c-1.162-.44-2.032-1.711-2.654-3.874-.134-.5-.253-.973-.355-1.422a6.7,6.7,0,0,1-4.989-1.506q-.167.361-.348.675a3.849,3.849,0,0,1-1.439,1.549,1.872,1.872,0,0,1-.918.363.361.361,0,0,1-.378-.315.348.348,0,0,1,.315-.378,1.2,1.2,0,0,0,.587-.244l.026-.018.026-.015a3.165,3.165,0,0,0,1.177-1.287,8.979,8.979,0,0,0,.5-1.035,18.318,18.318,0,0,0,.985-5.282,10.428,10.428,0,0,0-.5-4.308v0a6.278,6.278,0,0,0-1.086-1.911.348.348,0,0,1,.533-.446,6.71,6.71,0,0,1,.852,1.3c1.708-4.707,2.951-7.5,3.794-8.525.964-1.116,3.176-1.656,6.769-1.656,1.422,0,3.76.141,6.948.419a.347.347,0,0,1,.316.376.351.351,0,0,1-.376.316c-3.169-.275-5.486-.416-6.889-.416-3.331,0-5.431.474-6.239,1.409-.816.993-2.139,4.029-3.927,9.02a11.225,11.225,0,0,1,.5,4.474,19.625,19.625,0,0,1-.948,5.266,5.941,5.941,0,0,0,4.567,1.495,10.4,10.4,0,0,1-.175-2.675,17.526,17.526,0,0,1,1.922-7.655,5.261,5.261,0,0,1,4.095-3.094c4.944-.506,7.663-.8,8.075-.866,5.225-.466,9.937-.7,14.033-.7q.672,0,1.272.035a.348.348,0,1,1-.041.694q-.581-.033-1.231-.034c-4.075,0-8.767.234-13.946.694-.4.067-3.134.361-8.1.868-1.448.131-2.61,1.027-3.556,2.742a16.9,16.9,0,0,0-1.834,7.362,10.182,10.182,0,0,0,.236,2.861v0q.17.787.411,1.683c.508,1.765,1.19,2.881,2.031,3.32.306-3.513,1.206-5.788,2.744-6.948.224-.191.848-.506,3.571-1.139,1.72-.436,5.291-1.556,10.608-3.329,4.6-1.58,7.215-2.347,8-2.347,1.331,0,2.785,1.033,4.446,3.159a.348.348,0,0,1-.548.428c-1.5-1.918-2.811-2.891-3.9-2.891-.48,0-2.219.4-7.779,2.311-5.336,1.779-8.925,2.9-10.666,3.346-2.633.612-3.186.907-3.3,1.006-1.43,1.078-2.272,3.4-2.52,6.908v.092a9.995,9.995,0,0,0,1.1,5.87,5.854,5.854,0,0,0,4.543,3.207,21.666,21.666,0,0,0,5.156,0,3.073,3.073,0,0,0,1.877-.825l0,0c0-.014.032-.059.05-.1a2.378,2.378,0,0,0,.318-.786,4.243,4.243,0,0,0-.137-2.569,2.426,2.426,0,0,1-.181-.295h0a.5.5,0,0,1-.024-.06.616.616,0,0,0-.059-.113,2.9,2.9,0,0,0-.923-.91,5.872,5.872,0,0,1-.84.065,18.022,18.022,0,0,1-.426,2.265c-.367,1.464-.672,1.871-.869,2.051a.348.348,0,0,1-.467-.515,3.866,3.866,0,0,0,.661-1.7,17.452,17.452,0,0,0,.405-2.133,5.25,5.25,0,0,1-1.117-.234.348.348,0,1,1,.22-.66,4.774,4.774,0,0,0,1.3.227h.006a5.121,5.121,0,0,0,1.124-.064c.184-.045.38-.091.588-.137,2.124-.5,3.495-2.137,4.186-4.992a.348.348,0,1,1,.677.164c-.733,3.023-2.265,4.863-4.556,5.468a3.886,3.886,0,0,1,.613.724c.027.042.052.083.074.125.43.154.768.262,1.007.321a12.925,12.925,0,0,0,2.28.129,27.059,27.059,0,0,0,3.7-.378,25.566,25.566,0,0,0,3.493-.718.347.347,0,1,1,.213.661,25.492,25.492,0,0,1-3.6.744,27.739,27.739,0,0,1-3.808.386,13.09,13.09,0,0,1-2.44-.147c-.13-.033-.278-.074-.448-.128a5.215,5.215,0,0,1,.029,2.573,3,3,0,0,1-.395.983,1.463,1.463,0,0,1-.105.176l-.013.019c-.56.752-.923,2.3-1.08,4.614a11.442,11.442,0,0,0,.435,4.351,8.6,8.6,0,0,0,1.93,3.235,18.184,18.184,0,0,0,1.593,1.286.348.348,0,0,1-.2.63Z" transform="translate(-407.9 -317.4)" fill="#ef994a"/>
            </g>
          </g>
        </g>
        <g id="Grupo_1004545" data-name="Grupo 1004545" transform="translate(26.426 88.402)">
          <g id="Grupo_1004544" data-name="Grupo 1004544">
            <g id="Layer0_8_FILL" data-name="Layer0 8 FILL">
              <path id="Trazado_717585" data-name="Trazado 717585" d="M436.954,457.434a6.379,6.379,0,0,1,.556.626,3.911,3.911,0,0,1,1.008-1.425l.313-2.816a15.371,15.371,0,0,0-2.26,2.677,5.821,5.821,0,0,0-.521.9,1.523,1.523,0,0,0,.313-.174q.209-.14.591.209m29-16.445a2.663,2.663,0,0,1,.939-.035,1.623,1.623,0,0,1,.417-.9.777.777,0,0,1,.556-.139c.186.023.336.047.452.07q-.556-.73-2.4-.591Z" transform="translate(-435.843 -439.368)" fill="#fb6e73"/>
              <path id="Trazado_717586" data-name="Trazado 717586" d="M468.292,440.321a.4.4,0,0,0-.07-.1c-.116-.023-.266-.047-.452-.07a.777.777,0,0,0-.556.139,1.622,1.622,0,0,0-.417.9q-.139.626-2.92,3.233a58.146,58.146,0,0,1-10.5,7.544,56.861,56.861,0,0,1-11.716,5.354l-.035.035q-3.685,1.147-4.172.973l-.035-.035a6.378,6.378,0,0,0-.556-.626q-.383-.348-.591-.209a1.522,1.522,0,0,1-.313.174,1.64,1.64,0,0,0-.035,1.53q.869,1.53,6.223-.174a57.492,57.492,0,0,0,12.1-5.528,58.085,58.085,0,0,0,10.812-7.788Q469.161,441.851,468.292,440.321Z" transform="translate(-435.753 -439.604)" fill="#fb868b"/>
            </g>
          </g>
        </g>
        <g id="Grupo_1004547" data-name="Grupo 1004547" transform="translate(26.432 83.979)">
          <g id="Grupo_1004546" data-name="Grupo 1004546">
            <g id="Layer0_9_FILL" data-name="Layer0 9 FILL">
              <path id="Trazado_717587" data-name="Trazado 717587" d="M439.809,446.77l-.417.382a20.141,20.141,0,0,0-2.642,2.955.316.316,0,0,0,.139-.035l-.1.07q.586-.241.626.139.066.417.313,1.391.034-.433,1.738-2.156l.348-2.747M467.067,434.6a1.857,1.857,0,0,1,.452-.9.726.726,0,0,1,.521-.139c.216.022.367.033.452.035q-.566-.718-2.468-.556l.035,1.6A3.068,3.068,0,0,1,467.067,434.6Z" transform="translate(-436.062 -433.007)" fill="#fb6e73"/>
              <path id="Trazado_717588" data-name="Trazado 717588" d="M468.295,433.972a.948.948,0,0,0-.1-.139c-.085,0-.236-.013-.452-.035a.726.726,0,0,0-.522.139,1.857,1.857,0,0,0-.452.9q-.1.614-2.886,3.2h-.035a64.921,64.921,0,0,1-22.216,12.933h0q-3.7,1.194-4.207.973h0v-.035q-.247-.973-.313-1.391-.04-.38-.626-.139l.1-.07a.316.316,0,0,1-.139.035q-1.027,1.612-.521,2.468.869,1.53,6.223-.174a57.487,57.487,0,0,0,12.1-5.528,58.082,58.082,0,0,0,10.812-7.788Q469.163,435.5,468.295,433.972Z" transform="translate(-435.76 -433.247)" fill="#fb868b"/>
            </g>
          </g>
        </g>
      </g>
      <g id="Grupo_1004550" data-name="Grupo 1004550" transform="translate(21.764 97.173)">
        <g id="Grupo_1004549" data-name="Grupo 1004549">
          <g id="Layer0_10_FILL" data-name="Layer0 10 FILL">
            <path id="Trazado_717589" data-name="Trazado 717589" d="M172.14,198.992q-7.51,2.642-13,4.242l4.624,13.524q5.528-1.912,12.69-4.45l-2.781-13.837q-.73.243-1.53.521M43.99,212.621q-1.808,1.39-3.963,3.094L55.741,235.5l6.849-5.041L49.2,208.8q-2.12,1.495-5.215,3.824m3.79-6.154-5.7-9.213L31.3,204.764l7.092,8.935q1.739-1.39,4.311-3.3,2.92-2.295,5.076-3.929m51.7,13.976q2.7.625,5.667,1.425.483.13.939.243,1.18-3.919,2.712-9.144-.444-.094-.9-.209-3.008-.747-7.475-1.564-.563,5.766-.939,9.248m1.773-17.8q-.147,1.532-.278,2.955a74.105,74.105,0,0,0,8.17,1.391q.735.081,1.356.209.073-.227.139-.452,3.908-13.266,5.876-19.991-4.153-.78-13.663-1.808-.472,5.923-1.6,17.7m-22.911-37.1L58.557,171.7l17.557,56.148,10.534-3.025-8.309-59.277M225.889,145.9l-18.635-6.154L197.8,206.676l10.534,3.025,17.557-63.8m-61.4,6.606-20.582,6.5,14.046,40.781q4.659-1.495,11.3-3.477,2.052-.626,3.755-1.113l-8.518-42.693M262.6,211.578q-1.808.278-7.3,1.7.869,4.381,1.6,7.962,3.095-.834,7.614-2.016-.1-2.12-.243-4.554-.1-1.634-.174-3.129a14.189,14.189,0,0,0-1.495.035m.765-16.792q0-4.624.1-7.788-6.049,1.182-12.273,2.434.939,7.614,3.477,20.721,4.346-.939,9.248-2.086-.556-10.743-.556-13.281m30.942,26.457,15.3-47.8-16.1-3.233L286.1,219.991l8.2,1.252m24.371-4.52-6.154,11.438,4.972,2.955,7.927-10.048q-3.536-2.387-6.745-4.346m19.017-11.23-9.943-5.563-4.9,9.039a50.525,50.525,0,0,1,8.1,5.076Z" transform="translate(-31.3 -139.75)" fill="#fffc69"/>
          </g>
        </g>
      </g>
    </g>
  </g>
</svg>
