<svg xmlns="http://www.w3.org/2000/svg" width="254.466" height="402.447" viewBox="0 0 254.466 402.447">
  <g id="Grupo_1005151" data-name="Grupo 1005151" transform="translate(-1143.124 -9247)">
    <path id="Trazado_719040" data-name="Trazado 719040" d="M321.382,159.295s-1.94,1.173-5.319,5.3-18.395,23.046-18.395,23.046l16.482,14.184" transform="translate(988.852 9176.616)" fill="#07518e"/>
    <g id="Grupo_1005146" data-name="Grupo 1005146" transform="translate(988.852 9176.616)">
      <g id="Grupo_1005149" data-name="Grupo 1005149">
        <path id="Trazado_719081" data-name="Trazado 719081" d="M370.98,84.251S364.9,66.1,339.327,71.332s-51.872,102.826,17.8,108.063,55.941-43.5,33.005-64.74S400.539,87.568,370.98,84.251Z" fill="#c15c30"/>
        <path id="Trazado_719082" data-name="Trazado 719082" d="M390.127,114.655c-11.518-10.666-8.843-17.449-7.067-21.981h0c-9.837,17.5,8.964,19.857,10.361,38.366s-7.158,32.817-43.788,32.293c-24.169-.346-32.2-10.05-34.872-16.612,4.776,17.078,17.415,30.8,42.362,32.673C426.788,184.632,413.063,135.894,390.127,114.655Z" fill="#b74720"/>
        <path id="Trazado_719083" data-name="Trazado 719083" d="M305.007,452.832s-2.252,8.076-21.722,14.267l1.987,5.732h39.735l-3.036-18.546" fill="#2c3542"/>
        <path id="Trazado_719084" data-name="Trazado 719084" d="M384.565,454.312s2.547,9.367,13.275,14.481l-1.589,4.038H364.918l2.513-18.546" fill="#2c3542"/>
        <path id="Trazado_719085" data-name="Trazado 719085" d="M388.828,255.557s2.212,65.086-3.055,199.684H366.49S356.539,341.718,349.4,275.078l-1.25-.4s-12.6,85.418-25.8,180.567L303.285,453.8s3.1-132.785,8.857-198.248" fill="#0d89ce"/>
        <path id="Trazado_719086" data-name="Trazado 719086" d="M347.932,271.423a.236.236,0,0,0,.045-.467l-6.875-1.3,1.656-15.8a.236.236,0,1,0-.469-.049l-1.677,16.018a.235.235,0,0,0,.19.256l7.086,1.345A.226.226,0,0,0,347.932,271.423Z" fill="#b2cff9"/>
        <path id="Trazado_719087" data-name="Trazado 719087" d="M348.351,267.834a.236.236,0,0,0,.234-.205l1.766-13.774a.236.236,0,0,0-.2-.264.241.241,0,0,0-.264.2l-1.766,13.775a.235.235,0,0,0,.2.263Z" fill="#b2cff9"/>
        <path id="Trazado_719088" data-name="Trazado 719088" d="M349.4,275.313a.235.235,0,0,0,.049-.466l-4.84-1.018a.236.236,0,0,0-.1.462l4.84,1.018A.4.4,0,0,0,349.4,275.313Z" fill="#b2cff9"/>
        <path id="Trazado_719089" data-name="Trazado 719089" d="M380.353,272.737a13.3,13.3,0,0,0,3.89-.608.235.235,0,0,0-.151-.445c-.05.015-5.02,1.658-8.081-.7-1.838-1.419-2.639-4-2.382-7.671a.236.236,0,0,0-.218-.251.226.226,0,0,0-.251.218c-.27,3.839.594,6.557,2.566,8.078A7.486,7.486,0,0,0,380.353,272.737Z" fill="#b2cff9"/>
        <path id="Trazado_719090" data-name="Trazado 719090" d="M313.16,266.41a7.114,7.114,0,0,0,6.223-3,.235.235,0,0,0-.409-.232c-.085.148-2.132,3.606-7.794,2.576a.235.235,0,0,0-.084.463A11.557,11.557,0,0,0,313.16,266.41Z" fill="#b2cff9"/>
        <path id="Trazado_719091" data-name="Trazado 719091" d="M386.552,455.241H365.536l-.618-5.774,22.251-.449Z" fill="#69abe2"/>
        <path id="Trazado_719092" data-name="Trazado 719092" d="M312.058,256.637h76.811l.11,3.283-76.921-2.337Z" fill="#9fd3f4" style="mix-blend-mode: multiply;isolation: isolate"/>
        <path id="Trazado_719093" data-name="Trazado 719093" d="M384.883,455.241H367.3l-.566,4.181s10.267-3.8,18.618-3.064Z" fill="#202c2d"/>
        <path id="Trazado_719094" data-name="Trazado 719094" d="M378.714,463.465a.364.364,0,0,0,.081-.008c8.289-1.437,11.051-.884,11.078-.879a.47.47,0,0,0,.2-.919c-.112-.024-2.9-.609-11.44.872a.47.47,0,0,0,.079.934Z" fill="#a5b7b7"/>
        <path id="Trazado_719095" data-name="Trazado 719095" d="M376.777,461.02a.435.435,0,0,0,.081-.007c8.288-1.436,11.051-.885,11.078-.879a.471.471,0,0,0,.2-.919c-.115-.024-2.9-.609-11.44.872a.47.47,0,0,0,.078.933Z" fill="#a5b7b7"/>
        <path id="Trazado_719096" data-name="Trazado 719096" d="M374.841,458.575a.451.451,0,0,0,.081-.007c8.287-1.437,11.051-.885,11.077-.879a.471.471,0,0,0,.2-.919c-.115-.024-2.9-.609-11.44.872a.47.47,0,0,0,.079.933Z" fill="#a5b7b7"/>
        <path id="Trazado_719097" data-name="Trazado 719097" d="M322.057,455.221l-17.58-1.312-.439.768,18.389,3.631Z" fill="#202c2d"/>
        <path id="Trazado_719098" data-name="Trazado 719098" d="M323.194,455.448l-20.7-1.556-.441-6.55,22.028,4.053Z" fill="#69abe2"/>
        <path id="Trazado_719099" data-name="Trazado 719099" d="M311.894,457.969a.47.47,0,0,0,.144-.918c-.055-.018-5.618-1.81-8.952-2.613a.471.471,0,0,0-.221.915c3.3.794,8.829,2.575,8.885,2.593A.482.482,0,0,0,311.894,457.969Z" fill="#a5b7b7"/>
        <path id="Trazado_719100" data-name="Trazado 719100" d="M308.671,461.693a.47.47,0,0,0,.258-.864c-.053-.035-5.347-3.5-6.861-4.649a.471.471,0,1,0-.568.751c1.54,1.163,6.694,4.541,6.913,4.684A.464.464,0,0,0,308.671,461.693Z" fill="#a5b7b7"/>
        <path id="Trazado_719101" data-name="Trazado 719101" d="M304.345,462.769a.47.47,0,0,0,.337-.8l-4.106-4.218a.471.471,0,0,0-.675.656l4.106,4.218A.469.469,0,0,0,304.345,462.769Z" fill="#a5b7b7"/>
        <path id="Trazado_719102" data-name="Trazado 719102" d="M313.791,186.392c6.755-7.271,7.334-23.134,8.778-25.971a7.5,7.5,0,0,1,4.239-3.627h0c6.42-2.839,23.22-5.817,23.22-5.817L360.1,150.4s22.257,5.138,32.15,14.073c-.55,15.879-5.812,40.575-5.812,40.575s1.855,30.688,3.393,51.463h-78.7s4.921-30.938,9.085-48.736C320.217,207.773,304.369,196.535,313.791,186.392Z" fill="#fff"/>
        <path id="Trazado_719103" data-name="Trazado 719103" d="M362.468,152.189s-.544,11.17-17.749,19.212c0,0-1.992-6.71-2.454-18.769" fill="#ffcab3"/>
        <rect id="Rectángulo_347573" data-name="Rectángulo 347573" width="20.407" height="29.264" rx="8.021" transform="translate(362.54 161.348) rotate(180)" fill="#ffcab3"/>
        <ellipse id="Elipse_8520" data-name="Elipse 8520" cx="7.804" cy="7.93" rx="7.804" ry="7.93" transform="translate(319.616 111.42)" fill="#ffada2"/>
        <path id="Trazado_719104" data-name="Trazado 719104" d="M342.133,142.453a10.318,10.318,0,0,1,10.2-10.369h0a10.317,10.317,0,0,1,10.2,10.369v2.1c-4.443,4.573-11.2,7.012-18.743,7.012-.555,0-1.1-.018-1.649-.044-.01-.18-.015-.362-.015-.544Z" fill="#ffada2"/>
        <path id="Trazado_719105" data-name="Trazado 719105" d="M346.75,80.034h0a24.451,24.451,0,0,1,24.181,24.573v21.445c0,13.516-10.882,21.1-24.181,21.1h0c-13.3,0-24.181-7.579-24.181-21.1V104.607A24.451,24.451,0,0,1,346.75,80.034Z" fill="#ffcab3"/>
        <path id="Trazado_719106" data-name="Trazado 719106" d="M345.815,144.18c13.3,0,24.181-7.58,24.181-21.095V101.639a24.73,24.73,0,0,0-.718-5.917,24.671,24.671,0,0,1,1.653,8.885v21.445c0,13.515-10.882,21.1-24.181,21.1-11.517,0-21.214-5.687-23.609-15.987C326.567,139.58,335.457,144.18,345.815,144.18Z" fill="#ffada2"/>
        <path id="Trazado_719107" data-name="Trazado 719107" d="M366.329,118.553a7.805,7.805,0,1,0,7.8-7.93A7.868,7.868,0,0,0,366.329,118.553Z" fill="#ffcab3"/>
        <path id="Trazado_719108" data-name="Trazado 719108" d="M368.879,121.932a.194.194,0,0,0,.147-.068c4.232-4.946,8.722-2.239,8.91-2.121a.193.193,0,0,0,.268-.065.2.2,0,0,0-.064-.273c-.048-.03-4.956-3.006-9.409,2.2a.2.2,0,0,0,.02.28A.19.19,0,0,0,368.879,121.932Z" fill="#fe9697"/>
        <path id="Trazado_719109" data-name="Trazado 719109" d="M370,123.067h.024a4.629,4.629,0,0,0,3.589-1.828,3.19,3.19,0,0,0,.3-2.512.2.2,0,0,0-.248-.124.2.2,0,0,0-.122.251,2.83,2.83,0,0,1-.265,2.178,4.28,4.28,0,0,1-3.3,1.641.2.2,0,0,0,.024.4Z" fill="#fe9697"/>
        <path id="Trazado_719110" data-name="Trazado 719110" d="M331.468,101.207a6.163,6.163,0,0,0-5.243,3.428,1,1,0,0,0,.5,1.306.97.97,0,0,0,1.283-.5,4.287,4.287,0,0,1,4.037-2.265.992.992,0,0,0,.016-1.983Q331.756,101.187,331.468,101.207Z" fill="#c15c30"/>
        <path id="Trazado_719111" data-name="Trazado 719111" d="M351.732,123.178c0,1.948,2.14,3.528,4.781,3.528s4.781-1.58,4.781-3.528-2.14-3.529-4.781-3.529S351.732,121.229,351.732,123.178Z" fill="#ffada2"/>
        <g id="Grupo_1005148" data-name="Grupo 1005148">
          <path id="Trazado_719112" data-name="Trazado 719112" d="M392.18,164.41l.074.066q-.014.374-.03.755C392.212,164.957,392.2,164.684,392.18,164.41Z" fill="#ddd"/>
        </g>
        <path id="Trazado_719113" data-name="Trazado 719113" d="M344.309,105.73c-.082.03-.16.062-.233.093a.992.992,0,0,0-.514,1.3.982.982,0,0,0,1.279.531,5.2,5.2,0,0,1,5.91,1.46.967.967,0,0,0,1.376.122,1,1,0,0,0,.112-1.4A7.115,7.115,0,0,0,344.309,105.73Z" fill="#c15c30"/>
        <path id="Trazado_719114" data-name="Trazado 719114" d="M339.83,127.281a.294.294,0,0,0,.283-.221.3.3,0,0,0-.207-.364c-1.407-.383-5.2-1.688-5.849-3.1a.828.828,0,0,1-.008-.728,52.355,52.355,0,0,0,4.094-14.391.3.3,0,0,0-.259-.328.291.291,0,0,0-.323.263,51.716,51.716,0,0,1-4.042,14.2,1.414,1.414,0,0,0,.008,1.231c.894,1.955,6.01,3.367,6.227,3.427A.289.289,0,0,0,339.83,127.281Z" fill="#fe9697"/>
        <path id="Trazado_719115" data-name="Trazado 719115" d="M360.542,211.338c-4,0-8.519-1.937-13.484-5.791a.349.349,0,1,1,.427-.551c6.346,4.925,11.889,6.64,16.488,5.094,6.772-2.278,9.182-11.006,9.206-11.094a.349.349,0,0,1,.674.18c-.1.374-2.526,9.173-9.655,11.574A11.388,11.388,0,0,1,360.542,211.338Z" fill="#bfe2ef" style="mix-blend-mode: multiply;isolation: isolate"/>
        <path id="Trazado_719116" data-name="Trazado 719116" d="M343.113,183.422s-3.824-16.962-4.043-30.208c5.735-1.311,10.958-2.237,10.958-2.237L360.1,150.4s3.278.758,7.871,2.193A52.686,52.686,0,0,1,343.113,183.422Z" fill="#ffcab3"/>
        <path id="Trazado_719117" data-name="Trazado 719117" d="M355.867,193.718l-9.976-7.637a.349.349,0,1,1,.423-.554l9.474,7.253c1.67-1.874,12.781-15.038,16.112-36.971a.349.349,0,1,1,.69.1c-3.622,23.848-16.379,37.445-16.507,37.579Z" fill="#bfe2ef" style="mix-blend-mode: multiply;isolation: isolate"/>
        <path id="Trazado_719118" data-name="Trazado 719118" d="M329.5,187.643l-.012-.463a140.424,140.424,0,0,1,3.553-31.4.344.344,0,0,1,.418-.261.35.35,0,0,1,.261.419,141.037,141.037,0,0,0-3.54,30.758l9.236-2.9a.349.349,0,0,1,.208.666Z" fill="#bfe2ef" style="mix-blend-mode: multiply;isolation: isolate"/>
        <path id="Trazado_719119" data-name="Trazado 719119" d="M375.29,155.126s-8.406,35.529-6.049,95.758l20.1-1.174-.365-4.842Z" fill="#bfe2ef" style="mix-blend-mode: multiply;isolation: isolate"/>
        <path id="Trazado_719120" data-name="Trazado 719120" d="M312.712,246.977l6.7-.719s6.75-64.424,12.184-91.132" fill="#bfe2ef" style="mix-blend-mode: multiply;isolation: isolate"/>
        <path id="Trazado_719121" data-name="Trazado 719121" d="M375.29,155.126s-5.812,28.721-4.359,93.4a250.4,250.4,0,0,0,25.544-1.571l-7.5-40.589s7.473-36.477,5.663-40.1C392.18,161.348,375.29,155.126,375.29,155.126Z" fill="#07518e"/>
        <path id="Trazado_719122" data-name="Trazado 719122" d="M320.957,161.795c-1.162,19.729-11.663,20.719-13.172,29.434a12.237,12.237,0,0,0,.27,5.353l6.1,5.245,7.232-42.532S322.371,160.419,320.957,161.795Z" fill="#bfe2ef" style="mix-blend-mode: multiply;isolation: isolate"/>
        <path id="Trazado_719123" data-name="Trazado 719123" d="M320.957,161.795c-1.162,19.729-11.663,20.719-13.172,29.434a12.237,12.237,0,0,0,.27,5.353l6.1,5.245,7.232-42.532S322.371,160.419,320.957,161.795Z" fill="#bfe2ef" style="mix-blend-mode: multiply;isolation: isolate"/>
        <path id="Trazado_719124" data-name="Trazado 719124" d="M331.6,155.126a797.917,797.917,0,0,0-14.2,89.735s-6.721.175-11.435-1.222c0,0,6.11-24.092,10.824-35.788,0,0-9.253-6.285-7.682-15.363s11-10.474,11.522-32.646C320.621,159.842,324.2,156.874,331.6,155.126Z" fill="#07518e"/>
        <path id="Trazado_719125" data-name="Trazado 719125" d="M346.84,116.623c0,1.088.625,1.969,1.4,1.969s1.4-.881,1.4-1.969-.625-1.968-1.4-1.968S346.84,115.536,346.84,116.623Z" fill="#1f1d30"/>
        <path id="Trazado_719126" data-name="Trazado 719126" d="M328.509,116.623c0,1.088.625,1.969,1.4,1.969s1.4-.881,1.4-1.969-.626-1.968-1.4-1.968S328.509,115.536,328.509,116.623Z" fill="#1f1d30"/>
        <path id="Trazado_719127" data-name="Trazado 719127" d="M339.415,129.444a28.2,28.2,0,0,0,7.4-.916S344.522,139.2,339.415,129.444Z" fill="#fff"/>
        <path id="Trazado_719128" data-name="Trazado 719128" d="M371.552,111.075s-2.888.307-4.825,4.985c0,0-5.255-5.448-8.222-17.756l4.035-4.888s-5.275,7.856-14.563,5.848-23.767-3.883-25.387,4.343c0,0-1.9-25.292,25.387-25.292S371.552,111.075,371.552,111.075Z" fill="#c15c30"/>
        <path id="Trazado_719129" data-name="Trazado 719129" d="M378.757,223.379c0,1.758-1.1,3.183-2.446,3.183s-2.446-1.425-2.446-3.183,1.1-3.183,2.446-3.183S378.757,221.621,378.757,223.379Z" fill="none" stroke="#a0e0f9" stroke-linecap="round" stroke-linejoin="round" stroke-width="0.75"/>
        <path id="Trazado_719130" data-name="Trazado 719130" d="M379.084,237.442c0,1.758-1.1,3.184-2.446,3.184s-2.446-1.426-2.446-3.184,1.1-3.183,2.446-3.183S379.084,235.684,379.084,237.442Z" fill="none" stroke="#a0e0f9" stroke-linecap="round" stroke-linejoin="round" stroke-width="0.75"/>
      </g>
      <g id="Grupo_1005150" data-name="Grupo 1005150">
        <path id="Trazado_719131" data-name="Trazado 719131" d="M342.133,267.41a96.56,96.56,0,0,0-33.206-72.973c-.085,8.015,7.854,13.414,7.854,13.414-4.714,11.7-10.824,35.788-10.824,35.788a34.154,34.154,0,0,0,7.134,1.112c-.131.768-.258,1.511-.378,2.224h0c-.966,5.717-1.574,9.537-1.574,9.537h.921q-.385,4.451-.756,9.256c-.042-.007-.08-.009-.123-.017a.235.235,0,0,0-.084.463c.059.011.113.014.171.024-1.692,22.072-3.128,49.223-4.3,75.807A96.59,96.59,0,0,0,342.133,267.41Z" fill="#c7f4ff" style="mix-blend-mode: multiply;isolation: isolate"/>
        <path id="Trazado_719132" data-name="Trazado 719132" d="M342.133,267.41a96.56,96.56,0,0,0-33.206-72.973c-.085,8.015,7.854,13.414,7.854,13.414-4.714,11.7-10.824,35.788-10.824,35.788a34.154,34.154,0,0,0,7.134,1.112c-.131.768-.258,1.511-.378,2.224h0c-.966,5.717-1.574,9.537-1.574,9.537h.921q-.385,4.451-.756,9.256c-.042-.007-.08-.009-.123-.017a.235.235,0,0,0-.084.463c.059.011.113.014.171.024-1.692,22.072-3.128,49.223-4.3,75.807A96.59,96.59,0,0,0,342.133,267.41Z" fill="#c7f4ff" style="mix-blend-mode: multiply;isolation: isolate"/>
        <circle id="Elipse_8521" data-name="Elipse 8521" cx="91.072" cy="91.072" r="91.072" transform="translate(154.272 167.338)" fill="#7df0ff"/>
        <path id="Trazado_719135" data-name="Trazado 719135" d="M336.416,258.41a90.948,90.948,0,0,0-37.889-73.932,40.041,40.041,0,0,0-9.263,25.226c0,20.792-8.259,16.318-22.9,13.675s-23.275-1.055-24.4,10.352,12.764-5.11,21.774,3.711-33.788,21.207-27.406,30.782,48.429,44.077,51.057,24.385-20.273-41.234-2.628-41.725,36.5,8.082,34.018,22.941-23.369,36.634-46.15,35.883c-18.491-.609,1.52,23.017,9.715,31.94A91.089,91.089,0,0,0,336.416,258.41Z" fill="#52ef91"/>
        <path id="Trazado_719136" data-name="Trazado 719136" d="M154.272,258.41a91.106,91.106,0,0,0,62.695,86.557,38.8,38.8,0,0,0-2.411-3.319c-20.647-25.875-12.013-57.843-18.019-63.166s-27.781,1.944-29.9-7.059,7-25.159,12.416-37.164,35.505-14.274,26.5-22.921c-5.786-5.552-14.327-15.478-19.7-21.876A90.866,90.866,0,0,0,154.272,258.41Z" fill="#52ef91"/>
        <path id="Trazado_719137" data-name="Trazado 719137" d="M256.55,329.567A82.591,82.591,0,0,1,230.816,168.5a91.076,91.076,0,1,0,104.7,102.741A82.623,82.623,0,0,1,256.55,329.567Z" fill="#c7f4ff" style="mix-blend-mode: multiply;isolation: isolate"/>
        <ellipse id="Elipse_8522" data-name="Elipse 8522" cx="30.126" cy="46.125" rx="30.126" ry="46.125" transform="matrix(0.579, -0.815, 0.815, 0.579, 217.578, 215.499)" fill="#c7f4ff" style="mix-blend-mode: soft-light;isolation: isolate"/>
        <ellipse id="Elipse_8523" data-name="Elipse 8523" cx="30.126" cy="46.125" rx="30.126" ry="46.125" transform="matrix(0.579, -0.815, 0.815, 0.579, 217.578, 215.499)" fill="#c7f4ff" style="mix-blend-mode: soft-light;isolation: isolate"/>
      </g>
    </g>
    <path id="Trazado_719041" data-name="Trazado 719041" d="M328.044,236.589s-5.438-5.074-8.127-5.331,4.714,7.519,4.714,7.519-15.286-2.089-16.794-.9S322.8,242.6,322.8,242.6s-13.756,2.4-14.835,4.025,15.128-.916,15.128-.916-9.757,3.777-11.435,6.41S325,248.482,325,248.482s-6.72,8.1-6.5,9.658S332.045,247.6,332.045,247.6A28.1,28.1,0,0,0,328.044,236.589Z" transform="translate(988.852 9176.616)" fill="#ffcab3"/>
    <path id="Trazado_719042" data-name="Trazado 719042" d="M388.979,206.367s6.156-30.05,5.939-38.305a17.239,17.239,0,0,0-3.934-1.8c-9.641,29.9-7.578,47.969-9.613,50.7-1.657,2.227-35.029,15.674-47.359,20.589a91.185,91.185,0,0,1,2.376,18.658c25.479-7.213,49.821-16.616,57.356-24.039Z" transform="translate(988.852 9176.616)" fill="#bfe2ef" style="mix-blend-mode: multiply;isolation: isolate"/>
    <path id="Trazado_719043" data-name="Trazado 719043" d="M388.979,206.367s6.156-30.05,5.939-38.305a17.239,17.239,0,0,0-3.934-1.8c-9.641,29.9-7.578,47.969-9.613,50.7-1.657,2.227-35.029,15.674-47.359,20.589a91.185,91.185,0,0,1,2.376,18.658c25.479-7.213,49.821-16.616,57.356-24.039Z" transform="translate(988.852 9176.616)" fill="#bfe2ef" style="mix-blend-mode: multiply;isolation: isolate"/>
    <path id="Trazado_719044" data-name="Trazado 719044" d="M387.877,160.9a20.744,20.744,0,0,1,10.546,7.98c4.451,6.365-.6,49.194-6.776,56.839s-32.091,17.745-59.1,25.341c0,0-1.033-10.562-6.169-17.071,0,0,49.853-19.651,51.888-22.386S378.236,190.8,387.877,160.9Z" transform="translate(988.852 9176.616)" fill="#175696"/>
  </g>
</svg>
