<svg xmlns="http://www.w3.org/2000/svg" width="367.5" height="289.503" viewBox="0 0 367.5 289.503">
  <g id="Grupo_1005285" data-name="Grupo 1005285" transform="translate(-180 -12686.497)">
    <rect id="Rectángulo_347076" data-name="Rectángulo 347076" width="190" height="289" transform="translate(180 12687)" fill="#4db1f0"/>
    <g id="Grupo_1005284" data-name="Grupo 1005284" transform="translate(144.171 12636.425)">
      <path id="Trazado_719138" data-name="Trazado 719138" d="M125.251,340.484s-61.48-15.172-55.509-66.413,20.89-52.8,21.415-67.338,3.784-65.708,38.005-71.9,37.564-10.755,49.092-24.117,63.349-26.4,88.77-1.629,38.458,50.842,54.1,56.057,26.4,36.334,18.577,56.788-2.39,34.089,6.845,55.979-5.215,64.531-40.74,66.16L270.283,345.7Z" transform="translate(-6.343 -8.525)" fill="#e3fbff"/>
      <g id="Grupo_1005178" data-name="Grupo 1005178" transform="translate(59.948 129.536)">
        <g id="Grupo_1005152" data-name="Grupo 1005152" transform="translate(283.084 145.23)">
          <path id="Trazado_719139" data-name="Trazado 719139" d="M427.62,347.219c-3.84,2.6-7,4.371-9.517,5.908l-3.332,18.44,6.652-3.856s.964-.556,2.5-1.6c10.1-6.895,14.7-14.06,14.7-14.06,2.777-4.256,7.687-11.785,5.193-19.379a14.871,14.871,0,0,0-3.257-5.433,81.19,81.19,0,0,1-6.129,12.973,19.368,19.368,0,0,1-4.6,5.472C429.427,346,428.823,346.4,427.62,347.219Z" transform="translate(-414.771 -327.236)" fill="#2cbf7b"/>
        </g>
        <g id="Grupo_1005153" data-name="Grupo 1005153" transform="translate(284.311 165.212)">
          <path id="Trazado_719140" data-name="Trazado 719140" d="M416.284,369.447a16.56,16.56,0,0,0,7.923,1.327,59.68,59.68,0,0,0,14.7-14.06c-1.809-.594-3.743-1.022-5.038-1.535a27.385,27.385,0,0,1-5.966-3.295c-3.84,2.6-7,4.371-9.517,5.908Z" transform="translate(-416.284 -351.885)" fill="#2da66d"/>
        </g>
        <g id="Grupo_1005154" data-name="Grupo 1005154" transform="translate(166.955 28.007)">
          <path id="Trazado_719141" data-name="Trazado 719141" d="M271.572,221.336c-.339,7.993,1.112,14.632,3.8,19.046l11.147,4.674a10.231,10.231,0,0,0,1.737-2.639c4.782-9.86,5.56-35.3,5.56-35.3a64.113,64.113,0,0,0-3.359-10.61,44.587,44.587,0,0,0-8.57-13.86c-.276-.285-7.372,15.588-9.791,32.948Q271.685,218.561,271.572,221.336Z" transform="translate(-271.523 -182.639)" fill="#2cbf7b"/>
        </g>
        <g id="Grupo_1005155" data-name="Grupo 1005155" transform="translate(166.955 28.013)">
          <path id="Trazado_719142" data-name="Trazado 719142" d="M280.773,215.656l-.017.029a12.6,12.6,0,0,1-3.162,3.894,10.978,10.978,0,0,1-6.023,1.758c-.339,7.993,1.112,14.632,3.8,19.046l9.163,3.843a20.439,20.439,0,0,0,3.721-1.807c4.782-9.86,5.56-35.3,5.56-35.3a64.113,64.113,0,0,0-3.359-10.61q-2.459,5.015-4.916,10.031l-.411.837c-.22-4.7-.986-16.935-3.242-24.725.028.251,1.694,14.871.849,26.67A14.49,14.49,0,0,1,280.773,215.656Z" transform="translate(-271.523 -182.647)" fill="#2da66d"/>
        </g>
        <g id="Grupo_1005157" data-name="Grupo 1005157" transform="translate(175.004 31.638)">
          <g id="Grupo_1005156" data-name="Grupo 1005156">
            <path id="Trazado_719143" data-name="Trazado 719143" d="M284.911,187.118l-.449.1c4.863,21.966,3.851,40.973-3.01,56.494l.421.186a74.773,74.773,0,0,0,6.014-28.1A117.213,117.213,0,0,0,284.911,187.118Z" transform="translate(-281.452 -187.118)" fill="#027369"/>
          </g>
        </g>
        <g id="Grupo_1005158" data-name="Grupo 1005158" transform="translate(180.548 35.343)">
          <path id="Trazado_719144" data-name="Trazado 719144" d="M289.429,230.865q-.2.779-.358,1.513a30.239,30.239,0,0,0-.78,6.654l7.928,5.66,22.047-14.956a40.369,40.369,0,0,0,1.214-5.559c.037-.24.075-.488.109-.741,1.008-7.134,1.262-19.244-5.406-30.567-.218-.369-.443-.739-.677-1.106v0c-.518-.82-10.155,5.024-20.327,28.469A70.918,70.918,0,0,0,289.429,230.865Z" transform="translate(-288.29 -191.689)" fill="#2cbf7b"/>
        </g>
        <g id="Grupo_1005159" data-name="Grupo 1005159" transform="translate(180.548 35.418)">
          <path id="Trazado_719145" data-name="Trazado 719145" d="M297.06,230.248q-3.612.468-7.221.619c-.137.006-.273.011-.41.015q-.2.779-.358,1.513a30.239,30.239,0,0,0-.78,6.654l7.928,5.66,22.047-14.956a40.368,40.368,0,0,0,1.214-5.559c.037-.24.075-.488.109-.741q-.98.6-2.017,1.138a47.091,47.091,0,0,1-9.608,3.516c-.272.071-.544.143-.817.21,1.362-5.021,6.177-23.409,7.037-35.431-.218-.369-.443-.739-.677-1.106-.033.189-3.752,21.041-9.556,33.455A8.849,8.849,0,0,1,297.06,230.248Z" transform="translate(-288.29 -191.781)" fill="#2da66d"/>
        </g>
        <g id="Grupo_1005161" data-name="Grupo 1005161" transform="translate(194.304 37.481)">
          <g id="Grupo_1005160" data-name="Grupo 1005160">
            <path id="Trazado_719146" data-name="Trazado 719146" d="M317.251,194.343l-.46-.017a112.444,112.444,0,0,1-11.532,45.424l.413.2a113.675,113.675,0,0,0,11.579-45.611Z" transform="translate(-305.259 -194.326)" fill="#027369"/>
          </g>
        </g>
        <g id="Grupo_1005162" data-name="Grupo 1005162" transform="translate(288.595 154.511)">
          <path id="Trazado_719147" data-name="Trazado 719147" d="M445.253,351.915c-6.81,2.765-11.132,9.282-14.821,15.972a107.738,107.738,0,0,0-7.3,15.888c-.011.032-.024.064-.033.1a37.842,37.842,0,0,0-1.53,5.831h24.242a73.809,73.809,0,0,0,5.6-6.513q.489-.64.964-1.291.822-1.126,1.6-2.283.511-.756,1-1.522c7.192-11.229,11.578-24.5,13.6-39.408A97.183,97.183,0,0,1,445.253,351.915Z" transform="translate(-421.569 -338.685)" fill="#2cbf7b"/>
        </g>
        <g id="Grupo_1005163" data-name="Grupo 1005163" transform="translate(294.708 156.301)">
          <path id="Trazado_719148" data-name="Trazado 719148" d="M433.081,383.918c-1.505,2.307-2.842,4.405-3.972,6.2h18.127c1.815-1.894,3.4-3.943,5.08-5.935.166-.2.341-.39.524-.578q.489-.64.964-1.291.822-1.126,1.6-2.283a26.912,26.912,0,0,1-8.323,2.075l-.088.007c-2.945.238-5.039-.773-4.791-3.957a15.889,15.889,0,0,1,2.557-6.592c2.416-4.012,5.688-7.725,8.588-11.4q3.906-4.948,7.975-9.765c2.709-3.214,5.447-6.406,8.279-9.512C458.164,347.342,442.432,369.581,433.081,383.918Z" transform="translate(-429.109 -340.893)" fill="#2da66d"/>
        </g>
        <g id="Grupo_1005165" data-name="Grupo 1005165" transform="translate(288.595 199.326)">
          <g id="Grupo_1005164" data-name="Grupo 1005164">
            <path id="Trazado_719149" data-name="Trazado 719149" d="M427.682,400.168c1.129-1.8,2.466-3.9,3.972-6.2a82.111,82.111,0,0,1-8.521.275c-.011.032-.024.064-.033.1a37.842,37.842,0,0,0-1.53,5.831Z" transform="translate(-421.569 -393.965)" fill="#2da66d"/>
          </g>
        </g>
        <g id="Grupo_1005167" data-name="Grupo 1005167" transform="translate(283.758 152.777)">
          <g id="Grupo_1005166" data-name="Grupo 1005166">
            <path id="Trazado_719150" data-name="Trazado 719150" d="M415.7,365.133l-.1.537c8.035-3.293,16.611-7.621,21.783-14.913,2.591-3.652,4.422-8.136,5.762-14.111l-.448-.1c-1.326,5.913-3.134,10.344-5.689,13.945C431.966,357.6,423.6,361.877,415.7,365.133Z" transform="translate(-415.602 -336.546)" fill="#027369"/>
          </g>
        </g>
        <g id="Grupo_1005169" data-name="Grupo 1005169" transform="translate(295.395 155.955)">
          <g id="Grupo_1005168" data-name="Grupo 1005168">
            <path id="Trazado_719151" data-name="Trazado 719151" d="M469.458,340.466c-12.76,11.238-33.978,38.394-39.5,49.574h.513c8.567-17.257,21.717-33.75,39.293-49.228Z" transform="translate(-429.956 -340.466)" fill="#027369"/>
          </g>
        </g>
        <g id="Grupo_1005170" data-name="Grupo 1005170" transform="translate(0 20.389)">
          <path id="Trazado_719152" data-name="Trazado 719152" d="M94.874,201.889c6.893,4.061,13.434,5.906,18.595,5.61l9.371-7.635a10.228,10.228,0,0,0-1.51-2.775c-6.449-8.86-28.534-21.521-28.534-21.521a64.088,64.088,0,0,0-10.942-2.031,44.606,44.606,0,0,0-16.262,1.038c-.382.109,10.284,13.841,24.463,24.146Q92.479,200.483,94.874,201.889Z" transform="translate(-65.581 -173.242)" fill="#2cbf7b"/>
        </g>
        <g id="Grupo_1005171" data-name="Grupo 1005171" transform="translate(0.012 20.684)">
          <path id="Trazado_719153" data-name="Trazado 719153" d="M94.195,191.166l.018.028a12.607,12.607,0,0,1,1.947,4.623,10.968,10.968,0,0,1-1.283,6.141c6.893,4.061,13.434,5.906,18.595,5.61l7.7-6.277a20.43,20.43,0,0,0,.156-4.133C114.883,188.3,92.8,175.637,92.8,175.637a64.088,64.088,0,0,0-10.942-2.031l6.536,9.058.546.757c-4.252-2.019-15.406-7.1-23.341-8.776.235.093,13.918,5.5,23.932,11.8A14.484,14.484,0,0,1,94.195,191.166Z" transform="translate(-65.596 -173.606)" fill="#2da66d"/>
        </g>
        <g id="Grupo_1005173" data-name="Grupo 1005173" transform="translate(3.624 22.421)">
          <g id="Grupo_1005172" data-name="Grupo 1005172">
            <path id="Trazado_719154" data-name="Trazado 719154" d="M70.174,175.749l-.123.443c21.67,6.047,37.964,15.886,48.429,29.245l.362-.284A74.768,74.768,0,0,0,96.876,186.62,117.211,117.211,0,0,0,70.174,175.749Z" transform="translate(-70.051 -175.749)" fill="#027369"/>
          </g>
        </g>
        <g id="Grupo_1005174" data-name="Grupo 1005174" transform="translate(19.642 0)">
          <path id="Trazado_719155" data-name="Trazado 719155" d="M113.268,187.852q.595.542,1.167,1.028a30.181,30.181,0,0,0,5.5,3.819l8.725-4.331-2.82-26.491a40.357,40.357,0,0,0-4.332-3.687q-.292-.219-.6-.446c-5.821-4.247-16.386-10.17-29.514-9.616q-.643.028-1.295.076h0c-.967.071-.346,11.324,15.551,31.334A71.074,71.074,0,0,0,113.268,187.852Z" transform="translate(-89.809 -148.092)" fill="#2cbf7b"/>
        </g>
        <g id="Grupo_1005175" data-name="Grupo 1005175" transform="translate(19.932 0.036)">
          <path id="Trazado_719156" data-name="Trazado 719156" d="M116.368,180.829q-1.287,3.406-2.852,6.662-.089.185-.18.37.595.542,1.167,1.028a30.18,30.18,0,0,0,5.5,3.819l8.725-4.331-2.82-26.491a40.358,40.358,0,0,0-4.332-3.687q-.292-.219-.6-.446.069,1.148.054,2.316a47.041,47.041,0,0,1-1.42,10.132c-.065.273-.131.547-.2.82-3.789-3.565-17.747-16.467-27.949-22.884q-.643.028-1.295.076c.151.119,16.8,13.214,25.021,24.178A8.851,8.851,0,0,1,116.368,180.829Z" transform="translate(-90.167 -148.137)" fill="#2da66d"/>
        </g>
        <g id="Grupo_1005177" data-name="Grupo 1005177" transform="translate(21.787 0.622)">
          <g id="Grupo_1005176" data-name="Grupo 1005176">
            <path id="Trazado_719157" data-name="Trazado 719157" d="M92.686,148.86l-.231.4a112.44,112.44,0,0,1,34.65,31.554l.375-.268A113.655,113.655,0,0,0,92.686,148.86Z" transform="translate(-92.455 -148.86)" fill="#027369"/>
          </g>
        </g>
      </g>
      <g id="Grupo_1005180" data-name="Grupo 1005180" transform="translate(156.206 151.63)">
        <path id="Trazado_719158" data-name="Trazado 719158" d="M184.317,362.389v5.556A26.034,26.034,0,0,0,210.3,393.91h78.066V362.389Z" transform="translate(-184.317 -210.755)" fill="#cc293d" fill-rule="evenodd"/>
        <path id="Trazado_719159" data-name="Trazado 719159" d="M312.66,393.91h78.1a26.028,26.028,0,0,0,25.954-25.965v-5.556H312.66Z" transform="translate(-208.614 -210.755)" fill="#cc293d" fill-rule="evenodd"/>
        <path id="Trazado_719160" data-name="Trazado 719160" d="M288.363,221.1H253.6v-.059H239.676v.059H210.3c-14.309,0-25.98,9.883-25.98,24.167v9.213H288.363Z" transform="translate(-184.317 -183.997)" fill="#cc293d" fill-rule="evenodd"/>
        <path id="Trazado_719161" data-name="Trazado 719161" d="M390.755,221.114h-78.1v33.379H416.709v-9.213C416.709,231,405.039,221.115,390.755,221.114Z" transform="translate(-208.614 -184.01)" fill="#cc293d" fill-rule="evenodd"/>
        <path id="Trazado_719162" data-name="Trazado 719162" d="M288.363,329.1h-8.354V312.378H263.3V291.491h16.712V274.785h8.354v-12.5H184.317v81.151H288.363Z" transform="translate(-184.317 -191.805)" fill="#fd5b68" fill-rule="evenodd"/>
        <path id="Trazado_719163" data-name="Trazado 719163" d="M312.66,274.785h8.358v16.706H337.73v20.888H321.011V329.1H312.66v14.342H416.71V262.288H312.66Z" transform="translate(-208.614 -191.805)" fill="#fd5b68" fill-rule="evenodd"/>
        <g id="Grupo_1005179" data-name="Grupo 1005179" transform="translate(78.98 82.98)">
          <path id="Trazado_719164" data-name="Trazado 719164" d="M298.453,294.409H281.741V315.3h16.712v16.718h8.354V277.7h-8.354Z" transform="translate(-281.741 -277.703)" fill="#cc293d" fill-rule="evenodd"/>
          <path id="Trazado_719165" data-name="Trazado 719165" d="M321.011,332.015V315.3H337.73V294.409H321.018V277.7H312.66v54.312Z" transform="translate(-287.594 -277.703)" fill="#cc293d" fill-rule="evenodd"/>
        </g>
        <path id="Trazado_719166" data-name="Trazado 719166" d="M275.384,216.732a3.13,3.13,0,0,1-3.128,3.132H259.984a3.128,3.128,0,1,1,0-6.255h12.272A3.128,3.128,0,0,1,275.384,216.732Z" transform="translate(-198.049 -182.589)" fill="#d2f3f7" fill-rule="evenodd"/>
        <path id="Trazado_719167" data-name="Trazado 719167" d="M363.919,216.732a3.131,3.131,0,0,1-3.124,3.132H348.52a3.128,3.128,0,1,1,0-6.255H360.8A3.128,3.128,0,0,1,363.919,216.732Z" transform="translate(-214.81 -182.589)" fill="#d2f3f7" fill-rule="evenodd"/>
        <rect id="Rectángulo_347574" data-name="Rectángulo 347574" width="6.402" height="13.982" transform="translate(64.87 19.054)" fill="#d2f3f7"/>
        <rect id="Rectángulo_347575" data-name="Rectángulo 347575" width="6.399" height="13.982" transform="translate(136.644 19.054)" fill="#d2f3f7"/>
        <path id="Trazado_719168" data-name="Trazado 719168" d="M261.645,195.726s3.861-20.38,41.81-20.38,42.566,20.38,42.566,20.38H332.509s-1.9-12.2-28.674-12.2-28.678,12.2-28.678,12.2Z" transform="translate(-198.956 -175.346)" fill="#d2f3f7" fill-rule="evenodd"/>
        <path id="Trazado_719169" data-name="Trazado 719169" d="M486.272,354.191l2.331-.319-2.334.319Z" transform="translate(-241.48 -209.143)" fill-rule="evenodd"/>
      </g>
      <g id="Grupo_1005191" data-name="Grupo 1005191" transform="translate(91.124 124.209)">
        <path id="Trazado_719170" data-name="Trazado 719170" d="M244.622,164.208V361.182H104.036V164.208H244.622Z" transform="translate(-104.036 -145.816)" fill="#a5c8e4"/>
        <rect id="Rectángulo_347576" data-name="Rectángulo 347576" width="127.674" height="182.995" transform="translate(6.065 25.278)" fill="#fff"/>
        <g id="Grupo_1005181" data-name="Grupo 1005181" transform="translate(43.826 0)">
          <path id="Trazado_719171" data-name="Trazado 719171" d="M190.009,141.521h0a7.465,7.465,0,0,0-7.464,7.465v20.592h14.929V148.986A7.465,7.465,0,0,0,190.009,141.521Zm0,10.3a3.689,3.689,0,1,1,3.689-3.689A3.69,3.69,0,0,1,190.009,151.818Z" transform="translate(-162.725 -141.521)" fill="#293f60"/>
          <path id="Trazado_719172" data-name="Trazado 719172" d="M211.875,162.245v9.53a2.5,2.5,0,0,1-2.581,2.4H160.678a2.5,2.5,0,0,1-2.581-2.4v-9.53a2.5,2.5,0,0,1,2.581-2.4h48.615A2.5,2.5,0,0,1,211.875,162.245Z" transform="translate(-158.097 -144.989)" fill="#293f60"/>
        </g>
        <g id="Grupo_1005190" data-name="Grupo 1005190" transform="translate(36.03 96.903)">
          <g id="Grupo_1005182" data-name="Grupo 1005182">
            <rect id="Rectángulo_347577" data-name="Rectángulo 347577" width="67.263" height="1.929" fill="#d1eaf3"/>
            <rect id="Rectángulo_347578" data-name="Rectángulo 347578" width="67.263" height="1.929" transform="translate(0 6.173)" fill="#d1eaf3"/>
            <rect id="Rectángulo_347579" data-name="Rectángulo 347579" width="67.263" height="1.929" transform="translate(0 12.346)" fill="#d1eaf3"/>
          </g>
          <g id="Grupo_1005183" data-name="Grupo 1005183" transform="translate(0 25.421)">
            <rect id="Rectángulo_347580" data-name="Rectángulo 347580" width="67.263" height="1.929" fill="#d1eaf3"/>
            <rect id="Rectángulo_347581" data-name="Rectángulo 347581" width="67.263" height="1.929" transform="translate(0 6.173)" fill="#d1eaf3"/>
            <rect id="Rectángulo_347582" data-name="Rectángulo 347582" width="67.263" height="1.929" transform="translate(0 12.346)" fill="#d1eaf3"/>
          </g>
          <g id="Grupo_1005184" data-name="Grupo 1005184" transform="translate(0 51.542)">
            <rect id="Rectángulo_347583" data-name="Rectángulo 347583" width="67.263" height="1.929" fill="#d1eaf3"/>
            <rect id="Rectángulo_347584" data-name="Rectángulo 347584" width="67.263" height="1.929" transform="translate(0 6.173)" fill="#d1eaf3"/>
            <rect id="Rectángulo_347585" data-name="Rectángulo 347585" width="67.263" height="1.929" transform="translate(0 12.346)" fill="#d1eaf3"/>
          </g>
          <g id="Grupo_1005185" data-name="Grupo 1005185" transform="translate(53.136 69.403)">
            <path id="Trazado_719173" data-name="Trazado 719173" d="M230.767,368.7a11.617,11.617,0,1,1,5.3-15.551A11.631,11.631,0,0,1,230.767,368.7Zm-9.877-20.09a10.769,10.769,0,1,0,14.416,4.913A10.781,10.781,0,0,0,220.89,348.615Z" transform="translate(-214.025 -346.663)" fill="#d1eaf3"/>
          </g>
          <g id="Grupo_1005186" data-name="Grupo 1005186" transform="translate(55.629 71.896)">
            <path id="Trazado_719174" data-name="Trazado 719174" d="M230.249,367.05a9.124,9.124,0,1,1,4.163-12.213A9.134,9.134,0,0,1,230.249,367.05Zm-7.676-15.615a8.276,8.276,0,1,0,11.078,3.775A8.286,8.286,0,0,0,222.572,351.435Z" transform="translate(-217.1 -349.738)" fill="#d1eaf3"/>
          </g>
          <g id="Grupo_1005187" data-name="Grupo 1005187" transform="translate(59.761 78.216)">
            <path id="Trazado_719175" data-name="Trazado 719175" d="M232.148,358.418l-9.28,4.562a.466.466,0,0,1-.411-.836l9.28-4.563a.466.466,0,0,1,.411.837Z" transform="translate(-222.197 -357.534)" fill="#d1eaf3"/>
          </g>
          <g id="Grupo_1005188" data-name="Grupo 1005188" transform="translate(59.702 76.824)">
            <path id="Trazado_719176" data-name="Trazado 719176" d="M230.421,356.621l-7.686,3.779a.424.424,0,0,1-.375-.761l7.686-3.779a.424.424,0,0,1,.375.761Z" transform="translate(-222.124 -355.816)" fill="#d1eaf3"/>
          </g>
          <g id="Grupo_1005189" data-name="Grupo 1005189" transform="translate(62.177 80.716)">
            <path id="Trazado_719177" data-name="Trazado 719177" d="M231.988,361.344l-6.259,3.078a.383.383,0,0,1-.338-.687l6.26-3.077a.383.383,0,1,1,.337.687Z" transform="translate(-225.177 -360.618)" fill="#d1eaf3"/>
          </g>
        </g>
      </g>
      <g id="Grupo_1005193" data-name="Grupo 1005193" transform="translate(56.708 207.79)">
        <g id="Grupo_1005192" data-name="Grupo 1005192">
          <path id="Trazado_719178" data-name="Trazado 719178" d="M81.207,252.828a8.253,8.253,0,0,0-3.334,6.353c-.391,11.416-1.921,31.546-7.72,38.065a1.3,1.3,0,0,0,.106,1.838,1.292,1.292,0,0,0,1.84-.1c6.023-6.774,7.881-25.332,8.377-39.71A5.654,5.654,0,0,1,87.58,254a1.282,1.282,0,0,0,.726-.025l.448-1.763a2.007,2.007,0,0,1,.122-.348,1.271,1.271,0,0,0-.627-.381A8.228,8.228,0,0,0,81.207,252.828Z" transform="translate(-63.143 -245.866)" fill="#a5c8e4"/>
          <path id="Trazado_719179" data-name="Trazado 719179" d="M92.57,250.72a1.917,1.917,0,0,0-2.206,1.04,2.007,2.007,0,0,0-.122.348l-.448,1.763L77.678,301.744l0,0,10.363,2.624,12.565-49.639A1.918,1.918,0,0,0,99.22,252.4l-1.094-.276L93.663,251Z" transform="translate(-64.63 -245.764)" fill="#72a2ba"/>
          <path id="Trazado_719180" data-name="Trazado 719180" d="M98.722,244.62,97.4,249.853l4.464,1.132,0,0,1.323-5.235Z" transform="translate(-68.363 -244.62)" fill="#a5c8e4"/>
          <path id="Trazado_719181" data-name="Trazado 719181" d="M77.375,313.673l-1.3,5.131,0,0,10.362,2.626,1.3-5.133-10.363-2.624Z" transform="translate(-64.327 -257.693)" fill="#a5c8e4"/>
          <path id="Trazado_719182" data-name="Trazado 719182" d="M73.338,320l0,0L63.177,360.137a51.894,51.894,0,0,0-1.586,12.707v1.015a8.33,8.33,0,0,1,6.788,1.773l.511-.94a51.709,51.709,0,0,0,4.65-11.932L83.7,322.63Z" transform="translate(-61.585 -258.891)" fill="#72a2ba"/>
          <path id="Trazado_719183" data-name="Trazado 719183" d="M61.589,386.413,61.583,397.8a.75.75,0,0,0,1.411.357l4.976-9.207.408-.76A8.33,8.33,0,0,0,61.589,386.413Z" transform="translate(-61.583 -271.445)" fill="#a5c8e4"/>
        </g>
      </g>
      <g id="Grupo_1005196" data-name="Grupo 1005196" transform="translate(141.336 166.61)">
        <g id="Grupo_1005195" data-name="Grupo 1005195">
          <path id="Trazado_719184" data-name="Trazado 719184" d="M196.4,193.9a54.482,54.482,0,0,1-27.515,0,2.327,2.327,0,0,0-2.908,2.252v25.5a9.487,9.487,0,0,0,.707,3.629c2.108,5.1,7.205,10.327,15.157,14.827,8.039-4.2,12.937-8.514,16.247-14.467a9.621,9.621,0,0,0,1.2-4.675V196.156A2.324,2.324,0,0,0,196.4,193.9Z" transform="translate(-165.974 -193.825)" fill="#72a2ba"/>
          <path id="Trazado_719185" data-name="Trazado 719185" d="M194.731,198.68a45.3,45.3,0,0,1-22.875,0,1.935,1.935,0,0,0-2.418,1.873v21.2a7.889,7.889,0,0,0,.588,3.018c1.753,4.237,5.774,8.435,12.386,12.177,6.683-3.488,10.973-6.928,13.724-11.877a8,8,0,0,0,1-3.887V200.556A1.933,1.933,0,0,0,194.731,198.68Z" transform="translate(-166.63 -194.732)" fill="#b2dcf7"/>
          <g id="Grupo_1005194" data-name="Grupo 1005194" transform="translate(4.97 3.887)">
            <path id="Trazado_719186" data-name="Trazado 719186" d="M172.294,198.675c-.063-.014-.126-.027-.189-.034Z" transform="translate(-172.105 -198.623)" fill="#fff"/>
            <path id="Trazado_719187" data-name="Trazado 719187" d="M197.164,198.68c-.542.139-1.082.266-1.622.384a1.942,1.942,0,0,1,.116.663v20.634a8.007,8.007,0,0,1-1,3.887c-2.561,4.606-6.456,7.9-12.369,11.151.806.526,1.655,1.046,2.556,1.556,6.683-3.488,10.973-6.928,13.724-11.877a8,8,0,0,0,1-3.887V200.556A1.933,1.933,0,0,0,197.164,198.68Z" transform="translate(-174.033 -198.619)" fill="#e5e5e4" style="mix-blend-mode: multiply;isolation: isolate"/>
          </g>
        </g>
        <path id="Trazado_719188" data-name="Trazado 719188" d="M194.486,215.488h-9.68v-9.68a1.019,1.019,0,0,0-2.039,0v9.68h-9.68a1.019,1.019,0,1,0,0,2.039h9.68v9.68a1.019,1.019,0,1,0,2.039,0v-9.68h9.68a1.019,1.019,0,0,0,0-2.039Z" transform="translate(-167.127 -195.9)" fill="#72a2ba"/>
        <path id="Trazado_719189" data-name="Trazado 719189" d="M172.495,202.873c-1.31,1.31-1.767,2.976-1.021,3.723s2.413.289,3.722-1.021,1.767-2.976,1.021-3.722S173.8,201.563,172.495,202.873Z" transform="translate(-166.947 -195.276)" fill="#cbcbcb" style="mix-blend-mode: overlay;isolation: isolate"/>
      </g>
      <g id="Grupo_1005197" data-name="Grupo 1005197" transform="translate(37.27 83.191)">
        <path id="Trazado_719190" data-name="Trazado 719190" d="M37.606,228.967h9.241v-9.241H57.76v9.241H67V239.88H57.76v9.241H46.847V239.88H37.606Z" transform="translate(-37.606 -115.309)" fill="#e3fbff"/>
        <path id="Trazado_719191" data-name="Trazado 719191" d="M365.562,99.031h8.106V90.925h9.573v8.106h8.106V108.6h-8.106v8.106h-9.573V108.6h-8.106Z" transform="translate(-99.692 -90.925)" fill="#e3fbff"/>
        <path id="Trazado_719192" data-name="Trazado 719192" d="M61.108,201.528h6.58v-6.58h7.77v6.58h6.58V209.3h-6.58v6.58h-7.77V209.3h-6.58Z" transform="translate(-42.055 -110.618)" fill="#e3fbff"/>
        <path id="Trazado_719193" data-name="Trazado 719193" d="M205.348,131.526h6.336V125.19h7.482v6.336H225.5v7.482h-6.336v6.336h-7.482v-6.336h-6.336Z" transform="translate(-69.362 -97.412)" fill="#fff"/>
      </g>
      <g id="Grupo_1005200" data-name="Grupo 1005200" transform="translate(181.973 50.072)">
        <path id="Trazado_719194" data-name="Trazado 719194" d="M231.412,75.942l.321.981.645,1.985s-.011,0-.015.006c-.56.185-1.309.457-2.172.8-3.579,1.455-9.032,4.226-10.575,7.409a3.379,3.379,0,0,0-.176,2.773c2.216,5.968,30.877,38.138,41.737,50.033l-.778.709-1.524,1.393c-4.037-4.424-39.53-43.426-42.356-51.052a6.435,6.435,0,0,1,.291-5.211c1.949-4.023,7.727-7.027,11.407-8.6.86-.366,1.605-.661,2.156-.865C230.959,76.1,231.335,75.969,231.412,75.942Z" transform="translate(-216.101 -54.969)" fill="#b2dcf7"/>
        <path id="Trazado_719195" data-name="Trazado 719195" d="M390,144.028a12.169,12.169,0,0,0-3.113-2.655l-1.492,2.789a9.669,9.669,0,0,1,2.473,2.263,15.273,15.273,0,0,1,1.519,2.247c2.717,4.884,4.838,14.391-1.251,31.59-3.383,9.549-8.3,8.11-9.919,7.636a13.292,13.292,0,0,1-3.091-1.416,33.71,33.71,0,0,0-.106-13.616c-2.013-9.316-7.491-15.851-14.3-17.059a5.6,5.6,0,0,0-2.634.1,3.978,3.978,0,0,0-2.74,3.106c-1.425,6.071,6.756,21.813,16.2,28.868a18.712,18.712,0,0,1-7.193,10.486,9.3,9.3,0,0,1-8.065,1.515c-5.856-1.573-11.115-8.147-14.47-13.336a65.5,65.5,0,0,1-3.813-6.67l-2.86,1.357a67.251,67.251,0,0,0,4.227,7.381c2.852,4.338,6.97,9.527,11.826,12.455l0,0a16.831,16.831,0,0,0,4.26,1.864,12.434,12.434,0,0,0,10.676-1.963,21.557,21.557,0,0,0,8.154-11.317c.5.27,1,.515,1.5.726a14.354,14.354,0,0,0,1.537.55,9.4,9.4,0,0,0,7.426-.71,9.62,9.62,0,0,0,1.137-.764c1.921-1.491,3.77-4.016,5.222-8.136,6.691-18.89,4-29.4.681-34.843-.285-.469-.576-.9-.867-1.287C390.613,144.762,390.3,144.377,390,144.028Zm-31.58,15.708a1.112,1.112,0,0,1,.345-.683,1.761,1.761,0,0,1,1.4-.13c5.513.977,10.024,6.58,11.757,14.612a30.883,30.883,0,0,1,.372,10.871C364.5,177.786,357.313,164.447,358.419,159.736Z" transform="translate(-238.637 -67.356)" fill="#b2dcf7"/>
        <path id="Trazado_719196" data-name="Trazado 719196" d="M338.908,188.817a5.836,5.836,0,0,1-2.611,4.113,5.6,5.6,0,0,1-3.635.733l-17.607-22.694,6.246-4.846Z" transform="translate(-234.834 -72.042)" fill="#72a2ba"/>
        <g id="Grupo_1005198" data-name="Grupo 1005198" transform="translate(24.539)">
          <path id="Trazado_719197" data-name="Trazado 719197" d="M306.68,104.95l-2.608,1.707c-8.82-13.473-32.857-49.232-38.089-52.86a3.381,3.381,0,0,0-2.727-.519c-4.3.869-9.495,7.743-11.132,10.318l-2.631-1.672c.268-.424,6.672-10.4,13.146-11.7a6.432,6.432,0,0,1,5.12,1.012C274.443,55.87,303.4,99.94,306.68,104.95Z" transform="translate(-246.961 -50.072)" fill="#b2dcf7"/>
          <path id="Trazado_719198" data-name="Trazado 719198" d="M308.442,104.952l-1.017.664c-3.537-5.39-32.221-49.025-38.872-53.63a6.432,6.432,0,0,0-5.12-1.013,12.109,12.109,0,0,0-4.634,2.24,13.446,13.446,0,0,1,5.6-2.992,6.445,6.445,0,0,1,5.12,1.013C276.2,55.87,305.165,99.939,308.442,104.952Z" transform="translate(-248.723 -50.072)" fill="#72a2ba"/>
          <path id="Trazado_719199" data-name="Trazado 719199" d="M249.265,62.656l2.307,1.465c-.253.361-.469.686-.644.96l-2.633-1.673c.208-.318,3.918-6.1,8.516-9.461A42.3,42.3,0,0,0,249.265,62.656Z" transform="translate(-246.734 -50.805)" fill="#72a2ba"/>
          <path id="Trazado_719200" data-name="Trazado 719200" d="M253.343,67.742h0a2.258,2.258,0,0,1-3.158-.4l-3.344-4.31a2.258,2.258,0,0,1,.4-3.159h0a2.259,2.259,0,0,1,3.159.4l3.344,4.31A2.258,2.258,0,0,1,253.343,67.742Z" transform="translate(-246.37 -51.838)" fill="#72a2ba"/>
          <path id="Trazado_719201" data-name="Trazado 719201" d="M250.515,60.271l3.345,4.31a2.258,2.258,0,0,1-.4,3.157,2.08,2.08,0,0,1-.445.266,2.255,2.255,0,0,0,.031-2.792L249.7,60.9a2.262,2.262,0,0,0-1.5-.852,2.214,2.214,0,0,0-1.216.187,2.148,2.148,0,0,1,.368-.365,2.253,2.253,0,0,1,3.157.4Z" transform="translate(-246.487 -51.838)" fill="#72a2ba"/>
        </g>
        <g id="Grupo_1005199" data-name="Grupo 1005199" transform="translate(2.195 22.194)">
          <path id="Trazado_719202" data-name="Trazado 719202" d="M232.323,77.449l.567,1.744s-.011,0-.015.006c-.56.185-1.309.457-2.172.8-3.579,1.455-9.032,4.226-10.575,7.409a3.379,3.379,0,0,0-.176,2.773c2.216,5.968,30.877,38.138,41.737,50.033l-.778.709c-2.379-2.751-40.089-46.392-41.579-49.624a5.831,5.831,0,0,1-.521-2.527A5.6,5.6,0,0,1,220,85.81c3.013-4.133,8.1-5.161,9.752-7.031a3.82,3.82,0,0,1,1.748-1.192A3.262,3.262,0,0,1,232.323,77.449Z" transform="translate(-218.808 -77.449)" fill="#72a2ba"/>
        </g>
        <path id="Trazado_719203" data-name="Trazado 719203" d="M300.446,113.867l8.807,11.351A20.95,20.95,0,0,1,276.147,150.9l-8.806-11.351-6.248,4.848,8.807,11.351a28.734,28.734,0,0,0,7.719,6.914l.032.015a.561.561,0,0,0,.113.07c.265.163.527.315.8.468,0,0,.011,0,.014.009.311.173.627.342.944.5s.616.311.924.454a.219.219,0,0,1,.049.02c.276.128.557.252.839.369.449.2.907.382,1.371.547.205.078.414.152.62.223.124.041.242.083.362.12.267.089.534.171.806.25l.121.037c.257.077.515.147.777.213.34.091.679.17,1.021.247.184.041.367.084.556.114.252.054.5.1.752.147.333.057.664.11,1,.156l.023,0c.341.051.685.087,1.025.126a.459.459,0,0,1,.07.006c.343.036.68.063,1.022.081s.717.042,1.072.049c.324.011.645.019.969.011.833,0,1.668-.045,2.5-.122.21-.018.413-.037.615-.063l.369-.042.38-.052c.894-.128,1.785-.293,2.66-.505l.366-.087c.229-.06.46-.12.686-.184.18-.048.35-.1.527-.152a28.4,28.4,0,0,0,3.6-1.348c.161-.072.331-.151.492-.23q1.021-.477,2-1.055l0,0q1.126-.647,2.2-1.407c.166-.116.33-.236.493-.357.2-.145.4-.294.593-.447a28.844,28.844,0,0,0,5.111-40.483l-8.806-11.35Z" transform="translate(-224.618 -61.232)" fill="#72a2ba"/>
        <path id="Trazado_719204" data-name="Trazado 719204" d="M309.99,109.462l7.746,9.984a28.856,28.856,0,0,1-36.22,43.232.562.562,0,0,0,.113.07c.265.163.527.315.8.468,0,0,.011,0,.014.009.311.173.627.342.944.5s.616.311.924.454a.22.22,0,0,1,.049.02c.276.128.557.252.839.369.449.2.907.382,1.371.547.205.078.414.152.62.223.124.041.242.083.362.12.267.089.534.171.806.25l.121.037c.257.077.515.147.777.213.34.091.679.17,1.021.247.184.041.367.084.556.114.252.054.5.1.751.147.333.057.664.11,1,.156l.023,0c.338.047.681.09,1.025.126a.459.459,0,0,1,.07.006c.343.036.68.063,1.022.081s.717.042,1.072.049c.324.011.645.019.969.011.833,0,1.668-.045,2.5-.122.21-.018.413-.037.615-.063l.369-.042.38-.052c.894-.128,1.785-.293,2.66-.505l.366-.087c.229-.06.46-.12.686-.184.18-.048.35-.1.527-.152a28.406,28.406,0,0,0,3.6-1.348c.161-.072.331-.151.492-.23q1.021-.477,2-1.055l0,0q1.126-.647,2.2-1.407c.166-.116.33-.236.493-.357.2-.145.4-.294.593-.447a28.844,28.844,0,0,0,5.111-40.483l-8.806-11.35Z" transform="translate(-228.485 -61.232)" fill="#72a2ba"/>
        <path id="Trazado_719205" data-name="Trazado 719205" d="M233.89,73.079l3.344,4.31a2.19,2.19,0,0,1,.415.908,2.245,2.245,0,0,1-.8,2.239l-.013.01a2.257,2.257,0,0,1-3.156-.4l-3.345-4.31a2.247,2.247,0,0,1,3.214-3.1A2.129,2.129,0,0,1,233.89,73.079Z" transform="translate(-218.707 -54.263)" fill="#72a2ba"/>
        <path id="Trazado_719206" data-name="Trazado 719206" d="M234.452,73.081l3.344,4.31a2.19,2.19,0,0,1,.415.908,2.245,2.245,0,0,1-.8,2.239l-.013.01a2.25,2.25,0,0,1-2.8-.039,2.239,2.239,0,0,0,1.536-.461l.012-.01a2.244,2.244,0,0,0,.8-2.239,2.189,2.189,0,0,0-.414-.908l-3.345-4.31a2.1,2.1,0,0,0-.341-.347s-.014-.009-.016-.013a2.207,2.207,0,0,1,1.279.513A2.13,2.13,0,0,1,234.452,73.081Z" transform="translate(-219.268 -54.265)" fill="#72a2ba"/>
        <path id="Trazado_719207" data-name="Trazado 719207" d="M378.768,176.212a33.711,33.711,0,0,1,.106,13.616,9.985,9.985,0,0,1,.664,3.9c-.5-.211-1-.456-1.5-.726a21.557,21.557,0,0,1-8.154,11.317,12.434,12.434,0,0,1-10.676,1.963,16.83,16.83,0,0,1-4.26-1.864c6.575,1.8,15.587,2.019,20.029-7.877,7.471-16.647.4-26.613-3.891-32.987-2.088-3.107-5.9-4.1-9.256-4.3a5.6,5.6,0,0,1,2.634-.1C371.277,160.36,376.755,166.9,378.768,176.212Z" transform="translate(-242.387 -70.701)" fill="#72a2ba"/>
        <path id="Trazado_719208" data-name="Trazado 719208" d="M402.509,146.081c.292.392.582.818.867,1.287,3.323,5.445,6.01,15.953-.681,34.843-1.453,4.12-3.3,6.645-5.222,8.136a9.62,9.62,0,0,1-1.137.764,48.19,48.19,0,0,0,2.646-4.092c11.182-19.315,4.688-38.4,4.239-39.419C402.885,146.836,402.509,146.081,402.509,146.081Z" transform="translate(-250.222 -68.248)" fill="#72a2ba"/>
        <path id="Trazado_719209" data-name="Trazado 719209" d="M401.9,137.672a6.566,6.566,0,0,1,.3,7.623,2.622,2.622,0,0,1-.156.232,6.522,6.522,0,0,1-1.312,1.36,5.99,5.99,0,0,1-.94.6,6.568,6.568,0,0,1-7.115-10.986,6.484,6.484,0,0,1,2.525-1.2A6.559,6.559,0,0,1,401.9,137.672Z" transform="translate(-249.048 -66.174)" fill="#72a2ba"/>
        <path id="Trazado_719210" data-name="Trazado 719210" d="M402.991,137.68a6.566,6.566,0,0,1,.3,7.623,2.624,2.624,0,0,1-.156.232,6.521,6.521,0,0,1-1.312,1.36,5.99,5.99,0,0,1-.94.6,6.554,6.554,0,0,1-4.98.5,6.548,6.548,0,0,0,3.749-.745,5.947,5.947,0,0,0,.939-.6,6.505,6.505,0,0,0,1.312-1.36,2.624,2.624,0,0,0,.156-.232,6.567,6.567,0,0,0-.3-7.623,6.5,6.5,0,0,0-3.292-2.259A6.531,6.531,0,0,1,402.991,137.68Z" transform="translate(-250.141 -66.183)" fill="#72a2ba"/>
        <circle id="Elipse_8524" data-name="Elipse 8524" cx="3.881" cy="3.881" r="3.881" transform="matrix(0.125, -0.992, 0.992, 0.125, 143.322, 78.888)" fill="#b2dcf7"/>
      </g>
      <g id="Grupo_1005264" data-name="Grupo 1005264" transform="translate(192.757 161.735)">
        <g id="Grupo_1005259" data-name="Grupo 1005259" transform="translate(0 10.897)">
          <g id="Grupo_1005211" data-name="Grupo 1005211" transform="translate(62.943)">
            <g id="Grupo_1005202" data-name="Grupo 1005202" transform="translate(6.168 13.525)">
              <g id="Grupo_1005201" data-name="Grupo 1005201">
                <path id="Trazado_719211" data-name="Trazado 719211" d="M322.054,227.013a6.585,6.585,0,0,1-.142,1.3c-.445,2.084-1.875,3.6-3.555,3.586h-.113c-2.013-.022-3.621-2.245-3.592-4.966l.084-7.905,6.867-1.093Z" transform="translate(-314.652 -217.936)" fill="#f4b3b3"/>
              </g>
            </g>
            <path id="Trazado_719212" data-name="Trazado 719212" d="M318.244,206.7a6.25,6.25,0,0,0-3.432,2.547c-1.328,2.032-2.34,8.046,1.844,10.841s7.569-1.176,7.7-5.048S323.808,206.013,318.244,206.7Z" transform="translate(-308.295 -202.273)" fill="#f4b3b3" fill-rule="evenodd"/>
            <path id="Trazado_719213" data-name="Trazado 719213" d="M327.361,215.006c-.377.927-1.111,1.518-1.629,1.292s-.63-1.15-.252-2.077,1.115-1.516,1.637-1.3S327.746,214.069,327.361,215.006Z" transform="translate(-310.491 -203.453)" fill="#f4b3b3" fill-rule="evenodd"/>
            <g id="Grupo_1005210" data-name="Grupo 1005210" transform="translate(8.328 8.327)">
              <g id="Grupo_1005203" data-name="Grupo 1005203" transform="translate(3.161 1.97)">
                <path id="Trazado_719214" data-name="Trazado 719214" d="M321.381,217.238h.024c.22-.025,1.324-.18,1.4-.771a7.752,7.752,0,0,0-.9-2.421.17.17,0,0,0-.3.156,7.809,7.809,0,0,1,.865,2.219c-.032.245-.679.43-1.1.479a.17.17,0,0,0,.014.338Z" transform="translate(-321.216 -213.955)" fill="#ec724c"/>
              </g>
              <g id="Grupo_1005204" data-name="Grupo 1005204" transform="translate(5.123 1.869)">
                <path id="Trazado_719215" data-name="Trazado 719215" d="M324.588,214.332a.479.479,0,1,1-.5-.5A.5.5,0,0,1,324.588,214.332Z" transform="translate(-323.635 -213.83)"/>
              </g>
              <g id="Grupo_1005205" data-name="Grupo 1005205" transform="translate(0 0.17)">
                <path id="Trazado_719216" data-name="Trazado 719216" d="M317.481,212.441a.169.169,0,0,0,.114-.04,1.578,1.578,0,0,1,1.693-.131.17.17,0,0,0,.165-.3,1.9,1.9,0,0,0-2.078.169.169.169,0,0,0,.105.3Z" transform="translate(-317.316 -211.734)"/>
              </g>
              <g id="Grupo_1005206" data-name="Grupo 1005206" transform="translate(4.694)">
                <path id="Trazado_719217" data-name="Trazado 719217" d="M323.271,212.1a.17.17,0,0,0,.105-.034h0a1.024,1.024,0,0,1,1.184-.021.17.17,0,0,0,.2-.272,1.353,1.353,0,0,0-1.591.02.171.171,0,0,0,.1.306Z" transform="translate(-323.106 -211.525)"/>
              </g>
              <g id="Grupo_1005207" data-name="Grupo 1005207" transform="translate(1.626 6.207)">
                <path id="Trazado_719218" data-name="Trazado 719218" d="M319.322,219.182a6.114,6.114,0,0,0,3.344.068,1.468,1.468,0,0,1-1.263,1.6A1.8,1.8,0,0,1,319.322,219.182Z" transform="translate(-319.322 -219.182)"/>
              </g>
              <g id="Grupo_1005208" data-name="Grupo 1005208" transform="translate(1.627 6.208)">
                <path id="Trazado_719219" data-name="Trazado 719219" d="M322.585,219.279s-.057.271-.079.325-.248.213-1.2.28a5.8,5.8,0,0,1-1.88-.237,2.03,2.03,0,0,1-.1-.464c.136.03.268.054.4.078a6.248,6.248,0,0,0,2.864.018Z" transform="translate(-319.323 -219.183)" fill="#fff"/>
              </g>
              <g id="Grupo_1005209" data-name="Grupo 1005209" transform="translate(1.083 2.183)">
                <ellipse id="Elipse_8525" data-name="Elipse 8525" cx="0.491" cy="0.541" rx="0.491" ry="0.541" transform="translate(0 0.049) rotate(-2.848)"/>
              </g>
            </g>
            <path id="Trazado_719220" data-name="Trazado 719220" d="M322.617,210.477a4.895,4.895,0,0,0,2.336-2.641c.309-.94.439-2.52-.243-2.867a1.127,1.127,0,0,0-.97.114,1.814,1.814,0,1,0-3.039-1.919,3.674,3.674,0,0,0-2.725-1.893,3.5,3.5,0,0,0-3.284,1.583,4.161,4.161,0,0,0-4.965.687,3.819,3.819,0,0,0-.827,2.781,5.263,5.263,0,0,0-1.78,2.949c-.544,2.906,1.874,6.422,6.2,8.246q-.079-3.325-.157-6.649a9.3,9.3,0,0,1,4.952-3.313,8.927,8.927,0,0,1,3.531-.177Z" transform="translate(-307.044 -201.253)" fill="#063e8e" fill-rule="evenodd"/>
            <path id="Trazado_719221" data-name="Trazado 719221" d="M315.053,215.89c.285,1-.016,2-.679,2.22s-1.426-.431-1.709-1.436.016-2,.673-2.206S314.766,214.885,315.053,215.89Z" transform="translate(-308.087 -203.747)" fill="#f4b3b3" fill-rule="evenodd"/>
          </g>
          <path id="Trazado_719222" data-name="Trazado 719222" d="M323.667,224.194c.393.78,1.59,3.169,2.4,4.92.979,2.122,3.183,15.911,3.428,18.849.045.537.144,2.854.28,6.28.057,1.466.121,3.135.188,4.954.01.24.018.482.027.726,0,.1.007.2.011.293q.028.733.055,1.492h0c.071,1.936.146,4,.224,6.137.006.185.013.369.02.555.016.443.031.889.047,1.339.028.767.056,1.543.083,2.323q.032.869.062,1.746c.166,4.687.336,9.5.491,13.95.37,10.639.663,19.238.663,19.238a26.193,26.193,0,0,0,8.925-.609s-.409-11.1-.944-24.868c-.068-1.733-.138-3.509-.208-5.311-.068-1.711-.136-3.446-.206-5.189q-.035-.893-.071-1.787-.058-1.477-.118-2.957c-.023-.571-.047-1.141-.07-1.71-.007-.2-.016-.393-.024-.589q-.021-.484-.04-.967c-.695-17.076-1.4-32.858-1.64-33.632-.445-1.411-9.206-2.944-12.49-4.465A3.145,3.145,0,0,1,323.667,224.194Z" transform="translate(-247.248 -205.596)" fill="#fff"/>
          <g id="Grupo_1005257" data-name="Grupo 1005257" transform="translate(0 57.152)">
            <g id="Grupo_1005214" data-name="Grupo 1005214" transform="translate(12.282 50.705)">
              <g id="Grupo_1005213" data-name="Grupo 1005213">
                <g id="Grupo_1005212" data-name="Grupo 1005212">
                  <path id="Trazado_719223" data-name="Trazado 719223" d="M246.086,346.488l-1.533-11.2,4-.994,1.589,11.6C247.553,346.285,246.086,346.488,246.086,346.488Z" transform="translate(-244.553 -334.297)" fill="#f4b3b3"/>
                </g>
              </g>
            </g>
            <g id="Grupo_1005217" data-name="Grupo 1005217" transform="translate(0 50.717)">
              <g id="Grupo_1005216" data-name="Grupo 1005216">
                <g id="Grupo_1005215" data-name="Grupo 1005215">
                  <path id="Trazado_719224" data-name="Trazado 719224" d="M241.55,334.311,230.8,335.784a1.61,1.61,0,0,0-1.38,1.814l2.9,21.163a1.61,1.61,0,0,0,1.817,1.377,2.891,2.891,0,0,0,1.513-.606,6.564,6.564,0,0,0,2.1-3.493,26.017,26.017,0,0,1,2.409-6.172c.524-.936,1.256-1.563,3.23-2.177Z" transform="translate(-229.402 -334.311)" fill="#15eadf"/>
                </g>
              </g>
            </g>
            <g id="Grupo_1005220" data-name="Grupo 1005220" transform="translate(0 51.975)">
              <g id="Grupo_1005219" data-name="Grupo 1005219">
                <g id="Grupo_1005218" data-name="Grupo 1005218">
                  <path id="Trazado_719225" data-name="Trazado 719225" d="M232.364,335.863l-1.566.215a1.61,1.61,0,0,0-1.38,1.814l2.9,21.163a1.61,1.61,0,0,0,1.817,1.377,2.891,2.891,0,0,0,1.513-.606Z" transform="translate(-229.402 -335.863)" fill="#fff"/>
                </g>
              </g>
            </g>
            <g id="Grupo_1005223" data-name="Grupo 1005223" transform="translate(6.749 67.146)">
              <g id="Grupo_1005222" data-name="Grupo 1005222">
                <g id="Grupo_1005221" data-name="Grupo 1005221">
                  <path id="Trazado_719226" data-name="Trazado 719226" d="M240.528,356.309a.113.113,0,0,1-.1-.053,3.171,3.171,0,0,0-2.581-1.445.114.114,0,1,1-.017-.227,3.347,3.347,0,0,1,2.791,1.55.114.114,0,0,1-.036.157A.111.111,0,0,1,240.528,356.309Z" transform="translate(-237.728 -354.577)"/>
                </g>
              </g>
            </g>
            <g id="Grupo_1005226" data-name="Grupo 1005226" transform="translate(7.495 65.466)">
              <g id="Grupo_1005225" data-name="Grupo 1005225">
                <g id="Grupo_1005224" data-name="Grupo 1005224">
                  <path id="Trazado_719227" data-name="Trazado 719227" d="M241.447,354.237a.114.114,0,0,1-.1-.053,3.176,3.176,0,0,0-2.581-1.445.114.114,0,0,1-.017-.227,3.341,3.341,0,0,1,2.791,1.55.114.114,0,0,1-.036.157A.111.111,0,0,1,241.447,354.237Z" transform="translate(-238.648 -352.505)"/>
                </g>
              </g>
            </g>
            <g id="Grupo_1005229" data-name="Grupo 1005229" transform="translate(8.396 63.939)">
              <g id="Grupo_1005228" data-name="Grupo 1005228">
                <g id="Grupo_1005227" data-name="Grupo 1005227">
                  <path id="Trazado_719228" data-name="Trazado 719228" d="M242.558,352.353a.115.115,0,0,1-.1-.053,3.169,3.169,0,0,0-2.581-1.445.114.114,0,0,1-.017-.228,3.347,3.347,0,0,1,2.791,1.55.113.113,0,0,1-.036.157A.11.11,0,0,1,242.558,352.353Z" transform="translate(-239.759 -350.621)"/>
                </g>
              </g>
            </g>
            <g id="Grupo_1005232" data-name="Grupo 1005232" transform="translate(14.931 15.461)">
              <g id="Grupo_1005231" data-name="Grupo 1005231">
                <g id="Grupo_1005230" data-name="Grupo 1005230">
                  <path id="Trazado_719229" data-name="Trazado 719229" d="M306.088,308.826s-12.395,21.589-13.907,23.336c-1.1,1.27-22.475,4.923-34.076,6.826-1.51.249-2.857.468-3.968.646-2.1.337-3.377.538-3.377.538l-2.94-14.827,3.609-.694,3.945-.757,26.437-5.074,12.262-28C303.421,296.026,306.088,308.826,306.088,308.826Z" transform="translate(-247.82 -290.822)" fill="#062c59"/>
                </g>
              </g>
            </g>
            <g id="Grupo_1005235" data-name="Grupo 1005235" transform="translate(95.405 88.424)">
              <g id="Grupo_1005234" data-name="Grupo 1005234">
                <g id="Grupo_1005233" data-name="Grupo 1005233">
                  <path id="Trazado_719230" data-name="Trazado 719230" d="M358.83,384.922h-11.3l-.443-4.1H358.8C358.827,383.442,358.83,384.922,358.83,384.922Z" transform="translate(-347.086 -380.824)" fill="#f4b3b3"/>
                </g>
              </g>
            </g>
            <g id="Grupo_1005238" data-name="Grupo 1005238" transform="translate(94.855 92.522)">
              <g id="Grupo_1005237" data-name="Grupo 1005237">
                <g id="Grupo_1005236" data-name="Grupo 1005236">
                  <path id="Trazado_719231" data-name="Trazado 719231" d="M346.408,385.879v10.854a1.611,1.611,0,0,0,1.611,1.613H369.38a1.611,1.611,0,0,0,1.611-1.613,2.892,2.892,0,0,0-.395-1.581,6.561,6.561,0,0,0-3.176-2.553,26.066,26.066,0,0,1-5.788-3.224c-.855-.646-1.377-1.457-1.718-3.5Z" transform="translate(-346.408 -385.879)" fill="#15eadf"/>
                </g>
              </g>
            </g>
            <g id="Grupo_1005241" data-name="Grupo 1005241" transform="translate(94.855 101.795)">
              <g id="Grupo_1005240" data-name="Grupo 1005240">
                <g id="Grupo_1005239" data-name="Grupo 1005239">
                  <path id="Trazado_719232" data-name="Trazado 719232" d="M346.408,397.317V398.9a1.611,1.611,0,0,0,1.611,1.613H369.38a1.611,1.611,0,0,0,1.611-1.613,2.892,2.892,0,0,0-.395-1.581Z" transform="translate(-346.408 -397.317)" fill="#fff"/>
                </g>
              </g>
            </g>
            <g id="Grupo_1005244" data-name="Grupo 1005244" transform="translate(110.422 97.431)">
              <g id="Grupo_1005243" data-name="Grupo 1005243">
                <g id="Grupo_1005242" data-name="Grupo 1005242">
                  <path id="Trazado_719233" data-name="Trazado 719233" d="M365.723,394.621h-.007a.113.113,0,0,1-.106-.121,3.336,3.336,0,0,1,1.914-2.555.114.114,0,0,1,.095.208,3.164,3.164,0,0,0-1.781,2.362A.115.115,0,0,1,365.723,394.621Z" transform="translate(-365.61 -391.934)"/>
                </g>
              </g>
            </g>
            <g id="Grupo_1005247" data-name="Grupo 1005247" transform="translate(108.859 96.465)">
              <g id="Grupo_1005246" data-name="Grupo 1005246">
                <g id="Grupo_1005245" data-name="Grupo 1005245">
                  <path id="Trazado_719234" data-name="Trazado 719234" d="M363.8,393.429h-.007a.114.114,0,0,1-.106-.121,3.338,3.338,0,0,1,1.914-2.555.114.114,0,0,1,.095.208,3.166,3.166,0,0,0-1.782,2.362A.114.114,0,0,1,363.8,393.429Z" transform="translate(-363.682 -390.742)"/>
                </g>
              </g>
            </g>
            <g id="Grupo_1005250" data-name="Grupo 1005250" transform="translate(107.468 95.366)">
              <g id="Grupo_1005249" data-name="Grupo 1005249">
                <g id="Grupo_1005248" data-name="Grupo 1005248">
                  <path id="Trazado_719235" data-name="Trazado 719235" d="M362.079,392.073h-.006a.113.113,0,0,1-.107-.121,3.334,3.334,0,0,1,1.914-2.554.114.114,0,1,1,.095.208,3.164,3.164,0,0,0-1.781,2.362A.115.115,0,0,1,362.079,392.073Z" transform="translate(-361.966 -389.386)"/>
                </g>
              </g>
            </g>
            <g id="Grupo_1005253" data-name="Grupo 1005253" transform="translate(60.229)">
              <g id="Grupo_1005252" data-name="Grupo 1005252">
                <g id="Grupo_1005251" data-name="Grupo 1005251">
                  <path id="Trazado_719236" data-name="Trazado 719236" d="M351.635,360.88H337.42l-.888-3.427-1.043-4.02-8.845-34.147s-14.507-20.446-20.35-28.726c-3.548-5.026-2.789-13.179-1.643-18.81h23.568c-.187,2.421-.395,5.035-.555,6.811-.377,4.187,15.408,32.687,18.029,37.369,1.908,3.4,4.182,25.632,5.282,37.5.141,1.533.264,2.9.362,4.02C351.527,359.594,351.635,360.88,351.635,360.88Z" transform="translate(-303.696 -271.751)" fill="#063e8e"/>
                </g>
              </g>
            </g>
            <g id="Grupo_1005256" data-name="Grupo 1005256" transform="translate(72.11 11.668)">
              <g id="Grupo_1005255" data-name="Grupo 1005255">
                <g id="Grupo_1005254" data-name="Grupo 1005254">
                  <path id="Trazado_719237" data-name="Trazado 719237" d="M345.729,354.166a.115.115,0,0,1-.113-.1c-.049-.3-5.015-29.85-5.533-32.15-.514-2.284-21.5-35.268-21.713-35.6a.114.114,0,1,1,.192-.122c.867,1.361,21.221,33.351,21.744,35.674.519,2.306,5.485,31.865,5.535,32.162a.115.115,0,0,1-.094.132Z" transform="translate(-318.352 -286.144)" fill="#fff"/>
                </g>
              </g>
            </g>
          </g>
          <path id="Trazado_719238" data-name="Trazado 719238" d="M393.759,247.2c.471.239,3.722-.433,3.731.35s-5.336,1.183-5.336,1.183,1.437.281,1.774.289,1.8-.3,1.651.545-3.98.477-4.374.418a9.654,9.654,0,0,1-1.451-.05,16.972,16.972,0,0,0-2.764-.441,1.5,1.5,0,0,0-.559.2,16.636,16.636,0,0,0-1.871,1.246c-.2-.092-1.621-3.1-.611-4.3,0,0,.234-.14.576-.355a15.263,15.263,0,0,0,2.6-1.9c.546-.679,5.441-3.125,5.759-2.872.781.623-.791,1.741-1.364,1.929a11.591,11.591,0,0,0-1.655.85,9.4,9.4,0,0,0,1.5.2,11.817,11.817,0,0,0,2.931-.552c1.306-.394,2.627-1.02,3.247-.229s-4.8,2.109-4.8,2.109a10.589,10.589,0,0,0,2.767-.407c.653-.134,2.819-.649,2.9.064C398.5,246.237,393.759,247.2,393.759,247.2Z" transform="translate(-258.592 -208.87)" fill="#f4b3b3"/>
          <path id="Trazado_719239" data-name="Trazado 719239" d="M386.43,250.813a16.636,16.636,0,0,0-1.871,1.246c-.2-.092-1.621-3.1-.611-4.3,0,0,.234-.14.576-.355C385.331,248.012,386.088,249.874,386.43,250.813Z" transform="translate(-258.592 -209.99)" fill="#15eadf"/>
          <path id="Trazado_719240" data-name="Trazado 719240" d="M328.892,236.944s.122.226.353.632l.07.122c.015.028.031.056.048.085l.031.053c.025.045.051.089.079.135q.1.18.225.388c.034.058.067.117.1.178l.019.032.118.2c.208.349.444.742.707,1.171.078.126.156.254.238.385l.028.045c.091.145.185.3.282.449.13.205.264.418.4.635.293.456.607.936.94,1.433q.264.394.544.8c.085.126.173.251.26.378l.235.338c.049.069.1.139.146.207.2.288.405.576.617.867.072.1.146.2.22.3.128.177.258.353.389.529.053.074.106.146.161.217.971,1.3,2.029,2.636,3.158,3.937q.187.218.379.433c.126.143.251.284.379.424l0,0c.109.122.22.244.331.365.093.1.188.205.283.306.278.3.558.591.841.88l.226.231.032.032.241.238q.258.255.519.505c.088.087.179.172.27.256s.207.195.312.291.209.192.315.288l.246.22c.129.114.259.229.389.34a29.821,29.821,0,0,0,2.384,1.859,16.942,16.942,0,0,0,6.029,2.811,10.414,10.414,0,0,0,1.921.233c.283.009.567,0,.85-.014q.334-.021.664-.049c.931-.08,1.839-.205,2.725-.368q.474-.088.94-.187a37.7,37.7,0,0,0,16.929-9.031l-.015-.186q-.038-.494-.094-.981a27.066,27.066,0,0,0-.614-3.452q-.286-1.164-.67-2.266c-.214-.615-.452-1.212-.71-1.789q-.98.573-1.907,1.075c-6.088,3.307-10.492,4.409-13.86,4.443a14.643,14.643,0,0,1-2.446-.171,14.3,14.3,0,0,1-1.792-.4c-.273-.079-.537-.165-.793-.255a22.731,22.731,0,0,1-2.589-1.127c-2.306-1.143-5.018-4.874-7.363-8.423-1.431-2.166-2.725-4.264-3.708-5.666-.256-.368-.49-.686-.7-.948l-.045.032-5.134,3.611-.663.467-1.657,1.165-.487.342-1.161.817Z" transform="translate(-248.237 -206.769)" fill="#fff"/>
          <path id="Trazado_719241" data-name="Trazado 719241" d="M310.105,226.816c1.114,3.884,15.806,4.149,11.484-1.136a34.419,34.419,0,0,1,6.066,8.843c2.717,5.735,3.072,10.733,3.342,15.128.6,9.794.949,19.2,1.1,28.222H317.232Z" transform="translate(-244.68 -205.877)" fill="#15eadf"/>
          <g id="Grupo_1005258" data-name="Grupo 1005258" transform="translate(49.411 17.348)">
            <path id="Trazado_719242" data-name="Trazado 719242" d="M290.473,304.181c.229,1.658-.022.206.031.256.662.631.377.266,1.233.621a38.252,38.252,0,0,0,4.591,1.394c.58.15,1.509.359,2.375.516,1.4.254,2.869.476,4.5.617a53.034,53.034,0,0,0,8.263-.083c.186-5.74.14-9.107.676-15.484.308-3.669,1.2-11.034,1.673-15.514.118-1.123.31-2.823.43-3.991.02-.19.048-.439.069-.645.065-.618.135-1.276.2-1.9.026-.255.055-.529.079-.769.056-.58.121-1.264.172-1.809.234-2.523.445-5.016.634-7.5.026-.348.044-.593.067-.914.049-.675.138-2.109.168-2.589.044-.7.041-.838.067-1.3.015-.248.006-.476.011-.612.272-7.593.083-16.913-2.881-23.435a52.873,52.873,0,0,0-3.013-5.329c-.682-1.262-.875-1.367-1.377-2.236-.251-.433-.259-.409-.385-.606s-.037-.208-.148-.218-.025.174-.054.277a3.276,3.276,0,0,1-.527,1.093,4.8,4.8,0,0,1-.4.46.409.409,0,0,1-.038.039,7.52,7.52,0,0,1-.768.652,13.118,13.118,0,0,1-1.093.74c-.492.3-1.093.646-1.766.993s-1.643.822-2.439,1.185c-.352.161-.919.418-1.3.581.033,2.97.064,5.768.047,8.816,0,.2,0,.711-.015,1.149-.092,3.689-.276,7.486-.675,11.241-.086.817-.184,1.761-.28,2.641-.122,1.115-.253,2.33-.383,3.471-.042.374-.093.782-.139,1.165-.006.046-.009.079-.018.148s-.022.194-.035.284c-.068.457-.118,1.016-.187,1.51-1.287,9.145-2.768,19.565-4.424,28.287C292.238,293.522,289.781,299.162,290.473,304.181Z" transform="translate(-290.352 -222.652)" fill="#fff"/>
          </g>
          <path id="Trazado_719243" data-name="Trazado 719243" d="M308.159,226.695a3.216,3.216,0,0,1,.31-.71,4.031,4.031,0,0,1,1.166-1.207,2.924,2.924,0,0,0,.49-1.137,5.1,5.1,0,0,0-2.64,2.848c-.028.092-.053.184-.075.279-.461,2.047.682,4.77,3.486,8.309l.552-.438C308.671,231.132,307.594,228.533,308.159,226.695Z" transform="translate(-244.151 -205.491)" fill="#2e353d"/>
          <path id="Trazado_719244" data-name="Trazado 719244" d="M332.514,236.427a18.893,18.893,0,0,0,.126-2.089A10.86,10.86,0,0,0,331,228a7.187,7.187,0,0,0-5.15-3l-.1.7a6.518,6.518,0,0,1,4.669,2.7,10.63,10.63,0,0,1,1.52,5.925,18.385,18.385,0,0,1-.118,2,1.392,1.392,0,1,0,.7.111Z" transform="translate(-247.641 -205.748)" fill="#2e353d"/>
          <path id="Trazado_719245" data-name="Trazado 719245" d="M346.645,280.92c.9,0,.8,9.9-2.705,9.145S342.887,280.92,346.645,280.92Z" transform="translate(-250.765 -216.335)" fill="#2e353d"/>
          <path id="Trazado_719246" data-name="Trazado 719246" d="M353.171,288.553a13.339,13.339,0,0,0,3.167,1.575c.777.333,3.043,1.167,2.833,2.35s-2.7-.409-3.049-.7a20.334,20.334,0,0,0-2.89-1.06c.316.589,4.176,2.239,3.62,3.058s-4.34-1.411-4.631-1.758a6.8,6.8,0,0,0-1.762-.865c.04.04,1.295,1.331,1.634,1.58s2.084.988,1.32,1.756-4.479-2.378-4.844-2.723-1.083-.623-1.471-1.1a25.113,25.113,0,0,0-2.113-2.106,4.784,4.784,0,0,0-.438-.349c-.581-.392-3.567-.253-3.567-.253-.143-.241.634-5.224,2.549-5.74,0,0,1.32.381,2.62.629a6.106,6.106,0,0,0,2.23.154,6.918,6.918,0,0,1,4.443.418c1.067.679,3.989-.449,3.612.758s-2.078,1.237-2.809,1.019a14.633,14.633,0,0,0-2.332-.313,11.814,11.814,0,0,0,1.406,1.293,14.927,14.927,0,0,0,3.441,1.543c1.642.534,3.464.837,3.538,2.108S353.171,288.553,353.171,288.553Z" transform="translate(-250.522 -216.581)" fill="#f4b3b3"/>
          <path id="Trazado_719247" data-name="Trazado 719247" d="M346.148,282.849a5.119,5.119,0,0,0-1.164,5.713,4.784,4.784,0,0,0-.438-.349c-.581-.392-3.567-.253-3.567-.253-.143-.241.634-5.224,2.549-5.74C343.528,282.22,344.848,282.6,346.148,282.849Z" transform="translate(-250.522 -216.581)" fill="#15eadf"/>
          <path id="Trazado_719248" data-name="Trazado 719248" d="M295.639,240.625c.029.422.066.853.109,1.291a65.763,65.763,0,0,0,1.1,7.007,80.593,80.593,0,0,0,3.11,10.96c.021.058.044.118.065.176,1.868,5.052,4.119,9.211,6.35,10.792,3.149,2.231,10.228,4.626,16.571,6.452.6.173,1.193.34,1.774.5,1.9.526,3.68.992,5.215,1.377,2.99.748,5.045,1.189,5.163,1.166,0,0-1.1-5.022.5-7.643a3.2,3.2,0,0,1,.976-1.037,3.09,3.09,0,0,1,1.233-.465s-1.831-.5-4.422-1.242c-1.156-.333-2.463-.717-3.826-1.128-1.587-.479-3.248-1-4.837-1.516-.806-.265-1.594-.53-2.343-.793-.409-.143-.807-.285-1.189-.426a17.509,17.509,0,0,1-4.511-2.11,6.539,6.539,0,0,1-.994-2.33c-.884-2.942-1.994-8.175-3.452-13.573-.764-2.824-1.622-5.694-2.594-8.3h0c-1.709-4.589-3.766-8.372-6.267-9.686a4,4,0,0,0-2.683-.426l-.032,0a5.334,5.334,0,0,0-4.567,4.032,12.552,12.552,0,0,0-.494,2.972A30.291,30.291,0,0,0,295.639,240.625Z" transform="translate(-241.925 -206.619)" fill="#fff"/>
          <path id="Trazado_719249" data-name="Trazado 719249" d="M312.693,244.518c.211.548.434,1.123.663,1.714h0c.094.088.189.173.286.256A10.9,10.9,0,0,0,315.859,248a5,5,0,0,1-1.039,1.6.7.7,0,0,0-.16-.024l.157.4.162.409.163.412a.715.715,0,0,0,.21-.507.7.7,0,0,0-.028-.2,5.749,5.749,0,0,0,1.175-1.8c.129.052.257.1.384.14l-.674-1.437q-.047.176-.1.345a10.386,10.386,0,0,1-2-1.38A12.478,12.478,0,0,1,312.693,244.518Zm-2.6-3.322h0c.007.031.015.061.024.092a10.259,10.259,0,0,0,2.448,4.157h0q.071.078.143.153h0c.207.216.421.427.645.632h0c.094.088.189.173.286.256A10.9,10.9,0,0,0,315.859,248a5,5,0,0,1-1.039,1.6.7.7,0,0,0-.16-.024h-.023a.715.715,0,0,0-.716.715v.007a.715.715,0,0,0,1.431-.007.7.7,0,0,0-.028-.2,5.749,5.749,0,0,0,1.175-1.8c.129.052.257.1.384.14h0a5.5,5.5,0,0,0,1.627.3.715.715,0,1,0,1.056-.893.715.715,0,0,0-1.007.191,5.079,5.079,0,0,1-1.813-.395,10.872,10.872,0,0,0,.505-2.629,11.117,11.117,0,0,0-1.17-6.172,3.922,3.922,0,0,0-1.786-1.711c-.06-.025-.121-.049-.182-.071a3.043,3.043,0,0,0-2.066.05l-.109.04c-.045.017-.093.036-.126.051s-.059.027-.059.027c-.109.052-.214.108-.313.167-.048.028-.094.056-.139.086a2.938,2.938,0,0,0-.944.976,2.886,2.886,0,0,0-.182.373A3.856,3.856,0,0,0,310.095,241.2Zm.561-1.182h0a2.7,2.7,0,0,1,.078-.618h0a2.166,2.166,0,0,1,.816-1.237,2.976,2.976,0,0,1,.546-.324,2.392,2.392,0,0,1,1.937-.058,3.294,3.294,0,0,1,1.441,1.408,10.554,10.554,0,0,1,1.077,5.764,10.774,10.774,0,0,1-.342,2.041h0q-.047.176-.1.345a10.386,10.386,0,0,1-2-1.38,12.478,12.478,0,0,1-1.411-1.437h0c-.107-.127-.209-.255-.309-.385-.049-.064-.1-.129-.144-.193h0a8.613,8.613,0,0,1-1.438-2.827A4.174,4.174,0,0,1,310.656,240.013Zm2.037,4.5c.211.548.434,1.123.663,1.714h0c.094.088.189.173.286.256A10.9,10.9,0,0,0,315.859,248a5,5,0,0,1-1.039,1.6.7.7,0,0,0-.16-.024l.157.4.162.409.163.412a.715.715,0,0,0,.21-.507.7.7,0,0,0-.028-.2,5.749,5.749,0,0,0,1.175-1.8c.129.052.257.1.384.14l-.674-1.437q-.047.176-.1.345a10.386,10.386,0,0,1-2-1.38A12.478,12.478,0,0,1,312.693,244.518Z" transform="translate(-244.651 -207.999)" fill="#2e353d"/>
        </g>
        <g id="Grupo_1005263" data-name="Grupo 1005263" transform="translate(120.458)">
          <g id="Grupo_1005260" data-name="Grupo 1005260">
            <path id="Trazado_719250" data-name="Trazado 719250" d="M424.2,190.249l16.279,47.788a3.6,3.6,0,0,1-2.245,4.563l-17.3,5.894-18.6-54.6L419.64,188A3.6,3.6,0,0,1,424.2,190.249Z" transform="translate(-382.6 -187.811)" fill="#a5c8e4"/>
            <path id="Trazado_719251" data-name="Trazado 719251" d="M397.729,195.319l18.6,54.6-17.3,5.894a3.6,3.6,0,0,1-4.563-2.244l-16.279-47.788a3.6,3.6,0,0,1,2.244-4.563Z" transform="translate(-377.99 -189.232)" fill="#b9d9ef"/>
          </g>
          <g id="Grupo_1005262" data-name="Grupo 1005262" transform="translate(8.217 7.951)">
            <g id="Grupo_1005261" data-name="Grupo 1005261">
              <path id="Trazado_719252" data-name="Trazado 719252" d="M422.25,201.035a3.95,3.95,0,0,1-.078,2.768l-7.11-3.5a3.973,3.973,0,0,1,7.188.73Z" transform="translate(-393.225 -197.756)" fill="#cc293d"/>
              <path id="Trazado_719253" data-name="Trazado 719253" d="M429.539,222.433a3.946,3.946,0,0,1-.078,2.767l-7.11-3.5a3.972,3.972,0,0,1,7.188.73Z" transform="translate(-394.605 -201.807)" fill="#cc293d"/>
              <path id="Trazado_719254" data-name="Trazado 719254" d="M436.827,243.829a3.936,3.936,0,0,1-.078,2.767l-7.109-3.5a3.972,3.972,0,0,1,7.187.73Z" transform="translate(-395.984 -205.857)" fill="#cc293d"/>
              <path id="Trazado_719255" data-name="Trazado 719255" d="M409.991,250.513a3.972,3.972,0,0,1-3.5,7.109Z" transform="translate(-391.603 -207.632)" fill="#cc293d"/>
              <path id="Trazado_719256" data-name="Trazado 719256" d="M402.7,229.115a3.972,3.972,0,0,1-3.5,7.111Z" transform="translate(-390.223 -203.581)" fill="#cc293d"/>
              <path id="Trazado_719257" data-name="Trazado 719257" d="M395.412,207.719a3.972,3.972,0,0,1-3.5,7.11Z" transform="translate(-388.843 -199.531)" fill="#cc293d"/>
              <path id="Trazado_719258" data-name="Trazado 719258" d="M414.676,201.413l7.11,3.5a3.972,3.972,0,0,1-7.11-3.5Z" transform="translate(-393.097 -198.337)" fill="#fd5b68"/>
              <path id="Trazado_719259" data-name="Trazado 719259" d="M421.965,222.809l7.11,3.5a3.972,3.972,0,0,1-7.11-3.5Z" transform="translate(-394.477 -202.388)" fill="#fd5b68"/>
              <path id="Trazado_719260" data-name="Trazado 719260" d="M429.254,244.206l7.109,3.5a3.972,3.972,0,0,1-7.109-3.5Z" transform="translate(-395.857 -206.438)" fill="#fd5b68"/>
              <path id="Trazado_719261" data-name="Trazado 719261" d="M408.883,250.127l-3.5,7.109a3.972,3.972,0,0,1,3.5-7.109Z" transform="translate(-391.022 -207.505)" fill="#fd5b68"/>
              <path id="Trazado_719262" data-name="Trazado 719262" d="M401.6,228.73l-3.5,7.109a3.972,3.972,0,0,1,3.5-7.109Z" transform="translate(-389.642 -203.454)" fill="#fd5b68"/>
              <path id="Trazado_719263" data-name="Trazado 719263" d="M394.306,207.332l-3.5,7.11a3.972,3.972,0,0,1,3.5-7.11Z" transform="translate(-388.262 -199.403)" fill="#fd5b68"/>
              <path id="Trazado_719264" data-name="Trazado 719264" d="M420.235,198.089a4.558,4.558,0,1,1-3.482-.225A4.526,4.526,0,0,1,420.235,198.089Zm1.672,5.578a3.973,3.973,0,0,0-7.11-3.5Zm-.259.525-7.11-3.5a3.972,3.972,0,0,0,7.11,3.5Z" transform="translate(-392.96 -197.619)" fill="#76aad9"/>
              <path id="Trazado_719265" data-name="Trazado 719265" d="M427.523,219.486a4.559,4.559,0,1,1-6.1,2.079A4.533,4.533,0,0,1,427.523,219.486Zm1.673,5.578a3.972,3.972,0,0,0-7.11-3.5Zm-.259.525-7.11-3.5a3.972,3.972,0,0,0,7.11,3.5Z" transform="translate(-394.34 -201.67)" fill="#76aad9"/>
              <path id="Trazado_719266" data-name="Trazado 719266" d="M434.813,240.884a4.558,4.558,0,1,1-6.1,2.079A4.522,4.522,0,0,1,434.813,240.884Zm1.672,5.576a3.972,3.972,0,0,0-7.109-3.5Zm-.259.525-7.109-3.5a3.972,3.972,0,0,0,7.109,3.5Z" transform="translate(-395.72 -205.721)" fill="#76aad9"/>
              <path id="Trazado_719267" data-name="Trazado 719267" d="M394.7,206.789a4.558,4.558,0,1,1-3.482-.225A4.529,4.529,0,0,1,394.7,206.789Zm1.553,5.845a3.977,3.977,0,0,0-1.554-5.18l-3.5,7.11A3.978,3.978,0,0,0,396.249,212.634Zm-5.576,1.671,3.5-7.11a3.972,3.972,0,0,0-3.5,7.11Z" transform="translate(-388.125 -199.266)" fill="#76aad9"/>
              <path id="Trazado_719268" data-name="Trazado 719268" d="M409.273,249.583a4.559,4.559,0,1,1-6.1,2.079A4.527,4.527,0,0,1,409.273,249.583Zm1.553,5.844a3.976,3.976,0,0,0-1.553-5.179l-3.5,7.109A3.975,3.975,0,0,0,410.826,255.427ZM405.25,257.1l3.5-7.109a3.972,3.972,0,0,0-3.5,7.109Z" transform="translate(-390.885 -207.368)" fill="#76aad9"/>
              <path id="Trazado_719269" data-name="Trazado 719269" d="M401.984,228.186a4.559,4.559,0,1,1-6.1,2.079A4.565,4.565,0,0,1,401.984,228.186Zm1.554,5.845a3.978,3.978,0,0,0-1.555-5.18l-3.5,7.111A3.977,3.977,0,0,0,403.538,234.031Zm-5.576,1.672,3.5-7.109a3.972,3.972,0,0,0-3.5,7.109Z" transform="translate(-389.505 -203.317)" fill="#76aad9"/>
            </g>
          </g>
        </g>
      </g>
      <g id="Grupo_1005283" data-name="Grupo 1005283" transform="translate(44.063 280.621)">
        <g id="Grupo_1005265" data-name="Grupo 1005265" transform="translate(0 32.401)">
          <path id="Trazado_719270" data-name="Trazado 719270" d="M67.951,389.476c3.243,3.317,5.546,6.11,7.506,8.315H94.2l-4.977-5.86s-.718-.85-2.022-2.173c-8.58-8.709-16.45-11.969-16.45-11.969-4.682-1.975-12.964-5.469-19.993-1.665a14.879,14.879,0,0,0-4.768,4.172,81.208,81.208,0,0,1,13.856,3.724,19.383,19.383,0,0,1,6.2,3.555C66.427,387.915,66.934,388.436,67.951,389.476Z" transform="translate(-45.986 -374.425)" fill="#2cbf7b"/>
        </g>
        <g id="Grupo_1005266" data-name="Grupo 1005266" transform="translate(21.965 35.765)">
          <path id="Trazado_719271" data-name="Trazado 719271" d="M92.429,398.577a16.558,16.558,0,0,0-.1-8.033,59.661,59.661,0,0,0-16.45-11.969c-.263,1.886-.34,3.865-.614,5.231a27.411,27.411,0,0,1-2.182,6.456c3.243,3.317,5.546,6.11,7.506,8.315Z" transform="translate(-73.08 -378.575)" fill="#2da66d"/>
        </g>
        <g id="Grupo_1005267" data-name="Grupo 1005267" transform="translate(24.385)">
          <path id="Trazado_719272" data-name="Trazado 719272" d="M81.723,374.132c2.779,7.5,6.685,13.063,10.872,16.094h12.088a10.246,10.246,0,0,0,.581-3.106c.6-10.942-8.528-34.707-8.528-34.707a64.1,64.1,0,0,0-7.2-8.486,44.614,44.614,0,0,0-13.263-9.466c-.366-.156-.77,17.226,3.714,34.171Q80.754,371.529,81.723,374.132Z" transform="translate(-76.065 -334.459)" fill="#2cbf7b"/>
        </g>
        <g id="Grupo_1005268" data-name="Grupo 1005268" transform="translate(24.594 0.003)">
          <path id="Trazado_719273" data-name="Trazado 719273" d="M88.059,365.335l0,.033a12.6,12.6,0,0,1-1.41,4.814,10.977,10.977,0,0,1-4.874,3.95c2.779,7.5,6.685,13.063,10.872,16.094h9.937a20.445,20.445,0,0,0,2.732-3.106c.6-10.942-8.528-34.707-8.528-34.707a64.1,64.1,0,0,0-7.2-8.486q-.327,5.575-.654,11.151-.027.466-.055.931c-2.021-4.25-7.459-15.236-12.553-21.546.124.22,7.314,13.059,11.1,24.266A14.477,14.477,0,0,1,88.059,365.335Z" transform="translate(-76.323 -334.463)" fill="#2da66d"/>
        </g>
        <g id="Grupo_1005270" data-name="Grupo 1005270" transform="translate(26.673 2.904)">
          <g id="Grupo_1005269" data-name="Grupo 1005269">
            <path id="Trazado_719274" data-name="Trazado 719274" d="M79.263,338.041l-.375.265c12.98,18.375,19.4,36.3,19.073,53.262l.46.008A74.767,74.767,0,0,0,93.1,363.334,117.207,117.207,0,0,0,79.263,338.041Z" transform="translate(-78.888 -338.041)" fill="#027369"/>
          </g>
        </g>
        <g id="Grupo_1005271" data-name="Grupo 1005271" transform="translate(38.998 2.635)">
          <path id="Trazado_719275" data-name="Trazado 719275" d="M99.807,383.533q.291.749.587,1.439a30.254,30.254,0,0,0,3.232,5.869h9.74l9.252-24.984a40.338,40.338,0,0,0-2.242-5.229c-.109-.217-.223-.44-.341-.666-3.325-6.392-10.155-16.395-22.162-21.735-.392-.173-.79-.344-1.193-.507v0c-.9-.366-5.345,9.99,0,34.981A70.86,70.86,0,0,0,99.807,383.533Z" transform="translate(-94.091 -337.708)" fill="#2cbf7b"/>
        </g>
        <g id="Grupo_1005272" data-name="Grupo 1005272" transform="translate(41.587 2.645)">
          <path id="Trazado_719276" data-name="Trazado 719276" d="M106.253,378.585q-2.667,2.479-5.517,4.7l-.325.251q.291.749.587,1.439a30.254,30.254,0,0,0,3.232,5.869h9.74l9.252-24.984a40.338,40.338,0,0,0-2.242-5.229c-.109-.217-.223-.44-.341-.666q-.447,1.059-.981,2.1a47.04,47.04,0,0,1-5.775,8.445c-.18.216-.36.432-.543.646-1.809-4.879-8.575-22.64-14.862-32.924-.392-.173-.79-.344-1.193-.507.083.173,9.174,19.3,11.664,32.78A8.853,8.853,0,0,1,106.253,378.585Z" transform="translate(-97.284 -337.722)" fill="#2da66d"/>
        </g>
        <g id="Grupo_1005274" data-name="Grupo 1005274" transform="translate(42.846 4.029)">
          <g id="Grupo_1005273" data-name="Grupo 1005273">
            <path id="Trazado_719277" data-name="Trazado 719277" d="M99.22,339.429l-.383.253a112.46,112.46,0,0,1,17.01,43.669l.454-.074a112.559,112.559,0,0,0-6.295-22.941A111.993,111.993,0,0,0,99.22,339.429Z" transform="translate(-98.837 -339.429)" fill="#027369"/>
          </g>
        </g>
        <g id="Grupo_1005275" data-name="Grupo 1005275" transform="translate(53.115 4.749)">
          <path id="Trazado_719278" data-name="Trazado 719278" d="M135.188,353.547c-6.81,2.765-11.132,9.282-14.821,15.971a107.7,107.7,0,0,0-7.3,15.888c-.012.032-.024.065-.033.1a37.73,37.73,0,0,0-1.53,5.832h24.242a73.831,73.831,0,0,0,5.6-6.514q.489-.64.964-1.291.822-1.126,1.6-2.284.511-.755,1-1.522c7.193-11.23,11.579-24.5,13.6-39.408A97.185,97.185,0,0,1,135.188,353.547Z" transform="translate(-111.504 -340.317)" fill="#2cbf7b"/>
        </g>
        <g id="Grupo_1005276" data-name="Grupo 1005276" transform="translate(59.227 6.539)">
          <path id="Trazado_719279" data-name="Trazado 719279" d="M123.016,385.549c-1.505,2.307-2.842,4.406-3.972,6.2h18.127c1.815-1.894,3.4-3.944,5.08-5.935q.249-.3.524-.579.489-.64.964-1.291.822-1.126,1.6-2.284a26.919,26.919,0,0,1-8.323,2.075l-.088.007c-2.946.238-5.039-.773-4.791-3.958a15.89,15.89,0,0,1,2.557-6.591c2.416-4.013,5.688-7.725,8.588-11.4q3.906-4.947,7.975-9.764c2.709-3.214,5.447-6.406,8.279-9.512C148.1,348.974,132.366,371.213,123.016,385.549Z" transform="translate(-119.044 -342.525)" fill="#2da66d"/>
        </g>
        <g id="Grupo_1005278" data-name="Grupo 1005278" transform="translate(53.115 49.563)">
          <g id="Grupo_1005277" data-name="Grupo 1005277">
            <path id="Trazado_719280" data-name="Trazado 719280" d="M117.617,401.8c1.129-1.8,2.466-3.9,3.972-6.2a81.9,81.9,0,0,1-8.521.275c-.012.032-.024.065-.033.1a37.73,37.73,0,0,0-1.53,5.832Z" transform="translate(-111.504 -395.596)" fill="#2da66d"/>
          </g>
        </g>
        <g id="Grupo_1005280" data-name="Grupo 1005280" transform="translate(7.075 34.519)">
          <g id="Grupo_1005279" data-name="Grupo 1005279">
            <path id="Trazado_719281" data-name="Trazado 719281" d="M87.645,398.985h.546c-4.67-7.321-10.454-14.991-18.548-18.784-4.056-1.9-8.794-2.9-14.911-3.162l-.019.46c6.055.254,10.737,1.244,14.735,3.119C77.342,384.317,83.037,391.793,87.645,398.985Z" transform="translate(-54.713 -377.039)" fill="#027369"/>
          </g>
        </g>
        <g id="Grupo_1005282" data-name="Grupo 1005282" transform="translate(59.914 6.193)">
          <g id="Grupo_1005281" data-name="Grupo 1005281">
            <path id="Trazado_719282" data-name="Trazado 719282" d="M159.393,342.1c-12.76,11.237-33.978,38.394-39.5,49.574h.513c8.567-17.257,21.717-33.75,39.293-49.228Z" transform="translate(-119.891 -342.098)" fill="#027369"/>
          </g>
        </g>
      </g>
      <rect id="Rectángulo_347586" data-name="Rectángulo 347586" width="347.251" height="4.738" transform="translate(35.829 332.607)" fill="#293f60"/>
    </g>
  </g>
</svg>
