<svg xmlns="http://www.w3.org/2000/svg" width="400" height="310.278" viewBox="0 0 400 310.278">
  <g id="Grupo_1005633" data-name="Grupo 1005633" transform="translate(194.754 -158.756)">
    <g id="Grupo_1005437" data-name="Grupo 1005437" transform="translate(-38.922 239.87)">
      <g id="Grupo_1005422" data-name="Grupo 1005422" transform="translate(5.803 9.103)">
        <path id="Trazado_719532" data-name="Trazado 719532" d="M3.664,255.184A37.08,37.08,0,0,1,51.777,239.9,37.07,37.07,0,0,1,70.212,286.21c19.56,3.65,32.518,21.006,31.027,37.771-1.739,19.53-22.866,35.779-45.865,30.577-.454,1.079-5.9,13.457-19.336,16.187A27.255,27.255,0,0,1,8.609,359.5a5.606,5.606,0,0,1-3.936,4.012,5.746,5.746,0,0,1-4.607-.864c-6.8,10.847-20.89,12.771-28.778,6.295-6.347-5.212-8.3-15.555-3.6-24.282-12.979-3.423-22.33-14.17-23.383-26.529-1.238-14.546,9.627-24.183,10.792-25.181a13.232,13.232,0,0,1,3.6-14.389c4.664-3.984,10.55-2.774,11.242-2.621a23,23,0,0,1,11.242-20.312C-7.977,249.229,3.062,254.863,3.664,255.184Z" transform="translate(55.789 -236.319)" fill="#a3c74f"/>
      </g>
      <g id="Grupo_1005424" data-name="Grupo 1005424" transform="translate(26.683 88.204)" style="mix-blend-mode: multiply;isolation: isolate">
        <g id="Grupo_1005423" data-name="Grupo 1005423">
          <path id="Trazado_719533" data-name="Trazado 719533" d="M98.314,312.887c-1.744,19.533-22.873,35.775-45.869,30.579-.457,1.076-5.9,13.459-19.335,16.18A27.257,27.257,0,0,1,5.685,348.413a5.621,5.621,0,0,1-3.947,4.008,5.737,5.737,0,0,1-4.6-.867c-6.8,10.85-20.893,12.779-28.774,6.3-5.345-4.379-7.571-12.383-5.343-20.015a16.828,16.828,0,0,0,5.343,8.226c7.88,6.482,21.969,4.552,28.774-6.3a5.686,5.686,0,0,0,4.6.865,5.6,5.6,0,0,0,3.947-4.007A27.243,27.243,0,0,0,33.11,347.869c13.434-2.733,18.878-15.116,19.335-16.192,21.71,4.922,41.762-9.3,45.4-27.351A30.605,30.605,0,0,1,98.314,312.887Z" transform="translate(37.837 -304.326)" fill="#a3c74f"/>
        </g>
      </g>
      <g id="Grupo_1005425" data-name="Grupo 1005425" transform="translate(46.008 48.73)">
        <path id="Trazado_719534" data-name="Trazado 719534" d="M14.6,276.978l3.152-6.59L19.8,323.826q8.573-13.968,17.148-27.935l1.877,1.882L21.76,335.722s-1.719,7.451,2.006,6.878,21.779-16.048,21.779-16.048l10.6-11.748v5.731l-14.041,17.48L26.058,352.342q1.935,36.337,3.869,72.674a15.054,15.054,0,0,1-9.091,4.732,15.129,15.129,0,0,1-10.569-2.715q.731-40.5,1.464-80.995l-32.954-32.667v-3.439l32.094,25.79q-.473-15.205-.943-30.413l-17.4-27.185,3.532,1.478,16.2,20.143q.363-1.417.723-2.833Q13.791,286.946,14.6,276.978Z" transform="translate(21.223 -270.388)" fill="#5c1309"/>
      </g>
      <g id="Grupo_1005426" data-name="Grupo 1005426" transform="translate(14.543 91.567)" style="mix-blend-mode: screen;isolation: isolate">
        <path id="Trazado_719535" data-name="Trazado 719535" d="M-36.134,313.286a6.071,6.071,0,0,1-6.07,6.07,6.071,6.071,0,0,1-6.07-6.07,6.07,6.07,0,0,1,6.07-6.069A6.07,6.07,0,0,1-36.134,313.286Z" transform="translate(48.275 -307.217)" fill="#a3c74f"/>
      </g>
      <g id="Grupo_1005427" data-name="Grupo 1005427" transform="translate(105.579 29.447)" style="mix-blend-mode: screen;isolation: isolate">
        <path id="Trazado_719536" data-name="Trazado 719536" d="M43.42,260.524a6.714,6.714,0,1,1-6.714-6.714A6.714,6.714,0,0,1,43.42,260.524Z" transform="translate(-29.993 -253.81)" fill="#a3c74f"/>
      </g>
      <g id="Grupo_1005428" data-name="Grupo 1005428" transform="translate(113.35 48.73)" style="mix-blend-mode: screen;isolation: isolate">
        <path id="Trazado_719537" data-name="Trazado 719537" d="M44.446,274.274a3.886,3.886,0,1,1-3.886-3.886A3.887,3.887,0,0,1,44.446,274.274Z" transform="translate(-36.674 -270.388)" fill="#a3c74f"/>
      </g>
      <g id="Grupo_1005430" data-name="Grupo 1005430" transform="translate(113.554 71.644)" style="mix-blend-mode: multiply;isolation: isolate">
        <g id="Grupo_1005429" data-name="Grupo 1005429">
          <path id="Trazado_719538" data-name="Trazado 719538" d="M36.881,307.469a10.17,10.17,0,0,1,15.99-9.156,10.594,10.594,0,0,1,3.858-5.909A10.38,10.38,0,0,1,64.5,290.18l-.181,1.264a9.5,9.5,0,0,0-10.36,8.1l-.124,1.236-.932-.821a8.9,8.9,0,0,0-14.752,7.408Z" transform="translate(-36.85 -290.088)" fill="#a3c74f"/>
        </g>
      </g>
      <g id="Grupo_1005432" data-name="Grupo 1005432" transform="translate(39.412 38.522)" style="mix-blend-mode: multiply;isolation: isolate">
        <g id="Grupo_1005431" data-name="Grupo 1005431" transform="translate(0)">
          <path id="Trazado_719539" data-name="Trazado 719539" d="M-5.291,269.821a5.539,5.539,0,0,0-3.723-4.255,4.473,4.473,0,0,0-4.694,2.122l-.655,1-.468-1.1a7.573,7.573,0,0,0-5.1-4.578,6.385,6.385,0,0,0-6.006,2.166l-.954-.848a7.644,7.644,0,0,1,7.227-2.567,8.647,8.647,0,0,1,5.547,4.378,5.592,5.592,0,0,1,5.409-1.811,6.829,6.829,0,0,1,4.665,5.208Z" transform="translate(26.894 -261.612)" fill="#a3c74f"/>
        </g>
      </g>
      <g id="Grupo_1005433" data-name="Grupo 1005433" transform="translate(32.963 188.833)">
        <path id="Trazado_719540" data-name="Trazado 719540" d="M-32.438,414.657H71.021a22.634,22.634,0,0,0-9.325-8.881c-8.463-4.258-16.67-1.446-18.2-.888-6.284-9.971-17.483-15.382-28.419-13.766C2.429,392.994-4.017,403.4-4.909,404.889a26.019,26.019,0,0,0-13.32,0A26.464,26.464,0,0,0-32.438,414.657Z" transform="translate(32.438 -390.841)" fill="#a35140"/>
      </g>
      <g id="Grupo_1005434" data-name="Grupo 1005434" transform="translate(55.536)">
        <path id="Trazado_719541" data-name="Trazado 719541" d="M-6.93,249.169a15.038,15.038,0,0,1-5.527-7.765c-1.962-6.655,1.7-12.15,2.225-12.911C-10.233,228.493,1.462,235.937-6.93,249.169Z" transform="translate(13.031 -228.493)" fill="#a3c74f"/>
      </g>
      <g id="Grupo_1005435" data-name="Grupo 1005435" transform="translate(0 58.721)">
        <path id="Trazado_719542" data-name="Trazado 719542" d="M-40.42,286.3a15.038,15.038,0,0,1-9.291,2.122c-6.9-.746-10.567-6.236-11.067-7.013C-60.778,281.407-49.413,273.468-40.42,286.3Z" transform="translate(60.778 -278.978)" fill="#a3c74f"/>
      </g>
      <g id="Grupo_1005436" data-name="Grupo 1005436" transform="translate(150.788 71.242)">
        <path id="Trazado_719543" data-name="Trazado 719543" d="M86.05,289.907a15.035,15.035,0,0,1-4.593,8.351c-5.143,4.658-11.681,3.748-12.6,3.6C68.861,301.863,70.486,288.1,86.05,289.907Z" transform="translate(-68.861 -289.743)" fill="#a3c74f"/>
      </g>
    </g>
    <g id="Grupo_1005525" data-name="Grupo 1005525" transform="translate(-194.754 190.403)">
      <g id="Grupo_1005438" data-name="Grupo 1005438" transform="translate(41.629 234.755)">
        <path id="Trazado_719544" data-name="Trazado 719544" d="M-118.357,390.137-152.132,404.5l-6.832,16.337H-39.573c7.692-3.2,12.3-10.75,11.464-17.976-1.044-9.059-10.5-16.477-21.257-14.844Z" transform="translate(158.964 -387.794)" fill="#8e2618"/>
      </g>
      <g id="Grupo_1005444" data-name="Grupo 1005444" transform="translate(89.719 111.778)">
        <g id="Grupo_1005439" data-name="Grupo 1005439" transform="translate(57.387 57.391)">
          <path id="Trazado_719545" data-name="Trazado 719545" d="M-16.133,352.16c-4.761-.832-8.586-.529-10.507-.746-4.479-.5-7.371.526-9.645.884-4.991.787-14.067-.556-32-10l8.009-10.89,15.874,6.7a89.7,89.7,0,0,1,22.547-4.13s.519,2.273-2.676,3.085c8.446,3.848,15.452,4.133,15.8,8.23,3.2.863,2.93,3.136-.337,2.721,2.256,2.632-.736,2.309-4.914,1.784C-11.89,351.056-13.027,352.7-16.133,352.16Z" transform="translate(68.281 -331.407)" fill="#8e2618"/>
        </g>
        <g id="Grupo_1005440" data-name="Grupo 1005440" transform="translate(98.432 73.493)">
          <path id="Trazado_719546" data-name="Trazado 719546" d="M-32.993,345.25s12.329,1.421,13.257,2.288" transform="translate(32.993 -345.25)" fill="#8e2618"/>
        </g>
        <g id="Grupo_1005441" data-name="Grupo 1005441" transform="translate(98.933 69.629)">
          <path id="Trazado_719547" data-name="Trazado 719547" d="M-14.892,346.3s-13.269-4.155-17.67-4.368" transform="translate(32.562 -341.928)" fill="#8e2618"/>
        </g>
        <g id="Grupo_1005442" data-name="Grupo 1005442" transform="translate(98.457 66.497)">
          <path id="Trazado_719548" data-name="Trazado 719548" d="M-14.488,344.014S-26.329,338.6-32.971,339.3" transform="translate(32.971 -339.235)" fill="#8e2618"/>
        </g>
        <g id="Grupo_1005443" data-name="Grupo 1005443">
          <path id="Trazado_719549" data-name="Trazado 719549" d="M-97.071,282.065q6.923,18.564,13.847,37.127l31,20.264-8.009,10.89-32.689-16.337-24.7-44.735Z" transform="translate(117.619 -282.065)" fill="#8e2618"/>
        </g>
      </g>
      <g id="Grupo_1005449" data-name="Grupo 1005449" transform="translate(153.488 166.778)">
        <g id="Grupo_1005445" data-name="Grupo 1005445">
          <path id="Trazado_719550" data-name="Trazado 719550" d="M-19.458,346.657c-3.6-.163-5.869.2-7.964.158-3.421-.064-3.473.815-11.773,2.481-2.6.522-4.721.862-6.019,1.057q-4.522-1.247-9.3-2.764-4.285-1.363-8.277-2.8l2.652-10.533,10.86,2.058a87.557,87.557,0,0,1,9.275-3.738,87.472,87.472,0,0,1,12.562-3.23s.8,2.188-2.261,3.4c8.868,2.742,15.852,2.131,16.719,6.151,3.284.449,3.306,2.738.012,2.742,2.573,2.324-.436,2.384-4.647,2.4C-15.39,345.022-16.309,346.8-19.458,346.657Z" transform="translate(62.794 -329.351)" fill="#c66858"/>
        </g>
        <g id="Grupo_1005446" data-name="Grupo 1005446" transform="translate(31.727 13.769)" style="mix-blend-mode: multiply;isolation: isolate">
          <path id="Trazado_719551" data-name="Trazado 719551" d="M-22.258,342.367c-.613-.441-7.285-.6-13.25-.52l-.008-.639c2.088-.029,12.569-.123,13.631.64Z" transform="translate(35.517 -341.189)" fill="#c66858"/>
        </g>
        <g id="Grupo_1005447" data-name="Grupo 1005447" transform="translate(31.711 9.855)" style="mix-blend-mode: multiply;isolation: isolate">
          <path id="Trazado_719552" data-name="Trazado 719552" d="M-17.479,340.575c-.137-.024-13.7-2.416-18-2.076l-.051-.636c4.389-.364,17.6,1.984,18.164,2.084Z" transform="translate(35.531 -337.824)" fill="#c66858"/>
        </g>
        <g id="Grupo_1005448" data-name="Grupo 1005448" transform="translate(30.799 6.542)" style="mix-blend-mode: multiply;isolation: isolate">
          <path id="Trazado_719553" data-name="Trazado 719553" d="M-17.4,338.29c-.123-.038-12.432-3.814-18.767-2.32l-.147-.621c6.515-1.539,18.593,2.173,19.1,2.332Z" transform="translate(36.315 -334.975)" fill="#c66858"/>
        </g>
      </g>
      <g id="Grupo_1005487" data-name="Grupo 1005487" transform="translate(62.521)">
        <g id="Grupo_1005450" data-name="Grupo 1005450" transform="translate(44.784 47.513)">
          <path id="Trazado_719554" data-name="Trazado 719554" d="M-91.32,228.755l-.925,1.966a17.008,17.008,0,0,1-5.289-1.041,17,17,0,0,1-4.965-2.867,32.94,32.94,0,0,1,3.572.194A33.454,33.454,0,0,1-91.32,228.755Z" transform="translate(102.499 -226.813)" fill="#fff"/>
        </g>
        <g id="Grupo_1005451" data-name="Grupo 1005451" transform="translate(0 2.972)">
          <path id="Trazado_719555" data-name="Trazado 719555" d="M-83.749,231.749a30.659,30.659,0,0,0-.95,4.657c-1.649.08-10.048-3.1-9.983-2.436-.506.633.953,3.237,3.11,4.9,1.882,1.445,3.343,1.438,4.083,3.044a3.126,3.126,0,0,1-3.236,4.452s-1.8,13.276-12.806,3.037q-.951-.755-2.01-1.526-.811-.586-1.595-1.106a146.262,146.262,0,0,0-9.227,11.721q-.48.677-.944,1.349c-2.016,2.924-3.824,5.766-5.442,8.492a23.681,23.681,0,0,1-14.2-7.491A22.092,22.092,0,0,1-141,254.074q4.2-5.9,8.423-12.009t8.226-12.109c-2.554-1.752-4.448-2.452-6.568-5.532-5.046-8.036-.686-28.916,12.069-33.922,10.314-4.038,21.722-1.777,28.725,5.6,0,0,8.671,12.339,7.856,15.545a38.346,38.346,0,0,1-2.4,6.447l6.562,8.949S-78.048,231.743-83.749,231.749Z" transform="translate(141.002 -188.519)" fill="#c66858"/>
        </g>
        <g id="Grupo_1005452" data-name="Grupo 1005452" transform="translate(7.252)">
          <path id="Trazado_719556" data-name="Trazado 719556" d="M-82.863,208.74a34.154,34.154,0,0,1-12.061,1.917,34.144,34.144,0,0,1-11.184-2.153,17.571,17.571,0,0,1-10.079,15.32,31.131,31.131,0,0,0-3.489,1.6,5.291,5.291,0,0,0-2.2,3.277,2.512,2.512,0,0,1-2.334,1.8,5.351,5.351,0,0,1-2.992-.889,15.848,15.848,0,0,1-7.1-10.464,27.388,27.388,0,0,1,.755-12.874,29.609,29.609,0,0,1,7.2-13.228,25.4,25.4,0,0,1,17.216-7.072,32.749,32.749,0,0,1,18.118,5.068c5.111,3.028,6.646,5.737,7.153,6.738a15.573,15.573,0,0,1,1.582,6.489A15.286,15.286,0,0,1-82.863,208.74Z" transform="translate(134.767 -185.964)" fill="#134452"/>
        </g>
        <g id="Grupo_1005458" data-name="Grupo 1005458" transform="translate(43.287 25.604)">
          <g id="Grupo_1005457" data-name="Grupo 1005457">
            <g id="Grupo_1005456" data-name="Grupo 1005456">
              <g id="Grupo_1005455" data-name="Grupo 1005455">
                <g id="Grupo_1005454" data-name="Grupo 1005454">
                  <g id="Grupo_1005453" data-name="Grupo 1005453">
                    <path id="Trazado_719557" data-name="Trazado 719557" d="M-95.2,208.026a11.056,11.056,0,0,0-3.7.275,11.2,11.2,0,0,0-4.889,2.657l7.03-.978,5.689,1.051.94-2.044Z" transform="translate(103.786 -207.977)" fill="#134452"/>
                  </g>
                </g>
              </g>
            </g>
          </g>
        </g>
        <g id="Grupo_1005459" data-name="Grupo 1005459" transform="translate(18.624 30.693)" style="mix-blend-mode: multiply;isolation: isolate">
          <path id="Trazado_719558" data-name="Trazado 719558" d="M-106.144,245.513q-.951-.755-2.01-1.526-.811-.586-1.595-1.106a146.262,146.262,0,0,0-9.227,11.721q-.48.677-.944,1.349c-.785-1.982-1.526-4.12-2.188-6.409a73.651,73.651,0,0,1-2.832-22.914c-.008-.147-.023-.292-.038-.433l-.012-.108,5.4-13.735,4.914,10.411-1.456,8.793Z" transform="translate(124.99 -212.352)" fill="#c66858"/>
        </g>
        <g id="Grupo_1005460" data-name="Grupo 1005460" transform="translate(25.448 33.301)">
          <path id="Trazado_719559" data-name="Trazado 719559" d="M-101.321,230.714c-1.532,2.4.727,6.746,3.21,9.069a11.02,11.02,0,0,0,3.849,2.325c-.012,0-.021,0-.031,0s-1.8,13.277-12.807,3.039q-1.443-1.42-2.893-2.937a132.986,132.986,0,0,1-9.129-10.632q1.746-4.59,3.494-9.182l-.723-1.532,1.539-6.27,9.495,15.584,1.869-2.009A25.062,25.062,0,0,1-92.9,225.924c3.648.05,4.927.939,5.584,1.573a29.829,29.829,0,0,0-.689,2.952,20.41,20.41,0,0,0-2.765-.792C-92.883,229.205-99.452,227.794-101.321,230.714Z" transform="translate(119.123 -214.595)" fill="#134452"/>
        </g>
        <g id="Grupo_1005470" data-name="Grupo 1005470" transform="translate(19.716 30.461)">
          <g id="Grupo_1005469" data-name="Grupo 1005469">
            <g id="Grupo_1005468" data-name="Grupo 1005468">
              <g id="Grupo_1005467" data-name="Grupo 1005467">
                <g id="Grupo_1005464" data-name="Grupo 1005464">
                  <g id="Grupo_1005463" data-name="Grupo 1005463">
                    <g id="Grupo_1005462" data-name="Grupo 1005462">
                      <g id="Grupo_1005461" data-name="Grupo 1005461">
                        <path id="Trazado_719560" data-name="Trazado 719560" d="M-124.045,218.906c-.138,3.829,2,7.013,4.769,7.113s5.131-2.922,5.269-6.75-2-7.014-4.769-7.114S-123.907,215.078-124.045,218.906Z" transform="translate(124.051 -212.153)" fill="#c66858"/>
                      </g>
                    </g>
                  </g>
                </g>
                <g id="Grupo_1005466" data-name="Grupo 1005466" transform="translate(2.627 3.893)" style="mix-blend-mode: multiply;isolation: isolate">
                  <g id="Grupo_1005465" data-name="Grupo 1005465">
                    <path id="Trazado_719561" data-name="Trazado 719561" d="M-118.76,219.464a1.319,1.319,0,0,0-.284-.363,4.622,4.622,0,0,0-.7-.493,2.467,2.467,0,0,0-1.66-.226.323.323,0,0,1-.373-.231.372.372,0,0,1,.162-.441,2.085,2.085,0,0,1,1.108-.166,3.006,3.006,0,0,1,1.076.376,2.167,2.167,0,0,1,.49.391,7.273,7.273,0,0,0-.275-.876,10.408,10.408,0,0,0-.743-1.564.249.249,0,0,1,.394-.3,4.972,4.972,0,0,1,1.135,1.695,6.7,6.7,0,0,1,.456,2.038A3.533,3.533,0,0,1-118.2,221c-.207.47-.648,1.012-1.225.921a.4.4,0,0,1-.049-.77c.661-.255.75-1.022.71-1.689Z" transform="translate(121.793 -215.5)" fill="#c66858"/>
                  </g>
                </g>
              </g>
            </g>
          </g>
        </g>
        <g id="Grupo_1005472" data-name="Grupo 1005472" transform="translate(54.608 43.68)">
          <g id="Grupo_1005471" data-name="Grupo 1005471">
            <path id="Trazado_719562" data-name="Trazado 719562" d="M-93.969,224.058a.116.116,0,0,0,.112-.024,1.264,1.264,0,0,1,1.114-.244,1.256,1.256,0,0,1,.9.7.117.117,0,0,0,.155.062.119.119,0,0,0,.062-.155,1.5,1.5,0,0,0-1.067-.833,1.5,1.5,0,0,0-1.321.3.118.118,0,0,0-.01.166A.116.116,0,0,0-93.969,224.058Z" transform="translate(94.053 -223.518)" fill="#972b1e"/>
          </g>
        </g>
        <g id="Grupo_1005473" data-name="Grupo 1005473" transform="translate(44.272 46.976)">
          <path id="Trazado_719563" data-name="Trazado 719563" d="M-90.906,230.553a.379.379,0,0,1-.051,0,54.327,54.327,0,0,1-11.794-3.587.318.318,0,0,1-.159-.421.316.316,0,0,1,.422-.161,53.667,53.667,0,0,0,11.631,3.538.32.32,0,0,1,.266.365A.32.32,0,0,1-90.906,230.553Z" transform="translate(102.939 -226.352)" fill="#972b1e"/>
        </g>
        <g id="Grupo_1005486" data-name="Grupo 1005486" transform="translate(48.852 32.281)">
          <g id="Grupo_1005485" data-name="Grupo 1005485">
            <g id="Grupo_1005484" data-name="Grupo 1005484">
              <g id="Grupo_1005483" data-name="Grupo 1005483">
                <g id="Grupo_1005482" data-name="Grupo 1005482">
                  <g id="Grupo_1005481" data-name="Grupo 1005481">
                    <g id="Grupo_1005480" data-name="Grupo 1005480">
                      <g id="Grupo_1005479" data-name="Grupo 1005479">
                        <g id="Grupo_1005478" data-name="Grupo 1005478">
                          <g id="Grupo_1005477" data-name="Grupo 1005477">
                            <g id="Grupo_1005476" data-name="Grupo 1005476">
                              <g id="Grupo_1005475" data-name="Grupo 1005475">
                                <g id="Grupo_1005474" data-name="Grupo 1005474">
                                  <path id="Trazado_719564" data-name="Trazado 719564" d="M-96.65,216.319c.7-1.107.9-2.241.445-2.532s-1.4.369-2.1,1.477-.9,2.24-.447,2.532S-97.355,217.426-96.65,216.319Z" transform="translate(99.002 -213.718)" fill="#134452"/>
                                </g>
                              </g>
                            </g>
                          </g>
                        </g>
                      </g>
                    </g>
                  </g>
                </g>
              </g>
            </g>
          </g>
        </g>
      </g>
      <g id="Grupo_1005492" data-name="Grupo 1005492" transform="translate(44.213 54.581)">
        <g id="Grupo_1005489" data-name="Grupo 1005489" transform="translate(17.864)" style="mix-blend-mode: screen;isolation: isolate">
          <g id="Grupo_1005488" data-name="Grupo 1005488">
            <path id="Trazado_719565" data-name="Trazado 719565" d="M-137.369,232.89l30.481,13.3-.45,5.026a96.057,96.057,0,0,0-13.118-5.509c-.9-.3-3.052-1.01-5.865-1.766a104.464,104.464,0,0,0-15.064-2.867Q-139.376,236.981-137.369,232.89Z" transform="translate(141.384 -232.89)" fill="#fff"/>
          </g>
        </g>
        <g id="Grupo_1005491" data-name="Grupo 1005491" transform="translate(0 6.61)" style="mix-blend-mode: screen;isolation: isolate">
          <g id="Grupo_1005490" data-name="Grupo 1005490">
            <path id="Trazado_719566" data-name="Trazado 719566" d="M-145.144,366.245l57.359-3.008q-1.992-14.809-3.986-29.617.958-16.186,1.917-32.369L-92.5,263.188l-12.336-12.9s-18.588-16.827-34.046-10.141q-7.061,13.288-14.123,26.574a178.2,178.2,0,0,0-3.7,40.133A179.306,179.306,0,0,0-145.144,366.245Z" transform="translate(156.743 -238.573)" fill="#fff"/>
          </g>
        </g>
      </g>
      <g id="Grupo_1005493" data-name="Grupo 1005493" transform="translate(62.001 62.288)" style="mix-blend-mode: multiply;isolation: isolate">
        <path id="Trazado_719567" data-name="Trazado 719567" d="M-107.519,250.569a159.312,159.312,0,0,0-33.93-10.108l.152-.946a160.515,160.515,0,0,1,34.162,10.175Z" transform="translate(141.449 -239.516)" fill="#6b9e18"/>
      </g>
      <g id="Grupo_1005494" data-name="Grupo 1005494" transform="translate(67.201 91.716)">
        <path id="Trazado_719568" data-name="Trazado 719568" d="M-96.874,342.27l46.182,13.053,2.652-10.533-39.01-23.536-17.138-49.142c-6.381-7.752-17.247-9.431-24.763-4.53-6.131,4-9.219,11.838-7.6,19.6Z" transform="translate(136.978 -264.816)" fill="#c66858"/>
      </g>
      <g id="Grupo_1005496" data-name="Grupo 1005496" transform="translate(62.178 84.485)" style="mix-blend-mode: screen;isolation: isolate">
        <g id="Grupo_1005495" data-name="Grupo 1005495">
          <path id="Trazado_719569" data-name="Trazado 719569" d="M-122.511,312.194-96.17,294.1-106.9,261.2s-35.557-14.545-34.366,25.14Z" transform="translate(141.297 -258.6)" fill="#fff"/>
        </g>
      </g>
      <g id="Grupo_1005497" data-name="Grupo 1005497" transform="translate(63.775 104.943)" style="mix-blend-mode: multiply;isolation: isolate">
        <rect id="Rect치ngulo_347587" data-name="Rect치ngulo 347587" width="0.958" height="36.554" transform="translate(0 0.473) rotate(-29.58)" fill="#6b9e18"/>
      </g>
      <g id="Grupo_1005498" data-name="Grupo 1005498" transform="translate(34.947 210.725)">
        <path id="Trazado_719570" data-name="Trazado 719570" d="M-41.2,388.6s27.529,14.434,23.443,27.092S-52.55,429.961-52.55,429.961l-112.159-4.416,23.3-16.265,20.337-4.126,27.486-2.53-30.878-11.813,39.693-23.677Z" transform="translate(164.709 -367.134)" fill="#c66858"/>
      </g>
      <g id="Grupo_1005499" data-name="Grupo 1005499" transform="translate(105.876 243.738)" style="mix-blend-mode: multiply;isolation: isolate">
        <path id="Trazado_719571" data-name="Trazado 719571" d="M-77.787,399.1c-11.341-4.8-25.423-.54-25.565-.5l-.377-1.219c.593-.184,14.661-4.436,26.439.54Z" transform="translate(103.728 -395.517)" fill="#c66858"/>
      </g>
      <g id="Grupo_1005500" data-name="Grupo 1005500" transform="translate(53.996 179.07)">
        <path id="Trazado_719572" data-name="Trazado 719572" d="M-147.589,347.586s-4.878,38.536,10.374,46.3,45.857,13.694,45.857,13.694A137.821,137.821,0,0,0-60.133,397.1a137.287,137.287,0,0,0,15.94-8.936,162.852,162.852,0,0,0-15.194-9.883,163.2,163.2,0,0,0-22.679-10.789l-6.267-27.57Z" transform="translate(148.331 -339.919)" fill="#6b9e18"/>
      </g>
      <g id="Grupo_1005501" data-name="Grupo 1005501" transform="translate(54.108 184.983)" style="mix-blend-mode: multiply;isolation: isolate">
        <rect id="Rect치ngulo_347588" data-name="Rect치ngulo 347588" width="61.362" height="1.277" transform="matrix(0.992, -0.126, 0.126, 0.992, 0, 7.731)" fill="#6b9e18"/>
      </g>
      <g id="Grupo_1005502" data-name="Grupo 1005502" transform="translate(93.672 189.336)" style="mix-blend-mode: multiply;isolation: isolate">
        <path id="Trazado_719573" data-name="Trazado 719573" d="M-94.673,375.114l-1.142-.571a24.635,24.635,0,0,1,5.325-7.6,23.772,23.772,0,0,1-16.223-5.448,23.589,23.589,0,0,1-7.506-12.462l1.243-.292a22.3,22.3,0,0,0,7.089,11.781c7.01,5.973,15.4,5.311,18.018,4.913a1.848,1.848,0,0,1,.192-.027l.147,1.268-.1.015C-88.023,366.786-90.961,367.7-94.673,375.114Z" transform="translate(114.22 -348.745)" fill="#6b9e18"/>
      </g>
      <g id="Grupo_1005524" data-name="Grupo 1005524" transform="translate(0 231.358)">
        <g id="Grupo_1005523" data-name="Grupo 1005523">
          <g id="Grupo_1005505" data-name="Grupo 1005505" transform="translate(23.925 10.766)">
            <g id="Grupo_1005504" data-name="Grupo 1005504">
              <g id="Grupo_1005503" data-name="Grupo 1005503">
                <path id="Trazado_719574" data-name="Trazado 719574" d="M-144.7,415.589l-28.157,3.753s-6.033-.251,7.641-10.516,21.78-14.7,21.78-14.7l9.2,11.059Z" transform="translate(174.185 -394.129)" fill="#c66858"/>
              </g>
            </g>
          </g>
          <g id="Grupo_1005509" data-name="Grupo 1005509">
            <g id="Grupo_1005508" data-name="Grupo 1005508">
              <g id="Grupo_1005507" data-name="Grupo 1005507">
                <g id="Grupo_1005506" data-name="Grupo 1005506">
                  <path id="Trazado_719575" data-name="Trazado 719575" d="M-146.156,387.025l9.424,11.988,2.126,2.614a24.785,24.785,0,0,0-5.833,1.912,26.438,26.438,0,0,0-11.14,10.225l11.6,6.257q-5.84,3.327-11.68,6.655c-1.407-2.65-30.532,1.532-30.532,1.532l.015-.017c-3.933,1.7-13.074-6.707-12.554-6.569l46.777-36.748Z" transform="translate(194.754 -384.873)" fill="#6b9e18"/>
                </g>
              </g>
            </g>
          </g>
          <g id="Grupo_1005522" data-name="Grupo 1005522" transform="translate(3.811 3.951)" style="mix-blend-mode: multiply;isolation: isolate">
            <g id="Grupo_1005512" data-name="Grupo 1005512" transform="translate(16.745 30.146)">
              <g id="Grupo_1005511" data-name="Grupo 1005511">
                <g id="Grupo_1005510" data-name="Grupo 1005510">
                  <path id="Trazado_719576" data-name="Trazado 719576" d="M-174.014,414.33a.671.671,0,0,0-.254.585,9.963,9.963,0,0,1-2.631,7.594.669.669,0,0,0,.027.946.67.67,0,0,0,.946-.029,11.32,11.32,0,0,0,2.992-8.628.67.67,0,0,0-.726-.608A.671.671,0,0,0-174.014,414.33Z" transform="translate(177.081 -414.187)" fill="#6b9e18"/>
                </g>
              </g>
            </g>
            <g id="Grupo_1005515" data-name="Grupo 1005515" transform="translate(21.195 29.635)">
              <g id="Grupo_1005514" data-name="Grupo 1005514">
                <g id="Grupo_1005513" data-name="Grupo 1005513">
                  <path id="Trazado_719577" data-name="Trazado 719577" d="M-170.189,413.891a.669.669,0,0,0-.255.584,9.961,9.961,0,0,1-2.63,7.6.668.668,0,0,0,.028.944.666.666,0,0,0,.946-.028,11.322,11.322,0,0,0,2.99-8.629.67.67,0,0,0-.726-.608A.667.667,0,0,0-170.189,413.891Z" transform="translate(173.256 -413.748)" fill="#6b9e18"/>
                </g>
              </g>
            </g>
            <g id="Grupo_1005518" data-name="Grupo 1005518" transform="translate(25.182 29.487)">
              <g id="Grupo_1005517" data-name="Grupo 1005517">
                <g id="Grupo_1005516" data-name="Grupo 1005516">
                  <path id="Trazado_719578" data-name="Trazado 719578" d="M-166.76,413.764a.669.669,0,0,0-.255.584,9.961,9.961,0,0,1-2.631,7.6.669.669,0,0,0,.028.946.664.664,0,0,0,.944-.029,11.316,11.316,0,0,0,2.993-8.628.669.669,0,0,0-.726-.608A.667.667,0,0,0-166.76,413.764Z" transform="translate(169.828 -413.621)" fill="#6b9e18"/>
                </g>
              </g>
            </g>
            <g id="Grupo_1005521" data-name="Grupo 1005521">
              <g id="Grupo_1005520" data-name="Grupo 1005520">
                <g id="Grupo_1005519" data-name="Grupo 1005519">
                  <path id="Trazado_719579" data-name="Trazado 719579" d="M-146.1,388.474l-45.026,35.372a.7.7,0,0,0-.248.942.7.7,0,0,0,.975-.017l45.026-35.372a.7.7,0,0,0,.248-.942A.7.7,0,0,0-146.1,388.474Z" transform="translate(191.478 -388.269)" fill="#6b9e18"/>
                </g>
              </g>
            </g>
          </g>
        </g>
      </g>
    </g>
    <g id="Grupo_1005630" data-name="Grupo 1005630" transform="translate(107.393 327.47)">
      <g id="Grupo_1005526" data-name="Grupo 1005526" transform="translate(13 58.021)">
        <path id="Trazado_719580" data-name="Trazado 719580" d="M76.192,393.3l9.539-7.1,15.054-32.5,9.159,8.292-10.7,25.455-18.072,12.5Z" transform="translate(-76.192 -353.691)" fill="#c66858"/>
      </g>
      <g id="Grupo_1005527" data-name="Grupo 1005527" transform="translate(29.064 55.206)">
        <path id="Trazado_719581" data-name="Trazado 719581" d="M102.465,351.351S93.309,348.79,90,372.5l11.565,5.306Z" transform="translate(-90.003 -351.27)" fill="#279f95"/>
      </g>
      <g id="Grupo_1005528" data-name="Grupo 1005528" transform="translate(22.539 117.342)">
        <path id="Trazado_719582" data-name="Trazado 719582" d="M87.428,404.692a30.5,30.5,0,0,0-3,11.5c-.185,3.434.383,4.529.821,5.132,2.106,2.894,7.117,2.446,9.236,2.258,0,0,3.448-.308,13.434-4.747h0l-1.4-7.637-4.034-2.493Z" transform="translate(-84.393 -404.692)" fill="#8e2618"/>
      </g>
      <g id="Grupo_1005559" data-name="Grupo 1005559" transform="translate(29.357)">
        <g id="Grupo_1005529" data-name="Grupo 1005529" transform="translate(17.341 38.184)">
          <path id="Trazado_719583" data-name="Trazado 719583" d="M105.164,354.592l17.8-4.833c-.059-.664.386-13.124.386-13.124l-4.849,1.781L105.471,343.2l-.254,9.414Z" transform="translate(-105.164 -336.636)" fill="#c66858"/>
        </g>
        <g id="Grupo_1005530" data-name="Grupo 1005530" transform="translate(17.394 39.965)">
          <path id="Trazado_719584" data-name="Trazado 719584" d="M105.21,352.366a11.989,11.989,0,0,0,13.284-14.2l-13.031,4.785Z" transform="translate(-105.21 -338.167)" fill="#8e2618"/>
        </g>
        <g id="Grupo_1005531" data-name="Grupo 1005531" transform="translate(2.221 1.047)">
          <path id="Trazado_719585" data-name="Trazado 719585" d="M135,332.844c-2.7,4.206-6.806,6.751-10.405,10.169-.571.543-1.19,1.033-1.81,1.518-1.861,1.455-3.324,3.328-5.14,4.8a26.063,26.063,0,0,1-13.076,5.564,5.331,5.331,0,0,1-4.821-1.948c-2.369-2.989-3.428-6.981-4.044-10.746a3.824,3.824,0,0,1-2.293-.4,2.3,2.3,0,0,1-.469-3.765,39.631,39.631,0,0,1,3.339-2.829,22.439,22.439,0,0,1-2.455-11.381c.432-8.4,6.585-14.9,14.485-17.774a23.761,23.761,0,0,1,23.555,4.614,17.975,17.975,0,0,1,5.946,10.418A17.392,17.392,0,0,1,135,332.844Z" transform="translate(-92.165 -304.708)" fill="#c66858"/>
        </g>
        <g id="Grupo_1005532" data-name="Grupo 1005532">
          <path id="Trazado_719586" data-name="Trazado 719586" d="M94.635,326.87a9.488,9.488,0,0,0,3.181,1.526,10.2,10.2,0,0,0,8.022-1.1,16.659,16.659,0,0,0,9.281,6.657,4.351,4.351,0,0,0,2.431.126,2.06,2.06,0,0,0,1.075-.819c-.371,1.929-.515,4.68.756,5.577,1.521,1.077,3.331,1.9,4.313,3.489,1.012,1.625.919,3.689.663,5.588a3.807,3.807,0,0,0,3.063-6.044,10.478,10.478,0,0,0,7.859-1.735c2.248-1.595,3.36-4.686,4.341-7.265a20.346,20.346,0,0,0-1.466-16.785,21.4,21.4,0,0,0-3.536-4.8,22.2,22.2,0,0,0-1.942-1.756,27.425,27.425,0,0,0-19.489-5.6C104.327,304.716,80.5,316.433,94.635,326.87Z" transform="translate(-90.255 -303.807)" fill="#134452"/>
        </g>
        <g id="Grupo_1005538" data-name="Grupo 1005538" transform="translate(25.035 24.215)">
          <g id="Grupo_1005534" data-name="Grupo 1005534">
            <g id="Grupo_1005533" data-name="Grupo 1005533">
              <path id="Trazado_719587" data-name="Trazado 719587" d="M112.224,333.86a7.543,7.543,0,0,1,.021-5.136c.6-1.553,2.26-4.133,4.635-4.1,1.79.026,3.018,1.521,3.539,2.155.1.127,2.5,3.135,1.367,6.415-1.021,2.968-4.507,4.942-8.275,4.271Z" transform="translate(-111.779 -324.626)" fill="#c66858"/>
            </g>
          </g>
          <g id="Grupo_1005537" data-name="Grupo 1005537" transform="translate(3.003 4.049)">
            <g id="Grupo_1005536" data-name="Grupo 1005536" style="mix-blend-mode: multiply;isolation: isolate">
              <g id="Grupo_1005535" data-name="Grupo 1005535">
                <path id="Trazado_719588" data-name="Trazado 719588" d="M118.548,328.39a3.022,3.022,0,0,0-3.071.312,2.862,2.862,0,0,0-1.067,2.814,2.984,2.984,0,0,0,.843,1.605.411.411,0,0,0,.573-.049.416.416,0,0,0-.05-.573,2.2,2.2,0,0,1-.392-2.448.294.294,0,0,0,.134.048,2.667,2.667,0,0,1,.359.049q.084.019.167.042l.037.012.076.027a2.541,2.541,0,0,1,.314.143c.051.027.1.057.15.086-.078-.045.019.013.028.02l.07.05a2.681,2.681,0,0,1,.265.222l.062.06.044.048c.03.036.06.071.088.107a2.619,2.619,0,0,1,.194.285c.014.023.027.048.04.071l.015.03c.027.057.051.115.074.174a.407.407,0,1,0,.767-.273,3.117,3.117,0,0,0-2.287-1.906,2.206,2.206,0,0,1,2.216-.219A.407.407,0,0,0,118.548,328.39Z" transform="translate(-114.36 -328.107)" fill="#8e2618"/>
              </g>
            </g>
          </g>
        </g>
        <g id="Grupo_1005539" data-name="Grupo 1005539" transform="translate(8.158 39.219)" style="mix-blend-mode: multiply;isolation: isolate">
          <path id="Trazado_719589" data-name="Trazado 719589" d="M98.391,340.465a6.85,6.85,0,0,1-1.122-.092l.1-.63a6.155,6.155,0,0,0,5.821-2.217l.5.4a6.775,6.775,0,0,1-5.3,2.538Z" transform="translate(-97.269 -337.526)" fill="#c86858"/>
        </g>
        <g id="Grupo_1005540" data-name="Grupo 1005540" transform="translate(4.874 36.902)" style="mix-blend-mode: multiply;isolation: isolate">
          <path id="Trazado_719590" data-name="Trazado 719590" d="M94.838,336.434l-.392-.5a1.964,1.964,0,0,1,2.087-.177l-.3.564A1.326,1.326,0,0,0,94.838,336.434Z" transform="translate(-94.446 -335.534)" fill="#c86858"/>
        </g>
        <g id="Grupo_1005541" data-name="Grupo 1005541" transform="translate(6.692 49.64)">
          <path id="Trazado_719591" data-name="Trazado 719591" d="M96.009,388.615l36.471,5.733,3.046-34.65a15.872,15.872,0,0,0-.3-3.014c-.666-3.574-2.825-9.192-9.776-10.2a12.335,12.335,0,0,0-5.133,1.029,11.815,11.815,0,0,0-1.055.546,24.826,24.826,0,0,1-4.315,1.756c-3.209,1.02-4.618.012-8.529.721a19.82,19.82,0,0,0-4.931,1.595Z" transform="translate(-96.009 -346.485)" fill="#a5c94f"/>
        </g>
        <g id="Grupo_1005542" data-name="Grupo 1005542" transform="translate(17.341 48.767)">
          <path id="Trazado_719592" data-name="Trazado 719592" d="M105.217,351.131c.987,3.478,2.721,4.458,3.323,4.739,3.613,1.683,9.992-1.527,14.439-9.131a2.125,2.125,0,0,0-.64-.67c-1.717-1.125-4.661.869-6.7,1.838a17.87,17.87,0,0,1-10.474,1.229Z" transform="translate(-105.164 -345.734)" fill="#c66858"/>
        </g>
        <g id="Grupo_1005543" data-name="Grupo 1005543" transform="translate(7.561 5.713)" style="mix-blend-mode: screen;isolation: isolate">
          <path id="Trazado_719593" data-name="Trazado 719593" d="M96.756,327.594a10.2,10.2,0,0,0,8.022-1.1,16.665,16.665,0,0,0,4.778,4.641,7.459,7.459,0,0,0,2.281-.889,7.9,7.9,0,0,0,3.672-7.644,8.687,8.687,0,0,0,13.26-6.979,12.111,12.111,0,0,0,8.325-.341,21.4,21.4,0,0,0-3.536-4.8,22.191,22.191,0,0,0-1.942-1.756,10.285,10.285,0,0,1-9.455.39,6.616,6.616,0,0,1-9.011,7.993,10.475,10.475,0,0,1-16.1,5.58A6.781,6.781,0,0,1,96.756,327.594Z" transform="translate(-96.756 -308.719)" fill="#134452"/>
        </g>
        <g id="Grupo_1005544" data-name="Grupo 1005544" transform="translate(14.142 31.203)" opacity="0.4" style="mix-blend-mode: multiply;isolation: isolate">
          <path id="Trazado_719594" data-name="Trazado 719594" d="M102.516,335.579c.386.382,1.707-1.249,4.664-1.789,2.594-.473,4.128.315,4.321-.152.276-.666-2.372-3.43-5.117-2.947C103.485,331.2,102,335.064,102.516,335.579Z" transform="translate(-102.414 -330.634)" fill="#c66858"/>
        </g>
        <g id="Grupo_1005557" data-name="Grupo 1005557" transform="translate(10.457 28.924)">
          <g id="Grupo_1005556" data-name="Grupo 1005556">
            <g id="Grupo_1005555" data-name="Grupo 1005555">
              <g id="Grupo_1005554" data-name="Grupo 1005554">
                <g id="Grupo_1005553" data-name="Grupo 1005553">
                  <g id="Grupo_1005552" data-name="Grupo 1005552">
                    <g id="Grupo_1005551" data-name="Grupo 1005551">
                      <g id="Grupo_1005550" data-name="Grupo 1005550">
                        <g id="Grupo_1005549" data-name="Grupo 1005549">
                          <g id="Grupo_1005548" data-name="Grupo 1005548">
                            <g id="Grupo_1005547" data-name="Grupo 1005547">
                              <g id="Grupo_1005546" data-name="Grupo 1005546">
                                <g id="Grupo_1005545" data-name="Grupo 1005545">
                                  <path id="Trazado_719595" data-name="Trazado 719595" d="M99.788,331.6c.646,1.32,1.612,2.174,2.158,1.906s.465-1.554-.18-2.874-1.612-2.174-2.158-1.906S99.143,330.278,99.788,331.6Z" transform="translate(-99.245 -328.675)" fill="#134452"/>
                                </g>
                              </g>
                            </g>
                          </g>
                        </g>
                      </g>
                    </g>
                  </g>
                </g>
              </g>
            </g>
          </g>
        </g>
        <g id="Grupo_1005558" data-name="Grupo 1005558" transform="translate(7.392 26.241)">
          <path id="Trazado_719596" data-name="Trazado 719596" d="M97.008,326.877a.825.825,0,0,0,.4,1.531,10.154,10.154,0,0,1,4.99-1.25S100.758,325.585,97.008,326.877Z" transform="translate(-96.61 -326.368)" fill="#134452"/>
        </g>
      </g>
      <g id="Grupo_1005580" data-name="Grupo 1005580" transform="translate(19.331 53.401)">
        <g id="Grupo_1005579" data-name="Grupo 1005579">
          <g id="Grupo_1005566" data-name="Grupo 1005566">
            <g id="Grupo_1005565" data-name="Grupo 1005565">
              <g id="Grupo_1005564" data-name="Grupo 1005564">
                <g id="Grupo_1005563" data-name="Grupo 1005563">
                  <g id="Grupo_1005562" data-name="Grupo 1005562">
                    <g id="Grupo_1005561" data-name="Grupo 1005561">
                      <g id="Grupo_1005560" data-name="Grupo 1005560">
                        <path id="Trazado_719597" data-name="Trazado 719597" d="M98.685,361.694a35,35,0,0,1,1.212-7.355.831.831,0,0,0-1.177-.969,6.052,6.052,0,0,0-3.043,4.141,25.561,25.561,0,0,1-3.215-6.595c-.14-.484-.294-1.014-.879-1.162a1.363,1.363,0,0,0-1.525.832c-1.24,2.712.259,5.653,2,7.93-1.047-1.725-2.822-4.006-3.869-5.731a1.694,1.694,0,0,0-.742-.777,1.14,1.14,0,0,0-1.348.685,2.9,2.9,0,0,0-.086,1.643,15.478,15.478,0,0,0,3.2,7.222,29.368,29.368,0,0,0-4.466-5.78c-.8-.836-2.259-1.584-2.925-.485a1.5,1.5,0,0,0-.007,1.456,53.65,53.65,0,0,0,8.072,11.6c.316.347,1.149.5,1.433.876a8.7,8.7,0,0,0,5.8-1.546C98.9,366.412,99.971,363.452,98.685,361.694Z" transform="translate(-81.635 -349.718)" fill="#c66858"/>
                      </g>
                    </g>
                  </g>
                </g>
              </g>
            </g>
          </g>
          <g id="Grupo_1005572" data-name="Grupo 1005572" transform="translate(7.76 4.706)">
            <g id="Grupo_1005571" data-name="Grupo 1005571">
              <g id="Grupo_1005570" data-name="Grupo 1005570">
                <g id="Grupo_1005569" data-name="Grupo 1005569">
                  <g id="Grupo_1005568" data-name="Grupo 1005568">
                    <g id="Grupo_1005567" data-name="Grupo 1005567">
                      <path id="Trazado_719598" data-name="Trazado 719598" d="M88.309,354.013a.289.289,0,0,1,.548-.083,22.954,22.954,0,0,0,2.246,3.8.289.289,0,0,1-.466.342,23.784,23.784,0,0,1-2.3-3.9A.308.308,0,0,1,88.309,354.013Z" transform="translate(-88.307 -353.764)" fill="#8e2618"/>
                    </g>
                  </g>
                </g>
              </g>
            </g>
          </g>
          <g id="Grupo_1005578" data-name="Grupo 1005578" transform="translate(4.826 7.942)">
            <g id="Grupo_1005577" data-name="Grupo 1005577">
              <g id="Grupo_1005576" data-name="Grupo 1005576">
                <g id="Grupo_1005575" data-name="Grupo 1005575">
                  <g id="Grupo_1005574" data-name="Grupo 1005574">
                    <g id="Grupo_1005573" data-name="Grupo 1005573">
                      <path id="Trazado_719599" data-name="Trazado 719599" d="M85.787,356.8a.289.289,0,0,1,.536-.1c.692,1.195,1.445,2.36,2.238,3.459a.288.288,0,1,1-.468.337,41.776,41.776,0,0,1-2.269-3.508A.287.287,0,0,1,85.787,356.8Z" transform="translate(-85.785 -356.546)" fill="#8e2618"/>
                    </g>
                  </g>
                </g>
              </g>
            </g>
          </g>
        </g>
      </g>
      <g id="Grupo_1005581" data-name="Grupo 1005581" transform="translate(28.641 58.077)">
        <path id="Trazado_719600" data-name="Trazado 719600" d="M95.288,364.632l16.586,8.416,8.964-19.309,12.642,8.361-20.161,27.249L89.639,368.39Z" transform="translate(-89.639 -353.739)" fill="#c66858"/>
      </g>
      <g id="Grupo_1005582" data-name="Grupo 1005582" transform="translate(54.345 49.64)">
        <path id="Trazado_719601" data-name="Trazado 719601" d="M111.738,366.148l17.919,5.224,3-14.687a9.925,9.925,0,0,0-9.776-10.2c-.247,0-.513,0-.8.02a4.978,4.978,0,0,0-4.718,4.672h0Z" transform="translate(-111.738 -346.485)" fill="#279f95"/>
      </g>
      <g id="Grupo_1005583" data-name="Grupo 1005583" transform="translate(37.704 123.312)">
        <path id="Trazado_719602" data-name="Trazado 719602" d="M103.865,409.824c-.483.571-8.868,10.674-5.734,15.314.928,1.375,2.719,2.054,9.83,2.517a150.609,150.609,0,0,0,18.793-.059c2.906-.148,7.615-.377,13.562-.619l-3.915-8.738q-3.371-1.1-6.871-2.136C120.644,413.469,112.06,411.416,103.865,409.824Z" transform="translate(-97.432 -409.824)" fill="#c66858"/>
      </g>
      <g id="Grupo_1005585" data-name="Grupo 1005585" transform="translate(25.573 91.769)" style="mix-blend-mode: screen;isolation: isolate">
        <g id="Grupo_1005584" data-name="Grupo 1005584">
          <path id="Trazado_719603" data-name="Trazado 719603" d="M97.478,382.7,87,408.279l15.056,4.011,1.64-4.2q.562,3.24,1.121,6.48a123.076,123.076,0,0,0,22.774,4.922q.987.117,1.966.216a235.249,235.249,0,0,0,3.674-23.27q.436-4.074.716-8Z" transform="translate(-87.002 -382.705)" fill="#fff"/>
        </g>
      </g>
      <g id="Grupo_1005586" data-name="Grupo 1005586" transform="translate(35.238 93.291)">
        <path id="Trazado_719604" data-name="Trazado 719604" d="M132.32,390.916c-8.257-.749-36.722-6.22-37.009-6.276l.12-.626c.287.055,28.721,5.52,36.946,6.267Z" transform="translate(-95.311 -384.014)" fill="#279f95"/>
      </g>
      <g id="Grupo_1005587" data-name="Grupo 1005587" transform="translate(41.016 104.097)">
        <path id="Trazado_719605" data-name="Trazado 719605" d="M101.214,407.705l-.319-3.179-.616-.888,1-10.334.636.062-.981,10.1.585.914.328,3.263Z" transform="translate(-100.279 -393.304)" fill="#279f95"/>
      </g>
      <g id="Grupo_1005608" data-name="Grupo 1005608" transform="translate(0 96.486)">
        <g id="Grupo_1005607" data-name="Grupo 1005607">
          <g id="Grupo_1005594" data-name="Grupo 1005594">
            <g id="Grupo_1005593" data-name="Grupo 1005593">
              <g id="Grupo_1005592" data-name="Grupo 1005592">
                <g id="Grupo_1005591" data-name="Grupo 1005591">
                  <g id="Grupo_1005590" data-name="Grupo 1005590">
                    <g id="Grupo_1005589" data-name="Grupo 1005589">
                      <g id="Grupo_1005588" data-name="Grupo 1005588">
                        <path id="Trazado_719606" data-name="Trazado 719606" d="M83.05,396.137a35.06,35.06,0,0,0-1.027,7.382.831.831,0,0,1-1.412.575,6.046,6.046,0,0,1-1.675-4.857,25.527,25.527,0,0,0-5.029,5.342c-.277.42-.583.881-1.185.848a1.365,1.365,0,0,1-1.209-1.248c-.378-2.958,1.927-5.32,4.268-6.976-1.512,1.335-3.885,2.987-5.4,4.322a1.7,1.7,0,0,1-.94.521,1.141,1.141,0,0,1-1.084-1.055,2.911,2.911,0,0,1,.406-1.595,15.481,15.481,0,0,1,5.205-5.944,29.411,29.411,0,0,1-5.982,4.192c-1.011.561-2.629.841-2.937-.406a1.507,1.507,0,0,1,.425-1.393,53.618,53.618,0,0,1,11.154-8.673c.4-.237,1.247-.138,1.627-.411a8.707,8.707,0,0,1,5.081,3.2C84.658,391.694,84.8,394.84,83.05,396.137Z" transform="translate(-65.016 -386.761)" fill="#c66858"/>
                      </g>
                    </g>
                  </g>
                </g>
              </g>
            </g>
          </g>
          <g id="Grupo_1005600" data-name="Grupo 1005600" transform="translate(7.078 10.08)">
            <g id="Grupo_1005599" data-name="Grupo 1005599">
              <g id="Grupo_1005598" data-name="Grupo 1005598">
                <g id="Grupo_1005597" data-name="Grupo 1005597">
                  <g id="Grupo_1005596" data-name="Grupo 1005596">
                    <g id="Grupo_1005595" data-name="Grupo 1005595">
                      <path id="Trazado_719607" data-name="Trazado 719607" d="M71.1,398.666a.289.289,0,0,0,.5.243,22.969,22.969,0,0,1,3.273-2.961.289.289,0,1,0-.343-.464,23.723,23.723,0,0,0-3.356,3.035A.294.294,0,0,0,71.1,398.666Z" transform="translate(-71.101 -395.428)" fill="#8e2618"/>
                    </g>
                  </g>
                </g>
              </g>
            </g>
          </g>
          <g id="Grupo_1005606" data-name="Grupo 1005606" transform="translate(5.239 6.459)">
            <g id="Grupo_1005605" data-name="Grupo 1005605">
              <g id="Grupo_1005604" data-name="Grupo 1005604">
                <g id="Grupo_1005603" data-name="Grupo 1005603">
                  <g id="Grupo_1005602" data-name="Grupo 1005602">
                    <g id="Grupo_1005601" data-name="Grupo 1005601">
                      <path id="Trazado_719608" data-name="Trazado 719608" d="M69.524,395.212a.288.288,0,0,0,.48.259,41.109,41.109,0,0,1,3.165-2.638.289.289,0,0,0-.347-.462,41.761,41.761,0,0,0-3.209,2.675A.284.284,0,0,0,69.524,395.212Z" transform="translate(-69.52 -392.314)" fill="#8e2618"/>
                    </g>
                  </g>
                </g>
              </g>
            </g>
          </g>
        </g>
      </g>
      <g id="Grupo_1005609" data-name="Grupo 1005609" transform="translate(62.179 98.836)">
        <path id="Trazado_719609" data-name="Trazado 719609" d="M127.407,398.626c-2.981,0-5.269-.864-6.805-2.568-2.6-2.887-2.1-7.1-2.074-7.277l.634.081c-.006.041-.489,4.106,1.917,6.769,1.47,1.631,3.743,2.408,6.689,2.351l.015.639C127.657,398.623,127.531,398.626,127.407,398.626Z" transform="translate(-118.474 -388.781)" fill="#279f95"/>
      </g>
      <g id="Grupo_1005629" data-name="Grupo 1005629" transform="translate(70.884 123.178)">
        <g id="Grupo_1005628" data-name="Grupo 1005628">
          <g id="Grupo_1005612" data-name="Grupo 1005612" transform="translate(0 4.546)">
            <g id="Grupo_1005611" data-name="Grupo 1005611">
              <g id="Grupo_1005610" data-name="Grupo 1005610">
                <path id="Trazado_719610" data-name="Trazado 719610" d="M130.377,422.678l11.888,1.584s2.547-.106-3.227-4.44a86.254,86.254,0,0,0-9.195-6.205l-3.886,4.669Z" transform="translate(-125.958 -413.617)" fill="#c66858"/>
              </g>
            </g>
          </g>
          <g id="Grupo_1005614" data-name="Grupo 1005614" transform="translate(1.573)" style="mix-blend-mode: screen;isolation: isolate">
            <g id="Grupo_1005613" data-name="Grupo 1005613">
              <path id="Trazado_719611" data-name="Trazado 719611" d="M132.187,410.617l-3.979,5.062-.9,1.1a10.417,10.417,0,0,1,2.464.808,11.162,11.162,0,0,1,4.7,4.316l-4.9,2.641,4.932,2.81c.594-1.119,12.891.647,12.891.647L147.4,428c1.66.719,5.52-2.832,5.3-2.774l-19.749-15.515Z" transform="translate(-127.31 -409.709)" fill="#fff"/>
            </g>
          </g>
          <g id="Grupo_1005627" data-name="Grupo 1005627" transform="translate(5.748 1.668)" style="mix-blend-mode: multiply;isolation: isolate">
            <g id="Grupo_1005617" data-name="Grupo 1005617" transform="translate(10.773 12.728)">
              <g id="Grupo_1005616" data-name="Grupo 1005616">
                <g id="Grupo_1005615" data-name="Grupo 1005615">
                  <path id="Trazado_719612" data-name="Trazado 719612" d="M140.634,422.145a.284.284,0,0,1,.108.248,4.2,4.2,0,0,0,1.111,3.206.282.282,0,1,1-.411.387,4.778,4.778,0,0,1-1.263-3.643.281.281,0,0,1,.306-.256A.273.273,0,0,1,140.634,422.145Z" transform="translate(-140.162 -422.086)" fill="#6b9e18"/>
                </g>
              </g>
            </g>
            <g id="Grupo_1005620" data-name="Grupo 1005620" transform="translate(8.894 12.512)">
              <g id="Grupo_1005619" data-name="Grupo 1005619">
                <g id="Grupo_1005618" data-name="Grupo 1005618">
                  <path id="Trazado_719613" data-name="Trazado 719613" d="M139.02,421.96a.285.285,0,0,1,.107.247,4.2,4.2,0,0,0,1.111,3.207.283.283,0,0,1-.412.387,4.778,4.778,0,0,1-1.262-3.643.283.283,0,0,1,.306-.257A.291.291,0,0,1,139.02,421.96Z" transform="translate(-138.547 -421.9)" fill="#6b9e18"/>
                </g>
              </g>
            </g>
            <g id="Grupo_1005623" data-name="Grupo 1005623" transform="translate(7.21 12.449)">
              <g id="Grupo_1005622" data-name="Grupo 1005622">
                <g id="Grupo_1005621" data-name="Grupo 1005621">
                  <path id="Trazado_719614" data-name="Trazado 719614" d="M137.572,421.906a.283.283,0,0,1,.107.248,4.2,4.2,0,0,0,1.111,3.206.282.282,0,1,1-.411.387,4.778,4.778,0,0,1-1.263-3.643.285.285,0,0,1,.307-.257A.291.291,0,0,1,137.572,421.906Z" transform="translate(-137.099 -421.846)" fill="#6b9e18"/>
                </g>
              </g>
            </g>
            <g id="Grupo_1005626" data-name="Grupo 1005626">
              <g id="Grupo_1005625" data-name="Grupo 1005625">
                <g id="Grupo_1005624" data-name="Grupo 1005624">
                  <path id="Trazado_719615" data-name="Trazado 719615" d="M131.354,411.229l19.01,14.935a.258.258,0,1,1-.307.391l-19.01-14.935a.258.258,0,1,1,.307-.391Z" transform="translate(-130.9 -411.143)" fill="#6b9e18"/>
                </g>
              </g>
            </g>
          </g>
        </g>
      </g>
    </g>
    <g id="Grupo_1005632" data-name="Grupo 1005632" transform="translate(-54.032 158.756)">
      <path id="Trazado_719616" data-name="Trazado 719616" d="M172.769,262.849a31.644,31.644,0,0,0-25.217,50.766,22.242,22.242,0,0,1-3.047,2.945,22.479,22.479,0,0,1-8.273,4.137,33.057,33.057,0,0,0,20.546,2.222c.476-.106.937-.223,1.392-.347a31.646,31.646,0,1,0,14.6-59.724Z" transform="translate(-136.231 -262.849)" fill="#fff"/>
      <g id="Grupo_1005631" data-name="Grupo 1005631" transform="translate(17.988 12.961)">
        <path id="Trazado_719617" data-name="Trazado 719617" d="M189.824,297.578h-9.3l-2.351-4.055a1.159,1.159,0,0,1,.4-1.589l5.015-3.018h0a1.161,1.161,0,0,1,1.589.4l4.256,7.334a4.069,4.069,0,0,1,.4.929Zm-.067,2.45H176.973v-2.494h0a.656.656,0,0,0-1.164-.4l-4.622,5.635a2.149,2.149,0,0,0,0,2.729l4.65,5.623A.656.656,0,0,0,177,310.7v-2.494l5.813-.02a4.082,4.082,0,0,0,3.534-2.053l3.078-5.4a4.108,4.108,0,0,0,.33-.711Zm-22.378,8.136a1.158,1.158,0,0,0,1.156-1.191l-.107-5.853h0a1.162,1.162,0,0,0-1.164-1.14h-4.685l-4.65,8.065a4.113,4.113,0,0,0,1,.123Zm-15.125-7.41,3.125,5.381h0a4.118,4.118,0,0,0,.461.627l6.386-11.072,2.16,1.24h0a.656.656,0,0,0,.942-.794l-2.582-6.818a2.145,2.145,0,0,0-2.382-1.359l-7.188,1.191a.656.656,0,0,0-.219,1.22l2.161,1.239-2.872,5.039a4.087,4.087,0,0,0,.008,4.106Zm12.028-24.692-4.213,7.327a1.16,1.16,0,0,0,.444,1.589l5.122,2.835a1.161,1.161,0,0,0,1.554-.433l2.338-4.062-4.637-8.057a4.078,4.078,0,0,0-.608.8Zm7.228,11.564,7.2,1.191h0a2.145,2.145,0,0,0,2.359-1.37l2.546-6.83h0a.656.656,0,0,0-.946-.794l-2.156,1.252-2.926-5.048a4.09,4.09,0,0,0-3.546-2.033l-6.218.021a3.991,3.991,0,0,0-.771.083l6.394,11.06-2.156,1.25h0a.655.655,0,0,0,.227,1.219Z" transform="translate(-151.696 -273.992)" fill="#a3c74f"/>
        <path id="Trazado_719618" data-name="Trazado 719618" d="M187.377,297.143a23.008,23.008,0,0,1-14.455,5.127q-1.01,0-2-.088a1.919,1.919,0,0,0,.266.431l4.649,5.624a.655.655,0,0,0,.733.2.644.644,0,0,0,.43-.621v-2.493l5.819-.023a4.052,4.052,0,0,0,2.038-.55,4.127,4.127,0,0,0,1.495-1.5l3.078-5.4a4.372,4.372,0,0,0,.331-.708Zm-18.886,4.7a22.962,22.962,0,0,1-7.1-2.687l-3.462,6.008a4.058,4.058,0,0,0,1,.123l8.454-.006a1.148,1.148,0,0,0,1.152-1.186Zm-15.058-10.16-1.188,2.085a4.085,4.085,0,0,0,.006,4.1l3.125,5.382a4.618,4.618,0,0,0,.461.627l3.5-6.067A24.814,24.814,0,0,1,153.434,291.679Z" transform="translate(-151.696 -271.107)" fill="#a3c74f" style="mix-blend-mode: multiply;isolation: isolate"/>
      </g>
    </g>
  </g>
</svg>
